<?xml version="1.0" encoding="UTF-8"?>
<svg xmlns="http://www.w3.org/2000/svg" xmlns:xlink="http://www.w3.org/1999/xlink" width="35" height="18" viewBox="0 0 35 18">
<path fill="none" stroke-width="32.5295" stroke-linecap="round" stroke-linejoin="round" stroke="rgb(0%, 0%, 0%)" stroke-opacity="1" stroke-miterlimit="10" d="M 149.980047 -1.706172 C 136.696732 38.39641 117.606052 2.078096 117.059279 -64.552461 C 116.72727 -105.435796 124.522843 -138.51706 134.415948 -152.009233 C 143.677971 -164.593839 153.86341 -159.925341 162.148683 -139.263964 C 174.671883 -44.000762 192.288007 39.09464 213.758577 104.063883 C 224.60416 136.780081 236.352841 164.547088 248.784029 186.901749 " transform="matrix(0.113137, -0.0468644, -0.0117155, -0.0282833, 0, 18)"/>
<path fill="none" stroke-width="32.5295" stroke-linecap="round" stroke-linejoin="round" stroke="rgb(0%, 0%, 0%)" stroke-opacity="1" stroke-miterlimit="10" d="M 104.890643 73.005331 C 91.607328 113.107913 72.516648 76.7896 71.969875 10.159042 C 71.608396 -30.675461 79.433439 -63.805557 89.326544 -77.29773 C 98.588567 -89.882335 108.744536 -85.165007 117.059279 -64.552461 " transform="matrix(0.113137, -0.0468644, -0.0117155, -0.0282833, 0, 18)"/>
<path fill="none" stroke-width="32.5295" stroke-linecap="round" stroke-linejoin="round" stroke="rgb(0%, 0%, 0%)" stroke-opacity="1" stroke-miterlimit="10" d="M 59.801239 147.716834 C 46.488454 187.868247 27.427245 151.501103 26.880471 84.870545 C 26.518992 44.036042 34.344035 10.905946 44.23714 -2.586227 C 53.469693 -15.122001 63.655132 -10.453504 71.969875 10.159042 " transform="matrix(0.113137, -0.0468644, -0.0117155, -0.0282833, 0, 18)"/>
<path fill="none" stroke-width="38.0441" stroke-linecap="round" stroke-linejoin="round" stroke="rgb(0%, 0%, 0%)" stroke-opacity="1" stroke-miterlimit="10" d="M 282.785514 -73.184704 C 286.5743 -73.225446 290.898355 -76.692794 293.414365 -70.772067 " transform="matrix(0.097754, -0.0355797, -0.0177892, -0.048877, 0, 18)"/>
<path fill="none" stroke-width="38.0441" stroke-linecap="round" stroke-linejoin="round" stroke="rgb(0%, 0%, 0%)" stroke-opacity="1" stroke-miterlimit="10" d="M 295.035844 -173.850417 C 298.837473 -173.820588 303.196813 -177.313622 305.677537 -171.367209 " transform="matrix(0.097754, -0.0355797, -0.0177892, -0.048877, 0, 18)"/>
</svg>
