<?xml version="1.0" encoding="UTF-8"?>
<svg xmlns="http://www.w3.org/2000/svg" xmlns:xlink="http://www.w3.org/1999/xlink" width="26" height="24" viewBox="0 0 26 24">
<path fill="none" stroke-width="32.5295" stroke-linecap="round" stroke-linejoin="round" stroke="rgb(0%, 0%, 0%)" stroke-opacity="1" stroke-miterlimit="10" d="M 200.129926 481.592711 L 95.141981 232.932619 L 109.50021 244.221886 " transform="matrix(0.113137, -0.0468644, -0.0117155, -0.0282833, 0, 24)"/>
<path fill="none" stroke-width="38.0441" stroke-linecap="round" stroke-linejoin="round" stroke="rgb(0%, 0%, 0%)" stroke-opacity="1" stroke-miterlimit="10" d="M 231.605885 149.085988 C 235.407514 149.115817 239.766854 145.622783 242.247578 151.569196 " transform="matrix(0.097754, -0.0355797, -0.0177892, -0.048877, 0, 24)"/>
<path fill="none" stroke-width="38.0441" stroke-linecap="round" stroke-linejoin="round" stroke="rgb(0%, 0%, 0%)" stroke-opacity="1" stroke-miterlimit="10" d="M 243.856215 48.420275 C 247.693129 48.424418 252.017184 44.95707 254.497908 50.903483 " transform="matrix(0.097754, -0.0355797, -0.0177892, -0.048877, 0, 24)"/>
<path fill="none" stroke-width="38.0441" stroke-linecap="round" stroke-linejoin="round" stroke="rgb(0%, 0%, 0%)" stroke-opacity="1" stroke-miterlimit="10" d="M 67.129261 85.399289 C 70.966175 85.403432 75.29023 81.936084 77.793397 87.786239 " transform="matrix(0.097754, -0.0355797, -0.0177892, -0.048877, 0, 24)"/>
<path fill="none" stroke-width="38.0441" stroke-linecap="round" stroke-linejoin="round" stroke="rgb(0%, 0%, 0%)" stroke-opacity="1" stroke-miterlimit="10" d="M 25.392493 24.033138 C 29.229408 24.037281 33.553462 20.569933 36.034186 26.516346 " transform="matrix(0.097754, -0.0355797, -0.0177892, -0.048877, 0, 24)"/>
</svg>
