<?xml version="1.0" encoding="UTF-8"?>
<svg xmlns="http://www.w3.org/2000/svg" xmlns:xlink="http://www.w3.org/1999/xlink" width="31" height="15" viewBox="0 0 31 15">
<path fill="none" stroke-width="32.5295" stroke-linecap="round" stroke-linejoin="round" stroke="rgb(0%, 0%, 0%)" stroke-opacity="1" stroke-miterlimit="10" d="M 126.738457 284.990727 L 21.750513 36.330635 L 36.108742 47.619902 " transform="matrix(0.113137, -0.0468644, -0.0117155, -0.0282833, 0, 15)"/>
<path fill="none" stroke-width="38.0441" stroke-linecap="round" stroke-linejoin="round" stroke="rgb(0%, 0%, 0%)" stroke-opacity="1" stroke-miterlimit="10" d="M 152.736583 52.972067 C 156.525369 52.931324 160.897552 49.508861 163.365433 55.384703 " transform="matrix(0.097754, -0.0355797, -0.0177892, -0.048877, 0, 15)"/>
<path fill="none" stroke-width="38.0441" stroke-linecap="round" stroke-linejoin="round" stroke="rgb(0%, 0%, 0%)" stroke-opacity="1" stroke-miterlimit="10" d="M 169.9056 -20.664812 C 173.729672 -20.731241 178.053726 -24.198589 180.53445 -18.252175 " transform="matrix(0.097754, -0.0355797, -0.0177892, -0.048877, 0, 15)"/>
<path fill="none" stroke-width="35.1671" stroke-linecap="round" stroke-linejoin="round" stroke="rgb(0%, 0%, 0%)" stroke-opacity="1" stroke-miterlimit="10" d="M 187.375587 -423.16569 C 178.952841 -393.379044 165.964722 -399.238712 159.373008 -435.568653 C 152.244191 -474.828429 155.68653 -529.421002 165.598516 -560.086598 C 181.223321 -608.721842 202.316807 -580.790758 221.628089 -560.184259 " transform="matrix(0.080001, -0.080001, -0.019999, -0.019999, 0, 15)"/>
</svg>
