<?xml version="1.0" encoding="UTF-8"?>
<svg xmlns="http://www.w3.org/2000/svg" xmlns:xlink="http://www.w3.org/1999/xlink" width="25" height="26" viewBox="0 0 25 26">
<path fill="none" stroke-width="32.5295" stroke-linecap="round" stroke-linejoin="round" stroke="rgb(0%, 0%, 0%)" stroke-opacity="1" stroke-miterlimit="10" d="M 109.50021 244.221886 L 95.141981 232.932619 L 200.129926 481.592711 C 208.444668 502.205257 218.600637 506.922585 227.862661 494.337979 C 237.767973 480.963691 245.580808 447.715711 245.21933 406.881207 C 244.672556 340.25065 225.581877 303.932336 212.298561 344.034918 " transform="matrix(0.113137, -0.0468644, -0.0117155, -0.0282833, 0, 26)"/>
<path fill="none" stroke-width="38.0441" stroke-linecap="round" stroke-linejoin="round" stroke="rgb(0%, 0%, 0%)" stroke-opacity="1" stroke-miterlimit="10" d="M 67.129261 85.399289 C 70.966175 85.403432 75.29023 81.936084 77.793397 87.786239 " transform="matrix(0.097754, -0.0355797, -0.0177892, -0.048877, 0, 26)"/>
<path fill="none" stroke-width="38.0441" stroke-linecap="round" stroke-linejoin="round" stroke="rgb(0%, 0%, 0%)" stroke-opacity="1" stroke-miterlimit="10" d="M 25.392493 24.033138 C 29.229408 24.037281 33.553462 20.569933 36.034186 26.516346 " transform="matrix(0.097754, -0.0355797, -0.0177892, -0.048877, 0, 26)"/>
</svg>
