<?xml version="1.0" encoding="UTF-8"?>
<svg xmlns="http://www.w3.org/2000/svg" xmlns:xlink="http://www.w3.org/1999/xlink" width="25" height="17" viewBox="0 0 25 17">
<path fill="none" stroke-width="32.5295" stroke-linecap="round" stroke-linejoin="round" stroke="rgb(0%, 0%, 0%)" stroke-opacity="1" stroke-miterlimit="10" d="M 63.866941 105.623562 C 50.595833 145.844029 31.492946 109.40783 30.946173 42.777273 C 30.614164 1.893938 38.409737 -31.187327 48.302841 -44.679499 C 57.564865 -57.264105 67.750304 -52.595608 76.035577 -31.934231 C 88.558777 63.328972 106.174901 146.424373 127.633264 211.275732 C 138.491053 244.109815 150.239735 271.876822 162.670923 294.231483 " transform="matrix(0.113137, -0.0468644, -0.0117155, -0.0282833, 0, 17)"/>
<path fill="none" stroke-width="32.5295" stroke-linecap="round" stroke-linejoin="round" stroke="rgb(0%, 0%, 0%)" stroke-opacity="1" stroke-miterlimit="10" d="M 162.670923 294.231483 C 165.697015 264.771617 164.321342 225.479485 171.475084 209.206424 C 179.704922 190.321644 187.875502 223.879323 196.473241 238.222271 L 212.792303 140.745295 " transform="matrix(0.113137, -0.0468644, -0.0117155, -0.0282833, 0, 17)"/>
<path fill="none" stroke-width="38.0441" stroke-linecap="round" stroke-linejoin="round" stroke="rgb(0%, 0%, 0%)" stroke-opacity="1" stroke-miterlimit="10" d="M 175.214653 -45.948064 C 179.016281 -45.918235 183.340336 -49.385583 185.856346 -43.464856 " transform="matrix(0.097754, -0.0355797, -0.0177892, -0.048877, 0, 17)"/>
</svg>
