<?xml version="1.0" encoding="UTF-8"?>
<svg xmlns="http://www.w3.org/2000/svg" xmlns:xlink="http://www.w3.org/1999/xlink" width="42" height="18" viewBox="0 0 42 18">
<path fill="none" stroke-width="32.5295" stroke-linecap="round" stroke-linejoin="round" stroke="rgb(0%, 0%, 0%)" stroke-opacity="1" stroke-miterlimit="10" d="M 104.713822 73.298318 C 91.430507 113.4009 72.339827 77.082586 71.793054 10.452028 C 71.461045 -30.431306 79.256618 -63.512571 89.149723 -77.004744 C 98.411746 -89.589349 108.597185 -84.920852 116.882458 -64.259475 C 129.405658 31.003728 147.021782 114.099129 168.480145 178.950488 C 179.337934 211.784571 191.086616 239.551577 203.517804 261.906239 " transform="matrix(0.113137, -0.0468644, -0.0117155, -0.0282833, 0, 18)"/>
<path fill="none" stroke-width="32.5295" stroke-linecap="round" stroke-linejoin="round" stroke="rgb(0%, 0%, 0%)" stroke-opacity="1" stroke-miterlimit="10" d="M 59.624418 148.009821 C 46.341103 188.112403 27.250423 151.794089 26.70365 85.163532 C 26.342171 44.329028 34.155007 11.081048 44.060319 -2.29324 C 53.322342 -14.877846 63.478311 -10.160518 71.793054 10.452028 " transform="matrix(0.113137, -0.0468644, -0.0117155, -0.0282833, 0, 18)"/>
<path fill="none" stroke-width="38.0441" stroke-linecap="round" stroke-linejoin="round" stroke="rgb(0%, 0%, 0%)" stroke-opacity="1" stroke-miterlimit="10" d="M 233.492547 -6.772762 C 237.294176 -6.742933 241.653516 -10.235967 244.13424 -4.289554 " transform="matrix(0.097754, -0.0355797, -0.0177892, -0.048877, 0, 18)"/>
<path fill="none" stroke-width="38.0441" stroke-linecap="round" stroke-linejoin="round" stroke="rgb(0%, 0%, 0%)" stroke-opacity="1" stroke-miterlimit="10" d="M 253.936408 -62.413942 C 257.738037 -62.384113 262.097377 -65.877147 264.578101 -59.930734 " transform="matrix(0.097754, -0.0355797, -0.0177892, -0.048877, 0, 18)"/>
<path fill="none" stroke-width="38.0441" stroke-linecap="round" stroke-linejoin="round" stroke="rgb(0%, 0%, 0%)" stroke-opacity="1" stroke-miterlimit="10" d="M 274.380269 -118.055121 C 278.181898 -118.025292 282.541238 -121.518326 285.021962 -115.571913 " transform="matrix(0.097754, -0.0355797, -0.0177892, -0.048877, 0, 18)"/>
<path fill="none" stroke-width="38.0441" stroke-linecap="round" stroke-linejoin="round" stroke="rgb(0%, 0%, 0%)" stroke-opacity="1" stroke-miterlimit="10" d="M 294.82413 -173.696301 C 298.625759 -173.666472 302.985099 -177.159506 305.45298 -171.283664 " transform="matrix(0.097754, -0.0355797, -0.0177892, -0.048877, 0, 18)"/>
<path fill="none" stroke-width="32.5295" stroke-linecap="round" stroke-linejoin="round" stroke="rgb(0%, 0%, 0%)" stroke-opacity="1" stroke-miterlimit="10" d="M 310.75843 -232.891666 C 320.070239 -223.322808 327.709627 -196.895431 331.383975 -161.41212 C 335.058323 -125.928809 334.340382 -85.51553 329.447556 -52.410107 " transform="matrix(0.113137, -0.0468644, -0.0117155, -0.0282833, 0, 18)"/>
</svg>
