<?xml version="1.0" encoding="UTF-8"?>
<svg xmlns="http://www.w3.org/2000/svg" xmlns:xlink="http://www.w3.org/1999/xlink" width="28" height="20" viewBox="0 0 28 20">
<path fill="none" stroke-width="32.5295" stroke-linecap="round" stroke-linejoin="round" stroke="rgb(0%, 0%, 0%)" stroke-opacity="1" stroke-miterlimit="10" d="M 104.713822 73.298318 C 91.430507 113.4009 72.339827 77.082586 71.793054 10.452028 C 71.461045 -30.431306 79.256618 -63.512571 89.149723 -77.004744 C 98.411746 -89.589349 108.597185 -84.920852 116.882458 -64.259475 C 129.405658 31.003728 147.021782 114.099129 168.480145 178.950488 C 179.337934 211.784571 191.086616 239.551577 203.517804 261.906239 C 211.803076 282.567616 221.988516 287.236113 231.250539 274.651508 C 241.143644 261.159335 248.927009 227.960185 248.607208 187.194736 C 248.030964 120.613009 228.957548 84.12798 215.674233 124.230562 " transform="matrix(0.113137, -0.0468644, -0.0117155, -0.0282833, 0, 20)"/>
<path fill="none" stroke-width="38.0441" stroke-linecap="round" stroke-linejoin="round" stroke="rgb(0%, 0%, 0%)" stroke-opacity="1" stroke-miterlimit="10" d="M 24.853357 22.827199 C 28.654986 22.857028 32.979041 19.38968 35.49505 25.310407 " transform="matrix(0.097754, -0.0355797, -0.0177892, -0.048877, 0, 20)"/>
</svg>
