<?xml version="1.0" encoding="UTF-8"?>
<svg xmlns="http://www.w3.org/2000/svg" xmlns:xlink="http://www.w3.org/1999/xlink" width="39" height="24" viewBox="0 0 39 24">
<path fill="none" stroke-width="32.5295" stroke-linecap="round" stroke-linejoin="round" stroke="rgb(0%, 0%, 0%)" stroke-opacity="1" stroke-miterlimit="10" d="M 159.355128 88.829319 C 146.071813 128.931901 126.981133 92.613587 126.43436 25.98303 C 126.102351 -14.900305 133.897924 -47.981569 143.791029 -61.473742 C 153.053052 -74.058348 163.238491 -69.38985 171.523764 -48.728473 C 184.046964 46.534729 201.663088 129.630131 223.133658 194.599374 C 233.979241 227.315572 245.727922 255.082579 258.15911 277.43724 C 280.733695 300.386715 304.450374 297.688596 326.673729 269.566333 C 333.477518 260.91682 340.078843 249.978665 346.418762 236.849531 L 241.38914 -11.879615 L 255.789046 -0.521294 " transform="matrix(0.113137, -0.0468644, -0.0117155, -0.0282833, 0, 24)"/>
<path fill="none" stroke-width="32.5295" stroke-linecap="round" stroke-linejoin="round" stroke="rgb(0%, 0%, 0%)" stroke-opacity="1" stroke-miterlimit="10" d="M 114.265724 163.540822 C 100.982409 203.643404 81.891729 167.325091 81.344956 100.694533 C 80.983477 59.86003 88.80852 26.729934 98.701625 13.237761 C 107.963648 0.653156 118.119617 5.370484 126.43436 25.98303 " transform="matrix(0.113137, -0.0468644, -0.0117155, -0.0282833, 0, 24)"/>
<path fill="none" stroke-width="32.5295" stroke-linecap="round" stroke-linejoin="round" stroke="rgb(0%, 0%, 0%)" stroke-opacity="1" stroke-miterlimit="10" d="M 69.17632 238.252325 C 55.863535 278.403738 36.802326 242.036594 36.255552 175.406036 C 35.894073 134.571533 43.719116 101.441437 53.612221 87.949264 C 62.844774 75.41349 73.030214 80.081987 81.344956 100.694533 " transform="matrix(0.113137, -0.0468644, -0.0117155, -0.0282833, 0, 24)"/>
<path fill="none" stroke-width="32.5295" stroke-linecap="round" stroke-linejoin="round" stroke="rgb(0%, 0%, 0%)" stroke-opacity="1" stroke-miterlimit="10" d="M 267.801625 -266.954791 C 273.685689 -285.819833 275.743955 -317.957505 272.863071 -345.778307 C 269.982187 -373.599109 262.845751 -390.501494 255.350345 -387.19724 " transform="matrix(0.113137, -0.0468644, -0.0117155, -0.0282833, 0, 24)"/>
</svg>
