<?xml version="1.0" encoding="UTF-8"?>
<svg xmlns="http://www.w3.org/2000/svg" xmlns:xlink="http://www.w3.org/1999/xlink" width="51" height="21" viewBox="0 0 51 21">
<path fill="none" stroke-width="32.5295" stroke-linecap="round" stroke-linejoin="round" stroke="rgb(0%, 0%, 0%)" stroke-opacity="1" stroke-miterlimit="10" d="M 195.246272 -76.710661 C 181.975164 -36.490195 162.872277 -72.926393 162.325504 -139.556951 C 161.993495 -180.440285 169.776861 -213.639434 179.682173 -227.013723 C 188.944196 -239.598328 199.129635 -234.929831 207.414908 -214.268454 C 219.938108 -119.005251 237.554232 -35.90985 259.024802 29.059394 C 269.870385 61.775592 281.619066 89.542598 294.050254 111.89726 C 316.624839 134.846734 340.341518 132.148616 362.564873 104.026353 C 369.368662 95.376839 375.969987 84.438685 382.309906 71.309551 L 277.280284 -177.419595 L 291.68019 -166.061274 " transform="matrix(0.113137, -0.0468644, -0.0117155, -0.0282833, 0, 21)"/>
<path fill="none" stroke-width="32.5295" stroke-linecap="round" stroke-linejoin="round" stroke="rgb(0%, 0%, 0%)" stroke-opacity="1" stroke-miterlimit="10" d="M 150.156868 -1.999158 C 136.873553 38.103424 117.782873 1.78511 117.2361 -64.845447 C 116.874621 -105.679951 124.699664 -138.810047 134.592769 -152.302219 C 143.854792 -164.886825 154.010761 -160.169497 162.325504 -139.556951 " transform="matrix(0.113137, -0.0468644, -0.0117155, -0.0282833, 0, 21)"/>
<path fill="none" stroke-width="32.5295" stroke-linecap="round" stroke-linejoin="round" stroke="rgb(0%, 0%, 0%)" stroke-opacity="1" stroke-miterlimit="10" d="M 105.067464 72.712345 C 91.766886 112.981643 72.69347 76.496613 72.146696 9.866056 C 71.785217 -30.968448 79.61026 -64.098543 89.503365 -77.590716 C 98.735918 -90.126491 108.921358 -85.457994 117.2361 -64.845447 " transform="matrix(0.113137, -0.0468644, -0.0117155, -0.0282833, 0, 21)"/>
<path fill="none" stroke-width="38.0441" stroke-linecap="round" stroke-linejoin="round" stroke="rgb(0%, 0%, 0%)" stroke-opacity="1" stroke-miterlimit="10" d="M 25.2415 22.544653 C 29.043128 22.574482 33.402469 19.081448 35.87035 24.95729 " transform="matrix(0.097754, -0.0355797, -0.0177892, -0.048877, 0, 21)"/>
<path fill="none" stroke-width="32.5295" stroke-linecap="round" stroke-linejoin="round" stroke="rgb(0%, 0%, 0%)" stroke-opacity="1" stroke-miterlimit="10" d="M 388.084637 -255.363056 C 397.396447 -245.794198 405.048042 -219.248937 408.710183 -183.883511 C 412.396738 -148.282315 411.66659 -107.986921 406.773764 -74.881498 " transform="matrix(0.113137, -0.0468644, -0.0117155, -0.0282833, 0, 21)"/>
</svg>
