<?xml version="1.0" encoding="UTF-8"?>
<svg xmlns="http://www.w3.org/2000/svg" xmlns:xlink="http://www.w3.org/1999/xlink" width="33" height="18" viewBox="0 0 33 18">
<path fill="none" stroke-width="32.5295" stroke-linecap="round" stroke-linejoin="round" stroke="rgb(0%, 0%, 0%)" stroke-opacity="1" stroke-miterlimit="10" d="M 136.113539 375.526218 L 31.113387 126.748241 L 45.483823 138.155393 " transform="matrix(0.113137, -0.0468644, -0.0117155, -0.0282833, 0, 18)"/>
<path fill="none" stroke-width="38.0441" stroke-linecap="round" stroke-linejoin="round" stroke="rgb(0%, 0%, 0%)" stroke-opacity="1" stroke-miterlimit="10" d="M 162.599642 107.170878 C 166.388428 107.130136 170.760611 103.707673 173.228493 109.583515 " transform="matrix(0.097754, -0.0355797, -0.0177892, -0.048877, 0, 18)"/>
<path fill="none" stroke-width="38.0441" stroke-linecap="round" stroke-linejoin="round" stroke="rgb(0%, 0%, 0%)" stroke-opacity="1" stroke-miterlimit="10" d="M 193.283076 23.696266 C 197.071862 23.655523 201.431203 20.162489 203.911927 26.108902 " transform="matrix(0.097754, -0.0355797, -0.0177892, -0.048877, 0, 18)"/>
<path fill="none" stroke-width="32.5295" stroke-linecap="round" stroke-linejoin="round" stroke="rgb(0%, 0%, 0%)" stroke-opacity="1" stroke-miterlimit="10" d="M 188.926301 -134.74202 C 194.810365 -153.607061 196.880838 -185.626849 193.987747 -213.565536 C 191.106863 -241.386338 183.970427 -258.288723 176.504491 -255.0333 " transform="matrix(0.113137, -0.0468644, -0.0117155, -0.0282833, 0, 18)"/>
<path fill="none" stroke-width="32.5295" stroke-linecap="round" stroke-linejoin="round" stroke="rgb(0%, 0%, 0%)" stroke-opacity="1" stroke-miterlimit="10" d="M 252.734301 -29.020796 C 262.033904 -19.569823 269.656028 7.02427 273.330377 42.507581 C 277.004725 77.990891 276.304046 118.237455 271.41122 151.342878 " transform="matrix(0.113137, -0.0468644, -0.0117155, -0.0282833, 0, 18)"/>
</svg>
