<?xml version="1.0" encoding="UTF-8"?>
<svg xmlns="http://www.w3.org/2000/svg" xmlns:xlink="http://www.w3.org/1999/xlink" width="33" height="20" viewBox="0 0 33 20">
<path fill="none" stroke-width="32.5295" stroke-linecap="round" stroke-linejoin="round" stroke="rgb(0%, 0%, 0%)" stroke-opacity="1" stroke-miterlimit="10" d="M 101.588795 43.119821 C 88.30548 83.222403 69.2148 46.904089 68.668027 -19.726469 C 68.336018 -60.609803 76.131591 -93.691068 86.024696 -107.183241 C 95.286719 -119.767846 105.472158 -115.099349 113.757431 -94.437972 C 126.280631 0.825231 143.896755 83.920632 165.355118 148.771991 C 176.212907 181.606074 187.961589 209.37308 200.392777 231.727742 C 222.967362 254.677216 246.684041 251.979098 268.907395 223.856835 C 275.711185 215.207321 282.31251 204.269166 288.652428 191.140032 L 183.622807 -57.589113 L 198.022713 -46.230792 C 206.307985 -25.569415 216.493424 -20.900918 225.755448 -33.485524 C 235.66076 -46.859812 243.444125 -80.058961 243.112117 -120.942296 C 242.57755 -187.454968 223.474664 -223.891167 210.191348 -183.788585 " transform="matrix(0.113137, -0.0468644, -0.0117155, -0.0282833, 0, 20)"/>
<path fill="none" stroke-width="32.5295" stroke-linecap="round" stroke-linejoin="round" stroke="rgb(0%, 0%, 0%)" stroke-opacity="1" stroke-miterlimit="10" d="M 56.499391 117.831324 C 43.216076 157.933906 24.125396 121.615592 23.578623 54.985035 C 23.217144 14.150531 31.02998 -19.097449 40.935292 -32.471737 C 50.197315 -45.056343 60.353284 -40.339015 68.668027 -19.726469 " transform="matrix(0.113137, -0.0468644, -0.0117155, -0.0282833, 0, 20)"/>
</svg>
