<?xml version="1.0" encoding="UTF-8"?>
<svg xmlns="http://www.w3.org/2000/svg" xmlns:xlink="http://www.w3.org/1999/xlink" width="38" height="18" viewBox="0 0 38 18">
<path fill="none" stroke-width="32.5295" stroke-linecap="round" stroke-linejoin="round" stroke="rgb(0%, 0%, 0%)" stroke-opacity="1" stroke-miterlimit="10" d="M 149.980047 -1.706172 C 136.696732 38.39641 117.606052 2.078096 117.059279 -64.552461 C 116.72727 -105.435796 124.522843 -138.51706 134.415948 -152.009233 C 143.677971 -164.593839 153.86341 -159.925341 162.148683 -139.263964 C 174.671883 -44.000762 192.288007 39.09464 213.758577 104.063883 C 224.60416 136.780081 236.352841 164.547088 248.784029 186.901749 " transform="matrix(0.113137, -0.0468644, -0.0117155, -0.0282833, 0, 18)"/>
<path fill="none" stroke-width="32.5295" stroke-linecap="round" stroke-linejoin="round" stroke="rgb(0%, 0%, 0%)" stroke-opacity="1" stroke-miterlimit="10" d="M 104.890643 73.005331 C 91.607328 113.107913 72.516648 76.7896 71.969875 10.159042 C 71.608396 -30.675461 79.433439 -63.805557 89.326544 -77.29773 C 98.588567 -89.882335 108.744536 -85.165007 117.059279 -64.552461 " transform="matrix(0.113137, -0.0468644, -0.0117155, -0.0282833, 0, 18)"/>
<path fill="none" stroke-width="38.0441" stroke-linecap="round" stroke-linejoin="round" stroke="rgb(0%, 0%, 0%)" stroke-opacity="1" stroke-miterlimit="10" d="M 25.029786 22.698769 C 28.8667 22.702912 33.190755 19.235564 35.671479 25.181977 " transform="matrix(0.097754, -0.0355797, -0.0177892, -0.048877, 0, 18)"/>
<path fill="none" stroke-width="32.5295" stroke-linecap="round" stroke-linejoin="round" stroke="rgb(0%, 0%, 0%)" stroke-opacity="1" stroke-miterlimit="10" d="M 248.784029 186.901749 L 257.588191 101.876691 C 268.110466 133.471258 282.310502 137.564621 293.873433 112.190246 C 302.95285 92.173967 309.216473 55.968514 310.192495 14.71327 C 312.365269 -77.002097 291.338118 -150.025981 268.958667 -128.412536 " transform="matrix(0.113137, -0.0468644, -0.0117155, -0.0282833, 0, 18)"/>
<path fill="none" stroke-width="32.5295" stroke-linecap="round" stroke-linejoin="round" stroke="rgb(0%, 0%, 0%)" stroke-opacity="1" stroke-miterlimit="10" d="M 256.507387 -248.654985 C 262.391451 -267.520027 264.420248 -299.608868 261.539363 -327.42967 C 258.658479 -355.250472 251.551514 -372.201688 244.056108 -368.897434 " transform="matrix(0.113137, -0.0468644, -0.0117155, -0.0282833, 0, 18)"/>
</svg>
