<?xml version="1.0" encoding="UTF-8"?>
<svg xmlns="http://www.w3.org/2000/svg" xmlns:xlink="http://www.w3.org/1999/xlink" width="30" height="17" viewBox="0 0 30 17">
<path fill="none" stroke-width="32.5295" stroke-linecap="round" stroke-linejoin="round" stroke="rgb(0%, 0%, 0%)" stroke-opacity="1" stroke-miterlimit="10" d="M 123.61343 254.81223 L 18.613279 6.034253 L 32.995922 17.55929 " transform="matrix(0.113137, -0.0468644, -0.0117155, -0.0282833, 0, 17)"/>
<path fill="none" stroke-width="32.5295" stroke-linecap="round" stroke-linejoin="round" stroke="rgb(0%, 0%, 0%)" stroke-opacity="1" stroke-miterlimit="10" d="M 123.61343 254.81223 C 146.188015 277.761705 169.934165 275.014755 192.157519 246.892492 C 198.931839 238.291809 205.533163 227.353655 211.873082 214.224521 L 106.885138 -34.435571 L 121.255573 -23.028419 C 129.570316 -2.415873 139.726285 2.301455 148.988308 -10.283151 C 158.881413 -23.775323 166.694249 -57.023304 166.344977 -97.739923 C 165.798204 -164.37048 146.724787 -200.855509 133.412002 -160.704096 " transform="matrix(0.113137, -0.0468644, -0.0117155, -0.0282833, 0, 17)"/>
<path fill="none" stroke-width="32.5295" stroke-linecap="round" stroke-linejoin="round" stroke="rgb(0%, 0%, 0%)" stroke-opacity="1" stroke-miterlimit="10" d="M 227.027951 -22.197196 C 236.327553 -12.746222 243.949678 13.84787 247.624026 49.331181 C 251.298374 84.814492 250.609903 125.17894 245.70487 158.166478 " transform="matrix(0.113137, -0.0468644, -0.0117155, -0.0282833, 0, 17)"/>
</svg>
