<?xml version="1.0" encoding="UTF-8"?>
<svg xmlns="http://www.w3.org/2000/svg" xmlns:xlink="http://www.w3.org/1999/xlink" width="31" height="18" viewBox="0 0 31 18">
<path fill="none" stroke-width="32.5295" stroke-linecap="round" stroke-linejoin="round" stroke="rgb(0%, 0%, 0%)" stroke-opacity="1" stroke-miterlimit="10" d="M 66.991968 135.802059 C 53.708653 175.904641 34.617973 139.586327 34.0712 72.95577 C 33.739191 32.072435 41.522557 -1.126714 51.427868 -14.501002 C 60.689892 -27.085608 70.875331 -22.417111 79.160604 -1.755734 C 91.683804 93.507469 109.299928 176.60287 130.758291 241.454229 C 141.61608 274.288312 153.364762 302.055319 165.79595 324.40998 " transform="matrix(0.113137, -0.0468644, -0.0117155, -0.0282833, 0, 18)"/>
<path fill="none" stroke-width="38.0441" stroke-linecap="round" stroke-linejoin="round" stroke="rgb(0%, 0%, 0%)" stroke-opacity="1" stroke-miterlimit="10" d="M 183.421027 -0.852959 C 187.209812 -0.893702 191.569153 -4.386736 194.049877 1.559677 " transform="matrix(0.097754, -0.0355797, -0.0177892, -0.048877, 0, 18)"/>
<path fill="none" stroke-width="38.0441" stroke-linecap="round" stroke-linejoin="round" stroke="rgb(0%, 0%, 0%)" stroke-opacity="1" stroke-miterlimit="10" d="M 195.671356 -101.518673 C 199.472985 -101.488844 203.832325 -104.981878 206.300207 -99.106036 " transform="matrix(0.097754, -0.0355797, -0.0177892, -0.048877, 0, 18)"/>
<path fill="none" stroke-width="32.5295" stroke-linecap="round" stroke-linejoin="round" stroke="rgb(0%, 0%, 0%)" stroke-opacity="1" stroke-miterlimit="10" d="M 227.947171 -95.676421 C 237.258981 -86.107563 244.898369 -59.680187 248.572717 -24.196876 C 252.247065 11.286435 251.529124 51.699714 246.636298 84.805137 " transform="matrix(0.113137, -0.0468644, -0.0117155, -0.0282833, 0, 18)"/>
</svg>
