<?xml version="1.0" encoding="UTF-8"?>
<svg xmlns="http://www.w3.org/2000/svg" xmlns:xlink="http://www.w3.org/1999/xlink" width="34" height="17" viewBox="0 0 34 17">
<path fill="none" stroke-width="32.5295" stroke-linecap="round" stroke-linejoin="round" stroke="rgb(0%, 0%, 0%)" stroke-opacity="1" stroke-miterlimit="10" d="M 123.61343 254.81223 L 18.613279 6.034253 L 32.995922 17.55929 " transform="matrix(0.113137, -0.0468644, -0.0117155, -0.0282833, 0, 17)"/>
<path fill="none" stroke-width="32.5295" stroke-linecap="round" stroke-linejoin="round" stroke="rgb(0%, 0%, 0%)" stroke-opacity="1" stroke-miterlimit="10" d="M 123.61343 254.81223 C 146.188015 277.761705 169.934165 275.014755 192.157519 246.892492 C 198.931839 238.291809 205.533163 227.353655 211.873082 214.224521 L 141.881119 48.451126 C 120.417928 -2.442968 148.841313 -184.750678 195.144789 -75.023281 L 230.140771 7.863417 " transform="matrix(0.113137, -0.0468644, -0.0117155, -0.0282833, 0, 17)"/>
<path fill="none" stroke-width="32.5295" stroke-linecap="round" stroke-linejoin="round" stroke="rgb(0%, 0%, 0%)" stroke-opacity="1" stroke-miterlimit="10" d="M 224.293372 -5.926617 C 232.608114 14.685929 242.793554 19.354426 252.026107 6.818651 C 261.931419 -6.555637 269.744255 -39.803617 269.382776 -80.638121 C 268.836002 -147.268678 249.762586 -183.753707 236.462008 -143.48441 " transform="matrix(0.113137, -0.0468644, -0.0117155, -0.0282833, 0, 17)"/>
</svg>
