<?xml version="1.0" encoding="UTF-8"?>
<svg xmlns="http://www.w3.org/2000/svg" xmlns:xlink="http://www.w3.org/1999/xlink" width="39" height="24" viewBox="0 0 39 24">
<path fill="none" stroke-width="32.5295" stroke-linecap="round" stroke-linejoin="round" stroke="rgb(0%, 0%, 0%)" stroke-opacity="1" stroke-miterlimit="10" d="M 200.129926 481.592711 L 95.141981 232.932619 L 109.50021 244.221886 " transform="matrix(0.113137, -0.0468644, -0.0117155, -0.0282833, 0, 24)"/>
<path fill="none" stroke-width="38.0441" stroke-linecap="round" stroke-linejoin="round" stroke="rgb(0%, 0%, 0%)" stroke-opacity="1" stroke-miterlimit="10" d="M 236.524572 176.114822 C 240.313358 176.07408 244.685541 172.651617 247.153423 178.527459 " transform="matrix(0.097754, -0.0355797, -0.0177892, -0.048877, 0, 24)"/>
<path fill="none" stroke-width="38.0441" stroke-linecap="round" stroke-linejoin="round" stroke="rgb(0%, 0%, 0%)" stroke-opacity="1" stroke-miterlimit="10" d="M 267.208007 92.64021 C 270.996792 92.599468 275.356133 89.106433 277.836857 95.052847 " transform="matrix(0.097754, -0.0355797, -0.0177892, -0.048877, 0, 24)"/>
<path fill="none" stroke-width="38.0441" stroke-linecap="round" stroke-linejoin="round" stroke="rgb(0%, 0%, 0%)" stroke-opacity="1" stroke-miterlimit="10" d="M 297.843313 9.120712 C 301.680227 9.124855 306.004281 5.657507 308.520291 11.578234 " transform="matrix(0.097754, -0.0355797, -0.0177892, -0.048877, 0, 24)"/>
<path fill="none" stroke-width="32.5295" stroke-linecap="round" stroke-linejoin="round" stroke="rgb(0%, 0%, 0%)" stroke-opacity="1" stroke-miterlimit="10" d="M 316.750688 77.045697 C 326.050291 86.49667 333.672416 113.090762 337.346764 148.574073 C 341.021112 184.057384 340.320434 224.303947 335.427607 257.40937 " transform="matrix(0.113137, -0.0468644, -0.0117155, -0.0282833, 0, 24)"/>
<path fill="none" stroke-width="38.0441" stroke-linecap="round" stroke-linejoin="round" stroke="rgb(0%, 0%, 0%)" stroke-opacity="1" stroke-miterlimit="10" d="M 67.129261 85.399289 C 70.966175 85.403432 75.29023 81.936084 77.793397 87.786239 " transform="matrix(0.097754, -0.0355797, -0.0177892, -0.048877, 0, 24)"/>
<path fill="none" stroke-width="38.0441" stroke-linecap="round" stroke-linejoin="round" stroke="rgb(0%, 0%, 0%)" stroke-opacity="1" stroke-miterlimit="10" d="M 25.392493 24.033138 C 29.229408 24.037281 33.553462 20.569933 36.034186 26.516346 " transform="matrix(0.097754, -0.0355797, -0.0177892, -0.048877, 0, 24)"/>
</svg>
