<?xml version="1.0" encoding="UTF-8"?>
<svg xmlns="http://www.w3.org/2000/svg" xmlns:xlink="http://www.w3.org/1999/xlink" width="39" height="21" viewBox="0 0 39 21">
<path fill="none" stroke-width="32.5295" stroke-linecap="round" stroke-linejoin="round" stroke="rgb(0%, 0%, 0%)" stroke-opacity="1" stroke-miterlimit="10" d="M 149.980047 -1.706172 C 136.696732 38.39641 117.606052 2.078096 117.059279 -64.552461 C 116.72727 -105.435796 124.522843 -138.51706 134.415948 -152.009233 C 143.677971 -164.593839 153.86341 -159.925341 162.148683 -139.263964 C 174.671883 -44.000762 192.288007 39.09464 213.758577 104.063883 C 224.60416 136.780081 236.352841 164.547088 248.784029 186.901749 C 271.358614 209.851224 295.075293 207.153105 317.298647 179.030842 C 324.102437 170.381329 330.703762 159.443174 337.043681 146.31404 L 232.014059 -102.415106 L 246.413965 -91.056785 " transform="matrix(0.113137, -0.0468644, -0.0117155, -0.0282833, 0, 21)"/>
<path fill="none" stroke-width="32.5295" stroke-linecap="round" stroke-linejoin="round" stroke="rgb(0%, 0%, 0%)" stroke-opacity="1" stroke-miterlimit="10" d="M 104.890643 73.005331 C 91.607328 113.107913 72.516648 76.7896 71.969875 10.159042 C 71.608396 -30.675461 79.433439 -63.805557 89.326544 -77.29773 C 98.588567 -89.882335 108.744536 -85.165007 117.059279 -64.552461 " transform="matrix(0.113137, -0.0468644, -0.0117155, -0.0282833, 0, 21)"/>
<path fill="none" stroke-width="38.0441" stroke-linecap="round" stroke-linejoin="round" stroke="rgb(0%, 0%, 0%)" stroke-opacity="1" stroke-miterlimit="10" d="M 25.029786 22.698769 C 28.8667 22.702912 33.190755 19.235564 35.671479 25.181977 " transform="matrix(0.097754, -0.0355797, -0.0177892, -0.048877, 0, 21)"/>
</svg>
