<?xml version="1.0" encoding="UTF-8"?>
<svg xmlns="http://www.w3.org/2000/svg" xmlns:xlink="http://www.w3.org/1999/xlink" width="32" height="20" viewBox="0 0 32 20">
<path fill="none" stroke-width="32.5295" stroke-linecap="round" stroke-linejoin="round" stroke="rgb(0%, 0%, 0%)" stroke-opacity="1" stroke-miterlimit="10" d="M 63.866941 105.623562 C 50.595833 145.844029 31.492946 109.40783 30.946173 42.777273 C 30.614164 1.893938 38.409737 -31.187327 48.302841 -44.679499 C 57.564865 -57.264105 67.750304 -52.595608 76.035577 -31.934231 C 88.558777 63.328972 106.174901 146.424373 127.633264 211.275732 C 138.491053 244.109815 150.239735 271.876822 162.670923 294.231483 " transform="matrix(0.113137, -0.0468644, -0.0117155, -0.0282833, 0, 20)"/>
<path fill="none" stroke-width="32.5295" stroke-linecap="round" stroke-linejoin="round" stroke="rgb(0%, 0%, 0%)" stroke-opacity="1" stroke-miterlimit="10" d="M 162.670923 294.231483 C 185.245508 317.180958 208.962187 314.482839 231.185541 286.360576 C 237.989331 277.711062 244.590656 266.772908 250.930574 253.643774 L 180.896934 87.801325 C 159.44595 37.025116 187.869336 -145.282594 234.160604 -35.673081 L 269.168793 47.331501 " transform="matrix(0.113137, -0.0468644, -0.0117155, -0.0282833, 0, 20)"/>
</svg>
