<?xml version="1.0" encoding="UTF-8"?>
<svg xmlns="http://www.w3.org/2000/svg" xmlns:xlink="http://www.w3.org/1999/xlink" width="22" height="18" viewBox="0 0 22 18">
<path fill="none" stroke-width="32.5295" stroke-linecap="round" stroke-linejoin="round" stroke="rgb(0%, 0%, 0%)" stroke-opacity="1" stroke-miterlimit="10" d="M 136.113539 375.526218 L 31.113387 126.748241 L 45.483823 138.155393 " transform="matrix(0.113137, -0.0468644, -0.0117155, -0.0282833, 0, 18)"/>
<path fill="none" stroke-width="32.5295" stroke-linecap="round" stroke-linejoin="round" stroke="rgb(0%, 0%, 0%)" stroke-opacity="1" stroke-miterlimit="10" d="M 149.319781 247.98863 C 148.788768 198.181565 140.03015 158.278332 135.305988 112.656932 C 143.62073 133.269479 153.80617 137.937976 163.038723 125.402201 C 172.944035 112.027913 180.75687 78.779933 180.395392 37.945429 C 179.848618 -28.685128 160.787409 -65.052273 147.474623 -24.90086 " transform="matrix(0.113137, -0.0468644, -0.0117155, -0.0282833, 0, 18)"/>
<path fill="none" stroke-width="38.0441" stroke-linecap="round" stroke-linejoin="round" stroke="rgb(0%, 0%, 0%)" stroke-opacity="1" stroke-miterlimit="10" d="M 133.113205 -54.860985 C 136.914833 -54.831156 141.274174 -58.324191 143.754897 -52.377777 " transform="matrix(0.097754, -0.0355797, -0.0177892, -0.048877, 0, 18)"/>
</svg>
