<?xml version="1.0" encoding="UTF-8"?>
<svg xmlns="http://www.w3.org/2000/svg" xmlns:xlink="http://www.w3.org/1999/xlink" width="36" height="18" viewBox="0 0 36 18">
<path fill="none" stroke-width="32.5295" stroke-linecap="round" stroke-linejoin="round" stroke="rgb(0%, 0%, 0%)" stroke-opacity="1" stroke-miterlimit="10" d="M 126.738457 284.990727 L 21.750513 36.330635 L 36.108742 47.619902 " transform="matrix(0.113137, -0.0468644, -0.0117155, -0.0282833, 0, 18)"/>
<path fill="none" stroke-width="32.5295" stroke-linecap="round" stroke-linejoin="round" stroke="rgb(0%, 0%, 0%)" stroke-opacity="1" stroke-miterlimit="10" d="M 126.738457 284.990727 C 149.313042 307.940202 173.059192 305.193252 195.282546 277.070989 C 202.056866 268.470306 208.65819 257.532152 214.998109 244.403018 L 145.006146 78.629623 C 123.542955 27.735529 151.96634 -154.572181 198.269816 -44.844784 L 233.265798 38.041914 " transform="matrix(0.113137, -0.0468644, -0.0117155, -0.0282833, 0, 18)"/>
<path fill="none" stroke-width="32.5295" stroke-linecap="round" stroke-linejoin="round" stroke="rgb(0%, 0%, 0%)" stroke-opacity="1" stroke-miterlimit="10" d="M 233.265798 38.041914 C 236.291889 8.582048 234.916217 -30.710085 242.069959 -46.983145 C 250.299796 -65.867925 258.470377 -32.310246 267.068115 -17.967298 L 283.416648 -115.493105 " transform="matrix(0.113137, -0.0468644, -0.0117155, -0.0282833, 0, 18)"/>
<path fill="none" stroke-width="38.0441" stroke-linecap="round" stroke-linejoin="round" stroke="rgb(0%, 0%, 0%)" stroke-opacity="1" stroke-miterlimit="10" d="M 268.077706 -153.347292 C 271.879335 -153.317463 276.238675 -156.810498 278.719399 -150.864084 " transform="matrix(0.097754, -0.0355797, -0.0177892, -0.048877, 0, 18)"/>
</svg>
