<?xml version="1.0" encoding="UTF-8"?>
<svg xmlns="http://www.w3.org/2000/svg" xmlns:xlink="http://www.w3.org/1999/xlink" width="38" height="17" viewBox="0 0 38 17">
<path fill="none" stroke-width="32.5295" stroke-linecap="round" stroke-linejoin="round" stroke="rgb(0%, 0%, 0%)" stroke-opacity="1" stroke-miterlimit="10" d="M 146.85502 -31.884669 C 133.571705 8.217913 114.481025 -28.100401 113.934252 -94.730958 C 113.602243 -135.614293 121.385609 -168.813442 131.290921 -182.18773 C 140.552944 -194.772336 150.738383 -190.103838 159.023656 -169.442461 C 171.546856 -74.179259 189.16298 8.916143 210.63355 73.885386 C 221.479132 106.601584 233.227814 134.368591 245.659002 156.723252 " transform="matrix(0.113137, -0.0468644, -0.0117155, -0.0282833, 0, 17)"/>
<path fill="none" stroke-width="32.5295" stroke-linecap="round" stroke-linejoin="round" stroke="rgb(0%, 0%, 0%)" stroke-opacity="1" stroke-miterlimit="10" d="M 101.765616 42.826834 C 88.482301 82.929416 69.391621 46.611103 68.844848 -20.019455 C 68.483369 -60.853958 76.308412 -93.984054 86.201517 -107.476227 C 95.46354 -120.060832 105.619509 -115.343504 113.934252 -94.730958 " transform="matrix(0.113137, -0.0468644, -0.0117155, -0.0282833, 0, 17)"/>
<path fill="none" stroke-width="32.5295" stroke-linecap="round" stroke-linejoin="round" stroke="rgb(0%, 0%, 0%)" stroke-opacity="1" stroke-miterlimit="10" d="M 56.676212 117.538338 C 43.375634 157.807635 24.302218 121.322606 23.755444 54.692048 C 23.393965 13.857545 31.219008 -19.272551 41.112113 -32.764724 C 50.344666 -45.300498 60.530105 -40.632001 68.844848 -20.019455 " transform="matrix(0.113137, -0.0468644, -0.0117155, -0.0282833, 0, 17)"/>
<path fill="none" stroke-width="32.5295" stroke-linecap="round" stroke-linejoin="round" stroke="rgb(0%, 0%, 0%)" stroke-opacity="1" stroke-miterlimit="10" d="M 245.659002 156.723252 L 254.463164 71.698194 C 264.985439 103.292761 279.185475 107.386124 290.748406 82.011749 C 299.827823 61.99547 306.091446 25.790017 307.067468 -15.465227 C 309.240242 -107.180594 288.213091 -180.204478 265.83364 -158.591033 " transform="matrix(0.113137, -0.0468644, -0.0117155, -0.0282833, 0, 17)"/>
<path fill="none" stroke-width="38.0441" stroke-linecap="round" stroke-linejoin="round" stroke="rgb(0%, 0%, 0%)" stroke-opacity="1" stroke-miterlimit="10" d="M 313.018701 -187.020843 C 316.820329 -186.991014 321.17967 -190.484048 323.660394 -184.537634 " transform="matrix(0.097754, -0.0355797, -0.0177892, -0.048877, 0, 17)"/>
</svg>
