<?xml version="1.0" encoding="UTF-8"?>
<svg xmlns="http://www.w3.org/2000/svg" xmlns:xlink="http://www.w3.org/1999/xlink" width="36" height="21" viewBox="0 0 36 21">
<path fill="none" stroke-width="32.5295" stroke-linecap="round" stroke-linejoin="round" stroke="rgb(0%, 0%, 0%)" stroke-opacity="1" stroke-miterlimit="10" d="M 159.355128 88.829319 C 146.071813 128.931901 126.981133 92.613587 126.43436 25.98303 C 126.102351 -14.900305 133.897924 -47.981569 143.791029 -61.473742 C 153.053052 -74.058348 163.238491 -69.38985 171.523764 -48.728473 C 184.046964 46.534729 201.663088 129.630131 223.133658 194.599374 C 233.979241 227.315572 245.727922 255.082579 258.15911 277.43724 " transform="matrix(0.113137, -0.0468644, -0.0117155, -0.0282833, 0, 21)"/>
<path fill="none" stroke-width="32.5295" stroke-linecap="round" stroke-linejoin="round" stroke="rgb(0%, 0%, 0%)" stroke-opacity="1" stroke-miterlimit="10" d="M 114.265724 163.540822 C 100.982409 203.643404 81.891729 167.325091 81.344956 100.694533 C 80.983477 59.86003 88.80852 26.729934 98.701625 13.237761 C 107.963648 0.653156 118.119617 5.370484 126.43436 25.98303 " transform="matrix(0.113137, -0.0468644, -0.0117155, -0.0282833, 0, 21)"/>
<path fill="none" stroke-width="32.5295" stroke-linecap="round" stroke-linejoin="round" stroke="rgb(0%, 0%, 0%)" stroke-opacity="1" stroke-miterlimit="10" d="M 69.17632 238.252325 C 55.863535 278.403738 36.802326 242.036594 36.255552 175.406036 C 35.894073 134.571533 43.719116 101.441437 53.612221 87.949264 C 62.844774 75.41349 73.030214 80.081987 81.344956 100.694533 " transform="matrix(0.113137, -0.0468644, -0.0117155, -0.0282833, 0, 21)"/>
<path fill="none" stroke-width="38.0441" stroke-linecap="round" stroke-linejoin="round" stroke="rgb(0%, 0%, 0%)" stroke-opacity="1" stroke-miterlimit="10" d="M 292.648574 -18.985892 C 296.43736 -19.026635 300.761414 -22.493983 303.277424 -16.573255 " transform="matrix(0.097754, -0.0355797, -0.0177892, -0.048877, 0, 21)"/>
<path fill="none" stroke-width="32.5295" stroke-linecap="round" stroke-linejoin="round" stroke="rgb(0%, 0%, 0%)" stroke-opacity="1" stroke-miterlimit="10" d="M 256.544009 -248.301331 C 262.428073 -267.166373 264.456869 -299.255214 261.575985 -327.076016 C 258.6951 -354.896818 251.588135 -371.848034 244.092729 -368.54378 " transform="matrix(0.113137, -0.0468644, -0.0117155, -0.0282833, 0, 21)"/>
</svg>
