<?xml version="1.0" encoding="UTF-8"?>
<svg xmlns="http://www.w3.org/2000/svg" xmlns:xlink="http://www.w3.org/1999/xlink" width="30" height="17" viewBox="0 0 30 17">
<path fill="none" stroke-width="32.5295" stroke-linecap="round" stroke-linejoin="round" stroke="rgb(0%, 0%, 0%)" stroke-opacity="1" stroke-miterlimit="10" d="M 101.588795 43.119821 C 88.30548 83.222403 69.2148 46.904089 68.668027 -19.726469 C 68.336018 -60.609803 76.131591 -93.691068 86.024696 -107.183241 C 95.286719 -119.767846 105.472158 -115.099349 113.757431 -94.437972 C 126.280631 0.825231 143.896755 83.920632 165.355118 148.771991 C 176.212907 181.606074 187.961589 209.37308 200.392777 231.727742 " transform="matrix(0.113137, -0.0468644, -0.0117155, -0.0282833, 0, 17)"/>
<path fill="none" stroke-width="32.5295" stroke-linecap="round" stroke-linejoin="round" stroke="rgb(0%, 0%, 0%)" stroke-opacity="1" stroke-miterlimit="10" d="M 56.499391 117.831324 C 43.216076 157.933906 24.125396 121.615592 23.578623 54.985035 C 23.217144 14.150531 31.02998 -19.097449 40.935292 -32.471737 C 50.197315 -45.056343 60.353284 -40.339015 68.668027 -19.726469 " transform="matrix(0.113137, -0.0468644, -0.0117155, -0.0282833, 0, 17)"/>
<path fill="none" stroke-width="32.5295" stroke-linecap="round" stroke-linejoin="round" stroke="rgb(0%, 0%, 0%)" stroke-opacity="1" stroke-miterlimit="10" d="M 200.392777 231.727742 C 203.418869 202.267876 202.043196 162.975743 209.196939 146.702683 C 217.426776 127.817903 225.597357 161.375582 234.195095 175.71853 L 250.514157 78.241554 " transform="matrix(0.113137, -0.0468644, -0.0117155, -0.0282833, 0, 17)"/>
<path fill="none" stroke-width="38.0441" stroke-linecap="round" stroke-linejoin="round" stroke="rgb(0%, 0%, 0%)" stroke-opacity="1" stroke-miterlimit="10" d="M 193.351495 -59.150663 C 197.188409 -59.14652 201.512464 -62.613868 204.028473 -56.69314 " transform="matrix(0.097754, -0.0355797, -0.0177892, -0.048877, 0, 17)"/>
</svg>
