<?xml version="1.0" encoding="UTF-8"?>
<svg xmlns="http://www.w3.org/2000/svg" xmlns:xlink="http://www.w3.org/1999/xlink" width="23" height="15" viewBox="0 0 23 15">
<path fill="none" stroke-width="32.5295" stroke-linecap="round" stroke-linejoin="round" stroke="rgb(0%, 0%, 0%)" stroke-opacity="1" stroke-miterlimit="10" d="M 126.738457 284.990727 L 21.750513 36.330635 L 36.108742 47.619902 " transform="matrix(0.113137, -0.0468644, -0.0117155, -0.0282833, 0, 15)"/>
<path fill="none" stroke-width="32.5295" stroke-linecap="round" stroke-linejoin="round" stroke="rgb(0%, 0%, 0%)" stroke-opacity="1" stroke-miterlimit="10" d="M 126.738457 284.990727 C 129.806227 255.599915 128.388877 216.238729 135.542619 199.965668 C 143.801927 181.032057 151.943037 214.638567 160.570245 228.932684 L 176.889308 131.455708 " transform="matrix(0.113137, -0.0468644, -0.0117155, -0.0282833, 0, 15)"/>
<path fill="none" stroke-width="38.0441" stroke-linecap="round" stroke-linejoin="round" stroke="rgb(0%, 0%, 0%)" stroke-opacity="1" stroke-miterlimit="10" d="M 174.811445 6.293451 C 178.648359 6.297594 182.972413 2.830246 185.453137 8.776659 " transform="matrix(0.097754, -0.0355797, -0.0177892, -0.048877, 0, 15)"/>
<path fill="none" stroke-width="38.0441" stroke-linecap="round" stroke-linejoin="round" stroke="rgb(0%, 0%, 0%)" stroke-opacity="1" stroke-miterlimit="10" d="M 187.061774 -94.372262 C 190.898689 -94.368119 195.222743 -97.835467 197.703467 -91.889054 " transform="matrix(0.097754, -0.0355797, -0.0177892, -0.048877, 0, 15)"/>
</svg>
