<?xml version="1.0" encoding="UTF-8"?>
<svg xmlns="http://www.w3.org/2000/svg" xmlns:xlink="http://www.w3.org/1999/xlink" width="32" height="15" viewBox="0 0 32 15">
<path fill="none" stroke-width="32.5295" stroke-linecap="round" stroke-linejoin="round" stroke="rgb(0%, 0%, 0%)" stroke-opacity="1" stroke-miterlimit="10" d="M 126.738457 284.990727 L 21.750513 36.330635 L 36.108742 47.619902 " transform="matrix(0.113137, -0.0468644, -0.0117155, -0.0282833, 0, 15)"/>
<path fill="none" stroke-width="38.0441" stroke-linecap="round" stroke-linejoin="round" stroke="rgb(0%, 0%, 0%)" stroke-opacity="1" stroke-miterlimit="10" d="M 143.738733 59.521994 C 147.527519 59.481251 151.899702 56.058789 154.367584 61.93463 " transform="matrix(0.097754, -0.0355797, -0.0177892, -0.048877, 0, 15)"/>
<path fill="none" stroke-width="38.0441" stroke-linecap="round" stroke-linejoin="round" stroke="rgb(0%, 0%, 0%)" stroke-opacity="1" stroke-miterlimit="10" d="M 174.811445 6.293451 C 178.648359 6.297594 182.972413 2.830246 185.453137 8.776659 " transform="matrix(0.097754, -0.0355797, -0.0177892, -0.048877, 0, 15)"/>
<path fill="none" stroke-width="38.0441" stroke-linecap="round" stroke-linejoin="round" stroke="rgb(0%, 0%, 0%)" stroke-opacity="1" stroke-miterlimit="10" d="M 205.896998 -46.864521 C 209.72107 -46.930949 214.045125 -50.398297 216.561134 -44.47757 " transform="matrix(0.097754, -0.0355797, -0.0177892, -0.048877, 0, 15)"/>
<path fill="none" stroke-width="38.0441" stroke-linecap="round" stroke-linejoin="round" stroke="rgb(0%, 0%, 0%)" stroke-opacity="1" stroke-miterlimit="10" d="M 237.004995 -100.11875 C 240.806624 -100.088921 245.130678 -103.556269 247.646688 -97.635541 " transform="matrix(0.097754, -0.0355797, -0.0177892, -0.048877, 0, 15)"/>
<path fill="none" stroke-width="38.0441" stroke-linecap="round" stroke-linejoin="round" stroke="rgb(0%, 0%, 0%)" stroke-opacity="1" stroke-miterlimit="10" d="M 268.077706 -153.347292 C 271.879335 -153.317463 276.238675 -156.810498 278.719399 -150.864084 " transform="matrix(0.097754, -0.0355797, -0.0177892, -0.048877, 0, 15)"/>
</svg>
