<?xml version="1.0" encoding="UTF-8"?>
<svg xmlns="http://www.w3.org/2000/svg" xmlns:xlink="http://www.w3.org/1999/xlink" width="28" height="27" viewBox="0 0 28 27">
<path fill="none" stroke-width="32.5295" stroke-linecap="round" stroke-linejoin="round" stroke="rgb(0%, 0%, 0%)" stroke-opacity="1" stroke-miterlimit="10" d="M 178.10529 269.900301 C 164.834182 310.120768 145.731295 273.684569 145.184522 207.054012 C 144.852513 166.170677 152.635879 132.971528 162.541191 119.59724 C 171.803214 107.012634 181.988654 111.681131 190.273926 132.342509 C 202.797126 227.605711 220.41325 310.701113 241.871613 375.552471 C 252.729403 408.386554 264.478084 436.153561 276.909272 458.508222 " transform="matrix(0.113137, -0.0468644, -0.0117155, -0.0282833, 0, 27)"/>
<path fill="none" stroke-width="32.5295" stroke-linecap="round" stroke-linejoin="round" stroke="rgb(0%, 0%, 0%)" stroke-opacity="1" stroke-miterlimit="10" d="M 133.015886 344.611804 C 119.732571 384.714386 100.641892 348.396072 100.095118 281.765515 C 99.733639 240.931012 107.546475 207.683031 117.451787 194.308743 C 126.713811 181.724137 136.869779 186.441466 145.184522 207.054012 " transform="matrix(0.113137, -0.0468644, -0.0117155, -0.0282833, 0, 27)"/>
<path fill="none" stroke-width="32.5295" stroke-linecap="round" stroke-linejoin="round" stroke="rgb(0%, 0%, 0%)" stroke-opacity="1" stroke-miterlimit="10" d="M 87.926483 419.323307 C 74.613697 459.47472 55.552488 423.107576 55.005714 356.477018 C 54.644236 315.642515 62.457071 282.394534 72.362383 269.020246 C 81.594936 256.484472 91.780376 261.152969 100.095118 281.765515 " transform="matrix(0.113137, -0.0468644, -0.0117155, -0.0282833, 0, 27)"/>
<path fill="none" stroke-width="38.0441" stroke-linecap="round" stroke-linejoin="round" stroke="rgb(0%, 0%, 0%)" stroke-opacity="1" stroke-miterlimit="10" d="M 93.898128 64.954023 C 102.590999 56.947783 111.624134 50.37217 120.891677 45.304241 C 130.265076 40.159255 139.85044 36.618211 149.529069 34.687595 " transform="matrix(0.097754, -0.0355797, -0.0177892, -0.048877, 0, 27)"/>
<path fill="none" stroke-width="38.0441" stroke-linecap="round" stroke-linejoin="round" stroke="rgb(0%, 0%, 0%)" stroke-opacity="1" stroke-miterlimit="10" d="M 52.174203 3.658444 C 55.962989 3.617701 60.287044 0.150353 62.803053 6.071081 " transform="matrix(0.097754, -0.0355797, -0.0177892, -0.048877, 0, 27)"/>
</svg>
