<?xml version="1.0" encoding="UTF-8"?>
<svg xmlns="http://www.w3.org/2000/svg" xmlns:xlink="http://www.w3.org/1999/xlink" width="31" height="21" viewBox="0 0 31 21">
<path fill="none" stroke-width="32.5295" stroke-linecap="round" stroke-linejoin="round" stroke="rgb(0%, 0%, 0%)" stroke-opacity="1" stroke-miterlimit="10" d="M 76.367049 226.33755 C 63.083734 266.440132 43.993054 230.121818 43.446281 163.491261 C 43.114272 122.607926 50.897638 89.408777 60.80295 76.034489 C 70.064973 63.449883 80.250412 68.11838 88.535685 88.779757 C 101.058885 184.04296 118.675009 267.138361 140.145579 332.107605 C 150.991161 364.823803 162.739843 392.59081 175.171031 414.945471 " transform="matrix(0.113137, -0.0468644, -0.0117155, -0.0282833, 0, 21)"/>
<path fill="none" stroke-width="38.0441" stroke-linecap="round" stroke-linejoin="round" stroke="rgb(0%, 0%, 0%)" stroke-opacity="1" stroke-miterlimit="10" d="M 198.18993 80.304115 C 201.991559 80.333944 206.315614 76.866596 208.831623 82.787323 " transform="matrix(0.097754, -0.0355797, -0.0177892, -0.048877, 0, 21)"/>
<path fill="none" stroke-width="38.0441" stroke-linecap="round" stroke-linejoin="round" stroke="rgb(0%, 0%, 0%)" stroke-opacity="1" stroke-miterlimit="10" d="M 218.633791 24.662935 C 222.43542 24.692764 226.79476 21.19973 229.275484 27.146144 " transform="matrix(0.097754, -0.0355797, -0.0177892, -0.048877, 0, 21)"/>
<path fill="none" stroke-width="38.0441" stroke-linecap="round" stroke-linejoin="round" stroke="rgb(0%, 0%, 0%)" stroke-opacity="1" stroke-miterlimit="10" d="M 239.077652 -30.978244 C 242.879281 -30.948415 247.238621 -34.441449 249.719345 -28.495036 " transform="matrix(0.097754, -0.0355797, -0.0177892, -0.048877, 0, 21)"/>
<path fill="none" stroke-width="32.5295" stroke-linecap="round" stroke-linejoin="round" stroke="rgb(0%, 0%, 0%)" stroke-opacity="1" stroke-miterlimit="10" d="M 218.645333 -185.504604 C 224.529397 -204.369645 226.587664 -236.507317 223.70678 -264.328119 C 220.825895 -292.148921 213.68946 -309.051307 206.194054 -305.747053 " transform="matrix(0.113137, -0.0468644, -0.0117155, -0.0282833, 0, 21)"/>
</svg>
