<?xml version="1.0" encoding="UTF-8"?>
<svg xmlns="http://www.w3.org/2000/svg" xmlns:xlink="http://www.w3.org/1999/xlink" width="30" height="21" viewBox="0 0 30 21">
<path fill="none" stroke-width="32.5295" stroke-linecap="round" stroke-linejoin="round" stroke="rgb(0%, 0%, 0%)" stroke-opacity="1" stroke-miterlimit="10" d="M 114.088903 163.833809 C 100.817795 204.054275 81.714908 167.618077 81.168135 100.987519 C 80.836126 60.104185 88.631699 27.02292 98.524804 13.530747 C 107.786827 0.946142 117.972266 5.614639 126.257539 26.276016 C 138.780739 121.539219 156.396863 204.63462 177.867433 269.603864 C 188.713016 302.320062 200.461697 330.087068 212.892885 352.44173 " transform="matrix(0.113137, -0.0468644, -0.0117155, -0.0282833, 0, 21)"/>
<path fill="none" stroke-width="32.5295" stroke-linecap="round" stroke-linejoin="round" stroke="rgb(0%, 0%, 0%)" stroke-opacity="1" stroke-miterlimit="10" d="M 68.999499 238.545312 C 55.716184 278.647894 36.625504 242.32958 36.078731 175.699023 C 35.717252 134.864519 43.530088 101.616539 53.4354 88.242251 C 62.697423 75.657645 72.853392 80.374973 81.168135 100.987519 " transform="matrix(0.113137, -0.0468644, -0.0117155, -0.0282833, 0, 21)"/>
<path fill="none" stroke-width="38.0441" stroke-linecap="round" stroke-linejoin="round" stroke="rgb(0%, 0%, 0%)" stroke-opacity="1" stroke-miterlimit="10" d="M 238.449762 20.467786 C 242.238548 20.427044 246.562603 16.959696 249.078612 22.880423 " transform="matrix(0.097754, -0.0355797, -0.0177892, -0.048877, 0, 21)"/>
<path fill="none" stroke-width="32.5295" stroke-linecap="round" stroke-linejoin="round" stroke="rgb(0%, 0%, 0%)" stroke-opacity="1" stroke-miterlimit="10" d="M 211.277784 -173.296842 C 217.161848 -192.161883 219.190644 -224.250724 216.30976 -252.071526 C 213.428875 -279.892328 206.32191 -296.843545 198.826504 -293.539291 " transform="matrix(0.113137, -0.0468644, -0.0117155, -0.0282833, 0, 21)"/>
</svg>
