<?xml version="1.0" encoding="UTF-8"?>
<svg xmlns="http://www.w3.org/2000/svg" xmlns:xlink="http://www.w3.org/1999/xlink" width="30" height="18" viewBox="0 0 30 18">
<path fill="none" stroke-width="32.5295" stroke-linecap="round" stroke-linejoin="round" stroke="rgb(0%, 0%, 0%)" stroke-opacity="1" stroke-miterlimit="10" d="M 136.113539 375.526218 L 31.113387 126.748241 L 45.483823 138.155393 " transform="matrix(0.113137, -0.0468644, -0.0117155, -0.0282833, 0, 18)"/>
<path fill="none" stroke-width="32.5295" stroke-linecap="round" stroke-linejoin="round" stroke="rgb(0%, 0%, 0%)" stroke-opacity="1" stroke-miterlimit="10" d="M 136.113539 375.526218 C 135.565263 325.885869 126.823907 285.81592 122.099746 240.194521 C 130.414488 260.807067 140.570457 265.524395 149.832481 252.939789 C 159.737793 239.565501 167.550628 206.317521 167.189149 165.483017 C 166.654583 98.970345 147.551697 62.534146 134.268381 102.636728 " transform="matrix(0.113137, -0.0468644, -0.0117155, -0.0282833, 0, 18)"/>
<path fill="none" stroke-width="38.0441" stroke-linecap="round" stroke-linejoin="round" stroke="rgb(0%, 0%, 0%)" stroke-opacity="1" stroke-miterlimit="10" d="M 174.849972 6.505165 C 178.686886 6.509308 183.010941 3.04196 185.491665 8.988373 " transform="matrix(0.097754, -0.0355797, -0.0177892, -0.048877, 0, 18)"/>
<path fill="none" stroke-width="38.0441" stroke-linecap="round" stroke-linejoin="round" stroke="rgb(0%, 0%, 0%)" stroke-opacity="1" stroke-miterlimit="10" d="M 187.100302 -94.160548 C 190.937216 -94.156405 195.261271 -97.623753 197.741995 -91.67734 " transform="matrix(0.097754, -0.0355797, -0.0177892, -0.048877, 0, 18)"/>
<path fill="none" stroke-width="32.5295" stroke-linecap="round" stroke-linejoin="round" stroke="rgb(0%, 0%, 0%)" stroke-opacity="1" stroke-miterlimit="10" d="M 230.189599 8.334956 C 239.489202 17.785929 247.111326 44.380021 250.785675 79.863332 C 254.460023 115.346643 253.759344 155.593206 248.866518 188.698629 " transform="matrix(0.113137, -0.0468644, -0.0117155, -0.0282833, 0, 18)"/>
</svg>
