<?xml version="1.0" encoding="UTF-8"?>
<svg xmlns="http://www.w3.org/2000/svg" xmlns:xlink="http://www.w3.org/1999/xlink" width="34" height="21" viewBox="0 0 34 21">
<path fill="none" stroke-width="32.5295" stroke-linecap="round" stroke-linejoin="round" stroke="rgb(0%, 0%, 0%)" stroke-opacity="1" stroke-miterlimit="10" d="M 76.367049 226.33755 C 63.083734 266.440132 43.993054 230.121818 43.446281 163.491261 C 43.114272 122.607926 50.897638 89.408777 60.80295 76.034489 C 70.064973 63.449883 80.250412 68.11838 88.535685 88.779757 C 101.058885 184.04296 118.675009 267.138361 140.145579 332.107605 C 150.991161 364.823803 162.739843 392.59081 175.171031 414.945471 " transform="matrix(0.113137, -0.0468644, -0.0117155, -0.0282833, 0, 21)"/>
<path fill="none" stroke-width="38.0441" stroke-linecap="round" stroke-linejoin="round" stroke="rgb(0%, 0%, 0%)" stroke-opacity="1" stroke-miterlimit="10" d="M 198.18993 80.304115 C 201.991559 80.333944 206.315614 76.866596 208.831623 82.787323 " transform="matrix(0.097754, -0.0355797, -0.0177892, -0.048877, 0, 21)"/>
<path fill="none" stroke-width="38.0441" stroke-linecap="round" stroke-linejoin="round" stroke="rgb(0%, 0%, 0%)" stroke-opacity="1" stroke-miterlimit="10" d="M 215.358947 6.667236 C 219.160576 6.697065 223.519916 3.204031 226.00064 9.150444 " transform="matrix(0.097754, -0.0355797, -0.0177892, -0.048877, 0, 21)"/>
<path fill="none" stroke-width="32.5295" stroke-linecap="round" stroke-linejoin="round" stroke="rgb(0%, 0%, 0%)" stroke-opacity="1" stroke-miterlimit="10" d="M 196.100631 -148.148852 C 201.984695 -167.013894 204.042962 -199.151566 201.162078 -226.972368 C 198.281193 -254.79317 191.144758 -271.695555 183.649352 -268.391301 " transform="matrix(0.113137, -0.0468644, -0.0117155, -0.0282833, 0, 21)"/>
<path fill="none" stroke-width="32.5295" stroke-linecap="round" stroke-linejoin="round" stroke="rgb(0%, 0%, 0%)" stroke-opacity="1" stroke-miterlimit="10" d="M 259.866954 -42.496682 C 269.178764 -32.927824 276.818152 -6.500447 280.4925 28.982864 C 284.166848 64.466175 283.448907 104.879453 278.543874 137.866992 " transform="matrix(0.113137, -0.0468644, -0.0117155, -0.0282833, 0, 21)"/>
</svg>
