<?xml version="1.0" encoding="UTF-8"?>
<svg xmlns="http://www.w3.org/2000/svg" xmlns:xlink="http://www.w3.org/1999/xlink" width="27" height="15" viewBox="0 0 27 15">
<path fill="none" stroke-width="32.5295" stroke-linecap="round" stroke-linejoin="round" stroke="rgb(0%, 0%, 0%)" stroke-opacity="1" stroke-miterlimit="10" d="M 126.738457 284.990727 L 21.750513 36.330635 L 36.108742 47.619902 " transform="matrix(0.113137, -0.0468644, -0.0117155, -0.0282833, 0, 15)"/>
<path fill="none" stroke-width="38.0441" stroke-linecap="round" stroke-linejoin="round" stroke="rgb(0%, 0%, 0%)" stroke-opacity="1" stroke-miterlimit="10" d="M 147.817896 25.943232 C 151.619524 25.973061 155.978865 22.480027 158.459589 28.42644 " transform="matrix(0.097754, -0.0355797, -0.0177892, -0.048877, 0, 15)"/>
<path fill="none" stroke-width="38.0441" stroke-linecap="round" stroke-linejoin="round" stroke="rgb(0%, 0%, 0%)" stroke-opacity="1" stroke-miterlimit="10" d="M 160.068226 -74.722481 C 163.90514 -74.718338 168.229195 -78.185686 170.709919 -72.239273 " transform="matrix(0.097754, -0.0355797, -0.0177892, -0.048877, 0, 15)"/>
<path fill="none" stroke-width="32.5295" stroke-linecap="round" stroke-linejoin="round" stroke="rgb(0%, 0%, 0%)" stroke-opacity="1" stroke-miterlimit="10" d="M 198.269816 -44.844784 C 207.539948 -35.344979 215.191543 -8.799718 218.865892 26.683593 C 222.54024 62.166904 221.810091 102.462298 216.946735 135.51889 " transform="matrix(0.113137, -0.0468644, -0.0117155, -0.0282833, 0, 15)"/>
</svg>
