<?xml version="1.0" encoding="UTF-8"?>
<svg xmlns="http://www.w3.org/2000/svg" xmlns:xlink="http://www.w3.org/1999/xlink" width="34" height="17" viewBox="0 0 34 17">
<path fill="none" stroke-width="32.5295" stroke-linecap="round" stroke-linejoin="round" stroke="rgb(0%, 0%, 0%)" stroke-opacity="1" stroke-miterlimit="10" d="M 146.85502 -31.884669 C 133.571705 8.217913 114.481025 -28.100401 113.934252 -94.730958 C 113.602243 -135.614293 121.385609 -168.813442 131.290921 -182.18773 C 140.552944 -194.772336 150.738383 -190.103838 159.023656 -169.442461 C 171.546856 -74.179259 189.16298 8.916143 210.63355 73.885386 C 221.479132 106.601584 233.227814 134.368591 245.659002 156.723252 " transform="matrix(0.113137, -0.0468644, -0.0117155, -0.0282833, 0, 17)"/>
<path fill="none" stroke-width="32.5295" stroke-linecap="round" stroke-linejoin="round" stroke="rgb(0%, 0%, 0%)" stroke-opacity="1" stroke-miterlimit="10" d="M 101.765616 42.826834 C 88.482301 82.929416 69.391621 46.611103 68.844848 -20.019455 C 68.483369 -60.853958 76.308412 -93.984054 86.201517 -107.476227 C 95.46354 -120.060832 105.619509 -115.343504 113.934252 -94.730958 " transform="matrix(0.113137, -0.0468644, -0.0117155, -0.0282833, 0, 17)"/>
<path fill="none" stroke-width="32.5295" stroke-linecap="round" stroke-linejoin="round" stroke="rgb(0%, 0%, 0%)" stroke-opacity="1" stroke-miterlimit="10" d="M 56.676212 117.538338 C 43.375634 157.807635 24.302218 121.322606 23.755444 54.692048 C 23.393965 13.857545 31.219008 -19.272551 41.112113 -32.764724 C 50.344666 -45.300498 60.530105 -40.632001 68.844848 -20.019455 " transform="matrix(0.113137, -0.0468644, -0.0117155, -0.0282833, 0, 17)"/>
<path fill="none" stroke-width="32.5295" stroke-linecap="round" stroke-linejoin="round" stroke="rgb(0%, 0%, 0%)" stroke-opacity="1" stroke-miterlimit="10" d="M 245.659002 156.723252 C 245.098519 106.965018 236.369371 67.012955 231.645209 21.391555 C 239.930481 42.052932 250.115921 46.721429 259.377944 34.136824 C 269.283256 20.762536 277.066621 -12.436614 276.734613 -53.319948 C 276.158369 -119.901675 257.09716 -156.268819 243.813845 -116.166237 " transform="matrix(0.113137, -0.0468644, -0.0117155, -0.0282833, 0, 17)"/>
</svg>
