<?xml version="1.0" encoding="UTF-8"?>
<svg xmlns="http://www.w3.org/2000/svg" xmlns:xlink="http://www.w3.org/1999/xlink" width="34" height="17" viewBox="0 0 34 17">
<path fill="none" stroke-width="32.5295" stroke-linecap="round" stroke-linejoin="round" stroke="rgb(0%, 0%, 0%)" stroke-opacity="1" stroke-miterlimit="10" d="M 192.121245 -106.889158 C 178.83793 -66.786576 159.74725 -103.10489 159.200477 -169.735448 C 158.868468 -210.618782 166.664041 -243.700047 176.557146 -257.19222 C 185.819169 -269.776825 196.004608 -265.108328 204.289881 -244.446951 C 216.813081 -149.183748 234.429205 -66.088347 255.899775 -1.119103 C 266.745358 31.597095 278.494039 59.364101 290.925227 81.718763 " transform="matrix(0.113137, -0.0468644, -0.0117155, -0.0282833, 0, 17)"/>
<path fill="none" stroke-width="32.5295" stroke-linecap="round" stroke-linejoin="round" stroke="rgb(0%, 0%, 0%)" stroke-opacity="1" stroke-miterlimit="10" d="M 147.031841 -32.177655 C 133.748526 7.924927 114.657846 -28.393387 114.111073 -95.023944 C 113.749594 -135.858448 121.574637 -168.988544 131.467742 -182.480716 C 140.729765 -195.065322 150.885734 -190.347994 159.200477 -169.735448 " transform="matrix(0.113137, -0.0468644, -0.0117155, -0.0282833, 0, 17)"/>
<path fill="none" stroke-width="32.5295" stroke-linecap="round" stroke-linejoin="round" stroke="rgb(0%, 0%, 0%)" stroke-opacity="1" stroke-miterlimit="10" d="M 101.942437 42.533848 C 88.629652 82.685261 69.568443 46.318116 69.021669 -20.312441 C 68.66019 -61.146945 76.485233 -94.27704 86.378338 -107.769213 C 95.610891 -120.304988 105.796331 -115.636491 114.111073 -95.023944 " transform="matrix(0.113137, -0.0468644, -0.0117155, -0.0282833, 0, 17)"/>
<path fill="none" stroke-width="32.5295" stroke-linecap="round" stroke-linejoin="round" stroke="rgb(0%, 0%, 0%)" stroke-opacity="1" stroke-miterlimit="10" d="M 56.823563 117.294182 C 43.540248 157.396764 24.479039 121.029619 23.902795 54.447893 C 23.570787 13.564559 31.366359 -19.516706 41.259464 -33.008879 C 50.521488 -45.593484 60.706927 -40.924987 69.021669 -20.312441 " transform="matrix(0.113137, -0.0468644, -0.0117155, -0.0282833, 0, 17)"/>
</svg>
