<?xml version="1.0" encoding="UTF-8"?>
<svg xmlns="http://www.w3.org/2000/svg" xmlns:xlink="http://www.w3.org/1999/xlink" width="29" height="18" viewBox="0 0 29 18">
<path fill="none" stroke-width="32.5295" stroke-linecap="round" stroke-linejoin="round" stroke="rgb(0%, 0%, 0%)" stroke-opacity="1" stroke-miterlimit="10" d="M 104.713822 73.298318 C 91.430507 113.4009 72.339827 77.082586 71.793054 10.452028 C 71.461045 -30.431306 79.256618 -63.512571 89.149723 -77.004744 C 98.411746 -89.589349 108.597185 -84.920852 116.882458 -64.259475 C 129.405658 31.003728 147.021782 114.099129 168.480145 178.950488 C 179.337934 211.784571 191.086616 239.551577 203.517804 261.906239 " transform="matrix(0.113137, -0.0468644, -0.0117155, -0.0282833, 0, 18)"/>
<path fill="none" stroke-width="32.5295" stroke-linecap="round" stroke-linejoin="round" stroke="rgb(0%, 0%, 0%)" stroke-opacity="1" stroke-miterlimit="10" d="M 59.624418 148.009821 C 46.341103 188.112403 27.250423 151.794089 26.70365 85.163532 C 26.342171 44.329028 34.155007 11.081048 44.060319 -2.29324 C 53.322342 -14.877846 63.478311 -10.160518 71.793054 10.452028 " transform="matrix(0.113137, -0.0468644, -0.0117155, -0.0282833, 0, 18)"/>
<path fill="none" stroke-width="38.0441" stroke-linecap="round" stroke-linejoin="round" stroke="rgb(0%, 0%, 0%)" stroke-opacity="1" stroke-miterlimit="10" d="M 228.586703 -33.731025 C 232.375489 -33.771767 236.699544 -37.239116 239.215553 -31.318388 " transform="matrix(0.097754, -0.0355797, -0.0177892, -0.048877, 0, 18)"/>
<path fill="none" stroke-width="38.0441" stroke-linecap="round" stroke-linejoin="round" stroke="rgb(0%, 0%, 0%)" stroke-opacity="1" stroke-miterlimit="10" d="M 240.837033 -134.396738 C 244.638661 -134.366909 248.998002 -137.859943 251.478725 -131.91353 " transform="matrix(0.097754, -0.0355797, -0.0177892, -0.048877, 0, 18)"/>
</svg>
