<?xml version="1.0" encoding="UTF-8"?>
<svg xmlns="http://www.w3.org/2000/svg" xmlns:xlink="http://www.w3.org/1999/xlink" width="28" height="21" viewBox="0 0 28 21">
<path fill="none" stroke-width="32.5295" stroke-linecap="round" stroke-linejoin="round" stroke="rgb(0%, 0%, 0%)" stroke-opacity="1" stroke-miterlimit="10" d="M 66.991968 135.802059 C 53.708653 175.904641 34.617973 139.586327 34.0712 72.95577 C 33.739191 32.072435 41.522557 -1.126714 51.427868 -14.501002 C 60.689892 -27.085608 70.875331 -22.417111 79.160604 -1.755734 C 91.683804 93.507469 109.299928 176.60287 130.758291 241.454229 C 141.61608 274.288312 153.364762 302.055319 165.79595 324.40998 C 188.370535 347.359455 212.087214 344.661336 234.310568 316.539073 C 241.114358 307.889559 247.715683 296.951405 254.055601 283.822271 L 149.02598 35.093125 L 163.425886 46.451446 " transform="matrix(0.113137, -0.0468644, -0.0117155, -0.0282833, 0, 21)"/>
<path fill="none" stroke-width="32.5295" stroke-linecap="round" stroke-linejoin="round" stroke="rgb(0%, 0%, 0%)" stroke-opacity="1" stroke-miterlimit="10" d="M 163.425886 46.451446 C 162.87761 -3.188903 154.148462 -43.140967 149.4243 -88.762367 C 157.709572 -68.10099 167.882804 -63.550377 177.157035 -76.017098 C 187.05014 -89.509271 194.833505 -122.70842 194.513704 -163.47387 C 193.96693 -230.104427 174.864044 -266.540626 161.580728 -226.438044 " transform="matrix(0.113137, -0.0468644, -0.0117155, -0.0282833, 0, 21)"/>
<path fill="none" stroke-width="38.0441" stroke-linecap="round" stroke-linejoin="round" stroke="rgb(0%, 0%, 0%)" stroke-opacity="1" stroke-miterlimit="10" d="M 151.473505 -8.206326 C 155.310419 -8.202183 159.634474 -11.669532 162.150484 -5.748804 " transform="matrix(0.097754, -0.0355797, -0.0177892, -0.048877, 0, 21)"/>
</svg>
