<?xml version="1.0" encoding="UTF-8" standalone="no"?>
<svg width="210.058mm" height="296.926mm" viewBox="0 0 2977.2 4208.4"
 xmlns="http://www.w3.org/2000/svg" xmlns:xlink="http://www.w3.org/1999/xlink" version="1.2" baseProfile="full">
<title>CB012_cjec</title>
<desc>Generated by MuseScore Studio 4.6.2</desc>
<polyline class="StaffLines" fill="none" stroke="#000000" stroke-width="3.04" stroke-linejoin="bevel" points="212.598,275.881 2764.6,275.881" />
<polyline class="StaffLines" fill="none" stroke="#000000" stroke-width="3.04" stroke-linejoin="bevel" points="212.598,303.519 2764.6,303.519" />
<polyline class="StaffLines" fill="none" stroke="#000000" stroke-width="3.04" stroke-linejoin="bevel" points="212.598,331.156 2764.6,331.156" />
<polyline class="StaffLines" fill="none" stroke="#000000" stroke-width="3.04" stroke-linejoin="bevel" points="212.598,358.794 2764.6,358.794" />
<polyline class="StaffLines" fill="none" stroke="#000000" stroke-width="3.04" stroke-linejoin="bevel" points="212.598,386.432 2764.6,386.432" />
<polyline class="StaffLines" fill="none" stroke="#000000" stroke-width="3.04" stroke-linejoin="bevel" points="212.598,566.078 2764.6,566.078" />
<polyline class="StaffLines" fill="none" stroke="#000000" stroke-width="3.04" stroke-linejoin="bevel" points="212.598,593.715 2764.6,593.715" />
<polyline class="StaffLines" fill="none" stroke="#000000" stroke-width="3.04" stroke-linejoin="bevel" points="212.598,621.353 2764.6,621.353" />
<polyline class="StaffLines" fill="none" stroke="#000000" stroke-width="3.04" stroke-linejoin="bevel" points="212.598,648.991 2764.6,648.991" />
<polyline class="StaffLines" fill="none" stroke="#000000" stroke-width="3.04" stroke-linejoin="bevel" points="212.598,676.629 2764.6,676.629" />
<polyline class="StaffLines" fill="none" stroke="#000000" stroke-width="3.04" stroke-linejoin="bevel" points="212.598,856.275 2764.6,856.275" />
<polyline class="StaffLines" fill="none" stroke="#000000" stroke-width="3.04" stroke-linejoin="bevel" points="212.598,883.912 2764.6,883.912" />
<polyline class="StaffLines" fill="none" stroke="#000000" stroke-width="3.04" stroke-linejoin="bevel" points="212.598,911.55 2764.6,911.55" />
<polyline class="StaffLines" fill="none" stroke="#000000" stroke-width="3.04" stroke-linejoin="bevel" points="212.598,939.188 2764.6,939.188" />
<polyline class="StaffLines" fill="none" stroke="#000000" stroke-width="3.04" stroke-linejoin="bevel" points="212.598,966.826 2764.6,966.826" />
<polyline class="StaffLines" fill="none" stroke="#000000" stroke-width="3.04" stroke-linejoin="bevel" points="212.598,1300.71 2764.6,1300.71" />
<polyline class="StaffLines" fill="none" stroke="#000000" stroke-width="3.04" stroke-linejoin="bevel" points="212.598,1328.35 2764.6,1328.35" />
<polyline class="StaffLines" fill="none" stroke="#000000" stroke-width="3.04" stroke-linejoin="bevel" points="212.598,1355.98 2764.6,1355.98" />
<polyline class="StaffLines" fill="none" stroke="#000000" stroke-width="3.04" stroke-linejoin="bevel" points="212.598,1383.62 2764.6,1383.62" />
<polyline class="StaffLines" fill="none" stroke="#000000" stroke-width="3.04" stroke-linejoin="bevel" points="212.598,1411.26 2764.6,1411.26" />
<polyline class="StaffLines" fill="none" stroke="#000000" stroke-width="3.04" stroke-linejoin="bevel" points="212.598,1590.91 2764.6,1590.91" />
<polyline class="StaffLines" fill="none" stroke="#000000" stroke-width="3.04" stroke-linejoin="bevel" points="212.598,1618.54 2764.6,1618.54" />
<polyline class="StaffLines" fill="none" stroke="#000000" stroke-width="3.04" stroke-linejoin="bevel" points="212.598,1646.18 2764.6,1646.18" />
<polyline class="StaffLines" fill="none" stroke="#000000" stroke-width="3.04" stroke-linejoin="bevel" points="212.598,1673.82 2764.6,1673.82" />
<polyline class="StaffLines" fill="none" stroke="#000000" stroke-width="3.04" stroke-linejoin="bevel" points="212.598,1701.46 2764.6,1701.46" />
<polyline class="StaffLines" fill="none" stroke="#000000" stroke-width="3.04" stroke-linejoin="bevel" points="212.598,1881.1 2764.6,1881.1" />
<polyline class="StaffLines" fill="none" stroke="#000000" stroke-width="3.04" stroke-linejoin="bevel" points="212.598,1908.74 2764.6,1908.74" />
<polyline class="StaffLines" fill="none" stroke="#000000" stroke-width="3.04" stroke-linejoin="bevel" points="212.598,1936.38 2764.6,1936.38" />
<polyline class="StaffLines" fill="none" stroke="#000000" stroke-width="3.04" stroke-linejoin="bevel" points="212.598,1964.02 2764.6,1964.02" />
<polyline class="StaffLines" fill="none" stroke="#000000" stroke-width="3.04" stroke-linejoin="bevel" points="212.598,1991.65 2764.6,1991.65" />
<polyline class="BarLine" fill="none" stroke="#000000" stroke-width="4.97" stroke-linejoin="bevel" points="2736.69,1299.19 2736.69,1412.78" />
<polyline class="BarLine" fill="none" stroke="#000000" stroke-width="15.20" stroke-linejoin="bevel" points="2757,1299.19 2757,1412.78" />
<polyline class="BarLine" fill="none" stroke="#000000" stroke-width="4.97" stroke-linejoin="bevel" points="215.086,274.361 215.086,566.078" />
<polyline class="BarLine" fill="none" stroke="#000000" stroke-width="4.97" stroke-linejoin="bevel" points="840.652,301.999 840.652,360.314" />
<polyline class="BarLine" fill="none" stroke="#000000" stroke-width="4.97" stroke-linejoin="bevel" points="1876.81,301.999 1876.81,360.314" />
<polyline class="BarLine" fill="none" stroke="#000000" stroke-width="4.97" stroke-linejoin="bevel" points="2762.11,301.999 2762.11,360.314" />
<polyline class="BarLine" fill="none" stroke="#000000" stroke-width="4.97" stroke-linejoin="bevel" points="215.086,1299.19 215.086,1590.91" />
<polyline class="BarLine" fill="none" stroke="#000000" stroke-width="4.97" stroke-linejoin="bevel" points="1594.52,1326.83 1594.52,1385.14" />
<polyline class="BarLine" fill="none" stroke="#000000" stroke-width="4.97" stroke-linejoin="bevel" points="840.652,592.195 840.652,650.511" />
<polyline class="BarLine" fill="none" stroke="#000000" stroke-width="4.97" stroke-linejoin="bevel" points="215.086,564.558 215.086,856.275" />
<polyline class="BarLine" fill="none" stroke="#000000" stroke-width="4.97" stroke-linejoin="bevel" points="2762.11,592.195 2762.11,650.511" />
<polyline class="BarLine" fill="none" stroke="#000000" stroke-width="4.97" stroke-linejoin="bevel" points="215.086,1589.38 215.086,1881.1" />
<polyline class="BarLine" fill="none" stroke="#000000" stroke-width="4.97" stroke-linejoin="bevel" points="1594.52,1617.02 1594.52,1675.34" />
<polyline class="BarLine" fill="none" stroke="#000000" stroke-width="4.97" stroke-linejoin="bevel" points="1876.81,592.195 1876.81,650.511" />
<polyline class="BarLine" fill="none" stroke="#000000" stroke-width="4.97" stroke-linejoin="bevel" points="2736.69,1589.38 2736.69,1702.98" />
<polyline class="BarLine" fill="none" stroke="#000000" stroke-width="15.20" stroke-linejoin="bevel" points="2757,1589.38 2757,1702.98" />
<polyline class="BarLine" fill="none" stroke="#000000" stroke-width="4.97" stroke-linejoin="bevel" points="215.086,1879.58 215.086,1993.17" />
<polyline class="BarLine" fill="none" stroke="#000000" stroke-width="4.97" stroke-linejoin="bevel" points="2762.11,882.392 2762.11,940.708" />
<polyline class="BarLine" fill="none" stroke="#000000" stroke-width="4.97" stroke-linejoin="bevel" points="840.652,882.392 840.652,940.708" />
<polyline class="BarLine" fill="none" stroke="#000000" stroke-width="4.97" stroke-linejoin="bevel" points="215.086,854.754 215.086,968.346" />
<polyline class="BarLine" fill="none" stroke="#000000" stroke-width="4.97" stroke-linejoin="bevel" points="1876.81,882.392 1876.81,940.708" />
<polyline class="BarLine" fill="none" stroke="#000000" stroke-width="4.97" stroke-linejoin="bevel" points="2736.69,1879.58 2736.69,1993.17" />
<polyline class="BarLine" fill="none" stroke="#000000" stroke-width="15.20" stroke-linejoin="bevel" points="2757,1879.58 2757,1993.17" />
<path class="SlurSegment" stroke="#000000" stroke-width="1.38" stroke-linecap="round" stroke-linejoin="round" fill-rule="evenodd" d="M1648.74,587.359 C1665.64,562.18 1699.45,562.18 1716.36,587.359 C1699.45,569.307 1665.64,569.307 1648.74,587.359"/>
<path class="SlurSegment" stroke="#000000" stroke-width="1.38" stroke-linecap="round" stroke-linejoin="round" fill-rule="evenodd" d="M817.082,1607.49 C843.679,1586.47 882.396,1597.11 894.516,1628.77 C880.403,1604.36 841.687,1593.72 817.082,1607.49"/>
<path class="SlurSegment" stroke="#000000" stroke-width="1.38" stroke-linecap="round" stroke-linejoin="round" fill-rule="evenodd" d="M1294.71,973.182 C1311.62,991.234 1345.43,991.234 1362.34,973.182 C1345.43,998.361 1311.62,998.361 1294.71,973.182"/>
<path class="Accidental" transform="matrix(1.10551,0,0,1.10551,1847.61,1936.38)" d="M13.2,-4 C13.2,3.9 9.1,8.1 3.3,12.7 L3.6,-6.8 C3.8,-7.7 5.3,-10.6 9.3,-10.6 C12.9,-10.6 13.2,-7.2 13.2,-5.1 L13.2,-4 M12,-15.5 C7,-15.5 4.1,-12.4 3.6,-11.8 L4,-43.9 C4,-44.7 3.4,-45.3 2.6,-45.3 L1.4,-45.3 C0.6,-45.3 0,-44.7 0,-43.9 L0.5,16.2 C0.5,17 1.1,17.6 1.9,17.6 C2.1,17.6 2.5,17.5 2.7,17.4 C11.3,13.1 20.3,4.9 20.3,-5.4 C20.3,-10.6 17.9,-15.5 12,-15.5"/>
<polyline class="LedgerLine" fill="none" stroke="#000000" stroke-width="4.42" stroke-linejoin="bevel" points="1554.04,994.464 1608.19,994.464" />
<polyline class="LedgerLine" fill="none" stroke="#000000" stroke-width="4.42" stroke-linejoin="bevel" points="2345.54,2019.29 2399.69,2019.29" />
<polyline class="LedgerLine" fill="none" stroke="#000000" stroke-width="4.42" stroke-linejoin="bevel" points="1904.72,994.464 1958.88,994.464" />
<path class="Note" transform="matrix(1.10551,0,0,1.10551,2586.96,1328.35)" d="M0,4.2 C0,8.5 3.1,13.3 11.2,13.3 C21.6,13.3 32.5,4.8 32.5,-4 C32.5,-9.9 27.5,-13.2 21.3,-13.2 C11.6,-13.2 0,-5 0,4.2"/>
<path class="Note" transform="matrix(1.10551,0,0,1.10551,2354.66,1342.16)" d="M0,4.2 C0,8.5 3.1,13.3 11.2,13.3 C21.6,13.3 32.5,4.8 32.5,-4 C32.5,-9.9 27.5,-13.2 21.3,-13.2 C11.6,-13.2 0,-5 0,4.2"/>
<path class="Note" transform="matrix(1.10551,0,0,1.10551,709.581,317.338)" d="M0,4.2 C0,8.5 3.1,13.3 11.2,13.3 C21.6,13.3 32.5,4.8 32.5,-4 C32.5,-9.9 27.5,-13.2 21.3,-13.2 C11.6,-13.2 0,-5 0,4.2"/>
<path class="Note" transform="matrix(1.10551,0,0,1.10551,641.959,317.338)" d="M0,4.2 C0,8.5 3.1,13.3 11.2,13.3 C21.6,13.3 32.5,4.8 32.5,-4 C32.5,-9.9 27.5,-13.2 21.3,-13.2 C11.6,-13.2 0,-5 0,4.2"/>
<path class="Note" transform="matrix(1.10551,0,0,1.10551,574.337,303.519)" d="M0,4.2 C0,8.5 3.1,13.3 11.2,13.3 C21.6,13.3 32.5,4.8 32.5,-4 C32.5,-9.9 27.5,-13.2 21.3,-13.2 C11.6,-13.2 0,-5 0,4.2"/>
<path class="Note" transform="matrix(1.10551,0,0,1.10551,2563.42,303.519)" d="M0,4.2 C0,8.5 3.1,13.3 11.2,13.3 C21.6,13.3 32.5,4.8 32.5,-4 C32.5,-9.9 27.5,-13.2 21.3,-13.2 C11.6,-13.2 0,-5 0,4.2"/>
<path class="Note" transform="matrix(1.10551,0,0,1.10551,2495.8,289.7)" d="M0,4.2 C0,8.5 3.1,13.3 11.2,13.3 C21.6,13.3 32.5,4.8 32.5,-4 C32.5,-9.9 27.5,-13.2 21.3,-13.2 C11.6,-13.2 0,-5 0,4.2"/>
<path class="Note" transform="matrix(1.10551,0,0,1.10551,2428.18,275.881)" d="M0,4.2 C0,8.5 3.1,13.3 11.2,13.3 C21.6,13.3 32.5,4.8 32.5,-4 C32.5,-9.9 27.5,-13.2 21.3,-13.2 C11.6,-13.2 0,-5 0,4.2"/>
<path class="Note" transform="matrix(1.10551,0,0,1.10551,2171.01,317.338)" d="M0,4.2 C0,8.5 3.1,13.3 11.2,13.3 C21.6,13.3 32.5,4.8 32.5,-4 C32.5,-9.9 27.5,-13.2 21.3,-13.2 C11.6,-13.2 0,-5 0,4.2"/>
<path class="Note" transform="matrix(1.10551,0,0,1.10551,2042.43,303.519)" d="M0,4.2 C0,8.5 3.1,13.3 11.2,13.3 C21.6,13.3 32.5,4.8 32.5,-4 C32.5,-9.9 27.5,-13.2 21.3,-13.2 C11.6,-13.2 0,-5 0,4.2"/>
<path class="Note" transform="matrix(1.10551,0,0,1.10551,1913.84,317.338)" d="M0,4.2 C0,8.5 3.1,13.3 11.2,13.3 C21.6,13.3 32.5,4.8 32.5,-4 C32.5,-9.9 27.5,-13.2 21.3,-13.2 C11.6,-13.2 0,-5 0,4.2"/>
<path class="Note" transform="matrix(1.10551,0,0,1.10551,506.715,289.7)" d="M0,4.2 C0,8.5 3.1,13.3 11.2,13.3 C21.6,13.3 32.5,4.8 32.5,-4 C32.5,-9.9 27.5,-13.2 21.3,-13.2 C11.6,-13.2 0,-5 0,4.2"/>
<path class="Note" transform="matrix(1.10551,0,0,1.10551,1391.71,303.519)" d="M0,4.2 C0,8.5 3.1,13.3 11.2,13.3 C21.6,13.3 32.5,4.8 32.5,-4 C32.5,-9.9 27.5,-13.2 21.3,-13.2 C11.6,-13.2 0,-5 0,4.2"/>
<path class="Note" transform="matrix(1.10551,0,0,1.10551,953.993,1314.53)" d="M0,4.2 C0,8.5 3.1,13.3 11.2,13.3 C21.6,13.3 32.5,4.8 32.5,-4 C32.5,-9.9 27.5,-13.2 21.3,-13.2 C11.6,-13.2 0,-5 0,4.2"/>
<path class="Note" transform="matrix(1.10551,0,0,1.10551,1052.15,1328.35)" d="M0,4.2 C0,8.5 3.1,13.3 11.2,13.3 C21.6,13.3 32.5,4.8 32.5,-4 C32.5,-9.9 27.5,-13.2 21.3,-13.2 C11.6,-13.2 0,-5 0,4.2"/>
<path class="Note" transform="matrix(1.10551,0,0,1.10551,1150.31,1328.35)" d="M0,4.2 C0,8.5 3.1,13.3 11.2,13.3 C21.6,13.3 32.5,4.8 32.5,-4 C32.5,-9.9 27.5,-13.2 21.3,-13.2 C11.6,-13.2 0,-5 0,4.2"/>
<path class="Note" transform="matrix(1.10551,0,0,1.10551,1297.55,1314.53)" d="M0,4.2 C0,8.5 3.1,13.3 11.2,13.3 C21.6,13.3 32.5,4.8 32.5,-4 C32.5,-9.9 27.5,-13.2 21.3,-13.2 C11.6,-13.2 0,-5 0,4.2"/>
<path class="Note" transform="matrix(1.10551,0,0,1.10551,1563.16,317.338)" d="M0,4.2 C0,8.5 3.1,13.3 11.2,13.3 C21.6,13.3 32.5,4.8 32.5,-4 C32.5,-9.9 27.5,-13.2 21.3,-13.2 C11.6,-13.2 0,-5 0,4.2"/>
<path class="Note" transform="matrix(1.10551,0,0,1.10551,1444.79,1342.16)" d="M0,4.2 C0,8.5 3.1,13.3 11.2,13.3 C21.6,13.3 32.5,4.8 32.5,-4 C32.5,-9.9 27.5,-13.2 21.3,-13.2 C11.6,-13.2 0,-5 0,4.2"/>
<path class="Note" transform="matrix(1.10551,0,0,1.10551,2122.36,1328.35)" d="M0,4.2 C0,8.5 3.1,13.3 11.2,13.3 C21.6,13.3 32.5,4.8 32.5,-4 C32.5,-9.9 27.5,-13.2 21.3,-13.2 C11.6,-13.2 0,-5 0,4.2"/>
<path class="Note" transform="matrix(1.10551,0,0,1.10551,1745.74,303.519)" d="M0,4.2 C0,8.5 3.1,13.3 11.2,13.3 C21.6,13.3 32.5,4.8 32.5,-4 C32.5,-9.9 27.5,-13.2 21.3,-13.2 C11.6,-13.2 0,-5 0,4.2"/>
<path class="Note" transform="matrix(1.10551,0,0,1.10551,2529.61,635.172)" d="M0,4.2 C0,8.5 3.1,13.3 11.2,13.3 C21.6,13.3 32.5,4.8 32.5,-4 C32.5,-9.9 27.5,-13.2 21.3,-13.2 C11.6,-13.2 0,-5 0,4.2"/>
<path class="Note" transform="matrix(1.10551,0,0,1.10551,1073.89,607.534)" d="M0,4.2 C0,8.5 3.1,13.3 11.2,13.3 C21.6,13.3 32.5,4.8 32.5,-4 C32.5,-9.9 27.5,-13.2 21.3,-13.2 C11.6,-13.2 0,-5 0,4.2"/>
<path class="Note" transform="matrix(1.10551,0,0,1.10551,1630.78,621.353)" d="M0,4.2 C0,8.5 3.1,13.3 11.2,13.3 C21.6,13.3 32.5,4.8 32.5,-4 C32.5,-9.9 27.5,-13.2 21.3,-13.2 C11.6,-13.2 0,-5 0,4.2"/>
<path class="Note" transform="matrix(0.773858,0,0,0.773858,1703.79,607.534)" d="M0,4.2 C0,8.5 3.1,13.3 11.2,13.3 C21.6,13.3 32.5,4.8 32.5,-4 C32.5,-9.9 27.5,-13.2 21.3,-13.2 C11.6,-13.2 0,-5 0,4.2"/>
<path class="Note" transform="matrix(1.10551,0,0,1.10551,2122.36,1673.82)" d="M0,4.2 C0,8.5 3.1,13.3 11.2,13.3 C21.6,13.3 32.5,4.8 32.5,-4 C32.5,-9.9 27.5,-13.2 21.3,-13.2 C11.6,-13.2 0,-5 0,4.2"/>
<path class="Note" transform="matrix(1.10551,0,0,1.10551,1745.74,635.172)" d="M0,4.2 C0,8.5 3.1,13.3 11.2,13.3 C21.6,13.3 32.5,4.8 32.5,-4 C32.5,-9.9 27.5,-13.2 21.3,-13.2 C11.6,-13.2 0,-5 0,4.2"/>
<path class="Note" transform="matrix(1.10551,0,0,1.10551,1975.12,1660)" d="M0,4.2 C0,8.5 3.1,13.3 11.2,13.3 C21.6,13.3 32.5,4.8 32.5,-4 C32.5,-9.9 27.5,-13.2 21.3,-13.2 C11.6,-13.2 0,-5 0,4.2"/>
<path class="Note" transform="matrix(1.10551,0,0,1.10551,1876.96,1632.36)" d="M0,4.2 C0,8.5 3.1,13.3 11.2,13.3 C21.6,13.3 32.5,4.8 32.5,-4 C32.5,-9.9 27.5,-13.2 21.3,-13.2 C11.6,-13.2 0,-5 0,4.2"/>
<path class="Note" transform="matrix(1.10551,0,0,1.10551,1778.8,1618.54)" d="M0,4.2 C0,8.5 3.1,13.3 11.2,13.3 C21.6,13.3 32.5,4.8 32.5,-4 C32.5,-9.9 27.5,-13.2 21.3,-13.2 C11.6,-13.2 0,-5 0,4.2"/>
<path class="Note" transform="matrix(1.10551,0,0,1.10551,1563.16,635.172)" d="M0,4.2 C0,8.5 3.1,13.3 11.2,13.3 C21.6,13.3 32.5,4.8 32.5,-4 C32.5,-9.9 27.5,-13.2 21.3,-13.2 C11.6,-13.2 0,-5 0,4.2"/>
<path class="Note" transform="matrix(1.10551,0,0,1.10551,1631.56,1618.54)" d="M0,4.2 C0,8.5 3.1,13.3 11.2,13.3 C21.6,13.3 32.5,4.8 32.5,-4 C32.5,-9.9 27.5,-13.2 21.3,-13.2 C11.6,-13.2 0,-5 0,4.2"/>
<path class="Note" transform="matrix(1.10551,0,0,1.10551,1444.79,1632.36)" d="M0,4.2 C0,8.5 3.1,13.3 11.2,13.3 C21.6,13.3 32.5,4.8 32.5,-4 C32.5,-9.9 27.5,-13.2 21.3,-13.2 C11.6,-13.2 0,-5 0,4.2"/>
<path class="Note" transform="matrix(1.10551,0,0,1.10551,1297.55,1646.18)" d="M0,4.2 C0,8.5 3.1,13.3 11.2,13.3 C21.6,13.3 32.5,4.8 32.5,-4 C32.5,-9.9 27.5,-13.2 21.3,-13.2 C11.6,-13.2 0,-5 0,4.2"/>
<path class="Note" transform="matrix(1.10551,0,0,1.10551,1391.71,648.991)" d="M0,4.2 C0,8.5 3.1,13.3 11.2,13.3 C21.6,13.3 32.5,4.8 32.5,-4 C32.5,-9.9 27.5,-13.2 21.3,-13.2 C11.6,-13.2 0,-5 0,4.2"/>
<path class="Note" transform="matrix(1.10551,0,0,1.10551,1150.31,1660)" d="M0,4.2 C0,8.5 3.1,13.3 11.2,13.3 C21.6,13.3 32.5,4.8 32.5,-4 C32.5,-9.9 27.5,-13.2 21.3,-13.2 C11.6,-13.2 0,-5 0,4.2"/>
<path class="Note" transform="matrix(1.10551,0,0,1.10551,378.131,648.991)" d="M0,4.2 C0,8.5 3.1,13.3 11.2,13.3 C21.6,13.3 32.5,4.8 32.5,-4 C32.5,-9.9 27.5,-13.2 21.3,-13.2 C11.6,-13.2 0,-5 0,4.2"/>
<path class="Note" transform="matrix(1.10551,0,0,1.10551,1913.84,648.991)" d="M0,4.2 C0,8.5 3.1,13.3 11.2,13.3 C21.6,13.3 32.5,4.8 32.5,-4 C32.5,-9.9 27.5,-13.2 21.3,-13.2 C11.6,-13.2 0,-5 0,4.2"/>
<path class="Note" transform="matrix(1.10551,0,0,1.10551,953.993,1673.82)" d="M0,4.2 C0,8.5 3.1,13.3 11.2,13.3 C21.6,13.3 32.5,4.8 32.5,-4 C32.5,-9.9 27.5,-13.2 21.3,-13.2 C11.6,-13.2 0,-5 0,4.2"/>
<path class="Note" transform="matrix(0.773858,0,0,0.773858,881.946,1646.18)" d="M0,4.2 C0,8.5 3.1,13.3 11.2,13.3 C21.6,13.3 32.5,4.8 32.5,-4 C32.5,-9.9 27.5,-13.2 21.3,-13.2 C11.6,-13.2 0,-5 0,4.2"/>
<path class="Note" transform="matrix(1.10551,0,0,1.10551,799.126,1632.36)" d="M0,4.2 C0,8.5 3.1,13.3 11.2,13.3 C21.6,13.3 32.5,4.8 32.5,-4 C32.5,-9.9 27.5,-13.2 21.3,-13.2 C11.6,-13.2 0,-5 0,4.2"/>
<path class="Note" transform="matrix(1.10551,0,0,1.10551,721.693,1632.36)" d="M0,4.2 C0,8.5 3.1,13.3 11.2,13.3 C21.6,13.3 32.5,4.8 32.5,-4 C32.5,-9.9 27.5,-13.2 21.3,-13.2 C11.6,-13.2 0,-5 0,4.2"/>
<path class="Note" transform="matrix(1.10551,0,0,1.10551,2042.43,635.172)" d="M0,4.2 C0,8.5 3.1,13.3 11.2,13.3 C21.6,13.3 32.5,4.8 32.5,-4 C32.5,-9.9 27.5,-13.2 21.3,-13.2 C11.6,-13.2 0,-5 0,4.2"/>
<path class="Note" transform="matrix(1.10551,0,0,1.10551,623.532,1618.54)" d="M0,4.2 C0,8.5 3.1,13.3 11.2,13.3 C21.6,13.3 32.5,4.8 32.5,-4 C32.5,-9.9 27.5,-13.2 21.3,-13.2 C11.6,-13.2 0,-5 0,4.2"/>
<path class="Note" transform="matrix(1.10551,0,0,1.10551,525.372,1604.72)" d="M0,4.2 C0,8.5 3.1,13.3 11.2,13.3 C21.6,13.3 32.5,4.8 32.5,-4 C32.5,-9.9 27.5,-13.2 21.3,-13.2 C11.6,-13.2 0,-5 0,4.2"/>
<path class="Note" transform="matrix(1.10551,0,0,1.10551,378.131,1590.91)" d="M0,4.2 C0,8.5 3.1,13.3 11.2,13.3 C21.6,13.3 32.5,4.8 32.5,-4 C32.5,-9.9 27.5,-13.2 21.3,-13.2 C11.6,-13.2 0,-5 0,4.2"/>
<path class="Note" transform="matrix(1.10551,0,0,1.10551,2171.01,662.81)" d="M0,4.2 C0,8.5 3.1,13.3 11.2,13.3 C21.6,13.3 32.5,4.8 32.5,-4 C32.5,-9.9 27.5,-13.2 21.3,-13.2 C11.6,-13.2 0,-5 0,4.2"/>
<path class="Note" transform="matrix(1.10551,0,0,1.10551,506.715,635.172)" d="M0,4.2 C0,8.5 3.1,13.3 11.2,13.3 C21.6,13.3 32.5,4.8 32.5,-4 C32.5,-9.9 27.5,-13.2 21.3,-13.2 C11.6,-13.2 0,-5 0,4.2"/>
<path class="Note" transform="matrix(1.10551,0,0,1.10551,608.148,621.353)" d="M0,4.2 C0,8.5 3.1,13.3 11.2,13.3 C21.6,13.3 32.5,4.8 32.5,-4 C32.5,-9.9 27.5,-13.2 21.3,-13.2 C11.6,-13.2 0,-5 0,4.2"/>
<path class="Note" transform="matrix(1.10551,0,0,1.10551,709.581,607.534)" d="M0,4.2 C0,8.5 3.1,13.3 11.2,13.3 C21.6,13.3 32.5,4.8 32.5,-4 C32.5,-9.9 27.5,-13.2 21.3,-13.2 C11.6,-13.2 0,-5 0,4.2"/>
<path class="Note" transform="matrix(1.10551,0,0,1.10551,2299.59,648.991)" d="M0,4.2 C0,8.5 3.1,13.3 11.2,13.3 C21.6,13.3 32.5,4.8 32.5,-4 C32.5,-9.9 27.5,-13.2 21.3,-13.2 C11.6,-13.2 0,-5 0,4.2"/>
<path class="Note" transform="matrix(1.10551,0,0,1.10551,2354.66,1660)" d="M0,4.2 C0,8.5 3.1,13.3 11.2,13.3 C21.6,13.3 32.5,4.8 32.5,-4 C32.5,-9.9 27.5,-13.2 21.3,-13.2 C11.6,-13.2 0,-5 0,4.2"/>
<path class="Note" transform="matrix(1.10551,0,0,1.10551,2432.09,1646.18)" d="M0,4.2 C0,8.5 3.1,13.3 11.2,13.3 C21.6,13.3 32.5,4.8 32.5,-4 C32.5,-9.9 27.5,-13.2 21.3,-13.2 C11.6,-13.2 0,-5 0,4.2"/>
<path class="Note" transform="matrix(1.10551,0,0,1.10551,1209.14,635.172)" d="M0,4.2 C0,8.5 3.1,13.3 11.2,13.3 C21.6,13.3 32.5,4.8 32.5,-4 C32.5,-9.9 27.5,-13.2 21.3,-13.2 C11.6,-13.2 0,-5 0,4.2"/>
<path class="Note" transform="matrix(1.10551,0,0,1.10551,2509.53,1632.36)" d="M0,4.2 C0,8.5 3.1,13.3 11.2,13.3 C21.6,13.3 32.5,4.8 32.5,-4 C32.5,-9.9 27.5,-13.2 21.3,-13.2 C11.6,-13.2 0,-5 0,4.2"/>
<path class="Note" transform="matrix(1.10551,0,0,1.10551,2428.18,648.991)" d="M0,4.2 C0,8.5 3.1,13.3 11.2,13.3 C21.6,13.3 32.5,4.8 32.5,-4 C32.5,-9.9 27.5,-13.2 21.3,-13.2 C11.6,-13.2 0,-5 0,4.2"/>
<path class="Note" transform="matrix(1.10551,0,0,1.10551,2586.96,1660)" d="M0,4.2 C0,8.5 3.1,13.3 11.2,13.3 C21.6,13.3 32.5,4.8 32.5,-4 C32.5,-9.9 27.5,-13.2 21.3,-13.2 C11.6,-13.2 0,-5 0,4.2"/>
<path class="Note" transform="matrix(1.10551,0,0,1.10551,877.686,607.534)" d="M0,4.2 C0,8.5 3.1,13.3 11.2,13.3 C21.6,13.3 32.5,4.8 32.5,-4 C32.5,-9.9 27.5,-13.2 21.3,-13.2 C11.6,-13.2 0,-5 0,4.2"/>
<path class="Note" transform="matrix(1.10551,0,0,1.10551,1006.27,593.715)" d="M0,4.2 C0,8.5 3.1,13.3 11.2,13.3 C21.6,13.3 32.5,4.8 32.5,-4 C32.5,-9.9 27.5,-13.2 21.3,-13.2 C11.6,-13.2 0,-5 0,4.2"/>
<path class="Note" transform="matrix(1.10551,0,0,1.10551,1141.51,621.353)" d="M0,4.2 C0,8.5 3.1,13.3 11.2,13.3 C21.6,13.3 32.5,4.8 32.5,-4 C32.5,-9.9 27.5,-13.2 21.3,-13.2 C11.6,-13.2 0,-5 0,4.2"/>
<path class="Note" transform="matrix(1.10551,0,0,1.10551,2631.04,607.534)" d="M0,4.2 C0,8.5 3.1,13.3 11.2,13.3 C21.6,13.3 32.5,4.8 32.5,-4 C32.5,-9.9 27.5,-13.2 21.3,-13.2 C11.6,-13.2 0,-5 0,4.2"/>
<path class="Note" transform="matrix(1.10551,0,0,1.10551,506.715,925.369)" d="M0,4.2 C0,8.5 3.1,13.3 11.2,13.3 C21.6,13.3 32.5,4.8 32.5,-4 C32.5,-9.9 27.5,-13.2 21.3,-13.2 C11.6,-13.2 0,-5 0,4.2"/>
<path class="Note" transform="matrix(1.10551,0,0,1.10551,1209.14,939.188)" d="M0,4.2 C0,8.5 3.1,13.3 11.2,13.3 C21.6,13.3 32.5,4.8 32.5,-4 C32.5,-9.9 27.5,-13.2 21.3,-13.2 C11.6,-13.2 0,-5 0,4.2"/>
<path class="Note" transform="matrix(1.10551,0,0,1.10551,2529.61,925.369)" d="M0,4.2 C0,8.5 3.1,13.3 11.2,13.3 C21.6,13.3 32.5,4.8 32.5,-4 C32.5,-9.9 27.5,-13.2 21.3,-13.2 C11.6,-13.2 0,-5 0,4.2"/>
<path class="Note" transform="matrix(1.10551,0,0,1.10551,2631.04,953.007)" d="M0,4.2 C0,8.5 3.1,13.3 11.2,13.3 C21.6,13.3 32.5,4.8 32.5,-4 C32.5,-9.9 27.5,-13.2 21.3,-13.2 C11.6,-13.2 0,-5 0,4.2"/>
<path class="Note" transform="matrix(1.10551,0,0,1.10551,2122.36,1977.83)" d="M0,4.2 C0,8.5 3.1,13.3 11.2,13.3 C21.6,13.3 32.5,4.8 32.5,-4 C32.5,-9.9 27.5,-13.2 21.3,-13.2 C11.6,-13.2 0,-5 0,4.2"/>
<path class="Note" transform="matrix(1.10551,0,0,1.10551,2277.23,2005.47)" d="M0,4.2 C0,8.5 3.1,13.3 11.2,13.3 C21.6,13.3 32.5,4.8 32.5,-4 C32.5,-9.9 27.5,-13.2 21.3,-13.2 C11.6,-13.2 0,-5 0,4.2"/>
<path class="Note" transform="matrix(1.10551,0,0,1.10551,1563.16,994.464)" d="M0,4.2 C0,8.5 3.1,13.3 11.2,13.3 C21.6,13.3 32.5,4.8 32.5,-4 C32.5,-9.9 27.5,-13.2 21.3,-13.2 C11.6,-13.2 0,-5 0,4.2"/>
<path class="Note" transform="matrix(1.10551,0,0,1.10551,1006.27,953.007)" d="M0,4.2 C0,8.5 3.1,13.3 11.2,13.3 C21.6,13.3 32.5,4.8 32.5,-4 C32.5,-9.9 27.5,-13.2 21.3,-13.2 C11.6,-13.2 0,-5 0,4.2"/>
<path class="Note" transform="matrix(1.10551,0,0,1.10551,1276.76,939.188)" d="M0,4.2 C0,8.5 3.1,13.3 11.2,13.3 C21.6,13.3 32.5,4.8 32.5,-4 C32.5,-9.9 27.5,-13.2 21.3,-13.2 C11.6,-13.2 0,-5 0,4.2"/>
<path class="Note" transform="matrix(1.10551,0,0,1.10551,1975.12,1950.2)" d="M0,4.2 C0,8.5 3.1,13.3 11.2,13.3 C21.6,13.3 32.5,4.8 32.5,-4 C32.5,-9.9 27.5,-13.2 21.3,-13.2 C11.6,-13.2 0,-5 0,4.2"/>
<path class="Note" transform="matrix(1.10551,0,0,1.10551,953.993,1922.56)" d="M0,4.2 C0,8.5 3.1,13.3 11.2,13.3 C21.6,13.3 32.5,4.8 32.5,-4 C32.5,-9.9 27.5,-13.2 21.3,-13.2 C11.6,-13.2 0,-5 0,4.2"/>
<path class="Note" transform="matrix(0.773858,0,0,0.773858,1349.77,953.007)" d="M0,4.2 C0,8.5 3.1,13.3 11.2,13.3 C21.6,13.3 32.5,4.8 32.5,-4 C32.5,-9.9 27.5,-13.2 21.3,-13.2 C11.6,-13.2 0,-5 0,4.2"/>
<path class="Note" transform="matrix(1.10551,0,0,1.10551,1745.74,980.645)" d="M0,4.2 C0,8.5 3.1,13.3 11.2,13.3 C21.6,13.3 32.5,4.8 32.5,-4 C32.5,-9.9 27.5,-13.2 21.3,-13.2 C11.6,-13.2 0,-5 0,4.2"/>
<path class="Note" transform="matrix(1.10551,0,0,1.10551,1150.31,1950.2)" d="M0,4.2 C0,8.5 3.1,13.3 11.2,13.3 C21.6,13.3 32.5,4.8 32.5,-4 C32.5,-9.9 27.5,-13.2 21.3,-13.2 C11.6,-13.2 0,-5 0,4.2"/>
<path class="Note" transform="matrix(1.10551,0,0,1.10551,877.686,966.826)" d="M0,4.2 C0,8.5 3.1,13.3 11.2,13.3 C21.6,13.3 32.5,4.8 32.5,-4 C32.5,-9.9 27.5,-13.2 21.3,-13.2 C11.6,-13.2 0,-5 0,4.2"/>
<path class="Note" transform="matrix(1.10551,0,0,1.10551,876.56,1908.74)" d="M0,4.2 C0,8.5 3.1,13.3 11.2,13.3 C21.6,13.3 32.5,4.8 32.5,-4 C32.5,-9.9 27.5,-13.2 21.3,-13.2 C11.6,-13.2 0,-5 0,4.2"/>
<path class="Note" transform="matrix(1.10551,0,0,1.10551,1876.96,1936.38)" d="M0,4.2 C0,8.5 3.1,13.3 11.2,13.3 C21.6,13.3 32.5,4.8 32.5,-4 C32.5,-9.9 27.5,-13.2 21.3,-13.2 C11.6,-13.2 0,-5 0,4.2"/>
<path class="Note" transform="matrix(1.10551,0,0,1.10551,1778.8,1950.2)" d="M0,4.2 C0,8.5 3.1,13.3 11.2,13.3 C21.6,13.3 32.5,4.8 32.5,-4 C32.5,-9.9 27.5,-13.2 21.3,-13.2 C11.6,-13.2 0,-5 0,4.2"/>
<path class="Note" transform="matrix(1.10551,0,0,1.10551,1913.84,994.464)" d="M0,4.2 C0,8.5 3.1,13.3 11.2,13.3 C21.6,13.3 32.5,4.8 32.5,-4 C32.5,-9.9 27.5,-13.2 21.3,-13.2 C11.6,-13.2 0,-5 0,4.2"/>
<path class="Note" transform="matrix(1.10551,0,0,1.10551,2586.96,2005.47)" d="M0,4.2 C0,8.5 3.1,13.3 11.2,13.3 C21.6,13.3 32.5,4.8 32.5,-4 C32.5,-9.9 27.5,-13.2 21.3,-13.2 C11.6,-13.2 0,-5 0,4.2"/>
<path class="Note" transform="matrix(1.10551,0,0,1.10551,2428.18,939.188)" d="M0,4.2 C0,8.5 3.1,13.3 11.2,13.3 C21.6,13.3 32.5,4.8 32.5,-4 C32.5,-9.9 27.5,-13.2 21.3,-13.2 C11.6,-13.2 0,-5 0,4.2"/>
<path class="Note" transform="matrix(1.10551,0,0,1.10551,799.126,1922.56)" d="M0,4.2 C0,8.5 3.1,13.3 11.2,13.3 C21.6,13.3 32.5,4.8 32.5,-4 C32.5,-9.9 27.5,-13.2 21.3,-13.2 C11.6,-13.2 0,-5 0,4.2"/>
<path class="Note" transform="matrix(1.10551,0,0,1.10551,1631.56,1964.02)" d="M0,4.2 C0,8.5 3.1,13.3 11.2,13.3 C21.6,13.3 32.5,4.8 32.5,-4 C32.5,-9.9 27.5,-13.2 21.3,-13.2 C11.6,-13.2 0,-5 0,4.2"/>
<path class="Note" transform="matrix(1.10551,0,0,1.10551,1477.44,980.645)" d="M0,4.2 C0,8.5 3.1,13.3 11.2,13.3 C21.6,13.3 32.5,4.8 32.5,-4 C32.5,-9.9 27.5,-13.2 21.3,-13.2 C11.6,-13.2 0,-5 0,4.2"/>
<path class="Note" transform="matrix(1.10551,0,0,1.10551,1391.71,966.826)" d="M0,4.2 C0,8.5 3.1,13.3 11.2,13.3 C21.6,13.3 32.5,4.8 32.5,-4 C32.5,-9.9 27.5,-13.2 21.3,-13.2 C11.6,-13.2 0,-5 0,4.2"/>
<path class="Note" transform="matrix(1.10551,0,0,1.10551,2354.66,2019.29)" d="M0,4.2 C0,8.5 3.1,13.3 11.2,13.3 C21.6,13.3 32.5,4.8 32.5,-4 C32.5,-9.9 27.5,-13.2 21.3,-13.2 C11.6,-13.2 0,-5 0,4.2"/>
<path class="Note" transform="matrix(1.10551,0,0,1.10551,709.581,953.007)" d="M0,4.2 C0,8.5 3.1,13.3 11.2,13.3 C21.6,13.3 32.5,4.8 32.5,-4 C32.5,-9.9 27.5,-13.2 21.3,-13.2 C11.6,-13.2 0,-5 0,4.2"/>
<path class="Note" transform="matrix(1.10551,0,0,1.10551,1297.55,1964.02)" d="M0,4.2 C0,8.5 3.1,13.3 11.2,13.3 C21.6,13.3 32.5,4.8 32.5,-4 C32.5,-9.9 27.5,-13.2 21.3,-13.2 C11.6,-13.2 0,-5 0,4.2"/>
<path class="Note" transform="matrix(1.10551,0,0,1.10551,2299.59,939.188)" d="M0,4.2 C0,8.5 3.1,13.3 11.2,13.3 C21.6,13.3 32.5,4.8 32.5,-4 C32.5,-9.9 27.5,-13.2 21.3,-13.2 C11.6,-13.2 0,-5 0,4.2"/>
<path class="Note" transform="matrix(1.10551,0,0,1.10551,721.693,1922.56)" d="M0,4.2 C0,8.5 3.1,13.3 11.2,13.3 C21.6,13.3 32.5,4.8 32.5,-4 C32.5,-9.9 27.5,-13.2 21.3,-13.2 C11.6,-13.2 0,-5 0,4.2"/>
<path class="Note" transform="matrix(1.10551,0,0,1.10551,608.148,939.188)" d="M0,4.2 C0,8.5 3.1,13.3 11.2,13.3 C21.6,13.3 32.5,4.8 32.5,-4 C32.5,-9.9 27.5,-13.2 21.3,-13.2 C11.6,-13.2 0,-5 0,4.2"/>
<path class="Note" transform="matrix(1.10551,0,0,1.10551,2042.43,980.645)" d="M0,4.2 C0,8.5 3.1,13.3 11.2,13.3 C21.6,13.3 32.5,4.8 32.5,-4 C32.5,-9.9 27.5,-13.2 21.3,-13.2 C11.6,-13.2 0,-5 0,4.2"/>
<path class="Note" transform="matrix(1.10551,0,0,1.10551,2199.79,1991.65)" d="M0,4.2 C0,8.5 3.1,13.3 11.2,13.3 C21.6,13.3 32.5,4.8 32.5,-4 C32.5,-9.9 27.5,-13.2 21.3,-13.2 C11.6,-13.2 0,-5 0,4.2"/>
<path class="Note" transform="matrix(1.10551,0,0,1.10551,1444.79,1977.83)" d="M0,4.2 C0,8.5 3.1,13.3 11.2,13.3 C21.6,13.3 32.5,4.8 32.5,-4 C32.5,-9.9 27.5,-13.2 21.3,-13.2 C11.6,-13.2 0,-5 0,4.2"/>
<path class="Note" transform="matrix(1.10551,0,0,1.10551,2171.01,953.007)" d="M0,4.2 C0,8.5 3.1,13.3 11.2,13.3 C21.6,13.3 32.5,4.8 32.5,-4 C32.5,-9.9 27.5,-13.2 21.3,-13.2 C11.6,-13.2 0,-5 0,4.2"/>
<path class="Note" transform="matrix(1.10551,0,0,1.10551,525.372,1950.2)" d="M0,4.2 C0,8.5 3.1,13.3 11.2,13.3 C21.6,13.3 32.5,4.8 32.5,-4 C32.5,-9.9 27.5,-13.2 21.3,-13.2 C11.6,-13.2 0,-5 0,4.2"/>
<path class="Note" transform="matrix(1.10551,0,0,1.10551,378.131,1977.83)" d="M0,4.2 C0,8.5 3.1,13.3 11.2,13.3 C21.6,13.3 32.5,4.8 32.5,-4 C32.5,-9.9 27.5,-13.2 21.3,-13.2 C11.6,-13.2 0,-5 0,4.2"/>
<path class="Note" transform="matrix(1.10551,0,0,1.10551,378.131,939.188)" d="M0,4.2 C0,8.5 3.1,13.3 11.2,13.3 C21.6,13.3 32.5,4.8 32.5,-4 C32.5,-9.9 27.5,-13.2 21.3,-13.2 C11.6,-13.2 0,-5 0,4.2"/>
<path class="Clef" transform="matrix(1.10551,0,0,1.10551,238.302,358.794)" d="M36.2,21.2 C21.9,21.2 9.7,11.2 9.7,-3.9 C9.7,-16.1 18.3,-27 27.1,-34.7 C28.8,-36.1 30.4,-37.5 31.9,-39 C32.8,-33.6 33.5,-29 34.2,-24.8 C25.1,-22.2 18.9,-12.5 18.9,-3.2 C18.9,3.9 24.4,13.5 32.4,13.5 C33.2,13.5 34.1,13.1 34.1,12.1 C34.1,11.3 33.2,10.7 31.9,9.9 C28,7.6 25.8,4.9 25.8,0.1 C25.8,-6 30.4,-10.9 36.2,-12.3 L42,20.5 C40,20.9 38.2,21.2 36.2,21.2 M33.2,-82.2 C34.2,-86.2 38.7,-96.7 43.9,-96.7 C45.4,-96.7 47.9,-91.9 47.9,-84.9 C47.9,-74.6 40.1,-66.8 33.2,-59.9 C32.6,-63.9 32.1,-67.9 32.1,-72 C32.1,-75.8 32.5,-79.1 33.2,-82.2 M46.2,19.3 C44.1,7.4 41.4,-8.5 40.7,-12.9 C50.8,-12.9 55.1,-5.9 56,-1.1 C56.1,-0.3 56.3,0.8 56.3,2 C56.3,9.2 53.3,16.4 46.2,19.3 M32.3,87.7 C30.1,87.7 28.6,86.3 28.6,84.2 C28.6,82.2 29.5,80.6 31.2,79.6 C31.6,79.8 31.7,79.8 32,80 C33.2,80.6 33.2,80.6 33.4,80.8 C35.3,81.9 36.1,82.9 36.1,84.3 C36.1,86.2 34.5,87.7 32.3,87.7 M36.1,75.7 C34.6,74.9 34.2,74.7 33.9,74.5 L33.7,74.4 C32.2,73.5 31.7,72.8 31.7,71.6 C31.7,69.8 33.1,68.5 35.1,68.5 C37,68.5 38.2,69.7 38.2,71.8 C38.2,73.4 37.6,74.5 36.1,75.7 M64,-0.2 C64,-15.3 53.3,-25.5 38.7,-25.5 C37.7,-31.5 36.8,-37.4 35.9,-43 C46.4,-54.1 53.8,-66.7 53.8,-82.5 C53.8,-91.6 51,-99 49.3,-102.6 C46.9,-107.7 44,-111.2 42.3,-111.2 C41.6,-111.2 38.4,-110 35.2,-106.1 C28.7,-98.5 26.9,-85.8 26.9,-77.4 C26.9,-72 27.4,-67.1 29.1,-55.8 C29,-55.8 23.8,-50.5 21.7,-48.7 C12.6,-40.3 0,-28.1 0,-8.2 C0,10.6 16.3,25.3 34.9,25.3 C37.8,25.3 40.5,25 42.9,24.6 C44.7,34.1 45.9,41.2 45.9,46.5 C45.9,56.9 40.5,62.4 30.4,62.4 C28,62.4 25.9,61.9 25.7,61.8 C25.6,61.8 25.4,61.7 25.4,61.6 C25.4,61.4 25.6,61.3 25.9,61.2 C30.6,60.5 35.3,56.4 35.3,50.1 C35.3,44.7 31.2,39 23.7,39 C16.7,39 12.3,44.7 12.3,51.3 C12.3,57.9 17.3,66.6 30.8,66.6 C43.7,66.6 50,59.3 50,46.5 C50,42.6 49.4,38.1 48.4,32.4 C48.1,30.4 47.6,27.3 46.9,23.5 C56.7,20.2 64,10.1 64,-0.2 M42.3,71.7 C42.3,68 38.9,66.4 35.6,66.4 C31.4,66.4 27.3,69 27.3,73.5 C27.3,75.4 28,76.8 29.4,78.2 C26.8,79.2 24.2,81.2 24.2,84.3 C24.2,87.6 27.2,89.8 31.6,89.8 C37,89.8 40.8,86.8 40.8,82.5 C40.8,80.2 39.8,78.3 38,77 C40.9,75.7 42.3,74.1 42.3,71.7"/>
<path class="Clef" transform="matrix(1.10551,0,0,1.10551,238.302,1383.62)" d="M36.2,21.2 C21.9,21.2 9.7,11.2 9.7,-3.9 C9.7,-16.1 18.3,-27 27.1,-34.7 C28.8,-36.1 30.4,-37.5 31.9,-39 C32.8,-33.6 33.5,-29 34.2,-24.8 C25.1,-22.2 18.9,-12.5 18.9,-3.2 C18.9,3.9 24.4,13.5 32.4,13.5 C33.2,13.5 34.1,13.1 34.1,12.1 C34.1,11.3 33.2,10.7 31.9,9.9 C28,7.6 25.8,4.9 25.8,0.1 C25.8,-6 30.4,-10.9 36.2,-12.3 L42,20.5 C40,20.9 38.2,21.2 36.2,21.2 M33.2,-82.2 C34.2,-86.2 38.7,-96.7 43.9,-96.7 C45.4,-96.7 47.9,-91.9 47.9,-84.9 C47.9,-74.6 40.1,-66.8 33.2,-59.9 C32.6,-63.9 32.1,-67.9 32.1,-72 C32.1,-75.8 32.5,-79.1 33.2,-82.2 M46.2,19.3 C44.1,7.4 41.4,-8.5 40.7,-12.9 C50.8,-12.9 55.1,-5.9 56,-1.1 C56.1,-0.3 56.3,0.8 56.3,2 C56.3,9.2 53.3,16.4 46.2,19.3 M32.3,87.7 C30.1,87.7 28.6,86.3 28.6,84.2 C28.6,82.2 29.5,80.6 31.2,79.6 C31.6,79.8 31.7,79.8 32,80 C33.2,80.6 33.2,80.6 33.4,80.8 C35.3,81.9 36.1,82.9 36.1,84.3 C36.1,86.2 34.5,87.7 32.3,87.7 M36.1,75.7 C34.6,74.9 34.2,74.7 33.9,74.5 L33.7,74.4 C32.2,73.5 31.7,72.8 31.7,71.6 C31.7,69.8 33.1,68.5 35.1,68.5 C37,68.5 38.2,69.7 38.2,71.8 C38.2,73.4 37.6,74.5 36.1,75.7 M64,-0.2 C64,-15.3 53.3,-25.5 38.7,-25.5 C37.7,-31.5 36.8,-37.4 35.9,-43 C46.4,-54.1 53.8,-66.7 53.8,-82.5 C53.8,-91.6 51,-99 49.3,-102.6 C46.9,-107.7 44,-111.2 42.3,-111.2 C41.6,-111.2 38.4,-110 35.2,-106.1 C28.7,-98.5 26.9,-85.8 26.9,-77.4 C26.9,-72 27.4,-67.1 29.1,-55.8 C29,-55.8 23.8,-50.5 21.7,-48.7 C12.6,-40.3 0,-28.1 0,-8.2 C0,10.6 16.3,25.3 34.9,25.3 C37.8,25.3 40.5,25 42.9,24.6 C44.7,34.1 45.9,41.2 45.9,46.5 C45.9,56.9 40.5,62.4 30.4,62.4 C28,62.4 25.9,61.9 25.7,61.8 C25.6,61.8 25.4,61.7 25.4,61.6 C25.4,61.4 25.6,61.3 25.9,61.2 C30.6,60.5 35.3,56.4 35.3,50.1 C35.3,44.7 31.2,39 23.7,39 C16.7,39 12.3,44.7 12.3,51.3 C12.3,57.9 17.3,66.6 30.8,66.6 C43.7,66.6 50,59.3 50,46.5 C50,42.6 49.4,38.1 48.4,32.4 C48.1,30.4 47.6,27.3 46.9,23.5 C56.7,20.2 64,10.1 64,-0.2 M42.3,71.7 C42.3,68 38.9,66.4 35.6,66.4 C31.4,66.4 27.3,69 27.3,73.5 C27.3,75.4 28,76.8 29.4,78.2 C26.8,79.2 24.2,81.2 24.2,84.3 C24.2,87.6 27.2,89.8 31.6,89.8 C37,89.8 40.8,86.8 40.8,82.5 C40.8,80.2 39.8,78.3 38,77 C40.9,75.7 42.3,74.1 42.3,71.7"/>
<path class="Clef" transform="matrix(1.10551,0,0,1.10551,238.302,1673.82)" d="M36.2,21.2 C21.9,21.2 9.7,11.2 9.7,-3.9 C9.7,-16.1 18.3,-27 27.1,-34.7 C28.8,-36.1 30.4,-37.5 31.9,-39 C32.8,-33.6 33.5,-29 34.2,-24.8 C25.1,-22.2 18.9,-12.5 18.9,-3.2 C18.9,3.9 24.4,13.5 32.4,13.5 C33.2,13.5 34.1,13.1 34.1,12.1 C34.1,11.3 33.2,10.7 31.9,9.9 C28,7.6 25.8,4.9 25.8,0.1 C25.8,-6 30.4,-10.9 36.2,-12.3 L42,20.5 C40,20.9 38.2,21.2 36.2,21.2 M33.2,-82.2 C34.2,-86.2 38.7,-96.7 43.9,-96.7 C45.4,-96.7 47.9,-91.9 47.9,-84.9 C47.9,-74.6 40.1,-66.8 33.2,-59.9 C32.6,-63.9 32.1,-67.9 32.1,-72 C32.1,-75.8 32.5,-79.1 33.2,-82.2 M46.2,19.3 C44.1,7.4 41.4,-8.5 40.7,-12.9 C50.8,-12.9 55.1,-5.9 56,-1.1 C56.1,-0.3 56.3,0.8 56.3,2 C56.3,9.2 53.3,16.4 46.2,19.3 M32.3,87.7 C30.1,87.7 28.6,86.3 28.6,84.2 C28.6,82.2 29.5,80.6 31.2,79.6 C31.6,79.8 31.7,79.8 32,80 C33.2,80.6 33.2,80.6 33.4,80.8 C35.3,81.9 36.1,82.9 36.1,84.3 C36.1,86.2 34.5,87.7 32.3,87.7 M36.1,75.7 C34.6,74.9 34.2,74.7 33.9,74.5 L33.7,74.4 C32.2,73.5 31.7,72.8 31.7,71.6 C31.7,69.8 33.1,68.5 35.1,68.5 C37,68.5 38.2,69.7 38.2,71.8 C38.2,73.4 37.6,74.5 36.1,75.7 M64,-0.2 C64,-15.3 53.3,-25.5 38.7,-25.5 C37.7,-31.5 36.8,-37.4 35.9,-43 C46.4,-54.1 53.8,-66.7 53.8,-82.5 C53.8,-91.6 51,-99 49.3,-102.6 C46.9,-107.7 44,-111.2 42.3,-111.2 C41.6,-111.2 38.4,-110 35.2,-106.1 C28.7,-98.5 26.9,-85.8 26.9,-77.4 C26.9,-72 27.4,-67.1 29.1,-55.8 C29,-55.8 23.8,-50.5 21.7,-48.7 C12.6,-40.3 0,-28.1 0,-8.2 C0,10.6 16.3,25.3 34.9,25.3 C37.8,25.3 40.5,25 42.9,24.6 C44.7,34.1 45.9,41.2 45.9,46.5 C45.9,56.9 40.5,62.4 30.4,62.4 C28,62.4 25.9,61.9 25.7,61.8 C25.6,61.8 25.4,61.7 25.4,61.6 C25.4,61.4 25.6,61.3 25.9,61.2 C30.6,60.5 35.3,56.4 35.3,50.1 C35.3,44.7 31.2,39 23.7,39 C16.7,39 12.3,44.7 12.3,51.3 C12.3,57.9 17.3,66.6 30.8,66.6 C43.7,66.6 50,59.3 50,46.5 C50,42.6 49.4,38.1 48.4,32.4 C48.1,30.4 47.6,27.3 46.9,23.5 C56.7,20.2 64,10.1 64,-0.2 M42.3,71.7 C42.3,68 38.9,66.4 35.6,66.4 C31.4,66.4 27.3,69 27.3,73.5 C27.3,75.4 28,76.8 29.4,78.2 C26.8,79.2 24.2,81.2 24.2,84.3 C24.2,87.6 27.2,89.8 31.6,89.8 C37,89.8 40.8,86.8 40.8,82.5 C40.8,80.2 39.8,78.3 38,77 C40.9,75.7 42.3,74.1 42.3,71.7"/>
<path class="Clef" transform="matrix(1.10551,0,0,1.10551,238.302,648.991)" d="M36.2,21.2 C21.9,21.2 9.7,11.2 9.7,-3.9 C9.7,-16.1 18.3,-27 27.1,-34.7 C28.8,-36.1 30.4,-37.5 31.9,-39 C32.8,-33.6 33.5,-29 34.2,-24.8 C25.1,-22.2 18.9,-12.5 18.9,-3.2 C18.9,3.9 24.4,13.5 32.4,13.5 C33.2,13.5 34.1,13.1 34.1,12.1 C34.1,11.3 33.2,10.7 31.9,9.9 C28,7.6 25.8,4.9 25.8,0.1 C25.8,-6 30.4,-10.9 36.2,-12.3 L42,20.5 C40,20.9 38.2,21.2 36.2,21.2 M33.2,-82.2 C34.2,-86.2 38.7,-96.7 43.9,-96.7 C45.4,-96.7 47.9,-91.9 47.9,-84.9 C47.9,-74.6 40.1,-66.8 33.2,-59.9 C32.6,-63.9 32.1,-67.9 32.1,-72 C32.1,-75.8 32.5,-79.1 33.2,-82.2 M46.2,19.3 C44.1,7.4 41.4,-8.5 40.7,-12.9 C50.8,-12.9 55.1,-5.9 56,-1.1 C56.1,-0.3 56.3,0.8 56.3,2 C56.3,9.2 53.3,16.4 46.2,19.3 M32.3,87.7 C30.1,87.7 28.6,86.3 28.6,84.2 C28.6,82.2 29.5,80.6 31.2,79.6 C31.6,79.8 31.7,79.8 32,80 C33.2,80.6 33.2,80.6 33.4,80.8 C35.3,81.9 36.1,82.9 36.1,84.3 C36.1,86.2 34.5,87.7 32.3,87.7 M36.1,75.7 C34.6,74.9 34.2,74.7 33.9,74.5 L33.7,74.4 C32.2,73.5 31.7,72.8 31.7,71.6 C31.7,69.8 33.1,68.5 35.1,68.5 C37,68.5 38.2,69.7 38.2,71.8 C38.2,73.4 37.6,74.5 36.1,75.7 M64,-0.2 C64,-15.3 53.3,-25.5 38.7,-25.5 C37.7,-31.5 36.8,-37.4 35.9,-43 C46.4,-54.1 53.8,-66.7 53.8,-82.5 C53.8,-91.6 51,-99 49.3,-102.6 C46.9,-107.7 44,-111.2 42.3,-111.2 C41.6,-111.2 38.4,-110 35.2,-106.1 C28.7,-98.5 26.9,-85.8 26.9,-77.4 C26.9,-72 27.4,-67.1 29.1,-55.8 C29,-55.8 23.8,-50.5 21.7,-48.7 C12.6,-40.3 0,-28.1 0,-8.2 C0,10.6 16.3,25.3 34.9,25.3 C37.8,25.3 40.5,25 42.9,24.6 C44.7,34.1 45.9,41.2 45.9,46.5 C45.9,56.9 40.5,62.4 30.4,62.4 C28,62.4 25.9,61.9 25.7,61.8 C25.6,61.8 25.4,61.7 25.4,61.6 C25.4,61.4 25.6,61.3 25.9,61.2 C30.6,60.5 35.3,56.4 35.3,50.1 C35.3,44.7 31.2,39 23.7,39 C16.7,39 12.3,44.7 12.3,51.3 C12.3,57.9 17.3,66.6 30.8,66.6 C43.7,66.6 50,59.3 50,46.5 C50,42.6 49.4,38.1 48.4,32.4 C48.1,30.4 47.6,27.3 46.9,23.5 C56.7,20.2 64,10.1 64,-0.2 M42.3,71.7 C42.3,68 38.9,66.4 35.6,66.4 C31.4,66.4 27.3,69 27.3,73.5 C27.3,75.4 28,76.8 29.4,78.2 C26.8,79.2 24.2,81.2 24.2,84.3 C24.2,87.6 27.2,89.8 31.6,89.8 C37,89.8 40.8,86.8 40.8,82.5 C40.8,80.2 39.8,78.3 38,77 C40.9,75.7 42.3,74.1 42.3,71.7"/>
<path class="Clef" transform="matrix(1.10551,0,0,1.10551,238.302,1964.02)" d="M36.2,21.2 C21.9,21.2 9.7,11.2 9.7,-3.9 C9.7,-16.1 18.3,-27 27.1,-34.7 C28.8,-36.1 30.4,-37.5 31.9,-39 C32.8,-33.6 33.5,-29 34.2,-24.8 C25.1,-22.2 18.9,-12.5 18.9,-3.2 C18.9,3.9 24.4,13.5 32.4,13.5 C33.2,13.5 34.1,13.1 34.1,12.1 C34.1,11.3 33.2,10.7 31.9,9.9 C28,7.6 25.8,4.9 25.8,0.1 C25.8,-6 30.4,-10.9 36.2,-12.3 L42,20.5 C40,20.9 38.2,21.2 36.2,21.2 M33.2,-82.2 C34.2,-86.2 38.7,-96.7 43.9,-96.7 C45.4,-96.7 47.9,-91.9 47.9,-84.9 C47.9,-74.6 40.1,-66.8 33.2,-59.9 C32.6,-63.9 32.1,-67.9 32.1,-72 C32.1,-75.8 32.5,-79.1 33.2,-82.2 M46.2,19.3 C44.1,7.4 41.4,-8.5 40.7,-12.9 C50.8,-12.9 55.1,-5.9 56,-1.1 C56.1,-0.3 56.3,0.8 56.3,2 C56.3,9.2 53.3,16.4 46.2,19.3 M32.3,87.7 C30.1,87.7 28.6,86.3 28.6,84.2 C28.6,82.2 29.5,80.6 31.2,79.6 C31.6,79.8 31.7,79.8 32,80 C33.2,80.6 33.2,80.6 33.4,80.8 C35.3,81.9 36.1,82.9 36.1,84.3 C36.1,86.2 34.5,87.7 32.3,87.7 M36.1,75.7 C34.6,74.9 34.2,74.7 33.9,74.5 L33.7,74.4 C32.2,73.5 31.7,72.8 31.7,71.6 C31.7,69.8 33.1,68.5 35.1,68.5 C37,68.5 38.2,69.7 38.2,71.8 C38.2,73.4 37.6,74.5 36.1,75.7 M64,-0.2 C64,-15.3 53.3,-25.5 38.7,-25.5 C37.7,-31.5 36.8,-37.4 35.9,-43 C46.4,-54.1 53.8,-66.7 53.8,-82.5 C53.8,-91.6 51,-99 49.3,-102.6 C46.9,-107.7 44,-111.2 42.3,-111.2 C41.6,-111.2 38.4,-110 35.2,-106.1 C28.7,-98.5 26.9,-85.8 26.9,-77.4 C26.9,-72 27.4,-67.1 29.1,-55.8 C29,-55.8 23.8,-50.5 21.7,-48.7 C12.6,-40.3 0,-28.1 0,-8.2 C0,10.6 16.3,25.3 34.9,25.3 C37.8,25.3 40.5,25 42.9,24.6 C44.7,34.1 45.9,41.2 45.9,46.5 C45.9,56.9 40.5,62.4 30.4,62.4 C28,62.4 25.9,61.9 25.7,61.8 C25.6,61.8 25.4,61.7 25.4,61.6 C25.4,61.4 25.6,61.3 25.9,61.2 C30.6,60.5 35.3,56.4 35.3,50.1 C35.3,44.7 31.2,39 23.7,39 C16.7,39 12.3,44.7 12.3,51.3 C12.3,57.9 17.3,66.6 30.8,66.6 C43.7,66.6 50,59.3 50,46.5 C50,42.6 49.4,38.1 48.4,32.4 C48.1,30.4 47.6,27.3 46.9,23.5 C56.7,20.2 64,10.1 64,-0.2 M42.3,71.7 C42.3,68 38.9,66.4 35.6,66.4 C31.4,66.4 27.3,69 27.3,73.5 C27.3,75.4 28,76.8 29.4,78.2 C26.8,79.2 24.2,81.2 24.2,84.3 C24.2,87.6 27.2,89.8 31.6,89.8 C37,89.8 40.8,86.8 40.8,82.5 C40.8,80.2 39.8,78.3 38,77 C40.9,75.7 42.3,74.1 42.3,71.7"/>
<path class="Clef" transform="matrix(1.10551,0,0,1.10551,238.302,939.188)" d="M36.2,21.2 C21.9,21.2 9.7,11.2 9.7,-3.9 C9.7,-16.1 18.3,-27 27.1,-34.7 C28.8,-36.1 30.4,-37.5 31.9,-39 C32.8,-33.6 33.5,-29 34.2,-24.8 C25.1,-22.2 18.9,-12.5 18.9,-3.2 C18.9,3.9 24.4,13.5 32.4,13.5 C33.2,13.5 34.1,13.1 34.1,12.1 C34.1,11.3 33.2,10.7 31.9,9.9 C28,7.6 25.8,4.9 25.8,0.1 C25.8,-6 30.4,-10.9 36.2,-12.3 L42,20.5 C40,20.9 38.2,21.2 36.2,21.2 M33.2,-82.2 C34.2,-86.2 38.7,-96.7 43.9,-96.7 C45.4,-96.7 47.9,-91.9 47.9,-84.9 C47.9,-74.6 40.1,-66.8 33.2,-59.9 C32.6,-63.9 32.1,-67.9 32.1,-72 C32.1,-75.8 32.5,-79.1 33.2,-82.2 M46.2,19.3 C44.1,7.4 41.4,-8.5 40.7,-12.9 C50.8,-12.9 55.1,-5.9 56,-1.1 C56.1,-0.3 56.3,0.8 56.3,2 C56.3,9.2 53.3,16.4 46.2,19.3 M32.3,87.7 C30.1,87.7 28.6,86.3 28.6,84.2 C28.6,82.2 29.5,80.6 31.2,79.6 C31.6,79.8 31.7,79.8 32,80 C33.2,80.6 33.2,80.6 33.4,80.8 C35.3,81.9 36.1,82.9 36.1,84.3 C36.1,86.2 34.5,87.7 32.3,87.7 M36.1,75.7 C34.6,74.9 34.2,74.7 33.9,74.5 L33.7,74.4 C32.2,73.5 31.7,72.8 31.7,71.6 C31.7,69.8 33.1,68.5 35.1,68.5 C37,68.5 38.2,69.7 38.2,71.8 C38.2,73.4 37.6,74.5 36.1,75.7 M64,-0.2 C64,-15.3 53.3,-25.5 38.7,-25.5 C37.7,-31.5 36.8,-37.4 35.9,-43 C46.4,-54.1 53.8,-66.7 53.8,-82.5 C53.8,-91.6 51,-99 49.3,-102.6 C46.9,-107.7 44,-111.2 42.3,-111.2 C41.6,-111.2 38.4,-110 35.2,-106.1 C28.7,-98.5 26.9,-85.8 26.9,-77.4 C26.9,-72 27.4,-67.1 29.1,-55.8 C29,-55.8 23.8,-50.5 21.7,-48.7 C12.6,-40.3 0,-28.1 0,-8.2 C0,10.6 16.3,25.3 34.9,25.3 C37.8,25.3 40.5,25 42.9,24.6 C44.7,34.1 45.9,41.2 45.9,46.5 C45.9,56.9 40.5,62.4 30.4,62.4 C28,62.4 25.9,61.9 25.7,61.8 C25.6,61.8 25.4,61.7 25.4,61.6 C25.4,61.4 25.6,61.3 25.9,61.2 C30.6,60.5 35.3,56.4 35.3,50.1 C35.3,44.7 31.2,39 23.7,39 C16.7,39 12.3,44.7 12.3,51.3 C12.3,57.9 17.3,66.6 30.8,66.6 C43.7,66.6 50,59.3 50,46.5 C50,42.6 49.4,38.1 48.4,32.4 C48.1,30.4 47.6,27.3 46.9,23.5 C56.7,20.2 64,10.1 64,-0.2 M42.3,71.7 C42.3,68 38.9,66.4 35.6,66.4 C31.4,66.4 27.3,69 27.3,73.5 C27.3,75.4 28,76.8 29.4,78.2 C26.8,79.2 24.2,81.2 24.2,84.3 C24.2,87.6 27.2,89.8 31.6,89.8 C37,89.8 40.8,86.8 40.8,82.5 C40.8,80.2 39.8,78.3 38,77 C40.9,75.7 42.3,74.1 42.3,71.7"/>
<path class="Lyrics" d="M516.464,1080.39 L506.729,1081 L506.729,1083.36 L508.984,1083.36 C511.074,1083.42 511.349,1083.75 511.349,1086.11 L511.349,1101.84 C511.294,1102.67 511.239,1103 511.019,1103.27 C510.634,1103.77 509.534,1103.99 507.169,1104.04 L506.949,1104.04 L506.949,1106.02 L521.634,1106.02 L521.634,1104.04 L520.644,1104.04 C516.959,1103.93 516.464,1103.66 516.464,1101.68 L516.464,1098.71 C516.519,1089.47 519.819,1082.43 524.109,1082.21 C523.339,1083.09 523.119,1083.64 523.119,1084.68 C523.119,1086.44 524.384,1087.71 526.144,1087.71 C528.179,1087.71 529.499,1086.22 529.499,1084.02 C529.499,1081.33 527.629,1079.57 524.714,1079.57 C521.249,1079.57 518.279,1082.32 516.464,1087.21 L516.464,1080.39 M539.819,1066.7 C538.059,1066.7 536.629,1068.13 536.629,1069.89 C536.629,1071.65 538.059,1073.08 539.764,1073.08 C541.579,1073.08 543.009,1071.65 543.009,1069.89 C543.009,1068.13 541.579,1066.7 539.819,1066.7 M542.404,1080.39 L532.064,1081 L532.064,1083.36 L534.869,1083.36 C536.959,1083.42 537.234,1083.75 537.234,1086.11 L537.234,1101.84 C537.179,1102.67 537.124,1103 536.904,1103.27 C536.519,1103.77 535.474,1103.99 533.109,1104.04 L532.724,1104.04 L532.724,1106.02 L546.969,1106.02 L546.969,1104.04 L546.584,1104.04 C542.899,1103.93 542.404,1103.66 542.404,1101.68 L542.404,1080.39 "/>
<path class="Lyrics" d="M1763.76,1079.57 C1756.99,1079.57 1751.77,1085.56 1751.77,1093.26 C1751.77,1100.8 1757.05,1106.85 1763.65,1106.85 C1770.25,1106.85 1775.53,1100.8 1775.53,1093.21 C1775.53,1085.67 1770.25,1079.57 1763.76,1079.57 M1763.76,1081.93 C1767.61,1081.93 1769.75,1085.95 1769.75,1093.21 C1769.75,1100.52 1767.61,1104.48 1763.65,1104.48 C1759.69,1104.48 1757.54,1100.52 1757.54,1093.26 C1757.54,1085.78 1759.63,1081.93 1763.76,1081.93"/>
<path class="Lyrics" d="M2140.9,2101.55 L2150.47,2101.17 L2150.47,2098.8 L2149.48,2098.8 C2146.34,2098.64 2146.07,2098.31 2146.07,2094.79 L2146.07,2060.63 L2135.29,2061.24 L2135.29,2063.6 L2138.53,2063.6 C2140.62,2063.66 2140.9,2063.99 2140.9,2066.35 L2140.9,2078.78 C2138.86,2075.98 2136.5,2074.71 2133.31,2074.71 C2127.09,2074.71 2122.36,2080.71 2122.36,2088.63 C2122.36,2096.44 2126.93,2101.99 2133.31,2101.99 C2136.77,2101.99 2139.14,2100.51 2140.9,2097.21 L2140.9,2101.55 M2134.41,2077.68 C2136.66,2077.68 2138.81,2079.33 2139.8,2081.86 C2140.51,2083.51 2140.84,2085.77 2140.84,2088.46 C2140.84,2094.9 2138.31,2099.02 2134.35,2099.02 C2130.45,2099.02 2128.14,2095.39 2128.14,2089.29 C2128.14,2085.99 2128.47,2083.51 2129.18,2081.7 C2130.12,2079.22 2132.15,2077.68 2134.41,2077.68 M2160.31,2061.84 C2158.55,2061.84 2157.12,2063.27 2157.12,2065.03 C2157.12,2066.79 2158.55,2068.22 2160.25,2068.22 C2162.07,2068.22 2163.5,2066.79 2163.5,2065.03 C2163.5,2063.27 2162.07,2061.84 2160.31,2061.84 M2162.89,2075.54 L2152.55,2076.14 L2152.55,2078.51 L2155.36,2078.51 C2157.45,2078.56 2157.72,2078.89 2157.72,2081.26 L2157.72,2096.99 C2157.67,2097.81 2157.61,2098.14 2157.39,2098.42 C2157.01,2098.91 2155.96,2099.13 2153.6,2099.19 L2153.21,2099.19 L2153.21,2101.17 L2167.46,2101.17 L2167.46,2099.19 L2167.07,2099.19 C2163.39,2099.08 2162.89,2098.8 2162.89,2096.82 L2162.89,2075.54 "/>
<path class="Lyrics" d="M284.23,1109.98 L284.23,1068.35 L291.985,1068.35 L291.985,1066.31 L279.28,1066.31 L279.28,1111.96 L291.985,1111.96 L291.985,1109.98 L284.23,1109.98 M301.497,1099.92 C299.572,1099.92 298.032,1101.46 298.032,1103.33 C298.032,1105.25 299.572,1106.79 301.442,1106.79 C303.367,1106.79 304.907,1105.25 304.907,1103.33 C304.907,1101.46 303.367,1099.92 301.497,1099.92 M316.779,1099.92 C314.854,1099.92 313.314,1101.46 313.314,1103.33 C313.314,1105.25 314.854,1106.79 316.724,1106.79 C318.649,1106.79 320.189,1105.25 320.189,1103.33 C320.189,1101.46 318.649,1099.92 316.779,1099.92 M332.06,1099.92 C330.135,1099.92 328.595,1101.46 328.595,1103.33 C328.595,1105.25 330.135,1106.79 332.005,1106.79 C333.93,1106.79 335.47,1105.25 335.47,1103.33 C335.47,1101.46 333.93,1099.92 332.06,1099.92 M349.486,1068.29 L349.486,1109.93 L341.786,1109.93 L341.786,1111.96 L354.436,1111.96 L354.436,1066.31 L341.786,1066.31 L341.786,1068.29 L349.486,1068.29 M368.789,1080.39 L368.789,1069.5 L366.534,1069.5 C365.984,1076.65 363.564,1080.28 359.109,1080.61 L359.109,1082.76 L363.619,1082.76 L363.619,1096.78 C363.619,1100.63 363.729,1102.01 364.279,1103.27 C365.159,1105.58 367.359,1106.85 370.549,1106.85 C375.499,1106.85 378.689,1103.11 378.689,1097.28 C378.689,1096.95 378.689,1096.56 378.634,1096.01 L376.324,1096.01 C376.159,1100.96 374.729,1103.49 372.034,1103.49 C370.769,1103.49 369.669,1102.83 369.284,1101.9 C368.954,1101.13 368.789,1099.75 368.789,1097.77 L368.789,1082.76 L376.874,1082.76 L376.874,1080.39 L368.789,1080.39 M390.399,1080.39 L380.664,1081 L380.664,1083.36 L382.919,1083.36 C385.009,1083.42 385.284,1083.75 385.284,1086.11 L385.284,1101.84 C385.229,1102.67 385.174,1103 384.954,1103.27 C384.569,1103.77 383.469,1103.99 381.104,1104.04 L380.884,1104.04 L380.884,1106.02 L395.569,1106.02 L395.569,1104.04 L394.579,1104.04 C390.894,1103.93 390.399,1103.66 390.399,1101.68 L390.399,1098.71 C390.454,1089.47 393.754,1082.43 398.044,1082.21 C397.274,1083.09 397.054,1083.64 397.054,1084.68 C397.054,1086.44 398.319,1087.71 400.079,1087.71 C402.114,1087.71 403.434,1086.22 403.434,1084.02 C403.434,1081.33 401.564,1079.57 398.649,1079.57 C395.184,1079.57 392.214,1082.32 390.399,1087.21 L390.399,1080.39 M428.338,1088.31 C428.338,1084.85 427.733,1083.09 426.138,1081.77 C424.323,1080.28 421.628,1079.57 418.108,1079.57 C411.893,1079.57 407.383,1082.48 407.383,1086.5 C407.383,1088.53 408.648,1089.85 410.573,1089.85 C412.333,1089.85 413.543,1088.7 413.543,1087.05 C413.543,1086.33 413.268,1085.56 412.718,1084.79 C412.388,1084.41 412.333,1084.3 412.333,1084.02 C412.333,1082.92 414.533,1081.93 417.173,1081.93 C418.933,1081.93 420.858,1082.48 421.738,1083.31 C422.783,1084.19 423.168,1085.51 423.168,1087.98 L423.168,1090.13 C417.448,1091.12 415.633,1091.56 412.938,1092.6 C408.153,1094.36 405.898,1096.89 405.898,1100.41 C405.898,1104.37 408.978,1106.85 413.873,1106.85 C417.668,1106.85 421.078,1105.31 423.443,1102.5 C424.323,1105.31 425.698,1106.41 428.283,1106.41 C430.758,1106.41 433.343,1104.81 433.343,1103.22 C433.343,1102.83 433.123,1102.56 432.793,1102.56 C432.573,1102.56 432.353,1102.61 431.968,1102.78 C431.198,1103.11 430.868,1103.16 430.428,1103.16 C428.888,1103.16 428.338,1102.17 428.338,1099.37 L428.338,1088.31 M423.168,1095.02 C423.168,1098.32 423.003,1099.09 422.068,1100.52 C420.693,1102.56 418.218,1103.93 415.798,1103.93 C413.268,1103.93 411.453,1102.12 411.453,1099.64 C411.453,1097.33 412.608,1095.68 415.028,1094.53 C416.733,1093.76 418.878,1093.21 423.168,1092.49 L423.168,1095.02 "/>
<path class="Lyrics" d="M1154.58,2075.54 L1154.58,2064.65 L1152.33,2064.65 C1151.78,2071.8 1149.36,2075.43 1144.9,2075.76 L1144.9,2077.9 L1149.41,2077.9 L1149.41,2091.93 C1149.41,2095.78 1149.52,2097.15 1150.07,2098.42 C1150.95,2100.73 1153.15,2101.99 1156.34,2101.99 C1161.29,2101.99 1164.48,2098.25 1164.48,2092.42 C1164.48,2092.09 1164.48,2091.71 1164.43,2091.16 L1162.12,2091.16 C1161.95,2096.11 1160.52,2098.64 1157.83,2098.64 C1156.56,2098.64 1155.46,2097.98 1155.08,2097.04 C1154.75,2096.27 1154.58,2094.9 1154.58,2092.92 L1154.58,2077.9 L1162.67,2077.9 L1162.67,2075.54 L1154.58,2075.54 M1179.49,2074.71 C1172.72,2074.71 1167.5,2080.71 1167.5,2088.41 C1167.5,2095.94 1172.78,2101.99 1179.38,2101.99 C1185.98,2101.99 1191.26,2095.94 1191.26,2088.35 C1191.26,2080.82 1185.98,2074.71 1179.49,2074.71 M1179.49,2077.08 C1183.34,2077.08 1185.48,2081.09 1185.48,2088.35 C1185.48,2095.67 1183.34,2099.63 1179.38,2099.63 C1175.42,2099.63 1173.27,2095.67 1173.27,2088.41 C1173.27,2080.93 1175.36,2077.08 1179.49,2077.08"/>
<path class="Lyrics" d="M1910.19,1080.39 L1904.96,1080.39 L1904.96,1082.76 L1910.19,1082.76 L1910.19,1101.84 C1910.13,1102.61 1910.08,1103 1909.86,1103.27 C1909.47,1103.77 1908.37,1103.99 1906.01,1104.04 L1905.79,1104.04 L1905.79,1106.02 L1919.7,1106.02 L1919.7,1104.04 L1919.48,1104.04 C1915.85,1103.93 1915.36,1103.66 1915.36,1101.68 L1915.36,1082.76 L1924.54,1082.76 C1926.8,1082.81 1926.96,1083.09 1926.91,1086.55 L1926.91,1101.9 C1926.85,1102.61 1926.8,1102.94 1926.52,1103.27 C1926.19,1103.77 1925.09,1103.99 1922.73,1104.04 L1922.51,1104.04 L1922.51,1106.02 L1936.42,1106.02 L1936.42,1104.04 L1936.2,1104.04 C1932.57,1103.93 1932.08,1103.66 1932.08,1101.68 L1932.08,1080.01 C1928.06,1080.34 1926.52,1080.39 1923.66,1080.39 L1915.36,1080.39 L1915.36,1079.24 C1915.36,1073.79 1916.73,1067.74 1923.39,1067.74 C1925.15,1067.74 1925.97,1068.02 1925.97,1068.62 C1925.97,1068.84 1925.97,1068.9 1925.64,1069.34 C1925.26,1069.83 1925.04,1070.6 1925.04,1071.32 C1925.04,1072.97 1926.52,1074.18 1928.45,1074.18 C1930.59,1074.18 1931.91,1072.91 1931.91,1070.88 C1931.91,1067.58 1928.78,1065.54 1923.77,1065.54 C1919.54,1065.54 1916.29,1066.75 1913.71,1069.34 C1911.18,1071.81 1910.19,1074.84 1910.19,1079.9 L1910.19,1080.39 M1948.35,1080.39 L1948.35,1069.5 L1946.09,1069.5 C1945.54,1076.65 1943.12,1080.28 1938.67,1080.61 L1938.67,1082.76 L1943.18,1082.76 L1943.18,1096.78 C1943.18,1100.63 1943.29,1102.01 1943.84,1103.27 C1944.72,1105.58 1946.92,1106.85 1950.11,1106.85 C1955.06,1106.85 1958.25,1103.11 1958.25,1097.28 C1958.25,1096.95 1958.25,1096.56 1958.19,1096.01 L1955.88,1096.01 C1955.72,1100.96 1954.29,1103.49 1951.59,1103.49 C1950.33,1103.49 1949.23,1102.83 1948.84,1101.9 C1948.51,1101.13 1948.35,1099.75 1948.35,1097.77 L1948.35,1082.76 L1956.43,1082.76 L1956.43,1080.39 L1948.35,1080.39 "/>
<path class="Lyrics" d="M2649.06,1079.57 C2642.3,1079.57 2637.07,1085.56 2637.07,1093.26 C2637.07,1100.8 2642.35,1106.85 2648.95,1106.85 C2655.55,1106.85 2660.83,1100.8 2660.83,1093.21 C2660.83,1085.67 2655.55,1079.57 2649.06,1079.57 M2649.06,1081.93 C2652.91,1081.93 2655.06,1085.95 2655.06,1093.21 C2655.06,1100.52 2652.91,1104.48 2648.95,1104.48 C2644.99,1104.48 2642.85,1100.52 2642.85,1093.26 C2642.85,1085.78 2644.94,1081.93 2649.06,1081.93"/>
<path class="Lyrics" d="M744.146,2083.46 C744.146,2079.99 743.541,2078.23 741.946,2076.91 C740.131,2075.43 737.436,2074.71 733.916,2074.71 C727.701,2074.71 723.191,2077.63 723.191,2081.64 C723.191,2083.68 724.456,2085 726.381,2085 C728.141,2085 729.351,2083.84 729.351,2082.19 C729.351,2081.48 729.076,2080.71 728.526,2079.94 C728.196,2079.55 728.141,2079.44 728.141,2079.17 C728.141,2078.07 730.341,2077.08 732.981,2077.08 C734.741,2077.08 736.666,2077.63 737.546,2078.45 C738.591,2079.33 738.976,2080.65 738.976,2083.13 L738.976,2085.27 C733.256,2086.26 731.441,2086.7 728.746,2087.75 C723.961,2089.51 721.706,2092.04 721.706,2095.56 C721.706,2099.52 724.786,2101.99 729.681,2101.99 C733.476,2101.99 736.886,2100.45 739.251,2097.65 C740.131,2100.45 741.506,2101.55 744.091,2101.55 C746.566,2101.55 749.151,2099.96 749.151,2098.36 C749.151,2097.98 748.931,2097.7 748.601,2097.7 C748.381,2097.7 748.161,2097.76 747.776,2097.92 C747.006,2098.25 746.676,2098.31 746.236,2098.31 C744.696,2098.31 744.146,2097.32 744.146,2094.51 L744.146,2083.46 M738.976,2090.17 C738.976,2093.47 738.811,2094.24 737.876,2095.67 C736.501,2097.7 734.026,2099.08 731.606,2099.08 C729.076,2099.08 727.261,2097.26 727.261,2094.79 C727.261,2092.48 728.416,2090.83 730.836,2089.67 C732.541,2088.9 734.686,2088.35 738.976,2087.64 L738.976,2090.17 M770.764,2101.55 L780.334,2101.17 L780.334,2098.8 L779.344,2098.8 C776.209,2098.64 775.934,2098.31 775.934,2094.79 L775.934,2060.63 L765.154,2061.24 L765.154,2063.6 L768.399,2063.6 C770.489,2063.66 770.764,2063.99 770.764,2066.35 L770.764,2078.78 C768.729,2075.98 766.364,2074.71 763.174,2074.71 C756.959,2074.71 752.229,2080.71 752.229,2088.63 C752.229,2096.44 756.794,2101.99 763.174,2101.99 C766.639,2101.99 769.004,2100.51 770.764,2097.21 L770.764,2101.55 M764.274,2077.68 C766.529,2077.68 768.674,2079.33 769.664,2081.86 C770.379,2083.51 770.709,2085.77 770.709,2088.46 C770.709,2094.9 768.179,2099.02 764.219,2099.02 C760.314,2099.02 758.004,2095.39 758.004,2089.29 C758.004,2085.99 758.334,2083.51 759.049,2081.7 C759.984,2079.22 762.019,2077.68 764.274,2077.68"/>
<path class="Lyrics" d="M1304.88,2075.54 L1295.15,2076.14 L1295.15,2078.51 L1297.4,2078.51 C1299.49,2078.56 1299.77,2078.89 1299.77,2081.26 L1299.77,2096.99 C1299.71,2097.81 1299.66,2098.14 1299.44,2098.42 C1299.05,2098.91 1297.95,2099.13 1295.59,2099.19 L1295.37,2099.19 L1295.37,2101.17 L1310.05,2101.17 L1310.05,2099.19 L1309.06,2099.19 C1305.38,2099.08 1304.88,2098.8 1304.88,2096.82 L1304.88,2093.85 C1304.94,2084.61 1308.24,2077.57 1312.53,2077.35 C1311.76,2078.23 1311.54,2078.78 1311.54,2079.83 C1311.54,2081.59 1312.8,2082.85 1314.56,2082.85 C1316.6,2082.85 1317.92,2081.37 1317.92,2079.17 C1317.92,2076.47 1316.05,2074.71 1313.13,2074.71 C1309.67,2074.71 1306.7,2077.46 1304.88,2082.36 L1304.88,2075.54 M1328.24,2061.84 C1326.48,2061.84 1325.05,2063.27 1325.05,2065.03 C1325.05,2066.79 1326.48,2068.22 1328.18,2068.22 C1330,2068.22 1331.43,2066.79 1331.43,2065.03 C1331.43,2063.27 1330,2061.84 1328.24,2061.84 M1330.82,2075.54 L1320.48,2076.14 L1320.48,2078.51 L1323.29,2078.51 C1325.38,2078.56 1325.65,2078.89 1325.65,2081.26 L1325.65,2096.99 C1325.6,2097.81 1325.54,2098.14 1325.32,2098.42 C1324.94,2098.91 1323.89,2099.13 1321.53,2099.19 L1321.14,2099.19 L1321.14,2101.17 L1335.39,2101.17 L1335.39,2099.19 L1335,2099.19 C1331.32,2099.08 1330.82,2098.8 1330.82,2096.82 L1330.82,2075.54 "/>
<path class="Lyrics" d="M1218.82,1080.39 L1218.82,1069.5 L1216.57,1069.5 C1216.02,1076.65 1213.6,1080.28 1209.14,1080.61 L1209.14,1082.76 L1213.65,1082.76 L1213.65,1096.78 C1213.65,1100.63 1213.76,1102.01 1214.31,1103.27 C1215.19,1105.58 1217.39,1106.85 1220.58,1106.85 C1225.53,1106.85 1228.72,1103.11 1228.72,1097.28 C1228.72,1096.95 1228.72,1096.56 1228.67,1096.01 L1226.36,1096.01 C1226.19,1100.96 1224.76,1103.49 1222.07,1103.49 C1220.8,1103.49 1219.7,1102.83 1219.32,1101.9 C1218.99,1101.13 1218.82,1099.75 1218.82,1097.77 L1218.82,1082.76 L1226.91,1082.76 L1226.91,1080.39 L1218.82,1080.39 M1255.51,1093.65 C1255.56,1085.4 1250.89,1079.57 1244.18,1079.57 C1237.14,1079.57 1231.86,1085.67 1231.86,1093.92 C1231.86,1101.68 1236.86,1106.85 1244.29,1106.85 C1249.57,1106.85 1253.25,1104.26 1255.51,1099.04 L1253.58,1097.99 C1251.33,1102.23 1249.02,1103.88 1245.33,1103.88 C1242.53,1103.88 1240.49,1102.72 1239.06,1100.25 C1238.07,1098.6 1237.63,1096.67 1237.69,1093.65 L1255.51,1093.65 M1237.74,1091.28 C1237.74,1087.43 1239.5,1081.93 1244.12,1081.93 C1247.42,1081.93 1249.62,1084.85 1249.62,1089.3 C1249.62,1090.84 1249.13,1091.28 1247.37,1091.28 L1237.74,1091.28 "/>
<path class="Lyrics" d="M1401.23,1080.39 L1391.72,1081 L1391.72,1083.36 L1393.7,1083.36 C1395.79,1083.42 1396.06,1083.75 1396.06,1086.11 L1396.06,1101.84 C1396.01,1102.67 1395.95,1103 1395.73,1103.27 C1395.35,1103.77 1394.3,1103.99 1391.94,1104.04 L1391.72,1104.04 L1391.72,1106.02 L1405.63,1106.02 L1405.63,1104.04 L1405.41,1104.04 C1401.73,1103.93 1401.23,1103.66 1401.23,1101.68 L1401.23,1093.54 C1401.23,1090.84 1401.62,1088.37 1402.22,1087.1 C1403.38,1084.63 1405.85,1082.92 1408.22,1082.92 C1409.65,1082.92 1411.3,1083.69 1412.12,1084.85 C1412.95,1086.06 1413.33,1087.71 1413.33,1090.35 L1413.33,1101.84 C1413.28,1102.67 1413.22,1103 1413,1103.27 C1412.62,1103.77 1411.52,1103.99 1409.15,1104.04 L1408.93,1104.04 L1408.93,1106.02 L1422.85,1106.02 L1422.85,1104.04 L1422.63,1104.04 C1419,1103.93 1418.5,1103.66 1418.5,1101.68 L1418.5,1090.62 C1418.5,1086.66 1418.34,1085.67 1417.35,1083.8 C1415.97,1081.16 1413.22,1079.57 1409.92,1079.57 C1406.35,1079.57 1403.65,1081.22 1401.23,1084.85 L1401.23,1080.39 M1449.4,1093.65 C1449.45,1085.4 1444.78,1079.57 1438.07,1079.57 C1431.03,1079.57 1425.75,1085.67 1425.75,1093.92 C1425.75,1101.68 1430.75,1106.85 1438.18,1106.85 C1443.46,1106.85 1447.14,1104.26 1449.4,1099.04 L1447.47,1097.99 C1445.22,1102.23 1442.91,1103.88 1439.22,1103.88 C1436.42,1103.88 1434.38,1102.72 1432.95,1100.25 C1431.96,1098.6 1431.52,1096.67 1431.58,1093.65 L1449.4,1093.65 M1431.63,1091.28 C1431.63,1087.43 1433.39,1081.93 1438.01,1081.93 C1441.31,1081.93 1443.51,1084.85 1443.51,1089.3 C1443.51,1090.84 1443.02,1091.28 1441.26,1091.28 L1431.63,1091.28 "/>
<path class="Lyrics" d="M511.656,2060.63 L501.481,2061.24 L501.481,2063.6 L504.121,2063.6 C506.211,2063.66 506.486,2063.99 506.486,2066.35 L506.486,2097.04 C506.431,2097.81 506.376,2098.14 506.156,2098.42 C505.771,2098.91 504.726,2099.13 502.361,2099.19 L502.141,2099.19 L502.141,2101.17 L516.056,2101.17 L516.056,2099.19 L515.836,2099.19 C512.151,2099.08 511.656,2098.8 511.656,2096.82 L511.656,2088.68 C511.656,2085.99 512.041,2083.51 512.646,2082.25 C513.856,2079.77 516.276,2078.07 518.641,2078.07 C520.071,2078.07 521.721,2078.89 522.491,2079.99 C523.371,2081.2 523.756,2082.85 523.756,2085.55 L523.756,2097.04 C523.701,2097.81 523.646,2098.14 523.426,2098.42 C523.041,2098.91 521.941,2099.13 519.576,2099.19 L519.356,2099.19 L519.356,2101.17 L533.271,2101.17 L533.271,2099.19 L533.051,2099.19 C529.421,2099.08 528.926,2098.8 528.926,2096.82 L528.926,2085.77 C528.926,2081.81 528.761,2080.82 527.771,2078.95 C526.396,2076.25 523.646,2074.71 520.346,2074.71 C516.771,2074.71 514.131,2076.31 511.656,2079.99 L511.656,2060.63 M548.11,2074.71 C541.345,2074.71 536.12,2080.71 536.12,2088.41 C536.12,2095.94 541.4,2101.99 548,2101.99 C554.6,2101.99 559.88,2095.94 559.88,2088.35 C559.88,2080.82 554.6,2074.71 548.11,2074.71 M548.11,2077.08 C551.96,2077.08 554.105,2081.09 554.105,2088.35 C554.105,2095.67 551.96,2099.63 548,2099.63 C544.04,2099.63 541.895,2095.67 541.895,2088.41 C541.895,2080.93 543.985,2077.08 548.11,2077.08 M583.035,2093.08 C581.275,2097.04 579.405,2098.64 576.545,2098.64 C572.145,2098.64 569.395,2094.62 569.395,2088.19 C569.395,2081.48 572.09,2077.08 576.16,2077.08 C577.81,2077.08 579.24,2077.85 579.24,2078.73 C579.24,2078.89 579.185,2079.06 578.91,2079.39 C578.03,2080.43 577.81,2080.98 577.81,2081.92 C577.81,2083.73 579.185,2085 581.11,2085 C583.09,2085 584.465,2083.46 584.465,2081.26 C584.465,2077.52 580.78,2074.71 575.885,2074.71 C568.735,2074.71 563.62,2080.54 563.62,2088.79 C563.62,2096.6 568.295,2101.99 575.115,2101.99 C580.01,2101.99 582.815,2099.74 585.18,2093.91 L583.035,2093.08 "/>
<path class="Lyrics" d="M1444.11,2101.55 L1454.12,2101.17 L1454.12,2098.8 L1452.75,2098.8 C1449.56,2098.69 1449.28,2098.36 1449.28,2094.79 L1449.28,2075.54 L1438.94,2076.14 L1438.94,2078.51 L1441.75,2078.51 C1443.84,2078.56 1444.11,2078.89 1444.11,2081.26 L1444.11,2088.02 C1444.11,2092.81 1442.96,2098.64 1436.91,2098.64 C1435.2,2098.64 1433.77,2098.03 1433.06,2096.93 C1432.34,2095.89 1432.23,2095.34 1432.23,2092.31 L1432.23,2075.54 L1422.61,2076.14 L1422.61,2078.51 L1424.7,2078.51 C1426.79,2078.56 1427.06,2078.89 1427.06,2081.26 L1427.06,2093.14 C1427.06,2095.94 1427.28,2097.21 1428.11,2098.47 C1429.59,2100.73 1432.23,2101.99 1435.53,2101.99 C1439.16,2101.99 1441.69,2100.51 1444.11,2096.99 L1444.11,2101.55 M1466.1,2075.54 L1456.31,2076.14 L1456.31,2078.51 L1458.57,2078.51 C1460.66,2078.56 1460.93,2078.89 1460.93,2081.26 L1460.93,2096.99 C1460.88,2097.81 1460.82,2098.14 1460.6,2098.42 C1460.22,2098.91 1459.17,2099.13 1456.81,2099.19 L1456.59,2099.19 L1456.59,2101.17 L1470.45,2101.17 L1470.45,2099.19 L1470.23,2099.19 C1466.6,2099.08 1466.1,2098.8 1466.1,2096.77 L1466.1,2086.59 C1466.1,2081.7 1468.8,2078.07 1472.37,2078.07 C1475.51,2078.07 1477.1,2080.32 1477.1,2084.78 L1477.1,2097.04 C1477.05,2097.76 1476.99,2098.14 1476.72,2098.42 C1476.39,2098.91 1475.29,2099.13 1472.92,2099.19 L1472.7,2099.19 L1472.7,2101.17 L1486.62,2101.17 L1486.62,2099.19 L1486.4,2099.19 C1482.77,2099.08 1482.27,2098.8 1482.27,2096.82 L1482.27,2087.09 C1482.27,2081.59 1484.75,2078.07 1488.6,2078.07 C1491.73,2078.07 1493.27,2080.43 1493.27,2085.38 L1493.27,2096.99 C1493.22,2097.76 1493.16,2098.14 1492.89,2098.42 C1492.56,2098.91 1491.46,2099.13 1489.09,2099.19 L1488.87,2099.19 L1488.87,2101.17 L1502.79,2101.17 L1502.79,2099.19 L1502.57,2099.19 C1498.94,2099.08 1498.44,2098.8 1498.44,2096.77 L1498.44,2084.28 C1498.44,2080.87 1498.11,2079.72 1496.68,2077.85 C1495.09,2075.81 1492.83,2074.71 1490.19,2074.71 C1486.62,2074.71 1483.98,2076.42 1481.61,2080.21 C1480.68,2076.91 1477.71,2074.71 1474.02,2074.71 C1470.67,2074.71 1468.25,2076.31 1466.1,2079.77 L1466.1,2075.54 "/>
<path class="Lyrics" d="M2033.71,1065.49 L2023.54,1066.09 L2023.54,1068.46 L2026.18,1068.46 C2028.27,1068.51 2028.54,1068.84 2028.54,1071.21 L2028.54,1101.9 C2028.49,1102.67 2028.43,1103 2028.21,1103.27 C2027.83,1103.77 2026.78,1103.99 2024.42,1104.04 L2024.2,1104.04 L2024.2,1106.02 L2038.11,1106.02 L2038.11,1104.04 L2037.89,1104.04 C2034.21,1103.93 2033.71,1103.66 2033.71,1101.68 L2033.71,1093.54 C2033.71,1090.84 2034.1,1088.37 2034.7,1087.1 C2035.91,1084.63 2038.33,1082.92 2040.7,1082.92 C2042.13,1082.92 2043.78,1083.75 2044.55,1084.85 C2045.43,1086.06 2045.81,1087.71 2045.81,1090.4 L2045.81,1101.9 C2045.76,1102.67 2045.7,1103 2045.48,1103.27 C2045.1,1103.77 2044,1103.99 2041.63,1104.04 L2041.41,1104.04 L2041.41,1106.02 L2055.33,1106.02 L2055.33,1104.04 L2055.11,1104.04 C2051.48,1103.93 2050.98,1103.66 2050.98,1101.68 L2050.98,1090.62 C2050.98,1086.66 2050.82,1085.67 2049.83,1083.8 C2048.45,1081.11 2045.7,1079.57 2042.4,1079.57 C2038.83,1079.57 2036.19,1081.16 2033.71,1084.85 L2033.71,1065.49 M2065.05,1066.7 C2063.29,1066.7 2061.86,1068.13 2061.86,1069.89 C2061.86,1071.65 2063.29,1073.08 2065,1073.08 C2066.81,1073.08 2068.24,1071.65 2068.24,1069.89 C2068.24,1068.13 2066.81,1066.7 2065.05,1066.7 M2067.64,1080.39 L2057.3,1081 L2057.3,1083.36 L2060.1,1083.36 C2062.19,1083.42 2062.47,1083.75 2062.47,1086.11 L2062.47,1101.84 C2062.41,1102.67 2062.36,1103 2062.14,1103.27 C2061.75,1103.77 2060.71,1103.99 2058.34,1104.04 L2057.96,1104.04 L2057.96,1106.02 L2072.2,1106.02 L2072.2,1104.04 L2071.82,1104.04 C2068.13,1103.93 2067.64,1103.66 2067.64,1101.68 L2067.64,1080.39 M2094.9,1097.94 C2093.14,1101.9 2091.27,1103.49 2088.41,1103.49 C2084.01,1103.49 2081.26,1099.48 2081.26,1093.04 C2081.26,1086.33 2083.96,1081.93 2088.03,1081.93 C2089.68,1081.93 2091.11,1082.7 2091.11,1083.58 C2091.11,1083.75 2091.05,1083.91 2090.78,1084.24 C2089.9,1085.29 2089.68,1085.84 2089.68,1086.77 C2089.68,1088.59 2091.05,1089.85 2092.98,1089.85 C2094.96,1089.85 2096.33,1088.31 2096.33,1086.11 C2096.33,1082.37 2092.65,1079.57 2087.75,1079.57 C2080.6,1079.57 2075.49,1085.4 2075.49,1093.65 C2075.49,1101.46 2080.16,1106.85 2086.98,1106.85 C2091.88,1106.85 2094.68,1104.59 2097.05,1098.76 L2094.9,1097.94 "/>
<path class="Lyrics" d="M379.286,2061.84 C377.526,2061.84 376.096,2063.27 376.096,2065.03 C376.096,2066.79 377.526,2068.22 379.231,2068.22 C381.046,2068.22 382.476,2066.79 382.476,2065.03 C382.476,2063.27 381.046,2061.84 379.286,2061.84 M381.871,2075.54 L371.531,2076.14 L371.531,2078.51 L374.336,2078.51 C376.426,2078.56 376.701,2078.89 376.701,2081.26 L376.701,2096.99 C376.646,2097.81 376.591,2098.14 376.371,2098.42 C375.986,2098.91 374.941,2099.13 372.576,2099.19 L372.191,2099.19 L372.191,2101.17 L386.436,2101.17 L386.436,2099.19 L386.051,2099.19 C382.366,2099.08 381.871,2098.8 381.871,2096.82 L381.871,2075.54 M398.853,2075.54 L389.338,2076.14 L389.338,2078.51 L391.318,2078.51 C393.408,2078.56 393.683,2078.89 393.683,2081.26 L393.683,2096.99 C393.628,2097.81 393.573,2098.14 393.353,2098.42 C392.968,2098.91 391.923,2099.13 389.558,2099.19 L389.338,2099.19 L389.338,2101.17 L403.253,2101.17 L403.253,2099.19 L403.033,2099.19 C399.348,2099.08 398.853,2098.8 398.853,2096.82 L398.853,2088.68 C398.853,2085.99 399.238,2083.51 399.843,2082.25 C400.998,2079.77 403.473,2078.07 405.838,2078.07 C407.268,2078.07 408.918,2078.84 409.743,2079.99 C410.568,2081.2 410.953,2082.85 410.953,2085.49 L410.953,2096.99 C410.898,2097.81 410.843,2098.14 410.623,2098.42 C410.238,2098.91 409.138,2099.13 406.773,2099.19 L406.553,2099.19 L406.553,2101.17 L420.468,2101.17 L420.468,2099.19 L420.248,2099.19 C416.618,2099.08 416.123,2098.8 416.123,2096.82 L416.123,2085.77 C416.123,2081.81 415.958,2080.82 414.968,2078.95 C413.593,2076.31 410.843,2074.71 407.543,2074.71 C403.968,2074.71 401.273,2076.36 398.853,2079.99 L398.853,2075.54 "/>
<path class="Lyrics" d="M992.648,1065.49 L982.473,1066.09 L982.473,1068.46 L985.113,1068.46 C987.203,1068.51 987.478,1068.84 987.478,1071.21 L987.478,1101.9 C987.423,1102.67 987.368,1103 987.148,1103.27 C986.763,1103.77 985.718,1103.99 983.353,1104.04 L983.133,1104.04 L983.133,1106.02 L997.048,1106.02 L997.048,1104.04 L996.828,1104.04 C993.143,1103.93 992.648,1103.66 992.648,1101.68 L992.648,1093.54 C992.648,1090.84 993.033,1088.37 993.638,1087.1 C994.848,1084.63 997.268,1082.92 999.633,1082.92 C1001.06,1082.92 1002.71,1083.75 1003.48,1084.85 C1004.36,1086.06 1004.75,1087.71 1004.75,1090.4 L1004.75,1101.9 C1004.69,1102.67 1004.64,1103 1004.42,1103.27 C1004.03,1103.77 1002.93,1103.99 1000.57,1104.04 L1000.35,1104.04 L1000.35,1106.02 L1014.26,1106.02 L1014.26,1104.04 L1014.04,1104.04 C1010.41,1103.93 1009.92,1103.66 1009.92,1101.68 L1009.92,1090.62 C1009.92,1086.66 1009.75,1085.67 1008.76,1083.8 C1007.39,1081.11 1004.64,1079.57 1001.34,1079.57 C997.763,1079.57 995.123,1081.16 992.648,1084.85 L992.648,1065.49 M1029.1,1079.57 C1022.34,1079.57 1017.11,1085.56 1017.11,1093.26 C1017.11,1100.8 1022.39,1106.85 1028.99,1106.85 C1035.59,1106.85 1040.87,1100.8 1040.87,1093.21 C1040.87,1085.67 1035.59,1079.57 1029.1,1079.57 M1029.1,1081.93 C1032.95,1081.93 1035.1,1085.95 1035.1,1093.21 C1035.1,1100.52 1032.95,1104.48 1028.99,1104.48 C1025.03,1104.48 1022.89,1100.52 1022.89,1093.26 C1022.89,1085.78 1024.98,1081.93 1029.1,1081.93 M1064.19,1079.79 L1062.27,1079.79 L1060.67,1081.77 C1058.69,1080.23 1056.71,1079.57 1053.96,1079.57 C1049.12,1079.57 1045.93,1082.7 1045.93,1087.54 C1045.93,1092.71 1049.29,1094.03 1053.69,1095.08 L1056.6,1095.74 C1060.95,1096.78 1062.49,1097.88 1062.49,1100.08 C1062.49,1102.67 1060.23,1104.48 1057.04,1104.48 C1052.37,1104.48 1049.07,1101.51 1047.75,1096.01 L1045.55,1096.01 L1045.55,1106.41 L1047.47,1106.41 L1049.4,1104.15 C1051.65,1105.97 1054.13,1106.85 1056.93,1106.85 C1062.32,1106.85 1065.9,1103.49 1065.9,1098.38 C1065.9,1095.96 1065.13,1094.09 1063.59,1092.82 C1062.27,1091.67 1061.17,1091.23 1057.81,1090.51 L1055.06,1089.91 C1052.04,1089.25 1052.04,1089.25 1051.05,1088.7 C1049.84,1088.15 1049.12,1086.99 1049.12,1085.78 C1049.12,1083.53 1051.21,1081.99 1054.24,1081.99 C1058.75,1081.99 1060.95,1085.18 1062.27,1089.03 L1064.19,1089.03 L1064.19,1079.79 "/>
<path class="Lyrics" d="M1568.22,1079.79 L1566.3,1079.79 L1564.7,1081.77 C1562.72,1080.23 1560.74,1079.57 1557.99,1079.57 C1553.15,1079.57 1549.96,1082.7 1549.96,1087.54 C1549.96,1092.71 1553.32,1094.03 1557.72,1095.08 L1560.63,1095.74 C1564.98,1096.78 1566.52,1097.88 1566.52,1100.08 C1566.52,1102.67 1564.26,1104.48 1561.07,1104.48 C1556.4,1104.48 1553.1,1101.51 1551.78,1096.01 L1549.58,1096.01 L1549.58,1106.41 L1551.5,1106.41 L1553.43,1104.15 C1555.68,1105.97 1558.16,1106.85 1560.96,1106.85 C1566.35,1106.85 1569.93,1103.49 1569.93,1098.38 C1569.93,1095.96 1569.16,1094.09 1567.62,1092.82 C1566.3,1091.67 1565.2,1091.23 1561.84,1090.51 L1559.09,1089.91 C1556.07,1089.25 1556.07,1089.25 1555.08,1088.7 C1553.87,1088.15 1553.15,1086.99 1553.15,1085.78 C1553.15,1083.53 1555.24,1081.99 1558.27,1081.99 C1562.78,1081.99 1564.98,1085.18 1566.3,1089.03 L1568.22,1089.03 L1568.22,1079.79 M1593.51,1097.94 C1591.75,1101.9 1589.88,1103.49 1587.02,1103.49 C1582.62,1103.49 1579.87,1099.48 1579.87,1093.04 C1579.87,1086.33 1582.56,1081.93 1586.63,1081.93 C1588.28,1081.93 1589.71,1082.7 1589.71,1083.58 C1589.71,1083.75 1589.66,1083.91 1589.38,1084.24 C1588.5,1085.29 1588.28,1085.84 1588.28,1086.77 C1588.28,1088.59 1589.66,1089.85 1591.58,1089.85 C1593.56,1089.85 1594.94,1088.31 1594.94,1086.11 C1594.94,1082.37 1591.25,1079.57 1586.36,1079.57 C1579.21,1079.57 1574.09,1085.4 1574.09,1093.65 C1574.09,1101.46 1578.77,1106.85 1585.59,1106.85 C1590.48,1106.85 1593.29,1104.59 1595.65,1098.76 L1593.51,1097.94 M1605.38,1066.7 C1603.62,1066.7 1602.19,1068.13 1602.19,1069.89 C1602.19,1071.65 1603.62,1073.08 1605.32,1073.08 C1607.14,1073.08 1608.57,1071.65 1608.57,1069.89 C1608.57,1068.13 1607.14,1066.7 1605.38,1066.7 M1607.96,1080.39 L1597.62,1081 L1597.62,1083.36 L1600.43,1083.36 C1602.52,1083.42 1602.79,1083.75 1602.79,1086.11 L1602.79,1101.84 C1602.74,1102.67 1602.68,1103 1602.46,1103.27 C1602.08,1103.77 1601.03,1103.99 1598.67,1104.04 L1598.28,1104.04 L1598.28,1106.02 L1612.53,1106.02 L1612.53,1104.04 L1612.14,1104.04 C1608.46,1103.93 1607.96,1103.66 1607.96,1101.68 L1607.96,1080.39 "/>
<path class="Lyrics" d="M2158.38,1080.39 L2148.87,1081 L2148.87,1083.36 L2150.85,1083.36 C2152.94,1083.42 2153.21,1083.75 2153.21,1086.11 L2153.21,1113.01 C2153.16,1113.78 2153.1,1114.11 2152.88,1114.38 C2152.5,1114.88 2151.45,1115.1 2149.09,1115.15 L2148.87,1115.15 L2148.87,1117.13 L2163.17,1117.13 L2163.17,1115.15 L2162.56,1115.15 C2158.88,1115.04 2158.38,1114.77 2158.38,1112.79 L2158.38,1102.39 C2160.2,1105.58 2162.23,1106.85 2165.64,1106.85 C2172.96,1106.85 2176.75,1099.64 2176.75,1093.1 C2176.75,1086.88 2172.96,1079.57 2165.97,1079.57 C2162.56,1079.57 2160.31,1081 2158.38,1084.3 L2158.38,1080.39 M2164.98,1082.54 C2168.78,1082.54 2170.98,1086.33 2170.98,1092.77 C2170.98,1099.86 2168.78,1103.88 2164.82,1103.88 C2160.86,1103.88 2158.33,1099.81 2158.33,1093.48 C2158.33,1086.61 2160.8,1082.54 2164.98,1082.54 M2189.78,1080.39 L2180.04,1081 L2180.04,1083.36 L2182.3,1083.36 C2184.39,1083.42 2184.66,1083.75 2184.66,1086.11 L2184.66,1101.84 C2184.61,1102.67 2184.55,1103 2184.33,1103.27 C2183.95,1103.77 2182.85,1103.99 2180.48,1104.04 L2180.26,1104.04 L2180.26,1106.02 L2194.95,1106.02 L2194.95,1104.04 L2193.96,1104.04 C2190.27,1103.93 2189.78,1103.66 2189.78,1101.68 L2189.78,1098.71 C2189.83,1089.47 2193.13,1082.43 2197.42,1082.21 C2196.65,1083.09 2196.43,1083.64 2196.43,1084.68 C2196.43,1086.44 2197.7,1087.71 2199.46,1087.71 C2201.49,1087.71 2202.81,1086.22 2202.81,1084.02 C2202.81,1081.33 2200.94,1079.57 2198.03,1079.57 C2194.56,1079.57 2191.59,1082.32 2189.78,1087.21 L2189.78,1080.39 M2216.87,1079.57 C2210.11,1079.57 2204.88,1085.56 2204.88,1093.26 C2204.88,1100.8 2210.16,1106.85 2216.76,1106.85 C2223.36,1106.85 2228.64,1100.8 2228.64,1093.21 C2228.64,1085.67 2223.36,1079.57 2216.87,1079.57 M2216.87,1081.93 C2220.72,1081.93 2222.87,1085.95 2222.87,1093.21 C2222.87,1100.52 2220.72,1104.48 2216.76,1104.48 C2212.8,1104.48 2210.66,1100.52 2210.66,1093.26 C2210.66,1085.78 2212.75,1081.93 2216.87,1081.93"/>
<path class="Lyrics" d="M1984.98,2083.46 C1984.98,2079.99 1984.38,2078.23 1982.78,2076.91 C1980.97,2075.43 1978.27,2074.71 1974.75,2074.71 C1968.54,2074.71 1964.03,2077.63 1964.03,2081.64 C1964.03,2083.68 1965.29,2085 1967.22,2085 C1968.98,2085 1970.19,2083.84 1970.19,2082.19 C1970.19,2081.48 1969.91,2080.71 1969.36,2079.94 C1969.03,2079.55 1968.98,2079.44 1968.98,2079.17 C1968.98,2078.07 1971.18,2077.08 1973.82,2077.08 C1975.58,2077.08 1977.5,2077.63 1978.38,2078.45 C1979.43,2079.33 1979.81,2080.65 1979.81,2083.13 L1979.81,2085.27 C1974.09,2086.26 1972.28,2086.7 1969.58,2087.75 C1964.8,2089.51 1962.54,2092.04 1962.54,2095.56 C1962.54,2099.52 1965.62,2101.99 1970.52,2101.99 C1974.31,2101.99 1977.72,2100.45 1980.09,2097.65 C1980.97,2100.45 1982.34,2101.55 1984.93,2101.55 C1987.4,2101.55 1989.99,2099.96 1989.99,2098.36 C1989.99,2097.98 1989.77,2097.7 1989.44,2097.7 C1989.22,2097.7 1989,2097.76 1988.61,2097.92 C1987.84,2098.25 1987.51,2098.31 1987.07,2098.31 C1985.53,2098.31 1984.98,2097.32 1984.98,2094.51 L1984.98,2083.46 M1979.81,2090.17 C1979.81,2093.47 1979.65,2094.24 1978.71,2095.67 C1977.34,2097.7 1974.86,2099.08 1972.44,2099.08 C1969.91,2099.08 1968.1,2097.26 1968.1,2094.79 C1968.1,2092.48 1969.25,2090.83 1971.67,2089.67 C1973.38,2088.9 1975.52,2088.35 1979.81,2087.64 L1979.81,2090.17 M2013.36,2101.55 L2023.37,2101.17 L2023.37,2098.8 L2021.99,2098.8 C2018.8,2098.69 2018.53,2098.36 2018.53,2094.79 L2018.53,2075.54 L2008.19,2076.14 L2008.19,2078.51 L2010.99,2078.51 C2013.08,2078.56 2013.36,2078.89 2013.36,2081.26 L2013.36,2088.02 C2013.36,2092.81 2012.2,2098.64 2006.15,2098.64 C2004.45,2098.64 2003.02,2098.03 2002.3,2096.93 C2001.59,2095.89 2001.48,2095.34 2001.48,2092.31 L2001.48,2075.54 L1991.85,2076.14 L1991.85,2078.51 L1993.94,2078.51 C1996.03,2078.56 1996.31,2078.89 1996.31,2081.26 L1996.31,2093.14 C1996.31,2095.94 1996.53,2097.21 1997.35,2098.47 C1998.84,2100.73 2001.48,2101.99 2004.78,2101.99 C2008.41,2101.99 2010.94,2100.51 2013.36,2096.99 L2013.36,2101.55 "/>
<path class="Lyrics" d="M2372.53,2093.08 C2370.77,2097.04 2368.9,2098.64 2366.04,2098.64 C2361.64,2098.64 2358.89,2094.62 2358.89,2088.19 C2358.89,2081.48 2361.58,2077.08 2365.65,2077.08 C2367.3,2077.08 2368.73,2077.85 2368.73,2078.73 C2368.73,2078.89 2368.68,2079.06 2368.4,2079.39 C2367.52,2080.43 2367.3,2080.98 2367.3,2081.92 C2367.3,2083.73 2368.68,2085 2370.6,2085 C2372.58,2085 2373.96,2083.46 2373.96,2081.26 C2373.96,2077.52 2370.27,2074.71 2365.38,2074.71 C2358.23,2074.71 2353.11,2080.54 2353.11,2088.79 C2353.11,2096.6 2357.79,2101.99 2364.61,2101.99 C2369.5,2101.99 2372.31,2099.74 2374.67,2093.91 L2372.53,2093.08 M2384.39,2061.84 C2382.63,2061.84 2381.2,2063.27 2381.2,2065.03 C2381.2,2066.79 2382.63,2068.22 2384.34,2068.22 C2386.15,2068.22 2387.58,2066.79 2387.58,2065.03 C2387.58,2063.27 2386.15,2061.84 2384.39,2061.84 M2386.98,2075.54 L2376.64,2076.14 L2376.64,2078.51 L2379.44,2078.51 C2381.53,2078.56 2381.81,2078.89 2381.81,2081.26 L2381.81,2096.99 C2381.75,2097.81 2381.7,2098.14 2381.48,2098.42 C2381.09,2098.91 2380.05,2099.13 2377.68,2099.19 L2377.3,2099.19 L2377.3,2101.17 L2391.54,2101.17 L2391.54,2099.19 L2391.16,2099.19 C2387.47,2099.08 2386.98,2098.8 2386.98,2096.82 L2386.98,2075.54 "/>
<path class="Lyrics" d="M2310.12,1099.37 L2303.85,1084.85 C2303.68,1084.41 2303.57,1083.97 2303.57,1083.64 C2303.57,1082.7 2304.29,1082.37 2306.54,1082.37 L2307.31,1082.37 L2307.31,1080.39 L2294.33,1080.39 L2294.33,1082.37 L2294.77,1082.37 C2296.86,1082.37 2297.63,1082.92 2298.4,1084.74 L2307.86,1106.85 L2309.79,1106.85 L2317.6,1087.54 C2319.14,1083.8 2320.46,1082.54 2322.71,1082.37 L2322.93,1082.37 L2322.93,1080.39 L2311.93,1080.39 L2311.93,1082.37 L2312.7,1082.37 C2314.63,1082.37 2315.67,1083.03 2315.67,1084.3 C2315.67,1084.96 2315.51,1085.78 2315.18,1086.61 L2310.12,1099.37 M2333.26,1066.7 C2331.5,1066.7 2330.07,1068.13 2330.07,1069.89 C2330.07,1071.65 2331.5,1073.08 2333.21,1073.08 C2335.02,1073.08 2336.45,1071.65 2336.45,1069.89 C2336.45,1068.13 2335.02,1066.7 2333.26,1066.7 M2335.85,1080.39 L2325.51,1081 L2325.51,1083.36 L2328.31,1083.36 C2330.4,1083.42 2330.68,1083.75 2330.68,1086.11 L2330.68,1101.84 C2330.62,1102.67 2330.57,1103 2330.35,1103.27 C2329.96,1103.77 2328.92,1103.99 2326.55,1104.04 L2326.17,1104.04 L2326.17,1106.02 L2340.41,1106.02 L2340.41,1104.04 L2340.03,1104.04 C2336.34,1103.93 2335.85,1103.66 2335.85,1101.68 L2335.85,1080.39 "/>
<path class="Lyrics" d="M889.221,1088.31 C889.221,1084.85 888.616,1083.09 887.021,1081.77 C885.206,1080.28 882.511,1079.57 878.991,1079.57 C872.776,1079.57 868.266,1082.48 868.266,1086.5 C868.266,1088.53 869.531,1089.85 871.456,1089.85 C873.216,1089.85 874.426,1088.7 874.426,1087.05 C874.426,1086.33 874.151,1085.56 873.601,1084.79 C873.271,1084.41 873.216,1084.3 873.216,1084.02 C873.216,1082.92 875.416,1081.93 878.056,1081.93 C879.816,1081.93 881.741,1082.48 882.621,1083.31 C883.666,1084.19 884.051,1085.51 884.051,1087.98 L884.051,1090.13 C878.331,1091.12 876.516,1091.56 873.821,1092.6 C869.036,1094.36 866.781,1096.89 866.781,1100.41 C866.781,1104.37 869.861,1106.85 874.756,1106.85 C878.551,1106.85 881.961,1105.31 884.326,1102.5 C885.206,1105.31 886.581,1106.41 889.166,1106.41 C891.641,1106.41 894.226,1104.81 894.226,1103.22 C894.226,1102.83 894.006,1102.56 893.676,1102.56 C893.456,1102.56 893.236,1102.61 892.851,1102.78 C892.081,1103.11 891.751,1103.16 891.311,1103.16 C889.771,1103.16 889.221,1102.17 889.221,1099.37 L889.221,1088.31 M884.051,1095.02 C884.051,1098.32 883.886,1099.09 882.951,1100.52 C881.576,1102.56 879.101,1103.93 876.681,1103.93 C874.151,1103.93 872.336,1102.12 872.336,1099.64 C872.336,1097.33 873.491,1095.68 875.911,1094.53 C877.616,1093.76 879.761,1093.21 884.051,1092.49 L884.051,1095.02 M904.839,1065.49 L895.379,1066.09 L895.379,1068.46 L897.304,1068.46 C899.394,1068.51 899.669,1068.84 899.669,1071.21 L899.669,1092.6 C899.669,1100.25 899.339,1104.43 898.679,1106.79 L900.769,1106.79 L903.464,1102.5 C905.719,1105.47 908.304,1106.85 911.714,1106.85 C918.534,1106.85 923.539,1101.02 923.539,1093.04 C923.539,1085.12 918.919,1079.57 912.319,1079.57 C908.964,1079.57 906.929,1080.72 904.839,1083.86 L904.839,1065.49 M911.329,1082.37 C915.454,1082.37 917.764,1086.39 917.764,1093.59 C917.764,1100.58 915.509,1104.48 911.494,1104.48 C907.149,1104.48 904.564,1100.47 904.564,1093.7 C904.564,1086.33 906.929,1082.37 911.329,1082.37"/>
<path class="Lyrics" d="M1638.71,2075.54 L1638.71,2072.4 C1638.71,2069.65 1638.87,2067.84 1639.31,2066.74 C1640.19,2064.32 1642.12,2062.83 1644.32,2062.83 C1645.47,2062.83 1646.19,2063.16 1646.19,2063.77 C1646.19,2063.99 1646.19,2064.04 1645.86,2064.48 C1645.53,2064.98 1645.36,2065.64 1645.36,2066.24 C1645.36,2067.89 1646.68,2069.16 1648.39,2069.16 C1650.2,2069.16 1651.47,2067.78 1651.47,2065.8 C1651.47,2062.61 1648.72,2060.63 1644.26,2060.63 C1640.47,2060.63 1637.66,2061.95 1635.74,2064.7 C1634.09,2067.01 1633.54,2069.38 1633.54,2073.83 L1633.54,2075.54 L1628.7,2075.54 L1628.7,2077.9 L1633.54,2077.9 L1633.54,2096.99 C1633.48,2097.76 1633.43,2098.09 1633.21,2098.42 C1632.82,2098.91 1631.78,2099.13 1629.41,2099.19 L1629.19,2099.19 L1629.19,2101.17 L1643.88,2101.17 L1643.88,2099.19 L1642.89,2099.19 C1639.2,2099.08 1638.71,2098.8 1638.71,2096.82 L1638.71,2077.9 L1644.76,2077.9 L1644.76,2075.54 L1638.71,2075.54 M1670.06,2088.79 C1670.11,2080.54 1665.44,2074.71 1658.73,2074.71 C1651.69,2074.71 1646.41,2080.82 1646.41,2089.07 C1646.41,2096.82 1651.41,2101.99 1658.84,2101.99 C1664.12,2101.99 1667.8,2099.41 1670.06,2094.18 L1668.13,2093.14 C1665.88,2097.37 1663.57,2099.02 1659.88,2099.02 C1657.08,2099.02 1655.04,2097.87 1653.61,2095.39 C1652.62,2093.74 1652.18,2091.82 1652.24,2088.79 L1670.06,2088.79 M1652.29,2086.43 C1652.29,2082.58 1654.05,2077.08 1658.67,2077.08 C1661.97,2077.08 1664.17,2079.99 1664.17,2084.45 C1664.17,2085.99 1663.68,2086.43 1661.92,2086.43 L1652.29,2086.43 "/>
<path class="Lyrics" d="M708.9,1106.41 L718.91,1106.02 L718.91,1103.66 L717.535,1103.66 C714.345,1103.55 714.07,1103.22 714.07,1099.64 L714.07,1080.39 L703.73,1081 L703.73,1083.36 L706.535,1083.36 C708.625,1083.42 708.9,1083.75 708.9,1086.11 L708.9,1092.88 C708.9,1097.66 707.745,1103.49 701.695,1103.49 C699.99,1103.49 698.56,1102.89 697.845,1101.79 C697.13,1100.74 697.02,1100.19 697.02,1097.17 L697.02,1080.39 L687.395,1081 L687.395,1083.36 L689.485,1083.36 C691.575,1083.42 691.85,1083.75 691.85,1086.11 L691.85,1097.99 C691.85,1100.8 692.07,1102.06 692.895,1103.33 C694.38,1105.58 697.02,1106.85 700.32,1106.85 C703.95,1106.85 706.48,1105.36 708.9,1101.84 L708.9,1106.41 M730.889,1080.39 L721.099,1081 L721.099,1083.36 L723.354,1083.36 C725.444,1083.42 725.719,1083.75 725.719,1086.11 L725.719,1101.84 C725.664,1102.67 725.609,1103 725.389,1103.27 C725.004,1103.77 723.959,1103.99 721.594,1104.04 L721.374,1104.04 L721.374,1106.02 L735.234,1106.02 L735.234,1104.04 L735.014,1104.04 C731.384,1103.93 730.889,1103.66 730.889,1101.62 L730.889,1091.45 C730.889,1086.55 733.584,1082.92 737.159,1082.92 C740.294,1082.92 741.889,1085.18 741.889,1089.63 L741.889,1101.9 C741.834,1102.61 741.779,1103 741.504,1103.27 C741.174,1103.77 740.074,1103.99 737.709,1104.04 L737.489,1104.04 L737.489,1106.02 L751.404,1106.02 L751.404,1104.04 L751.184,1104.04 C747.554,1103.93 747.059,1103.66 747.059,1101.68 L747.059,1091.94 C747.059,1086.44 749.534,1082.92 753.384,1082.92 C756.519,1082.92 758.059,1085.29 758.059,1090.24 L758.059,1101.84 C758.004,1102.61 757.949,1103 757.674,1103.27 C757.344,1103.77 756.244,1103.99 753.879,1104.04 L753.659,1104.04 L753.659,1106.02 L767.574,1106.02 L767.574,1104.04 L767.354,1104.04 C763.724,1103.93 763.229,1103.66 763.229,1101.62 L763.229,1089.14 C763.229,1085.73 762.899,1084.57 761.469,1082.7 C759.874,1080.67 757.619,1079.57 754.979,1079.57 C751.404,1079.57 748.764,1081.27 746.399,1085.07 C745.464,1081.77 742.494,1079.57 738.809,1079.57 C735.454,1079.57 733.034,1081.16 730.889,1084.63 L730.889,1080.39 "/>
<path class="Lyrics" d="M2446.83,1079.79 L2444.91,1079.79 L2443.31,1081.77 C2441.33,1080.23 2439.35,1079.57 2436.6,1079.57 C2431.76,1079.57 2428.57,1082.7 2428.57,1087.54 C2428.57,1092.71 2431.93,1094.03 2436.33,1095.08 L2439.24,1095.74 C2443.59,1096.78 2445.13,1097.88 2445.13,1100.08 C2445.13,1102.67 2442.87,1104.48 2439.68,1104.48 C2435.01,1104.48 2431.71,1101.51 2430.39,1096.01 L2428.19,1096.01 L2428.19,1106.41 L2430.11,1106.41 L2432.04,1104.15 C2434.29,1105.97 2436.77,1106.85 2439.57,1106.85 C2444.96,1106.85 2448.54,1103.49 2448.54,1098.38 C2448.54,1095.96 2447.77,1094.09 2446.23,1092.82 C2444.91,1091.67 2443.81,1091.23 2440.45,1090.51 L2437.7,1089.91 C2434.68,1089.25 2434.68,1089.25 2433.69,1088.7 C2432.48,1088.15 2431.76,1086.99 2431.76,1085.78 C2431.76,1083.53 2433.85,1081.99 2436.88,1081.99 C2441.39,1081.99 2443.59,1085.18 2444.91,1089.03 L2446.83,1089.03 L2446.83,1079.79 M2459.58,1066.7 C2457.82,1066.7 2456.39,1068.13 2456.39,1069.89 C2456.39,1071.65 2457.82,1073.08 2459.52,1073.08 C2461.34,1073.08 2462.77,1071.65 2462.77,1069.89 C2462.77,1068.13 2461.34,1066.7 2459.58,1066.7 M2462.16,1080.39 L2451.82,1081 L2451.82,1083.36 L2454.63,1083.36 C2456.72,1083.42 2456.99,1083.75 2456.99,1086.11 L2456.99,1101.84 C2456.94,1102.67 2456.88,1103 2456.66,1103.27 C2456.28,1103.77 2455.23,1103.99 2452.87,1104.04 L2452.48,1104.04 L2452.48,1106.02 L2466.73,1106.02 L2466.73,1104.04 L2466.34,1104.04 C2462.66,1103.93 2462.16,1103.66 2462.16,1101.68 L2462.16,1080.39 "/>
<path class="Lyrics" d="M2605.03,2074.71 C2598.27,2074.71 2593.04,2080.71 2593.04,2088.41 C2593.04,2095.94 2598.32,2101.99 2604.92,2101.99 C2611.52,2101.99 2616.8,2095.94 2616.8,2088.35 C2616.8,2080.82 2611.52,2074.71 2605.03,2074.71 M2605.03,2077.08 C2608.88,2077.08 2611.03,2081.09 2611.03,2088.35 C2611.03,2095.67 2608.88,2099.63 2604.92,2099.63 C2600.96,2099.63 2598.82,2095.67 2598.82,2088.41 C2598.82,2080.93 2600.91,2077.08 2605.03,2077.08 M2625.44,2095.06 C2623.52,2095.06 2621.98,2096.6 2621.98,2098.47 C2621.98,2100.4 2623.52,2101.94 2625.39,2101.94 C2627.31,2101.94 2628.85,2100.4 2628.85,2098.47 C2628.85,2096.6 2627.31,2095.06 2625.44,2095.06"/>
<path class="Lyrics" d="M1788.99,2060.63 L1778.81,2061.24 L1778.81,2063.6 L1781.51,2063.6 C1783.54,2063.66 1783.82,2063.99 1783.82,2066.35 L1783.82,2096.99 C1783.76,2097.81 1783.71,2098.14 1783.49,2098.42 C1783.1,2098.91 1782.06,2099.13 1779.69,2099.19 L1779.31,2099.19 L1779.31,2101.17 L1793.55,2101.17 L1793.55,2099.19 L1793.17,2099.19 C1789.48,2099.08 1788.99,2098.8 1788.99,2096.82 L1788.99,2060.63 M1803.82,2061.84 C1802.06,2061.84 1800.63,2063.27 1800.63,2065.03 C1800.63,2066.79 1802.06,2068.22 1803.77,2068.22 C1805.58,2068.22 1807.01,2066.79 1807.01,2065.03 C1807.01,2063.27 1805.58,2061.84 1803.82,2061.84 M1806.41,2075.54 L1796.07,2076.14 L1796.07,2078.51 L1798.87,2078.51 C1800.96,2078.56 1801.24,2078.89 1801.24,2081.26 L1801.24,2096.99 C1801.18,2097.81 1801.13,2098.14 1800.91,2098.42 C1800.52,2098.91 1799.48,2099.13 1797.11,2099.19 L1796.73,2099.19 L1796.73,2101.17 L1810.97,2101.17 L1810.97,2099.19 L1810.59,2099.19 C1806.9,2099.08 1806.41,2098.8 1806.41,2096.82 L1806.41,2075.54 M1829.39,2087.14 L1835.66,2079.83 C1837.03,2078.23 1838.3,2077.52 1839.78,2077.52 L1840.28,2077.52 L1840.28,2075.54 L1828.89,2075.54 L1828.89,2077.52 L1829.94,2077.52 C1831.59,2077.52 1832.41,2077.9 1832.41,2078.73 C1832.41,2079.28 1832.03,2080.05 1831.31,2080.93 L1827.85,2085.11 L1823.61,2079.72 C1823.28,2079.28 1823.06,2078.84 1823.06,2078.51 C1823.06,2077.79 1823.78,2077.52 1825.48,2077.52 L1826.25,2077.52 L1826.25,2075.54 L1813.22,2075.54 L1813.22,2077.52 C1815.25,2077.68 1816.02,2078.18 1817.78,2080.49 L1824.49,2088.9 L1818.17,2096.27 C1816.3,2098.36 1814.7,2099.24 1813.22,2099.19 L1812.89,2099.19 L1812.89,2101.17 L1824.49,2101.17 L1824.49,2099.19 L1823.67,2099.19 C1822.4,2099.19 1822.13,2099.13 1821.74,2098.97 C1821.3,2098.69 1820.97,2098.2 1820.97,2097.7 C1820.97,2097.32 1821.14,2096.82 1821.41,2096.49 L1826.03,2090.99 L1830.21,2096.55 C1830.6,2097.1 1830.93,2097.81 1830.93,2098.2 C1830.93,2098.91 1830.1,2099.19 1828.01,2099.19 L1827.63,2099.19 L1827.63,2101.17 L1841.49,2101.17 L1841.49,2099.19 L1841.1,2099.19 C1839.18,2099.19 1837.91,2098.47 1836.32,2096.49 L1829.39,2087.14 "/>
<path class="Lyrics" d="M954.96,2061.84 C953.2,2061.84 951.77,2063.27 951.77,2065.03 C951.77,2066.79 953.2,2068.22 954.905,2068.22 C956.72,2068.22 958.15,2066.79 958.15,2065.03 C958.15,2063.27 956.72,2061.84 954.96,2061.84 M957.545,2075.54 L947.205,2076.14 L947.205,2078.51 L950.01,2078.51 C952.1,2078.56 952.375,2078.89 952.375,2081.26 L952.375,2096.99 C952.32,2097.81 952.265,2098.14 952.045,2098.42 C951.66,2098.91 950.615,2099.13 948.25,2099.19 L947.865,2099.19 L947.865,2101.17 L962.11,2101.17 L962.11,2099.19 L961.725,2099.19 C958.04,2099.08 957.545,2098.8 957.545,2096.82 L957.545,2075.54 M986.187,2101.55 L996.197,2101.17 L996.197,2098.8 L994.822,2098.8 C991.632,2098.69 991.357,2098.36 991.357,2094.79 L991.357,2075.54 L981.017,2076.14 L981.017,2078.51 L983.822,2078.51 C985.912,2078.56 986.187,2078.89 986.187,2081.26 L986.187,2088.02 C986.187,2092.81 985.032,2098.64 978.982,2098.64 C977.277,2098.64 975.847,2098.03 975.132,2096.93 C974.417,2095.89 974.307,2095.34 974.307,2092.31 L974.307,2075.54 L964.682,2076.14 L964.682,2078.51 L966.772,2078.51 C968.862,2078.56 969.137,2078.89 969.137,2081.26 L969.137,2093.14 C969.137,2095.94 969.357,2097.21 970.182,2098.47 C971.667,2100.73 974.307,2101.99 977.607,2101.99 C981.237,2101.99 983.767,2100.51 986.187,2096.99 L986.187,2101.55 "/>
<polyline class="TextLineSegment" fill="none" stroke="#000000" stroke-width="3.89" stroke-linejoin="miter" stroke-miterlimit="2" points="2428.18,242.18 2428.18,214.542 2603.41,214.542 2603.41,242.18" />
<polyline class="TextLineSegment" fill="none" stroke="#000000" stroke-width="3.89" stroke-linejoin="miter" stroke-miterlimit="2" points="506.715,255.014 506.715,227.376 681.943,227.376 681.943,255.014" />
<polyline class="TextLineSegment" fill="none" stroke="#000000" stroke-width="3.89" stroke-linejoin="miter" stroke-miterlimit="2" points="953.993,1279.84 953.993,1252.2 1122.68,1252.2 1122.68,1279.84" />
<polyline class="TextLineSegment" fill="none" stroke="#000000" stroke-width="3.89" stroke-linejoin="miter" stroke-miterlimit="2" points="1563.16,545.211 1563.16,517.573 1718.1,517.573 1718.1,545.211" />
<polyline class="TextLineSegment" fill="none" stroke="#000000" stroke-width="3.89" stroke-linejoin="miter" stroke-miterlimit="2" points="1006.27,545.211 1006.27,517.573 1181.5,517.573 1181.5,545.211" />
<polyline class="TextLineSegment" fill="none" stroke="#000000" stroke-width="3.89" stroke-linejoin="miter" stroke-miterlimit="2" points="2354.66,1570.04 2354.66,1542.4 2559.32,1542.4 2559.32,1570.04" />
<polyline class="TextLineSegment" fill="none" stroke="#000000" stroke-width="3.89" stroke-linejoin="miter" stroke-miterlimit="2" points="1778.8,1570.04 1778.8,1542.4 1947.48,1542.4 1947.48,1570.04" />
<polyline class="TextLineSegment" fill="none" stroke="#000000" stroke-width="3.89" stroke-linejoin="miter" stroke-miterlimit="2" points="525.372,1570.04 525.372,1542.4 694.055,1542.4 694.055,1570.04" />
<polyline class="TextLineSegment" fill="none" stroke="#000000" stroke-width="3.89" stroke-linejoin="miter" stroke-miterlimit="2" points="506.715,545.211 506.715,517.573 681.943,517.573 681.943,545.211" />
<polyline class="TextLineSegment" fill="none" stroke="#000000" stroke-width="3.89" stroke-linejoin="miter" stroke-miterlimit="2" points="2428.18,545.211 2428.18,517.573 2603.41,517.573 2603.41,545.211" />
<polyline class="TextLineSegment" fill="none" stroke="#000000" stroke-width="3.89" stroke-linejoin="miter" stroke-miterlimit="2" points="2122.36,1860.24 2122.36,1832.6 2327.02,1832.6 2327.02,1860.24" />
<polyline class="TextLineSegment" fill="none" stroke="#000000" stroke-width="3.89" stroke-linejoin="miter" stroke-miterlimit="2" points="1778.8,1860.24 1778.8,1832.6 1947.48,1832.6 1947.48,1860.24" />
<polyline class="TextLineSegment" fill="none" stroke="#000000" stroke-width="3.89" stroke-linejoin="miter" stroke-miterlimit="2" points="799.126,1860.24 799.126,1832.6 926.355,1832.6 926.355,1860.24" />
<polyline class="TextLineSegment" fill="none" stroke="#000000" stroke-width="3.89" stroke-linejoin="miter" stroke-miterlimit="2" points="506.715,835.408 506.715,807.77 681.943,807.77 681.943,835.408" />
<polyline class="TextLineSegment" fill="none" stroke="#000000" stroke-width="3.89" stroke-linejoin="miter" stroke-miterlimit="2" points="2428.18,835.408 2428.18,807.77 2603.41,807.77 2603.41,835.408" />
<polyline class="TextLineSegment" fill="none" stroke="#000000" stroke-width="3.89" stroke-linejoin="miter" stroke-miterlimit="2" points="1391.71,835.408 1391.71,807.77 1535.52,807.77 1535.52,835.408" />
<polyline class="LyricsLineSegment" fill="none" stroke="#000000" stroke-width="2.76" stroke-linejoin="bevel" points="2253.41,1093.21 2269.99,1093.21" />
<polyline class="LyricsLineSegment" fill="none" stroke="#000000" stroke-width="2.76" stroke-linejoin="bevel" points="1491.46,1093.21 1508.04,1093.21" />
<polyline class="LyricsLineSegment" fill="none" stroke="#000000" stroke-width="2.76" stroke-linejoin="bevel" points="2376.19,1093.21 2392.77,1093.21" />
<polyline class="LyricsLineSegment" fill="none" stroke="#000000" stroke-width="2.76" stroke-linejoin="bevel" points="462.11,1093.21 478.693,1093.21" />
<polyline class="LyricsLineSegment" fill="none" stroke="#000000" stroke-width="2.76" stroke-linejoin="bevel" points="609.127,1093.21 625.71,1093.21" />
<polyline class="LyricsLineSegment" fill="none" stroke="#000000" stroke-width="2.76" stroke-linejoin="bevel" points="1129.27,1093.21 1145.85,1093.21" />
<polyline class="LyricsLineSegment" fill="none" stroke="#000000" stroke-width="2.76" stroke-linejoin="bevel" points="1261.38,1104.64 1374.9,1104.64" />
<polyline class="LyricsLineSegment" fill="none" stroke="#000000" stroke-width="2.76" stroke-linejoin="bevel" points="2543.87,1093.21 2560.45,1093.21" />
<polyline class="LyricsLineSegment" fill="none" stroke="#000000" stroke-width="2.76" stroke-linejoin="bevel" points="1673.91,1093.21 1690.5,1093.21" />
<polyline class="LyricsLineSegment" fill="none" stroke="#000000" stroke-width="2.76" stroke-linejoin="bevel" points="785.908,2099.78 912.472,2099.78" />
<polyline class="LyricsLineSegment" fill="none" stroke="#000000" stroke-width="2.76" stroke-linejoin="bevel" points="1716.28,2088.35 1732.86,2088.35" />
<polyline class="LyricsLineSegment" fill="none" stroke="#000000" stroke-width="2.76" stroke-linejoin="bevel" points="2484.29,2088.35 2500.87,2088.35" />
<polyline class="LyricsLineSegment" fill="none" stroke="#000000" stroke-width="2.76" stroke-linejoin="bevel" points="1062.51,2088.35 1079.09,2088.35" />
<polyline class="LyricsLineSegment" fill="none" stroke="#000000" stroke-width="2.76" stroke-linejoin="bevel" points="1847.89,2099.78 1912.87,2099.78" />
<polyline class="LyricsLineSegment" fill="none" stroke="#000000" stroke-width="2.76" stroke-linejoin="bevel" points="1235.1,2088.35 1251.69,2088.35" />
<polyline class="LyricsLineSegment" fill="none" stroke="#000000" stroke-width="2.76" stroke-linejoin="bevel" points="2252.2,2088.35 2268.79,2088.35" />
<polyline class="LyricsLineSegment" fill="none" stroke="#000000" stroke-width="2.76" stroke-linejoin="bevel" points="1370.94,2088.35 1387.53,2088.35" />
<polyline class="LyricsLineSegment" fill="none" stroke="#000000" stroke-width="2.76" stroke-linejoin="bevel" points="2064.7,2088.35 2081.28,2088.35" />
<polyline class="Bracket" fill="none" stroke="#000000" stroke-width="12.44" stroke-linejoin="bevel" points="193.943,1280.67 193.943,2011.69" />
<path class="Bracket" transform="matrix(1.10551,0,0,1.10551,187.742,1286.89)" d="M48.4,-27.7 C48.2,-27.8 47.9,-27.9 47.7,-27.9 C47.3,-27.9 46.8,-27.8 46.6,-27.4 C46.4,-27.1 36.4,-11.7 17.3,-11.7 L1.4,-11.7 C0.6,-11.7 0,-11.2 0,-10.4 L0,0 L12.2,0 C43,0 48.9,-25.7 49,-26 C49,-26.1 49.1,-26.3 49.1,-26.5 C49.1,-27 48.8,-27.4 48.4,-27.7"/>
<path class="Bracket" transform="matrix(1.10551,0,0,1.10551,187.742,2005.47)" d="M48.4,27.7 C48.8,27.4 49.1,27 49.1,26.5 C49.1,26.3 49,26.1 49,26 C48.9,25.7 43,0 12.2,0 L0,0 L0,10.4 C0,11.2 0.6,11.7 1.4,11.7 L17.3,11.7 C36.4,11.7 46.4,27.1 46.6,27.4 C46.8,27.8 47.3,27.9 47.7,27.9 C47.9,27.9 48.2,27.8 48.4,27.7"/>
<polyline class="Bracket" fill="none" stroke="#000000" stroke-width="3.04" stroke-linejoin="bevel" points="172.385,1300.71 172.385,1991.65" />
<polyline class="Bracket" fill="none" stroke="#000000" stroke-width="3.04" stroke-linejoin="bevel" points="170.865,1300.71 187.724,1300.71" />
<polyline class="Bracket" fill="none" stroke="#000000" stroke-width="3.04" stroke-linejoin="bevel" points="170.865,1991.65 187.724,1991.65" />
<polyline class="Bracket" fill="none" stroke="#000000" stroke-width="3.04" stroke-linejoin="bevel" points="172.385,275.881 172.385,966.826" />
<polyline class="Bracket" fill="none" stroke="#000000" stroke-width="3.04" stroke-linejoin="bevel" points="170.865,275.881 187.724,275.881" />
<polyline class="Bracket" fill="none" stroke="#000000" stroke-width="3.04" stroke-linejoin="bevel" points="170.865,966.826 187.724,966.826" />
<polyline class="Bracket" fill="none" stroke="#000000" stroke-width="12.44" stroke-linejoin="bevel" points="193.943,255.843 193.943,986.863" />
<path class="Bracket" transform="matrix(1.10551,0,0,1.10551,187.742,262.062)" d="M48.4,-27.7 C48.2,-27.8 47.9,-27.9 47.7,-27.9 C47.3,-27.9 46.8,-27.8 46.6,-27.4 C46.4,-27.1 36.4,-11.7 17.3,-11.7 L1.4,-11.7 C0.6,-11.7 0,-11.2 0,-10.4 L0,0 L12.2,0 C43,0 48.9,-25.7 49,-26 C49,-26.1 49.1,-26.3 49.1,-26.5 C49.1,-27 48.8,-27.4 48.4,-27.7"/>
<path class="Bracket" transform="matrix(1.10551,0,0,1.10551,187.742,980.645)" d="M48.4,27.7 C48.8,27.4 49.1,27 49.1,26.5 C49.1,26.3 49,26.1 49,26 C48.9,25.7 43,0 12.2,0 L0,0 L0,10.4 C0,11.2 0.6,11.7 1.4,11.7 L17.3,11.7 C36.4,11.7 46.4,27.1 46.6,27.4 C46.8,27.8 47.3,27.9 47.7,27.9 C47.9,27.9 48.2,27.8 48.4,27.7"/>
</svg>
