<?xml version="1.0" encoding="UTF-8" standalone="no"?>
<svg width="210.058mm" height="296.926mm" viewBox="0 0 2977.2 4208.4"
 xmlns="http://www.w3.org/2000/svg" xmlns:xlink="http://www.w3.org/1999/xlink" version="1.2" baseProfile="full">
<title>CB027_esau (2)</title>
<desc>Generated by MuseScore Studio 4.6.2</desc>
<polyline class="StaffLines" fill="none" stroke="#000000" stroke-width="2.96" stroke-linejoin="bevel" points="212.598,251.359 1346.59,251.359" />
<polyline class="StaffLines" fill="none" stroke="#000000" stroke-width="2.96" stroke-linejoin="bevel" points="212.598,278.289 1346.59,278.289" />
<polyline class="StaffLines" fill="none" stroke="#000000" stroke-width="2.96" stroke-linejoin="bevel" points="212.598,305.218 1346.59,305.218" />
<polyline class="StaffLines" fill="none" stroke="#000000" stroke-width="2.96" stroke-linejoin="bevel" points="212.598,332.147 1346.59,332.147" />
<polyline class="StaffLines" fill="none" stroke="#000000" stroke-width="2.96" stroke-linejoin="bevel" points="212.598,359.076 1346.59,359.076" />
<polyline class="StaffLines" fill="none" stroke="#000000" stroke-width="2.96" stroke-linejoin="bevel" points="212.598,587.974 1516.53,587.974" />
<polyline class="StaffLines" fill="none" stroke="#000000" stroke-width="2.96" stroke-linejoin="bevel" points="212.598,614.903 1516.53,614.903" />
<polyline class="StaffLines" fill="none" stroke="#000000" stroke-width="2.96" stroke-linejoin="bevel" points="212.598,641.832 1516.53,641.832" />
<polyline class="StaffLines" fill="none" stroke="#000000" stroke-width="2.96" stroke-linejoin="bevel" points="212.598,668.761 1516.53,668.761" />
<polyline class="StaffLines" fill="none" stroke="#000000" stroke-width="2.96" stroke-linejoin="bevel" points="212.598,695.69 1516.53,695.69" />
<polyline class="BarLine" fill="none" stroke="#000000" stroke-width="4.85" stroke-linejoin="bevel" points="1489.33,586.493 1489.33,697.171" />
<polyline class="BarLine" fill="none" stroke="#000000" stroke-width="14.81" stroke-linejoin="bevel" points="1509.12,586.493 1509.12,697.171" />
<path class="SlurSegment" fill="#ff2600" stroke="#ff2600" stroke-width="1.35" stroke-linecap="round" stroke-linejoin="round" fill-rule="evenodd" d="M1284.48,733.391 C1296.55,753.732 1327.97,760.464 1347.32,746.856 C1326.53,767.191 1295.11,760.458 1284.48,733.391"/>
<path class="SlurSegment" fill="#ff2600" stroke="#ff2600" stroke-width="1.35" stroke-linecap="round" stroke-linejoin="round" fill-rule="evenodd" d="M1008.75,679.533 C1055.65,726.794 1165.94,753.723 1229.34,733.391 C1163.89,762.094 1053.6,735.165 1008.75,679.533"/>
<path class="SlurSegment" fill="#ff2600" stroke="#ff2600" stroke-width="1.35" stroke-linecap="round" stroke-linejoin="round" fill-rule="evenodd" d="M860.052,706.462 C890.626,721.046 940.193,707.582 959.186,679.533 C942.4,715.705 892.833,729.17 860.052,706.462"/>
<path class="SlurSegment" fill="#ff2600" stroke="#ff2600" stroke-width="1.35" stroke-linecap="round" stroke-linejoin="round" fill-rule="evenodd" d="M617.099,679.533 C636.092,707.582 685.659,721.046 716.233,706.462 C683.452,729.17 633.885,715.705 617.099,679.533"/>
<path class="SlurSegment" fill="#ff2600" stroke="#ff2600" stroke-width="1.35" stroke-linecap="round" stroke-linejoin="round" fill-rule="evenodd" d="M1238.42,369.848 C1250.49,390.189 1281.91,396.921 1301.25,383.312 C1280.46,403.647 1249.05,396.915 1238.42,369.848"/>
<path class="SlurSegment" fill="#ff2600" stroke="#ff2600" stroke-width="1.35" stroke-linecap="round" stroke-linejoin="round" fill-rule="evenodd" d="M1112.75,342.919 C1122.52,365.184 1153.94,376.359 1175.58,365.27 C1151.6,382.932 1120.19,371.757 1112.75,342.919"/>
<path class="SlurSegment" fill="#ff2600" stroke="#ff2600" stroke-width="1.35" stroke-linecap="round" stroke-linejoin="round" fill-rule="evenodd" d="M987.079,294.446 C994.517,265.608 1025.93,254.432 1049.91,272.095 C1028.27,261.005 996.855,272.181 987.079,294.446"/>
<path class="SlurSegment" fill="#ff2600" stroke="#ff2600" stroke-width="1.35" stroke-linecap="round" stroke-linejoin="round" fill-rule="evenodd" d="M711.351,245.166 C776.793,216.463 887.084,243.392 931.933,299.024 C885.04,251.763 774.749,224.834 711.351,245.166"/>
<polyline class="LedgerLine" fill="none" stroke="#000000" stroke-width="4.31" stroke-linejoin="bevel" points="1320.93,722.619 1373.7,722.619" />
<path class="Note" fill="#ff2600" transform="matrix(1.07717,0,0,1.07717,748.305,655.296)" d="M0,4.2 C0,8.5 3.1,13.3 11.2,13.3 C21.6,13.3 32.5,4.8 32.5,-4 C32.5,-9.9 27.5,-13.2 21.3,-13.2 C11.6,-13.2 0,-5 0,4.2"/>
<path class="Note" fill="#ff2600" transform="matrix(1.07717,0,0,1.07717,649.171,668.761)" d="M0,4.2 C0,8.5 3.1,13.3 11.2,13.3 C21.6,13.3 32.5,4.8 32.5,-4 C32.5,-9.9 27.5,-13.2 21.3,-13.2 C11.6,-13.2 0,-5 0,4.2"/>
<path class="Note" fill="#ff2600" transform="matrix(1.07717,0,0,1.07717,1329.82,722.619)" d="M0,4.2 C0,8.5 3.1,13.3 11.2,13.3 C21.6,13.3 32.5,4.8 32.5,-4 C32.5,-9.9 27.5,-13.2 21.3,-13.2 C11.6,-13.2 0,-5 0,4.2"/>
<path class="Note" fill="#ff2600" transform="matrix(1.07717,0,0,1.07717,1032.42,305.218)" d="M0,4.2 C0,8.5 3.1,13.3 11.2,13.3 C21.6,13.3 32.5,4.8 32.5,-4 C32.5,-9.9 27.5,-13.2 21.3,-13.2 C11.6,-13.2 0,-5 0,4.2"/>
<path class="Note" fill="#ff2600" transform="matrix(1.07717,0,0,1.07717,1095.25,318.682)" d="M0,4.2 C0,8.5 3.1,13.3 11.2,13.3 C21.6,13.3 32.5,4.8 32.5,-4 C32.5,-9.9 27.5,-13.2 21.3,-13.2 C11.6,-13.2 0,-5 0,4.2"/>
<path class="Note" fill="#ff2600" transform="matrix(1.07717,0,0,1.07717,914.438,332.147)" d="M0,4.2 C0,8.5 3.1,13.3 11.2,13.3 C21.6,13.3 32.5,4.8 32.5,-4 C32.5,-9.9 27.5,-13.2 21.3,-13.2 C11.6,-13.2 0,-5 0,4.2"/>
<path class="Note" fill="#ff2600" transform="matrix(1.07717,0,0,1.07717,1158.09,332.147)" d="M0,4.2 C0,8.5 3.1,13.3 11.2,13.3 C21.6,13.3 32.5,4.8 32.5,-4 C32.5,-9.9 27.5,-13.2 21.3,-13.2 C11.6,-13.2 0,-5 0,4.2"/>
<path class="Note" fill="#ff2600" transform="matrix(1.07717,0,0,1.07717,1220.92,345.611)" d="M0,4.2 C0,8.5 3.1,13.3 11.2,13.3 C21.6,13.3 32.5,4.8 32.5,-4 C32.5,-9.9 27.5,-13.2 21.3,-13.2 C11.6,-13.2 0,-5 0,4.2"/>
<path class="Note" fill="#ff2600" transform="matrix(1.07717,0,0,1.07717,1266.99,709.155)" d="M0,4.2 C0,8.5 3.1,13.3 11.2,13.3 C21.6,13.3 32.5,4.8 32.5,-4 C32.5,-9.9 27.5,-13.2 21.3,-13.2 C11.6,-13.2 0,-5 0,4.2"/>
<path class="Note" fill="#ff2600" transform="matrix(1.07717,0,0,1.07717,1283.76,359.076)" d="M0,4.2 C0,8.5 3.1,13.3 11.2,13.3 C21.6,13.3 32.5,4.8 32.5,-4 C32.5,-9.9 27.5,-13.2 21.3,-13.2 C11.6,-13.2 0,-5 0,4.2"/>
<path class="Note" fill="#ff2600" transform="matrix(1.07717,0,0,1.07717,859.292,318.682)" d="M0,4.2 C0,8.5 3.1,13.3 11.2,13.3 C21.6,13.3 32.5,4.8 32.5,-4 C32.5,-9.9 27.5,-13.2 21.3,-13.2 C11.6,-13.2 0,-5 0,4.2"/>
<path class="Note" fill="#ff2600" transform="matrix(1.07717,0,0,1.07717,804.147,305.218)" d="M0,4.2 C0,8.5 3.1,13.3 11.2,13.3 C21.6,13.3 32.5,4.8 32.5,-4 C32.5,-9.9 27.5,-13.2 21.3,-13.2 C11.6,-13.2 0,-5 0,4.2"/>
<path class="Note" fill="#ff2600" transform="matrix(1.07717,0,0,1.07717,749.001,291.753)" d="M0,4.2 C0,8.5 3.1,13.3 11.2,13.3 C21.6,13.3 32.5,4.8 32.5,-4 C32.5,-9.9 27.5,-13.2 21.3,-13.2 C11.6,-13.2 0,-5 0,4.2"/>
<path class="Note" fill="#ff2600" transform="matrix(1.07717,0,0,1.07717,1392.65,709.155)" d="M0,4.2 C0,8.5 3.1,13.3 11.2,13.3 C21.6,13.3 32.5,4.8 32.5,-4 C32.5,-9.9 27.5,-13.2 21.3,-13.2 C11.6,-13.2 0,-5 0,4.2"/>
<path class="Note" fill="#ff2600" transform="matrix(1.07717,0,0,1.07717,693.856,278.289)" d="M0,4.2 C0,8.5 3.1,13.3 11.2,13.3 C21.6,13.3 32.5,4.8 32.5,-4 C32.5,-9.9 27.5,-13.2 21.3,-13.2 C11.6,-13.2 0,-5 0,4.2"/>
<path class="Note" fill="#ff2600" transform="matrix(1.07717,0,0,1.07717,1211.84,709.155)" d="M0,4.2 C0,8.5 3.1,13.3 11.2,13.3 C21.6,13.3 32.5,4.8 32.5,-4 C32.5,-9.9 27.5,-13.2 21.3,-13.2 C11.6,-13.2 0,-5 0,4.2"/>
<path class="Note" fill="#ff2600" transform="matrix(1.07717,0,0,1.07717,1156.69,695.69)" d="M0,4.2 C0,8.5 3.1,13.3 11.2,13.3 C21.6,13.3 32.5,4.8 32.5,-4 C32.5,-9.9 27.5,-13.2 21.3,-13.2 C11.6,-13.2 0,-5 0,4.2"/>
<path class="Note" fill="#ff2600" transform="matrix(1.07717,0,0,1.07717,1101.55,682.226)" d="M0,4.2 C0,8.5 3.1,13.3 11.2,13.3 C21.6,13.3 32.5,4.8 32.5,-4 C32.5,-9.9 27.5,-13.2 21.3,-13.2 C11.6,-13.2 0,-5 0,4.2"/>
<path class="Note" fill="#ff2600" transform="matrix(1.07717,0,0,1.07717,1046.4,668.761)" d="M0,4.2 C0,8.5 3.1,13.3 11.2,13.3 C21.6,13.3 32.5,4.8 32.5,-4 C32.5,-9.9 27.5,-13.2 21.3,-13.2 C11.6,-13.2 0,-5 0,4.2"/>
<path class="Note" fill="#ff2600" transform="matrix(1.07717,0,0,1.07717,991.257,655.296)" d="M0,4.2 C0,8.5 3.1,13.3 11.2,13.3 C21.6,13.3 32.5,4.8 32.5,-4 C32.5,-9.9 27.5,-13.2 21.3,-13.2 C11.6,-13.2 0,-5 0,4.2"/>
<path class="Note" fill="#ff2600" transform="matrix(1.07717,0,0,1.07717,941.691,655.296)" d="M0,4.2 C0,8.5 3.1,13.3 11.2,13.3 C21.6,13.3 32.5,4.8 32.5,-4 C32.5,-9.9 27.5,-13.2 21.3,-13.2 C11.6,-13.2 0,-5 0,4.2"/>
<path class="Note" fill="#ff2600" transform="matrix(1.07717,0,0,1.07717,599.604,264.824)" d="M0,4.2 C0,8.5 3.1,13.3 11.2,13.3 C21.6,13.3 32.5,4.8 32.5,-4 C32.5,-9.9 27.5,-13.2 21.3,-13.2 C11.6,-13.2 0,-5 0,4.2"/>
<path class="Note" fill="#ff2600" transform="matrix(1.07717,0,0,1.07717,698.738,682.226)" d="M0,4.2 C0,8.5 3.1,13.3 11.2,13.3 C21.6,13.3 32.5,4.8 32.5,-4 C32.5,-9.9 27.5,-13.2 21.3,-13.2 C11.6,-13.2 0,-5 0,4.2"/>
<path class="Note" fill="#ff2600" transform="matrix(1.07717,0,0,1.07717,505.352,278.289)" d="M0,4.2 C0,8.5 3.1,13.3 11.2,13.3 C21.6,13.3 32.5,4.8 32.5,-4 C32.5,-9.9 27.5,-13.2 21.3,-13.2 C11.6,-13.2 0,-5 0,4.2"/>
<path class="Note" fill="#ff2600" transform="matrix(1.07717,0,0,1.07717,411.1,682.226)" d="M0,4.2 C0,8.5 3.1,13.3 11.2,13.3 C21.6,13.3 32.5,4.8 32.5,-4 C32.5,-9.9 27.5,-13.2 21.3,-13.2 C11.6,-13.2 0,-5 0,4.2"/>
<path class="Note" fill="#ff2600" transform="matrix(1.07717,0,0,1.07717,892.124,668.761)" d="M0,4.2 C0,8.5 3.1,13.3 11.2,13.3 C21.6,13.3 32.5,4.8 32.5,-4 C32.5,-9.9 27.5,-13.2 21.3,-13.2 C11.6,-13.2 0,-5 0,4.2"/>
<path class="Note" fill="#ff2600" transform="matrix(1.07717,0,0,1.07717,505.352,668.761)" d="M0,4.2 C0,8.5 3.1,13.3 11.2,13.3 C21.6,13.3 32.5,4.8 32.5,-4 C32.5,-9.9 27.5,-13.2 21.3,-13.2 C11.6,-13.2 0,-5 0,4.2"/>
<path class="Note" fill="#ff2600" transform="matrix(1.07717,0,0,1.07717,842.557,682.226)" d="M0,4.2 C0,8.5 3.1,13.3 11.2,13.3 C21.6,13.3 32.5,4.8 32.5,-4 C32.5,-9.9 27.5,-13.2 21.3,-13.2 C11.6,-13.2 0,-5 0,4.2"/>
<path class="Note" fill="#ff2600" transform="matrix(1.07717,0,0,1.07717,599.604,655.296)" d="M0,4.2 C0,8.5 3.1,13.3 11.2,13.3 C21.6,13.3 32.5,4.8 32.5,-4 C32.5,-9.9 27.5,-13.2 21.3,-13.2 C11.6,-13.2 0,-5 0,4.2"/>
<path class="Note" fill="#ff2600" transform="matrix(1.07717,0,0,1.07717,411.1,291.753)" d="M0,4.2 C0,8.5 3.1,13.3 11.2,13.3 C21.6,13.3 32.5,4.8 32.5,-4 C32.5,-9.9 27.5,-13.2 21.3,-13.2 C11.6,-13.2 0,-5 0,4.2"/>
<path class="Note" fill="#ff2600" transform="matrix(1.07717,0,0,1.07717,969.583,318.682)" d="M0,4.2 C0,8.5 3.1,13.3 11.2,13.3 C21.6,13.3 32.5,4.8 32.5,-4 C32.5,-9.9 27.5,-13.2 21.3,-13.2 C11.6,-13.2 0,-5 0,4.2"/>
<path class="Clef" transform="matrix(1.07717,0,0,1.07717,232.795,332.147)" d="M36.2,21.2 C21.9,21.2 9.7,11.2 9.7,-3.9 C9.7,-16.1 18.3,-27 27.1,-34.7 C28.8,-36.1 30.4,-37.5 31.9,-39 C32.8,-33.6 33.5,-29 34.2,-24.8 C25.1,-22.2 18.9,-12.5 18.9,-3.2 C18.9,3.9 24.4,13.5 32.4,13.5 C33.2,13.5 34.1,13.1 34.1,12.1 C34.1,11.3 33.2,10.7 31.9,9.9 C28,7.6 25.8,4.9 25.8,0.1 C25.8,-6 30.4,-10.9 36.2,-12.3 L42,20.5 C40,20.9 38.2,21.2 36.2,21.2 M33.2,-82.2 C34.2,-86.2 38.7,-96.7 43.9,-96.7 C45.4,-96.7 47.9,-91.9 47.9,-84.9 C47.9,-74.6 40.1,-66.8 33.2,-59.9 C32.6,-63.9 32.1,-67.9 32.1,-72 C32.1,-75.8 32.5,-79.1 33.2,-82.2 M46.2,19.3 C44.1,7.4 41.4,-8.5 40.7,-12.9 C50.8,-12.9 55.1,-5.9 56,-1.1 C56.1,-0.3 56.3,0.8 56.3,2 C56.3,9.2 53.3,16.4 46.2,19.3 M32.3,87.7 C30.1,87.7 28.6,86.3 28.6,84.2 C28.6,82.2 29.5,80.6 31.2,79.6 C31.6,79.8 31.7,79.8 32,80 C33.2,80.6 33.2,80.6 33.4,80.8 C35.3,81.9 36.1,82.9 36.1,84.3 C36.1,86.2 34.5,87.7 32.3,87.7 M36.1,75.7 C34.6,74.9 34.2,74.7 33.9,74.5 L33.7,74.4 C32.2,73.5 31.7,72.8 31.7,71.6 C31.7,69.8 33.1,68.5 35.1,68.5 C37,68.5 38.2,69.7 38.2,71.8 C38.2,73.4 37.6,74.5 36.1,75.7 M64,-0.2 C64,-15.3 53.3,-25.5 38.7,-25.5 C37.7,-31.5 36.8,-37.4 35.9,-43 C46.4,-54.1 53.8,-66.7 53.8,-82.5 C53.8,-91.6 51,-99 49.3,-102.6 C46.9,-107.7 44,-111.2 42.3,-111.2 C41.6,-111.2 38.4,-110 35.2,-106.1 C28.7,-98.5 26.9,-85.8 26.9,-77.4 C26.9,-72 27.4,-67.1 29.1,-55.8 C29,-55.8 23.8,-50.5 21.7,-48.7 C12.6,-40.3 0,-28.1 0,-8.2 C0,10.6 16.3,25.3 34.9,25.3 C37.8,25.3 40.5,25 42.9,24.6 C44.7,34.1 45.9,41.2 45.9,46.5 C45.9,56.9 40.5,62.4 30.4,62.4 C28,62.4 25.9,61.9 25.7,61.8 C25.6,61.8 25.4,61.7 25.4,61.6 C25.4,61.4 25.6,61.3 25.9,61.2 C30.6,60.5 35.3,56.4 35.3,50.1 C35.3,44.7 31.2,39 23.7,39 C16.7,39 12.3,44.7 12.3,51.3 C12.3,57.9 17.3,66.6 30.8,66.6 C43.7,66.6 50,59.3 50,46.5 C50,42.6 49.4,38.1 48.4,32.4 C48.1,30.4 47.6,27.3 46.9,23.5 C56.7,20.2 64,10.1 64,-0.2 M42.3,71.7 C42.3,68 38.9,66.4 35.6,66.4 C31.4,66.4 27.3,69 27.3,73.5 C27.3,75.4 28,76.8 29.4,78.2 C26.8,79.2 24.2,81.2 24.2,84.3 C24.2,87.6 27.2,89.8 31.6,89.8 C37,89.8 40.8,86.8 40.8,82.5 C40.8,80.2 39.8,78.3 38,77 C40.9,75.7 42.3,74.1 42.3,71.7"/>
<path class="Clef" transform="matrix(1.07717,0,0,1.07717,232.795,668.761)" d="M36.2,21.2 C21.9,21.2 9.7,11.2 9.7,-3.9 C9.7,-16.1 18.3,-27 27.1,-34.7 C28.8,-36.1 30.4,-37.5 31.9,-39 C32.8,-33.6 33.5,-29 34.2,-24.8 C25.1,-22.2 18.9,-12.5 18.9,-3.2 C18.9,3.9 24.4,13.5 32.4,13.5 C33.2,13.5 34.1,13.1 34.1,12.1 C34.1,11.3 33.2,10.7 31.9,9.9 C28,7.6 25.8,4.9 25.8,0.1 C25.8,-6 30.4,-10.9 36.2,-12.3 L42,20.5 C40,20.9 38.2,21.2 36.2,21.2 M33.2,-82.2 C34.2,-86.2 38.7,-96.7 43.9,-96.7 C45.4,-96.7 47.9,-91.9 47.9,-84.9 C47.9,-74.6 40.1,-66.8 33.2,-59.9 C32.6,-63.9 32.1,-67.9 32.1,-72 C32.1,-75.8 32.5,-79.1 33.2,-82.2 M46.2,19.3 C44.1,7.4 41.4,-8.5 40.7,-12.9 C50.8,-12.9 55.1,-5.9 56,-1.1 C56.1,-0.3 56.3,0.8 56.3,2 C56.3,9.2 53.3,16.4 46.2,19.3 M32.3,87.7 C30.1,87.7 28.6,86.3 28.6,84.2 C28.6,82.2 29.5,80.6 31.2,79.6 C31.6,79.8 31.7,79.8 32,80 C33.2,80.6 33.2,80.6 33.4,80.8 C35.3,81.9 36.1,82.9 36.1,84.3 C36.1,86.2 34.5,87.7 32.3,87.7 M36.1,75.7 C34.6,74.9 34.2,74.7 33.9,74.5 L33.7,74.4 C32.2,73.5 31.7,72.8 31.7,71.6 C31.7,69.8 33.1,68.5 35.1,68.5 C37,68.5 38.2,69.7 38.2,71.8 C38.2,73.4 37.6,74.5 36.1,75.7 M64,-0.2 C64,-15.3 53.3,-25.5 38.7,-25.5 C37.7,-31.5 36.8,-37.4 35.9,-43 C46.4,-54.1 53.8,-66.7 53.8,-82.5 C53.8,-91.6 51,-99 49.3,-102.6 C46.9,-107.7 44,-111.2 42.3,-111.2 C41.6,-111.2 38.4,-110 35.2,-106.1 C28.7,-98.5 26.9,-85.8 26.9,-77.4 C26.9,-72 27.4,-67.1 29.1,-55.8 C29,-55.8 23.8,-50.5 21.7,-48.7 C12.6,-40.3 0,-28.1 0,-8.2 C0,10.6 16.3,25.3 34.9,25.3 C37.8,25.3 40.5,25 42.9,24.6 C44.7,34.1 45.9,41.2 45.9,46.5 C45.9,56.9 40.5,62.4 30.4,62.4 C28,62.4 25.9,61.9 25.7,61.8 C25.6,61.8 25.4,61.7 25.4,61.6 C25.4,61.4 25.6,61.3 25.9,61.2 C30.6,60.5 35.3,56.4 35.3,50.1 C35.3,44.7 31.2,39 23.7,39 C16.7,39 12.3,44.7 12.3,51.3 C12.3,57.9 17.3,66.6 30.8,66.6 C43.7,66.6 50,59.3 50,46.5 C50,42.6 49.4,38.1 48.4,32.4 C48.1,30.4 47.6,27.3 46.9,23.5 C56.7,20.2 64,10.1 64,-0.2 M42.3,71.7 C42.3,68 38.9,66.4 35.6,66.4 C31.4,66.4 27.3,69 27.3,73.5 C27.3,75.4 28,76.8 29.4,78.2 C26.8,79.2 24.2,81.2 24.2,84.3 C24.2,87.6 27.2,89.8 31.6,89.8 C37,89.8 40.8,86.8 40.8,82.5 C40.8,80.2 39.8,78.3 38,77 C40.9,75.7 42.3,74.1 42.3,71.7"/>
<path class="KeySig" transform="matrix(1.07717,0,0,1.07717,321.914,641.832)" d="M13.2,-4 C13.2,3.9 9.1,8.1 3.3,12.7 L3.6,-6.8 C3.8,-7.7 5.3,-10.6 9.3,-10.6 C12.9,-10.6 13.2,-7.2 13.2,-5.1 L13.2,-4 M12,-15.5 C7,-15.5 4.1,-12.4 3.6,-11.8 L4,-43.9 C4,-44.7 3.4,-45.3 2.6,-45.3 L1.4,-45.3 C0.6,-45.3 0,-44.7 0,-43.9 L0.5,16.2 C0.5,17 1.1,17.6 1.9,17.6 C2.1,17.6 2.5,17.5 2.7,17.4 C11.3,13.1 20.3,4.9 20.3,-5.4 C20.3,-10.6 17.9,-15.5 12,-15.5"/>
<path class="KeySig" transform="matrix(1.07717,0,0,1.07717,321.914,305.218)" d="M13.2,-4 C13.2,3.9 9.1,8.1 3.3,12.7 L3.6,-6.8 C3.8,-7.7 5.3,-10.6 9.3,-10.6 C12.9,-10.6 13.2,-7.2 13.2,-5.1 L13.2,-4 M12,-15.5 C7,-15.5 4.1,-12.4 3.6,-11.8 L4,-43.9 C4,-44.7 3.4,-45.3 2.6,-45.3 L1.4,-45.3 C0.6,-45.3 0,-44.7 0,-43.9 L0.5,16.2 C0.5,17 1.1,17.6 1.9,17.6 C2.1,17.6 2.5,17.5 2.7,17.4 C11.3,13.1 20.3,4.9 20.3,-5.4 C20.3,-10.6 17.9,-15.5 12,-15.5"/>
<path class="Lyrics" fill="#ff2600" d="M765.846,774.68 C759.204,774.68 754.074,780.566 754.074,788.126 C754.074,795.524 759.258,801.464 765.738,801.464 C772.218,801.464 777.402,795.524 777.402,788.072 C777.402,780.674 772.218,774.68 765.846,774.68 M765.846,777.002 C769.626,777.002 771.732,780.944 771.732,788.072 C771.732,795.254 769.626,799.142 765.738,799.142 C761.85,799.142 759.744,795.254 759.744,788.126 C759.744,780.782 761.796,777.002 765.846,777.002"/>
<path class="Lyrics" fill="#ff2600" d="M1242.04,448.415 L1251.87,448.037 L1251.87,445.715 L1250.52,445.715 C1247.39,445.607 1247.12,445.283 1247.12,441.773 L1247.12,422.873 L1236.97,423.467 L1236.97,425.789 L1239.72,425.789 C1241.77,425.843 1242.04,426.167 1242.04,428.489 L1242.04,435.131 C1242.04,439.829 1240.91,445.553 1234.97,445.553 C1233.3,445.553 1231.89,444.959 1231.19,443.879 C1230.49,442.853 1230.38,442.313 1230.38,439.343 L1230.38,422.873 L1220.93,423.467 L1220.93,425.789 L1222.98,425.789 C1225.03,425.843 1225.3,426.167 1225.3,428.489 L1225.3,440.153 C1225.3,442.907 1225.52,444.149 1226.33,445.391 C1227.79,447.605 1230.38,448.847 1233.62,448.847 C1237.18,448.847 1239.67,447.389 1242.04,443.933 L1242.04,448.415 M1263.64,422.873 L1254.02,423.467 L1254.02,425.789 L1256.24,425.789 C1258.29,425.843 1258.56,426.167 1258.56,428.489 L1258.56,443.933 C1258.51,444.743 1258.45,445.067 1258.24,445.337 C1257.86,445.823 1256.83,446.039 1254.51,446.093 L1254.29,446.093 L1254.29,448.037 L1267.9,448.037 L1267.9,446.093 L1267.69,446.093 C1264.12,445.985 1263.64,445.715 1263.64,443.717 L1263.64,433.727 C1263.64,428.921 1266.28,425.357 1269.79,425.357 C1272.87,425.357 1274.44,427.571 1274.44,431.945 L1274.44,443.987 C1274.38,444.689 1274.33,445.067 1274.06,445.337 C1273.73,445.823 1272.65,446.039 1270.33,446.093 L1270.12,446.093 L1270.12,448.037 L1283.78,448.037 L1283.78,446.093 L1283.56,446.093 C1280,445.985 1279.51,445.715 1279.51,443.771 L1279.51,434.213 C1279.51,428.813 1281.94,425.357 1285.72,425.357 C1288.8,425.357 1290.31,427.679 1290.31,432.539 L1290.31,443.933 C1290.26,444.689 1290.2,445.067 1289.93,445.337 C1289.61,445.823 1288.53,446.039 1286.21,446.093 L1285.99,446.093 L1285.99,448.037 L1299.65,448.037 L1299.65,446.093 L1299.44,446.093 C1295.87,445.985 1295.39,445.715 1295.39,443.717 L1295.39,431.459 C1295.39,428.111 1295.06,426.977 1293.66,425.141 C1292.09,423.143 1289.88,422.063 1287.29,422.063 C1283.78,422.063 1281.19,423.737 1278.86,427.463 C1277.95,424.223 1275.03,422.063 1271.41,422.063 C1268.12,422.063 1265.74,423.629 1263.64,427.031 L1263.64,422.873 "/>
<path class="Lyrics" fill="#ff2600" d="M503.788,775.49 L494.446,776.084 L494.446,778.406 L496.39,778.406 C498.442,778.46 498.712,778.784 498.712,781.106 L498.712,796.55 C498.658,797.36 498.604,797.684 498.388,797.954 C498.01,798.44 496.984,798.656 494.662,798.71 L494.446,798.71 L494.446,800.654 L508.108,800.654 L508.108,798.71 L507.892,798.71 C504.274,798.602 503.788,798.332 503.788,796.388 L503.788,788.396 C503.788,785.75 504.166,783.32 504.76,782.078 C505.894,779.648 508.324,777.974 510.646,777.974 C512.05,777.974 513.67,778.73 514.48,779.864 C515.29,781.052 515.668,782.672 515.668,785.264 L515.668,796.55 C515.614,797.36 515.56,797.684 515.344,797.954 C514.966,798.44 513.886,798.656 511.564,798.71 L511.348,798.71 L511.348,800.654 L525.01,800.654 L525.01,798.71 L524.794,798.71 C521.23,798.602 520.744,798.332 520.744,796.388 L520.744,785.534 C520.744,781.646 520.582,780.674 519.61,778.838 C518.26,776.246 515.56,774.68 512.32,774.68 C508.81,774.68 506.164,776.3 503.788,779.864 L503.788,775.49 M551.082,788.504 C551.136,780.404 546.546,774.68 539.958,774.68 C533.046,774.68 527.862,780.674 527.862,788.774 C527.862,796.388 532.776,801.464 540.066,801.464 C545.25,801.464 548.868,798.926 551.082,793.796 L549.192,792.77 C546.978,796.928 544.71,798.548 541.092,798.548 C538.338,798.548 536.34,797.414 534.936,794.984 C533.964,793.364 533.532,791.474 533.586,788.504 L551.082,788.504 M533.64,786.182 C533.64,782.402 535.368,777.002 539.904,777.002 C543.144,777.002 545.304,779.864 545.304,784.238 C545.304,785.75 544.818,786.182 543.09,786.182 L533.64,786.182 "/>
<path class="Lyrics" fill="#ff2600" d="M858.065,794.12 L851.909,779.864 C851.747,779.432 851.639,779 851.639,778.676 C851.639,777.758 852.341,777.434 854.555,777.434 L855.311,777.434 L855.311,775.49 L842.567,775.49 L842.567,777.434 L842.999,777.434 C845.051,777.434 845.807,777.974 846.563,779.756 L855.851,801.464 L857.741,801.464 L865.409,782.51 C866.921,778.838 868.217,777.596 870.431,777.434 L870.647,777.434 L870.647,775.49 L859.847,775.49 L859.847,777.434 L860.603,777.434 C862.493,777.434 863.519,778.082 863.519,779.324 C863.519,779.972 863.357,780.782 863.033,781.592 L858.065,794.12 M894.932,788.504 C894.986,780.404 890.396,774.68 883.808,774.68 C876.896,774.68 871.712,780.674 871.712,788.774 C871.712,796.388 876.626,801.464 883.916,801.464 C889.1,801.464 892.718,798.926 894.932,793.796 L893.042,792.77 C890.828,796.928 888.56,798.548 884.942,798.548 C882.188,798.548 880.19,797.414 878.786,794.984 C877.814,793.364 877.382,791.474 877.436,788.504 L894.932,788.504 M877.49,786.182 C877.49,782.402 879.218,777.002 883.754,777.002 C886.994,777.002 889.154,779.864 889.154,784.238 C889.154,785.75 888.668,786.182 886.94,786.182 L877.49,786.182 "/>
<path class="Lyrics" fill="#ff2600" d="M429.658,435.887 C429.712,427.787 425.122,422.063 418.534,422.063 C411.622,422.063 406.438,428.057 406.438,436.157 C406.438,443.771 411.352,448.847 418.642,448.847 C423.826,448.847 427.444,446.309 429.658,441.179 L427.768,440.153 C425.554,444.311 423.286,445.931 419.668,445.931 C416.914,445.931 414.916,444.797 413.512,442.367 C412.54,440.747 412.108,438.857 412.162,435.887 L429.658,435.887 M412.216,433.565 C412.216,429.785 413.944,424.385 418.48,424.385 C421.72,424.385 423.88,427.247 423.88,431.621 C423.88,433.133 423.394,433.565 421.666,433.565 L412.216,433.565 M440.946,422.873 L440.946,412.181 L438.732,412.181 C438.192,419.201 435.816,422.765 431.442,423.089 L431.442,425.195 L435.87,425.195 L435.87,438.965 C435.87,442.745 435.978,444.095 436.518,445.337 C437.382,447.605 439.542,448.847 442.674,448.847 C447.534,448.847 450.666,445.175 450.666,439.451 C450.666,439.127 450.666,438.749 450.612,438.209 L448.344,438.209 C448.182,443.069 446.778,445.553 444.132,445.553 C442.89,445.553 441.81,444.905 441.432,443.987 C441.108,443.231 440.946,441.881 440.946,439.937 L440.946,425.195 L448.884,425.195 L448.884,422.873 L440.946,422.873 "/>
<path class="Lyrics" fill="#ff2600" d="M408.231,775.49 L398.889,776.084 L398.889,778.406 L400.833,778.406 C402.885,778.46 403.155,778.784 403.155,781.106 L403.155,807.512 C403.101,808.268 403.047,808.592 402.831,808.862 C402.453,809.348 401.427,809.564 399.105,809.618 L398.889,809.618 L398.889,811.562 L412.929,811.562 L412.929,809.618 L412.335,809.618 C408.717,809.51 408.231,809.24 408.231,807.296 L408.231,797.09 C410.013,800.222 412.011,801.464 415.359,801.464 C422.541,801.464 426.267,794.39 426.267,787.964 C426.267,781.862 422.541,774.68 415.683,774.68 C412.335,774.68 410.121,776.084 408.231,779.324 L408.231,775.49 M414.711,777.596 C418.437,777.596 420.597,781.322 420.597,787.64 C420.597,794.606 418.437,798.548 414.549,798.548 C410.661,798.548 408.177,794.552 408.177,788.342 C408.177,781.592 410.607,777.596 414.711,777.596 M452.769,783.266 C452.769,779.864 452.175,778.136 450.609,776.84 C448.827,775.382 446.181,774.68 442.725,774.68 C436.623,774.68 432.195,777.542 432.195,781.484 C432.195,783.482 433.437,784.778 435.327,784.778 C437.055,784.778 438.243,783.644 438.243,782.024 C438.243,781.322 437.973,780.566 437.433,779.81 C437.109,779.432 437.055,779.324 437.055,779.054 C437.055,777.974 439.215,777.002 441.807,777.002 C443.535,777.002 445.425,777.542 446.289,778.352 C447.315,779.216 447.693,780.512 447.693,782.942 L447.693,785.048 C442.077,786.02 440.295,786.452 437.649,787.478 C432.951,789.206 430.737,791.69 430.737,795.146 C430.737,799.034 433.761,801.464 438.567,801.464 C442.293,801.464 445.641,799.952 447.963,797.198 C448.827,799.952 450.177,801.032 452.715,801.032 C455.145,801.032 457.683,799.466 457.683,797.9 C457.683,797.522 457.467,797.252 457.143,797.252 C456.927,797.252 456.711,797.306 456.333,797.468 C455.577,797.792 455.253,797.846 454.821,797.846 C453.309,797.846 452.769,796.874 452.769,794.12 L452.769,783.266 M447.693,789.854 C447.693,793.094 447.531,793.85 446.613,795.254 C445.263,797.252 442.833,798.602 440.457,798.602 C437.973,798.602 436.191,796.82 436.191,794.39 C436.191,792.122 437.325,790.502 439.701,789.368 C441.375,788.612 443.481,788.072 447.693,787.37 L447.693,789.854 "/>
<path class="Lyrics" fill="#ff2600" d="M513.563,422.279 L511.673,422.279 L510.107,424.223 C508.163,422.711 506.219,422.063 503.519,422.063 C498.767,422.063 495.635,425.141 495.635,429.893 C495.635,434.969 498.929,436.265 503.249,437.291 L506.111,437.939 C510.377,438.965 511.889,440.045 511.889,442.205 C511.889,444.743 509.675,446.525 506.543,446.525 C501.953,446.525 498.713,443.609 497.417,438.209 L495.257,438.209 L495.257,448.415 L497.147,448.415 L499.037,446.201 C501.251,447.983 503.681,448.847 506.435,448.847 C511.727,448.847 515.237,445.553 515.237,440.531 C515.237,438.155 514.481,436.319 512.969,435.077 C511.673,433.943 510.593,433.511 507.299,432.809 L504.599,432.215 C501.629,431.567 501.629,431.567 500.657,431.027 C499.469,430.487 498.767,429.353 498.767,428.165 C498.767,425.951 500.819,424.439 503.789,424.439 C508.217,424.439 510.377,427.571 511.673,431.351 L513.563,431.351 L513.563,422.279 M539.751,448.415 L549.579,448.037 L549.579,445.715 L548.229,445.715 C545.097,445.607 544.827,445.283 544.827,441.773 L544.827,422.873 L534.675,423.467 L534.675,425.789 L537.429,425.789 C539.481,425.843 539.751,426.167 539.751,428.489 L539.751,435.131 C539.751,439.829 538.617,445.553 532.677,445.553 C531.003,445.553 529.599,444.959 528.897,443.879 C528.195,442.853 528.087,442.313 528.087,439.343 L528.087,422.873 L518.637,423.467 L518.637,425.789 L520.689,425.789 C522.741,425.843 523.011,426.167 523.011,428.489 L523.011,440.153 C523.011,442.907 523.227,444.149 524.037,445.391 C525.495,447.605 528.087,448.847 531.327,448.847 C534.891,448.847 537.375,447.389 539.751,443.933 L539.751,448.415 "/>
<path class="Lyrics" fill="#ff2600" d="M608.307,448.415 L617.703,448.037 L617.703,445.715 L616.731,445.715 C613.653,445.553 613.383,445.229 613.383,441.773 L613.383,408.239 L602.799,408.833 L602.799,411.155 L605.985,411.155 C608.037,411.209 608.307,411.533 608.307,413.855 L608.307,426.059 C606.309,423.305 603.987,422.063 600.855,422.063 C594.753,422.063 590.109,427.949 590.109,435.725 C590.109,443.393 594.591,448.847 600.855,448.847 C604.257,448.847 606.579,447.389 608.307,444.149 L608.307,448.415 M601.935,424.979 C604.149,424.979 606.255,426.599 607.227,429.083 C607.929,430.703 608.253,432.917 608.253,435.563 C608.253,441.881 605.769,445.931 601.881,445.931 C598.047,445.931 595.779,442.367 595.779,436.373 C595.779,433.133 596.103,430.703 596.805,428.921 C597.723,426.491 599.721,424.979 601.935,424.979 M632.379,422.063 C625.737,422.063 620.607,427.949 620.607,435.509 C620.607,442.907 625.791,448.847 632.271,448.847 C638.751,448.847 643.935,442.907 643.935,435.455 C643.935,428.057 638.751,422.063 632.379,422.063 M632.379,424.385 C636.159,424.385 638.265,428.327 638.265,435.455 C638.265,442.637 636.159,446.525 632.271,446.525 C628.383,446.525 626.277,442.637 626.277,435.509 C626.277,428.165 628.329,424.385 632.379,424.385"/>
<path class="Lyrics" fill="#ff2600" d="M1009.57,774.896 L1007.68,774.896 L1006.11,776.84 C1004.17,775.328 1002.22,774.68 999.523,774.68 C994.771,774.68 991.639,777.758 991.639,782.51 C991.639,787.586 994.933,788.882 999.253,789.908 L1002.12,790.556 C1006.38,791.582 1007.89,792.662 1007.89,794.822 C1007.89,797.36 1005.68,799.142 1002.55,799.142 C997.957,799.142 994.717,796.226 993.421,790.826 L991.261,790.826 L991.261,801.032 L993.151,801.032 L995.041,798.818 C997.255,800.6 999.685,801.464 1002.44,801.464 C1007.73,801.464 1011.24,798.17 1011.24,793.148 C1011.24,790.772 1010.49,788.936 1008.97,787.694 C1007.68,786.56 1006.6,786.128 1003.3,785.426 L1000.6,784.832 C997.633,784.184 997.633,784.184 996.661,783.644 C995.473,783.104 994.771,781.97 994.771,780.782 C994.771,778.568 996.823,777.056 999.793,777.056 C1004.22,777.056 1006.38,780.188 1007.68,783.968 L1009.57,783.968 L1009.57,774.896 M1034.41,792.716 C1032.68,796.604 1030.84,798.17 1028.03,798.17 C1023.71,798.17 1021.01,794.228 1021.01,787.91 C1021.01,781.322 1023.66,777.002 1027.66,777.002 C1029.28,777.002 1030.68,777.758 1030.68,778.622 C1030.68,778.784 1030.63,778.946 1030.36,779.27 C1029.49,780.296 1029.28,780.836 1029.28,781.754 C1029.28,783.536 1030.63,784.778 1032.52,784.778 C1034.46,784.778 1035.81,783.266 1035.81,781.106 C1035.81,777.434 1032.19,774.68 1027.39,774.68 C1020.37,774.68 1015.34,780.404 1015.34,788.504 C1015.34,796.172 1019.93,801.464 1026.63,801.464 C1031.44,801.464 1034.19,799.25 1036.51,793.526 L1034.41,792.716 M1062.59,788.504 C1062.64,780.404 1058.05,774.68 1051.46,774.68 C1044.55,774.68 1039.37,780.674 1039.37,788.774 C1039.37,796.388 1044.28,801.464 1051.57,801.464 C1056.75,801.464 1060.37,798.926 1062.59,793.796 L1060.7,792.77 C1058.48,796.928 1056.21,798.548 1052.6,798.548 C1049.84,798.548 1047.84,797.414 1046.44,794.984 C1045.47,793.364 1045.04,791.474 1045.09,788.504 L1062.59,788.504 M1045.14,786.182 C1045.14,782.402 1046.87,777.002 1051.41,777.002 C1054.65,777.002 1056.81,779.864 1056.81,784.238 C1056.81,785.75 1056.32,786.182 1054.59,786.182 L1045.14,786.182 "/>
<path class="Lyrics" fill="#ff2600" d="M703.423,422.873 L693.865,423.467 L693.865,425.789 L696.079,425.789 C698.131,425.843 698.401,426.167 698.401,428.489 L698.401,443.933 C698.347,444.743 698.293,445.067 698.077,445.337 C697.699,445.823 696.619,446.039 694.297,446.093 L694.081,446.093 L694.081,448.037 L708.499,448.037 L708.499,446.093 L707.527,446.093 C703.909,445.985 703.423,445.715 703.423,443.771 L703.423,440.855 C703.477,431.783 706.717,424.871 710.929,424.655 C710.173,425.519 709.957,426.059 709.957,427.085 C709.957,428.813 711.199,430.055 712.927,430.055 C714.925,430.055 716.221,428.597 716.221,426.437 C716.221,423.791 714.385,422.063 711.523,422.063 C708.121,422.063 705.205,424.763 703.423,429.569 L703.423,422.873 M741.481,435.887 C741.535,427.787 736.945,422.063 730.357,422.063 C723.445,422.063 718.261,428.057 718.261,436.157 C718.261,443.771 723.175,448.847 730.465,448.847 C735.649,448.847 739.267,446.309 741.481,441.179 L739.591,440.153 C737.377,444.311 735.109,445.931 731.491,445.931 C728.737,445.931 726.739,444.797 725.335,442.367 C724.363,440.747 723.931,438.857 723.985,435.887 L741.481,435.887 M724.039,433.565 C724.039,429.785 725.767,424.385 730.303,424.385 C733.543,424.385 735.703,427.247 735.703,431.621 C735.703,433.133 735.217,433.565 733.489,433.565 L724.039,433.565 "/>
<path class="Lyrics" fill="#ff2600" d="M1395.65,775.49 L1386.1,776.084 L1386.1,778.406 L1388.31,778.406 C1390.36,778.46 1390.63,778.784 1390.63,781.106 L1390.63,796.55 C1390.58,797.36 1390.52,797.684 1390.31,797.954 C1389.93,798.44 1388.85,798.656 1386.53,798.71 L1386.31,798.71 L1386.31,800.654 L1400.73,800.654 L1400.73,798.71 L1399.76,798.71 C1396.14,798.602 1395.65,798.332 1395.65,796.388 L1395.65,793.472 C1395.71,784.4 1398.95,777.488 1403.16,777.272 C1402.4,778.136 1402.19,778.676 1402.19,779.702 C1402.19,781.43 1403.43,782.672 1405.16,782.672 C1407.16,782.672 1408.45,781.214 1408.45,779.054 C1408.45,776.408 1406.62,774.68 1403.75,774.68 C1400.35,774.68 1397.44,777.38 1395.65,782.186 L1395.65,775.49 M1433.71,788.504 C1433.77,780.404 1429.18,774.68 1422.59,774.68 C1415.68,774.68 1410.49,780.674 1410.49,788.774 C1410.49,796.388 1415.41,801.464 1422.7,801.464 C1427.88,801.464 1431.5,798.926 1433.71,793.796 L1431.82,792.77 C1429.61,796.928 1427.34,798.548 1423.72,798.548 C1420.97,798.548 1418.97,797.414 1417.57,794.984 C1416.6,793.364 1416.16,791.474 1416.22,788.504 L1433.71,788.504 M1416.27,786.182 C1416.27,782.402 1418,777.002 1422.54,777.002 C1425.78,777.002 1427.94,779.864 1427.94,784.238 C1427.94,785.75 1427.45,786.182 1425.72,786.182 L1416.27,786.182 "/>
<path class="Lyrics" fill="#ff2600" d="M985.092,441.503 L978.936,427.247 C978.774,426.815 978.666,426.383 978.666,426.059 C978.666,425.141 979.368,424.817 981.582,424.817 L982.338,424.817 L982.338,422.873 L969.594,422.873 L969.594,424.817 L970.026,424.817 C972.078,424.817 972.834,425.357 973.59,427.139 L982.878,448.847 L984.768,448.847 L992.436,429.893 C993.948,426.221 995.244,424.979 997.458,424.817 L997.674,424.817 L997.674,422.873 L986.874,422.873 L986.874,424.817 L987.63,424.817 C989.52,424.817 990.546,425.465 990.546,426.707 C990.546,427.355 990.384,428.165 990.06,428.975 L985.092,441.503 M1021.36,448.415 L1031.19,448.037 L1031.19,445.715 L1029.84,445.715 C1026.71,445.607 1026.44,445.283 1026.44,441.773 L1026.44,422.873 L1016.29,423.467 L1016.29,425.789 L1019.04,425.789 C1021.09,425.843 1021.36,426.167 1021.36,428.489 L1021.36,435.131 C1021.36,439.829 1020.23,445.553 1014.29,445.553 C1012.61,445.553 1011.21,444.959 1010.51,443.879 C1009.81,442.853 1009.7,442.313 1009.7,439.343 L1009.7,422.873 L1000.25,423.467 L1000.25,425.789 L1002.3,425.789 C1004.35,425.843 1004.62,426.167 1004.62,428.489 L1004.62,440.153 C1004.62,442.907 1004.84,444.149 1005.65,445.391 C1007.11,447.605 1009.7,448.847 1012.94,448.847 C1016.5,448.847 1018.99,447.389 1021.36,443.933 L1021.36,448.415 M1043.12,408.239 L1033.13,408.833 L1033.13,411.155 L1035.77,411.155 C1037.77,411.209 1038.04,411.533 1038.04,413.855 L1038.04,443.933 C1037.99,444.743 1037.93,445.067 1037.72,445.337 C1037.34,445.823 1036.31,446.039 1033.99,446.093 L1033.61,446.093 L1033.61,448.037 L1047.6,448.037 L1047.6,446.093 L1047.22,446.093 C1043.6,445.985 1043.12,445.715 1043.12,443.771 L1043.12,408.239 "/>
<path class="Lyrics" fill="#ff2600" d="M1104.76,422.873 L1104.76,412.181 L1102.55,412.181 C1102.01,419.201 1099.63,422.765 1095.26,423.089 L1095.26,425.195 L1099.68,425.195 L1099.68,438.965 C1099.68,442.745 1099.79,444.095 1100.33,445.337 C1101.2,447.605 1103.36,448.847 1106.49,448.847 C1111.35,448.847 1114.48,445.175 1114.48,439.451 C1114.48,439.127 1114.48,438.749 1114.43,438.209 L1112.16,438.209 C1112,443.069 1110.59,445.553 1107.95,445.553 C1106.7,445.553 1105.62,444.905 1105.25,443.987 C1104.92,443.231 1104.76,441.881 1104.76,439.937 L1104.76,425.195 L1112.7,425.195 L1112.7,422.873 L1104.76,422.873 M1137.49,448.415 L1147.31,448.037 L1147.31,445.715 L1145.96,445.715 C1142.83,445.607 1142.56,445.283 1142.56,441.773 L1142.56,422.873 L1132.41,423.467 L1132.41,425.789 L1135.16,425.789 C1137.22,425.843 1137.49,426.167 1137.49,428.489 L1137.49,435.131 C1137.49,439.829 1136.35,445.553 1130.41,445.553 C1128.74,445.553 1127.33,444.959 1126.63,443.879 C1125.93,442.853 1125.82,442.313 1125.82,439.343 L1125.82,422.873 L1116.37,423.467 L1116.37,425.789 L1118.42,425.789 C1120.48,425.843 1120.75,426.167 1120.75,428.489 L1120.75,440.153 C1120.75,442.907 1120.96,444.149 1121.77,445.391 C1123.23,447.605 1125.82,448.847 1129.06,448.847 C1132.63,448.847 1135.11,447.389 1137.49,443.933 L1137.49,448.415 "/>
<path class="Lyrics" fill="#ff2600" d="M609.111,775.49 L609.111,764.798 L606.897,764.798 C606.357,771.818 603.981,775.382 599.607,775.706 L599.607,777.812 L604.035,777.812 L604.035,791.582 C604.035,795.362 604.143,796.712 604.683,797.954 C605.547,800.222 607.707,801.464 610.839,801.464 C615.699,801.464 618.831,797.792 618.831,792.068 C618.831,791.744 618.831,791.366 618.777,790.826 L616.509,790.826 C616.347,795.686 614.943,798.17 612.297,798.17 C611.055,798.17 609.975,797.522 609.597,796.604 C609.273,795.848 609.111,794.498 609.111,792.554 L609.111,777.812 L617.049,777.812 L617.049,775.49 L609.111,775.49 M641.836,801.032 L651.664,800.654 L651.664,798.332 L650.314,798.332 C647.182,798.224 646.912,797.9 646.912,794.39 L646.912,775.49 L636.76,776.084 L636.76,778.406 L639.514,778.406 C641.566,778.46 641.836,778.784 641.836,781.106 L641.836,787.748 C641.836,792.446 640.702,798.17 634.762,798.17 C633.088,798.17 631.684,797.576 630.982,796.496 C630.28,795.47 630.172,794.93 630.172,791.96 L630.172,775.49 L620.722,776.084 L620.722,778.406 L622.774,778.406 C624.826,778.46 625.096,778.784 625.096,781.106 L625.096,792.77 C625.096,795.524 625.312,796.766 626.122,798.008 C627.58,800.222 630.172,801.464 633.412,801.464 C636.976,801.464 639.46,800.006 641.836,796.55 L641.836,801.032 "/>
<polyline class="LyricsLineSegment" fill="none" stroke="#ff2600" stroke-width="2.69" stroke-linejoin="bevel" points="562.191,435.687 578.349,435.687" />
<polyline class="LyricsLineSegment" fill="none" stroke="#ff2600" stroke-width="2.69" stroke-linejoin="bevel" points="660.899,435.687 677.056,435.687" />
<polyline class="LyricsLineSegment" fill="none" stroke="#ff2600" stroke-width="2.69" stroke-linejoin="bevel" points="747.382,446.69 949.429,446.69" />
<polyline class="LyricsLineSegment" fill="none" stroke="#ff2600" stroke-width="2.69" stroke-linejoin="bevel" points="1063.36,435.687 1079.52,435.687" />
<polyline class="LyricsLineSegment" fill="none" stroke="#ff2600" stroke-width="2.69" stroke-linejoin="bevel" points="1176.49,435.687 1192.65,435.687" />
<polyline class="LyricsLineSegment" fill="none" stroke="#ff2600" stroke-width="2.69" stroke-linejoin="bevel" points="468.299,788.304 484.456,788.304" />
<polyline class="LyricsLineSegment" fill="none" stroke="#ff2600" stroke-width="2.69" stroke-linejoin="bevel" points="695.236,788.304 711.394,788.304" />
<polyline class="LyricsLineSegment" fill="none" stroke="#ff2600" stroke-width="2.69" stroke-linejoin="bevel" points="935.25,788.304 951.408,788.304" />
<polyline class="LyricsLineSegment" fill="none" stroke="#ff2600" stroke-width="2.69" stroke-linejoin="bevel" points="1216.35,788.304 1232.51,788.304" />
</svg>
