<?xml version="1.0" encoding="UTF-8" standalone="no"?>
<svg width="210.058mm" height="296.926mm" viewBox="0 0 2977.2 4208.4"
 xmlns="http://www.w3.org/2000/svg" xmlns:xlink="http://www.w3.org/1999/xlink" version="1.2" baseProfile="full">
<title>CB027_esau (2)</title>
<desc>Generated by MuseScore Studio 4.6.2</desc>
<polyline class="StaffLines" fill="none" stroke="#000000" stroke-width="2.96" stroke-linejoin="bevel" points="212.598,251.359 1227.95,251.359" />
<polyline class="StaffLines" fill="none" stroke="#000000" stroke-width="2.96" stroke-linejoin="bevel" points="212.598,278.289 1227.95,278.289" />
<polyline class="StaffLines" fill="none" stroke="#000000" stroke-width="2.96" stroke-linejoin="bevel" points="212.598,305.218 1227.95,305.218" />
<polyline class="StaffLines" fill="none" stroke="#000000" stroke-width="2.96" stroke-linejoin="bevel" points="212.598,332.147 1227.95,332.147" />
<polyline class="StaffLines" fill="none" stroke="#000000" stroke-width="2.96" stroke-linejoin="bevel" points="212.598,359.076 1227.95,359.076" />
<polyline class="StaffLines" fill="none" stroke="#000000" stroke-width="2.96" stroke-linejoin="bevel" points="212.598,587.974 1346.59,587.974" />
<polyline class="StaffLines" fill="none" stroke="#000000" stroke-width="2.96" stroke-linejoin="bevel" points="212.598,614.903 1346.59,614.903" />
<polyline class="StaffLines" fill="none" stroke="#000000" stroke-width="2.96" stroke-linejoin="bevel" points="212.598,641.832 1346.59,641.832" />
<polyline class="StaffLines" fill="none" stroke="#000000" stroke-width="2.96" stroke-linejoin="bevel" points="212.598,668.761 1346.59,668.761" />
<polyline class="StaffLines" fill="none" stroke="#000000" stroke-width="2.96" stroke-linejoin="bevel" points="212.598,695.69 1346.59,695.69" />
<polyline class="StaffLines" fill="none" stroke="#000000" stroke-width="2.96" stroke-linejoin="bevel" points="212.598,924.588 1516.53,924.588" />
<polyline class="StaffLines" fill="none" stroke="#000000" stroke-width="2.96" stroke-linejoin="bevel" points="212.598,951.517 1516.53,951.517" />
<polyline class="StaffLines" fill="none" stroke="#000000" stroke-width="2.96" stroke-linejoin="bevel" points="212.598,978.446 1516.53,978.446" />
<polyline class="StaffLines" fill="none" stroke="#000000" stroke-width="2.96" stroke-linejoin="bevel" points="212.598,1005.38 1516.53,1005.38" />
<polyline class="StaffLines" fill="none" stroke="#000000" stroke-width="2.96" stroke-linejoin="bevel" points="212.598,1032.3 1516.53,1032.3" />
<polyline class="BarLine" fill="none" stroke="#000000" stroke-width="4.85" stroke-linejoin="bevel" points="1489.33,923.107 1489.33,1033.79" />
<polyline class="BarLine" fill="none" stroke="#000000" stroke-width="14.81" stroke-linejoin="bevel" points="1509.12,923.107 1509.12,1033.79" />
<path class="SlurSegment" stroke="#000000" stroke-width="1.35" stroke-linecap="round" stroke-linejoin="round" fill-rule="evenodd" d="M1238.42,706.462 C1250.49,726.803 1281.91,733.535 1301.25,719.926 C1280.46,740.261 1249.05,733.529 1238.42,706.462"/>
<path class="SlurSegment" stroke="#000000" stroke-width="1.35" stroke-linecap="round" stroke-linejoin="round" fill-rule="evenodd" d="M1112.75,679.533 C1122.52,701.798 1153.94,712.974 1175.58,701.884 C1151.6,719.546 1120.19,708.371 1112.75,679.533"/>
<path class="SlurSegment" stroke="#000000" stroke-width="1.35" stroke-linecap="round" stroke-linejoin="round" fill-rule="evenodd" d="M1284.48,1043.08 C1296.55,1063.42 1327.97,1070.15 1347.32,1056.54 C1326.53,1076.88 1295.11,1070.14 1284.48,1043.08"/>
<path class="SlurSegment" stroke="#000000" stroke-width="1.35" stroke-linecap="round" stroke-linejoin="round" fill-rule="evenodd" d="M987.079,631.06 C994.517,602.222 1025.93,591.047 1049.91,608.709 C1028.27,597.619 996.855,608.795 987.079,631.06"/>
<path class="SlurSegment" stroke="#000000" stroke-width="1.35" stroke-linecap="round" stroke-linejoin="round" fill-rule="evenodd" d="M1008.75,940.745 C1074.19,912.042 1184.49,938.971 1229.34,994.604 C1182.44,947.343 1072.15,920.413 1008.75,940.745"/>
<path class="SlurSegment" stroke="#000000" stroke-width="1.35" stroke-linecap="round" stroke-linejoin="round" fill-rule="evenodd" d="M711.351,581.78 C776.793,553.077 887.084,580.006 931.933,635.638 C885.04,588.377 774.749,561.448 711.351,581.78"/>
<path class="SlurSegment" stroke="#000000" stroke-width="1.35" stroke-linecap="round" stroke-linejoin="round" fill-rule="evenodd" d="M860.052,967.674 C876.838,931.502 926.405,918.038 959.186,940.745 C928.612,926.161 879.045,939.626 860.052,967.674"/>
<path class="SlurSegment" stroke="#000000" stroke-width="1.35" stroke-linecap="round" stroke-linejoin="round" fill-rule="evenodd" d="M617.099,1016.15 C636.092,1044.2 685.659,1057.66 716.233,1043.08 C683.452,1065.78 633.885,1052.32 617.099,1016.15"/>
<path class="SlurSegment" stroke="#000000" stroke-width="1.35" stroke-linecap="round" stroke-linejoin="round" fill-rule="evenodd" d="M899.855,240.588 C953.605,208.836 1047.86,224.589 1088.36,272.095 C1046.44,233.089 952.184,217.335 899.855,240.588"/>
<path class="Note" transform="matrix(1.07717,0,0,1.07717,649.171,1005.38)" d="M0,4.2 C0,8.5 3.1,13.3 11.2,13.3 C21.6,13.3 32.5,4.8 32.5,-4 C32.5,-9.9 27.5,-13.2 21.3,-13.2 C11.6,-13.2 0,-5 0,4.2"/>
<path class="Note" transform="matrix(1.07717,0,0,1.07717,698.738,1018.84)" d="M0,4.2 C0,8.5 3.1,13.3 11.2,13.3 C21.6,13.3 32.5,4.8 32.5,-4 C32.5,-9.9 27.5,-13.2 21.3,-13.2 C11.6,-13.2 0,-5 0,4.2"/>
<path class="Note" transform="matrix(1.07717,0,0,1.07717,1266.99,1018.84)" d="M0,4.2 C0,8.5 3.1,13.3 11.2,13.3 C21.6,13.3 32.5,4.8 32.5,-4 C32.5,-9.9 27.5,-13.2 21.3,-13.2 C11.6,-13.2 0,-5 0,4.2"/>
<path class="Note" transform="matrix(1.07717,0,0,1.07717,1211.84,1018.84)" d="M0,4.2 C0,8.5 3.1,13.3 11.2,13.3 C21.6,13.3 32.5,4.8 32.5,-4 C32.5,-9.9 27.5,-13.2 21.3,-13.2 C11.6,-13.2 0,-5 0,4.2"/>
<path class="Note" transform="matrix(1.07717,0,0,1.07717,1156.69,1005.38)" d="M0,4.2 C0,8.5 3.1,13.3 11.2,13.3 C21.6,13.3 32.5,4.8 32.5,-4 C32.5,-9.9 27.5,-13.2 21.3,-13.2 C11.6,-13.2 0,-5 0,4.2"/>
<path class="Note" transform="matrix(1.07717,0,0,1.07717,1101.55,991.911)" d="M0,4.2 C0,8.5 3.1,13.3 11.2,13.3 C21.6,13.3 32.5,4.8 32.5,-4 C32.5,-9.9 27.5,-13.2 21.3,-13.2 C11.6,-13.2 0,-5 0,4.2"/>
<path class="Note" transform="matrix(1.07717,0,0,1.07717,1133.7,305.218)" d="M0,4.2 C0,8.5 3.1,13.3 11.2,13.3 C21.6,13.3 32.5,4.8 32.5,-4 C32.5,-9.9 27.5,-13.2 21.3,-13.2 C11.6,-13.2 0,-5 0,4.2"/>
<path class="Note" transform="matrix(1.07717,0,0,1.07717,505.352,1005.38)" d="M0,4.2 C0,8.5 3.1,13.3 11.2,13.3 C21.6,13.3 32.5,4.8 32.5,-4 C32.5,-9.9 27.5,-13.2 21.3,-13.2 C11.6,-13.2 0,-5 0,4.2"/>
<path class="Note" transform="matrix(1.07717,0,0,1.07717,599.604,991.911)" d="M0,4.2 C0,8.5 3.1,13.3 11.2,13.3 C21.6,13.3 32.5,4.8 32.5,-4 C32.5,-9.9 27.5,-13.2 21.3,-13.2 C11.6,-13.2 0,-5 0,4.2"/>
<path class="Note" transform="matrix(1.07717,0,0,1.07717,411.1,628.367)" d="M0,4.2 C0,8.5 3.1,13.3 11.2,13.3 C21.6,13.3 32.5,4.8 32.5,-4 C32.5,-9.9 27.5,-13.2 21.3,-13.2 C11.6,-13.2 0,-5 0,4.2"/>
<path class="Note" transform="matrix(1.07717,0,0,1.07717,1046.4,978.446)" d="M0,4.2 C0,8.5 3.1,13.3 11.2,13.3 C21.6,13.3 32.5,4.8 32.5,-4 C32.5,-9.9 27.5,-13.2 21.3,-13.2 C11.6,-13.2 0,-5 0,4.2"/>
<path class="Note" transform="matrix(1.07717,0,0,1.07717,505.352,614.903)" d="M0,4.2 C0,8.5 3.1,13.3 11.2,13.3 C21.6,13.3 32.5,4.8 32.5,-4 C32.5,-9.9 27.5,-13.2 21.3,-13.2 C11.6,-13.2 0,-5 0,4.2"/>
<path class="Note" transform="matrix(1.07717,0,0,1.07717,991.257,964.982)" d="M0,4.2 C0,8.5 3.1,13.3 11.2,13.3 C21.6,13.3 32.5,4.8 32.5,-4 C32.5,-9.9 27.5,-13.2 21.3,-13.2 C11.6,-13.2 0,-5 0,4.2"/>
<path class="Note" transform="matrix(1.07717,0,0,1.07717,599.604,601.438)" d="M0,4.2 C0,8.5 3.1,13.3 11.2,13.3 C21.6,13.3 32.5,4.8 32.5,-4 C32.5,-9.9 27.5,-13.2 21.3,-13.2 C11.6,-13.2 0,-5 0,4.2"/>
<path class="Note" transform="matrix(1.07717,0,0,1.07717,941.691,964.982)" d="M0,4.2 C0,8.5 3.1,13.3 11.2,13.3 C21.6,13.3 32.5,4.8 32.5,-4 C32.5,-9.9 27.5,-13.2 21.3,-13.2 C11.6,-13.2 0,-5 0,4.2"/>
<path class="Note" transform="matrix(1.07717,0,0,1.07717,693.856,614.903)" d="M0,4.2 C0,8.5 3.1,13.3 11.2,13.3 C21.6,13.3 32.5,4.8 32.5,-4 C32.5,-9.9 27.5,-13.2 21.3,-13.2 C11.6,-13.2 0,-5 0,4.2"/>
<path class="Note" transform="matrix(1.07717,0,0,1.07717,892.124,978.446)" d="M0,4.2 C0,8.5 3.1,13.3 11.2,13.3 C21.6,13.3 32.5,4.8 32.5,-4 C32.5,-9.9 27.5,-13.2 21.3,-13.2 C11.6,-13.2 0,-5 0,4.2"/>
<path class="Note" transform="matrix(1.07717,0,0,1.07717,842.557,991.911)" d="M0,4.2 C0,8.5 3.1,13.3 11.2,13.3 C21.6,13.3 32.5,4.8 32.5,-4 C32.5,-9.9 27.5,-13.2 21.3,-13.2 C11.6,-13.2 0,-5 0,4.2"/>
<path class="Note" transform="matrix(1.07717,0,0,1.07717,749.001,628.367)" d="M0,4.2 C0,8.5 3.1,13.3 11.2,13.3 C21.6,13.3 32.5,4.8 32.5,-4 C32.5,-9.9 27.5,-13.2 21.3,-13.2 C11.6,-13.2 0,-5 0,4.2"/>
<path class="Note" transform="matrix(1.07717,0,0,1.07717,804.147,641.832)" d="M0,4.2 C0,8.5 3.1,13.3 11.2,13.3 C21.6,13.3 32.5,4.8 32.5,-4 C32.5,-9.9 27.5,-13.2 21.3,-13.2 C11.6,-13.2 0,-5 0,4.2"/>
<path class="Note" transform="matrix(1.07717,0,0,1.07717,859.292,655.296)" d="M0,4.2 C0,8.5 3.1,13.3 11.2,13.3 C21.6,13.3 32.5,4.8 32.5,-4 C32.5,-9.9 27.5,-13.2 21.3,-13.2 C11.6,-13.2 0,-5 0,4.2"/>
<path class="Note" transform="matrix(1.07717,0,0,1.07717,914.438,668.761)" d="M0,4.2 C0,8.5 3.1,13.3 11.2,13.3 C21.6,13.3 32.5,4.8 32.5,-4 C32.5,-9.9 27.5,-13.2 21.3,-13.2 C11.6,-13.2 0,-5 0,4.2"/>
<path class="Note" transform="matrix(1.07717,0,0,1.07717,1070.86,305.218)" d="M0,4.2 C0,8.5 3.1,13.3 11.2,13.3 C21.6,13.3 32.5,4.8 32.5,-4 C32.5,-9.9 27.5,-13.2 21.3,-13.2 C11.6,-13.2 0,-5 0,4.2"/>
<path class="Note" transform="matrix(1.07717,0,0,1.07717,1008.03,291.753)" d="M0,4.2 C0,8.5 3.1,13.3 11.2,13.3 C21.6,13.3 32.5,4.8 32.5,-4 C32.5,-9.9 27.5,-13.2 21.3,-13.2 C11.6,-13.2 0,-5 0,4.2"/>
<path class="Note" transform="matrix(1.07717,0,0,1.07717,945.194,278.289)" d="M0,4.2 C0,8.5 3.1,13.3 11.2,13.3 C21.6,13.3 32.5,4.8 32.5,-4 C32.5,-9.9 27.5,-13.2 21.3,-13.2 C11.6,-13.2 0,-5 0,4.2"/>
<path class="Note" transform="matrix(1.07717,0,0,1.07717,969.583,655.296)" d="M0,4.2 C0,8.5 3.1,13.3 11.2,13.3 C21.6,13.3 32.5,4.8 32.5,-4 C32.5,-9.9 27.5,-13.2 21.3,-13.2 C11.6,-13.2 0,-5 0,4.2"/>
<path class="Note" transform="matrix(1.07717,0,0,1.07717,1392.65,1018.84)" d="M0,4.2 C0,8.5 3.1,13.3 11.2,13.3 C21.6,13.3 32.5,4.8 32.5,-4 C32.5,-9.9 27.5,-13.2 21.3,-13.2 C11.6,-13.2 0,-5 0,4.2"/>
<path class="Note" transform="matrix(1.07717,0,0,1.07717,1032.42,641.832)" d="M0,4.2 C0,8.5 3.1,13.3 11.2,13.3 C21.6,13.3 32.5,4.8 32.5,-4 C32.5,-9.9 27.5,-13.2 21.3,-13.2 C11.6,-13.2 0,-5 0,4.2"/>
<path class="Note" transform="matrix(1.07717,0,0,1.07717,1095.25,655.296)" d="M0,4.2 C0,8.5 3.1,13.3 11.2,13.3 C21.6,13.3 32.5,4.8 32.5,-4 C32.5,-9.9 27.5,-13.2 21.3,-13.2 C11.6,-13.2 0,-5 0,4.2"/>
<path class="Note" transform="matrix(1.07717,0,0,1.07717,882.36,264.824)" d="M0,4.2 C0,8.5 3.1,13.3 11.2,13.3 C21.6,13.3 32.5,4.8 32.5,-4 C32.5,-9.9 27.5,-13.2 21.3,-13.2 C11.6,-13.2 0,-5 0,4.2"/>
<path class="Note" transform="matrix(1.07717,0,0,1.07717,1158.09,668.761)" d="M0,4.2 C0,8.5 3.1,13.3 11.2,13.3 C21.6,13.3 32.5,4.8 32.5,-4 C32.5,-9.9 27.5,-13.2 21.3,-13.2 C11.6,-13.2 0,-5 0,4.2"/>
<path class="Note" transform="matrix(1.07717,0,0,1.07717,1220.92,682.226)" d="M0,4.2 C0,8.5 3.1,13.3 11.2,13.3 C21.6,13.3 32.5,4.8 32.5,-4 C32.5,-9.9 27.5,-13.2 21.3,-13.2 C11.6,-13.2 0,-5 0,4.2"/>
<path class="Note" transform="matrix(1.07717,0,0,1.07717,788.108,251.359)" d="M0,4.2 C0,8.5 3.1,13.3 11.2,13.3 C21.6,13.3 32.5,4.8 32.5,-4 C32.5,-9.9 27.5,-13.2 21.3,-13.2 C11.6,-13.2 0,-5 0,4.2"/>
<path class="Note" transform="matrix(1.07717,0,0,1.07717,1283.76,695.69)" d="M0,4.2 C0,8.5 3.1,13.3 11.2,13.3 C21.6,13.3 32.5,4.8 32.5,-4 C32.5,-9.9 27.5,-13.2 21.3,-13.2 C11.6,-13.2 0,-5 0,4.2"/>
<path class="Note" transform="matrix(1.07717,0,0,1.07717,693.856,251.359)" d="M0,4.2 C0,8.5 3.1,13.3 11.2,13.3 C21.6,13.3 32.5,4.8 32.5,-4 C32.5,-9.9 27.5,-13.2 21.3,-13.2 C11.6,-13.2 0,-5 0,4.2"/>
<path class="Note" transform="matrix(1.07717,0,0,1.07717,599.604,237.895)" d="M0,4.2 C0,8.5 3.1,13.3 11.2,13.3 C21.6,13.3 32.5,4.8 32.5,-4 C32.5,-9.9 27.5,-13.2 21.3,-13.2 C11.6,-13.2 0,-5 0,4.2"/>
<path class="Note" transform="matrix(1.07717,0,0,1.07717,505.352,251.359)" d="M0,4.2 C0,8.5 3.1,13.3 11.2,13.3 C21.6,13.3 32.5,4.8 32.5,-4 C32.5,-9.9 27.5,-13.2 21.3,-13.2 C11.6,-13.2 0,-5 0,4.2"/>
<path class="Note" transform="matrix(1.07717,0,0,1.07717,411.1,251.359)" d="M0,4.2 C0,8.5 3.1,13.3 11.2,13.3 C21.6,13.3 32.5,4.8 32.5,-4 C32.5,-9.9 27.5,-13.2 21.3,-13.2 C11.6,-13.2 0,-5 0,4.2"/>
<path class="Note" transform="matrix(1.07717,0,0,1.07717,411.1,1018.84)" d="M0,4.2 C0,8.5 3.1,13.3 11.2,13.3 C21.6,13.3 32.5,4.8 32.5,-4 C32.5,-9.9 27.5,-13.2 21.3,-13.2 C11.6,-13.2 0,-5 0,4.2"/>
<path class="Note" transform="matrix(1.07717,0,0,1.07717,748.305,991.911)" d="M0,4.2 C0,8.5 3.1,13.3 11.2,13.3 C21.6,13.3 32.5,4.8 32.5,-4 C32.5,-9.9 27.5,-13.2 21.3,-13.2 C11.6,-13.2 0,-5 0,4.2"/>
<path class="Note" transform="matrix(1.07717,0,0,1.07717,1329.82,1032.3)" d="M0,4.2 C0,8.5 3.1,13.3 11.2,13.3 C21.6,13.3 32.5,4.8 32.5,-4 C32.5,-9.9 27.5,-13.2 21.3,-13.2 C11.6,-13.2 0,-5 0,4.2"/>
<path class="Clef" transform="matrix(1.07717,0,0,1.07717,232.795,1005.38)" d="M36.2,21.2 C21.9,21.2 9.7,11.2 9.7,-3.9 C9.7,-16.1 18.3,-27 27.1,-34.7 C28.8,-36.1 30.4,-37.5 31.9,-39 C32.8,-33.6 33.5,-29 34.2,-24.8 C25.1,-22.2 18.9,-12.5 18.9,-3.2 C18.9,3.9 24.4,13.5 32.4,13.5 C33.2,13.5 34.1,13.1 34.1,12.1 C34.1,11.3 33.2,10.7 31.9,9.9 C28,7.6 25.8,4.9 25.8,0.1 C25.8,-6 30.4,-10.9 36.2,-12.3 L42,20.5 C40,20.9 38.2,21.2 36.2,21.2 M33.2,-82.2 C34.2,-86.2 38.7,-96.7 43.9,-96.7 C45.4,-96.7 47.9,-91.9 47.9,-84.9 C47.9,-74.6 40.1,-66.8 33.2,-59.9 C32.6,-63.9 32.1,-67.9 32.1,-72 C32.1,-75.8 32.5,-79.1 33.2,-82.2 M46.2,19.3 C44.1,7.4 41.4,-8.5 40.7,-12.9 C50.8,-12.9 55.1,-5.9 56,-1.1 C56.1,-0.3 56.3,0.8 56.3,2 C56.3,9.2 53.3,16.4 46.2,19.3 M32.3,87.7 C30.1,87.7 28.6,86.3 28.6,84.2 C28.6,82.2 29.5,80.6 31.2,79.6 C31.6,79.8 31.7,79.8 32,80 C33.2,80.6 33.2,80.6 33.4,80.8 C35.3,81.9 36.1,82.9 36.1,84.3 C36.1,86.2 34.5,87.7 32.3,87.7 M36.1,75.7 C34.6,74.9 34.2,74.7 33.9,74.5 L33.7,74.4 C32.2,73.5 31.7,72.8 31.7,71.6 C31.7,69.8 33.1,68.5 35.1,68.5 C37,68.5 38.2,69.7 38.2,71.8 C38.2,73.4 37.6,74.5 36.1,75.7 M64,-0.2 C64,-15.3 53.3,-25.5 38.7,-25.5 C37.7,-31.5 36.8,-37.4 35.9,-43 C46.4,-54.1 53.8,-66.7 53.8,-82.5 C53.8,-91.6 51,-99 49.3,-102.6 C46.9,-107.7 44,-111.2 42.3,-111.2 C41.6,-111.2 38.4,-110 35.2,-106.1 C28.7,-98.5 26.9,-85.8 26.9,-77.4 C26.9,-72 27.4,-67.1 29.1,-55.8 C29,-55.8 23.8,-50.5 21.7,-48.7 C12.6,-40.3 0,-28.1 0,-8.2 C0,10.6 16.3,25.3 34.9,25.3 C37.8,25.3 40.5,25 42.9,24.6 C44.7,34.1 45.9,41.2 45.9,46.5 C45.9,56.9 40.5,62.4 30.4,62.4 C28,62.4 25.9,61.9 25.7,61.8 C25.6,61.8 25.4,61.7 25.4,61.6 C25.4,61.4 25.6,61.3 25.9,61.2 C30.6,60.5 35.3,56.4 35.3,50.1 C35.3,44.7 31.2,39 23.7,39 C16.7,39 12.3,44.7 12.3,51.3 C12.3,57.9 17.3,66.6 30.8,66.6 C43.7,66.6 50,59.3 50,46.5 C50,42.6 49.4,38.1 48.4,32.4 C48.1,30.4 47.6,27.3 46.9,23.5 C56.7,20.2 64,10.1 64,-0.2 M42.3,71.7 C42.3,68 38.9,66.4 35.6,66.4 C31.4,66.4 27.3,69 27.3,73.5 C27.3,75.4 28,76.8 29.4,78.2 C26.8,79.2 24.2,81.2 24.2,84.3 C24.2,87.6 27.2,89.8 31.6,89.8 C37,89.8 40.8,86.8 40.8,82.5 C40.8,80.2 39.8,78.3 38,77 C40.9,75.7 42.3,74.1 42.3,71.7"/>
<path class="Clef" transform="matrix(1.07717,0,0,1.07717,232.795,668.761)" d="M36.2,21.2 C21.9,21.2 9.7,11.2 9.7,-3.9 C9.7,-16.1 18.3,-27 27.1,-34.7 C28.8,-36.1 30.4,-37.5 31.9,-39 C32.8,-33.6 33.5,-29 34.2,-24.8 C25.1,-22.2 18.9,-12.5 18.9,-3.2 C18.9,3.9 24.4,13.5 32.4,13.5 C33.2,13.5 34.1,13.1 34.1,12.1 C34.1,11.3 33.2,10.7 31.9,9.9 C28,7.6 25.8,4.9 25.8,0.1 C25.8,-6 30.4,-10.9 36.2,-12.3 L42,20.5 C40,20.9 38.2,21.2 36.2,21.2 M33.2,-82.2 C34.2,-86.2 38.7,-96.7 43.9,-96.7 C45.4,-96.7 47.9,-91.9 47.9,-84.9 C47.9,-74.6 40.1,-66.8 33.2,-59.9 C32.6,-63.9 32.1,-67.9 32.1,-72 C32.1,-75.8 32.5,-79.1 33.2,-82.2 M46.2,19.3 C44.1,7.4 41.4,-8.5 40.7,-12.9 C50.8,-12.9 55.1,-5.9 56,-1.1 C56.1,-0.3 56.3,0.8 56.3,2 C56.3,9.2 53.3,16.4 46.2,19.3 M32.3,87.7 C30.1,87.7 28.6,86.3 28.6,84.2 C28.6,82.2 29.5,80.6 31.2,79.6 C31.6,79.8 31.7,79.8 32,80 C33.2,80.6 33.2,80.6 33.4,80.8 C35.3,81.9 36.1,82.9 36.1,84.3 C36.1,86.2 34.5,87.7 32.3,87.7 M36.1,75.7 C34.6,74.9 34.2,74.7 33.9,74.5 L33.7,74.4 C32.2,73.5 31.7,72.8 31.7,71.6 C31.7,69.8 33.1,68.5 35.1,68.5 C37,68.5 38.2,69.7 38.2,71.8 C38.2,73.4 37.6,74.5 36.1,75.7 M64,-0.2 C64,-15.3 53.3,-25.5 38.7,-25.5 C37.7,-31.5 36.8,-37.4 35.9,-43 C46.4,-54.1 53.8,-66.7 53.8,-82.5 C53.8,-91.6 51,-99 49.3,-102.6 C46.9,-107.7 44,-111.2 42.3,-111.2 C41.6,-111.2 38.4,-110 35.2,-106.1 C28.7,-98.5 26.9,-85.8 26.9,-77.4 C26.9,-72 27.4,-67.1 29.1,-55.8 C29,-55.8 23.8,-50.5 21.7,-48.7 C12.6,-40.3 0,-28.1 0,-8.2 C0,10.6 16.3,25.3 34.9,25.3 C37.8,25.3 40.5,25 42.9,24.6 C44.7,34.1 45.9,41.2 45.9,46.5 C45.9,56.9 40.5,62.4 30.4,62.4 C28,62.4 25.9,61.9 25.7,61.8 C25.6,61.8 25.4,61.7 25.4,61.6 C25.4,61.4 25.6,61.3 25.9,61.2 C30.6,60.5 35.3,56.4 35.3,50.1 C35.3,44.7 31.2,39 23.7,39 C16.7,39 12.3,44.7 12.3,51.3 C12.3,57.9 17.3,66.6 30.8,66.6 C43.7,66.6 50,59.3 50,46.5 C50,42.6 49.4,38.1 48.4,32.4 C48.1,30.4 47.6,27.3 46.9,23.5 C56.7,20.2 64,10.1 64,-0.2 M42.3,71.7 C42.3,68 38.9,66.4 35.6,66.4 C31.4,66.4 27.3,69 27.3,73.5 C27.3,75.4 28,76.8 29.4,78.2 C26.8,79.2 24.2,81.2 24.2,84.3 C24.2,87.6 27.2,89.8 31.6,89.8 C37,89.8 40.8,86.8 40.8,82.5 C40.8,80.2 39.8,78.3 38,77 C40.9,75.7 42.3,74.1 42.3,71.7"/>
<path class="Clef" transform="matrix(1.07717,0,0,1.07717,232.795,332.147)" d="M36.2,21.2 C21.9,21.2 9.7,11.2 9.7,-3.9 C9.7,-16.1 18.3,-27 27.1,-34.7 C28.8,-36.1 30.4,-37.5 31.9,-39 C32.8,-33.6 33.5,-29 34.2,-24.8 C25.1,-22.2 18.9,-12.5 18.9,-3.2 C18.9,3.9 24.4,13.5 32.4,13.5 C33.2,13.5 34.1,13.1 34.1,12.1 C34.1,11.3 33.2,10.7 31.9,9.9 C28,7.6 25.8,4.9 25.8,0.1 C25.8,-6 30.4,-10.9 36.2,-12.3 L42,20.5 C40,20.9 38.2,21.2 36.2,21.2 M33.2,-82.2 C34.2,-86.2 38.7,-96.7 43.9,-96.7 C45.4,-96.7 47.9,-91.9 47.9,-84.9 C47.9,-74.6 40.1,-66.8 33.2,-59.9 C32.6,-63.9 32.1,-67.9 32.1,-72 C32.1,-75.8 32.5,-79.1 33.2,-82.2 M46.2,19.3 C44.1,7.4 41.4,-8.5 40.7,-12.9 C50.8,-12.9 55.1,-5.9 56,-1.1 C56.1,-0.3 56.3,0.8 56.3,2 C56.3,9.2 53.3,16.4 46.2,19.3 M32.3,87.7 C30.1,87.7 28.6,86.3 28.6,84.2 C28.6,82.2 29.5,80.6 31.2,79.6 C31.6,79.8 31.7,79.8 32,80 C33.2,80.6 33.2,80.6 33.4,80.8 C35.3,81.9 36.1,82.9 36.1,84.3 C36.1,86.2 34.5,87.7 32.3,87.7 M36.1,75.7 C34.6,74.9 34.2,74.7 33.9,74.5 L33.7,74.4 C32.2,73.5 31.7,72.8 31.7,71.6 C31.7,69.8 33.1,68.5 35.1,68.5 C37,68.5 38.2,69.7 38.2,71.8 C38.2,73.4 37.6,74.5 36.1,75.7 M64,-0.2 C64,-15.3 53.3,-25.5 38.7,-25.5 C37.7,-31.5 36.8,-37.4 35.9,-43 C46.4,-54.1 53.8,-66.7 53.8,-82.5 C53.8,-91.6 51,-99 49.3,-102.6 C46.9,-107.7 44,-111.2 42.3,-111.2 C41.6,-111.2 38.4,-110 35.2,-106.1 C28.7,-98.5 26.9,-85.8 26.9,-77.4 C26.9,-72 27.4,-67.1 29.1,-55.8 C29,-55.8 23.8,-50.5 21.7,-48.7 C12.6,-40.3 0,-28.1 0,-8.2 C0,10.6 16.3,25.3 34.9,25.3 C37.8,25.3 40.5,25 42.9,24.6 C44.7,34.1 45.9,41.2 45.9,46.5 C45.9,56.9 40.5,62.4 30.4,62.4 C28,62.4 25.9,61.9 25.7,61.8 C25.6,61.8 25.4,61.7 25.4,61.6 C25.4,61.4 25.6,61.3 25.9,61.2 C30.6,60.5 35.3,56.4 35.3,50.1 C35.3,44.7 31.2,39 23.7,39 C16.7,39 12.3,44.7 12.3,51.3 C12.3,57.9 17.3,66.6 30.8,66.6 C43.7,66.6 50,59.3 50,46.5 C50,42.6 49.4,38.1 48.4,32.4 C48.1,30.4 47.6,27.3 46.9,23.5 C56.7,20.2 64,10.1 64,-0.2 M42.3,71.7 C42.3,68 38.9,66.4 35.6,66.4 C31.4,66.4 27.3,69 27.3,73.5 C27.3,75.4 28,76.8 29.4,78.2 C26.8,79.2 24.2,81.2 24.2,84.3 C24.2,87.6 27.2,89.8 31.6,89.8 C37,89.8 40.8,86.8 40.8,82.5 C40.8,80.2 39.8,78.3 38,77 C40.9,75.7 42.3,74.1 42.3,71.7"/>
<path class="KeySig" transform="matrix(1.07717,0,0,1.07717,321.914,641.832)" d="M13.2,-4 C13.2,3.9 9.1,8.1 3.3,12.7 L3.6,-6.8 C3.8,-7.7 5.3,-10.6 9.3,-10.6 C12.9,-10.6 13.2,-7.2 13.2,-5.1 L13.2,-4 M12,-15.5 C7,-15.5 4.1,-12.4 3.6,-11.8 L4,-43.9 C4,-44.7 3.4,-45.3 2.6,-45.3 L1.4,-45.3 C0.6,-45.3 0,-44.7 0,-43.9 L0.5,16.2 C0.5,17 1.1,17.6 1.9,17.6 C2.1,17.6 2.5,17.5 2.7,17.4 C11.3,13.1 20.3,4.9 20.3,-5.4 C20.3,-10.6 17.9,-15.5 12,-15.5"/>
<path class="KeySig" transform="matrix(1.07717,0,0,1.07717,321.914,305.218)" d="M13.2,-4 C13.2,3.9 9.1,8.1 3.3,12.7 L3.6,-6.8 C3.8,-7.7 5.3,-10.6 9.3,-10.6 C12.9,-10.6 13.2,-7.2 13.2,-5.1 L13.2,-4 M12,-15.5 C7,-15.5 4.1,-12.4 3.6,-11.8 L4,-43.9 C4,-44.7 3.4,-45.3 2.6,-45.3 L1.4,-45.3 C0.6,-45.3 0,-44.7 0,-43.9 L0.5,16.2 C0.5,17 1.1,17.6 1.9,17.6 C2.1,17.6 2.5,17.5 2.7,17.4 C11.3,13.1 20.3,4.9 20.3,-5.4 C20.3,-10.6 17.9,-15.5 12,-15.5"/>
<path class="KeySig" transform="matrix(1.07717,0,0,1.07717,321.914,978.446)" d="M13.2,-4 C13.2,3.9 9.1,8.1 3.3,12.7 L3.6,-6.8 C3.8,-7.7 5.3,-10.6 9.3,-10.6 C12.9,-10.6 13.2,-7.2 13.2,-5.1 L13.2,-4 M12,-15.5 C7,-15.5 4.1,-12.4 3.6,-11.8 L4,-43.9 C4,-44.7 3.4,-45.3 2.6,-45.3 L1.4,-45.3 C0.6,-45.3 0,-44.7 0,-43.9 L0.5,16.2 C0.5,17 1.1,17.6 1.9,17.6 C2.1,17.6 2.5,17.5 2.7,17.4 C11.3,13.1 20.3,4.9 20.3,-5.4 C20.3,-10.6 17.9,-15.5 12,-15.5"/>
<path class="Lyrics" d="M1242.04,785.029 L1251.87,784.651 L1251.87,782.329 L1250.52,782.329 C1247.39,782.221 1247.12,781.897 1247.12,778.387 L1247.12,759.487 L1236.97,760.081 L1236.97,762.403 L1239.72,762.403 C1241.77,762.457 1242.04,762.781 1242.04,765.103 L1242.04,771.745 C1242.04,776.443 1240.91,782.167 1234.97,782.167 C1233.3,782.167 1231.89,781.573 1231.19,780.493 C1230.49,779.467 1230.38,778.927 1230.38,775.957 L1230.38,759.487 L1220.93,760.081 L1220.93,762.403 L1222.98,762.403 C1225.03,762.457 1225.3,762.781 1225.3,765.103 L1225.3,776.767 C1225.3,779.521 1225.52,780.763 1226.33,782.005 C1227.79,784.219 1230.38,785.461 1233.62,785.461 C1237.18,785.461 1239.67,784.003 1242.04,780.547 L1242.04,785.029 M1263.64,759.487 L1254.02,760.081 L1254.02,762.403 L1256.24,762.403 C1258.29,762.457 1258.56,762.781 1258.56,765.103 L1258.56,780.547 C1258.51,781.357 1258.45,781.681 1258.24,781.951 C1257.86,782.437 1256.83,782.653 1254.51,782.707 L1254.29,782.707 L1254.29,784.651 L1267.9,784.651 L1267.9,782.707 L1267.69,782.707 C1264.12,782.599 1263.64,782.329 1263.64,780.331 L1263.64,770.341 C1263.64,765.535 1266.28,761.971 1269.79,761.971 C1272.87,761.971 1274.44,764.185 1274.44,768.559 L1274.44,780.601 C1274.38,781.303 1274.33,781.681 1274.06,781.951 C1273.73,782.437 1272.65,782.653 1270.33,782.707 L1270.12,782.707 L1270.12,784.651 L1283.78,784.651 L1283.78,782.707 L1283.56,782.707 C1280,782.599 1279.51,782.329 1279.51,780.385 L1279.51,770.827 C1279.51,765.427 1281.94,761.971 1285.72,761.971 C1288.8,761.971 1290.31,764.293 1290.31,769.153 L1290.31,780.547 C1290.26,781.303 1290.2,781.681 1289.93,781.951 C1289.61,782.437 1288.53,782.653 1286.21,782.707 L1285.99,782.707 L1285.99,784.651 L1299.65,784.651 L1299.65,782.707 L1299.44,782.707 C1295.87,782.599 1295.39,782.329 1295.39,780.331 L1295.39,768.073 C1295.39,764.725 1295.06,763.591 1293.66,761.755 C1292.09,759.757 1289.88,758.677 1287.29,758.677 C1283.78,758.677 1281.19,760.351 1278.86,764.077 C1277.95,760.837 1275.03,758.677 1271.41,758.677 C1268.12,758.677 1265.74,760.243 1263.64,763.645 L1263.64,759.487 "/>
<path class="Lyrics" d="M1009.57,1087.33 L1007.68,1087.33 L1006.11,1089.28 C1004.17,1087.77 1002.22,1087.12 999.523,1087.12 C994.771,1087.12 991.639,1090.2 991.639,1094.95 C991.639,1100.02 994.933,1101.32 999.253,1102.35 L1002.12,1102.99 C1006.38,1104.02 1007.89,1105.1 1007.89,1107.26 C1007.89,1109.8 1005.68,1111.58 1002.55,1111.58 C997.957,1111.58 994.717,1108.66 993.421,1103.26 L991.261,1103.26 L991.261,1113.47 L993.151,1113.47 L995.041,1111.26 C997.255,1113.04 999.685,1113.9 1002.44,1113.9 C1007.73,1113.9 1011.24,1110.61 1011.24,1105.59 C1011.24,1103.21 1010.49,1101.37 1008.97,1100.13 C1007.68,1099 1006.6,1098.57 1003.3,1097.86 L1000.6,1097.27 C997.633,1096.62 997.633,1096.62 996.661,1096.08 C995.473,1095.54 994.771,1094.41 994.771,1093.22 C994.771,1091.01 996.823,1089.49 999.793,1089.49 C1004.22,1089.49 1006.38,1092.63 1007.68,1096.41 L1009.57,1096.41 L1009.57,1087.33 M1034.41,1105.15 C1032.68,1109.04 1030.84,1110.61 1028.03,1110.61 C1023.71,1110.61 1021.01,1106.67 1021.01,1100.35 C1021.01,1093.76 1023.66,1089.44 1027.66,1089.44 C1029.28,1089.44 1030.68,1090.2 1030.68,1091.06 C1030.68,1091.22 1030.63,1091.38 1030.36,1091.71 C1029.49,1092.73 1029.28,1093.27 1029.28,1094.19 C1029.28,1095.97 1030.63,1097.22 1032.52,1097.22 C1034.46,1097.22 1035.81,1095.7 1035.81,1093.54 C1035.81,1089.87 1032.19,1087.12 1027.39,1087.12 C1020.37,1087.12 1015.34,1092.84 1015.34,1100.94 C1015.34,1108.61 1019.93,1113.9 1026.63,1113.9 C1031.44,1113.9 1034.19,1111.69 1036.51,1105.96 L1034.41,1105.15 M1062.59,1100.94 C1062.64,1092.84 1058.05,1087.12 1051.46,1087.12 C1044.55,1087.12 1039.37,1093.11 1039.37,1101.21 C1039.37,1108.83 1044.28,1113.9 1051.57,1113.9 C1056.75,1113.9 1060.37,1111.36 1062.59,1106.23 L1060.7,1105.21 C1058.48,1109.37 1056.21,1110.99 1052.6,1110.99 C1049.84,1110.99 1047.84,1109.85 1046.44,1107.42 C1045.47,1105.8 1045.04,1103.91 1045.09,1100.94 L1062.59,1100.94 M1045.14,1098.62 C1045.14,1094.84 1046.87,1089.44 1051.41,1089.44 C1054.65,1089.44 1056.81,1092.3 1056.81,1096.68 C1056.81,1098.19 1056.32,1098.62 1054.59,1098.62 L1045.14,1098.62 "/>
<path class="Lyrics" d="M408.231,1087.93 L398.889,1088.52 L398.889,1090.84 L400.833,1090.84 C402.885,1090.9 403.155,1091.22 403.155,1093.54 L403.155,1119.95 C403.101,1120.71 403.047,1121.03 402.831,1121.3 C402.453,1121.79 401.427,1122 399.105,1122.06 L398.889,1122.06 L398.889,1124 L412.929,1124 L412.929,1122.06 L412.335,1122.06 C408.717,1121.95 408.231,1121.68 408.231,1119.73 L408.231,1109.53 C410.013,1112.66 412.011,1113.9 415.359,1113.9 C422.541,1113.9 426.267,1106.83 426.267,1100.4 C426.267,1094.3 422.541,1087.12 415.683,1087.12 C412.335,1087.12 410.121,1088.52 408.231,1091.76 L408.231,1087.93 M414.711,1090.03 C418.437,1090.03 420.597,1093.76 420.597,1100.08 C420.597,1107.04 418.437,1110.99 414.549,1110.99 C410.661,1110.99 408.177,1106.99 408.177,1100.78 C408.177,1094.03 410.607,1090.03 414.711,1090.03 M452.769,1095.7 C452.769,1092.3 452.175,1090.57 450.609,1089.28 C448.827,1087.82 446.181,1087.12 442.725,1087.12 C436.623,1087.12 432.195,1089.98 432.195,1093.92 C432.195,1095.92 433.437,1097.22 435.327,1097.22 C437.055,1097.22 438.243,1096.08 438.243,1094.46 C438.243,1093.76 437.973,1093 437.433,1092.25 C437.109,1091.87 437.055,1091.76 437.055,1091.49 C437.055,1090.41 439.215,1089.44 441.807,1089.44 C443.535,1089.44 445.425,1089.98 446.289,1090.79 C447.315,1091.65 447.693,1092.95 447.693,1095.38 L447.693,1097.49 C442.077,1098.46 440.295,1098.89 437.649,1099.92 C432.951,1101.64 430.737,1104.13 430.737,1107.58 C430.737,1111.47 433.761,1113.9 438.567,1113.9 C442.293,1113.9 445.641,1112.39 447.963,1109.64 C448.827,1112.39 450.177,1113.47 452.715,1113.47 C455.145,1113.47 457.683,1111.9 457.683,1110.34 C457.683,1109.96 457.467,1109.69 457.143,1109.69 C456.927,1109.69 456.711,1109.74 456.333,1109.91 C455.577,1110.23 455.253,1110.28 454.821,1110.28 C453.309,1110.28 452.769,1109.31 452.769,1106.56 L452.769,1095.7 M447.693,1102.29 C447.693,1105.53 447.531,1106.29 446.613,1107.69 C445.263,1109.69 442.833,1111.04 440.457,1111.04 C437.973,1111.04 436.191,1109.26 436.191,1106.83 C436.191,1104.56 437.325,1102.94 439.701,1101.81 C441.375,1101.05 443.481,1100.51 447.693,1099.81 L447.693,1102.29 "/>
<path class="Lyrics" d="M411.916,401.253 C410.188,401.253 408.784,402.657 408.784,404.385 C408.784,406.113 410.188,407.517 411.862,407.517 C413.644,407.517 415.048,406.113 415.048,404.385 C415.048,402.657 413.644,401.253 411.916,401.253 M414.454,414.699 L404.302,415.293 L404.302,417.615 L407.056,417.615 C409.108,417.669 409.378,417.993 409.378,420.315 L409.378,435.759 C409.324,436.569 409.27,436.893 409.054,437.163 C408.676,437.649 407.65,437.865 405.328,437.919 L404.95,437.919 L404.95,439.863 L418.936,439.863 L418.936,437.919 L418.558,437.919 C414.94,437.811 414.454,437.541 414.454,435.597 L414.454,414.699 M431.13,414.699 L421.788,415.293 L421.788,417.615 L423.732,417.615 C425.784,417.669 426.054,417.993 426.054,420.315 L426.054,435.759 C426,436.569 425.946,436.893 425.73,437.163 C425.352,437.649 424.326,437.865 422.004,437.919 L421.788,437.919 L421.788,439.863 L435.45,439.863 L435.45,437.919 L435.234,437.919 C431.616,437.811 431.13,437.541 431.13,435.597 L431.13,427.605 C431.13,424.959 431.508,422.529 432.102,421.287 C433.236,418.857 435.666,417.183 437.988,417.183 C439.392,417.183 441.012,417.939 441.822,419.073 C442.632,420.261 443.01,421.881 443.01,424.473 L443.01,435.759 C442.956,436.569 442.902,436.893 442.686,437.163 C442.308,437.649 441.228,437.865 438.906,437.919 L438.69,437.919 L438.69,439.863 L452.352,439.863 L452.352,437.919 L452.136,437.919 C448.572,437.811 448.086,437.541 448.086,435.597 L448.086,424.743 C448.086,420.855 447.924,419.883 446.952,418.047 C445.602,415.455 442.902,413.889 439.662,413.889 C436.152,413.889 433.506,415.509 431.13,419.073 L431.13,414.699 "/>
<path class="Lyrics" d="M503.788,1087.93 L494.446,1088.52 L494.446,1090.84 L496.39,1090.84 C498.442,1090.9 498.712,1091.22 498.712,1093.54 L498.712,1108.99 C498.658,1109.8 498.604,1110.12 498.388,1110.39 C498.01,1110.88 496.984,1111.09 494.662,1111.15 L494.446,1111.15 L494.446,1113.09 L508.108,1113.09 L508.108,1111.15 L507.892,1111.15 C504.274,1111.04 503.788,1110.77 503.788,1108.83 L503.788,1100.83 C503.788,1098.19 504.166,1095.76 504.76,1094.52 C505.894,1092.09 508.324,1090.41 510.646,1090.41 C512.05,1090.41 513.67,1091.17 514.48,1092.3 C515.29,1093.49 515.668,1095.11 515.668,1097.7 L515.668,1108.99 C515.614,1109.8 515.56,1110.12 515.344,1110.39 C514.966,1110.88 513.886,1111.09 511.564,1111.15 L511.348,1111.15 L511.348,1113.09 L525.01,1113.09 L525.01,1111.15 L524.794,1111.15 C521.23,1111.04 520.744,1110.77 520.744,1108.83 L520.744,1097.97 C520.744,1094.08 520.582,1093.11 519.61,1091.28 C518.26,1088.68 515.56,1087.12 512.32,1087.12 C508.81,1087.12 506.164,1088.74 503.788,1092.3 L503.788,1087.93 M551.082,1100.94 C551.136,1092.84 546.546,1087.12 539.958,1087.12 C533.046,1087.12 527.862,1093.11 527.862,1101.21 C527.862,1108.83 532.776,1113.9 540.066,1113.9 C545.25,1113.9 548.868,1111.36 551.082,1106.23 L549.192,1105.21 C546.978,1109.37 544.71,1110.99 541.092,1110.99 C538.338,1110.99 536.34,1109.85 534.936,1107.42 C533.964,1105.8 533.532,1103.91 533.586,1100.94 L551.082,1100.94 M533.64,1098.62 C533.64,1094.84 535.368,1089.44 539.904,1089.44 C543.144,1089.44 545.304,1092.3 545.304,1096.68 C545.304,1098.19 544.818,1098.62 543.09,1098.62 L533.64,1098.62 "/>
<path class="Lyrics" d="M509.894,400.065 L499.904,400.659 L499.904,402.981 L502.55,402.981 C504.548,403.035 504.818,403.359 504.818,405.681 L504.818,435.759 C504.764,436.569 504.71,436.893 504.494,437.163 C504.116,437.649 503.09,437.865 500.768,437.919 L500.39,437.919 L500.39,439.863 L514.376,439.863 L514.376,437.919 L513.998,437.919 C510.38,437.811 509.894,437.541 509.894,435.597 L509.894,400.065 M540.286,422.475 C540.286,419.073 539.692,417.345 538.126,416.049 C536.344,414.591 533.698,413.889 530.242,413.889 C524.14,413.889 519.712,416.751 519.712,420.693 C519.712,422.691 520.954,423.987 522.844,423.987 C524.572,423.987 525.76,422.853 525.76,421.233 C525.76,420.531 525.49,419.775 524.95,419.019 C524.626,418.641 524.572,418.533 524.572,418.263 C524.572,417.183 526.732,416.211 529.324,416.211 C531.052,416.211 532.942,416.751 533.806,417.561 C534.832,418.425 535.21,419.721 535.21,422.151 L535.21,424.257 C529.594,425.229 527.812,425.661 525.166,426.687 C520.468,428.415 518.254,430.899 518.254,434.355 C518.254,438.243 521.278,440.673 526.084,440.673 C529.81,440.673 533.158,439.161 535.48,436.407 C536.344,439.161 537.694,440.241 540.232,440.241 C542.662,440.241 545.2,438.675 545.2,437.109 C545.2,436.731 544.984,436.461 544.66,436.461 C544.444,436.461 544.228,436.515 543.85,436.677 C543.094,437.001 542.77,437.055 542.338,437.055 C540.826,437.055 540.286,436.083 540.286,433.329 L540.286,422.475 M535.21,429.063 C535.21,432.303 535.048,433.059 534.13,434.463 C532.78,436.461 530.35,437.811 527.974,437.811 C525.49,437.811 523.708,436.029 523.708,433.599 C523.708,431.331 524.842,429.711 527.218,428.577 C528.892,427.821 530.998,427.281 535.21,426.579 L535.21,429.063 "/>
<path class="Lyrics" d="M609.111,1087.93 L609.111,1077.24 L606.897,1077.24 C606.357,1084.26 603.981,1087.82 599.607,1088.14 L599.607,1090.25 L604.035,1090.25 L604.035,1104.02 C604.035,1107.8 604.143,1109.15 604.683,1110.39 C605.547,1112.66 607.707,1113.9 610.839,1113.9 C615.699,1113.9 618.831,1110.23 618.831,1104.51 C618.831,1104.18 618.831,1103.8 618.777,1103.26 L616.509,1103.26 C616.347,1108.12 614.943,1110.61 612.297,1110.61 C611.055,1110.61 609.975,1109.96 609.597,1109.04 C609.273,1108.29 609.111,1106.94 609.111,1104.99 L609.111,1090.25 L617.049,1090.25 L617.049,1087.93 L609.111,1087.93 M641.836,1113.47 L651.664,1113.09 L651.664,1110.77 L650.314,1110.77 C647.182,1110.66 646.912,1110.34 646.912,1106.83 L646.912,1087.93 L636.76,1088.52 L636.76,1090.84 L639.514,1090.84 C641.566,1090.9 641.836,1091.22 641.836,1093.54 L641.836,1100.19 C641.836,1104.88 640.702,1110.61 634.762,1110.61 C633.088,1110.61 631.684,1110.01 630.982,1108.93 C630.28,1107.91 630.172,1107.37 630.172,1104.4 L630.172,1087.93 L620.722,1088.52 L620.722,1090.84 L622.774,1090.84 C624.826,1090.9 625.096,1091.22 625.096,1093.54 L625.096,1105.21 C625.096,1107.96 625.312,1109.2 626.122,1110.45 C627.58,1112.66 630.172,1113.9 633.412,1113.9 C636.976,1113.9 639.46,1112.44 641.836,1108.99 L641.836,1113.47 "/>
<path class="Lyrics" d="M891.706,414.699 L882.364,415.293 L882.364,417.615 L884.308,417.615 C886.36,417.669 886.63,417.993 886.63,420.315 L886.63,435.759 C886.576,436.569 886.522,436.893 886.306,437.163 C885.928,437.649 884.902,437.865 882.58,437.919 L882.364,437.919 L882.364,439.863 L896.026,439.863 L896.026,437.919 L895.81,437.919 C892.192,437.811 891.706,437.541 891.706,435.597 L891.706,427.605 C891.706,424.959 892.084,422.529 892.678,421.287 C893.812,418.857 896.242,417.183 898.564,417.183 C899.968,417.183 901.588,417.939 902.398,419.073 C903.208,420.261 903.586,421.881 903.586,424.473 L903.586,435.759 C903.532,436.569 903.478,436.893 903.262,437.163 C902.884,437.649 901.804,437.865 899.482,437.919 L899.266,437.919 L899.266,439.863 L912.928,439.863 L912.928,437.919 L912.712,437.919 C909.148,437.811 908.662,437.541 908.662,435.597 L908.662,424.743 C908.662,420.855 908.5,419.883 907.528,418.047 C906.178,415.455 903.478,413.889 900.238,413.889 C896.728,413.889 894.082,415.509 891.706,419.073 L891.706,414.699 M936.139,440.241 L945.967,439.863 L945.967,437.541 L944.617,437.541 C941.485,437.433 941.215,437.109 941.215,433.599 L941.215,414.699 L931.063,415.293 L931.063,417.615 L933.817,417.615 C935.869,417.669 936.139,417.993 936.139,420.315 L936.139,426.957 C936.139,431.655 935.005,437.379 929.065,437.379 C927.391,437.379 925.987,436.785 925.285,435.705 C924.583,434.679 924.475,434.139 924.475,431.169 L924.475,414.699 L915.025,415.293 L915.025,417.615 L917.077,417.615 C919.129,417.669 919.399,417.993 919.399,420.315 L919.399,431.979 C919.399,434.733 919.615,435.975 920.425,437.217 C921.883,439.431 924.475,440.673 927.715,440.673 C931.279,440.673 933.763,439.215 936.139,435.759 L936.139,440.241 "/>
<path class="Lyrics" d="M598.96,400.065 L589.672,400.659 L589.672,402.981 L591.562,402.981 C593.614,403.035 593.884,403.359 593.884,405.681 L593.884,426.687 C593.884,434.193 593.56,438.297 592.912,440.619 L594.964,440.619 L597.61,436.407 C599.824,439.323 602.362,440.673 605.71,440.673 C612.406,440.673 617.32,434.949 617.32,427.119 C617.32,419.343 612.784,413.889 606.304,413.889 C603.01,413.889 601.012,415.023 598.96,418.101 L598.96,400.065 M605.332,416.643 C609.382,416.643 611.65,420.585 611.65,427.659 C611.65,434.517 609.436,438.351 605.494,438.351 C601.228,438.351 598.69,434.409 598.69,427.767 C598.69,420.531 601.012,416.643 605.332,416.643 M632.863,413.889 C626.221,413.889 621.091,419.775 621.091,427.335 C621.091,434.733 626.275,440.673 632.755,440.673 C639.235,440.673 644.419,434.733 644.419,427.281 C644.419,419.883 639.235,413.889 632.863,413.889 M632.863,416.211 C636.643,416.211 638.749,420.153 638.749,427.281 C638.749,434.463 636.643,438.351 632.755,438.351 C628.867,438.351 626.761,434.463 626.761,427.335 C626.761,419.991 628.813,416.211 632.863,416.211"/>
<path class="Lyrics" d="M696.856,414.699 L687.298,415.293 L687.298,417.615 L689.512,417.615 C691.564,417.669 691.834,417.993 691.834,420.315 L691.834,435.759 C691.78,436.569 691.726,436.893 691.51,437.163 C691.132,437.649 690.052,437.865 687.73,437.919 L687.514,437.919 L687.514,439.863 L701.932,439.863 L701.932,437.919 L700.96,437.919 C697.342,437.811 696.856,437.541 696.856,435.597 L696.856,432.681 C696.91,423.609 700.15,416.697 704.362,416.481 C703.606,417.345 703.39,417.885 703.39,418.911 C703.39,420.639 704.632,421.881 706.36,421.881 C708.358,421.881 709.654,420.423 709.654,418.263 C709.654,415.617 707.818,413.889 704.956,413.889 C701.554,413.889 698.638,416.589 696.856,421.395 L696.856,414.699 M734.914,427.713 C734.968,419.613 730.378,413.889 723.79,413.889 C716.878,413.889 711.694,419.883 711.694,427.983 C711.694,435.597 716.608,440.673 723.898,440.673 C729.082,440.673 732.7,438.135 734.914,433.005 L733.024,431.979 C730.81,436.137 728.542,437.757 724.924,437.757 C722.17,437.757 720.172,436.623 718.768,434.193 C717.796,432.573 717.364,430.683 717.418,427.713 L734.914,427.713 M717.472,425.391 C717.472,421.611 719.2,416.211 723.736,416.211 C726.976,416.211 729.136,419.073 729.136,423.447 C729.136,424.959 728.65,425.391 726.922,425.391 L717.472,425.391 "/>
<path class="Lyrics" d="M776.879,414.699 L767.267,415.293 L767.267,417.615 L769.481,417.615 C771.533,417.669 771.803,417.993 771.803,420.315 L771.803,435.759 C771.749,436.569 771.695,436.893 771.479,437.163 C771.101,437.649 770.075,437.865 767.753,437.919 L767.537,437.919 L767.537,439.863 L781.145,439.863 L781.145,437.919 L780.929,437.919 C777.365,437.811 776.879,437.541 776.879,435.543 L776.879,425.553 C776.879,420.747 779.525,417.183 783.035,417.183 C786.113,417.183 787.679,419.397 787.679,423.771 L787.679,435.813 C787.625,436.515 787.571,436.893 787.301,437.163 C786.977,437.649 785.897,437.865 783.575,437.919 L783.359,437.919 L783.359,439.863 L797.021,439.863 L797.021,437.919 L796.805,437.919 C793.241,437.811 792.755,437.541 792.755,435.597 L792.755,426.039 C792.755,420.639 795.185,417.183 798.965,417.183 C802.043,417.183 803.555,419.505 803.555,424.365 L803.555,435.759 C803.501,436.515 803.447,436.893 803.177,437.163 C802.853,437.649 801.773,437.865 799.451,437.919 L799.235,437.919 L799.235,439.863 L812.897,439.863 L812.897,437.919 L812.681,437.919 C809.117,437.811 808.631,437.541 808.631,435.543 L808.631,423.285 C808.631,419.937 808.307,418.803 806.903,416.967 C805.337,414.969 803.123,413.889 800.531,413.889 C797.021,413.889 794.429,415.563 792.107,419.289 C791.189,416.049 788.273,413.889 784.655,413.889 C781.361,413.889 778.985,415.455 776.879,418.857 L776.879,414.699 M838.433,422.475 C838.433,419.073 837.839,417.345 836.273,416.049 C834.491,414.591 831.845,413.889 828.389,413.889 C822.287,413.889 817.859,416.751 817.859,420.693 C817.859,422.691 819.101,423.987 820.991,423.987 C822.719,423.987 823.907,422.853 823.907,421.233 C823.907,420.531 823.637,419.775 823.097,419.019 C822.773,418.641 822.719,418.533 822.719,418.263 C822.719,417.183 824.879,416.211 827.471,416.211 C829.199,416.211 831.089,416.751 831.953,417.561 C832.979,418.425 833.357,419.721 833.357,422.151 L833.357,424.257 C827.741,425.229 825.959,425.661 823.313,426.687 C818.615,428.415 816.401,430.899 816.401,434.355 C816.401,438.243 819.425,440.673 824.231,440.673 C827.957,440.673 831.305,439.161 833.627,436.407 C834.491,439.161 835.841,440.241 838.379,440.241 C840.809,440.241 843.347,438.675 843.347,437.109 C843.347,436.731 843.131,436.461 842.807,436.461 C842.591,436.461 842.375,436.515 841.997,436.677 C841.241,437.001 840.917,437.055 840.485,437.055 C838.973,437.055 838.433,436.083 838.433,433.329 L838.433,422.475 M833.357,429.063 C833.357,432.303 833.195,433.059 832.277,434.463 C830.927,436.461 828.497,437.811 826.121,437.811 C823.637,437.811 821.855,436.029 821.855,433.599 C821.855,431.331 822.989,429.711 825.365,428.577 C827.039,427.821 829.145,427.281 833.357,426.579 L833.357,429.063 "/>
<path class="Lyrics" d="M765.846,1087.12 C759.204,1087.12 754.074,1093 754.074,1100.56 C754.074,1107.96 759.258,1113.9 765.738,1113.9 C772.218,1113.9 777.402,1107.96 777.402,1100.51 C777.402,1093.11 772.218,1087.12 765.846,1087.12 M765.846,1089.44 C769.626,1089.44 771.732,1093.38 771.732,1100.51 C771.732,1107.69 769.626,1111.58 765.738,1111.58 C761.85,1111.58 759.744,1107.69 759.744,1100.56 C759.744,1093.22 761.796,1089.44 765.846,1089.44"/>
<path class="Lyrics" d="M1104.76,759.487 L1104.76,748.795 L1102.55,748.795 C1102.01,755.815 1099.63,759.379 1095.26,759.703 L1095.26,761.809 L1099.68,761.809 L1099.68,775.579 C1099.68,779.359 1099.79,780.709 1100.33,781.951 C1101.2,784.219 1103.36,785.461 1106.49,785.461 C1111.35,785.461 1114.48,781.789 1114.48,776.065 C1114.48,775.741 1114.48,775.363 1114.43,774.823 L1112.16,774.823 C1112,779.683 1110.59,782.167 1107.95,782.167 C1106.7,782.167 1105.62,781.519 1105.25,780.601 C1104.92,779.845 1104.76,778.495 1104.76,776.551 L1104.76,761.809 L1112.7,761.809 L1112.7,759.487 L1104.76,759.487 M1137.49,785.029 L1147.31,784.651 L1147.31,782.329 L1145.96,782.329 C1142.83,782.221 1142.56,781.897 1142.56,778.387 L1142.56,759.487 L1132.41,760.081 L1132.41,762.403 L1135.16,762.403 C1137.22,762.457 1137.49,762.781 1137.49,765.103 L1137.49,771.745 C1137.49,776.443 1136.35,782.167 1130.41,782.167 C1128.74,782.167 1127.33,781.573 1126.63,780.493 C1125.93,779.467 1125.82,778.927 1125.82,775.957 L1125.82,759.487 L1116.37,760.081 L1116.37,762.403 L1118.42,762.403 C1120.48,762.457 1120.75,762.781 1120.75,765.103 L1120.75,776.767 C1120.75,779.521 1120.96,780.763 1121.77,782.005 C1123.23,784.219 1125.82,785.461 1129.06,785.461 C1132.63,785.461 1135.11,784.003 1137.49,780.547 L1137.49,785.029 "/>
<path class="Lyrics" d="M985.092,778.117 L978.936,763.861 C978.774,763.429 978.666,762.997 978.666,762.673 C978.666,761.755 979.368,761.431 981.582,761.431 L982.338,761.431 L982.338,759.487 L969.594,759.487 L969.594,761.431 L970.026,761.431 C972.078,761.431 972.834,761.971 973.59,763.753 L982.878,785.461 L984.768,785.461 L992.436,766.507 C993.948,762.835 995.244,761.593 997.458,761.431 L997.674,761.431 L997.674,759.487 L986.874,759.487 L986.874,761.431 L987.63,761.431 C989.52,761.431 990.546,762.079 990.546,763.321 C990.546,763.969 990.384,764.779 990.06,765.589 L985.092,778.117 M1021.36,785.029 L1031.19,784.651 L1031.19,782.329 L1029.84,782.329 C1026.71,782.221 1026.44,781.897 1026.44,778.387 L1026.44,759.487 L1016.29,760.081 L1016.29,762.403 L1019.04,762.403 C1021.09,762.457 1021.36,762.781 1021.36,765.103 L1021.36,771.745 C1021.36,776.443 1020.23,782.167 1014.29,782.167 C1012.61,782.167 1011.21,781.573 1010.51,780.493 C1009.81,779.467 1009.7,778.927 1009.7,775.957 L1009.7,759.487 L1000.25,760.081 L1000.25,762.403 L1002.3,762.403 C1004.35,762.457 1004.62,762.781 1004.62,765.103 L1004.62,776.767 C1004.62,779.521 1004.84,780.763 1005.65,782.005 C1007.11,784.219 1009.7,785.461 1012.94,785.461 C1016.5,785.461 1018.99,784.003 1021.36,780.547 L1021.36,785.029 M1043.12,744.853 L1033.13,745.447 L1033.13,747.769 L1035.77,747.769 C1037.77,747.823 1038.04,748.147 1038.04,750.469 L1038.04,780.547 C1037.99,781.357 1037.93,781.681 1037.72,781.951 C1037.34,782.437 1036.31,782.653 1033.99,782.707 L1033.61,782.707 L1033.61,784.651 L1047.6,784.651 L1047.6,782.707 L1047.22,782.707 C1043.6,782.599 1043.12,782.329 1043.12,780.385 L1043.12,744.853 "/>
<path class="Lyrics" d="M1395.65,1087.93 L1386.1,1088.52 L1386.1,1090.84 L1388.31,1090.84 C1390.36,1090.9 1390.63,1091.22 1390.63,1093.54 L1390.63,1108.99 C1390.58,1109.8 1390.52,1110.12 1390.31,1110.39 C1389.93,1110.88 1388.85,1111.09 1386.53,1111.15 L1386.31,1111.15 L1386.31,1113.09 L1400.73,1113.09 L1400.73,1111.15 L1399.76,1111.15 C1396.14,1111.04 1395.65,1110.77 1395.65,1108.83 L1395.65,1105.91 C1395.71,1096.84 1398.95,1089.93 1403.16,1089.71 C1402.4,1090.57 1402.19,1091.11 1402.19,1092.14 C1402.19,1093.87 1403.43,1095.11 1405.16,1095.11 C1407.16,1095.11 1408.45,1093.65 1408.45,1091.49 C1408.45,1088.85 1406.62,1087.12 1403.75,1087.12 C1400.35,1087.12 1397.44,1089.82 1395.65,1094.62 L1395.65,1087.93 M1433.71,1100.94 C1433.77,1092.84 1429.18,1087.12 1422.59,1087.12 C1415.68,1087.12 1410.49,1093.11 1410.49,1101.21 C1410.49,1108.83 1415.41,1113.9 1422.7,1113.9 C1427.88,1113.9 1431.5,1111.36 1433.71,1106.23 L1431.82,1105.21 C1429.61,1109.37 1427.34,1110.99 1423.72,1110.99 C1420.97,1110.99 1418.97,1109.85 1417.57,1107.42 C1416.6,1105.8 1416.16,1103.91 1416.22,1100.94 L1433.71,1100.94 M1416.27,1098.62 C1416.27,1094.84 1418,1089.44 1422.54,1089.44 C1425.78,1089.44 1427.94,1092.3 1427.94,1096.68 C1427.94,1098.19 1427.45,1098.62 1425.72,1098.62 L1416.27,1098.62 "/>
<path class="Lyrics" d="M858.065,1106.56 L851.909,1092.3 C851.747,1091.87 851.639,1091.44 851.639,1091.11 C851.639,1090.2 852.341,1089.87 854.555,1089.87 L855.311,1089.87 L855.311,1087.93 L842.567,1087.93 L842.567,1089.87 L842.999,1089.87 C845.051,1089.87 845.807,1090.41 846.563,1092.19 L855.851,1113.9 L857.741,1113.9 L865.409,1094.95 C866.921,1091.28 868.217,1090.03 870.431,1089.87 L870.647,1089.87 L870.647,1087.93 L859.847,1087.93 L859.847,1089.87 L860.603,1089.87 C862.493,1089.87 863.519,1090.52 863.519,1091.76 C863.519,1092.41 863.357,1093.22 863.033,1094.03 L858.065,1106.56 M894.932,1100.94 C894.986,1092.84 890.396,1087.12 883.808,1087.12 C876.896,1087.12 871.712,1093.11 871.712,1101.21 C871.712,1108.83 876.626,1113.9 883.916,1113.9 C889.1,1113.9 892.718,1111.36 894.932,1106.23 L893.042,1105.21 C890.828,1109.37 888.56,1110.99 884.942,1110.99 C882.188,1110.99 880.19,1109.85 878.786,1107.42 C877.814,1105.8 877.382,1103.91 877.436,1100.94 L894.932,1100.94 M877.49,1098.62 C877.49,1094.84 879.218,1089.44 883.754,1089.44 C886.994,1089.44 889.154,1092.3 889.154,1096.68 C889.154,1098.19 888.668,1098.62 886.94,1098.62 L877.49,1098.62 "/>
<path class="Lyrics" d="M429.658,772.501 C429.712,764.401 425.122,758.677 418.534,758.677 C411.622,758.677 406.438,764.671 406.438,772.771 C406.438,780.385 411.352,785.461 418.642,785.461 C423.826,785.461 427.444,782.923 429.658,777.793 L427.768,776.767 C425.554,780.925 423.286,782.545 419.668,782.545 C416.914,782.545 414.916,781.411 413.512,778.981 C412.54,777.361 412.108,775.471 412.162,772.501 L429.658,772.501 M412.216,770.179 C412.216,766.399 413.944,760.999 418.48,760.999 C421.72,760.999 423.88,763.861 423.88,768.235 C423.88,769.747 423.394,770.179 421.666,770.179 L412.216,770.179 M440.946,759.487 L440.946,748.795 L438.732,748.795 C438.192,755.815 435.816,759.379 431.442,759.703 L431.442,761.809 L435.87,761.809 L435.87,775.579 C435.87,779.359 435.978,780.709 436.518,781.951 C437.382,784.219 439.542,785.461 442.674,785.461 C447.534,785.461 450.666,781.789 450.666,776.065 C450.666,775.741 450.666,775.363 450.612,774.823 L448.344,774.823 C448.182,779.683 446.778,782.167 444.132,782.167 C442.89,782.167 441.81,781.519 441.432,780.601 C441.108,779.845 440.946,778.495 440.946,776.551 L440.946,761.809 L448.884,761.809 L448.884,759.487 L440.946,759.487 "/>
<path class="Lyrics" d="M703.423,759.487 L693.865,760.081 L693.865,762.403 L696.079,762.403 C698.131,762.457 698.401,762.781 698.401,765.103 L698.401,780.547 C698.347,781.357 698.293,781.681 698.077,781.951 C697.699,782.437 696.619,782.653 694.297,782.707 L694.081,782.707 L694.081,784.651 L708.499,784.651 L708.499,782.707 L707.527,782.707 C703.909,782.599 703.423,782.329 703.423,780.385 L703.423,777.469 C703.477,768.397 706.717,761.485 710.929,761.269 C710.173,762.133 709.957,762.673 709.957,763.699 C709.957,765.427 711.199,766.669 712.927,766.669 C714.925,766.669 716.221,765.211 716.221,763.051 C716.221,760.405 714.385,758.677 711.523,758.677 C708.121,758.677 705.205,761.377 703.423,766.183 L703.423,759.487 M741.481,772.501 C741.535,764.401 736.945,758.677 730.357,758.677 C723.445,758.677 718.261,764.671 718.261,772.771 C718.261,780.385 723.175,785.461 730.465,785.461 C735.649,785.461 739.267,782.923 741.481,777.793 L739.591,776.767 C737.377,780.925 735.109,782.545 731.491,782.545 C728.737,782.545 726.739,781.411 725.335,778.981 C724.363,777.361 723.931,775.471 723.985,772.501 L741.481,772.501 M724.039,770.179 C724.039,766.399 725.767,760.999 730.303,760.999 C733.543,760.999 735.703,763.861 735.703,768.235 C735.703,769.747 735.217,770.179 733.489,770.179 L724.039,770.179 "/>
<path class="Lyrics" d="M608.307,785.029 L617.703,784.651 L617.703,782.329 L616.731,782.329 C613.653,782.167 613.383,781.843 613.383,778.387 L613.383,744.853 L602.799,745.447 L602.799,747.769 L605.985,747.769 C608.037,747.823 608.307,748.147 608.307,750.469 L608.307,762.673 C606.309,759.919 603.987,758.677 600.855,758.677 C594.753,758.677 590.109,764.563 590.109,772.339 C590.109,780.007 594.591,785.461 600.855,785.461 C604.257,785.461 606.579,784.003 608.307,780.763 L608.307,785.029 M601.935,761.593 C604.149,761.593 606.255,763.213 607.227,765.697 C607.929,767.317 608.253,769.531 608.253,772.177 C608.253,778.495 605.769,782.545 601.881,782.545 C598.047,782.545 595.779,778.981 595.779,772.987 C595.779,769.747 596.103,767.317 596.805,765.535 C597.723,763.105 599.721,761.593 601.935,761.593 M632.379,758.677 C625.737,758.677 620.607,764.563 620.607,772.123 C620.607,779.521 625.791,785.461 632.271,785.461 C638.751,785.461 643.935,779.521 643.935,772.069 C643.935,764.671 638.751,758.677 632.379,758.677 M632.379,760.999 C636.159,760.999 638.265,764.941 638.265,772.069 C638.265,779.251 636.159,783.139 632.271,783.139 C628.383,783.139 626.277,779.251 626.277,772.123 C626.277,764.779 628.329,760.999 632.379,760.999"/>
<path class="Lyrics" d="M513.563,758.893 L511.673,758.893 L510.107,760.837 C508.163,759.325 506.219,758.677 503.519,758.677 C498.767,758.677 495.635,761.755 495.635,766.507 C495.635,771.583 498.929,772.879 503.249,773.905 L506.111,774.553 C510.377,775.579 511.889,776.659 511.889,778.819 C511.889,781.357 509.675,783.139 506.543,783.139 C501.953,783.139 498.713,780.223 497.417,774.823 L495.257,774.823 L495.257,785.029 L497.147,785.029 L499.037,782.815 C501.251,784.597 503.681,785.461 506.435,785.461 C511.727,785.461 515.237,782.167 515.237,777.145 C515.237,774.769 514.481,772.933 512.969,771.691 C511.673,770.557 510.593,770.125 507.299,769.423 L504.599,768.829 C501.629,768.181 501.629,768.181 500.657,767.641 C499.469,767.101 498.767,765.967 498.767,764.779 C498.767,762.565 500.819,761.053 503.789,761.053 C508.217,761.053 510.377,764.185 511.673,767.965 L513.563,767.965 L513.563,758.893 M539.751,785.029 L549.579,784.651 L549.579,782.329 L548.229,782.329 C545.097,782.221 544.827,781.897 544.827,778.387 L544.827,759.487 L534.675,760.081 L534.675,762.403 L537.429,762.403 C539.481,762.457 539.751,762.781 539.751,765.103 L539.751,771.745 C539.751,776.443 538.617,782.167 532.677,782.167 C531.003,782.167 529.599,781.573 528.897,780.493 C528.195,779.467 528.087,778.927 528.087,775.957 L528.087,759.487 L518.637,760.081 L518.637,762.403 L520.689,762.403 C522.741,762.457 523.011,762.781 523.011,765.103 L523.011,776.767 C523.011,779.521 523.227,780.763 524.037,782.005 C525.495,784.219 528.087,785.461 531.327,785.461 C534.891,785.461 537.375,784.003 539.751,780.547 L539.751,785.029 "/>
<path class="Lyrics" d="M1132.57,440.241 L1142.39,439.863 L1142.39,437.541 L1141.04,437.541 C1137.91,437.433 1137.64,437.109 1137.64,433.599 L1137.64,414.699 L1127.49,415.293 L1127.49,417.615 L1130.24,417.615 C1132.3,417.669 1132.57,417.993 1132.57,420.315 L1132.57,426.957 C1132.57,431.655 1131.43,437.379 1125.49,437.379 C1123.82,437.379 1122.41,436.785 1121.71,435.705 C1121.01,434.679 1120.9,434.139 1120.9,431.169 L1120.9,414.699 L1111.45,415.293 L1111.45,417.615 L1113.5,417.615 C1115.56,417.669 1115.83,417.993 1115.83,420.315 L1115.83,431.979 C1115.83,434.733 1116.04,435.975 1116.85,437.217 C1118.31,439.431 1120.9,440.673 1124.14,440.673 C1127.71,440.673 1130.19,439.215 1132.57,435.759 L1132.57,440.241 M1154.16,414.699 L1144.55,415.293 L1144.55,417.615 L1146.76,417.615 C1148.81,417.669 1149.08,417.993 1149.08,420.315 L1149.08,435.759 C1149.03,436.569 1148.97,436.893 1148.76,437.163 C1148.38,437.649 1147.35,437.865 1145.03,437.919 L1144.82,437.919 L1144.82,439.863 L1158.42,439.863 L1158.42,437.919 L1158.21,437.919 C1154.64,437.811 1154.16,437.541 1154.16,435.543 L1154.16,425.553 C1154.16,420.747 1156.8,417.183 1160.31,417.183 C1163.39,417.183 1164.96,419.397 1164.96,423.771 L1164.96,435.813 C1164.9,436.515 1164.85,436.893 1164.58,437.163 C1164.26,437.649 1163.18,437.865 1160.85,437.919 L1160.64,437.919 L1160.64,439.863 L1174.3,439.863 L1174.3,437.919 L1174.08,437.919 C1170.52,437.811 1170.03,437.541 1170.03,435.597 L1170.03,426.039 C1170.03,420.639 1172.46,417.183 1176.24,417.183 C1179.32,417.183 1180.83,419.505 1180.83,424.365 L1180.83,435.759 C1180.78,436.515 1180.73,436.893 1180.46,437.163 C1180.13,437.649 1179.05,437.865 1176.73,437.919 L1176.51,437.919 L1176.51,439.863 L1190.18,439.863 L1190.18,437.919 L1189.96,437.919 C1186.4,437.811 1185.91,437.541 1185.91,435.543 L1185.91,423.285 C1185.91,419.937 1185.59,418.803 1184.18,416.967 C1182.62,414.969 1180.4,413.889 1177.81,413.889 C1174.3,413.889 1171.71,415.563 1169.39,419.289 C1168.47,416.049 1165.55,413.889 1161.93,413.889 C1158.64,413.889 1156.26,415.455 1154.16,418.857 L1154.16,414.699 "/>
<polyline class="LyricsLineSegment" fill="none" stroke="#000000" stroke-width="2.69" stroke-linejoin="bevel" points="1021.07,427.514 1037.22,427.514" />
<polyline class="LyricsLineSegment" fill="none" stroke="#000000" stroke-width="2.69" stroke-linejoin="bevel" points="559.652,427.514 575.81,427.514" />
<polyline class="LyricsLineSegment" fill="none" stroke="#000000" stroke-width="2.69" stroke-linejoin="bevel" points="657.834,427.514 673.991,427.514" />
<polyline class="LyricsLineSegment" fill="none" stroke="#000000" stroke-width="2.69" stroke-linejoin="bevel" points="855.078,427.514 871.236,427.514" />
<polyline class="LyricsLineSegment" fill="none" stroke="#000000" stroke-width="2.69" stroke-linejoin="bevel" points="562.191,772.302 578.349,772.302" />
<polyline class="LyricsLineSegment" fill="none" stroke="#000000" stroke-width="2.69" stroke-linejoin="bevel" points="660.899,772.302 677.056,772.302" />
<polyline class="LyricsLineSegment" fill="none" stroke="#000000" stroke-width="2.69" stroke-linejoin="bevel" points="747.382,783.305 949.429,783.305" />
<polyline class="LyricsLineSegment" fill="none" stroke="#000000" stroke-width="2.69" stroke-linejoin="bevel" points="1176.49,772.302 1192.65,772.302" />
<polyline class="LyricsLineSegment" fill="none" stroke="#000000" stroke-width="2.69" stroke-linejoin="bevel" points="1063.36,772.302 1079.52,772.302" />
<polyline class="LyricsLineSegment" fill="none" stroke="#000000" stroke-width="2.69" stroke-linejoin="bevel" points="468.299,1100.74 484.456,1100.74" />
<polyline class="LyricsLineSegment" fill="none" stroke="#000000" stroke-width="2.69" stroke-linejoin="bevel" points="695.236,1100.74 711.394,1100.74" />
<polyline class="LyricsLineSegment" fill="none" stroke="#000000" stroke-width="2.69" stroke-linejoin="bevel" points="935.25,1100.74 951.408,1100.74" />
<polyline class="LyricsLineSegment" fill="none" stroke="#000000" stroke-width="2.69" stroke-linejoin="bevel" points="1216.35,1100.74 1232.51,1100.74" />
</svg>
