<?xml version="1.0" encoding="UTF-8" standalone="no"?>
<svg width="210.058mm" height="296.926mm" viewBox="0 0 2977.2 4208.4"
 xmlns="http://www.w3.org/2000/svg" xmlns:xlink="http://www.w3.org/1999/xlink" version="1.2" baseProfile="full">
<title>CB034_bnf (4)</title>
<desc>Generated by MuseScore Studio 4.6.5</desc>
<polyline class="StaffLines" fill="none" stroke="#000000" stroke-width="2.93" stroke-linejoin="bevel" points="212.598,286.932 2764.6,286.932" />
<polyline class="StaffLines" fill="none" stroke="#000000" stroke-width="2.93" stroke-linejoin="bevel" points="212.598,313.578 2764.6,313.578" />
<polyline class="StaffLines" fill="none" stroke="#000000" stroke-width="2.93" stroke-linejoin="bevel" points="212.598,340.223 2764.6,340.223" />
<polyline class="StaffLines" fill="none" stroke="#000000" stroke-width="2.93" stroke-linejoin="bevel" points="212.598,366.869 2764.6,366.869" />
<polyline class="StaffLines" fill="none" stroke="#000000" stroke-width="2.93" stroke-linejoin="bevel" points="212.598,393.515 2764.6,393.515" />
<polyline class="StaffLines" fill="none" stroke="#000000" stroke-width="2.93" stroke-linejoin="bevel" points="212.598,566.712 2764.6,566.712" />
<polyline class="StaffLines" fill="none" stroke="#000000" stroke-width="2.93" stroke-linejoin="bevel" points="212.598,593.357 2764.6,593.357" />
<polyline class="StaffLines" fill="none" stroke="#000000" stroke-width="2.93" stroke-linejoin="bevel" points="212.598,620.003 2764.6,620.003" />
<polyline class="StaffLines" fill="none" stroke="#000000" stroke-width="2.93" stroke-linejoin="bevel" points="212.598,646.649 2764.6,646.649" />
<polyline class="StaffLines" fill="none" stroke="#000000" stroke-width="2.93" stroke-linejoin="bevel" points="212.598,673.294 2764.6,673.294" />
<polyline class="StaffLines" fill="none" stroke="#000000" stroke-width="2.93" stroke-linejoin="bevel" points="212.598,846.491 2764.6,846.491" />
<polyline class="StaffLines" fill="none" stroke="#000000" stroke-width="2.93" stroke-linejoin="bevel" points="212.598,873.137 2764.6,873.137" />
<polyline class="StaffLines" fill="none" stroke="#000000" stroke-width="2.93" stroke-linejoin="bevel" points="212.598,899.782 2764.6,899.782" />
<polyline class="StaffLines" fill="none" stroke="#000000" stroke-width="2.93" stroke-linejoin="bevel" points="212.598,926.428 2764.6,926.428" />
<polyline class="StaffLines" fill="none" stroke="#000000" stroke-width="2.93" stroke-linejoin="bevel" points="212.598,953.074 2764.6,953.074" />
<polyline class="BarLine" fill="none" stroke="#000000" stroke-width="4.80" stroke-linejoin="bevel" points="214.996,285.466 214.996,566.712" />
<polyline class="BarLine" fill="none" stroke="#000000" stroke-width="4.80" stroke-linejoin="bevel" points="1593.28,312.112 1593.28,368.335" />
<polyline class="BarLine" fill="none" stroke="#000000" stroke-width="4.80" stroke-linejoin="bevel" points="2246.15,312.112 2246.15,368.335" />
<polyline class="BarLine" fill="none" stroke="#000000" stroke-width="4.80" stroke-linejoin="bevel" points="2737.69,285.466 2737.69,394.98" />
<polyline class="BarLine" fill="none" stroke="#000000" stroke-width="14.66" stroke-linejoin="bevel" points="2757.27,285.466 2757.27,394.98" />
<polyline class="BarLine" fill="none" stroke="#000000" stroke-width="4.80" stroke-linejoin="bevel" points="1593.28,591.892 1593.28,648.114" />
<polyline class="BarLine" fill="none" stroke="#000000" stroke-width="4.80" stroke-linejoin="bevel" points="2246.15,591.892 2246.15,648.114" />
<polyline class="BarLine" fill="none" stroke="#000000" stroke-width="4.80" stroke-linejoin="bevel" points="2737.69,565.246 2737.69,674.76" />
<polyline class="BarLine" fill="none" stroke="#000000" stroke-width="14.66" stroke-linejoin="bevel" points="2757.27,565.246 2757.27,674.76" />
<polyline class="BarLine" fill="none" stroke="#000000" stroke-width="4.80" stroke-linejoin="bevel" points="898.738,591.892 898.738,648.114" />
<polyline class="BarLine" fill="none" stroke="#000000" stroke-width="4.80" stroke-linejoin="bevel" points="214.996,565.246 214.996,846.491" />
<polyline class="BarLine" fill="none" stroke="#000000" stroke-width="4.80" stroke-linejoin="bevel" points="2737.69,845.026 2737.69,954.539" />
<polyline class="BarLine" fill="none" stroke="#000000" stroke-width="14.66" stroke-linejoin="bevel" points="2757.27,845.026 2757.27,954.539" />
<polyline class="BarLine" fill="none" stroke="#000000" stroke-width="4.80" stroke-linejoin="bevel" points="214.996,845.026 214.996,954.539" />
<polyline class="BarLine" fill="none" stroke="#000000" stroke-width="4.80" stroke-linejoin="bevel" points="628.758,871.671 628.758,927.894" />
<polyline class="BarLine" fill="none" stroke="#000000" stroke-width="4.80" stroke-linejoin="bevel" points="1149.39,871.671 1149.39,927.894" />
<polyline class="BarLine" fill="none" stroke="#000000" stroke-width="4.80" stroke-linejoin="bevel" points="2246.15,871.671 2246.15,927.894" />
<polyline class="Stem" fill="none" stroke="#000000" stroke-width="2.66" stroke-linejoin="bevel" points="1186.43,291.408 1186.43,380.085" />
<polyline class="Stem" fill="none" stroke="#000000" stroke-width="2.66" stroke-linejoin="bevel" points="1908.82,304.731 1908.82,393.515" />
<polyline class="Stem" fill="none" stroke="#000000" stroke-width="2.66" stroke-linejoin="bevel" points="492.431,291.408 492.431,380.192" />
<polyline class="Stem" fill="none" stroke="#000000" stroke-width="2.66" stroke-linejoin="bevel" points="935.775,331.377 935.775,413.392" />
<polyline class="Stem" fill="none" stroke="#000000" stroke-width="2.66" stroke-linejoin="bevel" points="1263.72,318.054 1263.72,406.837" />
<polyline class="Stem" fill="none" stroke="#000000" stroke-width="2.66" stroke-linejoin="bevel" points="1707.61,291.408 1707.61,380.192" />
<polyline class="Stem" fill="none" stroke="#000000" stroke-width="2.66" stroke-linejoin="bevel" points="743.088,318.054 743.088,393.515" />
<polyline class="Stem" fill="none" stroke="#000000" stroke-width="2.66" stroke-linejoin="bevel" points="1630.32,304.731 1630.32,393.408" />
<polyline class="Stem" fill="none" stroke="#000000" stroke-width="2.66" stroke-linejoin="bevel" points="1013.07,318.054 1013.07,406.837" />
<polyline class="Stem" fill="none" stroke="#000000" stroke-width="2.66" stroke-linejoin="bevel" points="1379.66,304.731 1379.66,393.515" />
<polyline class="Stem" fill="none" stroke="#000000" stroke-width="2.66" stroke-linejoin="bevel" points="1823.55,278.086 1823.55,366.762" />
<polyline class="Stem" fill="none" stroke="#000000" stroke-width="2.66" stroke-linejoin="bevel" points="665.795,304.731 665.795,386.966" />
<polyline class="Stem" fill="none" stroke="#000000" stroke-width="2.66" stroke-linejoin="bevel" points="415.139,304.731 415.139,393.408" />
<polyline class="Stem" fill="none" stroke="#000000" stroke-width="2.66" stroke-linejoin="bevel" points="820.38,331.377 820.38,400.063" />
<polyline class="Stem" fill="none" stroke="#000000" stroke-width="2.66" stroke-linejoin="bevel" points="2036.71,291.408 2036.71,380.192" />
<polyline class="Stem" fill="none" stroke="#000000" stroke-width="2.66" stroke-linejoin="bevel" points="665.795,571.188 665.795,659.971" />
<polyline class="Stem" fill="none" stroke="#000000" stroke-width="2.66" stroke-linejoin="bevel" points="492.431,611.156 492.431,693.278" />
<polyline class="Stem" fill="none" stroke="#000000" stroke-width="2.66" stroke-linejoin="bevel" points="1940.79,629.062 1940.79,546.727" />
<polyline class="Stem" fill="none" stroke="#000000" stroke-width="2.66" stroke-linejoin="bevel" points="1186.43,611.156 1186.43,693.172" />
<polyline class="Stem" fill="none" stroke="#000000" stroke-width="2.66" stroke-linejoin="bevel" points="1411.64,629.062 1411.64,546.727" />
<polyline class="Stem" fill="none" stroke="#000000" stroke-width="2.66" stroke-linejoin="bevel" points="2036.71,624.479 2036.71,699.94" />
<polyline class="Stem" fill="none" stroke="#000000" stroke-width="2.66" stroke-linejoin="bevel" points="1662.29,629.062 1662.29,546.94" />
<polyline class="Stem" fill="none" stroke="#000000" stroke-width="2.66" stroke-linejoin="bevel" points="935.775,584.511 935.775,673.188" />
<polyline class="Stem" fill="none" stroke="#000000" stroke-width="2.66" stroke-linejoin="bevel" points="1739.59,655.708 1739.59,566.712" />
<polyline class="Stem" fill="none" stroke="#000000" stroke-width="2.66" stroke-linejoin="bevel" points="1855.52,642.385 1855.52,553.602" />
<polyline class="Stem" fill="none" stroke="#000000" stroke-width="2.66" stroke-linejoin="bevel" points="1263.72,624.479 1263.72,699.94" />
<polyline class="Stem" fill="none" stroke="#000000" stroke-width="2.66" stroke-linejoin="bevel" points="415.139,584.511 415.139,673.188" />
<polyline class="Stem" fill="none" stroke="#000000" stroke-width="2.66" stroke-linejoin="bevel" points="1013.07,597.834 1013.07,686.617" />
<polyline class="Stem" fill="none" stroke="#000000" stroke-width="2.66" stroke-linejoin="bevel" points="1295.7,922.165 1295.7,833.168" />
<polyline class="Stem" fill="none" stroke="#000000" stroke-width="2.66" stroke-linejoin="bevel" points="447.114,908.842 447.114,826.507" />
<polyline class="Stem" fill="none" stroke="#000000" stroke-width="2.66" stroke-linejoin="bevel" points="775.062,922.165 775.062,833.168" />
<polyline class="Stem" fill="none" stroke="#000000" stroke-width="2.66" stroke-linejoin="bevel" points="1218.41,935.488 1218.41,846.704" />
<polyline class="Stem" fill="none" stroke="#000000" stroke-width="2.66" stroke-linejoin="bevel" points="1411.64,908.842 1411.64,826.72" />
<polyline class="Stem" fill="none" stroke="#000000" stroke-width="2.66" stroke-linejoin="bevel" points="1456.95,904.259 1456.95,979.719" />
<polyline class="Stem" fill="none" stroke="#000000" stroke-width="2.66" stroke-linejoin="bevel" points="1662.29,908.842 1662.29,826.507" />
<polyline class="Stem" fill="none" stroke="#000000" stroke-width="2.66" stroke-linejoin="bevel" points="1855.52,922.165 1855.52,833.168" />
<polyline class="Stem" fill="none" stroke="#000000" stroke-width="2.66" stroke-linejoin="bevel" points="967.75,908.842 967.75,826.507" />
<polyline class="Stem" fill="none" stroke="#000000" stroke-width="2.66" stroke-linejoin="bevel" points="697.77,935.488 697.77,846.704" />
<path class="Hook" transform="matrix(1.06583,0,0,1.06583,1628.99,393.515)" d="M0,-0.1 C0,0.6 0.6,1.2 1.3,1.2 C1.8,1.2 2.4,0.8 2.5,0.4 C2.5,0.3 3.4,-3.2 3.5,-3.5 C3.6,-3.9 4.5,-7.7 8.1,-13.6 C12,-20.1 18,-24.8 23,-31.8 C27.9,-38.8 30.9,-45.4 30.9,-54.2 C30.9,-63.3 28.8,-70.9 23.5,-80.6 C23.2,-81.3 22.6,-81.7 22,-81.7 C21.8,-81.7 21.6,-81.7 21.5,-81.6 C21,-81.4 20.8,-81 20.8,-80.4 C20.8,-80.1 20.9,-79.6 21.1,-79.2 C25.1,-69.9 26.7,-64.6 26.7,-57.4 C26.7,-49.1 23.8,-44.8 22,-41.7 C15.5,-30.6 5,-25.2 0.8,-23.8 C0.1,-23.5 0,-23 0,-22.7 L0,-0.1 "/>
<path class="Hook" transform="matrix(1.06583,0,0,1.06583,1822.22,366.869)" d="M0,-0.1 C0,0.6 0.6,1.2 1.3,1.2 C1.8,1.2 2.4,0.8 2.5,0.4 C2.5,0.3 3.4,-3.2 3.5,-3.5 C3.6,-3.9 4.5,-7.7 8.1,-13.6 C12,-20.1 18,-24.8 23,-31.8 C27.9,-38.8 30.9,-45.4 30.9,-54.2 C30.9,-63.3 28.8,-70.9 23.5,-80.6 C23.2,-81.3 22.6,-81.7 22,-81.7 C21.8,-81.7 21.6,-81.7 21.5,-81.6 C21,-81.4 20.8,-81 20.8,-80.4 C20.8,-80.1 20.9,-79.6 21.1,-79.2 C25.1,-69.9 26.7,-64.6 26.7,-57.4 C26.7,-49.1 23.8,-44.8 22,-41.7 C15.5,-30.6 5,-25.2 0.8,-23.8 C0.1,-23.5 0,-23 0,-22.7 L0,-0.1 "/>
<path class="Hook" transform="matrix(1.06583,0,0,1.06583,413.806,393.515)" d="M0,-0.1 C0,0.6 0.6,1.2 1.3,1.2 C1.8,1.2 2.4,0.8 2.5,0.4 C2.5,0.3 3.4,-3.2 3.5,-3.5 C3.6,-3.9 4.5,-7.7 8.1,-13.6 C12,-20.1 18,-24.8 23,-31.8 C27.9,-38.8 30.9,-45.4 30.9,-54.2 C30.9,-63.3 28.8,-70.9 23.5,-80.6 C23.2,-81.3 22.6,-81.7 22,-81.7 C21.8,-81.7 21.6,-81.7 21.5,-81.6 C21,-81.4 20.8,-81 20.8,-80.4 C20.8,-80.1 20.9,-79.6 21.1,-79.2 C25.1,-69.9 26.7,-64.6 26.7,-57.4 C26.7,-49.1 23.8,-44.8 22,-41.7 C15.5,-30.6 5,-25.2 0.8,-23.8 C0.1,-23.5 0,-23 0,-22.7 L0,-0.1 "/>
<path class="Hook" transform="matrix(1.06583,0,0,1.06583,934.443,413.499)" d="M0,-0.1 C0,0.6 0.6,1.2 1.3,1.2 C1.8,1.2 2.4,0.8 2.5,0.4 C2.5,0.3 3.4,-3.2 3.5,-3.5 C3.6,-3.9 4.5,-7.7 8.1,-13.6 C12,-20.1 18,-24.8 23,-31.8 C27.9,-38.8 30.9,-45.4 30.9,-54.2 C30.9,-63.3 28.8,-70.9 23.5,-80.6 C23.2,-81.3 22.6,-81.7 22,-81.7 C21.8,-81.7 21.6,-81.7 21.5,-81.6 C21,-81.4 20.8,-81 20.8,-80.4 C20.8,-80.1 20.9,-79.6 21.1,-79.2 C25.1,-69.9 26.7,-64.6 26.7,-57.4 C26.7,-49.1 23.8,-44.8 22,-41.7 C15.5,-30.6 5,-25.2 0.8,-23.8 C0.1,-23.5 0,-23 0,-22.7 L0,-0.1 "/>
<path class="Hook" transform="matrix(1.06583,0,0,1.06583,1185.1,380.192)" d="M0,-0.1 C0,0.6 0.6,1.2 1.3,1.2 C1.8,1.2 2.4,0.8 2.5,0.4 C2.5,0.3 3.4,-3.2 3.5,-3.5 C3.6,-3.9 4.5,-7.7 8.1,-13.6 C12,-20.1 18,-24.8 23,-31.8 C27.9,-38.8 30.9,-45.4 30.9,-54.2 C30.9,-63.3 28.8,-70.9 23.5,-80.6 C23.2,-81.3 22.6,-81.7 22,-81.7 C21.8,-81.7 21.6,-81.7 21.5,-81.6 C21,-81.4 20.8,-81 20.8,-80.4 C20.8,-80.1 20.9,-79.6 21.1,-79.2 C25.1,-69.9 26.7,-64.6 26.7,-57.4 C26.7,-49.1 23.8,-44.8 22,-41.7 C15.5,-30.6 5,-25.2 0.8,-23.8 C0.1,-23.5 0,-23 0,-22.7 L0,-0.1 "/>
<path class="Hook" transform="matrix(1.06583,0,0,1.06583,1854.19,553.389)" d="M0,22.7 C0,23 0.1,23.5 0.8,23.8 C5.1,25.2 13.7,30.6 20.2,41.7 C22,44.8 24.9,49.1 24.9,57.4 C24.9,64.6 23,72 20.4,79.2 C20.2,79.8 20,80.3 20.1,80.7 C20.1,81.3 20.5,81.7 21.1,81.7 C21.8,81.7 22.3,81.3 22.7,80.6 C27.2,72.6 28.9,63.3 28.9,54.2 C28.4,41.3 21,31.8 21,31.8 C21.3,31.8 11.8,19.5 9.1,15.3 C5.4,9.6 3.7,3.9 3.5,3.5 C3.4,3.2 2.5,-0.4 2.5,-0.4 C2.4,-0.8 1.9,-1.2 1.3,-1.2 C0.6,-1.2 0,-0.6 0,0.1 L0,22.7 "/>
<path class="Hook" transform="matrix(1.06583,0,0,1.06583,934.443,673.294)" d="M0,-0.1 C0,0.6 0.6,1.2 1.3,1.2 C1.8,1.2 2.4,0.8 2.5,0.4 C2.5,0.3 3.4,-3.2 3.5,-3.5 C3.6,-3.9 4.5,-7.7 8.1,-13.6 C12,-20.1 18,-24.8 23,-31.8 C27.9,-38.8 30.9,-45.4 30.9,-54.2 C30.9,-63.3 28.8,-70.9 23.5,-80.6 C23.2,-81.3 22.6,-81.7 22,-81.7 C21.8,-81.7 21.6,-81.7 21.5,-81.6 C21,-81.4 20.8,-81 20.8,-80.4 C20.8,-80.1 20.9,-79.6 21.1,-79.2 C25.1,-69.9 26.7,-64.6 26.7,-57.4 C26.7,-49.1 23.8,-44.8 22,-41.7 C15.5,-30.6 5,-25.2 0.8,-23.8 C0.1,-23.5 0,-23 0,-22.7 L0,-0.1 "/>
<path class="Hook" transform="matrix(1.06583,0,0,1.06583,413.806,673.294)" d="M0,-0.1 C0,0.6 0.6,1.2 1.3,1.2 C1.8,1.2 2.4,0.8 2.5,0.4 C2.5,0.3 3.4,-3.2 3.5,-3.5 C3.6,-3.9 4.5,-7.7 8.1,-13.6 C12,-20.1 18,-24.8 23,-31.8 C27.9,-38.8 30.9,-45.4 30.9,-54.2 C30.9,-63.3 28.8,-70.9 23.5,-80.6 C23.2,-81.3 22.6,-81.7 22,-81.7 C21.8,-81.7 21.6,-81.7 21.5,-81.6 C21,-81.4 20.8,-81 20.8,-80.4 C20.8,-80.1 20.9,-79.6 21.1,-79.2 C25.1,-69.9 26.7,-64.6 26.7,-57.4 C26.7,-49.1 23.8,-44.8 22,-41.7 C15.5,-30.6 5,-25.2 0.8,-23.8 C0.1,-23.5 0,-23 0,-22.7 L0,-0.1 "/>
<path class="Hook" transform="matrix(1.06583,0,0,1.06583,1185.1,693.278)" d="M0,-0.1 C0,0.6 0.6,1.2 1.3,1.2 C1.8,1.2 2.4,0.8 2.5,0.4 C2.5,0.3 3.4,-3.2 3.5,-3.5 C3.6,-3.9 4.5,-7.7 8.1,-13.6 C12,-20.1 18,-24.8 23,-31.8 C27.9,-38.8 30.9,-45.4 30.9,-54.2 C30.9,-63.3 28.8,-70.9 23.5,-80.6 C23.2,-81.3 22.6,-81.7 22,-81.7 C21.8,-81.7 21.6,-81.7 21.5,-81.6 C21,-81.4 20.8,-81 20.8,-80.4 C20.8,-80.1 20.9,-79.6 21.1,-79.2 C25.1,-69.9 26.7,-64.6 26.7,-57.4 C26.7,-49.1 23.8,-44.8 22,-41.7 C15.5,-30.6 5,-25.2 0.8,-23.8 C0.1,-23.5 0,-23 0,-22.7 L0,-0.1 "/>
<path class="Hook" transform="matrix(1.06583,0,0,1.06583,1660.96,546.727)" d="M0,22.7 C0,23 0.1,23.5 0.8,23.8 C5.1,25.2 13.7,30.6 20.2,41.7 C22,44.8 24.9,49.1 24.9,57.4 C24.9,64.6 23,72 20.4,79.2 C20.2,79.8 20,80.3 20.1,80.7 C20.1,81.3 20.5,81.7 21.1,81.7 C21.8,81.7 22.3,81.3 22.7,80.6 C27.2,72.6 28.9,63.3 28.9,54.2 C28.4,41.3 21,31.8 21,31.8 C21.3,31.8 11.8,19.5 9.1,15.3 C5.4,9.6 3.7,3.9 3.5,3.5 C3.4,3.2 2.5,-0.4 2.5,-0.4 C2.4,-0.8 1.9,-1.2 1.3,-1.2 C0.6,-1.2 0,-0.6 0,0.1 L0,22.7 "/>
<path class="Hook" transform="matrix(1.06583,0,0,1.06583,1217.07,846.491)" d="M0,22.7 C0,23 0.1,23.5 0.8,23.8 C5.1,25.2 13.7,30.6 20.2,41.7 C22,44.8 24.9,49.1 24.9,57.4 C24.9,64.6 23,72 20.4,79.2 C20.2,79.8 20,80.3 20.1,80.7 C20.1,81.3 20.5,81.7 21.1,81.7 C21.8,81.7 22.3,81.3 22.7,80.6 C27.2,72.6 28.9,63.3 28.9,54.2 C28.4,41.3 21,31.8 21,31.8 C21.3,31.8 11.8,19.5 9.1,15.3 C5.4,9.6 3.7,3.9 3.5,3.5 C3.4,3.2 2.5,-0.4 2.5,-0.4 C2.4,-0.8 1.9,-1.2 1.3,-1.2 C0.6,-1.2 0,-0.6 0,0.1 L0,22.7 "/>
<path class="Hook" transform="matrix(1.06583,0,0,1.06583,1410.3,826.507)" d="M0,22.7 C0,23 0.1,23.5 0.8,23.8 C5.1,25.2 13.7,30.6 20.2,41.7 C22,44.8 24.9,49.1 24.9,57.4 C24.9,64.6 23,72 20.4,79.2 C20.2,79.8 20,80.3 20.1,80.7 C20.1,81.3 20.5,81.7 21.1,81.7 C21.8,81.7 22.3,81.3 22.7,80.6 C27.2,72.6 28.9,63.3 28.9,54.2 C28.4,41.3 21,31.8 21,31.8 C21.3,31.8 11.8,19.5 9.1,15.3 C5.4,9.6 3.7,3.9 3.5,3.5 C3.4,3.2 2.5,-0.4 2.5,-0.4 C2.4,-0.8 1.9,-1.2 1.3,-1.2 C0.6,-1.2 0,-0.6 0,0.1 L0,22.7 "/>
<path class="Hook" transform="matrix(1.06583,0,0,1.06583,696.438,846.491)" d="M0,22.7 C0,23 0.1,23.5 0.8,23.8 C5.1,25.2 13.7,30.6 20.2,41.7 C22,44.8 24.9,49.1 24.9,57.4 C24.9,64.6 23,72 20.4,79.2 C20.2,79.8 20,80.3 20.1,80.7 C20.1,81.3 20.5,81.7 21.1,81.7 C21.8,81.7 22.3,81.3 22.7,80.6 C27.2,72.6 28.9,63.3 28.9,54.2 C28.4,41.3 21,31.8 21,31.8 C21.3,31.8 11.8,19.5 9.1,15.3 C5.4,9.6 3.7,3.9 3.5,3.5 C3.4,3.2 2.5,-0.4 2.5,-0.4 C2.4,-0.8 1.9,-1.2 1.3,-1.2 C0.6,-1.2 0,-0.6 0,0.1 L0,22.7 "/>
<path class="Note" transform="matrix(1.06583,0,0,1.06583,2035.38,286.932)" d="M0,4.2 C0,8.5 3.1,13.3 11.2,13.3 C21.6,13.3 32.5,4.8 32.5,-4 C32.5,-9.9 27.5,-13.2 21.3,-13.2 C11.6,-13.2 0,-5 0,4.2"/>
<path class="Note" transform="matrix(1.06583,0,0,1.06583,1011.73,313.578)" d="M0,4.2 C0,8.5 3.1,13.3 11.2,13.3 C21.6,13.3 32.5,4.8 32.5,-4 C32.5,-9.9 27.5,-13.2 21.3,-13.2 C11.6,-13.2 0,-5 0,4.2"/>
<path class="Note" transform="matrix(1.06583,0,0,1.06583,1628.99,300.255)" d="M0,4.2 C0,8.5 3.1,13.3 11.2,13.3 C21.6,13.3 32.5,4.8 32.5,-4 C32.5,-9.9 27.5,-13.2 21.3,-13.2 C11.6,-13.2 0,-5 0,4.2"/>
<path class="Note" transform="matrix(1.06583,0,0,1.06583,2542.06,326.9)" d="M0,4.2 C0,8.5 3.1,13.3 11.2,13.3 C21.6,13.3 32.5,4.8 32.5,-4 C32.5,-9.9 27.5,-13.2 21.3,-13.2 C11.6,-13.2 0,-5 0,4.2"/>
<path class="Note" transform="matrix(1.06583,0,0,1.06583,2464.77,326.9)" d="M0,4.2 C0,8.5 3.1,13.3 11.2,13.3 C21.6,13.3 32.5,4.8 32.5,-4 C32.5,-9.9 27.5,-13.2 21.3,-13.2 C11.6,-13.2 0,-5 0,4.2"/>
<path class="Note" transform="matrix(1.06583,0,0,1.06583,1185.1,286.932)" d="M0,4.2 C0,8.5 3.1,13.3 11.2,13.3 C21.6,13.3 32.5,4.8 32.5,-4 C32.5,-9.9 27.5,-13.2 21.3,-13.2 C11.6,-13.2 0,-5 0,4.2"/>
<path class="Note" transform="matrix(1.06583,0,0,1.06583,1907.48,300.255)" d="M0,4.2 C0,8.5 3.1,13.3 11.2,13.3 C21.6,13.3 32.5,4.8 32.5,-4 C32.5,-9.9 27.5,-13.2 21.3,-13.2 C11.6,-13.2 0,-5 0,4.2"/>
<path class="Note" transform="matrix(1.06583,0,0,1.06583,2403.8,313.578)" d="M0,4.2 C0,8.5 3.1,13.3 11.2,13.3 C21.6,13.3 32.5,4.8 32.5,-4 C32.5,-9.9 27.5,-13.2 21.3,-13.2 C11.6,-13.2 0,-5 0,4.2"/>
<path class="Note" transform="matrix(1.06583,0,0,1.06583,2619.35,313.578)" d="M0,4.2 C0,8.5 3.1,13.3 11.2,13.3 C21.6,13.3 32.5,4.8 32.5,-4 C32.5,-9.9 27.5,-13.2 21.3,-13.2 C11.6,-13.2 0,-5 0,4.2"/>
<path class="Note" transform="matrix(1.06583,0,0,1.06583,2281.85,286.932)" d="M0,4.2 C0,8.5 3.1,13.3 11.2,13.3 C21.6,13.3 32.5,4.8 32.5,-4 C32.5,-9.9 27.5,-13.2 21.3,-13.2 C11.6,-13.2 0,-5 0,4.2"/>
<path class="Note" transform="matrix(1.06583,0,0,1.06583,1706.28,286.932)" d="M0,4.2 C0,8.5 3.1,13.3 11.2,13.3 C21.6,13.3 32.5,4.8 32.5,-4 C32.5,-9.9 27.5,-13.2 21.3,-13.2 C11.6,-13.2 0,-5 0,4.2"/>
<path class="Note" transform="matrix(1.06583,0,0,1.06583,934.443,326.9)" d="M0,4.2 C0,8.5 3.1,13.3 11.2,13.3 C21.6,13.3 32.5,4.8 32.5,-4 C32.5,-9.9 27.5,-13.2 21.3,-13.2 C11.6,-13.2 0,-5 0,4.2"/>
<path class="Note" transform="matrix(1.06583,0,0,1.06583,664.463,300.255)" d="M0,4.2 C0,8.5 3.1,13.3 11.2,13.3 C21.6,13.3 32.5,4.8 32.5,-4 C32.5,-9.9 27.5,-13.2 21.3,-13.2 C11.6,-13.2 0,-5 0,4.2"/>
<path class="Note" transform="matrix(1.06583,0,0,1.06583,491.099,286.932)" d="M0,4.2 C0,8.5 3.1,13.3 11.2,13.3 C21.6,13.3 32.5,4.8 32.5,-4 C32.5,-9.9 27.5,-13.2 21.3,-13.2 C11.6,-13.2 0,-5 0,4.2"/>
<path class="Note" transform="matrix(1.06583,0,0,1.06583,819.047,326.9)" d="M0,4.2 C0,8.5 3.1,13.3 11.2,13.3 C21.6,13.3 32.5,4.8 32.5,-4 C32.5,-9.9 27.5,-13.2 21.3,-13.2 C11.6,-13.2 0,-5 0,4.2"/>
<path class="Note" transform="matrix(1.06583,0,0,1.06583,1378.33,300.255)" d="M0,4.2 C0,8.5 3.1,13.3 11.2,13.3 C21.6,13.3 32.5,4.8 32.5,-4 C32.5,-9.9 27.5,-13.2 21.3,-13.2 C11.6,-13.2 0,-5 0,4.2"/>
<path class="Note" transform="matrix(1.06583,0,0,1.06583,2342.83,300.255)" d="M0,4.2 C0,8.5 3.1,13.3 11.2,13.3 C21.6,13.3 32.5,4.8 32.5,-4 C32.5,-9.9 27.5,-13.2 21.3,-13.2 C11.6,-13.2 0,-5 0,4.2"/>
<path class="Note" transform="matrix(1.06583,0,0,1.06583,741.755,313.578)" d="M0,4.2 C0,8.5 3.1,13.3 11.2,13.3 C21.6,13.3 32.5,4.8 32.5,-4 C32.5,-9.9 27.5,-13.2 21.3,-13.2 C11.6,-13.2 0,-5 0,4.2"/>
<path class="Note" transform="matrix(1.06583,0,0,1.06583,1262.39,313.578)" d="M0,4.2 C0,8.5 3.1,13.3 11.2,13.3 C21.6,13.3 32.5,4.8 32.5,-4 C32.5,-9.9 27.5,-13.2 21.3,-13.2 C11.6,-13.2 0,-5 0,4.2"/>
<path class="Note" transform="matrix(1.06583,0,0,1.06583,413.806,300.255)" d="M0,4.2 C0,8.5 3.1,13.3 11.2,13.3 C21.6,13.3 32.5,4.8 32.5,-4 C32.5,-9.9 27.5,-13.2 21.3,-13.2 C11.6,-13.2 0,-5 0,4.2"/>
<path class="Note" transform="matrix(1.06583,0,0,1.06583,1822.22,273.609)" d="M0,4.2 C0,8.5 3.1,13.3 11.2,13.3 C21.6,13.3 32.5,4.8 32.5,-4 C32.5,-9.9 27.5,-13.2 21.3,-13.2 C11.6,-13.2 0,-5 0,4.2"/>
<path class="Note" transform="matrix(1.06583,0,0,1.06583,2035.38,620.003)" d="M0,4.2 C0,8.5 3.1,13.3 11.2,13.3 C21.6,13.3 32.5,4.8 32.5,-4 C32.5,-9.9 27.5,-13.2 21.3,-13.2 C11.6,-13.2 0,-5 0,4.2"/>
<path class="Note" transform="matrix(1.06583,0,0,1.06583,1706.28,659.971)" d="M0,4.2 C0,8.5 3.1,13.3 11.2,13.3 C21.6,13.3 32.5,4.8 32.5,-4 C32.5,-9.9 27.5,-13.2 21.3,-13.2 C11.6,-13.2 0,-5 0,4.2"/>
<path class="Note" transform="matrix(1.06583,0,0,1.06583,1628.99,633.326)" d="M0,4.2 C0,8.5 3.1,13.3 11.2,13.3 C21.6,13.3 32.5,4.8 32.5,-4 C32.5,-9.9 27.5,-13.2 21.3,-13.2 C11.6,-13.2 0,-5 0,4.2"/>
<path class="Note" transform="matrix(1.06583,0,0,1.06583,1822.22,646.649)" d="M0,4.2 C0,8.5 3.1,13.3 11.2,13.3 C21.6,13.3 32.5,4.8 32.5,-4 C32.5,-9.9 27.5,-13.2 21.3,-13.2 C11.6,-13.2 0,-5 0,4.2"/>
<path class="Note" transform="matrix(1.06583,0,0,1.06583,934.443,580.034)" d="M0,4.2 C0,8.5 3.1,13.3 11.2,13.3 C21.6,13.3 32.5,4.8 32.5,-4 C32.5,-9.9 27.5,-13.2 21.3,-13.2 C11.6,-13.2 0,-5 0,4.2"/>
<path class="Note" transform="matrix(1.06583,0,0,1.06583,2464.77,633.326)" d="M0,4.2 C0,8.5 3.1,13.3 11.2,13.3 C21.6,13.3 32.5,4.8 32.5,-4 C32.5,-9.9 27.5,-13.2 21.3,-13.2 C11.6,-13.2 0,-5 0,4.2"/>
<path class="Note" transform="matrix(1.06583,0,0,1.06583,1011.73,593.357)" d="M0,4.2 C0,8.5 3.1,13.3 11.2,13.3 C21.6,13.3 32.5,4.8 32.5,-4 C32.5,-9.9 27.5,-13.2 21.3,-13.2 C11.6,-13.2 0,-5 0,4.2"/>
<path class="Note" transform="matrix(1.06583,0,0,1.06583,664.463,566.712)" d="M0,4.2 C0,8.5 3.1,13.3 11.2,13.3 C21.6,13.3 32.5,4.8 32.5,-4 C32.5,-9.9 27.5,-13.2 21.3,-13.2 C11.6,-13.2 0,-5 0,4.2"/>
<path class="Note" transform="matrix(1.06583,0,0,1.06583,2619.35,646.649)" d="M0,4.2 C0,8.5 3.1,13.3 11.2,13.3 C21.6,13.3 32.5,4.8 32.5,-4 C32.5,-9.9 27.5,-13.2 21.3,-13.2 C11.6,-13.2 0,-5 0,4.2"/>
<path class="Note" transform="matrix(1.06583,0,0,1.06583,1378.33,633.326)" d="M0,4.2 C0,8.5 3.1,13.3 11.2,13.3 C21.6,13.3 32.5,4.8 32.5,-4 C32.5,-9.9 27.5,-13.2 21.3,-13.2 C11.6,-13.2 0,-5 0,4.2"/>
<path class="Note" transform="matrix(1.06583,0,0,1.06583,1907.48,633.326)" d="M0,4.2 C0,8.5 3.1,13.3 11.2,13.3 C21.6,13.3 32.5,4.8 32.5,-4 C32.5,-9.9 27.5,-13.2 21.3,-13.2 C11.6,-13.2 0,-5 0,4.2"/>
<path class="Note" transform="matrix(1.06583,0,0,1.06583,491.099,606.68)" d="M0,4.2 C0,8.5 3.1,13.3 11.2,13.3 C21.6,13.3 32.5,4.8 32.5,-4 C32.5,-9.9 27.5,-13.2 21.3,-13.2 C11.6,-13.2 0,-5 0,4.2"/>
<path class="Note" transform="matrix(1.06583,0,0,1.06583,1185.1,606.68)" d="M0,4.2 C0,8.5 3.1,13.3 11.2,13.3 C21.6,13.3 32.5,4.8 32.5,-4 C32.5,-9.9 27.5,-13.2 21.3,-13.2 C11.6,-13.2 0,-5 0,4.2"/>
<path class="Note" transform="matrix(1.06583,0,0,1.06583,1262.39,620.003)" d="M0,4.2 C0,8.5 3.1,13.3 11.2,13.3 C21.6,13.3 32.5,4.8 32.5,-4 C32.5,-9.9 27.5,-13.2 21.3,-13.2 C11.6,-13.2 0,-5 0,4.2"/>
<path class="Note" transform="matrix(1.06583,0,0,1.06583,2281.85,620.003)" d="M0,4.2 C0,8.5 3.1,13.3 11.2,13.3 C21.6,13.3 32.5,4.8 32.5,-4 C32.5,-9.9 27.5,-13.2 21.3,-13.2 C11.6,-13.2 0,-5 0,4.2"/>
<path class="Note" transform="matrix(1.06583,0,0,1.06583,413.806,580.034)" d="M0,4.2 C0,8.5 3.1,13.3 11.2,13.3 C21.6,13.3 32.5,4.8 32.5,-4 C32.5,-9.9 27.5,-13.2 21.3,-13.2 C11.6,-13.2 0,-5 0,4.2"/>
<path class="Note" transform="matrix(1.06583,0,0,1.06583,1262.39,926.428)" d="M0,4.2 C0,8.5 3.1,13.3 11.2,13.3 C21.6,13.3 32.5,4.8 32.5,-4 C32.5,-9.9 27.5,-13.2 21.3,-13.2 C11.6,-13.2 0,-5 0,4.2"/>
<path class="Note" transform="matrix(1.06583,0,0,1.06583,413.806,913.105)" d="M0,4.2 C0,8.5 3.1,13.3 11.2,13.3 C21.6,13.3 32.5,4.8 32.5,-4 C32.5,-9.9 27.5,-13.2 21.3,-13.2 C11.6,-13.2 0,-5 0,4.2"/>
<path class="Note" transform="matrix(1.06583,0,0,1.06583,1822.22,926.428)" d="M0,4.2 C0,8.5 3.1,13.3 11.2,13.3 C21.6,13.3 32.5,4.8 32.5,-4 C32.5,-9.9 27.5,-13.2 21.3,-13.2 C11.6,-13.2 0,-5 0,4.2"/>
<path class="Note" transform="matrix(1.06583,0,0,1.06583,664.463,939.751)" d="M0,4.2 C0,8.5 3.1,13.3 11.2,13.3 C21.6,13.3 32.5,4.8 32.5,-4 C32.5,-9.9 27.5,-13.2 21.3,-13.2 C11.6,-13.2 0,-5 0,4.2"/>
<path class="Note" transform="matrix(1.06583,0,0,1.06583,741.755,926.428)" d="M0,4.2 C0,8.5 3.1,13.3 11.2,13.3 C21.6,13.3 32.5,4.8 32.5,-4 C32.5,-9.9 27.5,-13.2 21.3,-13.2 C11.6,-13.2 0,-5 0,4.2"/>
<path class="Note" transform="matrix(1.06583,0,0,1.06583,1628.99,913.105)" d="M0,4.2 C0,8.5 3.1,13.3 11.2,13.3 C21.6,13.3 32.5,4.8 32.5,-4 C32.5,-9.9 27.5,-13.2 21.3,-13.2 C11.6,-13.2 0,-5 0,4.2"/>
<path class="Note" transform="matrix(1.06583,0,0,1.06583,934.443,913.105)" d="M0,4.2 C0,8.5 3.1,13.3 11.2,13.3 C21.6,13.3 32.5,4.8 32.5,-4 C32.5,-9.9 27.5,-13.2 21.3,-13.2 C11.6,-13.2 0,-5 0,4.2"/>
<path class="Note" transform="matrix(1.06583,0,0,1.06583,2619.35,926.428)" d="M0,4.2 C0,8.5 3.1,13.3 11.2,13.3 C21.6,13.3 32.5,4.8 32.5,-4 C32.5,-9.9 27.5,-13.2 21.3,-13.2 C11.6,-13.2 0,-5 0,4.2"/>
<path class="Note" transform="matrix(1.06583,0,0,1.06583,1455.62,899.782)" d="M0,4.2 C0,8.5 3.1,13.3 11.2,13.3 C21.6,13.3 32.5,4.8 32.5,-4 C32.5,-9.9 27.5,-13.2 21.3,-13.2 C11.6,-13.2 0,-5 0,4.2"/>
<path class="Note" transform="matrix(1.06583,0,0,1.06583,1378.33,913.105)" d="M0,4.2 C0,8.5 3.1,13.3 11.2,13.3 C21.6,13.3 32.5,4.8 32.5,-4 C32.5,-9.9 27.5,-13.2 21.3,-13.2 C11.6,-13.2 0,-5 0,4.2"/>
<path class="Note" transform="matrix(1.06583,0,0,1.06583,1185.1,939.751)" d="M0,4.2 C0,8.5 3.1,13.3 11.2,13.3 C21.6,13.3 32.5,4.8 32.5,-4 C32.5,-9.9 27.5,-13.2 21.3,-13.2 C11.6,-13.2 0,-5 0,4.2"/>
<path class="Note" transform="matrix(1.06583,0,0,1.06583,2281.85,939.751)" d="M0,4.2 C0,8.5 3.1,13.3 11.2,13.3 C21.6,13.3 32.5,4.8 32.5,-4 C32.5,-9.9 27.5,-13.2 21.3,-13.2 C11.6,-13.2 0,-5 0,4.2"/>
<path class="Clef" transform="matrix(1.06583,0,0,1.06583,237.379,366.869)" d="M36.2,21.2 C21.9,21.2 9.7,11.2 9.7,-3.9 C9.7,-16.1 18.3,-27 27.1,-34.7 C28.8,-36.1 30.4,-37.5 31.9,-39 C32.8,-33.6 33.5,-29 34.2,-24.8 C25.1,-22.2 18.9,-12.5 18.9,-3.2 C18.9,3.9 24.4,13.5 32.4,13.5 C33.2,13.5 34.1,13.1 34.1,12.1 C34.1,11.3 33.2,10.7 31.9,9.9 C28,7.6 25.8,4.9 25.8,0.1 C25.8,-6 30.4,-10.9 36.2,-12.3 L42,20.5 C40,20.9 38.2,21.2 36.2,21.2 M33.2,-82.2 C34.2,-86.2 38.7,-96.7 43.9,-96.7 C45.4,-96.7 47.9,-91.9 47.9,-84.9 C47.9,-74.6 40.1,-66.8 33.2,-59.9 C32.6,-63.9 32.1,-67.9 32.1,-72 C32.1,-75.8 32.5,-79.1 33.2,-82.2 M46.2,19.3 C44.1,7.4 41.4,-8.5 40.7,-12.9 C50.8,-12.9 55.1,-5.9 56,-1.1 C56.1,-0.3 56.3,0.8 56.3,2 C56.3,9.2 53.3,16.4 46.2,19.3 M32.3,87.7 C30.1,87.7 28.6,86.3 28.6,84.2 C28.6,82.2 29.5,80.6 31.2,79.6 C31.6,79.8 31.7,79.8 32,80 C33.2,80.6 33.2,80.6 33.4,80.8 C35.3,81.9 36.1,82.9 36.1,84.3 C36.1,86.2 34.5,87.7 32.3,87.7 M36.1,75.7 C34.6,74.9 34.2,74.7 33.9,74.5 L33.7,74.4 C32.2,73.5 31.7,72.8 31.7,71.6 C31.7,69.8 33.1,68.5 35.1,68.5 C37,68.5 38.2,69.7 38.2,71.8 C38.2,73.4 37.6,74.5 36.1,75.7 M64,-0.2 C64,-15.3 53.3,-25.5 38.7,-25.5 C37.7,-31.5 36.8,-37.4 35.9,-43 C46.4,-54.1 53.8,-66.7 53.8,-82.5 C53.8,-91.6 51,-99 49.3,-102.6 C46.9,-107.7 44,-111.2 42.3,-111.2 C41.6,-111.2 38.4,-110 35.2,-106.1 C28.7,-98.5 26.9,-85.8 26.9,-77.4 C26.9,-72 27.4,-67.1 29.1,-55.8 C29,-55.8 23.8,-50.5 21.7,-48.7 C12.6,-40.3 0,-28.1 0,-8.2 C0,10.6 16.3,25.3 34.9,25.3 C37.8,25.3 40.5,25 42.9,24.6 C44.7,34.1 45.9,41.2 45.9,46.5 C45.9,56.9 40.5,62.4 30.4,62.4 C28,62.4 25.9,61.9 25.7,61.8 C25.6,61.8 25.4,61.7 25.4,61.6 C25.4,61.4 25.6,61.3 25.9,61.2 C30.6,60.5 35.3,56.4 35.3,50.1 C35.3,44.7 31.2,39 23.7,39 C16.7,39 12.3,44.7 12.3,51.3 C12.3,57.9 17.3,66.6 30.8,66.6 C43.7,66.6 50,59.3 50,46.5 C50,42.6 49.4,38.1 48.4,32.4 C48.1,30.4 47.6,27.3 46.9,23.5 C56.7,20.2 64,10.1 64,-0.2 M42.3,71.7 C42.3,68 38.9,66.4 35.6,66.4 C31.4,66.4 27.3,69 27.3,73.5 C27.3,75.4 28,76.8 29.4,78.2 C26.8,79.2 24.2,81.2 24.2,84.3 C24.2,87.6 27.2,89.8 31.6,89.8 C37,89.8 40.8,86.8 40.8,82.5 C40.8,80.2 39.8,78.3 38,77 C40.9,75.7 42.3,74.1 42.3,71.7"/>
<path class="Clef" transform="matrix(1.06583,0,0,1.06583,237.379,646.649)" d="M36.2,21.2 C21.9,21.2 9.7,11.2 9.7,-3.9 C9.7,-16.1 18.3,-27 27.1,-34.7 C28.8,-36.1 30.4,-37.5 31.9,-39 C32.8,-33.6 33.5,-29 34.2,-24.8 C25.1,-22.2 18.9,-12.5 18.9,-3.2 C18.9,3.9 24.4,13.5 32.4,13.5 C33.2,13.5 34.1,13.1 34.1,12.1 C34.1,11.3 33.2,10.7 31.9,9.9 C28,7.6 25.8,4.9 25.8,0.1 C25.8,-6 30.4,-10.9 36.2,-12.3 L42,20.5 C40,20.9 38.2,21.2 36.2,21.2 M33.2,-82.2 C34.2,-86.2 38.7,-96.7 43.9,-96.7 C45.4,-96.7 47.9,-91.9 47.9,-84.9 C47.9,-74.6 40.1,-66.8 33.2,-59.9 C32.6,-63.9 32.1,-67.9 32.1,-72 C32.1,-75.8 32.5,-79.1 33.2,-82.2 M46.2,19.3 C44.1,7.4 41.4,-8.5 40.7,-12.9 C50.8,-12.9 55.1,-5.9 56,-1.1 C56.1,-0.3 56.3,0.8 56.3,2 C56.3,9.2 53.3,16.4 46.2,19.3 M32.3,87.7 C30.1,87.7 28.6,86.3 28.6,84.2 C28.6,82.2 29.5,80.6 31.2,79.6 C31.6,79.8 31.7,79.8 32,80 C33.2,80.6 33.2,80.6 33.4,80.8 C35.3,81.9 36.1,82.9 36.1,84.3 C36.1,86.2 34.5,87.7 32.3,87.7 M36.1,75.7 C34.6,74.9 34.2,74.7 33.9,74.5 L33.7,74.4 C32.2,73.5 31.7,72.8 31.7,71.6 C31.7,69.8 33.1,68.5 35.1,68.5 C37,68.5 38.2,69.7 38.2,71.8 C38.2,73.4 37.6,74.5 36.1,75.7 M64,-0.2 C64,-15.3 53.3,-25.5 38.7,-25.5 C37.7,-31.5 36.8,-37.4 35.9,-43 C46.4,-54.1 53.8,-66.7 53.8,-82.5 C53.8,-91.6 51,-99 49.3,-102.6 C46.9,-107.7 44,-111.2 42.3,-111.2 C41.6,-111.2 38.4,-110 35.2,-106.1 C28.7,-98.5 26.9,-85.8 26.9,-77.4 C26.9,-72 27.4,-67.1 29.1,-55.8 C29,-55.8 23.8,-50.5 21.7,-48.7 C12.6,-40.3 0,-28.1 0,-8.2 C0,10.6 16.3,25.3 34.9,25.3 C37.8,25.3 40.5,25 42.9,24.6 C44.7,34.1 45.9,41.2 45.9,46.5 C45.9,56.9 40.5,62.4 30.4,62.4 C28,62.4 25.9,61.9 25.7,61.8 C25.6,61.8 25.4,61.7 25.4,61.6 C25.4,61.4 25.6,61.3 25.9,61.2 C30.6,60.5 35.3,56.4 35.3,50.1 C35.3,44.7 31.2,39 23.7,39 C16.7,39 12.3,44.7 12.3,51.3 C12.3,57.9 17.3,66.6 30.8,66.6 C43.7,66.6 50,59.3 50,46.5 C50,42.6 49.4,38.1 48.4,32.4 C48.1,30.4 47.6,27.3 46.9,23.5 C56.7,20.2 64,10.1 64,-0.2 M42.3,71.7 C42.3,68 38.9,66.4 35.6,66.4 C31.4,66.4 27.3,69 27.3,73.5 C27.3,75.4 28,76.8 29.4,78.2 C26.8,79.2 24.2,81.2 24.2,84.3 C24.2,87.6 27.2,89.8 31.6,89.8 C37,89.8 40.8,86.8 40.8,82.5 C40.8,80.2 39.8,78.3 38,77 C40.9,75.7 42.3,74.1 42.3,71.7"/>
<path class="Clef" transform="matrix(1.06583,0,0,1.06583,237.379,926.428)" d="M36.2,21.2 C21.9,21.2 9.7,11.2 9.7,-3.9 C9.7,-16.1 18.3,-27 27.1,-34.7 C28.8,-36.1 30.4,-37.5 31.9,-39 C32.8,-33.6 33.5,-29 34.2,-24.8 C25.1,-22.2 18.9,-12.5 18.9,-3.2 C18.9,3.9 24.4,13.5 32.4,13.5 C33.2,13.5 34.1,13.1 34.1,12.1 C34.1,11.3 33.2,10.7 31.9,9.9 C28,7.6 25.8,4.9 25.8,0.1 C25.8,-6 30.4,-10.9 36.2,-12.3 L42,20.5 C40,20.9 38.2,21.2 36.2,21.2 M33.2,-82.2 C34.2,-86.2 38.7,-96.7 43.9,-96.7 C45.4,-96.7 47.9,-91.9 47.9,-84.9 C47.9,-74.6 40.1,-66.8 33.2,-59.9 C32.6,-63.9 32.1,-67.9 32.1,-72 C32.1,-75.8 32.5,-79.1 33.2,-82.2 M46.2,19.3 C44.1,7.4 41.4,-8.5 40.7,-12.9 C50.8,-12.9 55.1,-5.9 56,-1.1 C56.1,-0.3 56.3,0.8 56.3,2 C56.3,9.2 53.3,16.4 46.2,19.3 M32.3,87.7 C30.1,87.7 28.6,86.3 28.6,84.2 C28.6,82.2 29.5,80.6 31.2,79.6 C31.6,79.8 31.7,79.8 32,80 C33.2,80.6 33.2,80.6 33.4,80.8 C35.3,81.9 36.1,82.9 36.1,84.3 C36.1,86.2 34.5,87.7 32.3,87.7 M36.1,75.7 C34.6,74.9 34.2,74.7 33.9,74.5 L33.7,74.4 C32.2,73.5 31.7,72.8 31.7,71.6 C31.7,69.8 33.1,68.5 35.1,68.5 C37,68.5 38.2,69.7 38.2,71.8 C38.2,73.4 37.6,74.5 36.1,75.7 M64,-0.2 C64,-15.3 53.3,-25.5 38.7,-25.5 C37.7,-31.5 36.8,-37.4 35.9,-43 C46.4,-54.1 53.8,-66.7 53.8,-82.5 C53.8,-91.6 51,-99 49.3,-102.6 C46.9,-107.7 44,-111.2 42.3,-111.2 C41.6,-111.2 38.4,-110 35.2,-106.1 C28.7,-98.5 26.9,-85.8 26.9,-77.4 C26.9,-72 27.4,-67.1 29.1,-55.8 C29,-55.8 23.8,-50.5 21.7,-48.7 C12.6,-40.3 0,-28.1 0,-8.2 C0,10.6 16.3,25.3 34.9,25.3 C37.8,25.3 40.5,25 42.9,24.6 C44.7,34.1 45.9,41.2 45.9,46.5 C45.9,56.9 40.5,62.4 30.4,62.4 C28,62.4 25.9,61.9 25.7,61.8 C25.6,61.8 25.4,61.7 25.4,61.6 C25.4,61.4 25.6,61.3 25.9,61.2 C30.6,60.5 35.3,56.4 35.3,50.1 C35.3,44.7 31.2,39 23.7,39 C16.7,39 12.3,44.7 12.3,51.3 C12.3,57.9 17.3,66.6 30.8,66.6 C43.7,66.6 50,59.3 50,46.5 C50,42.6 49.4,38.1 48.4,32.4 C48.1,30.4 47.6,27.3 46.9,23.5 C56.7,20.2 64,10.1 64,-0.2 M42.3,71.7 C42.3,68 38.9,66.4 35.6,66.4 C31.4,66.4 27.3,69 27.3,73.5 C27.3,75.4 28,76.8 29.4,78.2 C26.8,79.2 24.2,81.2 24.2,84.3 C24.2,87.6 27.2,89.8 31.6,89.8 C37,89.8 40.8,86.8 40.8,82.5 C40.8,80.2 39.8,78.3 38,77 C40.9,75.7 42.3,74.1 42.3,71.7"/>
<path class="KeySig" transform="matrix(1.06583,0,0,1.06583,325.559,340.223)" d="M13.2,-4 C13.2,3.9 9.1,8.1 3.3,12.7 L3.6,-6.8 C3.8,-7.7 5.3,-10.6 9.3,-10.6 C12.9,-10.6 13.2,-7.2 13.2,-5.1 L13.2,-4 M12,-15.5 C7,-15.5 4.1,-12.4 3.6,-11.8 L4,-43.9 C4,-44.7 3.4,-45.3 2.6,-45.3 L1.4,-45.3 C0.6,-45.3 0,-44.7 0,-43.9 L0.5,16.2 C0.5,17 1.1,17.6 1.9,17.6 C2.1,17.6 2.5,17.5 2.7,17.4 C11.3,13.1 20.3,4.9 20.3,-5.4 C20.3,-10.6 17.9,-15.5 12,-15.5"/>
<path class="KeySig" transform="matrix(1.06583,0,0,1.06583,325.559,620.003)" d="M13.2,-4 C13.2,3.9 9.1,8.1 3.3,12.7 L3.6,-6.8 C3.8,-7.7 5.3,-10.6 9.3,-10.6 C12.9,-10.6 13.2,-7.2 13.2,-5.1 L13.2,-4 M12,-15.5 C7,-15.5 4.1,-12.4 3.6,-11.8 L4,-43.9 C4,-44.7 3.4,-45.3 2.6,-45.3 L1.4,-45.3 C0.6,-45.3 0,-44.7 0,-43.9 L0.5,16.2 C0.5,17 1.1,17.6 1.9,17.6 C2.1,17.6 2.5,17.5 2.7,17.4 C11.3,13.1 20.3,4.9 20.3,-5.4 C20.3,-10.6 17.9,-15.5 12,-15.5"/>
<path class="KeySig" transform="matrix(1.06583,0,0,1.06583,325.559,899.782)" d="M13.2,-4 C13.2,3.9 9.1,8.1 3.3,12.7 L3.6,-6.8 C3.8,-7.7 5.3,-10.6 9.3,-10.6 C12.9,-10.6 13.2,-7.2 13.2,-5.1 L13.2,-4 M12,-15.5 C7,-15.5 4.1,-12.4 3.6,-11.8 L4,-43.9 C4,-44.7 3.4,-45.3 2.6,-45.3 L1.4,-45.3 C0.6,-45.3 0,-44.7 0,-43.9 L0.5,16.2 C0.5,17 1.1,17.6 1.9,17.6 C2.1,17.6 2.5,17.5 2.7,17.4 C11.3,13.1 20.3,4.9 20.3,-5.4 C20.3,-10.6 17.9,-15.5 12,-15.5"/>
<path class="Rest" transform="matrix(1.06583,0,0,1.06583,1513.59,340.223)" d="M26.7,-20.3 C26.6,-20.3 26.4,-20.4 26.3,-20.4 C25.7,-20.4 25.2,-20.1 25,-19.6 C24.6,-19 21.5,-13.1 17,-9.8 C15.7,-8.8 14.1,-8.1 12.5,-7.8 C13.6,-9.1 14.3,-10.7 14.3,-12.6 C14.3,-16.5 11.1,-19.7 7.2,-19.7 C3.2,-19.7 0,-16.5 0,-12.6 C0,-7.2 5.3,-4.7 10,-4.7 C15.3,-4.7 18.8,-7.2 22.2,-10.9 L10.8,24.7 L13.5,25.5 L27.5,-18.6 C27.6,-18.7 27.6,-18.9 27.6,-19.1 C27.6,-19.6 27.3,-20 26.7,-20.3"/>
<path class="Rest" transform="matrix(1.06583,0,0,1.06583,1513.59,620.003)" d="M26.7,-20.3 C26.6,-20.3 26.4,-20.4 26.3,-20.4 C25.7,-20.4 25.2,-20.1 25,-19.6 C24.6,-19 21.5,-13.1 17,-9.8 C15.7,-8.8 14.1,-8.1 12.5,-7.8 C13.6,-9.1 14.3,-10.7 14.3,-12.6 C14.3,-16.5 11.1,-19.7 7.2,-19.7 C3.2,-19.7 0,-16.5 0,-12.6 C0,-7.2 5.3,-4.7 10,-4.7 C15.3,-4.7 18.8,-7.2 22.2,-10.9 L10.8,24.7 L13.5,25.5 L27.5,-18.6 C27.6,-18.7 27.6,-18.9 27.6,-19.1 C27.6,-19.6 27.3,-20 26.7,-20.3"/>
<path class="Rest" transform="matrix(1.06583,0,0,1.06583,819.047,620.003)" d="M26.7,-20.3 C26.6,-20.3 26.4,-20.4 26.3,-20.4 C25.7,-20.4 25.2,-20.1 25,-19.6 C24.6,-19 21.5,-13.1 17,-9.8 C15.7,-8.8 14.1,-8.1 12.5,-7.8 C13.6,-9.1 14.3,-10.7 14.3,-12.6 C14.3,-16.5 11.1,-19.7 7.2,-19.7 C3.2,-19.7 0,-16.5 0,-12.6 C0,-7.2 5.3,-4.7 10,-4.7 C15.3,-4.7 18.8,-7.2 22.2,-10.9 L10.8,24.7 L13.5,25.5 L27.5,-18.6 C27.6,-18.7 27.6,-18.9 27.6,-19.1 C27.6,-19.6 27.3,-20 26.7,-20.3"/>
<path class="Rest" transform="matrix(1.06583,0,0,1.06583,2035.38,899.782)" d="M23,16.6 C22.9,16.5 22.7,16.3 22.4,15.9 L10.9,1.7 C10.8,1.6 10.7,1.3 10.7,1.1 C10.7,0.8 10.8,0.4 10.9,0.2 L21.1,-15.2 C21.2,-15.4 21.3,-15.7 21.3,-15.9 L21.3,-16.8 C21.3,-17.1 21.2,-17.4 21,-17.6 L4.8,-39.5 C4.8,-39.5 4.4,-40.1 3.8,-40.1 C3.5,-40.1 3.3,-40 3,-39.8 C2.6,-39.5 2.5,-39.1 2.5,-38.8 C2.5,-38.2 2.8,-37.7 2.8,-37.7 L10.4,-27.3 C10.6,-27 10.7,-26.6 10.7,-26.1 C10.7,-25.7 10.6,-25.2 10.4,-24.9 L0.3,-9.5 C0.2,-9.3 0.1,-8.9 0.1,-8.7 L0.1,-7.8 C0.1,-7.5 0.2,-7.2 0.4,-7 L11.6,6.9 C11.2,6.8 10.3,6.6 9.1,6.6 C4,6.6 0,10.8 0,15.9 C0,17.3 0.3,18.7 1.1,19.8 C3.2,23 10.7,32.5 10.7,32.5 C10.7,32.5 11.2,33.1 11.9,33.1 C12.1,33.1 12.3,33.1 12.5,32.9 C13,32.5 13.2,32.1 13.2,31.7 C13.2,31.3 13,31 12.9,30.8 C12.6,30.3 9.4,24.5 9.4,24.5 C9.4,24.5 8.7,23.1 8.7,21.3 C8.7,18.1 11.1,15.5 14.3,15.5 C15.6,15.5 16.7,15.9 17.5,16.4 L21.4,18.9 C21.4,18.9 21.8,19.1 22.2,19.1 C22.6,19.1 22.9,19 23.2,18.6 C23.4,18.2 23.5,18 23.5,17.7 C23.5,17.4 23.4,17.2 23.2,16.9 L23,16.6 "/>
<path class="Rest" transform="matrix(1.06583,0,0,1.06583,1069.7,899.782)" d="M26.7,-20.3 C26.6,-20.3 26.4,-20.4 26.3,-20.4 C25.7,-20.4 25.2,-20.1 25,-19.6 C24.6,-19 21.5,-13.1 17,-9.8 C15.7,-8.8 14.1,-8.1 12.5,-7.8 C13.6,-9.1 14.3,-10.7 14.3,-12.6 C14.3,-16.5 11.1,-19.7 7.2,-19.7 C3.2,-19.7 0,-16.5 0,-12.6 C0,-7.2 5.3,-4.7 10,-4.7 C15.3,-4.7 18.8,-7.2 22.2,-10.9 L10.8,24.7 L13.5,25.5 L27.5,-18.6 C27.6,-18.7 27.6,-18.9 27.6,-19.1 C27.6,-19.6 27.3,-20 26.7,-20.3"/>
<path class="Rest" transform="matrix(1.06583,0,0,1.06583,549.068,899.782)" d="M26.7,-20.3 C26.6,-20.3 26.4,-20.4 26.3,-20.4 C25.7,-20.4 25.2,-20.1 25,-19.6 C24.6,-19 21.5,-13.1 17,-9.8 C15.7,-8.8 14.1,-8.1 12.5,-7.8 C13.6,-9.1 14.3,-10.7 14.3,-12.6 C14.3,-16.5 11.1,-19.7 7.2,-19.7 C3.2,-19.7 0,-16.5 0,-12.6 C0,-7.2 5.3,-4.7 10,-4.7 C15.3,-4.7 18.8,-7.2 22.2,-10.9 L10.8,24.7 L13.5,25.5 L27.5,-18.6 C27.6,-18.7 27.6,-18.9 27.6,-19.1 C27.6,-19.6 27.3,-20 26.7,-20.3"/>
<path class="Beam" fill-rule="evenodd" d="M664.463,380.168 L821.712,393.491 L821.712,406.861 L664.463,393.539 L664.463,380.168 "/>
<path class="Lyrics" d="M2291.29,1008.31 L2281.85,1008.9 L2281.85,1011.17 L2284.03,1011.17 C2286.04,1011.23 2286.31,1011.55 2286.31,1013.82 L2286.31,1028.98 C2286.25,1029.78 2286.2,1030.1 2285.99,1030.36 C2285.62,1030.84 2284.61,1031.05 2282.33,1031.1 L2282.12,1031.1 L2282.12,1033.01 L2295.48,1033.01 L2295.48,1031.1 L2295.26,1031.1 C2291.77,1031 2291.29,1030.73 2291.29,1028.77 L2291.29,1018.97 C2291.29,1014.25 2293.89,1010.75 2297.33,1010.75 C2300.35,1010.75 2301.89,1012.92 2301.89,1017.22 L2301.89,1029.04 C2301.84,1029.72 2301.78,1030.1 2301.52,1030.36 C2301.2,1030.84 2300.14,1031.05 2297.86,1031.1 L2297.65,1031.1 L2297.65,1033.01 L2311.06,1033.01 L2311.06,1031.1 L2310.85,1031.1 C2307.35,1031 2306.87,1030.73 2306.87,1028.82 L2306.87,1019.44 C2306.87,1014.14 2309.26,1010.75 2312.97,1010.75 C2315.99,1010.75 2317.47,1013.03 2317.47,1017.8 L2317.47,1028.98 C2317.42,1029.72 2317.36,1030.1 2317.1,1030.36 C2316.78,1030.84 2315.72,1031.05 2313.44,1031.1 L2313.23,1031.1 L2313.23,1033.01 L2326.64,1033.01 L2326.64,1031.1 L2326.43,1031.1 C2322.93,1031 2322.45,1030.73 2322.45,1028.77 L2322.45,1016.74 C2322.45,1013.45 2322.13,1012.34 2320.76,1010.54 C2319.22,1008.58 2317.05,1007.52 2314.5,1007.52 C2311.06,1007.52 2308.51,1009.16 2306.23,1012.82 C2305.33,1009.64 2302.47,1007.52 2298.92,1007.52 C2295.69,1007.52 2293.36,1009.05 2291.29,1012.39 L2291.29,1008.31 M2336.17,995.116 C2334.48,995.116 2333.1,996.494 2333.1,998.19 C2333.1,999.886 2334.48,1001.26 2336.12,1001.26 C2337.87,1001.26 2339.25,999.886 2339.25,998.19 C2339.25,996.494 2337.87,995.116 2336.17,995.116 M2338.66,1008.31 L2328.7,1008.9 L2328.7,1011.17 L2331.4,1011.17 C2333.42,1011.23 2333.68,1011.55 2333.68,1013.82 L2333.68,1028.98 C2333.63,1029.78 2333.58,1030.1 2333.36,1030.36 C2332.99,1030.84 2331.99,1031.05 2329.71,1031.1 L2329.34,1031.1 L2329.34,1033.01 L2343.06,1033.01 L2343.06,1031.1 L2342.69,1031.1 C2339.14,1031 2338.66,1030.73 2338.66,1028.82 L2338.66,1008.31 "/>
<path class="Lyrics" d="M2617.83,1008.31 L2608.66,1008.9 L2608.66,1011.17 L2610.57,1011.17 C2612.58,1011.23 2612.85,1011.55 2612.85,1013.82 L2612.85,1028.98 C2612.79,1029.78 2612.74,1030.1 2612.53,1030.36 C2612.16,1030.84 2611.15,1031.05 2608.87,1031.1 L2608.66,1031.1 L2608.66,1033.01 L2622.07,1033.01 L2622.07,1031.1 L2621.86,1031.1 C2618.3,1031 2617.83,1030.73 2617.83,1028.82 L2617.83,1020.98 C2617.83,1018.38 2618.2,1016 2618.78,1014.78 C2619.89,1012.39 2622.28,1010.75 2624.56,1010.75 C2625.94,1010.75 2627.53,1011.49 2628.32,1012.61 C2629.12,1013.77 2629.49,1015.36 2629.49,1017.91 L2629.49,1028.98 C2629.43,1029.78 2629.38,1030.1 2629.17,1030.36 C2628.8,1030.84 2627.74,1031.05 2625.46,1031.1 L2625.25,1031.1 L2625.25,1033.01 L2638.66,1033.01 L2638.66,1031.1 L2638.44,1031.1 C2634.95,1031 2634.47,1030.73 2634.47,1028.82 L2634.47,1018.17 C2634.47,1014.35 2634.31,1013.4 2633.36,1011.6 C2632.03,1009.05 2629.38,1007.52 2626.2,1007.52 C2622.76,1007.52 2620.16,1009.11 2617.83,1012.61 L2617.83,1008.31 M2652.96,1007.52 C2646.44,1007.52 2641.4,1013.29 2641.4,1020.71 C2641.4,1027.98 2646.49,1033.81 2652.85,1033.81 C2659.21,1033.81 2664.3,1027.98 2664.3,1020.66 C2664.3,1013.4 2659.21,1007.52 2652.96,1007.52 M2652.96,1009.8 C2656.67,1009.8 2658.74,1013.67 2658.74,1020.66 C2658.74,1027.71 2656.67,1031.53 2652.85,1031.53 C2649.04,1031.53 2646.97,1027.71 2646.97,1020.71 C2646.97,1013.51 2648.98,1009.8 2652.96,1009.8 M2672.63,1027.13 C2670.77,1027.13 2669.29,1028.61 2669.29,1030.41 C2669.29,1032.27 2670.77,1033.75 2672.58,1033.75 C2674.43,1033.75 2675.92,1032.27 2675.92,1030.41 C2675.92,1028.61 2674.43,1027.13 2672.63,1027.13"/>
<polyline class="TextLineSegment" fill="none" stroke="#000000" stroke-width="3.75" stroke-linejoin="miter" stroke-miterlimit="2" points="2281.85,254.441 2281.85,227.795 2515.42,227.795 2515.42,254.441" />
<polyline class="TextLineSegment" fill="none" stroke="#000000" stroke-width="3.75" stroke-linejoin="miter" stroke-miterlimit="2" points="1822.22,241.118 1822.22,214.472 2217.11,214.472 2217.11,241.118" />
<polyline class="TextLineSegment" fill="none" stroke="#000000" stroke-width="3.75" stroke-linejoin="miter" stroke-miterlimit="2" points="1628.99,266.815 1628.99,240.169 1795.57,240.169 1795.57,266.815" />
<polyline class="TextLineSegment" fill="none" stroke="#000000" stroke-width="3.75" stroke-linejoin="miter" stroke-miterlimit="2" points="1185.1,254.441 1185.1,227.795 1486.95,227.795 1486.95,254.441" />
<polyline class="TextLineSegment" fill="none" stroke="#000000" stroke-width="3.75" stroke-linejoin="miter" stroke-miterlimit="2" points="934.443,266.815 934.443,240.169 1120.35,240.169 1120.35,266.815" />
<polyline class="TextLineSegment" fill="none" stroke="#000000" stroke-width="3.75" stroke-linejoin="miter" stroke-miterlimit="2" points="413.806,266.815 413.806,240.169 869.694,240.169 869.694,266.815" />
<polyline class="TextLineSegment" fill="none" stroke="#000000" stroke-width="3.75" stroke-linejoin="miter" stroke-miterlimit="2" points="413.806,546.594 413.806,519.948 792.402,519.948 792.402,546.594" />
<polyline class="TextLineSegment" fill="none" stroke="#000000" stroke-width="3.75" stroke-linejoin="miter" stroke-miterlimit="2" points="934.443,546.594 934.443,519.948 1120.35,519.948 1120.35,546.594" />
<polyline class="TextLineSegment" fill="none" stroke="#000000" stroke-width="3.75" stroke-linejoin="miter" stroke-miterlimit="2" points="1185.1,546.594 1185.1,519.948 1486.95,519.948 1486.95,546.594" />
<polyline class="TextLineSegment" fill="none" stroke="#000000" stroke-width="3.75" stroke-linejoin="miter" stroke-miterlimit="2" points="1628.99,546.594 1628.99,519.948 1795.57,519.948 1795.57,546.594" />
<polyline class="TextLineSegment" fill="none" stroke="#000000" stroke-width="3.75" stroke-linejoin="miter" stroke-miterlimit="2" points="1822.22,546.594 1822.22,519.948 2217.11,519.948 2217.11,546.594" />
<polyline class="TextLineSegment" fill="none" stroke="#000000" stroke-width="3.75" stroke-linejoin="miter" stroke-miterlimit="2" points="373.838,799.728 522.422,799.728 522.422,826.374" />
<polyline class="TextLineSegment" fill="none" stroke="#000000" stroke-width="3.75" stroke-linejoin="miter" stroke-miterlimit="2" points="664.463,826.374 664.463,799.728 1043.06,799.728 1043.06,826.374" />
<polyline class="TextLineSegment" fill="none" stroke="#000000" stroke-width="3.75" stroke-linejoin="miter" stroke-miterlimit="2" points="1185.1,826.374 1185.1,799.728 1351.68,799.728 1351.68,826.374" />
<polyline class="TextLineSegment" fill="none" stroke="#000000" stroke-width="3.75" stroke-linejoin="miter" stroke-miterlimit="2" points="1378.33,826.374 1378.33,799.728 1795.57,799.728 1795.57,826.374" />
<polyline class="LyricsLineSegment" fill="none" stroke="#000000" stroke-width="2.66" stroke-linejoin="bevel" points="556.513,1020.66 572.5,1020.66" />
<polyline class="LyricsLineSegment" fill="none" stroke="#000000" stroke-width="2.66" stroke-linejoin="bevel" points="937.85,1020.66 953.837,1020.66" />
<polyline class="LyricsLineSegment" fill="none" stroke="#000000" stroke-width="2.66" stroke-linejoin="bevel" points="1319.19,1020.66 1335.17,1020.66" />
<polyline class="LyricsLineSegment" fill="none" stroke="#000000" stroke-width="2.66" stroke-linejoin="bevel" points="1700.52,1020.66 1716.51,1020.66" />
<polyline class="LyricsLineSegment" fill="none" stroke="#000000" stroke-width="2.66" stroke-linejoin="bevel" points="2081.86,1020.66 2097.85,1020.66" />
<polyline class="LyricsLineSegment" fill="none" stroke="#000000" stroke-width="2.66" stroke-linejoin="bevel" points="2468.33,1020.66 2484.32,1020.66" />
<path class="NoteDot" transform="matrix(1.06583,0,0,1.06583,2083.33,273.609)" d="M0,0 C0,2.8 2.2,5 5,5 C7.8,5 10,2.8 10,0 C10,-2.8 7.8,-5 5,-5 C2.2,-5 0,-2.8 0,0"/>
<path class="NoteDot" transform="matrix(1.06583,0,0,1.06583,2083.33,606.68)" d="M0,0 C0,2.8 2.2,5 5,5 C7.8,5 10,2.8 10,0 C10,-2.8 7.8,-5 5,-5 C2.2,-5 0,-2.8 0,0"/>
<path class="NoteDot" transform="matrix(1.06583,0,0,1.06583,1676.93,913.105)" d="M0,0 C0,2.8 2.2,5 5,5 C7.8,5 10,2.8 10,0 C10,-2.8 7.8,-5 5,-5 C2.2,-5 0,-2.8 0,0"/>
<path class="NoteDot" transform="matrix(1.06583,0,0,1.06583,1870.16,913.105)" d="M0,0 C0,2.8 2.2,5 5,5 C7.8,5 10,2.8 10,0 C10,-2.8 7.8,-5 5,-5 C2.2,-5 0,-2.8 0,0"/>
<path class="NoteDot" transform="matrix(1.06583,0,0,1.06583,2073.74,886.46)" d="M0,0 C0,2.8 2.2,5 5,5 C7.8,5 10,2.8 10,0 C10,-2.8 7.8,-5 5,-5 C2.2,-5 0,-2.8 0,0"/>
<polyline class="Bracket" fill="none" stroke="#000000" stroke-width="2.93" stroke-linejoin="bevel" points="173.829,286.932 173.829,953.074" />
<polyline class="Bracket" fill="none" stroke="#000000" stroke-width="2.93" stroke-linejoin="bevel" points="172.363,286.932 188.617,286.932" />
<polyline class="Bracket" fill="none" stroke="#000000" stroke-width="2.93" stroke-linejoin="bevel" points="172.363,953.074 188.617,953.074" />
<polyline class="Bracket" fill="none" stroke="#000000" stroke-width="11.99" stroke-linejoin="bevel" points="194.613,267.614 194.613,972.392" />
<path class="Bracket" transform="matrix(1.06583,0,0,1.06583,188.617,273.609)" d="M48.4,-27.7 C48.2,-27.8 47.9,-27.9 47.7,-27.9 C47.3,-27.9 46.8,-27.8 46.6,-27.4 C46.4,-27.1 36.4,-11.7 17.3,-11.7 L1.4,-11.7 C0.6,-11.7 0,-11.2 0,-10.4 L0,0 L12.2,0 C43,0 48.9,-25.7 49,-26 C49,-26.1 49.1,-26.3 49.1,-26.5 C49.1,-27 48.8,-27.4 48.4,-27.7"/>
<path class="Bracket" transform="matrix(1.06583,0,0,1.06583,188.617,966.397)" d="M48.4,27.7 C48.8,27.4 49.1,27 49.1,26.5 C49.1,26.3 49,26.1 49,26 C48.9,25.7 43,0 12.2,0 L0,0 L0,10.4 C0,11.2 0.6,11.7 1.4,11.7 L17.3,11.7 C36.4,11.7 46.4,27.1 46.6,27.4 C46.8,27.8 47.3,27.9 47.7,27.9 C47.9,27.9 48.2,27.8 48.4,27.7"/>
</svg>
