<?xml version="1.0" encoding="UTF-8" standalone="no"?>
<svg width="210.058mm" height="296.926mm" viewBox="0 0 2977.2 4208.4"
 xmlns="http://www.w3.org/2000/svg" xmlns:xlink="http://www.w3.org/1999/xlink" version="1.2" baseProfile="full">
<title>CB034_w1 (5)</title>
<desc>Generated by MuseScore Studio 4.6.5</desc>
<polyline class="StaffLines" fill="none" stroke="#000000" stroke-width="2.93" stroke-linejoin="bevel" points="212.598,283.085 2764.6,283.085" />
<polyline class="StaffLines" fill="none" stroke="#000000" stroke-width="2.93" stroke-linejoin="bevel" points="212.598,309.731 2764.6,309.731" />
<polyline class="StaffLines" fill="none" stroke="#000000" stroke-width="2.93" stroke-linejoin="bevel" points="212.598,336.376 2764.6,336.376" />
<polyline class="StaffLines" fill="none" stroke="#000000" stroke-width="2.93" stroke-linejoin="bevel" points="212.598,363.022 2764.6,363.022" />
<polyline class="StaffLines" fill="none" stroke="#000000" stroke-width="2.93" stroke-linejoin="bevel" points="212.598,389.668 2764.6,389.668" />
<polyline class="StaffLines" fill="none" stroke="#000000" stroke-width="2.93" stroke-linejoin="bevel" points="212.598,562.865 2764.6,562.865" />
<polyline class="StaffLines" fill="none" stroke="#000000" stroke-width="2.93" stroke-linejoin="bevel" points="212.598,589.51 2764.6,589.51" />
<polyline class="StaffLines" fill="none" stroke="#000000" stroke-width="2.93" stroke-linejoin="bevel" points="212.598,616.156 2764.6,616.156" />
<polyline class="StaffLines" fill="none" stroke="#000000" stroke-width="2.93" stroke-linejoin="bevel" points="212.598,642.802 2764.6,642.802" />
<polyline class="StaffLines" fill="none" stroke="#000000" stroke-width="2.93" stroke-linejoin="bevel" points="212.598,669.447 2764.6,669.447" />
<polyline class="StaffLines" fill="none" stroke="#000000" stroke-width="2.93" stroke-linejoin="bevel" points="212.598,920.631 2764.6,920.631" />
<polyline class="StaffLines" fill="none" stroke="#000000" stroke-width="2.93" stroke-linejoin="bevel" points="212.598,947.277 2764.6,947.277" />
<polyline class="StaffLines" fill="none" stroke="#000000" stroke-width="2.93" stroke-linejoin="bevel" points="212.598,973.923 2764.6,973.923" />
<polyline class="StaffLines" fill="none" stroke="#000000" stroke-width="2.93" stroke-linejoin="bevel" points="212.598,1000.57 2764.6,1000.57" />
<polyline class="StaffLines" fill="none" stroke="#000000" stroke-width="2.93" stroke-linejoin="bevel" points="212.598,1027.21 2764.6,1027.21" />
<polyline class="StaffLines" fill="none" stroke="#000000" stroke-width="2.93" stroke-linejoin="bevel" points="212.598,1200.41 2764.6,1200.41" />
<polyline class="StaffLines" fill="none" stroke="#000000" stroke-width="2.93" stroke-linejoin="bevel" points="212.598,1227.06 2764.6,1227.06" />
<polyline class="StaffLines" fill="none" stroke="#000000" stroke-width="2.93" stroke-linejoin="bevel" points="212.598,1253.7 2764.6,1253.7" />
<polyline class="StaffLines" fill="none" stroke="#000000" stroke-width="2.93" stroke-linejoin="bevel" points="212.598,1280.35 2764.6,1280.35" />
<polyline class="StaffLines" fill="none" stroke="#000000" stroke-width="2.93" stroke-linejoin="bevel" points="212.598,1306.99 2764.6,1306.99" />
<polyline class="StaffLines" fill="none" stroke="#000000" stroke-width="2.93" stroke-linejoin="bevel" points="212.598,1558.18 1172.09,1558.18" />
<polyline class="StaffLines" fill="none" stroke="#000000" stroke-width="2.93" stroke-linejoin="bevel" points="212.598,1584.82 1172.09,1584.82" />
<polyline class="StaffLines" fill="none" stroke="#000000" stroke-width="2.93" stroke-linejoin="bevel" points="212.598,1611.47 1172.09,1611.47" />
<polyline class="StaffLines" fill="none" stroke="#000000" stroke-width="2.93" stroke-linejoin="bevel" points="212.598,1638.11 1172.09,1638.11" />
<polyline class="StaffLines" fill="none" stroke="#000000" stroke-width="2.93" stroke-linejoin="bevel" points="212.598,1664.76 1172.09,1664.76" />
<polyline class="StaffLines" fill="none" stroke="#000000" stroke-width="2.93" stroke-linejoin="bevel" points="212.598,1837.96 1172.09,1837.96" />
<polyline class="StaffLines" fill="none" stroke="#000000" stroke-width="2.93" stroke-linejoin="bevel" points="212.598,1864.6 1172.09,1864.6" />
<polyline class="StaffLines" fill="none" stroke="#000000" stroke-width="2.93" stroke-linejoin="bevel" points="212.598,1891.25 1172.09,1891.25" />
<polyline class="StaffLines" fill="none" stroke="#000000" stroke-width="2.93" stroke-linejoin="bevel" points="212.598,1917.89 1172.09,1917.89" />
<polyline class="StaffLines" fill="none" stroke="#000000" stroke-width="2.93" stroke-linejoin="bevel" points="212.598,1944.54 1172.09,1944.54" />
<polyline class="BarLine" fill="none" stroke="#000000" stroke-width="4.80" stroke-linejoin="bevel" points="2762.2,945.812 2762.2,1002.03" />
<polyline class="BarLine" fill="none" stroke="#000000" stroke-width="4.80" stroke-linejoin="bevel" points="214.996,281.62 214.996,562.865" />
<polyline class="BarLine" fill="none" stroke="#000000" stroke-width="4.80" stroke-linejoin="bevel" points="214.996,919.166 214.996,1200.41" />
<polyline class="BarLine" fill="none" stroke="#000000" stroke-width="4.80" stroke-linejoin="bevel" points="2052.58,945.812 2052.58,1002.03" />
<polyline class="BarLine" fill="none" stroke="#000000" stroke-width="4.80" stroke-linejoin="bevel" points="214.996,1556.71 214.996,1837.96" />
<polyline class="BarLine" fill="none" stroke="#000000" stroke-width="4.80" stroke-linejoin="bevel" points="1035.12,308.265 1035.12,364.488" />
<polyline class="BarLine" fill="none" stroke="#000000" stroke-width="4.80" stroke-linejoin="bevel" points="1685.5,308.265 1685.5,364.488" />
<polyline class="BarLine" fill="none" stroke="#000000" stroke-width="4.80" stroke-linejoin="bevel" points="1115.4,945.812 1115.4,1002.03" />
<polyline class="BarLine" fill="none" stroke="#000000" stroke-width="4.80" stroke-linejoin="bevel" points="1145.18,1556.71 1145.18,1666.23" />
<polyline class="BarLine" fill="none" stroke="#000000" stroke-width="14.66" stroke-linejoin="bevel" points="1164.77,1556.71 1164.77,1666.23" />
<polyline class="BarLine" fill="none" stroke="#000000" stroke-width="4.80" stroke-linejoin="bevel" points="2541.07,308.265 2541.07,364.488" />
<polyline class="BarLine" fill="none" stroke="#000000" stroke-width="4.80" stroke-linejoin="bevel" points="1013.82,1583.36 1013.82,1639.58" />
<polyline class="BarLine" fill="none" stroke="#000000" stroke-width="4.80" stroke-linejoin="bevel" points="856.93,1225.59 856.93,1281.81" />
<polyline class="BarLine" fill="none" stroke="#000000" stroke-width="4.80" stroke-linejoin="bevel" points="1145.18,1836.49 1145.18,1946.01" />
<polyline class="BarLine" fill="none" stroke="#000000" stroke-width="14.66" stroke-linejoin="bevel" points="1164.77,1836.49 1164.77,1946.01" />
<polyline class="BarLine" fill="none" stroke="#000000" stroke-width="4.80" stroke-linejoin="bevel" points="1035.12,588.045 1035.12,644.267" />
<polyline class="BarLine" fill="none" stroke="#000000" stroke-width="4.80" stroke-linejoin="bevel" points="214.996,1198.95 214.996,1308.46" />
<polyline class="BarLine" fill="none" stroke="#000000" stroke-width="4.80" stroke-linejoin="bevel" points="214.996,561.399 214.996,670.913" />
<polyline class="BarLine" fill="none" stroke="#000000" stroke-width="4.80" stroke-linejoin="bevel" points="1013.82,1863.14 1013.82,1919.36" />
<polyline class="BarLine" fill="none" stroke="#000000" stroke-width="4.80" stroke-linejoin="bevel" points="214.996,1836.49 214.996,1946.01" />
<polyline class="BarLine" fill="none" stroke="#000000" stroke-width="4.80" stroke-linejoin="bevel" points="2762.2,588.045 2762.2,644.267" />
<polyline class="BarLine" fill="none" stroke="#000000" stroke-width="4.80" stroke-linejoin="bevel" points="1464.36,588.045 1464.36,644.267" />
<polyline class="BarLine" fill="none" stroke="#000000" stroke-width="4.80" stroke-linejoin="bevel" points="2762.2,1225.59 2762.2,1281.81" />
<path class="SlurSegment" stroke="#000000" stroke-width="1.33" stroke-linecap="round" stroke-linejoin="round" fill-rule="evenodd" d="M431.118,369.151 C449.394,387.625 485.947,387.625 504.224,369.151 C485.947,394.812 449.394,394.812 431.118,369.151"/>
<path class="SlurSegment" stroke="#000000" stroke-width="1.33" stroke-linecap="round" stroke-linejoin="round" fill-rule="evenodd" d="M1609.14,896.65 C1641.46,878.314 1685.54,895.234 1697.28,930.49 C1682.94,902 1638.87,885.08 1609.14,896.65"/>
<path class="SlurSegment" stroke="#000000" stroke-width="1.33" stroke-linecap="round" stroke-linejoin="round" fill-rule="evenodd" d="M2556.75,936.619 C2588.27,901.805 2654.38,898.741 2688.97,930.49 C2654.71,905.981 2588.6,909.045 2556.75,936.619"/>
<path class="SlurSegment" stroke="#000000" stroke-width="1.33" stroke-linecap="round" stroke-linejoin="round" fill-rule="evenodd" d="M2105.6,1286.48 C2127.63,1307.08 2171.71,1307.08 2193.74,1286.48 C2171.71,1314.33 2127.63,1314.33 2105.6,1286.48"/>
<polyline class="Stem" fill="none" stroke="#000000" stroke-width="1.87" stroke-linejoin="bevel" points="2677.79,950.411 2677.79,1012.48" />
<polyline class="Stem" fill="none" stroke="#000000" stroke-width="2.66" stroke-linejoin="bevel" points="1743.01,938.431 1743.01,1020.55" />
<polyline class="Stem" fill="none" stroke="#000000" stroke-width="2.66" stroke-linejoin="bevel" points="2150.44,345.436 2150.44,263.101" />
<polyline class="Stem" fill="none" stroke="#000000" stroke-width="2.66" stroke-linejoin="bevel" points="893.968,925.108 893.968,1013.89" />
<polyline class="Stem" fill="none" stroke="#000000" stroke-width="1.87" stroke-linejoin="bevel" points="515.421,346.715 515.421,266.755" />
<polyline class="Stem" fill="none" stroke="#000000" stroke-width="2.66" stroke-linejoin="bevel" points="1831.15,951.753 1831.15,1040.54" />
<polyline class="Stem" fill="none" stroke="#000000" stroke-width="1.87" stroke-linejoin="bevel" points="1686.1,950.411 1686.1,1020.55" />
<polyline class="Stem" fill="none" stroke="#000000" stroke-width="2.66" stroke-linejoin="bevel" points="447.114,332.113 447.114,263.171" />
<polyline class="Stem" fill="none" stroke="#000000" stroke-width="2.66" stroke-linejoin="bevel" points="635.502,965.076 635.502,1047.2" />
<polyline class="Stem" fill="none" stroke="#000000" stroke-width="2.66" stroke-linejoin="bevel" points="2278.34,345.436 2278.34,263.314" />
<polyline class="Stem" fill="none" stroke="#000000" stroke-width="2.66" stroke-linejoin="bevel" points="1593.16,925.108 1593.16,1020.55" />
<polyline class="Stem" fill="none" stroke="#000000" stroke-width="2.66" stroke-linejoin="bevel" points="1905.3,340.853 1905.3,416.313" />
<polyline class="Stem" fill="none" stroke="#000000" stroke-width="2.66" stroke-linejoin="bevel" points="1533.37,372.082 1533.37,283.085" />
<polyline class="Stem" fill="none" stroke="#000000" stroke-width="2.66" stroke-linejoin="bevel" points="2239.46,978.399 2239.46,1060.41" />
<polyline class="Stem" fill="none" stroke="#000000" stroke-width="2.66" stroke-linejoin="bevel" points="767.719,951.753 767.719,1040.43" />
<polyline class="Stem" fill="none" stroke="#000000" stroke-width="2.66" stroke-linejoin="bevel" points="2363.61,358.759 2363.61,269.762" />
<polyline class="Stem" fill="none" stroke="#000000" stroke-width="2.66" stroke-linejoin="bevel" points="547.357,938.431 547.357,1027.11" />
<polyline class="Stem" fill="none" stroke="#000000" stroke-width="2.66" stroke-linejoin="bevel" points="1286.9,358.759 1286.9,269.762" />
<polyline class="Stem" fill="none" stroke="#000000" stroke-width="2.66" stroke-linejoin="bevel" points="1411.92,345.436 1411.92,263.314" />
<polyline class="Stem" fill="none" stroke="#000000" stroke-width="2.66" stroke-linejoin="bevel" points="1072.16,340.853 1072.16,416.313" />
<polyline class="Stem" fill="none" stroke="#000000" stroke-width="2.66" stroke-linejoin="bevel" points="857.665,358.759 857.665,269.762" />
<polyline class="Stem" fill="none" stroke="#000000" stroke-width="2.66" stroke-linejoin="bevel" points="1213.8,345.436 1213.8,263.314" />
<polyline class="Stem" fill="none" stroke="#000000" stroke-width="2.66" stroke-linejoin="bevel" points="644.499,372.082 644.499,283.085" />
<polyline class="Stem" fill="none" stroke="#000000" stroke-width="2.66" stroke-linejoin="bevel" points="2540.78,965.076 2540.78,1047.2" />
<polyline class="Stem" fill="none" stroke="#000000" stroke-width="2.66" stroke-linejoin="bevel" points="415.139,951.753 415.139,1040.54" />
<polyline class="Stem" fill="none" stroke="#000000" stroke-width="2.66" stroke-linejoin="bevel" points="2578.1,287.561 2578.1,376.345" />
<polyline class="Stem" fill="none" stroke="#000000" stroke-width="2.66" stroke-linejoin="bevel" points="1152.43,925.108 1152.43,1013.89" />
<polyline class="Stem" fill="none" stroke="#000000" stroke-width="2.66" stroke-linejoin="bevel" points="1284.65,951.753 1284.65,1040.43" />
<polyline class="Stem" fill="none" stroke="#000000" stroke-width="2.66" stroke-linejoin="bevel" points="1505.01,911.785 1505.01,1000.46" />
<polyline class="Stem" fill="none" stroke="#000000" stroke-width="2.66" stroke-linejoin="bevel" points="571.393,358.759 571.393,269.692" />
<polyline class="Stem" fill="none" stroke="#000000" stroke-width="2.66" stroke-linejoin="bevel" points="2687.76,300.884 2687.76,389.561" />
<polyline class="Stem" fill="none" stroke="#000000" stroke-width="2.66" stroke-linejoin="bevel" points="1372.8,938.431 1372.8,1027.21" />
<polyline class="Stem" fill="none" stroke="#000000" stroke-width="2.66" stroke-linejoin="bevel" points="1832.2,327.53 1832.2,409.545" />
<polyline class="Stem" fill="none" stroke="#000000" stroke-width="2.66" stroke-linejoin="bevel" points="2089.62,965.076 2089.62,1047.2" />
<polyline class="Stem" fill="none" stroke="#000000" stroke-width="2.66" stroke-linejoin="bevel" points="2327.61,965.076 2327.61,1047.2" />
<polyline class="Stem" fill="none" stroke="#000000" stroke-width="2.66" stroke-linejoin="bevel" points="1722.54,327.53 1722.54,409.652" />
<polyline class="Stem" fill="none" stroke="#000000" stroke-width="2.66" stroke-linejoin="bevel" points="2033.2,340.853 2033.2,422.868" />
<polyline class="Stem" fill="none" stroke="#000000" stroke-width="2.66" stroke-linejoin="bevel" points="2359.58,1289.41 2359.58,1200.41" />
<polyline class="Stem" fill="none" stroke="#000000" stroke-width="2.66" stroke-linejoin="bevel" points="1864.17,625.215 1864.17,543.093" />
<polyline class="Stem" fill="none" stroke="#000000" stroke-width="2.66" stroke-linejoin="bevel" points="1284.65,1258.18 1284.65,1340.19" />
<polyline class="Stem" fill="none" stroke="#000000" stroke-width="2.66" stroke-linejoin="bevel" points="2610.08,651.861 2610.08,562.865" />
<polyline class="Stem" fill="none" stroke="#000000" stroke-width="2.66" stroke-linejoin="bevel" points="1152.43,1258.18 1152.43,1333.64" />
<polyline class="Stem" fill="none" stroke="#000000" stroke-width="2.66" stroke-linejoin="bevel" points="1536.99,1276.08 1536.99,1187.3" />
<polyline class="Stem" fill="none" stroke="#000000" stroke-width="2.66" stroke-linejoin="bevel" points="644.499,625.215 644.499,542.88" />
<polyline class="Stem" fill="none" stroke="#000000" stroke-width="2.66" stroke-linejoin="bevel" points="2363.61,638.538 2363.61,549.542" />
<polyline class="Stem" fill="none" stroke="#000000" stroke-width="2.66" stroke-linejoin="bevel" points="1593.16,1258.18 1593.16,1333.64" />
<polyline class="Stem" fill="none" stroke="#000000" stroke-width="2.66" stroke-linejoin="bevel" points="2150.44,651.861 2150.44,562.865" />
<polyline class="Stem" fill="none" stroke="#000000" stroke-width="2.66" stroke-linejoin="bevel" points="1058.16,1276.08 1058.16,1187.3" />
<polyline class="Stem" fill="none" stroke="#000000" stroke-width="2.66" stroke-linejoin="bevel" points="925.943,1289.41 925.943,1200.41" />
<polyline class="Stem" fill="none" stroke="#000000" stroke-width="2.66" stroke-linejoin="bevel" points="1743.01,1244.86 1743.01,1326.87" />
<polyline class="Stem" fill="none" stroke="#000000" stroke-width="2.66" stroke-linejoin="bevel" points="857.665,638.538 857.665,549.542" />
<polyline class="Stem" fill="none" stroke="#000000" stroke-width="2.66" stroke-linejoin="bevel" points="2065.18,638.538 2065.18,549.755" />
<polyline class="Stem" fill="none" stroke="#000000" stroke-width="2.66" stroke-linejoin="bevel" points="2572.75,1289.41 2572.75,1200.41" />
<polyline class="Stem" fill="none" stroke="#000000" stroke-width="2.66" stroke-linejoin="bevel" points="447.114,638.538 447.114,549.542" />
<polyline class="Stem" fill="none" stroke="#000000" stroke-width="2.66" stroke-linejoin="bevel" points="1937.28,638.538 1937.28,549.542" />
<polyline class="Stem" fill="none" stroke="#000000" stroke-width="2.66" stroke-linejoin="bevel" points="1831.15,1231.53 1831.15,1320.32" />
<polyline class="Stem" fill="none" stroke="#000000" stroke-width="2.66" stroke-linejoin="bevel" points="1072.16,620.632 1072.16,696.093" />
<polyline class="Stem" fill="none" stroke="#000000" stroke-width="2.66" stroke-linejoin="bevel" points="1754.51,625.215 1754.51,542.88" />
<polyline class="Stem" fill="none" stroke="#000000" stroke-width="2.66" stroke-linejoin="bevel" points="2121.59,1249.44 2121.59,1180.48" />
<polyline class="Stem" fill="none" stroke="#000000" stroke-width="2.66" stroke-linejoin="bevel" points="1611.06,620.632 1611.06,702.648" />
<polyline class="Stem" fill="none" stroke="#000000" stroke-width="1.87" stroke-linejoin="bevel" points="2204.94,1264.04 2204.94,1184.13" />
<polyline class="Stem" fill="none" stroke="#000000" stroke-width="2.66" stroke-linejoin="bevel" points="415.139,1258.18 415.139,1333.64" />
<polyline class="Stem" fill="none" stroke="#000000" stroke-width="2.66" stroke-linejoin="bevel" points="635.502,1244.86 635.502,1326.98" />
<polyline class="Stem" fill="none" stroke="#000000" stroke-width="2.66" stroke-linejoin="bevel" points="2271.44,1276.08 2271.44,1187.03" />
<polyline class="Stem" fill="none" stroke="#000000" stroke-width="2.66" stroke-linejoin="bevel" points="1501.4,620.632 1501.4,696.093" />
<polyline class="Stem" fill="none" stroke="#000000" stroke-width="2.66" stroke-linejoin="bevel" points="1963.37,1244.86 1963.37,1326.87" />
<polyline class="Stem" fill="none" stroke="#000000" stroke-width="2.66" stroke-linejoin="bevel" points="1254.93,607.31 1254.93,689.431" />
<polyline class="Stem" fill="none" stroke="#000000" stroke-width="2.66" stroke-linejoin="bevel" points="1404.77,1262.76 1404.77,1180.43" />
<path class="Hook" transform="matrix(1.06583,0,0,1.06583,766.387,1040.54)" d="M0,-0.1 C0,0.6 0.6,1.2 1.3,1.2 C1.8,1.2 2.4,0.8 2.5,0.4 C2.5,0.3 3.4,-3.2 3.5,-3.5 C3.6,-3.9 4.5,-7.7 8.1,-13.6 C12,-20.1 18,-24.8 23,-31.8 C27.9,-38.8 30.9,-45.4 30.9,-54.2 C30.9,-63.3 28.8,-70.9 23.5,-80.6 C23.2,-81.3 22.6,-81.7 22,-81.7 C21.8,-81.7 21.6,-81.7 21.5,-81.6 C21,-81.4 20.8,-81 20.8,-80.4 C20.8,-80.1 20.9,-79.6 21.1,-79.2 C25.1,-69.9 26.7,-64.6 26.7,-57.4 C26.7,-49.1 23.8,-44.8 22,-41.7 C15.5,-30.6 5,-25.2 0.8,-23.8 C0.1,-23.5 0,-23 0,-22.7 L0,-0.1 "/>
<path class="Hook" transform="matrix(1.06583,0,0,1.06583,1283.32,1040.54)" d="M0,-0.1 C0,0.6 0.6,1.2 1.3,1.2 C1.8,1.2 2.4,0.8 2.5,0.4 C2.5,0.3 3.4,-3.2 3.5,-3.5 C3.6,-3.9 4.5,-7.7 8.1,-13.6 C12,-20.1 18,-24.8 23,-31.8 C27.9,-38.8 30.9,-45.4 30.9,-54.2 C30.9,-63.3 28.8,-70.9 23.5,-80.6 C23.2,-81.3 22.6,-81.7 22,-81.7 C21.8,-81.7 21.6,-81.7 21.5,-81.6 C21,-81.4 20.8,-81 20.8,-80.4 C20.8,-80.1 20.9,-79.6 21.1,-79.2 C25.1,-69.9 26.7,-64.6 26.7,-57.4 C26.7,-49.1 23.8,-44.8 22,-41.7 C15.5,-30.6 5,-25.2 0.8,-23.8 C0.1,-23.5 0,-23 0,-22.7 L0,-0.1 "/>
<path class="Hook" transform="matrix(1.06583,0,0,1.06583,546.024,1027.21)" d="M0,-0.1 C0,0.6 0.6,1.2 1.3,1.2 C1.8,1.2 2.4,0.8 2.5,0.4 C2.5,0.3 3.4,-3.2 3.5,-3.5 C3.6,-3.9 4.5,-7.7 8.1,-13.6 C12,-20.1 18,-24.8 23,-31.8 C27.9,-38.8 30.9,-45.4 30.9,-54.2 C30.9,-63.3 28.8,-70.9 23.5,-80.6 C23.2,-81.3 22.6,-81.7 22,-81.7 C21.8,-81.7 21.6,-81.7 21.5,-81.6 C21,-81.4 20.8,-81 20.8,-80.4 C20.8,-80.1 20.9,-79.6 21.1,-79.2 C25.1,-69.9 26.7,-64.6 26.7,-57.4 C26.7,-49.1 23.8,-44.8 22,-41.7 C15.5,-30.6 5,-25.2 0.8,-23.8 C0.1,-23.5 0,-23 0,-22.7 L0,-0.1 "/>
<path class="Hook" transform="matrix(1.06583,0,0,1.06583,2031.87,422.975)" d="M0,-0.1 C0,0.6 0.6,1.2 1.3,1.2 C1.8,1.2 2.4,0.8 2.5,0.4 C2.5,0.3 3.4,-3.2 3.5,-3.5 C3.6,-3.9 4.5,-7.7 8.1,-13.6 C12,-20.1 18,-24.8 23,-31.8 C27.9,-38.8 30.9,-45.4 30.9,-54.2 C30.9,-63.3 28.8,-70.9 23.5,-80.6 C23.2,-81.3 22.6,-81.7 22,-81.7 C21.8,-81.7 21.6,-81.7 21.5,-81.6 C21,-81.4 20.8,-81 20.8,-80.4 C20.8,-80.1 20.9,-79.6 21.1,-79.2 C25.1,-69.9 26.7,-64.6 26.7,-57.4 C26.7,-49.1 23.8,-44.8 22,-41.7 C15.5,-30.6 5,-25.2 0.8,-23.8 C0.1,-23.5 0,-23 0,-22.7 L0,-0.1 "/>
<path class="Hook" transform="matrix(1.06583,0,0,1.06583,1830.86,409.652)" d="M0,-0.1 C0,0.6 0.6,1.2 1.3,1.2 C1.8,1.2 2.4,0.8 2.5,0.4 C2.5,0.3 3.4,-3.2 3.5,-3.5 C3.6,-3.9 4.5,-7.7 8.1,-13.6 C12,-20.1 18,-24.8 23,-31.8 C27.9,-38.8 30.9,-45.4 30.9,-54.2 C30.9,-63.3 28.8,-70.9 23.5,-80.6 C23.2,-81.3 22.6,-81.7 22,-81.7 C21.8,-81.7 21.6,-81.7 21.5,-81.6 C21,-81.4 20.8,-81 20.8,-80.4 C20.8,-80.1 20.9,-79.6 21.1,-79.2 C25.1,-69.9 26.7,-64.6 26.7,-57.4 C26.7,-49.1 23.8,-44.8 22,-41.7 C15.5,-30.6 5,-25.2 0.8,-23.8 C0.1,-23.5 0,-23 0,-22.7 L0,-0.1 "/>
<path class="Hook" transform="matrix(1.06583,0,0,1.06583,2277.01,263.101)" d="M0,22.7 C0,23 0.1,23.5 0.8,23.8 C5.1,25.2 13.7,30.6 20.2,41.7 C22,44.8 24.9,49.1 24.9,57.4 C24.9,64.6 23,72 20.4,79.2 C20.2,79.8 20,80.3 20.1,80.7 C20.1,81.3 20.5,81.7 21.1,81.7 C21.8,81.7 22.3,81.3 22.7,80.6 C27.2,72.6 28.9,63.3 28.9,54.2 C28.4,41.3 21,31.8 21,31.8 C21.3,31.8 11.8,19.5 9.1,15.3 C5.4,9.6 3.7,3.9 3.5,3.5 C3.4,3.2 2.5,-0.4 2.5,-0.4 C2.4,-0.8 1.9,-1.2 1.3,-1.2 C0.6,-1.2 0,-0.6 0,0.1 L0,22.7 "/>
<path class="Hook" transform="matrix(1.06583,0,0,1.06583,2238.13,1060.52)" d="M0,-0.1 C0,0.6 0.6,1.2 1.3,1.2 C1.8,1.2 2.4,0.8 2.5,0.4 C2.5,0.3 3.4,-3.2 3.5,-3.5 C3.6,-3.9 4.5,-7.7 8.1,-13.6 C12,-20.1 18,-24.8 23,-31.8 C27.9,-38.8 30.9,-45.4 30.9,-54.2 C30.9,-63.3 28.8,-70.9 23.5,-80.6 C23.2,-81.3 22.6,-81.7 22,-81.7 C21.8,-81.7 21.6,-81.7 21.5,-81.6 C21,-81.4 20.8,-81 20.8,-80.4 C20.8,-80.1 20.9,-79.6 21.1,-79.2 C25.1,-69.9 26.7,-64.6 26.7,-57.4 C26.7,-49.1 23.8,-44.8 22,-41.7 C15.5,-30.6 5,-25.2 0.8,-23.8 C0.1,-23.5 0,-23 0,-22.7 L0,-0.1 "/>
<path class="Hook" transform="matrix(1.06583,0,0,1.06583,1503.68,1000.57)" d="M0,-0.1 C0,0.6 0.6,1.2 1.3,1.2 C1.8,1.2 2.4,0.8 2.5,0.4 C2.5,0.3 3.4,-3.2 3.5,-3.5 C3.6,-3.9 4.5,-7.7 8.1,-13.6 C12,-20.1 18,-24.8 23,-31.8 C27.9,-38.8 30.9,-45.4 30.9,-54.2 C30.9,-63.3 28.8,-70.9 23.5,-80.6 C23.2,-81.3 22.6,-81.7 22,-81.7 C21.8,-81.7 21.6,-81.7 21.5,-81.6 C21,-81.4 20.8,-81 20.8,-80.4 C20.8,-80.1 20.9,-79.6 21.1,-79.2 C25.1,-69.9 26.7,-64.6 26.7,-57.4 C26.7,-49.1 23.8,-44.8 22,-41.7 C15.5,-30.6 5,-25.2 0.8,-23.8 C0.1,-23.5 0,-23 0,-22.7 L0,-0.1 "/>
<path class="Hook" transform="matrix(1.06583,0,0,1.06583,1410.59,263.101)" d="M0,22.7 C0,23 0.1,23.5 0.8,23.8 C5.1,25.2 13.7,30.6 20.2,41.7 C22,44.8 24.9,49.1 24.9,57.4 C24.9,64.6 23,72 20.4,79.2 C20.2,79.8 20,80.3 20.1,80.7 C20.1,81.3 20.5,81.7 21.1,81.7 C21.8,81.7 22.3,81.3 22.7,80.6 C27.2,72.6 28.9,63.3 28.9,54.2 C28.4,41.3 21,31.8 21,31.8 C21.3,31.8 11.8,19.5 9.1,15.3 C5.4,9.6 3.7,3.9 3.5,3.5 C3.4,3.2 2.5,-0.4 2.5,-0.4 C2.4,-0.8 1.9,-1.2 1.3,-1.2 C0.6,-1.2 0,-0.6 0,0.1 L0,22.7 "/>
<path class="Hook" transform="matrix(1.06583,0,0,1.06583,2686.43,389.668)" d="M0,-0.1 C0,0.6 0.6,1.2 1.3,1.2 C1.8,1.2 2.4,0.8 2.5,0.4 C2.5,0.3 3.4,-3.2 3.5,-3.5 C3.6,-3.9 4.5,-7.7 8.1,-13.6 C12,-20.1 18,-24.8 23,-31.8 C27.9,-38.8 30.9,-45.4 30.9,-54.2 C30.9,-63.3 28.8,-70.9 23.5,-80.6 C23.2,-81.3 22.6,-81.7 22,-81.7 C21.8,-81.7 21.6,-81.7 21.5,-81.6 C21,-81.4 20.8,-81 20.8,-80.4 C20.8,-80.1 20.9,-79.6 21.1,-79.2 C25.1,-69.9 26.7,-64.6 26.7,-57.4 C26.7,-49.1 23.8,-44.8 22,-41.7 C15.5,-30.6 5,-25.2 0.8,-23.8 C0.1,-23.5 0,-23 0,-22.7 L0,-0.1 "/>
<path class="Hook" transform="matrix(1.06583,0,0,1.06583,1212.46,263.101)" d="M0,22.7 C0,23 0.1,23.5 0.8,23.8 C5.1,25.2 13.7,30.6 20.2,41.7 C22,44.8 24.9,49.1 24.9,57.4 C24.9,64.6 23,72 20.4,79.2 C20.2,79.8 20,80.3 20.1,80.7 C20.1,81.3 20.5,81.7 21.1,81.7 C21.8,81.7 22.3,81.3 22.7,80.6 C27.2,72.6 28.9,63.3 28.9,54.2 C28.4,41.3 21,31.8 21,31.8 C21.3,31.8 11.8,19.5 9.1,15.3 C5.4,9.6 3.7,3.9 3.5,3.5 C3.4,3.2 2.5,-0.4 2.5,-0.4 C2.4,-0.8 1.9,-1.2 1.3,-1.2 C0.6,-1.2 0,-0.6 0,0.1 L0,22.7 "/>
<path class="Hook" transform="matrix(0.746079,0,0,0.746079,2676.85,1012.56)" d="M0,-0.1 C0,0.6 0.6,1.2 1.3,1.2 C1.8,1.2 2.4,0.8 2.5,0.4 C2.5,0.3 3.4,-3.2 3.5,-3.5 C3.6,-3.9 4.5,-7.7 8.1,-13.6 C12,-20.1 18,-24.8 23,-31.8 C27.9,-38.8 30.9,-45.4 30.9,-54.2 C30.9,-63.3 28.8,-70.9 23.5,-80.6 C23.2,-81.3 22.6,-81.7 22,-81.7 C21.8,-81.7 21.6,-81.7 21.5,-81.6 C21,-81.4 20.8,-81 20.8,-80.4 C20.8,-80.1 20.9,-79.6 21.1,-79.2 C25.1,-69.9 26.7,-64.6 26.7,-57.4 C26.7,-49.1 23.8,-44.8 22,-41.7 C15.5,-30.6 5,-25.2 0.8,-23.8 C0.1,-23.5 0,-23 0,-22.7 L0,-0.1 "/>
<path class="Hook" transform="matrix(1.06583,0,0,1.06583,1962.04,1326.98)" d="M0,-0.1 C0,0.6 0.6,1.2 1.3,1.2 C1.8,1.2 2.4,0.8 2.5,0.4 C2.5,0.3 3.4,-3.2 3.5,-3.5 C3.6,-3.9 4.5,-7.7 8.1,-13.6 C12,-20.1 18,-24.8 23,-31.8 C27.9,-38.8 30.9,-45.4 30.9,-54.2 C30.9,-63.3 28.8,-70.9 23.5,-80.6 C23.2,-81.3 22.6,-81.7 22,-81.7 C21.8,-81.7 21.6,-81.7 21.5,-81.6 C21,-81.4 20.8,-81 20.8,-80.4 C20.8,-80.1 20.9,-79.6 21.1,-79.2 C25.1,-69.9 26.7,-64.6 26.7,-57.4 C26.7,-49.1 23.8,-44.8 22,-41.7 C15.5,-30.6 5,-25.2 0.8,-23.8 C0.1,-23.5 0,-23 0,-22.7 L0,-0.1 "/>
<path class="Hook" transform="matrix(1.06583,0,0,1.06583,2063.84,549.542)" d="M0,22.7 C0,23 0.1,23.5 0.8,23.8 C5.1,25.2 13.7,30.6 20.2,41.7 C22,44.8 24.9,49.1 24.9,57.4 C24.9,64.6 23,72 20.4,79.2 C20.2,79.8 20,80.3 20.1,80.7 C20.1,81.3 20.5,81.7 21.1,81.7 C21.8,81.7 22.3,81.3 22.7,80.6 C27.2,72.6 28.9,63.3 28.9,54.2 C28.4,41.3 21,31.8 21,31.8 C21.3,31.8 11.8,19.5 9.1,15.3 C5.4,9.6 3.7,3.9 3.5,3.5 C3.4,3.2 2.5,-0.4 2.5,-0.4 C2.4,-0.8 1.9,-1.2 1.3,-1.2 C0.6,-1.2 0,-0.6 0,0.1 L0,22.7 "/>
<path class="Hook" transform="matrix(1.06583,0,0,1.06583,1862.84,542.88)" d="M0,22.7 C0,23 0.1,23.5 0.8,23.8 C5.1,25.2 13.7,30.6 20.2,41.7 C22,44.8 24.9,49.1 24.9,57.4 C24.9,64.6 23,72 20.4,79.2 C20.2,79.8 20,80.3 20.1,80.7 C20.1,81.3 20.5,81.7 21.1,81.7 C21.8,81.7 22.3,81.3 22.7,80.6 C27.2,72.6 28.9,63.3 28.9,54.2 C28.4,41.3 21,31.8 21,31.8 C21.3,31.8 11.8,19.5 9.1,15.3 C5.4,9.6 3.7,3.9 3.5,3.5 C3.4,3.2 2.5,-0.4 2.5,-0.4 C2.4,-0.8 1.9,-1.2 1.3,-1.2 C0.6,-1.2 0,-0.6 0,0.1 L0,22.7 "/>
<path class="Hook" transform="matrix(1.06583,0,0,1.06583,1741.67,1326.98)" d="M0,-0.1 C0,0.6 0.6,1.2 1.3,1.2 C1.8,1.2 2.4,0.8 2.5,0.4 C2.5,0.3 3.4,-3.2 3.5,-3.5 C3.6,-3.9 4.5,-7.7 8.1,-13.6 C12,-20.1 18,-24.8 23,-31.8 C27.9,-38.8 30.9,-45.4 30.9,-54.2 C30.9,-63.3 28.8,-70.9 23.5,-80.6 C23.2,-81.3 22.6,-81.7 22,-81.7 C21.8,-81.7 21.6,-81.7 21.5,-81.6 C21,-81.4 20.8,-81 20.8,-80.4 C20.8,-80.1 20.9,-79.6 21.1,-79.2 C25.1,-69.9 26.7,-64.6 26.7,-57.4 C26.7,-49.1 23.8,-44.8 22,-41.7 C15.5,-30.6 5,-25.2 0.8,-23.8 C0.1,-23.5 0,-23 0,-22.7 L0,-0.1 "/>
<path class="Hook" transform="matrix(1.06583,0,0,1.06583,1609.73,702.754)" d="M0,-0.1 C0,0.6 0.6,1.2 1.3,1.2 C1.8,1.2 2.4,0.8 2.5,0.4 C2.5,0.3 3.4,-3.2 3.5,-3.5 C3.6,-3.9 4.5,-7.7 8.1,-13.6 C12,-20.1 18,-24.8 23,-31.8 C27.9,-38.8 30.9,-45.4 30.9,-54.2 C30.9,-63.3 28.8,-70.9 23.5,-80.6 C23.2,-81.3 22.6,-81.7 22,-81.7 C21.8,-81.7 21.6,-81.7 21.5,-81.6 C21,-81.4 20.8,-81 20.8,-80.4 C20.8,-80.1 20.9,-79.6 21.1,-79.2 C25.1,-69.9 26.7,-64.6 26.7,-57.4 C26.7,-49.1 23.8,-44.8 22,-41.7 C15.5,-30.6 5,-25.2 0.8,-23.8 C0.1,-23.5 0,-23 0,-22.7 L0,-0.1 "/>
<path class="Hook" transform="matrix(1.06583,0,0,1.06583,1535.66,1187.09)" d="M0,22.7 C0,23 0.1,23.5 0.8,23.8 C5.1,25.2 13.7,30.6 20.2,41.7 C22,44.8 24.9,49.1 24.9,57.4 C24.9,64.6 23,72 20.4,79.2 C20.2,79.8 20,80.3 20.1,80.7 C20.1,81.3 20.5,81.7 21.1,81.7 C21.8,81.7 22.3,81.3 22.7,80.6 C27.2,72.6 28.9,63.3 28.9,54.2 C28.4,41.3 21,31.8 21,31.8 C21.3,31.8 11.8,19.5 9.1,15.3 C5.4,9.6 3.7,3.9 3.5,3.5 C3.4,3.2 2.5,-0.4 2.5,-0.4 C2.4,-0.8 1.9,-1.2 1.3,-1.2 C0.6,-1.2 0,-0.6 0,0.1 L0,22.7 "/>
<path class="Hook" transform="matrix(1.06583,0,0,1.06583,1056.83,1187.09)" d="M0,22.7 C0,23 0.1,23.5 0.8,23.8 C5.1,25.2 13.7,30.6 20.2,41.7 C22,44.8 24.9,49.1 24.9,57.4 C24.9,64.6 23,72 20.4,79.2 C20.2,79.8 20,80.3 20.1,80.7 C20.1,81.3 20.5,81.7 21.1,81.7 C21.8,81.7 22.3,81.3 22.7,80.6 C27.2,72.6 28.9,63.3 28.9,54.2 C28.4,41.3 21,31.8 21,31.8 C21.3,31.8 11.8,19.5 9.1,15.3 C5.4,9.6 3.7,3.9 3.5,3.5 C3.4,3.2 2.5,-0.4 2.5,-0.4 C2.4,-0.8 1.9,-1.2 1.3,-1.2 C0.6,-1.2 0,-0.6 0,0.1 L0,22.7 "/>
<path class="Hook" transform="matrix(1.06583,0,0,1.06583,1283.32,1340.3)" d="M0,-0.1 C0,0.6 0.6,1.2 1.3,1.2 C1.8,1.2 2.4,0.8 2.5,0.4 C2.5,0.3 3.4,-3.2 3.5,-3.5 C3.6,-3.9 4.5,-7.7 8.1,-13.6 C12,-20.1 18,-24.8 23,-31.8 C27.9,-38.8 30.9,-45.4 30.9,-54.2 C30.9,-63.3 28.8,-70.9 23.5,-80.6 C23.2,-81.3 22.6,-81.7 22,-81.7 C21.8,-81.7 21.6,-81.7 21.5,-81.6 C21,-81.4 20.8,-81 20.8,-80.4 C20.8,-80.1 20.9,-79.6 21.1,-79.2 C25.1,-69.9 26.7,-64.6 26.7,-57.4 C26.7,-49.1 23.8,-44.8 22,-41.7 C15.5,-30.6 5,-25.2 0.8,-23.8 C0.1,-23.5 0,-23 0,-22.7 L0,-0.1 "/>
<path class="Note" transform="matrix(1.06583,0,0,1.06583,1903.97,336.376)" d="M0,4.2 C0,8.5 3.1,13.3 11.2,13.3 C21.6,13.3 32.5,4.8 32.5,-4 C32.5,-9.9 27.5,-13.2 21.3,-13.2 C11.6,-13.2 0,-5 0,4.2"/>
<path class="Note" transform="matrix(1.06583,0,0,1.06583,1829.82,947.277)" d="M0,4.2 C0,8.5 3.1,13.3 11.2,13.3 C21.6,13.3 32.5,4.8 32.5,-4 C32.5,-9.9 27.5,-13.2 21.3,-13.2 C11.6,-13.2 0,-5 0,4.2"/>
<path class="Note" transform="matrix(0.746079,0,0,0.746079,492.106,349.699)" d="M0,4.2 C0,8.5 3.1,13.3 11.2,13.3 C21.6,13.3 32.5,4.8 32.5,-4 C32.5,-9.9 27.5,-13.2 21.3,-13.2 C11.6,-13.2 0,-5 0,4.2"/>
<path class="Note" transform="matrix(1.06583,0,0,1.06583,538.086,363.022)" d="M0,4.2 C0,8.5 3.1,13.3 11.2,13.3 C21.6,13.3 32.5,4.8 32.5,-4 C32.5,-9.9 27.5,-13.2 21.3,-13.2 C11.6,-13.2 0,-5 0,4.2"/>
<path class="Note" transform="matrix(1.06583,0,0,1.06583,611.192,376.345)" d="M0,4.2 C0,8.5 3.1,13.3 11.2,13.3 C21.6,13.3 32.5,4.8 32.5,-4 C32.5,-9.9 27.5,-13.2 21.3,-13.2 C11.6,-13.2 0,-5 0,4.2"/>
<path class="Note" transform="matrix(1.06583,0,0,1.06583,1151.1,920.631)" d="M0,4.2 C0,8.5 3.1,13.3 11.2,13.3 C21.6,13.3 32.5,4.8 32.5,-4 C32.5,-9.9 27.5,-13.2 21.3,-13.2 C11.6,-13.2 0,-5 0,4.2"/>
<path class="Note" transform="matrix(1.06583,0,0,1.06583,824.357,363.022)" d="M0,4.2 C0,8.5 3.1,13.3 11.2,13.3 C21.6,13.3 32.5,4.8 32.5,-4 C32.5,-9.9 27.5,-13.2 21.3,-13.2 C11.6,-13.2 0,-5 0,4.2"/>
<path class="Note" transform="matrix(0.746079,0,0,0.746079,2676.85,947.277)" d="M0,4.2 C0,8.5 3.1,13.3 11.2,13.3 C21.6,13.3 32.5,4.8 32.5,-4 C32.5,-9.9 27.5,-13.2 21.3,-13.2 C11.6,-13.2 0,-5 0,4.2"/>
<path class="Note" transform="matrix(1.06583,0,0,1.06583,462.852,1584.82)" d="M0,4.2 C0,8.5 3.1,13.3 11.2,13.3 C21.6,13.3 32.5,4.8 32.5,-4 C32.5,-9.9 27.5,-13.2 21.3,-13.2 C11.6,-13.2 0,-5 0,4.2"/>
<path class="Note" transform="matrix(1.06583,0,0,1.06583,511.897,1571.5)" d="M0,4.2 C0,8.5 3.1,13.3 11.2,13.3 C21.6,13.3 32.5,4.8 32.5,-4 C32.5,-9.9 27.5,-13.2 21.3,-13.2 C11.6,-13.2 0,-5 0,4.2"/>
<path class="Note" transform="matrix(1.06583,0,0,1.06583,1283.32,947.277)" d="M0,4.2 C0,8.5 3.1,13.3 11.2,13.3 C21.6,13.3 32.5,4.8 32.5,-4 C32.5,-9.9 27.5,-13.2 21.3,-13.2 C11.6,-13.2 0,-5 0,4.2"/>
<path class="Note" transform="matrix(1.06583,0,0,1.06583,560.942,1558.18)" d="M0,4.2 C0,8.5 3.1,13.3 11.2,13.3 C21.6,13.3 32.5,4.8 32.5,-4 C32.5,-9.9 27.5,-13.2 21.3,-13.2 C11.6,-13.2 0,-5 0,4.2"/>
<path class="Note" transform="matrix(1.06583,0,0,1.06583,2539.44,960.6)" d="M0,4.2 C0,8.5 3.1,13.3 11.2,13.3 C21.6,13.3 32.5,4.8 32.5,-4 C32.5,-9.9 27.5,-13.2 21.3,-13.2 C11.6,-13.2 0,-5 0,4.2"/>
<path class="Note" transform="matrix(1.06583,0,0,1.06583,1070.83,336.376)" d="M0,4.2 C0,8.5 3.1,13.3 11.2,13.3 C21.6,13.3 32.5,4.8 32.5,-4 C32.5,-9.9 27.5,-13.2 21.3,-13.2 C11.6,-13.2 0,-5 0,4.2"/>
<path class="Note" transform="matrix(1.06583,0,0,1.06583,605.758,1571.5)" d="M0,4.2 C0,8.5 3.1,13.3 11.2,13.3 C21.6,13.3 32.5,4.8 32.5,-4 C32.5,-9.9 27.5,-13.2 21.3,-13.2 C11.6,-13.2 0,-5 0,4.2"/>
<path class="Note" transform="matrix(1.06583,0,0,1.06583,1180.49,349.699)" d="M0,4.2 C0,8.5 3.1,13.3 11.2,13.3 C21.6,13.3 32.5,4.8 32.5,-4 C32.5,-9.9 27.5,-13.2 21.3,-13.2 C11.6,-13.2 0,-5 0,4.2"/>
<path class="Note" transform="matrix(1.06583,0,0,1.06583,1253.59,363.022)" d="M0,4.2 C0,8.5 3.1,13.3 11.2,13.3 C21.6,13.3 32.5,4.8 32.5,-4 C32.5,-9.9 27.5,-13.2 21.3,-13.2 C11.6,-13.2 0,-5 0,4.2"/>
<path class="Note" transform="matrix(1.06583,0,0,1.06583,2326.28,960.6)" d="M0,4.2 C0,8.5 3.1,13.3 11.2,13.3 C21.6,13.3 32.5,4.8 32.5,-4 C32.5,-9.9 27.5,-13.2 21.3,-13.2 C11.6,-13.2 0,-5 0,4.2"/>
<path class="Note" transform="matrix(1.06583,0,0,1.06583,2686.43,296.408)" d="M0,4.2 C0,8.5 3.1,13.3 11.2,13.3 C21.6,13.3 32.5,4.8 32.5,-4 C32.5,-9.9 27.5,-13.2 21.3,-13.2 C11.6,-13.2 0,-5 0,4.2"/>
<path class="Note" transform="matrix(1.06583,0,0,1.06583,1371.46,933.954)" d="M0,4.2 C0,8.5 3.1,13.3 11.2,13.3 C21.6,13.3 32.5,4.8 32.5,-4 C32.5,-9.9 27.5,-13.2 21.3,-13.2 C11.6,-13.2 0,-5 0,4.2"/>
<path class="Note" transform="matrix(1.06583,0,0,1.06583,650.575,1584.82)" d="M0,4.2 C0,8.5 3.1,13.3 11.2,13.3 C21.6,13.3 32.5,4.8 32.5,-4 C32.5,-9.9 27.5,-13.2 21.3,-13.2 C11.6,-13.2 0,-5 0,4.2"/>
<path class="Note" transform="matrix(1.06583,0,0,1.06583,892.636,920.631)" d="M0,4.2 C0,8.5 3.1,13.3 11.2,13.3 C21.6,13.3 32.5,4.8 32.5,-4 C32.5,-9.9 27.5,-13.2 21.3,-13.2 C11.6,-13.2 0,-5 0,4.2"/>
<path class="Note" transform="matrix(1.06583,0,0,1.06583,695.391,1598.15)" d="M0,4.2 C0,8.5 3.1,13.3 11.2,13.3 C21.6,13.3 32.5,4.8 32.5,-4 C32.5,-9.9 27.5,-13.2 21.3,-13.2 C11.6,-13.2 0,-5 0,4.2"/>
<path class="Note" transform="matrix(1.06583,0,0,1.06583,1378.62,349.699)" d="M0,4.2 C0,8.5 3.1,13.3 11.2,13.3 C21.6,13.3 32.5,4.8 32.5,-4 C32.5,-9.9 27.5,-13.2 21.3,-13.2 C11.6,-13.2 0,-5 0,4.2"/>
<path class="Note" transform="matrix(1.06583,0,0,1.06583,1503.68,907.309)" d="M0,4.2 C0,8.5 3.1,13.3 11.2,13.3 C21.6,13.3 32.5,4.8 32.5,-4 C32.5,-9.9 27.5,-13.2 21.3,-13.2 C11.6,-13.2 0,-5 0,4.2"/>
<path class="Note" transform="matrix(1.06583,0,0,1.06583,740.207,1611.47)" d="M0,4.2 C0,8.5 3.1,13.3 11.2,13.3 C21.6,13.3 32.5,4.8 32.5,-4 C32.5,-9.9 27.5,-13.2 21.3,-13.2 C11.6,-13.2 0,-5 0,4.2"/>
<path class="Note" transform="matrix(1.06583,0,0,1.06583,2576.77,283.085)" d="M0,4.2 C0,8.5 3.1,13.3 11.2,13.3 C21.6,13.3 32.5,4.8 32.5,-4 C32.5,-9.9 27.5,-13.2 21.3,-13.2 C11.6,-13.2 0,-5 0,4.2"/>
<path class="Note" transform="matrix(1.06583,0,0,1.06583,1500.07,376.345)" d="M0,4.2 C0,8.5 3.1,13.3 11.2,13.3 C21.6,13.3 32.5,4.8 32.5,-4 C32.5,-9.9 27.5,-13.2 21.3,-13.2 C11.6,-13.2 0,-5 0,4.2"/>
<path class="Note" transform="matrix(1.06583,0,0,1.06583,546.024,933.954)" d="M0,4.2 C0,8.5 3.1,13.3 11.2,13.3 C21.6,13.3 32.5,4.8 32.5,-4 C32.5,-9.9 27.5,-13.2 21.3,-13.2 C11.6,-13.2 0,-5 0,4.2"/>
<path class="Note" transform="matrix(1.06583,0,0,1.06583,2238.13,973.923)" d="M0,4.2 C0,8.5 3.1,13.3 11.2,13.3 C21.6,13.3 32.5,4.8 32.5,-4 C32.5,-9.9 27.5,-13.2 21.3,-13.2 C11.6,-13.2 0,-5 0,4.2"/>
<path class="Note" transform="matrix(1.06583,0,0,1.06583,785.023,1624.79)" d="M0,4.2 C0,8.5 3.1,13.3 11.2,13.3 C21.6,13.3 32.5,4.8 32.5,-4 C32.5,-9.9 27.5,-13.2 21.3,-13.2 C11.6,-13.2 0,-5 0,4.2"/>
<path class="Note" transform="matrix(1.06583,0,0,1.06583,2330.3,363.022)" d="M0,4.2 C0,8.5 3.1,13.3 11.2,13.3 C21.6,13.3 32.5,4.8 32.5,-4 C32.5,-9.9 27.5,-13.2 21.3,-13.2 C11.6,-13.2 0,-5 0,4.2"/>
<path class="Note" transform="matrix(1.06583,0,0,1.06583,2245.03,349.699)" d="M0,4.2 C0,8.5 3.1,13.3 11.2,13.3 C21.6,13.3 32.5,4.8 32.5,-4 C32.5,-9.9 27.5,-13.2 21.3,-13.2 C11.6,-13.2 0,-5 0,4.2"/>
<path class="Note" transform="matrix(1.06583,0,0,1.06583,1591.83,920.631)" d="M0,4.2 C0,8.5 3.1,13.3 11.2,13.3 C21.6,13.3 32.5,4.8 32.5,-4 C32.5,-9.9 27.5,-13.2 21.3,-13.2 C11.6,-13.2 0,-5 0,4.2"/>
<path class="Note" transform="matrix(1.06583,0,0,1.06583,829.839,1638.11)" d="M0,4.2 C0,8.5 3.1,13.3 11.2,13.3 C21.6,13.3 32.5,4.8 32.5,-4 C32.5,-9.9 27.5,-13.2 21.3,-13.2 C11.6,-13.2 0,-5 0,4.2"/>
<path class="Note" transform="matrix(1.06583,0,0,1.06583,874.656,1638.11)" d="M0,4.2 C0,8.5 3.1,13.3 11.2,13.3 C21.6,13.3 32.5,4.8 32.5,-4 C32.5,-9.9 27.5,-13.2 21.3,-13.2 C11.6,-13.2 0,-5 0,4.2"/>
<path class="Note" transform="matrix(1.06583,0,0,1.06583,2088.29,960.6)" d="M0,4.2 C0,8.5 3.1,13.3 11.2,13.3 C21.6,13.3 32.5,4.8 32.5,-4 C32.5,-9.9 27.5,-13.2 21.3,-13.2 C11.6,-13.2 0,-5 0,4.2"/>
<path class="Note" transform="matrix(1.06583,0,0,1.06583,1721.2,323.054)" d="M0,4.2 C0,8.5 3.1,13.3 11.2,13.3 C21.6,13.3 32.5,4.8 32.5,-4 C32.5,-9.9 27.5,-13.2 21.3,-13.2 C11.6,-13.2 0,-5 0,4.2"/>
<path class="Note" transform="matrix(0.746079,0,0,0.746079,1685.17,947.277)" d="M0,4.2 C0,8.5 3.1,13.3 11.2,13.3 C21.6,13.3 32.5,4.8 32.5,-4 C32.5,-9.9 27.5,-13.2 21.3,-13.2 C11.6,-13.2 0,-5 0,4.2"/>
<path class="Note" transform="matrix(1.06583,0,0,1.06583,766.387,947.277)" d="M0,4.2 C0,8.5 3.1,13.3 11.2,13.3 C21.6,13.3 32.5,4.8 32.5,-4 C32.5,-9.9 27.5,-13.2 21.3,-13.2 C11.6,-13.2 0,-5 0,4.2"/>
<path class="Note" transform="matrix(1.06583,0,0,1.06583,1741.67,933.954)" d="M0,4.2 C0,8.5 3.1,13.3 11.2,13.3 C21.6,13.3 32.5,4.8 32.5,-4 C32.5,-9.9 27.5,-13.2 21.3,-13.2 C11.6,-13.2 0,-5 0,4.2"/>
<path class="Note" transform="matrix(1.06583,0,0,1.06583,936.829,1624.79)" d="M0,4.2 C0,8.5 3.1,13.3 11.2,13.3 C21.6,13.3 32.5,4.8 32.5,-4 C32.5,-9.9 27.5,-13.2 21.3,-13.2 C11.6,-13.2 0,-5 0,4.2"/>
<path class="Note" transform="matrix(1.06583,0,0,1.06583,2117.13,349.699)" d="M0,4.2 C0,8.5 3.1,13.3 11.2,13.3 C21.6,13.3 32.5,4.8 32.5,-4 C32.5,-9.9 27.5,-13.2 21.3,-13.2 C11.6,-13.2 0,-5 0,4.2"/>
<path class="Note" transform="matrix(1.06583,0,0,1.06583,1830.86,323.054)" d="M0,4.2 C0,8.5 3.1,13.3 11.2,13.3 C21.6,13.3 32.5,4.8 32.5,-4 C32.5,-9.9 27.5,-13.2 21.3,-13.2 C11.6,-13.2 0,-5 0,4.2"/>
<path class="Note" transform="matrix(1.06583,0,0,1.06583,413.806,947.277)" d="M0,4.2 C0,8.5 3.1,13.3 11.2,13.3 C21.6,13.3 32.5,4.8 32.5,-4 C32.5,-9.9 27.5,-13.2 21.3,-13.2 C11.6,-13.2 0,-5 0,4.2"/>
<path class="Note" transform="matrix(1.06583,0,0,1.06583,413.806,336.376)" d="M0,4.2 C0,8.5 3.1,13.3 11.2,13.3 C21.6,13.3 32.5,4.8 32.5,-4 C32.5,-9.9 27.5,-13.2 21.3,-13.2 C11.6,-13.2 0,-5 0,4.2"/>
<path class="Note" transform="matrix(1.06583,0,0,1.06583,2031.87,336.376)" d="M0,4.2 C0,8.5 3.1,13.3 11.2,13.3 C21.6,13.3 32.5,4.8 32.5,-4 C32.5,-9.9 27.5,-13.2 21.3,-13.2 C11.6,-13.2 0,-5 0,4.2"/>
<path class="Note" transform="matrix(1.06583,0,0,1.06583,634.169,960.6)" d="M0,4.2 C0,8.5 3.1,13.3 11.2,13.3 C21.6,13.3 32.5,4.8 32.5,-4 C32.5,-9.9 27.5,-13.2 21.3,-13.2 C11.6,-13.2 0,-5 0,4.2"/>
<path class="Note" transform="matrix(1.06583,0,0,1.06583,1049.52,1638.11)" d="M0,4.2 C0,8.5 3.1,13.3 11.2,13.3 C21.6,13.3 32.5,4.8 32.5,-4 C32.5,-9.9 27.5,-13.2 21.3,-13.2 C11.6,-13.2 0,-5 0,4.2"/>
<path class="Note" transform="matrix(1.06583,0,0,1.06583,413.806,1558.18)" d="M0,4.2 C0,8.5 3.1,13.3 11.2,13.3 C21.6,13.3 32.5,4.8 32.5,-4 C32.5,-9.9 27.5,-13.2 21.3,-13.2 C11.6,-13.2 0,-5 0,4.2"/>
<path class="Note" transform="matrix(1.06583,0,0,1.06583,1500.07,616.156)" d="M0,4.2 C0,8.5 3.1,13.3 11.2,13.3 C21.6,13.3 32.5,4.8 32.5,-4 C32.5,-9.9 27.5,-13.2 21.3,-13.2 C11.6,-13.2 0,-5 0,4.2"/>
<path class="Note" transform="matrix(1.06583,0,0,1.06583,1049.52,1917.89)" d="M0,4.2 C0,8.5 3.1,13.3 11.2,13.3 C21.6,13.3 32.5,4.8 32.5,-4 C32.5,-9.9 27.5,-13.2 21.3,-13.2 C11.6,-13.2 0,-5 0,4.2"/>
<path class="Note" transform="matrix(1.06583,0,0,1.06583,413.806,1931.22)" d="M0,4.2 C0,8.5 3.1,13.3 11.2,13.3 C21.6,13.3 32.5,4.8 32.5,-4 C32.5,-9.9 27.5,-13.2 21.3,-13.2 C11.6,-13.2 0,-5 0,4.2"/>
<path class="Note" transform="matrix(1.06583,0,0,1.06583,1903.97,642.802)" d="M0,4.2 C0,8.5 3.1,13.3 11.2,13.3 C21.6,13.3 32.5,4.8 32.5,-4 C32.5,-9.9 27.5,-13.2 21.3,-13.2 C11.6,-13.2 0,-5 0,4.2"/>
<path class="Note" transform="matrix(1.06583,0,0,1.06583,1830.86,629.479)" d="M0,4.2 C0,8.5 3.1,13.3 11.2,13.3 C21.6,13.3 32.5,4.8 32.5,-4 C32.5,-9.9 27.5,-13.2 21.3,-13.2 C11.6,-13.2 0,-5 0,4.2"/>
<path class="Note" transform="matrix(1.06583,0,0,1.06583,1962.04,1240.38)" d="M0,4.2 C0,8.5 3.1,13.3 11.2,13.3 C21.6,13.3 32.5,4.8 32.5,-4 C32.5,-9.9 27.5,-13.2 21.3,-13.2 C11.6,-13.2 0,-5 0,4.2"/>
<path class="Note" transform="matrix(1.06583,0,0,1.06583,2031.87,642.802)" d="M0,4.2 C0,8.5 3.1,13.3 11.2,13.3 C21.6,13.3 32.5,4.8 32.5,-4 C32.5,-9.9 27.5,-13.2 21.3,-13.2 C11.6,-13.2 0,-5 0,4.2"/>
<path class="Note" transform="matrix(1.06583,0,0,1.06583,1741.67,1240.38)" d="M0,4.2 C0,8.5 3.1,13.3 11.2,13.3 C21.6,13.3 32.5,4.8 32.5,-4 C32.5,-9.9 27.5,-13.2 21.3,-13.2 C11.6,-13.2 0,-5 0,4.2"/>
<path class="Note" transform="matrix(1.06583,0,0,1.06583,2117.13,656.124)" d="M0,4.2 C0,8.5 3.1,13.3 11.2,13.3 C21.6,13.3 32.5,4.8 32.5,-4 C32.5,-9.9 27.5,-13.2 21.3,-13.2 C11.6,-13.2 0,-5 0,4.2"/>
<path class="Note" transform="matrix(1.06583,0,0,1.06583,1721.2,629.479)" d="M0,4.2 C0,8.5 3.1,13.3 11.2,13.3 C21.6,13.3 32.5,4.8 32.5,-4 C32.5,-9.9 27.5,-13.2 21.3,-13.2 C11.6,-13.2 0,-5 0,4.2"/>
<path class="Note" transform="matrix(1.06583,0,0,1.06583,413.806,642.802)" d="M0,4.2 C0,8.5 3.1,13.3 11.2,13.3 C21.6,13.3 32.5,4.8 32.5,-4 C32.5,-9.9 27.5,-13.2 21.3,-13.2 C11.6,-13.2 0,-5 0,4.2"/>
<path class="Note" transform="matrix(1.06583,0,0,1.06583,1591.83,1253.7)" d="M0,4.2 C0,8.5 3.1,13.3 11.2,13.3 C21.6,13.3 32.5,4.8 32.5,-4 C32.5,-9.9 27.5,-13.2 21.3,-13.2 C11.6,-13.2 0,-5 0,4.2"/>
<path class="Note" transform="matrix(1.06583,0,0,1.06583,1609.73,616.156)" d="M0,4.2 C0,8.5 3.1,13.3 11.2,13.3 C21.6,13.3 32.5,4.8 32.5,-4 C32.5,-9.9 27.5,-13.2 21.3,-13.2 C11.6,-13.2 0,-5 0,4.2"/>
<path class="Note" transform="matrix(1.06583,0,0,1.06583,2088.29,1253.7)" d="M0,4.2 C0,8.5 3.1,13.3 11.2,13.3 C21.6,13.3 32.5,4.8 32.5,-4 C32.5,-9.9 27.5,-13.2 21.3,-13.2 C11.6,-13.2 0,-5 0,4.2"/>
<path class="Note" transform="matrix(1.06583,0,0,1.06583,892.636,1293.67)" d="M0,4.2 C0,8.5 3.1,13.3 11.2,13.3 C21.6,13.3 32.5,4.8 32.5,-4 C32.5,-9.9 27.5,-13.2 21.3,-13.2 C11.6,-13.2 0,-5 0,4.2"/>
<path class="Note" transform="matrix(1.06583,0,0,1.06583,634.169,1240.38)" d="M0,4.2 C0,8.5 3.1,13.3 11.2,13.3 C21.6,13.3 32.5,4.8 32.5,-4 C32.5,-9.9 27.5,-13.2 21.3,-13.2 C11.6,-13.2 0,-5 0,4.2"/>
<path class="Note" transform="matrix(0.746079,0,0,0.746079,2181.62,1267.03)" d="M0,4.2 C0,8.5 3.1,13.3 11.2,13.3 C21.6,13.3 32.5,4.8 32.5,-4 C32.5,-9.9 27.5,-13.2 21.3,-13.2 C11.6,-13.2 0,-5 0,4.2"/>
<path class="Note" transform="matrix(1.06583,0,0,1.06583,2330.3,642.802)" d="M0,4.2 C0,8.5 3.1,13.3 11.2,13.3 C21.6,13.3 32.5,4.8 32.5,-4 C32.5,-9.9 27.5,-13.2 21.3,-13.2 C11.6,-13.2 0,-5 0,4.2"/>
<path class="Note" transform="matrix(1.06583,0,0,1.06583,1829.82,1227.06)" d="M0,4.2 C0,8.5 3.1,13.3 11.2,13.3 C21.6,13.3 32.5,4.8 32.5,-4 C32.5,-9.9 27.5,-13.2 21.3,-13.2 C11.6,-13.2 0,-5 0,4.2"/>
<path class="Note" transform="matrix(1.06583,0,0,1.06583,611.192,629.479)" d="M0,4.2 C0,8.5 3.1,13.3 11.2,13.3 C21.6,13.3 32.5,4.8 32.5,-4 C32.5,-9.9 27.5,-13.2 21.3,-13.2 C11.6,-13.2 0,-5 0,4.2"/>
<path class="Note" transform="matrix(1.06583,0,0,1.06583,413.806,1253.7)" d="M0,4.2 C0,8.5 3.1,13.3 11.2,13.3 C21.6,13.3 32.5,4.8 32.5,-4 C32.5,-9.9 27.5,-13.2 21.3,-13.2 C11.6,-13.2 0,-5 0,4.2"/>
<path class="Note" transform="matrix(1.06583,0,0,1.06583,824.357,642.802)" d="M0,4.2 C0,8.5 3.1,13.3 11.2,13.3 C21.6,13.3 32.5,4.8 32.5,-4 C32.5,-9.9 27.5,-13.2 21.3,-13.2 C11.6,-13.2 0,-5 0,4.2"/>
<path class="Note" transform="matrix(1.06583,0,0,1.06583,1503.68,1280.35)" d="M0,4.2 C0,8.5 3.1,13.3 11.2,13.3 C21.6,13.3 32.5,4.8 32.5,-4 C32.5,-9.9 27.5,-13.2 21.3,-13.2 C11.6,-13.2 0,-5 0,4.2"/>
<path class="Note" transform="matrix(1.06583,0,0,1.06583,1151.1,1253.7)" d="M0,4.2 C0,8.5 3.1,13.3 11.2,13.3 C21.6,13.3 32.5,4.8 32.5,-4 C32.5,-9.9 27.5,-13.2 21.3,-13.2 C11.6,-13.2 0,-5 0,4.2"/>
<path class="Note" transform="matrix(1.06583,0,0,1.06583,2576.77,656.124)" d="M0,4.2 C0,8.5 3.1,13.3 11.2,13.3 C21.6,13.3 32.5,4.8 32.5,-4 C32.5,-9.9 27.5,-13.2 21.3,-13.2 C11.6,-13.2 0,-5 0,4.2"/>
<path class="Note" transform="matrix(1.06583,0,0,1.06583,1371.46,1267.03)" d="M0,4.2 C0,8.5 3.1,13.3 11.2,13.3 C21.6,13.3 32.5,4.8 32.5,-4 C32.5,-9.9 27.5,-13.2 21.3,-13.2 C11.6,-13.2 0,-5 0,4.2"/>
<path class="Note" transform="matrix(1.06583,0,0,1.06583,1253.59,602.833)" d="M0,4.2 C0,8.5 3.1,13.3 11.2,13.3 C21.6,13.3 32.5,4.8 32.5,-4 C32.5,-9.9 27.5,-13.2 21.3,-13.2 C11.6,-13.2 0,-5 0,4.2"/>
<path class="Note" transform="matrix(1.06583,0,0,1.06583,2539.44,1293.67)" d="M0,4.2 C0,8.5 3.1,13.3 11.2,13.3 C21.6,13.3 32.5,4.8 32.5,-4 C32.5,-9.9 27.5,-13.2 21.3,-13.2 C11.6,-13.2 0,-5 0,4.2"/>
<path class="Note" transform="matrix(1.06583,0,0,1.06583,1283.32,1253.7)" d="M0,4.2 C0,8.5 3.1,13.3 11.2,13.3 C21.6,13.3 32.5,4.8 32.5,-4 C32.5,-9.9 27.5,-13.2 21.3,-13.2 C11.6,-13.2 0,-5 0,4.2"/>
<path class="Note" transform="matrix(1.06583,0,0,1.06583,1070.83,616.156)" d="M0,4.2 C0,8.5 3.1,13.3 11.2,13.3 C21.6,13.3 32.5,4.8 32.5,-4 C32.5,-9.9 27.5,-13.2 21.3,-13.2 C11.6,-13.2 0,-5 0,4.2"/>
<path class="Note" transform="matrix(1.06583,0,0,1.06583,2326.28,1293.67)" d="M0,4.2 C0,8.5 3.1,13.3 11.2,13.3 C21.6,13.3 32.5,4.8 32.5,-4 C32.5,-9.9 27.5,-13.2 21.3,-13.2 C11.6,-13.2 0,-5 0,4.2"/>
<path class="Note" transform="matrix(1.06583,0,0,1.06583,2238.13,1280.35)" d="M0,4.2 C0,8.5 3.1,13.3 11.2,13.3 C21.6,13.3 32.5,4.8 32.5,-4 C32.5,-9.9 27.5,-13.2 21.3,-13.2 C11.6,-13.2 0,-5 0,4.2"/>
<path class="Note" transform="matrix(1.06583,0,0,1.06583,1024.85,1280.35)" d="M0,4.2 C0,8.5 3.1,13.3 11.2,13.3 C21.6,13.3 32.5,4.8 32.5,-4 C32.5,-9.9 27.5,-13.2 21.3,-13.2 C11.6,-13.2 0,-5 0,4.2"/>
<path class="Clef" transform="matrix(1.06583,0,0,1.06583,237.379,363.022)" d="M36.2,21.2 C21.9,21.2 9.7,11.2 9.7,-3.9 C9.7,-16.1 18.3,-27 27.1,-34.7 C28.8,-36.1 30.4,-37.5 31.9,-39 C32.8,-33.6 33.5,-29 34.2,-24.8 C25.1,-22.2 18.9,-12.5 18.9,-3.2 C18.9,3.9 24.4,13.5 32.4,13.5 C33.2,13.5 34.1,13.1 34.1,12.1 C34.1,11.3 33.2,10.7 31.9,9.9 C28,7.6 25.8,4.9 25.8,0.1 C25.8,-6 30.4,-10.9 36.2,-12.3 L42,20.5 C40,20.9 38.2,21.2 36.2,21.2 M33.2,-82.2 C34.2,-86.2 38.7,-96.7 43.9,-96.7 C45.4,-96.7 47.9,-91.9 47.9,-84.9 C47.9,-74.6 40.1,-66.8 33.2,-59.9 C32.6,-63.9 32.1,-67.9 32.1,-72 C32.1,-75.8 32.5,-79.1 33.2,-82.2 M46.2,19.3 C44.1,7.4 41.4,-8.5 40.7,-12.9 C50.8,-12.9 55.1,-5.9 56,-1.1 C56.1,-0.3 56.3,0.8 56.3,2 C56.3,9.2 53.3,16.4 46.2,19.3 M32.3,87.7 C30.1,87.7 28.6,86.3 28.6,84.2 C28.6,82.2 29.5,80.6 31.2,79.6 C31.6,79.8 31.7,79.8 32,80 C33.2,80.6 33.2,80.6 33.4,80.8 C35.3,81.9 36.1,82.9 36.1,84.3 C36.1,86.2 34.5,87.7 32.3,87.7 M36.1,75.7 C34.6,74.9 34.2,74.7 33.9,74.5 L33.7,74.4 C32.2,73.5 31.7,72.8 31.7,71.6 C31.7,69.8 33.1,68.5 35.1,68.5 C37,68.5 38.2,69.7 38.2,71.8 C38.2,73.4 37.6,74.5 36.1,75.7 M64,-0.2 C64,-15.3 53.3,-25.5 38.7,-25.5 C37.7,-31.5 36.8,-37.4 35.9,-43 C46.4,-54.1 53.8,-66.7 53.8,-82.5 C53.8,-91.6 51,-99 49.3,-102.6 C46.9,-107.7 44,-111.2 42.3,-111.2 C41.6,-111.2 38.4,-110 35.2,-106.1 C28.7,-98.5 26.9,-85.8 26.9,-77.4 C26.9,-72 27.4,-67.1 29.1,-55.8 C29,-55.8 23.8,-50.5 21.7,-48.7 C12.6,-40.3 0,-28.1 0,-8.2 C0,10.6 16.3,25.3 34.9,25.3 C37.8,25.3 40.5,25 42.9,24.6 C44.7,34.1 45.9,41.2 45.9,46.5 C45.9,56.9 40.5,62.4 30.4,62.4 C28,62.4 25.9,61.9 25.7,61.8 C25.6,61.8 25.4,61.7 25.4,61.6 C25.4,61.4 25.6,61.3 25.9,61.2 C30.6,60.5 35.3,56.4 35.3,50.1 C35.3,44.7 31.2,39 23.7,39 C16.7,39 12.3,44.7 12.3,51.3 C12.3,57.9 17.3,66.6 30.8,66.6 C43.7,66.6 50,59.3 50,46.5 C50,42.6 49.4,38.1 48.4,32.4 C48.1,30.4 47.6,27.3 46.9,23.5 C56.7,20.2 64,10.1 64,-0.2 M42.3,71.7 C42.3,68 38.9,66.4 35.6,66.4 C31.4,66.4 27.3,69 27.3,73.5 C27.3,75.4 28,76.8 29.4,78.2 C26.8,79.2 24.2,81.2 24.2,84.3 C24.2,87.6 27.2,89.8 31.6,89.8 C37,89.8 40.8,86.8 40.8,82.5 C40.8,80.2 39.8,78.3 38,77 C40.9,75.7 42.3,74.1 42.3,71.7"/>
<path class="Clef" transform="matrix(1.06583,0,0,1.06583,237.379,1638.11)" d="M36.2,21.2 C21.9,21.2 9.7,11.2 9.7,-3.9 C9.7,-16.1 18.3,-27 27.1,-34.7 C28.8,-36.1 30.4,-37.5 31.9,-39 C32.8,-33.6 33.5,-29 34.2,-24.8 C25.1,-22.2 18.9,-12.5 18.9,-3.2 C18.9,3.9 24.4,13.5 32.4,13.5 C33.2,13.5 34.1,13.1 34.1,12.1 C34.1,11.3 33.2,10.7 31.9,9.9 C28,7.6 25.8,4.9 25.8,0.1 C25.8,-6 30.4,-10.9 36.2,-12.3 L42,20.5 C40,20.9 38.2,21.2 36.2,21.2 M33.2,-82.2 C34.2,-86.2 38.7,-96.7 43.9,-96.7 C45.4,-96.7 47.9,-91.9 47.9,-84.9 C47.9,-74.6 40.1,-66.8 33.2,-59.9 C32.6,-63.9 32.1,-67.9 32.1,-72 C32.1,-75.8 32.5,-79.1 33.2,-82.2 M46.2,19.3 C44.1,7.4 41.4,-8.5 40.7,-12.9 C50.8,-12.9 55.1,-5.9 56,-1.1 C56.1,-0.3 56.3,0.8 56.3,2 C56.3,9.2 53.3,16.4 46.2,19.3 M32.3,87.7 C30.1,87.7 28.6,86.3 28.6,84.2 C28.6,82.2 29.5,80.6 31.2,79.6 C31.6,79.8 31.7,79.8 32,80 C33.2,80.6 33.2,80.6 33.4,80.8 C35.3,81.9 36.1,82.9 36.1,84.3 C36.1,86.2 34.5,87.7 32.3,87.7 M36.1,75.7 C34.6,74.9 34.2,74.7 33.9,74.5 L33.7,74.4 C32.2,73.5 31.7,72.8 31.7,71.6 C31.7,69.8 33.1,68.5 35.1,68.5 C37,68.5 38.2,69.7 38.2,71.8 C38.2,73.4 37.6,74.5 36.1,75.7 M64,-0.2 C64,-15.3 53.3,-25.5 38.7,-25.5 C37.7,-31.5 36.8,-37.4 35.9,-43 C46.4,-54.1 53.8,-66.7 53.8,-82.5 C53.8,-91.6 51,-99 49.3,-102.6 C46.9,-107.7 44,-111.2 42.3,-111.2 C41.6,-111.2 38.4,-110 35.2,-106.1 C28.7,-98.5 26.9,-85.8 26.9,-77.4 C26.9,-72 27.4,-67.1 29.1,-55.8 C29,-55.8 23.8,-50.5 21.7,-48.7 C12.6,-40.3 0,-28.1 0,-8.2 C0,10.6 16.3,25.3 34.9,25.3 C37.8,25.3 40.5,25 42.9,24.6 C44.7,34.1 45.9,41.2 45.9,46.5 C45.9,56.9 40.5,62.4 30.4,62.4 C28,62.4 25.9,61.9 25.7,61.8 C25.6,61.8 25.4,61.7 25.4,61.6 C25.4,61.4 25.6,61.3 25.9,61.2 C30.6,60.5 35.3,56.4 35.3,50.1 C35.3,44.7 31.2,39 23.7,39 C16.7,39 12.3,44.7 12.3,51.3 C12.3,57.9 17.3,66.6 30.8,66.6 C43.7,66.6 50,59.3 50,46.5 C50,42.6 49.4,38.1 48.4,32.4 C48.1,30.4 47.6,27.3 46.9,23.5 C56.7,20.2 64,10.1 64,-0.2 M42.3,71.7 C42.3,68 38.9,66.4 35.6,66.4 C31.4,66.4 27.3,69 27.3,73.5 C27.3,75.4 28,76.8 29.4,78.2 C26.8,79.2 24.2,81.2 24.2,84.3 C24.2,87.6 27.2,89.8 31.6,89.8 C37,89.8 40.8,86.8 40.8,82.5 C40.8,80.2 39.8,78.3 38,77 C40.9,75.7 42.3,74.1 42.3,71.7"/>
<path class="Clef" transform="matrix(1.06583,0,0,1.06583,237.379,1000.57)" d="M36.2,21.2 C21.9,21.2 9.7,11.2 9.7,-3.9 C9.7,-16.1 18.3,-27 27.1,-34.7 C28.8,-36.1 30.4,-37.5 31.9,-39 C32.8,-33.6 33.5,-29 34.2,-24.8 C25.1,-22.2 18.9,-12.5 18.9,-3.2 C18.9,3.9 24.4,13.5 32.4,13.5 C33.2,13.5 34.1,13.1 34.1,12.1 C34.1,11.3 33.2,10.7 31.9,9.9 C28,7.6 25.8,4.9 25.8,0.1 C25.8,-6 30.4,-10.9 36.2,-12.3 L42,20.5 C40,20.9 38.2,21.2 36.2,21.2 M33.2,-82.2 C34.2,-86.2 38.7,-96.7 43.9,-96.7 C45.4,-96.7 47.9,-91.9 47.9,-84.9 C47.9,-74.6 40.1,-66.8 33.2,-59.9 C32.6,-63.9 32.1,-67.9 32.1,-72 C32.1,-75.8 32.5,-79.1 33.2,-82.2 M46.2,19.3 C44.1,7.4 41.4,-8.5 40.7,-12.9 C50.8,-12.9 55.1,-5.9 56,-1.1 C56.1,-0.3 56.3,0.8 56.3,2 C56.3,9.2 53.3,16.4 46.2,19.3 M32.3,87.7 C30.1,87.7 28.6,86.3 28.6,84.2 C28.6,82.2 29.5,80.6 31.2,79.6 C31.6,79.8 31.7,79.8 32,80 C33.2,80.6 33.2,80.6 33.4,80.8 C35.3,81.9 36.1,82.9 36.1,84.3 C36.1,86.2 34.5,87.7 32.3,87.7 M36.1,75.7 C34.6,74.9 34.2,74.7 33.9,74.5 L33.7,74.4 C32.2,73.5 31.7,72.8 31.7,71.6 C31.7,69.8 33.1,68.5 35.1,68.5 C37,68.5 38.2,69.7 38.2,71.8 C38.2,73.4 37.6,74.5 36.1,75.7 M64,-0.2 C64,-15.3 53.3,-25.5 38.7,-25.5 C37.7,-31.5 36.8,-37.4 35.9,-43 C46.4,-54.1 53.8,-66.7 53.8,-82.5 C53.8,-91.6 51,-99 49.3,-102.6 C46.9,-107.7 44,-111.2 42.3,-111.2 C41.6,-111.2 38.4,-110 35.2,-106.1 C28.7,-98.5 26.9,-85.8 26.9,-77.4 C26.9,-72 27.4,-67.1 29.1,-55.8 C29,-55.8 23.8,-50.5 21.7,-48.7 C12.6,-40.3 0,-28.1 0,-8.2 C0,10.6 16.3,25.3 34.9,25.3 C37.8,25.3 40.5,25 42.9,24.6 C44.7,34.1 45.9,41.2 45.9,46.5 C45.9,56.9 40.5,62.4 30.4,62.4 C28,62.4 25.9,61.9 25.7,61.8 C25.6,61.8 25.4,61.7 25.4,61.6 C25.4,61.4 25.6,61.3 25.9,61.2 C30.6,60.5 35.3,56.4 35.3,50.1 C35.3,44.7 31.2,39 23.7,39 C16.7,39 12.3,44.7 12.3,51.3 C12.3,57.9 17.3,66.6 30.8,66.6 C43.7,66.6 50,59.3 50,46.5 C50,42.6 49.4,38.1 48.4,32.4 C48.1,30.4 47.6,27.3 46.9,23.5 C56.7,20.2 64,10.1 64,-0.2 M42.3,71.7 C42.3,68 38.9,66.4 35.6,66.4 C31.4,66.4 27.3,69 27.3,73.5 C27.3,75.4 28,76.8 29.4,78.2 C26.8,79.2 24.2,81.2 24.2,84.3 C24.2,87.6 27.2,89.8 31.6,89.8 C37,89.8 40.8,86.8 40.8,82.5 C40.8,80.2 39.8,78.3 38,77 C40.9,75.7 42.3,74.1 42.3,71.7"/>
<path class="Clef" transform="matrix(1.06583,0,0,1.06583,237.379,1280.35)" d="M36.2,21.2 C21.9,21.2 9.7,11.2 9.7,-3.9 C9.7,-16.1 18.3,-27 27.1,-34.7 C28.8,-36.1 30.4,-37.5 31.9,-39 C32.8,-33.6 33.5,-29 34.2,-24.8 C25.1,-22.2 18.9,-12.5 18.9,-3.2 C18.9,3.9 24.4,13.5 32.4,13.5 C33.2,13.5 34.1,13.1 34.1,12.1 C34.1,11.3 33.2,10.7 31.9,9.9 C28,7.6 25.8,4.9 25.8,0.1 C25.8,-6 30.4,-10.9 36.2,-12.3 L42,20.5 C40,20.9 38.2,21.2 36.2,21.2 M33.2,-82.2 C34.2,-86.2 38.7,-96.7 43.9,-96.7 C45.4,-96.7 47.9,-91.9 47.9,-84.9 C47.9,-74.6 40.1,-66.8 33.2,-59.9 C32.6,-63.9 32.1,-67.9 32.1,-72 C32.1,-75.8 32.5,-79.1 33.2,-82.2 M46.2,19.3 C44.1,7.4 41.4,-8.5 40.7,-12.9 C50.8,-12.9 55.1,-5.9 56,-1.1 C56.1,-0.3 56.3,0.8 56.3,2 C56.3,9.2 53.3,16.4 46.2,19.3 M32.3,87.7 C30.1,87.7 28.6,86.3 28.6,84.2 C28.6,82.2 29.5,80.6 31.2,79.6 C31.6,79.8 31.7,79.8 32,80 C33.2,80.6 33.2,80.6 33.4,80.8 C35.3,81.9 36.1,82.9 36.1,84.3 C36.1,86.2 34.5,87.7 32.3,87.7 M36.1,75.7 C34.6,74.9 34.2,74.7 33.9,74.5 L33.7,74.4 C32.2,73.5 31.7,72.8 31.7,71.6 C31.7,69.8 33.1,68.5 35.1,68.5 C37,68.5 38.2,69.7 38.2,71.8 C38.2,73.4 37.6,74.5 36.1,75.7 M64,-0.2 C64,-15.3 53.3,-25.5 38.7,-25.5 C37.7,-31.5 36.8,-37.4 35.9,-43 C46.4,-54.1 53.8,-66.7 53.8,-82.5 C53.8,-91.6 51,-99 49.3,-102.6 C46.9,-107.7 44,-111.2 42.3,-111.2 C41.6,-111.2 38.4,-110 35.2,-106.1 C28.7,-98.5 26.9,-85.8 26.9,-77.4 C26.9,-72 27.4,-67.1 29.1,-55.8 C29,-55.8 23.8,-50.5 21.7,-48.7 C12.6,-40.3 0,-28.1 0,-8.2 C0,10.6 16.3,25.3 34.9,25.3 C37.8,25.3 40.5,25 42.9,24.6 C44.7,34.1 45.9,41.2 45.9,46.5 C45.9,56.9 40.5,62.4 30.4,62.4 C28,62.4 25.9,61.9 25.7,61.8 C25.6,61.8 25.4,61.7 25.4,61.6 C25.4,61.4 25.6,61.3 25.9,61.2 C30.6,60.5 35.3,56.4 35.3,50.1 C35.3,44.7 31.2,39 23.7,39 C16.7,39 12.3,44.7 12.3,51.3 C12.3,57.9 17.3,66.6 30.8,66.6 C43.7,66.6 50,59.3 50,46.5 C50,42.6 49.4,38.1 48.4,32.4 C48.1,30.4 47.6,27.3 46.9,23.5 C56.7,20.2 64,10.1 64,-0.2 M42.3,71.7 C42.3,68 38.9,66.4 35.6,66.4 C31.4,66.4 27.3,69 27.3,73.5 C27.3,75.4 28,76.8 29.4,78.2 C26.8,79.2 24.2,81.2 24.2,84.3 C24.2,87.6 27.2,89.8 31.6,89.8 C37,89.8 40.8,86.8 40.8,82.5 C40.8,80.2 39.8,78.3 38,77 C40.9,75.7 42.3,74.1 42.3,71.7"/>
<path class="Clef" transform="matrix(1.06583,0,0,1.06583,237.379,1917.89)" d="M36.2,21.2 C21.9,21.2 9.7,11.2 9.7,-3.9 C9.7,-16.1 18.3,-27 27.1,-34.7 C28.8,-36.1 30.4,-37.5 31.9,-39 C32.8,-33.6 33.5,-29 34.2,-24.8 C25.1,-22.2 18.9,-12.5 18.9,-3.2 C18.9,3.9 24.4,13.5 32.4,13.5 C33.2,13.5 34.1,13.1 34.1,12.1 C34.1,11.3 33.2,10.7 31.9,9.9 C28,7.6 25.8,4.9 25.8,0.1 C25.8,-6 30.4,-10.9 36.2,-12.3 L42,20.5 C40,20.9 38.2,21.2 36.2,21.2 M33.2,-82.2 C34.2,-86.2 38.7,-96.7 43.9,-96.7 C45.4,-96.7 47.9,-91.9 47.9,-84.9 C47.9,-74.6 40.1,-66.8 33.2,-59.9 C32.6,-63.9 32.1,-67.9 32.1,-72 C32.1,-75.8 32.5,-79.1 33.2,-82.2 M46.2,19.3 C44.1,7.4 41.4,-8.5 40.7,-12.9 C50.8,-12.9 55.1,-5.9 56,-1.1 C56.1,-0.3 56.3,0.8 56.3,2 C56.3,9.2 53.3,16.4 46.2,19.3 M32.3,87.7 C30.1,87.7 28.6,86.3 28.6,84.2 C28.6,82.2 29.5,80.6 31.2,79.6 C31.6,79.8 31.7,79.8 32,80 C33.2,80.6 33.2,80.6 33.4,80.8 C35.3,81.9 36.1,82.9 36.1,84.3 C36.1,86.2 34.5,87.7 32.3,87.7 M36.1,75.7 C34.6,74.9 34.2,74.7 33.9,74.5 L33.7,74.4 C32.2,73.5 31.7,72.8 31.7,71.6 C31.7,69.8 33.1,68.5 35.1,68.5 C37,68.5 38.2,69.7 38.2,71.8 C38.2,73.4 37.6,74.5 36.1,75.7 M64,-0.2 C64,-15.3 53.3,-25.5 38.7,-25.5 C37.7,-31.5 36.8,-37.4 35.9,-43 C46.4,-54.1 53.8,-66.7 53.8,-82.5 C53.8,-91.6 51,-99 49.3,-102.6 C46.9,-107.7 44,-111.2 42.3,-111.2 C41.6,-111.2 38.4,-110 35.2,-106.1 C28.7,-98.5 26.9,-85.8 26.9,-77.4 C26.9,-72 27.4,-67.1 29.1,-55.8 C29,-55.8 23.8,-50.5 21.7,-48.7 C12.6,-40.3 0,-28.1 0,-8.2 C0,10.6 16.3,25.3 34.9,25.3 C37.8,25.3 40.5,25 42.9,24.6 C44.7,34.1 45.9,41.2 45.9,46.5 C45.9,56.9 40.5,62.4 30.4,62.4 C28,62.4 25.9,61.9 25.7,61.8 C25.6,61.8 25.4,61.7 25.4,61.6 C25.4,61.4 25.6,61.3 25.9,61.2 C30.6,60.5 35.3,56.4 35.3,50.1 C35.3,44.7 31.2,39 23.7,39 C16.7,39 12.3,44.7 12.3,51.3 C12.3,57.9 17.3,66.6 30.8,66.6 C43.7,66.6 50,59.3 50,46.5 C50,42.6 49.4,38.1 48.4,32.4 C48.1,30.4 47.6,27.3 46.9,23.5 C56.7,20.2 64,10.1 64,-0.2 M42.3,71.7 C42.3,68 38.9,66.4 35.6,66.4 C31.4,66.4 27.3,69 27.3,73.5 C27.3,75.4 28,76.8 29.4,78.2 C26.8,79.2 24.2,81.2 24.2,84.3 C24.2,87.6 27.2,89.8 31.6,89.8 C37,89.8 40.8,86.8 40.8,82.5 C40.8,80.2 39.8,78.3 38,77 C40.9,75.7 42.3,74.1 42.3,71.7"/>
<path class="Clef" transform="matrix(1.06583,0,0,1.06583,237.379,642.802)" d="M36.2,21.2 C21.9,21.2 9.7,11.2 9.7,-3.9 C9.7,-16.1 18.3,-27 27.1,-34.7 C28.8,-36.1 30.4,-37.5 31.9,-39 C32.8,-33.6 33.5,-29 34.2,-24.8 C25.1,-22.2 18.9,-12.5 18.9,-3.2 C18.9,3.9 24.4,13.5 32.4,13.5 C33.2,13.5 34.1,13.1 34.1,12.1 C34.1,11.3 33.2,10.7 31.9,9.9 C28,7.6 25.8,4.9 25.8,0.1 C25.8,-6 30.4,-10.9 36.2,-12.3 L42,20.5 C40,20.9 38.2,21.2 36.2,21.2 M33.2,-82.2 C34.2,-86.2 38.7,-96.7 43.9,-96.7 C45.4,-96.7 47.9,-91.9 47.9,-84.9 C47.9,-74.6 40.1,-66.8 33.2,-59.9 C32.6,-63.9 32.1,-67.9 32.1,-72 C32.1,-75.8 32.5,-79.1 33.2,-82.2 M46.2,19.3 C44.1,7.4 41.4,-8.5 40.7,-12.9 C50.8,-12.9 55.1,-5.9 56,-1.1 C56.1,-0.3 56.3,0.8 56.3,2 C56.3,9.2 53.3,16.4 46.2,19.3 M32.3,87.7 C30.1,87.7 28.6,86.3 28.6,84.2 C28.6,82.2 29.5,80.6 31.2,79.6 C31.6,79.8 31.7,79.8 32,80 C33.2,80.6 33.2,80.6 33.4,80.8 C35.3,81.9 36.1,82.9 36.1,84.3 C36.1,86.2 34.5,87.7 32.3,87.7 M36.1,75.7 C34.6,74.9 34.2,74.7 33.9,74.5 L33.7,74.4 C32.2,73.5 31.7,72.8 31.7,71.6 C31.7,69.8 33.1,68.5 35.1,68.5 C37,68.5 38.2,69.7 38.2,71.8 C38.2,73.4 37.6,74.5 36.1,75.7 M64,-0.2 C64,-15.3 53.3,-25.5 38.7,-25.5 C37.7,-31.5 36.8,-37.4 35.9,-43 C46.4,-54.1 53.8,-66.7 53.8,-82.5 C53.8,-91.6 51,-99 49.3,-102.6 C46.9,-107.7 44,-111.2 42.3,-111.2 C41.6,-111.2 38.4,-110 35.2,-106.1 C28.7,-98.5 26.9,-85.8 26.9,-77.4 C26.9,-72 27.4,-67.1 29.1,-55.8 C29,-55.8 23.8,-50.5 21.7,-48.7 C12.6,-40.3 0,-28.1 0,-8.2 C0,10.6 16.3,25.3 34.9,25.3 C37.8,25.3 40.5,25 42.9,24.6 C44.7,34.1 45.9,41.2 45.9,46.5 C45.9,56.9 40.5,62.4 30.4,62.4 C28,62.4 25.9,61.9 25.7,61.8 C25.6,61.8 25.4,61.7 25.4,61.6 C25.4,61.4 25.6,61.3 25.9,61.2 C30.6,60.5 35.3,56.4 35.3,50.1 C35.3,44.7 31.2,39 23.7,39 C16.7,39 12.3,44.7 12.3,51.3 C12.3,57.9 17.3,66.6 30.8,66.6 C43.7,66.6 50,59.3 50,46.5 C50,42.6 49.4,38.1 48.4,32.4 C48.1,30.4 47.6,27.3 46.9,23.5 C56.7,20.2 64,10.1 64,-0.2 M42.3,71.7 C42.3,68 38.9,66.4 35.6,66.4 C31.4,66.4 27.3,69 27.3,73.5 C27.3,75.4 28,76.8 29.4,78.2 C26.8,79.2 24.2,81.2 24.2,84.3 C24.2,87.6 27.2,89.8 31.6,89.8 C37,89.8 40.8,86.8 40.8,82.5 C40.8,80.2 39.8,78.3 38,77 C40.9,75.7 42.3,74.1 42.3,71.7"/>
<path class="KeySig" transform="matrix(1.06583,0,0,1.06583,325.559,973.923)" d="M13.2,-4 C13.2,3.9 9.1,8.1 3.3,12.7 L3.6,-6.8 C3.8,-7.7 5.3,-10.6 9.3,-10.6 C12.9,-10.6 13.2,-7.2 13.2,-5.1 L13.2,-4 M12,-15.5 C7,-15.5 4.1,-12.4 3.6,-11.8 L4,-43.9 C4,-44.7 3.4,-45.3 2.6,-45.3 L1.4,-45.3 C0.6,-45.3 0,-44.7 0,-43.9 L0.5,16.2 C0.5,17 1.1,17.6 1.9,17.6 C2.1,17.6 2.5,17.5 2.7,17.4 C11.3,13.1 20.3,4.9 20.3,-5.4 C20.3,-10.6 17.9,-15.5 12,-15.5"/>
<path class="KeySig" transform="matrix(1.06583,0,0,1.06583,325.559,1611.47)" d="M13.2,-4 C13.2,3.9 9.1,8.1 3.3,12.7 L3.6,-6.8 C3.8,-7.7 5.3,-10.6 9.3,-10.6 C12.9,-10.6 13.2,-7.2 13.2,-5.1 L13.2,-4 M12,-15.5 C7,-15.5 4.1,-12.4 3.6,-11.8 L4,-43.9 C4,-44.7 3.4,-45.3 2.6,-45.3 L1.4,-45.3 C0.6,-45.3 0,-44.7 0,-43.9 L0.5,16.2 C0.5,17 1.1,17.6 1.9,17.6 C2.1,17.6 2.5,17.5 2.7,17.4 C11.3,13.1 20.3,4.9 20.3,-5.4 C20.3,-10.6 17.9,-15.5 12,-15.5"/>
<path class="KeySig" transform="matrix(1.06583,0,0,1.06583,325.559,336.376)" d="M13.2,-4 C13.2,3.9 9.1,8.1 3.3,12.7 L3.6,-6.8 C3.8,-7.7 5.3,-10.6 9.3,-10.6 C12.9,-10.6 13.2,-7.2 13.2,-5.1 L13.2,-4 M12,-15.5 C7,-15.5 4.1,-12.4 3.6,-11.8 L4,-43.9 C4,-44.7 3.4,-45.3 2.6,-45.3 L1.4,-45.3 C0.6,-45.3 0,-44.7 0,-43.9 L0.5,16.2 C0.5,17 1.1,17.6 1.9,17.6 C2.1,17.6 2.5,17.5 2.7,17.4 C11.3,13.1 20.3,4.9 20.3,-5.4 C20.3,-10.6 17.9,-15.5 12,-15.5"/>
<path class="KeySig" transform="matrix(1.06583,0,0,1.06583,325.559,616.156)" d="M13.2,-4 C13.2,3.9 9.1,8.1 3.3,12.7 L3.6,-6.8 C3.8,-7.7 5.3,-10.6 9.3,-10.6 C12.9,-10.6 13.2,-7.2 13.2,-5.1 L13.2,-4 M12,-15.5 C7,-15.5 4.1,-12.4 3.6,-11.8 L4,-43.9 C4,-44.7 3.4,-45.3 2.6,-45.3 L1.4,-45.3 C0.6,-45.3 0,-44.7 0,-43.9 L0.5,16.2 C0.5,17 1.1,17.6 1.9,17.6 C2.1,17.6 2.5,17.5 2.7,17.4 C11.3,13.1 20.3,4.9 20.3,-5.4 C20.3,-10.6 17.9,-15.5 12,-15.5"/>
<path class="KeySig" transform="matrix(1.06583,0,0,1.06583,325.559,1891.25)" d="M13.2,-4 C13.2,3.9 9.1,8.1 3.3,12.7 L3.6,-6.8 C3.8,-7.7 5.3,-10.6 9.3,-10.6 C12.9,-10.6 13.2,-7.2 13.2,-5.1 L13.2,-4 M12,-15.5 C7,-15.5 4.1,-12.4 3.6,-11.8 L4,-43.9 C4,-44.7 3.4,-45.3 2.6,-45.3 L1.4,-45.3 C0.6,-45.3 0,-44.7 0,-43.9 L0.5,16.2 C0.5,17 1.1,17.6 1.9,17.6 C2.1,17.6 2.5,17.5 2.7,17.4 C11.3,13.1 20.3,4.9 20.3,-5.4 C20.3,-10.6 17.9,-15.5 12,-15.5"/>
<path class="KeySig" transform="matrix(1.06583,0,0,1.06583,325.559,1253.7)" d="M13.2,-4 C13.2,3.9 9.1,8.1 3.3,12.7 L3.6,-6.8 C3.8,-7.7 5.3,-10.6 9.3,-10.6 C12.9,-10.6 13.2,-7.2 13.2,-5.1 L13.2,-4 M12,-15.5 C7,-15.5 4.1,-12.4 3.6,-11.8 L4,-43.9 C4,-44.7 3.4,-45.3 2.6,-45.3 L1.4,-45.3 C0.6,-45.3 0,-44.7 0,-43.9 L0.5,16.2 C0.5,17 1.1,17.6 1.9,17.6 C2.1,17.6 2.5,17.5 2.7,17.4 C11.3,13.1 20.3,4.9 20.3,-5.4 C20.3,-10.6 17.9,-15.5 12,-15.5"/>
<path class="Rest" transform="matrix(1.06583,0,0,1.06583,949.379,336.376)" d="M26.7,-20.3 C26.6,-20.3 26.4,-20.4 26.3,-20.4 C25.7,-20.4 25.2,-20.1 25,-19.6 C24.6,-19 21.5,-13.1 17,-9.8 C15.7,-8.8 14.1,-8.1 12.5,-7.8 C13.6,-9.1 14.3,-10.7 14.3,-12.6 C14.3,-16.5 11.1,-19.7 7.2,-19.7 C3.2,-19.7 0,-16.5 0,-12.6 C0,-7.2 5.3,-4.7 10,-4.7 C15.3,-4.7 18.8,-7.2 22.2,-10.9 L10.8,24.7 L13.5,25.5 L27.5,-18.6 C27.6,-18.7 27.6,-18.9 27.6,-19.1 C27.6,-19.6 27.3,-20 26.7,-20.3"/>
<path class="Rest" transform="matrix(1.06583,0,0,1.06583,1962.04,973.923)" d="M26.7,-20.3 C26.6,-20.3 26.4,-20.4 26.3,-20.4 C25.7,-20.4 25.2,-20.1 25,-19.6 C24.6,-19 21.5,-13.1 17,-9.8 C15.7,-8.8 14.1,-8.1 12.5,-7.8 C13.6,-9.1 14.3,-10.7 14.3,-12.6 C14.3,-16.5 11.1,-19.7 7.2,-19.7 C3.2,-19.7 0,-16.5 0,-12.6 C0,-7.2 5.3,-4.7 10,-4.7 C15.3,-4.7 18.8,-7.2 22.2,-10.9 L10.8,24.7 L13.5,25.5 L27.5,-18.6 C27.6,-18.7 27.6,-18.9 27.6,-19.1 C27.6,-19.6 27.3,-20 26.7,-20.3"/>
<path class="Rest" transform="matrix(1.06583,0,0,1.06583,1609.73,336.376)" d="M26.7,-20.3 C26.6,-20.3 26.4,-20.4 26.3,-20.4 C25.7,-20.4 25.2,-20.1 25,-19.6 C24.6,-19 21.5,-13.1 17,-9.8 C15.7,-8.8 14.1,-8.1 12.5,-7.8 C13.6,-9.1 14.3,-10.7 14.3,-12.6 C14.3,-16.5 11.1,-19.7 7.2,-19.7 C3.2,-19.7 0,-16.5 0,-12.6 C0,-7.2 5.3,-4.7 10,-4.7 C15.3,-4.7 18.8,-7.2 22.2,-10.9 L10.8,24.7 L13.5,25.5 L27.5,-18.6 C27.6,-18.7 27.6,-18.9 27.6,-19.1 C27.6,-19.6 27.3,-20 26.7,-20.3"/>
<path class="Rest" transform="matrix(1.06583,0,0,1.06583,1024.85,973.923)" d="M26.7,-20.3 C26.6,-20.3 26.4,-20.4 26.3,-20.4 C25.7,-20.4 25.2,-20.1 25,-19.6 C24.6,-19 21.5,-13.1 17,-9.8 C15.7,-8.8 14.1,-8.1 12.5,-7.8 C13.6,-9.1 14.3,-10.7 14.3,-12.6 C14.3,-16.5 11.1,-19.7 7.2,-19.7 C3.2,-19.7 0,-16.5 0,-12.6 C0,-7.2 5.3,-4.7 10,-4.7 C15.3,-4.7 18.8,-7.2 22.2,-10.9 L10.8,24.7 L13.5,25.5 L27.5,-18.6 C27.6,-18.7 27.6,-18.9 27.6,-19.1 C27.6,-19.6 27.3,-20 26.7,-20.3"/>
<path class="Rest" transform="matrix(1.06583,0,0,1.06583,2455.32,336.376)" d="M26.7,-20.3 C26.6,-20.3 26.4,-20.4 26.3,-20.4 C25.7,-20.4 25.2,-20.1 25,-19.6 C24.6,-19 21.5,-13.1 17,-9.8 C15.7,-8.8 14.1,-8.1 12.5,-7.8 C13.6,-9.1 14.3,-10.7 14.3,-12.6 C14.3,-16.5 11.1,-19.7 7.2,-19.7 C3.2,-19.7 0,-16.5 0,-12.6 C0,-7.2 5.3,-4.7 10,-4.7 C15.3,-4.7 18.8,-7.2 22.2,-10.9 L10.8,24.7 L13.5,25.5 L27.5,-18.6 C27.6,-18.7 27.6,-18.9 27.6,-19.1 C27.6,-19.6 27.3,-20 26.7,-20.3"/>
<path class="Rest" transform="matrix(1.06583,0,0,1.06583,2671.66,1253.7)" d="M26.7,-20.3 C26.6,-20.3 26.4,-20.4 26.3,-20.4 C25.7,-20.4 25.2,-20.1 25,-19.6 C24.6,-19 21.5,-13.1 17,-9.8 C15.7,-8.8 14.1,-8.1 12.5,-7.8 C13.6,-9.1 14.3,-10.7 14.3,-12.6 C14.3,-16.5 11.1,-19.7 7.2,-19.7 C3.2,-19.7 0,-16.5 0,-12.6 C0,-7.2 5.3,-4.7 10,-4.7 C15.3,-4.7 18.8,-7.2 22.2,-10.9 L10.8,24.7 L13.5,25.5 L27.5,-18.6 C27.6,-18.7 27.6,-18.9 27.6,-19.1 C27.6,-19.6 27.3,-20 26.7,-20.3"/>
<path class="Rest" transform="matrix(1.06583,0,0,1.06583,1378.62,616.156)" d="M26.7,-20.3 C26.6,-20.3 26.4,-20.4 26.3,-20.4 C25.7,-20.4 25.2,-20.1 25,-19.6 C24.6,-19 21.5,-13.1 17,-9.8 C15.7,-8.8 14.1,-8.1 12.5,-7.8 C13.6,-9.1 14.3,-10.7 14.3,-12.6 C14.3,-16.5 11.1,-19.7 7.2,-19.7 C3.2,-19.7 0,-16.5 0,-12.6 C0,-7.2 5.3,-4.7 10,-4.7 C15.3,-4.7 18.8,-7.2 22.2,-10.9 L10.8,24.7 L13.5,25.5 L27.5,-18.6 C27.6,-18.7 27.6,-18.9 27.6,-19.1 C27.6,-19.6 27.3,-20 26.7,-20.3"/>
<path class="Rest" transform="matrix(1.06583,0,0,1.06583,2686.43,616.156)" d="M26.7,-20.3 C26.6,-20.3 26.4,-20.4 26.3,-20.4 C25.7,-20.4 25.2,-20.1 25,-19.6 C24.6,-19 21.5,-13.1 17,-9.8 C15.7,-8.8 14.1,-8.1 12.5,-7.8 C13.6,-9.1 14.3,-10.7 14.3,-12.6 C14.3,-16.5 11.1,-19.7 7.2,-19.7 C3.2,-19.7 0,-16.5 0,-12.6 C0,-7.2 5.3,-4.7 10,-4.7 C15.3,-4.7 18.8,-7.2 22.2,-10.9 L10.8,24.7 L13.5,25.5 L27.5,-18.6 C27.6,-18.7 27.6,-18.9 27.6,-19.1 C27.6,-19.6 27.3,-20 26.7,-20.3"/>
<path class="Rest" transform="matrix(1.06583,0,0,1.06583,766.387,1253.7)" d="M26.7,-20.3 C26.6,-20.3 26.4,-20.4 26.3,-20.4 C25.7,-20.4 25.2,-20.1 25,-19.6 C24.6,-19 21.5,-13.1 17,-9.8 C15.7,-8.8 14.1,-8.1 12.5,-7.8 C13.6,-9.1 14.3,-10.7 14.3,-12.6 C14.3,-16.5 11.1,-19.7 7.2,-19.7 C3.2,-19.7 0,-16.5 0,-12.6 C0,-7.2 5.3,-4.7 10,-4.7 C15.3,-4.7 18.8,-7.2 22.2,-10.9 L10.8,24.7 L13.5,25.5 L27.5,-18.6 C27.6,-18.7 27.6,-18.9 27.6,-19.1 C27.6,-19.6 27.3,-20 26.7,-20.3"/>
<path class="Rest" transform="matrix(1.06583,0,0,1.06583,949.379,616.156)" d="M26.7,-20.3 C26.6,-20.3 26.4,-20.4 26.3,-20.4 C25.7,-20.4 25.2,-20.1 25,-19.6 C24.6,-19 21.5,-13.1 17,-9.8 C15.7,-8.8 14.1,-8.1 12.5,-7.8 C13.6,-9.1 14.3,-10.7 14.3,-12.6 C14.3,-16.5 11.1,-19.7 7.2,-19.7 C3.2,-19.7 0,-16.5 0,-12.6 C0,-7.2 5.3,-4.7 10,-4.7 C15.3,-4.7 18.8,-7.2 22.2,-10.9 L10.8,24.7 L13.5,25.5 L27.5,-18.6 C27.6,-18.7 27.6,-18.9 27.6,-19.1 C27.6,-19.6 27.3,-20 26.7,-20.3"/>
<path class="Beam" fill-rule="evenodd" d="M445.781,256.43 L572.726,263.092 L572.726,276.433 L445.781,269.771 L445.781,256.43 "/>
<path class="Beam" fill-rule="evenodd" d="M1591.83,1013.89 L1744.34,1013.89 L1744.34,1027.21 L1591.83,1027.21 L1591.83,1013.89 "/>
<path class="Beam" fill-rule="evenodd" d="M2120.26,1173.76 L2272.77,1180.42 L2272.77,1193.76 L2120.26,1187.09 L2120.26,1173.76 "/>
<path class="Lyrics" d="M1032.61,2028.29 L1032.61,1988.17 L1040.08,1988.17 L1040.08,1986.21 L1027.84,1986.21 L1027.84,2030.2 L1040.08,2030.2 L1040.08,2028.29 L1032.61,2028.29 M1052.48,1999.78 L1043.1,2000.36 L1043.1,2002.64 L1045.27,2002.64 C1047.28,2002.69 1047.55,2003.01 1047.55,2005.29 L1047.55,2020.45 C1047.5,2021.24 1047.44,2021.56 1047.23,2021.83 C1046.86,2022.3 1045.8,2022.52 1043.52,2022.57 L1043.31,2022.57 L1043.31,2024.48 L1057.46,2024.48 L1057.46,2022.57 L1056.51,2022.57 C1052.95,2022.46 1052.48,2022.2 1052.48,2020.29 L1052.48,2017.43 C1052.53,2008.52 1055.71,2001.74 1059.84,2001.53 C1059.1,2002.38 1058.89,2002.91 1058.89,2003.91 C1058.89,2005.61 1060.11,2006.83 1061.81,2006.83 C1063.77,2006.83 1065.04,2005.4 1065.04,2003.28 C1065.04,2000.68 1063.24,1998.98 1060.43,1998.98 C1057.09,1998.98 1054.23,2001.63 1052.48,2006.35 L1052.48,1999.78 M1089.85,2012.55 C1089.9,2004.6 1085.39,1998.98 1078.93,1998.98 C1072.14,1998.98 1067.06,2004.87 1067.06,2012.82 C1067.06,2020.29 1071.88,2025.27 1079.03,2025.27 C1084.12,2025.27 1087.67,2022.78 1089.85,2017.75 L1087.99,2016.74 C1085.82,2020.82 1083.59,2022.41 1080.04,2022.41 C1077.34,2022.41 1075.38,2021.3 1074,2018.91 C1073.05,2017.32 1072.62,2015.47 1072.67,2012.55 L1089.85,2012.55 M1072.73,2010.27 C1072.73,2006.56 1074.42,2001.26 1078.88,2001.26 C1082.06,2001.26 1084.18,2004.07 1084.18,2008.36 C1084.18,2009.85 1083.7,2010.27 1082,2010.27 L1072.73,2010.27 M1098.54,2018.59 C1096.69,2018.59 1095.2,2020.08 1095.2,2021.88 C1095.2,2023.73 1096.69,2025.22 1098.49,2025.22 C1100.34,2025.22 1101.83,2023.73 1101.83,2021.88 C1101.83,2020.08 1100.34,2018.59 1098.54,2018.59 M1115.33,1988.12 L1115.33,2028.24 L1107.91,2028.24 L1107.91,2030.2 L1120.1,2030.2 L1120.1,1986.21 L1107.91,1986.21 L1107.91,1988.12 L1115.33,1988.12 "/>
<polyline class="TextLineSegment" fill="none" stroke="#000000" stroke-width="3.75" stroke-linejoin="miter" stroke-miterlimit="2" points="1151.1,888.14 1151.1,861.495 1477.04,861.495 1477.04,888.14" />
<polyline class="TextLineSegment" fill="none" stroke="#000000" stroke-width="3.75" stroke-linejoin="miter" stroke-miterlimit="2" points="2088.29,900.514 2088.29,873.868 2512.8,873.868 2512.8,900.514" />
<polyline class="TextLineSegment" fill="none" stroke="#000000" stroke-width="3.75" stroke-linejoin="miter" stroke-miterlimit="2" points="2576.77,250.594 2576.77,223.948 2753.14,223.948" />
<polyline class="TextLineSegment" fill="none" stroke="#000000" stroke-width="3.75" stroke-linejoin="miter" stroke-miterlimit="2" points="2245.03,262.968 2245.03,236.322 2428.68,236.322 2428.68,262.968" />
<polyline class="TextLineSegment" fill="none" stroke="#000000" stroke-width="3.75" stroke-linejoin="miter" stroke-miterlimit="2" points="1741.67,900.514 1741.67,873.868 1935.39,873.868 1935.39,900.514" />
<polyline class="TextLineSegment" fill="none" stroke="#000000" stroke-width="3.75" stroke-linejoin="miter" stroke-miterlimit="2" points="1503.68,874.817 1503.68,848.172 1715.03,848.172 1715.03,874.817" />
<polyline class="TextLineSegment" fill="none" stroke="#000000" stroke-width="3.75" stroke-linejoin="miter" stroke-miterlimit="2" points="874.656,1538.06 874.656,1511.41 984.774,1511.41 984.774,1538.06" />
<polyline class="TextLineSegment" fill="none" stroke="#000000" stroke-width="3.75" stroke-linejoin="miter" stroke-miterlimit="2" points="766.387,900.514 766.387,873.868 998.208,873.868 998.208,900.514" />
<polyline class="TextLineSegment" fill="none" stroke="#000000" stroke-width="3.75" stroke-linejoin="miter" stroke-miterlimit="2" points="546.024,900.514 546.024,873.868 739.741,873.868 739.741,900.514" />
<polyline class="TextLineSegment" fill="none" stroke="#000000" stroke-width="3.75" stroke-linejoin="miter" stroke-miterlimit="2" points="373.838,873.868 519.379,873.868 519.379,900.514" />
<polyline class="TextLineSegment" fill="none" stroke="#000000" stroke-width="3.75" stroke-linejoin="miter" stroke-miterlimit="2" points="1378.62,262.968 1378.62,236.322 1583.08,236.322 1583.08,262.968" />
<polyline class="TextLineSegment" fill="none" stroke="#000000" stroke-width="3.75" stroke-linejoin="miter" stroke-miterlimit="2" points="560.942,1525.69 560.942,1499.04 848.01,1499.04 848.01,1525.69" />
<polyline class="TextLineSegment" fill="none" stroke="#000000" stroke-width="3.75" stroke-linejoin="miter" stroke-miterlimit="2" points="1070.83,262.968 1070.83,236.322 1351.97,236.322 1351.97,262.968" />
<polyline class="TextLineSegment" fill="none" stroke="#000000" stroke-width="3.75" stroke-linejoin="miter" stroke-miterlimit="2" points="1830.86,262.968 1830.86,236.322 2005.22,236.322 2005.22,262.968" />
<polyline class="TextLineSegment" fill="none" stroke="#000000" stroke-width="3.75" stroke-linejoin="miter" stroke-miterlimit="2" points="413.806,1525.69 413.806,1499.04 534.296,1499.04 534.296,1525.69" />
<polyline class="TextLineSegment" fill="none" stroke="#000000" stroke-width="3.75" stroke-linejoin="miter" stroke-miterlimit="2" points="538.086,241.118 538.086,214.472 797.712,214.472 797.712,241.118" />
<polyline class="TextLineSegment" fill="none" stroke="#000000" stroke-width="3.75" stroke-linejoin="miter" stroke-miterlimit="2" points="2031.87,262.968 2031.87,236.322 2218.39,236.322 2218.39,262.968" />
<polyline class="TextLineSegment" fill="none" stroke="#000000" stroke-width="3.75" stroke-linejoin="miter" stroke-miterlimit="2" points="373.838,214.472 511.441,214.472 511.441,241.118" />
<polyline class="TextLineSegment" fill="none" stroke="#000000" stroke-width="3.75" stroke-linejoin="miter" stroke-miterlimit="2" points="892.636,1180.29 892.636,1153.65 1256.67,1153.65 1256.67,1180.29" />
<polyline class="TextLineSegment" fill="none" stroke="#000000" stroke-width="3.75" stroke-linejoin="miter" stroke-miterlimit="2" points="2031.87,542.747 2031.87,516.101 2218.39,516.101 2218.39,542.747" />
<polyline class="TextLineSegment" fill="none" stroke="#000000" stroke-width="3.75" stroke-linejoin="miter" stroke-miterlimit="2" points="1830.86,542.747 1830.86,516.101 2005.22,516.101 2005.22,542.747" />
<polyline class="TextLineSegment" fill="none" stroke="#000000" stroke-width="3.75" stroke-linejoin="miter" stroke-miterlimit="2" points="1609.73,542.747 1609.73,516.101 1804.22,516.101 1804.22,542.747" />
<polyline class="TextLineSegment" fill="none" stroke="#000000" stroke-width="3.75" stroke-linejoin="miter" stroke-miterlimit="2" points="2238.13,1159.11 2238.13,1132.46 2512.8,1132.46 2512.8,1159.11" />
<polyline class="TextLineSegment" fill="none" stroke="#000000" stroke-width="3.75" stroke-linejoin="miter" stroke-miterlimit="2" points="1962.04,1157.78 1962.04,1131.13 2211.49,1131.13 2211.49,1157.78" />
<polyline class="TextLineSegment" fill="none" stroke="#000000" stroke-width="3.75" stroke-linejoin="miter" stroke-miterlimit="2" points="1741.67,1180.29 1741.67,1153.65 1935.39,1153.65 1935.39,1180.29" />
<polyline class="TextLineSegment" fill="none" stroke="#000000" stroke-width="3.75" stroke-linejoin="miter" stroke-miterlimit="2" points="1503.68,1180.29 1503.68,1153.65 1715.03,1153.65 1715.03,1180.29" />
<polyline class="TextLineSegment" fill="none" stroke="#000000" stroke-width="3.75" stroke-linejoin="miter" stroke-miterlimit="2" points="1283.32,1180.29 1283.32,1153.65 1477.04,1153.65 1477.04,1180.29" />
<polyline class="TextLineSegment" fill="none" stroke="#000000" stroke-width="3.75" stroke-linejoin="miter" stroke-miterlimit="2" points="373.838,516.101 584.546,516.101 584.546,542.747" />
<polyline class="LyricsLineSegment" fill="none" stroke="#000000" stroke-width="2.66" stroke-linejoin="bevel" points="529.006,2012.13 544.994,2012.13" />
<polyline class="LyricsLineSegment" fill="none" stroke="#000000" stroke-width="2.66" stroke-linejoin="bevel" points="855.331,2012.13 871.318,2012.13" />
<polyline class="LyricsLineSegment" fill="none" stroke="#000000" stroke-width="2.66" stroke-linejoin="bevel" points="564.12,1374.58 580.107,1374.58" />
<polyline class="LyricsLineSegment" fill="none" stroke="#000000" stroke-width="2.66" stroke-linejoin="bevel" points="960.671,1374.58 976.658,1374.58" />
<polyline class="LyricsLineSegment" fill="none" stroke="#000000" stroke-width="2.66" stroke-linejoin="bevel" points="1357.22,1374.58 1373.21,1374.58" />
<polyline class="LyricsLineSegment" fill="none" stroke="#000000" stroke-width="2.66" stroke-linejoin="bevel" points="1753.77,1374.58 1769.76,1374.58" />
<polyline class="LyricsLineSegment" fill="none" stroke="#000000" stroke-width="2.66" stroke-linejoin="bevel" points="2150.32,1374.58 2166.31,1374.58" />
<polyline class="LyricsLineSegment" fill="none" stroke="#000000" stroke-width="2.66" stroke-linejoin="bevel" points="2546.88,1374.58 2562.86,1374.58" />
<polyline class="LyricsLineSegment" fill="none" stroke="#000000" stroke-width="2.66" stroke-linejoin="bevel" points="564.12,737.035 580.107,737.035" />
<polyline class="LyricsLineSegment" fill="none" stroke="#000000" stroke-width="2.66" stroke-linejoin="bevel" points="960.671,737.035 976.658,737.035" />
<polyline class="LyricsLineSegment" fill="none" stroke="#000000" stroke-width="2.66" stroke-linejoin="bevel" points="1357.22,737.035 1373.21,737.035" />
<polyline class="LyricsLineSegment" fill="none" stroke="#000000" stroke-width="2.66" stroke-linejoin="bevel" points="1753.77,737.035 1769.76,737.035" />
<polyline class="LyricsLineSegment" fill="none" stroke="#000000" stroke-width="2.66" stroke-linejoin="bevel" points="2150.32,737.035 2166.31,737.035" />
<polyline class="LyricsLineSegment" fill="none" stroke="#000000" stroke-width="2.66" stroke-linejoin="bevel" points="2546.88,737.035 2562.86,737.035" />
<path class="NoteDot" transform="matrix(1.06583,0,0,1.06583,659.138,376.345)" d="M0,0 C0,2.8 2.2,5 5,5 C7.8,5 10,2.8 10,0 C10,-2.8 7.8,-5 5,-5 C2.2,-5 0,-2.8 0,0"/>
<path class="NoteDot" transform="matrix(1.06583,0,0,1.06583,2374.22,960.6)" d="M0,0 C0,2.8 2.2,5 5,5 C7.8,5 10,2.8 10,0 C10,-2.8 7.8,-5 5,-5 C2.2,-5 0,-2.8 0,0"/>
<path class="NoteDot" transform="matrix(1.06583,0,0,1.06583,659.138,629.479)" d="M0,0 C0,2.8 2.2,5 5,5 C7.8,5 10,2.8 10,0 C10,-2.8 7.8,-5 5,-5 C2.2,-5 0,-2.8 0,0"/>
<path class="NoteDot" transform="matrix(1.06583,0,0,1.06583,1118.78,602.833)" d="M0,0 C0,2.8 2.2,5 5,5 C7.8,5 10,2.8 10,0 C10,-2.8 7.8,-5 5,-5 C2.2,-5 0,-2.8 0,0"/>
<path class="NoteDot" transform="matrix(1.06583,0,0,1.06583,2374.22,1293.67)" d="M0,0 C0,2.8 2.2,5 5,5 C7.8,5 10,2.8 10,0 C10,-2.8 7.8,-5 5,-5 C2.2,-5 0,-2.8 0,0"/>
<path class="NoteDot" transform="matrix(1.06583,0,0,1.06583,461.752,629.479)" d="M0,0 C0,2.8 2.2,5 5,5 C7.8,5 10,2.8 10,0 C10,-2.8 7.8,-5 5,-5 C2.2,-5 0,-2.8 0,0"/>
<path class="NoteDot" transform="matrix(1.06583,0,0,1.06583,2378.25,629.479)" d="M0,0 C0,2.8 2.2,5 5,5 C7.8,5 10,2.8 10,0 C10,-2.8 7.8,-5 5,-5 C2.2,-5 0,-2.8 0,0"/>
<path class="NoteDot" transform="matrix(1.06583,0,0,1.06583,2165.08,656.124)" d="M0,0 C0,2.8 2.2,5 5,5 C7.8,5 10,2.8 10,0 C10,-2.8 7.8,-5 5,-5 C2.2,-5 0,-2.8 0,0"/>
<path class="NoteDot" transform="matrix(1.06583,0,0,1.06583,461.752,1240.38)" d="M0,0 C0,2.8 2.2,5 5,5 C7.8,5 10,2.8 10,0 C10,-2.8 7.8,-5 5,-5 C2.2,-5 0,-2.8 0,0"/>
<polyline class="Bracket" fill="none" stroke="#000000" stroke-width="11.99" stroke-linejoin="bevel" points="194.613,901.313 194.613,1326.31" />
<path class="Bracket" transform="matrix(1.06583,0,0,1.06583,188.617,907.309)" d="M48.4,-27.7 C48.2,-27.8 47.9,-27.9 47.7,-27.9 C47.3,-27.9 46.8,-27.8 46.6,-27.4 C46.4,-27.1 36.4,-11.7 17.3,-11.7 L1.4,-11.7 C0.6,-11.7 0,-11.2 0,-10.4 L0,0 L12.2,0 C43,0 48.9,-25.7 49,-26 C49,-26.1 49.1,-26.3 49.1,-26.5 C49.1,-27 48.8,-27.4 48.4,-27.7"/>
<path class="Bracket" transform="matrix(1.06583,0,0,1.06583,188.617,1320.32)" d="M48.4,27.7 C48.8,27.4 49.1,27 49.1,26.5 C49.1,26.3 49,26.1 49,26 C48.9,25.7 43,0 12.2,0 L0,0 L0,10.4 C0,11.2 0.6,11.7 1.4,11.7 L17.3,11.7 C36.4,11.7 46.4,27.1 46.6,27.4 C46.8,27.8 47.3,27.9 47.7,27.9 C47.9,27.9 48.2,27.8 48.4,27.7"/>
<polyline class="Bracket" fill="none" stroke="#000000" stroke-width="2.93" stroke-linejoin="bevel" points="173.829,283.085 173.829,669.447" />
<polyline class="Bracket" fill="none" stroke="#000000" stroke-width="2.93" stroke-linejoin="bevel" points="172.363,283.085 188.617,283.085" />
<polyline class="Bracket" fill="none" stroke="#000000" stroke-width="2.93" stroke-linejoin="bevel" points="172.363,669.447 188.617,669.447" />
<polyline class="Bracket" fill="none" stroke="#000000" stroke-width="11.99" stroke-linejoin="bevel" points="194.613,263.767 194.613,688.765" />
<path class="Bracket" transform="matrix(1.06583,0,0,1.06583,188.617,269.762)" d="M48.4,-27.7 C48.2,-27.8 47.9,-27.9 47.7,-27.9 C47.3,-27.9 46.8,-27.8 46.6,-27.4 C46.4,-27.1 36.4,-11.7 17.3,-11.7 L1.4,-11.7 C0.6,-11.7 0,-11.2 0,-10.4 L0,0 L12.2,0 C43,0 48.9,-25.7 49,-26 C49,-26.1 49.1,-26.3 49.1,-26.5 C49.1,-27 48.8,-27.4 48.4,-27.7"/>
<path class="Bracket" transform="matrix(1.06583,0,0,1.06583,188.617,682.77)" d="M48.4,27.7 C48.8,27.4 49.1,27 49.1,26.5 C49.1,26.3 49,26.1 49,26 C48.9,25.7 43,0 12.2,0 L0,0 L0,10.4 C0,11.2 0.6,11.7 1.4,11.7 L17.3,11.7 C36.4,11.7 46.4,27.1 46.6,27.4 C46.8,27.8 47.3,27.9 47.7,27.9 C47.9,27.9 48.2,27.8 48.4,27.7"/>
<polyline class="Bracket" fill="none" stroke="#000000" stroke-width="2.93" stroke-linejoin="bevel" points="173.829,920.631 173.829,1306.99" />
<polyline class="Bracket" fill="none" stroke="#000000" stroke-width="2.93" stroke-linejoin="bevel" points="172.363,920.631 188.617,920.631" />
<polyline class="Bracket" fill="none" stroke="#000000" stroke-width="2.93" stroke-linejoin="bevel" points="172.363,1306.99 188.617,1306.99" />
<polyline class="Bracket" fill="none" stroke="#000000" stroke-width="11.99" stroke-linejoin="bevel" points="194.613,1538.86 194.613,1963.86" />
<path class="Bracket" transform="matrix(1.06583,0,0,1.06583,188.617,1544.85)" d="M48.4,-27.7 C48.2,-27.8 47.9,-27.9 47.7,-27.9 C47.3,-27.9 46.8,-27.8 46.6,-27.4 C46.4,-27.1 36.4,-11.7 17.3,-11.7 L1.4,-11.7 C0.6,-11.7 0,-11.2 0,-10.4 L0,0 L12.2,0 C43,0 48.9,-25.7 49,-26 C49,-26.1 49.1,-26.3 49.1,-26.5 C49.1,-27 48.8,-27.4 48.4,-27.7"/>
<path class="Bracket" transform="matrix(1.06583,0,0,1.06583,188.617,1957.86)" d="M48.4,27.7 C48.8,27.4 49.1,27 49.1,26.5 C49.1,26.3 49,26.1 49,26 C48.9,25.7 43,0 12.2,0 L0,0 L0,10.4 C0,11.2 0.6,11.7 1.4,11.7 L17.3,11.7 C36.4,11.7 46.4,27.1 46.6,27.4 C46.8,27.8 47.3,27.9 47.7,27.9 C47.9,27.9 48.2,27.8 48.4,27.7"/>
<polyline class="Bracket" fill="none" stroke="#000000" stroke-width="2.93" stroke-linejoin="bevel" points="173.829,1558.18 173.829,1944.54" />
<polyline class="Bracket" fill="none" stroke="#000000" stroke-width="2.93" stroke-linejoin="bevel" points="172.363,1558.18 188.617,1558.18" />
<polyline class="Bracket" fill="none" stroke="#000000" stroke-width="2.93" stroke-linejoin="bevel" points="172.363,1944.54 188.617,1944.54" />
</svg>
