<?xml version="1.0" encoding="UTF-8" standalone="no"?>
<svg width="210.058mm" height="296.926mm" viewBox="0 0 2977.2 4208.4"
 xmlns="http://www.w3.org/2000/svg" xmlns:xlink="http://www.w3.org/1999/xlink" version="1.2" baseProfile="full">
<title>CB034_plut (5)</title>
<desc>Generated by MuseScore Studio 4.6.5</desc>
<polyline class="StaffLines" fill="none" stroke="#000000" stroke-width="2.93" stroke-linejoin="bevel" points="212.598,273.609 2764.6,273.609" />
<polyline class="StaffLines" fill="none" stroke="#000000" stroke-width="2.93" stroke-linejoin="bevel" points="212.598,300.255 2764.6,300.255" />
<polyline class="StaffLines" fill="none" stroke="#000000" stroke-width="2.93" stroke-linejoin="bevel" points="212.598,326.9 2764.6,326.9" />
<polyline class="StaffLines" fill="none" stroke="#000000" stroke-width="2.93" stroke-linejoin="bevel" points="212.598,353.546 2764.6,353.546" />
<polyline class="StaffLines" fill="none" stroke="#000000" stroke-width="2.93" stroke-linejoin="bevel" points="212.598,380.192 2764.6,380.192" />
<polyline class="StaffLines" fill="none" stroke="#000000" stroke-width="2.93" stroke-linejoin="bevel" points="212.598,553.389 2764.6,553.389" />
<polyline class="StaffLines" fill="none" stroke="#000000" stroke-width="2.93" stroke-linejoin="bevel" points="212.598,580.034 2764.6,580.034" />
<polyline class="StaffLines" fill="none" stroke="#000000" stroke-width="2.93" stroke-linejoin="bevel" points="212.598,606.68 2764.6,606.68" />
<polyline class="StaffLines" fill="none" stroke="#000000" stroke-width="2.93" stroke-linejoin="bevel" points="212.598,633.326 2764.6,633.326" />
<polyline class="StaffLines" fill="none" stroke="#000000" stroke-width="2.93" stroke-linejoin="bevel" points="212.598,659.971 2764.6,659.971" />
<polyline class="StaffLines" fill="none" stroke="#000000" stroke-width="2.93" stroke-linejoin="bevel" points="212.598,920.06 2764.6,920.06" />
<polyline class="StaffLines" fill="none" stroke="#000000" stroke-width="2.93" stroke-linejoin="bevel" points="212.598,946.706 2764.6,946.706" />
<polyline class="StaffLines" fill="none" stroke="#000000" stroke-width="2.93" stroke-linejoin="bevel" points="212.598,973.351 2764.6,973.351" />
<polyline class="StaffLines" fill="none" stroke="#000000" stroke-width="2.93" stroke-linejoin="bevel" points="212.598,999.997 2764.6,999.997" />
<polyline class="StaffLines" fill="none" stroke="#000000" stroke-width="2.93" stroke-linejoin="bevel" points="212.598,1026.64 2764.6,1026.64" />
<polyline class="StaffLines" fill="none" stroke="#000000" stroke-width="2.93" stroke-linejoin="bevel" points="212.598,1199.84 2764.6,1199.84" />
<polyline class="StaffLines" fill="none" stroke="#000000" stroke-width="2.93" stroke-linejoin="bevel" points="212.598,1226.49 2764.6,1226.49" />
<polyline class="StaffLines" fill="none" stroke="#000000" stroke-width="2.93" stroke-linejoin="bevel" points="212.598,1253.13 2764.6,1253.13" />
<polyline class="StaffLines" fill="none" stroke="#000000" stroke-width="2.93" stroke-linejoin="bevel" points="212.598,1279.78 2764.6,1279.78" />
<polyline class="StaffLines" fill="none" stroke="#000000" stroke-width="2.93" stroke-linejoin="bevel" points="212.598,1306.42 2764.6,1306.42" />
<polyline class="BarLine" fill="none" stroke="#000000" stroke-width="4.80" stroke-linejoin="bevel" points="599.092,298.789 599.092,355.012" />
<polyline class="BarLine" fill="none" stroke="#000000" stroke-width="4.80" stroke-linejoin="bevel" points="214.996,272.144 214.996,553.389" />
<polyline class="BarLine" fill="none" stroke="#000000" stroke-width="4.80" stroke-linejoin="bevel" points="2112.22,298.789 2112.22,355.012" />
<polyline class="BarLine" fill="none" stroke="#000000" stroke-width="4.80" stroke-linejoin="bevel" points="1447.54,945.24 1447.54,1001.46" />
<polyline class="BarLine" fill="none" stroke="#000000" stroke-width="4.80" stroke-linejoin="bevel" points="2096.7,945.24 2096.7,1001.46" />
<polyline class="BarLine" fill="none" stroke="#000000" stroke-width="4.80" stroke-linejoin="bevel" points="1249.07,298.789 1249.07,355.012" />
<polyline class="BarLine" fill="none" stroke="#000000" stroke-width="4.80" stroke-linejoin="bevel" points="2737.69,918.595 2737.69,1028.11" />
<polyline class="BarLine" fill="none" stroke="#000000" stroke-width="14.66" stroke-linejoin="bevel" points="2757.27,918.595 2757.27,1028.11" />
<polyline class="BarLine" fill="none" stroke="#000000" stroke-width="4.80" stroke-linejoin="bevel" points="214.996,918.595 214.996,1199.84" />
<polyline class="BarLine" fill="none" stroke="#000000" stroke-width="4.80" stroke-linejoin="bevel" points="2594.29,945.24 2594.29,1001.46" />
<polyline class="BarLine" fill="none" stroke="#000000" stroke-width="4.80" stroke-linejoin="bevel" points="594.874,945.24 594.874,1001.46" />
<polyline class="BarLine" fill="none" stroke="#000000" stroke-width="4.80" stroke-linejoin="bevel" points="599.092,578.569 599.092,634.791" />
<polyline class="BarLine" fill="none" stroke="#000000" stroke-width="4.80" stroke-linejoin="bevel" points="2096.7,1225.02 2096.7,1281.24" />
<polyline class="BarLine" fill="none" stroke="#000000" stroke-width="4.80" stroke-linejoin="bevel" points="1028.08,578.569 1028.08,634.791" />
<polyline class="BarLine" fill="none" stroke="#000000" stroke-width="4.80" stroke-linejoin="bevel" points="1891.23,578.569 1891.23,634.791" />
<polyline class="BarLine" fill="none" stroke="#000000" stroke-width="4.80" stroke-linejoin="bevel" points="214.996,551.923 214.996,661.437" />
<polyline class="BarLine" fill="none" stroke="#000000" stroke-width="4.80" stroke-linejoin="bevel" points="2594.29,1225.02 2594.29,1281.24" />
<polyline class="BarLine" fill="none" stroke="#000000" stroke-width="4.80" stroke-linejoin="bevel" points="214.996,1198.37 214.996,1307.89" />
<polyline class="BarLine" fill="none" stroke="#000000" stroke-width="4.80" stroke-linejoin="bevel" points="2333.21,578.569 2333.21,634.791" />
<polyline class="BarLine" fill="none" stroke="#000000" stroke-width="4.80" stroke-linejoin="bevel" points="2737.69,1198.37 2737.69,1307.89" />
<polyline class="BarLine" fill="none" stroke="#000000" stroke-width="14.66" stroke-linejoin="bevel" points="2757.27,1198.37 2757.27,1307.89" />
<polyline class="BarLine" fill="none" stroke="#000000" stroke-width="4.80" stroke-linejoin="bevel" points="2762.2,578.569 2762.2,634.791" />
<path class="SlurSegment" stroke="#000000" stroke-width="1.33" stroke-linecap="round" stroke-linejoin="round" fill-rule="evenodd" d="M1903.25,936.047 C1932.91,902.055 1995.42,898.99 2028.27,929.919 C1995.78,906.229 1933.27,909.293 1903.25,936.047"/>
<path class="SlurSegment" stroke="#000000" stroke-width="1.33" stroke-linecap="round" stroke-linejoin="round" fill-rule="evenodd" d="M1500.55,1285.91 C1518.1,1303.99 1553.2,1303.99 1570.75,1285.91 C1553.2,1311.06 1518.1,1311.06 1500.55,1285.91"/>
<polyline class="Stem" fill="none" stroke="#000000" stroke-width="2.66" stroke-linejoin="bevel" points="1024.93,924.537 1024.93,1013.32" />
<polyline class="Stem" fill="none" stroke="#000000" stroke-width="2.66" stroke-linejoin="bevel" points="2479.76,291.408 2479.76,380.085" />
<polyline class="Stem" fill="none" stroke="#000000" stroke-width="2.66" stroke-linejoin="bevel" points="939.669,911.214 939.669,999.89" />
<polyline class="Stem" fill="none" stroke="#000000" stroke-width="2.66" stroke-linejoin="bevel" points="1960.24,349.283 1960.24,260.286" />
<polyline class="Stem" fill="none" stroke="#000000" stroke-width="2.66" stroke-linejoin="bevel" points="811.77,937.859 811.77,1026.64" />
<polyline class="Stem" fill="none" stroke="#000000" stroke-width="2.66" stroke-linejoin="bevel" points="1838.79,335.96 1838.79,253.838" />
<polyline class="Stem" fill="none" stroke="#000000" stroke-width="2.66" stroke-linejoin="bevel" points="1152.83,937.859 1152.83,1026.54" />
<polyline class="Stem" fill="none" stroke="#000000" stroke-width="2.66" stroke-linejoin="bevel" points="1887.27,964.505 1887.27,1046.63" />
<polyline class="Stem" fill="none" stroke="#000000" stroke-width="2.66" stroke-linejoin="bevel" points="415.139,924.537 415.139,1013.32" />
<polyline class="Stem" fill="none" stroke="#000000" stroke-width="2.66" stroke-linejoin="bevel" points="1395.62,318.054 1395.62,400.069" />
<polyline class="Stem" fill="none" stroke="#000000" stroke-width="2.66" stroke-linejoin="bevel" points="850.623,349.283 850.623,260.286" />
<polyline class="Stem" fill="none" stroke="#000000" stroke-width="2.66" stroke-linejoin="bevel" points="975.645,335.96 975.645,253.838" />
<polyline class="Stem" fill="none" stroke="#000000" stroke-width="2.66" stroke-linejoin="bevel" points="1097.1,362.606 1097.1,273.609" />
<polyline class="Stem" fill="none" stroke="#000000" stroke-width="2.66" stroke-linejoin="bevel" points="2149.26,278.086 2149.26,366.869" />
<polyline class="Stem" fill="none" stroke="#000000" stroke-width="2.66" stroke-linejoin="bevel" points="636.129,331.377 636.129,406.837" />
<polyline class="Stem" fill="none" stroke="#000000" stroke-width="2.66" stroke-linejoin="bevel" points="1713.77,335.96 1713.77,253.625" />
<polyline class="Stem" fill="none" stroke="#000000" stroke-width="2.66" stroke-linejoin="bevel" points="447.114,349.283 447.114,260.286" />
<polyline class="Stem" fill="none" stroke="#000000" stroke-width="2.66" stroke-linejoin="bevel" points="1238.1,951.182 1238.1,1039.97" />
<polyline class="Stem" fill="none" stroke="#000000" stroke-width="2.66" stroke-linejoin="bevel" points="2258.77,291.408 2258.77,380.085" />
<polyline class="Stem" fill="none" stroke="#000000" stroke-width="2.66" stroke-linejoin="bevel" points="1674.1,964.505 1674.1,1046.63" />
<polyline class="Stem" fill="none" stroke="#000000" stroke-width="2.66" stroke-linejoin="bevel" points="1468.63,331.377 1468.63,406.837" />
<polyline class="Stem" fill="none" stroke="#000000" stroke-width="2.66" stroke-linejoin="bevel" points="777.616,335.96 777.616,253.838" />
<polyline class="Stem" fill="none" stroke="#000000" stroke-width="2.66" stroke-linejoin="bevel" points="2677.79,304.731 2677.79,393.408" />
<polyline class="Stem" fill="none" stroke="#000000" stroke-width="2.66" stroke-linejoin="bevel" points="1286.11,318.054 1286.11,400.176" />
<polyline class="Stem" fill="none" stroke="#000000" stroke-width="2.66" stroke-linejoin="bevel" points="1596.53,331.377 1596.53,413.392" />
<polyline class="Stem" fill="none" stroke="#000000" stroke-width="2.66" stroke-linejoin="bevel" points="2370.25,304.731 2370.25,393.515" />
<polyline class="Stem" fill="none" stroke="#000000" stroke-width="2.66" stroke-linejoin="bevel" points="631.911,924.537 631.911,1013.32" />
<polyline class="Stem" fill="none" stroke="#000000" stroke-width="2.66" stroke-linejoin="bevel" points="1484.57,964.505 1484.57,1046.63" />
<polyline class="Stem" fill="none" stroke="#000000" stroke-width="2.66" stroke-linejoin="bevel" points="1603.91,977.828 1603.91,1059.84" />
<polyline class="Stem" fill="none" stroke="#000000" stroke-width="2.66" stroke-linejoin="bevel" points="2552.77,318.054 2552.77,400.176" />
<polyline class="Stem" fill="none" stroke="#000000" stroke-width="2.66" stroke-linejoin="bevel" points="739.826,951.182 739.826,1039.86" />
<polyline class="Stem" fill="none" stroke="#000000" stroke-width="1.87" stroke-linejoin="bevel" points="2017.08,949.839 2017.08,1011.91" />
<polyline class="Stem" fill="none" stroke="#000000" stroke-width="2.66" stroke-linejoin="bevel" points="631.911,1257.61 631.911,1333.07" />
<polyline class="Stem" fill="none" stroke="#000000" stroke-width="2.66" stroke-linejoin="bevel" points="818.649,597.834 818.649,679.956" />
<polyline class="Stem" fill="none" stroke="#000000" stroke-width="2.66" stroke-linejoin="bevel" points="1516.55,1248.87 1516.55,1179.93" />
<polyline class="Stem" fill="none" stroke="#000000" stroke-width="2.66" stroke-linejoin="bevel" points="1174.63,611.156 1174.63,693.172" />
<polyline class="Stem" fill="none" stroke="#000000" stroke-width="2.66" stroke-linejoin="bevel" points="1500.61,629.062 1500.61,540.066" />
<polyline class="Stem" fill="none" stroke="#000000" stroke-width="2.66" stroke-linejoin="bevel" points="1628.51,629.062 1628.51,540.279" />
<polyline class="Stem" fill="none" stroke="#000000" stroke-width="2.66" stroke-linejoin="bevel" points="2370.25,611.156 2370.25,686.617" />
<polyline class="Stem" fill="none" stroke="#000000" stroke-width="2.66" stroke-linejoin="bevel" points="2552.77,597.834 2552.77,679.956" />
<polyline class="Stem" fill="none" stroke="#000000" stroke-width="2.66" stroke-linejoin="bevel" points="1635.88,1275.51 1635.88,1186.44" />
<polyline class="Stem" fill="none" stroke="#000000" stroke-width="2.66" stroke-linejoin="bevel" points="739.826,1257.61 739.826,1339.62" />
<polyline class="Stem" fill="none" stroke="#000000" stroke-width="2.66" stroke-linejoin="bevel" points="636.129,611.156 636.129,686.617" />
<polyline class="Stem" fill="none" stroke="#000000" stroke-width="2.66" stroke-linejoin="bevel" points="552.407,1275.51 552.407,1186.73" />
<polyline class="Stem" fill="none" stroke="#000000" stroke-width="2.66" stroke-linejoin="bevel" points="1318.09,615.74 1318.09,533.404" />
<polyline class="Stem" fill="none" stroke="#000000" stroke-width="2.66" stroke-linejoin="bevel" points="1713.77,642.385 1713.77,553.389" />
<polyline class="Stem" fill="none" stroke="#000000" stroke-width="2.66" stroke-linejoin="bevel" points="1363.12,1244.28 1363.12,1326.3" />
<polyline class="Stem" fill="none" stroke="#000000" stroke-width="2.66" stroke-linejoin="bevel" points="447.114,1288.84 447.114,1199.84" />
<polyline class="Stem" fill="none" stroke="#000000" stroke-width="2.66" stroke-linejoin="bevel" points="1238.1,1230.96 1238.1,1319.75" />
<polyline class="Stem" fill="none" stroke="#000000" stroke-width="2.66" stroke-linejoin="bevel" points="447.114,629.062 447.114,540.066" />
<polyline class="Stem" fill="none" stroke="#000000" stroke-width="2.66" stroke-linejoin="bevel" points="1706.08,1288.84 1706.08,1199.84" />
<polyline class="Stem" fill="none" stroke="#000000" stroke-width="2.66" stroke-linejoin="bevel" points="2181.23,642.385 2181.23,553.389" />
<polyline class="Stem" fill="none" stroke="#000000" stroke-width="2.66" stroke-linejoin="bevel" points="843.744,1262.19 843.744,1179.86" />
<polyline class="Stem" fill="none" stroke="#000000" stroke-width="2.66" stroke-linejoin="bevel" points="1152.83,1244.28 1152.83,1326.3" />
<polyline class="Stem" fill="none" stroke="#000000" stroke-width="2.66" stroke-linejoin="bevel" points="1427.6,615.74 1427.6,533.618" />
<polyline class="Stem" fill="none" stroke="#000000" stroke-width="2.66" stroke-linejoin="bevel" points="1919.24,1288.84 1919.24,1199.84" />
<polyline class="Stem" fill="none" stroke="#000000" stroke-width="2.66" stroke-linejoin="bevel" points="1065.12,611.156 1065.12,686.617" />
<polyline class="Stem" fill="none" stroke="#000000" stroke-width="2.66" stroke-linejoin="bevel" points="1024.93,1257.61 1024.93,1333.07" />
<polyline class="Stem" fill="none" stroke="#000000" stroke-width="2.66" stroke-linejoin="bevel" points="1960.24,629.062 1960.24,540.066" />
<polyline class="Stem" fill="none" stroke="#000000" stroke-width="2.66" stroke-linejoin="bevel" points="971.644,1275.51 971.644,1186.73" />
<polyline class="Stem" fill="none" stroke="#000000" stroke-width="1.87" stroke-linejoin="bevel" points="1581.94,1263.47 1581.94,1183.5" />
<path class="Hook" transform="matrix(0.746079,0,0,0.746079,2016.15,1011.99)" d="M0,-0.1 C0,0.6 0.6,1.2 1.3,1.2 C1.8,1.2 2.4,0.8 2.5,0.4 C2.5,0.3 3.4,-3.2 3.5,-3.5 C3.6,-3.9 4.5,-7.7 8.1,-13.6 C12,-20.1 18,-24.8 23,-31.8 C27.9,-38.8 30.9,-45.4 30.9,-54.2 C30.9,-63.3 28.8,-70.9 23.5,-80.6 C23.2,-81.3 22.6,-81.7 22,-81.7 C21.8,-81.7 21.6,-81.7 21.5,-81.6 C21,-81.4 20.8,-81 20.8,-80.4 C20.8,-80.1 20.9,-79.6 21.1,-79.2 C25.1,-69.9 26.7,-64.6 26.7,-57.4 C26.7,-49.1 23.8,-44.8 22,-41.7 C15.5,-30.6 5,-25.2 0.8,-23.8 C0.1,-23.5 0,-23 0,-22.7 L0,-0.1 "/>
<path class="Hook" transform="matrix(1.06583,0,0,1.06583,1151.5,1026.64)" d="M0,-0.1 C0,0.6 0.6,1.2 1.3,1.2 C1.8,1.2 2.4,0.8 2.5,0.4 C2.5,0.3 3.4,-3.2 3.5,-3.5 C3.6,-3.9 4.5,-7.7 8.1,-13.6 C12,-20.1 18,-24.8 23,-31.8 C27.9,-38.8 30.9,-45.4 30.9,-54.2 C30.9,-63.3 28.8,-70.9 23.5,-80.6 C23.2,-81.3 22.6,-81.7 22,-81.7 C21.8,-81.7 21.6,-81.7 21.5,-81.6 C21,-81.4 20.8,-81 20.8,-80.4 C20.8,-80.1 20.9,-79.6 21.1,-79.2 C25.1,-69.9 26.7,-64.6 26.7,-57.4 C26.7,-49.1 23.8,-44.8 22,-41.7 C15.5,-30.6 5,-25.2 0.8,-23.8 C0.1,-23.5 0,-23 0,-22.7 L0,-0.1 "/>
<path class="Hook" transform="matrix(1.06583,0,0,1.06583,938.337,999.997)" d="M0,-0.1 C0,0.6 0.6,1.2 1.3,1.2 C1.8,1.2 2.4,0.8 2.5,0.4 C2.5,0.3 3.4,-3.2 3.5,-3.5 C3.6,-3.9 4.5,-7.7 8.1,-13.6 C12,-20.1 18,-24.8 23,-31.8 C27.9,-38.8 30.9,-45.4 30.9,-54.2 C30.9,-63.3 28.8,-70.9 23.5,-80.6 C23.2,-81.3 22.6,-81.7 22,-81.7 C21.8,-81.7 21.6,-81.7 21.5,-81.6 C21,-81.4 20.8,-81 20.8,-80.4 C20.8,-80.1 20.9,-79.6 21.1,-79.2 C25.1,-69.9 26.7,-64.6 26.7,-57.4 C26.7,-49.1 23.8,-44.8 22,-41.7 C15.5,-30.6 5,-25.2 0.8,-23.8 C0.1,-23.5 0,-23 0,-22.7 L0,-0.1 "/>
<path class="Hook" transform="matrix(1.06583,0,0,1.06583,1394.29,400.176)" d="M0,-0.1 C0,0.6 0.6,1.2 1.3,1.2 C1.8,1.2 2.4,0.8 2.5,0.4 C2.5,0.3 3.4,-3.2 3.5,-3.5 C3.6,-3.9 4.5,-7.7 8.1,-13.6 C12,-20.1 18,-24.8 23,-31.8 C27.9,-38.8 30.9,-45.4 30.9,-54.2 C30.9,-63.3 28.8,-70.9 23.5,-80.6 C23.2,-81.3 22.6,-81.7 22,-81.7 C21.8,-81.7 21.6,-81.7 21.5,-81.6 C21,-81.4 20.8,-81 20.8,-80.4 C20.8,-80.1 20.9,-79.6 21.1,-79.2 C25.1,-69.9 26.7,-64.6 26.7,-57.4 C26.7,-49.1 23.8,-44.8 22,-41.7 C15.5,-30.6 5,-25.2 0.8,-23.8 C0.1,-23.5 0,-23 0,-22.7 L0,-0.1 "/>
<path class="Hook" transform="matrix(1.06583,0,0,1.06583,2257.44,380.192)" d="M0,-0.1 C0,0.6 0.6,1.2 1.3,1.2 C1.8,1.2 2.4,0.8 2.5,0.4 C2.5,0.3 3.4,-3.2 3.5,-3.5 C3.6,-3.9 4.5,-7.7 8.1,-13.6 C12,-20.1 18,-24.8 23,-31.8 C27.9,-38.8 30.9,-45.4 30.9,-54.2 C30.9,-63.3 28.8,-70.9 23.5,-80.6 C23.2,-81.3 22.6,-81.7 22,-81.7 C21.8,-81.7 21.6,-81.7 21.5,-81.6 C21,-81.4 20.8,-81 20.8,-80.4 C20.8,-80.1 20.9,-79.6 21.1,-79.2 C25.1,-69.9 26.7,-64.6 26.7,-57.4 C26.7,-49.1 23.8,-44.8 22,-41.7 C15.5,-30.6 5,-25.2 0.8,-23.8 C0.1,-23.5 0,-23 0,-22.7 L0,-0.1 "/>
<path class="Hook" transform="matrix(1.06583,0,0,1.06583,1837.46,253.625)" d="M0,22.7 C0,23 0.1,23.5 0.8,23.8 C5.1,25.2 13.7,30.6 20.2,41.7 C22,44.8 24.9,49.1 24.9,57.4 C24.9,64.6 23,72 20.4,79.2 C20.2,79.8 20,80.3 20.1,80.7 C20.1,81.3 20.5,81.7 21.1,81.7 C21.8,81.7 22.3,81.3 22.7,80.6 C27.2,72.6 28.9,63.3 28.9,54.2 C28.4,41.3 21,31.8 21,31.8 C21.3,31.8 11.8,19.5 9.1,15.3 C5.4,9.6 3.7,3.9 3.5,3.5 C3.4,3.2 2.5,-0.4 2.5,-0.4 C2.4,-0.8 1.9,-1.2 1.3,-1.2 C0.6,-1.2 0,-0.6 0,0.1 L0,22.7 "/>
<path class="Hook" transform="matrix(1.06583,0,0,1.06583,974.313,253.625)" d="M0,22.7 C0,23 0.1,23.5 0.8,23.8 C5.1,25.2 13.7,30.6 20.2,41.7 C22,44.8 24.9,49.1 24.9,57.4 C24.9,64.6 23,72 20.4,79.2 C20.2,79.8 20,80.3 20.1,80.7 C20.1,81.3 20.5,81.7 21.1,81.7 C21.8,81.7 22.3,81.3 22.7,80.6 C27.2,72.6 28.9,63.3 28.9,54.2 C28.4,41.3 21,31.8 21,31.8 C21.3,31.8 11.8,19.5 9.1,15.3 C5.4,9.6 3.7,3.9 3.5,3.5 C3.4,3.2 2.5,-0.4 2.5,-0.4 C2.4,-0.8 1.9,-1.2 1.3,-1.2 C0.6,-1.2 0,-0.6 0,0.1 L0,22.7 "/>
<path class="Hook" transform="matrix(1.06583,0,0,1.06583,776.283,253.625)" d="M0,22.7 C0,23 0.1,23.5 0.8,23.8 C5.1,25.2 13.7,30.6 20.2,41.7 C22,44.8 24.9,49.1 24.9,57.4 C24.9,64.6 23,72 20.4,79.2 C20.2,79.8 20,80.3 20.1,80.7 C20.1,81.3 20.5,81.7 21.1,81.7 C21.8,81.7 22.3,81.3 22.7,80.6 C27.2,72.6 28.9,63.3 28.9,54.2 C28.4,41.3 21,31.8 21,31.8 C21.3,31.8 11.8,19.5 9.1,15.3 C5.4,9.6 3.7,3.9 3.5,3.5 C3.4,3.2 2.5,-0.4 2.5,-0.4 C2.4,-0.8 1.9,-1.2 1.3,-1.2 C0.6,-1.2 0,-0.6 0,0.1 L0,22.7 "/>
<path class="Hook" transform="matrix(1.06583,0,0,1.06583,2676.46,393.515)" d="M0,-0.1 C0,0.6 0.6,1.2 1.3,1.2 C1.8,1.2 2.4,0.8 2.5,0.4 C2.5,0.3 3.4,-3.2 3.5,-3.5 C3.6,-3.9 4.5,-7.7 8.1,-13.6 C12,-20.1 18,-24.8 23,-31.8 C27.9,-38.8 30.9,-45.4 30.9,-54.2 C30.9,-63.3 28.8,-70.9 23.5,-80.6 C23.2,-81.3 22.6,-81.7 22,-81.7 C21.8,-81.7 21.6,-81.7 21.5,-81.6 C21,-81.4 20.8,-81 20.8,-80.4 C20.8,-80.1 20.9,-79.6 21.1,-79.2 C25.1,-69.9 26.7,-64.6 26.7,-57.4 C26.7,-49.1 23.8,-44.8 22,-41.7 C15.5,-30.6 5,-25.2 0.8,-23.8 C0.1,-23.5 0,-23 0,-22.7 L0,-0.1 "/>
<path class="Hook" transform="matrix(1.06583,0,0,1.06583,1602.57,1059.95)" d="M0,-0.1 C0,0.6 0.6,1.2 1.3,1.2 C1.8,1.2 2.4,0.8 2.5,0.4 C2.5,0.3 3.4,-3.2 3.5,-3.5 C3.6,-3.9 4.5,-7.7 8.1,-13.6 C12,-20.1 18,-24.8 23,-31.8 C27.9,-38.8 30.9,-45.4 30.9,-54.2 C30.9,-63.3 28.8,-70.9 23.5,-80.6 C23.2,-81.3 22.6,-81.7 22,-81.7 C21.8,-81.7 21.6,-81.7 21.5,-81.6 C21,-81.4 20.8,-81 20.8,-80.4 C20.8,-80.1 20.9,-79.6 21.1,-79.2 C25.1,-69.9 26.7,-64.6 26.7,-57.4 C26.7,-49.1 23.8,-44.8 22,-41.7 C15.5,-30.6 5,-25.2 0.8,-23.8 C0.1,-23.5 0,-23 0,-22.7 L0,-0.1 "/>
<path class="Hook" transform="matrix(1.06583,0,0,1.06583,1595.2,413.499)" d="M0,-0.1 C0,0.6 0.6,1.2 1.3,1.2 C1.8,1.2 2.4,0.8 2.5,0.4 C2.5,0.3 3.4,-3.2 3.5,-3.5 C3.6,-3.9 4.5,-7.7 8.1,-13.6 C12,-20.1 18,-24.8 23,-31.8 C27.9,-38.8 30.9,-45.4 30.9,-54.2 C30.9,-63.3 28.8,-70.9 23.5,-80.6 C23.2,-81.3 22.6,-81.7 22,-81.7 C21.8,-81.7 21.6,-81.7 21.5,-81.6 C21,-81.4 20.8,-81 20.8,-80.4 C20.8,-80.1 20.9,-79.6 21.1,-79.2 C25.1,-69.9 26.7,-64.6 26.7,-57.4 C26.7,-49.1 23.8,-44.8 22,-41.7 C15.5,-30.6 5,-25.2 0.8,-23.8 C0.1,-23.5 0,-23 0,-22.7 L0,-0.1 "/>
<path class="Hook" transform="matrix(1.06583,0,0,1.06583,2478.43,380.192)" d="M0,-0.1 C0,0.6 0.6,1.2 1.3,1.2 C1.8,1.2 2.4,0.8 2.5,0.4 C2.5,0.3 3.4,-3.2 3.5,-3.5 C3.6,-3.9 4.5,-7.7 8.1,-13.6 C12,-20.1 18,-24.8 23,-31.8 C27.9,-38.8 30.9,-45.4 30.9,-54.2 C30.9,-63.3 28.8,-70.9 23.5,-80.6 C23.2,-81.3 22.6,-81.7 22,-81.7 C21.8,-81.7 21.6,-81.7 21.5,-81.6 C21,-81.4 20.8,-81 20.8,-80.4 C20.8,-80.1 20.9,-79.6 21.1,-79.2 C25.1,-69.9 26.7,-64.6 26.7,-57.4 C26.7,-49.1 23.8,-44.8 22,-41.7 C15.5,-30.6 5,-25.2 0.8,-23.8 C0.1,-23.5 0,-23 0,-22.7 L0,-0.1 "/>
<path class="Hook" transform="matrix(1.06583,0,0,1.06583,738.494,1039.97)" d="M0,-0.1 C0,0.6 0.6,1.2 1.3,1.2 C1.8,1.2 2.4,0.8 2.5,0.4 C2.5,0.3 3.4,-3.2 3.5,-3.5 C3.6,-3.9 4.5,-7.7 8.1,-13.6 C12,-20.1 18,-24.8 23,-31.8 C27.9,-38.8 30.9,-45.4 30.9,-54.2 C30.9,-63.3 28.8,-70.9 23.5,-80.6 C23.2,-81.3 22.6,-81.7 22,-81.7 C21.8,-81.7 21.6,-81.7 21.5,-81.6 C21,-81.4 20.8,-81 20.8,-80.4 C20.8,-80.1 20.9,-79.6 21.1,-79.2 C25.1,-69.9 26.7,-64.6 26.7,-57.4 C26.7,-49.1 23.8,-44.8 22,-41.7 C15.5,-30.6 5,-25.2 0.8,-23.8 C0.1,-23.5 0,-23 0,-22.7 L0,-0.1 "/>
<path class="Hook" transform="matrix(1.06583,0,0,1.06583,1426.27,533.404)" d="M0,22.7 C0,23 0.1,23.5 0.8,23.8 C5.1,25.2 13.7,30.6 20.2,41.7 C22,44.8 24.9,49.1 24.9,57.4 C24.9,64.6 23,72 20.4,79.2 C20.2,79.8 20,80.3 20.1,80.7 C20.1,81.3 20.5,81.7 21.1,81.7 C21.8,81.7 22.3,81.3 22.7,80.6 C27.2,72.6 28.9,63.3 28.9,54.2 C28.4,41.3 21,31.8 21,31.8 C21.3,31.8 11.8,19.5 9.1,15.3 C5.4,9.6 3.7,3.9 3.5,3.5 C3.4,3.2 2.5,-0.4 2.5,-0.4 C2.4,-0.8 1.9,-1.2 1.3,-1.2 C0.6,-1.2 0,-0.6 0,0.1 L0,22.7 "/>
<path class="Hook" transform="matrix(1.06583,0,0,1.06583,970.311,1186.52)" d="M0,22.7 C0,23 0.1,23.5 0.8,23.8 C5.1,25.2 13.7,30.6 20.2,41.7 C22,44.8 24.9,49.1 24.9,57.4 C24.9,64.6 23,72 20.4,79.2 C20.2,79.8 20,80.3 20.1,80.7 C20.1,81.3 20.5,81.7 21.1,81.7 C21.8,81.7 22.3,81.3 22.7,80.6 C27.2,72.6 28.9,63.3 28.9,54.2 C28.4,41.3 21,31.8 21,31.8 C21.3,31.8 11.8,19.5 9.1,15.3 C5.4,9.6 3.7,3.9 3.5,3.5 C3.4,3.2 2.5,-0.4 2.5,-0.4 C2.4,-0.8 1.9,-1.2 1.3,-1.2 C0.6,-1.2 0,-0.6 0,0.1 L0,22.7 "/>
<path class="Hook" transform="matrix(1.06583,0,0,1.06583,1151.5,1326.41)" d="M0,-0.1 C0,0.6 0.6,1.2 1.3,1.2 C1.8,1.2 2.4,0.8 2.5,0.4 C2.5,0.3 3.4,-3.2 3.5,-3.5 C3.6,-3.9 4.5,-7.7 8.1,-13.6 C12,-20.1 18,-24.8 23,-31.8 C27.9,-38.8 30.9,-45.4 30.9,-54.2 C30.9,-63.3 28.8,-70.9 23.5,-80.6 C23.2,-81.3 22.6,-81.7 22,-81.7 C21.8,-81.7 21.6,-81.7 21.5,-81.6 C21,-81.4 20.8,-81 20.8,-80.4 C20.8,-80.1 20.9,-79.6 21.1,-79.2 C25.1,-69.9 26.7,-64.6 26.7,-57.4 C26.7,-49.1 23.8,-44.8 22,-41.7 C15.5,-30.6 5,-25.2 0.8,-23.8 C0.1,-23.5 0,-23 0,-22.7 L0,-0.1 "/>
<path class="Hook" transform="matrix(1.06583,0,0,1.06583,1361.79,1326.41)" d="M0,-0.1 C0,0.6 0.6,1.2 1.3,1.2 C1.8,1.2 2.4,0.8 2.5,0.4 C2.5,0.3 3.4,-3.2 3.5,-3.5 C3.6,-3.9 4.5,-7.7 8.1,-13.6 C12,-20.1 18,-24.8 23,-31.8 C27.9,-38.8 30.9,-45.4 30.9,-54.2 C30.9,-63.3 28.8,-70.9 23.5,-80.6 C23.2,-81.3 22.6,-81.7 22,-81.7 C21.8,-81.7 21.6,-81.7 21.5,-81.6 C21,-81.4 20.8,-81 20.8,-80.4 C20.8,-80.1 20.9,-79.6 21.1,-79.2 C25.1,-69.9 26.7,-64.6 26.7,-57.4 C26.7,-49.1 23.8,-44.8 22,-41.7 C15.5,-30.6 5,-25.2 0.8,-23.8 C0.1,-23.5 0,-23 0,-22.7 L0,-0.1 "/>
<path class="Hook" transform="matrix(1.06583,0,0,1.06583,1173.3,693.278)" d="M0,-0.1 C0,0.6 0.6,1.2 1.3,1.2 C1.8,1.2 2.4,0.8 2.5,0.4 C2.5,0.3 3.4,-3.2 3.5,-3.5 C3.6,-3.9 4.5,-7.7 8.1,-13.6 C12,-20.1 18,-24.8 23,-31.8 C27.9,-38.8 30.9,-45.4 30.9,-54.2 C30.9,-63.3 28.8,-70.9 23.5,-80.6 C23.2,-81.3 22.6,-81.7 22,-81.7 C21.8,-81.7 21.6,-81.7 21.5,-81.6 C21,-81.4 20.8,-81 20.8,-80.4 C20.8,-80.1 20.9,-79.6 21.1,-79.2 C25.1,-69.9 26.7,-64.6 26.7,-57.4 C26.7,-49.1 23.8,-44.8 22,-41.7 C15.5,-30.6 5,-25.2 0.8,-23.8 C0.1,-23.5 0,-23 0,-22.7 L0,-0.1 "/>
<path class="Hook" transform="matrix(1.06583,0,0,1.06583,551.075,1186.52)" d="M0,22.7 C0,23 0.1,23.5 0.8,23.8 C5.1,25.2 13.7,30.6 20.2,41.7 C22,44.8 24.9,49.1 24.9,57.4 C24.9,64.6 23,72 20.4,79.2 C20.2,79.8 20,80.3 20.1,80.7 C20.1,81.3 20.5,81.7 21.1,81.7 C21.8,81.7 22.3,81.3 22.7,80.6 C27.2,72.6 28.9,63.3 28.9,54.2 C28.4,41.3 21,31.8 21,31.8 C21.3,31.8 11.8,19.5 9.1,15.3 C5.4,9.6 3.7,3.9 3.5,3.5 C3.4,3.2 2.5,-0.4 2.5,-0.4 C2.4,-0.8 1.9,-1.2 1.3,-1.2 C0.6,-1.2 0,-0.6 0,0.1 L0,22.7 "/>
<path class="Hook" transform="matrix(1.06583,0,0,1.06583,738.494,1339.73)" d="M0,-0.1 C0,0.6 0.6,1.2 1.3,1.2 C1.8,1.2 2.4,0.8 2.5,0.4 C2.5,0.3 3.4,-3.2 3.5,-3.5 C3.6,-3.9 4.5,-7.7 8.1,-13.6 C12,-20.1 18,-24.8 23,-31.8 C27.9,-38.8 30.9,-45.4 30.9,-54.2 C30.9,-63.3 28.8,-70.9 23.5,-80.6 C23.2,-81.3 22.6,-81.7 22,-81.7 C21.8,-81.7 21.6,-81.7 21.5,-81.6 C21,-81.4 20.8,-81 20.8,-80.4 C20.8,-80.1 20.9,-79.6 21.1,-79.2 C25.1,-69.9 26.7,-64.6 26.7,-57.4 C26.7,-49.1 23.8,-44.8 22,-41.7 C15.5,-30.6 5,-25.2 0.8,-23.8 C0.1,-23.5 0,-23 0,-22.7 L0,-0.1 "/>
<path class="Hook" transform="matrix(1.06583,0,0,1.06583,1627.17,540.066)" d="M0,22.7 C0,23 0.1,23.5 0.8,23.8 C5.1,25.2 13.7,30.6 20.2,41.7 C22,44.8 24.9,49.1 24.9,57.4 C24.9,64.6 23,72 20.4,79.2 C20.2,79.8 20,80.3 20.1,80.7 C20.1,81.3 20.5,81.7 21.1,81.7 C21.8,81.7 22.3,81.3 22.7,80.6 C27.2,72.6 28.9,63.3 28.9,54.2 C28.4,41.3 21,31.8 21,31.8 C21.3,31.8 11.8,19.5 9.1,15.3 C5.4,9.6 3.7,3.9 3.5,3.5 C3.4,3.2 2.5,-0.4 2.5,-0.4 C2.4,-0.8 1.9,-1.2 1.3,-1.2 C0.6,-1.2 0,-0.6 0,0.1 L0,22.7 "/>
<path class="Note" transform="matrix(1.06583,0,0,1.06583,1467.3,326.9)" d="M0,4.2 C0,8.5 3.1,13.3 11.2,13.3 C21.6,13.3 32.5,4.8 32.5,-4 C32.5,-9.9 27.5,-13.2 21.3,-13.2 C11.6,-13.2 0,-5 0,4.2"/>
<path class="Note" transform="matrix(1.06583,0,0,1.06583,1236.77,946.706)" d="M0,4.2 C0,8.5 3.1,13.3 11.2,13.3 C21.6,13.3 32.5,4.8 32.5,-4 C32.5,-9.9 27.5,-13.2 21.3,-13.2 C11.6,-13.2 0,-5 0,4.2"/>
<path class="Note" transform="matrix(1.06583,0,0,1.06583,630.579,920.06)" d="M0,4.2 C0,8.5 3.1,13.3 11.2,13.3 C21.6,13.3 32.5,4.8 32.5,-4 C32.5,-9.9 27.5,-13.2 21.3,-13.2 C11.6,-13.2 0,-5 0,4.2"/>
<path class="Note" transform="matrix(1.06583,0,0,1.06583,738.494,946.706)" d="M0,4.2 C0,8.5 3.1,13.3 11.2,13.3 C21.6,13.3 32.5,4.8 32.5,-4 C32.5,-9.9 27.5,-13.2 21.3,-13.2 C11.6,-13.2 0,-5 0,4.2"/>
<path class="Note" transform="matrix(1.06583,0,0,1.06583,1595.2,326.9)" d="M0,4.2 C0,8.5 3.1,13.3 11.2,13.3 C21.6,13.3 32.5,4.8 32.5,-4 C32.5,-9.9 27.5,-13.2 21.3,-13.2 C11.6,-13.2 0,-5 0,4.2"/>
<path class="Note" transform="matrix(1.06583,0,0,1.06583,2630,999.997)" d="M0,4.2 C0,8.5 3.1,13.3 11.2,13.3 C21.6,13.3 32.5,4.8 32.5,-4 C32.5,-9.9 27.5,-13.2 21.3,-13.2 C11.6,-13.2 0,-5 0,4.2"/>
<path class="Note" transform="matrix(1.06583,0,0,1.06583,1680.46,340.223)" d="M0,4.2 C0,8.5 3.1,13.3 11.2,13.3 C21.6,13.3 32.5,4.8 32.5,-4 C32.5,-9.9 27.5,-13.2 21.3,-13.2 C11.6,-13.2 0,-5 0,4.2"/>
<path class="Note" transform="matrix(1.06583,0,0,1.06583,942.338,340.223)" d="M0,4.2 C0,8.5 3.1,13.3 11.2,13.3 C21.6,13.3 32.5,4.8 32.5,-4 C32.5,-9.9 27.5,-13.2 21.3,-13.2 C11.6,-13.2 0,-5 0,4.2"/>
<path class="Note" transform="matrix(1.06583,0,0,1.06583,2486.6,986.674)" d="M0,4.2 C0,8.5 3.1,13.3 11.2,13.3 C21.6,13.3 32.5,4.8 32.5,-4 C32.5,-9.9 27.5,-13.2 21.3,-13.2 C11.6,-13.2 0,-5 0,4.2"/>
<path class="Note" transform="matrix(1.06583,0,0,1.06583,2436,999.997)" d="M0,4.2 C0,8.5 3.1,13.3 11.2,13.3 C21.6,13.3 32.5,4.8 32.5,-4 C32.5,-9.9 27.5,-13.2 21.3,-13.2 C11.6,-13.2 0,-5 0,4.2"/>
<path class="Note" transform="matrix(1.06583,0,0,1.06583,413.806,920.06)" d="M0,4.2 C0,8.5 3.1,13.3 11.2,13.3 C21.6,13.3 32.5,4.8 32.5,-4 C32.5,-9.9 27.5,-13.2 21.3,-13.2 C11.6,-13.2 0,-5 0,4.2"/>
<path class="Note" transform="matrix(1.06583,0,0,1.06583,2385.4,986.674)" d="M0,4.2 C0,8.5 3.1,13.3 11.2,13.3 C21.6,13.3 32.5,4.8 32.5,-4 C32.5,-9.9 27.5,-13.2 21.3,-13.2 C11.6,-13.2 0,-5 0,4.2"/>
<path class="Note" transform="matrix(1.06583,0,0,1.06583,810.437,933.383)" d="M0,4.2 C0,8.5 3.1,13.3 11.2,13.3 C21.6,13.3 32.5,4.8 32.5,-4 C32.5,-9.9 27.5,-13.2 21.3,-13.2 C11.6,-13.2 0,-5 0,4.2"/>
<path class="Note" transform="matrix(1.06583,0,0,1.06583,2334.8,973.351)" d="M0,4.2 C0,8.5 3.1,13.3 11.2,13.3 C21.6,13.3 32.5,4.8 32.5,-4 C32.5,-9.9 27.5,-13.2 21.3,-13.2 C11.6,-13.2 0,-5 0,4.2"/>
<path class="Note" transform="matrix(1.06583,0,0,1.06583,2284.2,960.029)" d="M0,4.2 C0,8.5 3.1,13.3 11.2,13.3 C21.6,13.3 32.5,4.8 32.5,-4 C32.5,-9.9 27.5,-13.2 21.3,-13.2 C11.6,-13.2 0,-5 0,4.2"/>
<path class="Note" transform="matrix(1.06583,0,0,1.06583,2233.61,946.706)" d="M0,4.2 C0,8.5 3.1,13.3 11.2,13.3 C21.6,13.3 32.5,4.8 32.5,-4 C32.5,-9.9 27.5,-13.2 21.3,-13.2 C11.6,-13.2 0,-5 0,4.2"/>
<path class="Note" transform="matrix(1.06583,0,0,1.06583,2183.01,933.383)" d="M0,4.2 C0,8.5 3.1,13.3 11.2,13.3 C21.6,13.3 32.5,4.8 32.5,-4 C32.5,-9.9 27.5,-13.2 21.3,-13.2 C11.6,-13.2 0,-5 0,4.2"/>
<path class="Note" transform="matrix(1.06583,0,0,1.06583,938.337,906.737)" d="M0,4.2 C0,8.5 3.1,13.3 11.2,13.3 C21.6,13.3 32.5,4.8 32.5,-4 C32.5,-9.9 27.5,-13.2 21.3,-13.2 C11.6,-13.2 0,-5 0,4.2"/>
<path class="Note" transform="matrix(1.06583,0,0,1.06583,1063.79,366.869)" d="M0,4.2 C0,8.5 3.1,13.3 11.2,13.3 C21.6,13.3 32.5,4.8 32.5,-4 C32.5,-9.9 27.5,-13.2 21.3,-13.2 C11.6,-13.2 0,-5 0,4.2"/>
<path class="Note" transform="matrix(1.06583,0,0,1.06583,2132.41,920.06)" d="M0,4.2 C0,8.5 3.1,13.3 11.2,13.3 C21.6,13.3 32.5,4.8 32.5,-4 C32.5,-9.9 27.5,-13.2 21.3,-13.2 C11.6,-13.2 0,-5 0,4.2"/>
<path class="Note" transform="matrix(1.06583,0,0,1.06583,1805.49,340.223)" d="M0,4.2 C0,8.5 3.1,13.3 11.2,13.3 C21.6,13.3 32.5,4.8 32.5,-4 C32.5,-9.9 27.5,-13.2 21.3,-13.2 C11.6,-13.2 0,-5 0,4.2"/>
<path class="Note" transform="matrix(1.06583,0,0,1.06583,413.806,353.546)" d="M0,4.2 C0,8.5 3.1,13.3 11.2,13.3 C21.6,13.3 32.5,4.8 32.5,-4 C32.5,-9.9 27.5,-13.2 21.3,-13.2 C11.6,-13.2 0,-5 0,4.2"/>
<path class="Note" transform="matrix(0.746079,0,0,0.746079,2016.15,946.706)" d="M0,4.2 C0,8.5 3.1,13.3 11.2,13.3 C21.6,13.3 32.5,4.8 32.5,-4 C32.5,-9.9 27.5,-13.2 21.3,-13.2 C11.6,-13.2 0,-5 0,4.2"/>
<path class="Note" transform="matrix(1.06583,0,0,1.06583,817.316,353.546)" d="M0,4.2 C0,8.5 3.1,13.3 11.2,13.3 C21.6,13.3 32.5,4.8 32.5,-4 C32.5,-9.9 27.5,-13.2 21.3,-13.2 C11.6,-13.2 0,-5 0,4.2"/>
<path class="Note" transform="matrix(1.06583,0,0,1.06583,1394.29,313.578)" d="M0,4.2 C0,8.5 3.1,13.3 11.2,13.3 C21.6,13.3 32.5,4.8 32.5,-4 C32.5,-9.9 27.5,-13.2 21.3,-13.2 C11.6,-13.2 0,-5 0,4.2"/>
<path class="Note" transform="matrix(1.06583,0,0,1.06583,1926.94,353.546)" d="M0,4.2 C0,8.5 3.1,13.3 11.2,13.3 C21.6,13.3 32.5,4.8 32.5,-4 C32.5,-9.9 27.5,-13.2 21.3,-13.2 C11.6,-13.2 0,-5 0,4.2"/>
<path class="Note" transform="matrix(1.06583,0,0,1.06583,1023.6,920.06)" d="M0,4.2 C0,8.5 3.1,13.3 11.2,13.3 C21.6,13.3 32.5,4.8 32.5,-4 C32.5,-9.9 27.5,-13.2 21.3,-13.2 C11.6,-13.2 0,-5 0,4.2"/>
<path class="Note" transform="matrix(1.06583,0,0,1.06583,1885.93,960.029)" d="M0,4.2 C0,8.5 3.1,13.3 11.2,13.3 C21.6,13.3 32.5,4.8 32.5,-4 C32.5,-9.9 27.5,-13.2 21.3,-13.2 C11.6,-13.2 0,-5 0,4.2"/>
<path class="Note" transform="matrix(1.06583,0,0,1.06583,2147.93,273.609)" d="M0,4.2 C0,8.5 3.1,13.3 11.2,13.3 C21.6,13.3 32.5,4.8 32.5,-4 C32.5,-9.9 27.5,-13.2 21.3,-13.2 C11.6,-13.2 0,-5 0,4.2"/>
<path class="Note" transform="matrix(1.06583,0,0,1.06583,1672.77,960.029)" d="M0,4.2 C0,8.5 3.1,13.3 11.2,13.3 C21.6,13.3 32.5,4.8 32.5,-4 C32.5,-9.9 27.5,-13.2 21.3,-13.2 C11.6,-13.2 0,-5 0,4.2"/>
<path class="Note" transform="matrix(1.06583,0,0,1.06583,634.797,326.9)" d="M0,4.2 C0,8.5 3.1,13.3 11.2,13.3 C21.6,13.3 32.5,4.8 32.5,-4 C32.5,-9.9 27.5,-13.2 21.3,-13.2 C11.6,-13.2 0,-5 0,4.2"/>
<path class="Note" transform="matrix(1.06583,0,0,1.06583,1151.5,933.383)" d="M0,4.2 C0,8.5 3.1,13.3 11.2,13.3 C21.6,13.3 32.5,4.8 32.5,-4 C32.5,-9.9 27.5,-13.2 21.3,-13.2 C11.6,-13.2 0,-5 0,4.2"/>
<path class="Note" transform="matrix(1.06583,0,0,1.06583,1284.78,313.578)" d="M0,4.2 C0,8.5 3.1,13.3 11.2,13.3 C21.6,13.3 32.5,4.8 32.5,-4 C32.5,-9.9 27.5,-13.2 21.3,-13.2 C11.6,-13.2 0,-5 0,4.2"/>
<path class="Note" transform="matrix(1.06583,0,0,1.06583,2368.92,300.255)" d="M0,4.2 C0,8.5 3.1,13.3 11.2,13.3 C21.6,13.3 32.5,4.8 32.5,-4 C32.5,-9.9 27.5,-13.2 21.3,-13.2 C11.6,-13.2 0,-5 0,4.2"/>
<path class="Note" transform="matrix(1.06583,0,0,1.06583,1602.57,973.351)" d="M0,4.2 C0,8.5 3.1,13.3 11.2,13.3 C21.6,13.3 32.5,4.8 32.5,-4 C32.5,-9.9 27.5,-13.2 21.3,-13.2 C11.6,-13.2 0,-5 0,4.2"/>
<path class="Note" transform="matrix(1.06583,0,0,1.06583,2478.43,286.932)" d="M0,4.2 C0,8.5 3.1,13.3 11.2,13.3 C21.6,13.3 32.5,4.8 32.5,-4 C32.5,-9.9 27.5,-13.2 21.3,-13.2 C11.6,-13.2 0,-5 0,4.2"/>
<path class="Note" transform="matrix(1.06583,0,0,1.06583,1483.24,960.029)" d="M0,4.2 C0,8.5 3.1,13.3 11.2,13.3 C21.6,13.3 32.5,4.8 32.5,-4 C32.5,-9.9 27.5,-13.2 21.3,-13.2 C11.6,-13.2 0,-5 0,4.2"/>
<path class="Note" transform="matrix(1.06583,0,0,1.06583,744.309,340.223)" d="M0,4.2 C0,8.5 3.1,13.3 11.2,13.3 C21.6,13.3 32.5,4.8 32.5,-4 C32.5,-9.9 27.5,-13.2 21.3,-13.2 C11.6,-13.2 0,-5 0,4.2"/>
<path class="Note" transform="matrix(1.06583,0,0,1.06583,2551.44,313.578)" d="M0,4.2 C0,8.5 3.1,13.3 11.2,13.3 C21.6,13.3 32.5,4.8 32.5,-4 C32.5,-9.9 27.5,-13.2 21.3,-13.2 C11.6,-13.2 0,-5 0,4.2"/>
<path class="Note" transform="matrix(1.06583,0,0,1.06583,2676.46,300.255)" d="M0,4.2 C0,8.5 3.1,13.3 11.2,13.3 C21.6,13.3 32.5,4.8 32.5,-4 C32.5,-9.9 27.5,-13.2 21.3,-13.2 C11.6,-13.2 0,-5 0,4.2"/>
<path class="Note" transform="matrix(1.06583,0,0,1.06583,2257.44,286.932)" d="M0,4.2 C0,8.5 3.1,13.3 11.2,13.3 C21.6,13.3 32.5,4.8 32.5,-4 C32.5,-9.9 27.5,-13.2 21.3,-13.2 C11.6,-13.2 0,-5 0,4.2"/>
<path class="Note" transform="matrix(1.06583,0,0,1.06583,413.806,633.326)" d="M0,4.2 C0,8.5 3.1,13.3 11.2,13.3 C21.6,13.3 32.5,4.8 32.5,-4 C32.5,-9.9 27.5,-13.2 21.3,-13.2 C11.6,-13.2 0,-5 0,4.2"/>
<path class="Note" transform="matrix(1.06583,0,0,1.06583,1672.77,1293.1)" d="M0,4.2 C0,8.5 3.1,13.3 11.2,13.3 C21.6,13.3 32.5,4.8 32.5,-4 C32.5,-9.9 27.5,-13.2 21.3,-13.2 C11.6,-13.2 0,-5 0,4.2"/>
<path class="Note" transform="matrix(1.06583,0,0,1.06583,519.1,1279.78)" d="M0,4.2 C0,8.5 3.1,13.3 11.2,13.3 C21.6,13.3 32.5,4.8 32.5,-4 C32.5,-9.9 27.5,-13.2 21.3,-13.2 C11.6,-13.2 0,-5 0,4.2"/>
<path class="Note" transform="matrix(1.06583,0,0,1.06583,1361.79,1239.81)" d="M0,4.2 C0,8.5 3.1,13.3 11.2,13.3 C21.6,13.3 32.5,4.8 32.5,-4 C32.5,-9.9 27.5,-13.2 21.3,-13.2 C11.6,-13.2 0,-5 0,4.2"/>
<path class="Note" transform="matrix(1.06583,0,0,1.06583,1595.2,633.326)" d="M0,4.2 C0,8.5 3.1,13.3 11.2,13.3 C21.6,13.3 32.5,4.8 32.5,-4 C32.5,-9.9 27.5,-13.2 21.3,-13.2 C11.6,-13.2 0,-5 0,4.2"/>
<path class="Note" transform="matrix(1.06583,0,0,1.06583,2551.44,593.357)" d="M0,4.2 C0,8.5 3.1,13.3 11.2,13.3 C21.6,13.3 32.5,4.8 32.5,-4 C32.5,-9.9 27.5,-13.2 21.3,-13.2 C11.6,-13.2 0,-5 0,4.2"/>
<path class="Note" transform="matrix(1.06583,0,0,1.06583,1394.29,620.003)" d="M0,4.2 C0,8.5 3.1,13.3 11.2,13.3 C21.6,13.3 32.5,4.8 32.5,-4 C32.5,-9.9 27.5,-13.2 21.3,-13.2 C11.6,-13.2 0,-5 0,4.2"/>
<path class="Note" transform="matrix(1.06583,0,0,1.06583,738.494,1253.13)" d="M0,4.2 C0,8.5 3.1,13.3 11.2,13.3 C21.6,13.3 32.5,4.8 32.5,-4 C32.5,-9.9 27.5,-13.2 21.3,-13.2 C11.6,-13.2 0,-5 0,4.2"/>
<path class="Note" transform="matrix(1.06583,0,0,1.06583,1173.3,606.68)" d="M0,4.2 C0,8.5 3.1,13.3 11.2,13.3 C21.6,13.3 32.5,4.8 32.5,-4 C32.5,-9.9 27.5,-13.2 21.3,-13.2 C11.6,-13.2 0,-5 0,4.2"/>
<path class="Note" transform="matrix(1.06583,0,0,1.06583,938.337,1279.78)" d="M0,4.2 C0,8.5 3.1,13.3 11.2,13.3 C21.6,13.3 32.5,4.8 32.5,-4 C32.5,-9.9 27.5,-13.2 21.3,-13.2 C11.6,-13.2 0,-5 0,4.2"/>
<path class="Note" transform="matrix(1.06583,0,0,1.06583,1063.79,606.68)" d="M0,4.2 C0,8.5 3.1,13.3 11.2,13.3 C21.6,13.3 32.5,4.8 32.5,-4 C32.5,-9.9 27.5,-13.2 21.3,-13.2 C11.6,-13.2 0,-5 0,4.2"/>
<path class="Note" transform="matrix(1.06583,0,0,1.06583,1885.93,1293.1)" d="M0,4.2 C0,8.5 3.1,13.3 11.2,13.3 C21.6,13.3 32.5,4.8 32.5,-4 C32.5,-9.9 27.5,-13.2 21.3,-13.2 C11.6,-13.2 0,-5 0,4.2"/>
<path class="Note" transform="matrix(1.06583,0,0,1.06583,1926.94,633.326)" d="M0,4.2 C0,8.5 3.1,13.3 11.2,13.3 C21.6,13.3 32.5,4.8 32.5,-4 C32.5,-9.9 27.5,-13.2 21.3,-13.2 C11.6,-13.2 0,-5 0,4.2"/>
<path class="Note" transform="matrix(1.06583,0,0,1.06583,1483.24,1253.13)" d="M0,4.2 C0,8.5 3.1,13.3 11.2,13.3 C21.6,13.3 32.5,4.8 32.5,-4 C32.5,-9.9 27.5,-13.2 21.3,-13.2 C11.6,-13.2 0,-5 0,4.2"/>
<path class="Note" transform="matrix(1.06583,0,0,1.06583,2132.41,1293.1)" d="M0,4.2 C0,8.5 3.1,13.3 11.2,13.3 C21.6,13.3 32.5,4.8 32.5,-4 C32.5,-9.9 27.5,-13.2 21.3,-13.2 C11.6,-13.2 0,-5 0,4.2"/>
<path class="Note" transform="matrix(1.06583,0,0,1.06583,413.806,1293.1)" d="M0,4.2 C0,8.5 3.1,13.3 11.2,13.3 C21.6,13.3 32.5,4.8 32.5,-4 C32.5,-9.9 27.5,-13.2 21.3,-13.2 C11.6,-13.2 0,-5 0,4.2"/>
<path class="Note" transform="matrix(0.746079,0,0,0.746079,1558.63,1266.45)" d="M0,4.2 C0,8.5 3.1,13.3 11.2,13.3 C21.6,13.3 32.5,4.8 32.5,-4 C32.5,-9.9 27.5,-13.2 21.3,-13.2 C11.6,-13.2 0,-5 0,4.2"/>
<path class="Note" transform="matrix(1.06583,0,0,1.06583,2630,1279.78)" d="M0,4.2 C0,8.5 3.1,13.3 11.2,13.3 C21.6,13.3 32.5,4.8 32.5,-4 C32.5,-9.9 27.5,-13.2 21.3,-13.2 C11.6,-13.2 0,-5 0,4.2"/>
<path class="Note" transform="matrix(1.06583,0,0,1.06583,2368.92,606.68)" d="M0,4.2 C0,8.5 3.1,13.3 11.2,13.3 C21.6,13.3 32.5,4.8 32.5,-4 C32.5,-9.9 27.5,-13.2 21.3,-13.2 C11.6,-13.2 0,-5 0,4.2"/>
<path class="Note" transform="matrix(1.06583,0,0,1.06583,1151.5,1239.81)" d="M0,4.2 C0,8.5 3.1,13.3 11.2,13.3 C21.6,13.3 32.5,4.8 32.5,-4 C32.5,-9.9 27.5,-13.2 21.3,-13.2 C11.6,-13.2 0,-5 0,4.2"/>
<path class="Note" transform="matrix(1.06583,0,0,1.06583,1467.3,633.326)" d="M0,4.2 C0,8.5 3.1,13.3 11.2,13.3 C21.6,13.3 32.5,4.8 32.5,-4 C32.5,-9.9 27.5,-13.2 21.3,-13.2 C11.6,-13.2 0,-5 0,4.2"/>
<path class="Note" transform="matrix(1.06583,0,0,1.06583,1602.57,1279.78)" d="M0,4.2 C0,8.5 3.1,13.3 11.2,13.3 C21.6,13.3 32.5,4.8 32.5,-4 C32.5,-9.9 27.5,-13.2 21.3,-13.2 C11.6,-13.2 0,-5 0,4.2"/>
<path class="Note" transform="matrix(1.06583,0,0,1.06583,634.797,606.68)" d="M0,4.2 C0,8.5 3.1,13.3 11.2,13.3 C21.6,13.3 32.5,4.8 32.5,-4 C32.5,-9.9 27.5,-13.2 21.3,-13.2 C11.6,-13.2 0,-5 0,4.2"/>
<path class="Note" transform="matrix(1.06583,0,0,1.06583,817.316,593.357)" d="M0,4.2 C0,8.5 3.1,13.3 11.2,13.3 C21.6,13.3 32.5,4.8 32.5,-4 C32.5,-9.9 27.5,-13.2 21.3,-13.2 C11.6,-13.2 0,-5 0,4.2"/>
<path class="Note" transform="matrix(1.06583,0,0,1.06583,1680.46,646.649)" d="M0,4.2 C0,8.5 3.1,13.3 11.2,13.3 C21.6,13.3 32.5,4.8 32.5,-4 C32.5,-9.9 27.5,-13.2 21.3,-13.2 C11.6,-13.2 0,-5 0,4.2"/>
<path class="Note" transform="matrix(1.06583,0,0,1.06583,630.579,1253.13)" d="M0,4.2 C0,8.5 3.1,13.3 11.2,13.3 C21.6,13.3 32.5,4.8 32.5,-4 C32.5,-9.9 27.5,-13.2 21.3,-13.2 C11.6,-13.2 0,-5 0,4.2"/>
<path class="Note" transform="matrix(1.06583,0,0,1.06583,810.437,1266.45)" d="M0,4.2 C0,8.5 3.1,13.3 11.2,13.3 C21.6,13.3 32.5,4.8 32.5,-4 C32.5,-9.9 27.5,-13.2 21.3,-13.2 C11.6,-13.2 0,-5 0,4.2"/>
<path class="Note" transform="matrix(1.06583,0,0,1.06583,1284.78,620.003)" d="M0,4.2 C0,8.5 3.1,13.3 11.2,13.3 C21.6,13.3 32.5,4.8 32.5,-4 C32.5,-9.9 27.5,-13.2 21.3,-13.2 C11.6,-13.2 0,-5 0,4.2"/>
<path class="Note" transform="matrix(1.06583,0,0,1.06583,1023.6,1253.13)" d="M0,4.2 C0,8.5 3.1,13.3 11.2,13.3 C21.6,13.3 32.5,4.8 32.5,-4 C32.5,-9.9 27.5,-13.2 21.3,-13.2 C11.6,-13.2 0,-5 0,4.2"/>
<path class="Note" transform="matrix(1.06583,0,0,1.06583,2147.93,646.649)" d="M0,4.2 C0,8.5 3.1,13.3 11.2,13.3 C21.6,13.3 32.5,4.8 32.5,-4 C32.5,-9.9 27.5,-13.2 21.3,-13.2 C11.6,-13.2 0,-5 0,4.2"/>
<path class="Note" transform="matrix(1.06583,0,0,1.06583,1236.77,1226.49)" d="M0,4.2 C0,8.5 3.1,13.3 11.2,13.3 C21.6,13.3 32.5,4.8 32.5,-4 C32.5,-9.9 27.5,-13.2 21.3,-13.2 C11.6,-13.2 0,-5 0,4.2"/>
<path class="Clef" transform="matrix(1.06583,0,0,1.06583,237.379,353.546)" d="M36.2,21.2 C21.9,21.2 9.7,11.2 9.7,-3.9 C9.7,-16.1 18.3,-27 27.1,-34.7 C28.8,-36.1 30.4,-37.5 31.9,-39 C32.8,-33.6 33.5,-29 34.2,-24.8 C25.1,-22.2 18.9,-12.5 18.9,-3.2 C18.9,3.9 24.4,13.5 32.4,13.5 C33.2,13.5 34.1,13.1 34.1,12.1 C34.1,11.3 33.2,10.7 31.9,9.9 C28,7.6 25.8,4.9 25.8,0.1 C25.8,-6 30.4,-10.9 36.2,-12.3 L42,20.5 C40,20.9 38.2,21.2 36.2,21.2 M33.2,-82.2 C34.2,-86.2 38.7,-96.7 43.9,-96.7 C45.4,-96.7 47.9,-91.9 47.9,-84.9 C47.9,-74.6 40.1,-66.8 33.2,-59.9 C32.6,-63.9 32.1,-67.9 32.1,-72 C32.1,-75.8 32.5,-79.1 33.2,-82.2 M46.2,19.3 C44.1,7.4 41.4,-8.5 40.7,-12.9 C50.8,-12.9 55.1,-5.9 56,-1.1 C56.1,-0.3 56.3,0.8 56.3,2 C56.3,9.2 53.3,16.4 46.2,19.3 M32.3,87.7 C30.1,87.7 28.6,86.3 28.6,84.2 C28.6,82.2 29.5,80.6 31.2,79.6 C31.6,79.8 31.7,79.8 32,80 C33.2,80.6 33.2,80.6 33.4,80.8 C35.3,81.9 36.1,82.9 36.1,84.3 C36.1,86.2 34.5,87.7 32.3,87.7 M36.1,75.7 C34.6,74.9 34.2,74.7 33.9,74.5 L33.7,74.4 C32.2,73.5 31.7,72.8 31.7,71.6 C31.7,69.8 33.1,68.5 35.1,68.5 C37,68.5 38.2,69.7 38.2,71.8 C38.2,73.4 37.6,74.5 36.1,75.7 M64,-0.2 C64,-15.3 53.3,-25.5 38.7,-25.5 C37.7,-31.5 36.8,-37.4 35.9,-43 C46.4,-54.1 53.8,-66.7 53.8,-82.5 C53.8,-91.6 51,-99 49.3,-102.6 C46.9,-107.7 44,-111.2 42.3,-111.2 C41.6,-111.2 38.4,-110 35.2,-106.1 C28.7,-98.5 26.9,-85.8 26.9,-77.4 C26.9,-72 27.4,-67.1 29.1,-55.8 C29,-55.8 23.8,-50.5 21.7,-48.7 C12.6,-40.3 0,-28.1 0,-8.2 C0,10.6 16.3,25.3 34.9,25.3 C37.8,25.3 40.5,25 42.9,24.6 C44.7,34.1 45.9,41.2 45.9,46.5 C45.9,56.9 40.5,62.4 30.4,62.4 C28,62.4 25.9,61.9 25.7,61.8 C25.6,61.8 25.4,61.7 25.4,61.6 C25.4,61.4 25.6,61.3 25.9,61.2 C30.6,60.5 35.3,56.4 35.3,50.1 C35.3,44.7 31.2,39 23.7,39 C16.7,39 12.3,44.7 12.3,51.3 C12.3,57.9 17.3,66.6 30.8,66.6 C43.7,66.6 50,59.3 50,46.5 C50,42.6 49.4,38.1 48.4,32.4 C48.1,30.4 47.6,27.3 46.9,23.5 C56.7,20.2 64,10.1 64,-0.2 M42.3,71.7 C42.3,68 38.9,66.4 35.6,66.4 C31.4,66.4 27.3,69 27.3,73.5 C27.3,75.4 28,76.8 29.4,78.2 C26.8,79.2 24.2,81.2 24.2,84.3 C24.2,87.6 27.2,89.8 31.6,89.8 C37,89.8 40.8,86.8 40.8,82.5 C40.8,80.2 39.8,78.3 38,77 C40.9,75.7 42.3,74.1 42.3,71.7"/>
<path class="Clef" transform="matrix(1.06583,0,0,1.06583,237.379,999.997)" d="M36.2,21.2 C21.9,21.2 9.7,11.2 9.7,-3.9 C9.7,-16.1 18.3,-27 27.1,-34.7 C28.8,-36.1 30.4,-37.5 31.9,-39 C32.8,-33.6 33.5,-29 34.2,-24.8 C25.1,-22.2 18.9,-12.5 18.9,-3.2 C18.9,3.9 24.4,13.5 32.4,13.5 C33.2,13.5 34.1,13.1 34.1,12.1 C34.1,11.3 33.2,10.7 31.9,9.9 C28,7.6 25.8,4.9 25.8,0.1 C25.8,-6 30.4,-10.9 36.2,-12.3 L42,20.5 C40,20.9 38.2,21.2 36.2,21.2 M33.2,-82.2 C34.2,-86.2 38.7,-96.7 43.9,-96.7 C45.4,-96.7 47.9,-91.9 47.9,-84.9 C47.9,-74.6 40.1,-66.8 33.2,-59.9 C32.6,-63.9 32.1,-67.9 32.1,-72 C32.1,-75.8 32.5,-79.1 33.2,-82.2 M46.2,19.3 C44.1,7.4 41.4,-8.5 40.7,-12.9 C50.8,-12.9 55.1,-5.9 56,-1.1 C56.1,-0.3 56.3,0.8 56.3,2 C56.3,9.2 53.3,16.4 46.2,19.3 M32.3,87.7 C30.1,87.7 28.6,86.3 28.6,84.2 C28.6,82.2 29.5,80.6 31.2,79.6 C31.6,79.8 31.7,79.8 32,80 C33.2,80.6 33.2,80.6 33.4,80.8 C35.3,81.9 36.1,82.9 36.1,84.3 C36.1,86.2 34.5,87.7 32.3,87.7 M36.1,75.7 C34.6,74.9 34.2,74.7 33.9,74.5 L33.7,74.4 C32.2,73.5 31.7,72.8 31.7,71.6 C31.7,69.8 33.1,68.5 35.1,68.5 C37,68.5 38.2,69.7 38.2,71.8 C38.2,73.4 37.6,74.5 36.1,75.7 M64,-0.2 C64,-15.3 53.3,-25.5 38.7,-25.5 C37.7,-31.5 36.8,-37.4 35.9,-43 C46.4,-54.1 53.8,-66.7 53.8,-82.5 C53.8,-91.6 51,-99 49.3,-102.6 C46.9,-107.7 44,-111.2 42.3,-111.2 C41.6,-111.2 38.4,-110 35.2,-106.1 C28.7,-98.5 26.9,-85.8 26.9,-77.4 C26.9,-72 27.4,-67.1 29.1,-55.8 C29,-55.8 23.8,-50.5 21.7,-48.7 C12.6,-40.3 0,-28.1 0,-8.2 C0,10.6 16.3,25.3 34.9,25.3 C37.8,25.3 40.5,25 42.9,24.6 C44.7,34.1 45.9,41.2 45.9,46.5 C45.9,56.9 40.5,62.4 30.4,62.4 C28,62.4 25.9,61.9 25.7,61.8 C25.6,61.8 25.4,61.7 25.4,61.6 C25.4,61.4 25.6,61.3 25.9,61.2 C30.6,60.5 35.3,56.4 35.3,50.1 C35.3,44.7 31.2,39 23.7,39 C16.7,39 12.3,44.7 12.3,51.3 C12.3,57.9 17.3,66.6 30.8,66.6 C43.7,66.6 50,59.3 50,46.5 C50,42.6 49.4,38.1 48.4,32.4 C48.1,30.4 47.6,27.3 46.9,23.5 C56.7,20.2 64,10.1 64,-0.2 M42.3,71.7 C42.3,68 38.9,66.4 35.6,66.4 C31.4,66.4 27.3,69 27.3,73.5 C27.3,75.4 28,76.8 29.4,78.2 C26.8,79.2 24.2,81.2 24.2,84.3 C24.2,87.6 27.2,89.8 31.6,89.8 C37,89.8 40.8,86.8 40.8,82.5 C40.8,80.2 39.8,78.3 38,77 C40.9,75.7 42.3,74.1 42.3,71.7"/>
<path class="Clef" transform="matrix(1.06583,0,0,1.06583,237.379,1279.78)" d="M36.2,21.2 C21.9,21.2 9.7,11.2 9.7,-3.9 C9.7,-16.1 18.3,-27 27.1,-34.7 C28.8,-36.1 30.4,-37.5 31.9,-39 C32.8,-33.6 33.5,-29 34.2,-24.8 C25.1,-22.2 18.9,-12.5 18.9,-3.2 C18.9,3.9 24.4,13.5 32.4,13.5 C33.2,13.5 34.1,13.1 34.1,12.1 C34.1,11.3 33.2,10.7 31.9,9.9 C28,7.6 25.8,4.9 25.8,0.1 C25.8,-6 30.4,-10.9 36.2,-12.3 L42,20.5 C40,20.9 38.2,21.2 36.2,21.2 M33.2,-82.2 C34.2,-86.2 38.7,-96.7 43.9,-96.7 C45.4,-96.7 47.9,-91.9 47.9,-84.9 C47.9,-74.6 40.1,-66.8 33.2,-59.9 C32.6,-63.9 32.1,-67.9 32.1,-72 C32.1,-75.8 32.5,-79.1 33.2,-82.2 M46.2,19.3 C44.1,7.4 41.4,-8.5 40.7,-12.9 C50.8,-12.9 55.1,-5.9 56,-1.1 C56.1,-0.3 56.3,0.8 56.3,2 C56.3,9.2 53.3,16.4 46.2,19.3 M32.3,87.7 C30.1,87.7 28.6,86.3 28.6,84.2 C28.6,82.2 29.5,80.6 31.2,79.6 C31.6,79.8 31.7,79.8 32,80 C33.2,80.6 33.2,80.6 33.4,80.8 C35.3,81.9 36.1,82.9 36.1,84.3 C36.1,86.2 34.5,87.7 32.3,87.7 M36.1,75.7 C34.6,74.9 34.2,74.7 33.9,74.5 L33.7,74.4 C32.2,73.5 31.7,72.8 31.7,71.6 C31.7,69.8 33.1,68.5 35.1,68.5 C37,68.5 38.2,69.7 38.2,71.8 C38.2,73.4 37.6,74.5 36.1,75.7 M64,-0.2 C64,-15.3 53.3,-25.5 38.7,-25.5 C37.7,-31.5 36.8,-37.4 35.9,-43 C46.4,-54.1 53.8,-66.7 53.8,-82.5 C53.8,-91.6 51,-99 49.3,-102.6 C46.9,-107.7 44,-111.2 42.3,-111.2 C41.6,-111.2 38.4,-110 35.2,-106.1 C28.7,-98.5 26.9,-85.8 26.9,-77.4 C26.9,-72 27.4,-67.1 29.1,-55.8 C29,-55.8 23.8,-50.5 21.7,-48.7 C12.6,-40.3 0,-28.1 0,-8.2 C0,10.6 16.3,25.3 34.9,25.3 C37.8,25.3 40.5,25 42.9,24.6 C44.7,34.1 45.9,41.2 45.9,46.5 C45.9,56.9 40.5,62.4 30.4,62.4 C28,62.4 25.9,61.9 25.7,61.8 C25.6,61.8 25.4,61.7 25.4,61.6 C25.4,61.4 25.6,61.3 25.9,61.2 C30.6,60.5 35.3,56.4 35.3,50.1 C35.3,44.7 31.2,39 23.7,39 C16.7,39 12.3,44.7 12.3,51.3 C12.3,57.9 17.3,66.6 30.8,66.6 C43.7,66.6 50,59.3 50,46.5 C50,42.6 49.4,38.1 48.4,32.4 C48.1,30.4 47.6,27.3 46.9,23.5 C56.7,20.2 64,10.1 64,-0.2 M42.3,71.7 C42.3,68 38.9,66.4 35.6,66.4 C31.4,66.4 27.3,69 27.3,73.5 C27.3,75.4 28,76.8 29.4,78.2 C26.8,79.2 24.2,81.2 24.2,84.3 C24.2,87.6 27.2,89.8 31.6,89.8 C37,89.8 40.8,86.8 40.8,82.5 C40.8,80.2 39.8,78.3 38,77 C40.9,75.7 42.3,74.1 42.3,71.7"/>
<path class="Clef" transform="matrix(1.06583,0,0,1.06583,237.379,633.326)" d="M36.2,21.2 C21.9,21.2 9.7,11.2 9.7,-3.9 C9.7,-16.1 18.3,-27 27.1,-34.7 C28.8,-36.1 30.4,-37.5 31.9,-39 C32.8,-33.6 33.5,-29 34.2,-24.8 C25.1,-22.2 18.9,-12.5 18.9,-3.2 C18.9,3.9 24.4,13.5 32.4,13.5 C33.2,13.5 34.1,13.1 34.1,12.1 C34.1,11.3 33.2,10.7 31.9,9.9 C28,7.6 25.8,4.9 25.8,0.1 C25.8,-6 30.4,-10.9 36.2,-12.3 L42,20.5 C40,20.9 38.2,21.2 36.2,21.2 M33.2,-82.2 C34.2,-86.2 38.7,-96.7 43.9,-96.7 C45.4,-96.7 47.9,-91.9 47.9,-84.9 C47.9,-74.6 40.1,-66.8 33.2,-59.9 C32.6,-63.9 32.1,-67.9 32.1,-72 C32.1,-75.8 32.5,-79.1 33.2,-82.2 M46.2,19.3 C44.1,7.4 41.4,-8.5 40.7,-12.9 C50.8,-12.9 55.1,-5.9 56,-1.1 C56.1,-0.3 56.3,0.8 56.3,2 C56.3,9.2 53.3,16.4 46.2,19.3 M32.3,87.7 C30.1,87.7 28.6,86.3 28.6,84.2 C28.6,82.2 29.5,80.6 31.2,79.6 C31.6,79.8 31.7,79.8 32,80 C33.2,80.6 33.2,80.6 33.4,80.8 C35.3,81.9 36.1,82.9 36.1,84.3 C36.1,86.2 34.5,87.7 32.3,87.7 M36.1,75.7 C34.6,74.9 34.2,74.7 33.9,74.5 L33.7,74.4 C32.2,73.5 31.7,72.8 31.7,71.6 C31.7,69.8 33.1,68.5 35.1,68.5 C37,68.5 38.2,69.7 38.2,71.8 C38.2,73.4 37.6,74.5 36.1,75.7 M64,-0.2 C64,-15.3 53.3,-25.5 38.7,-25.5 C37.7,-31.5 36.8,-37.4 35.9,-43 C46.4,-54.1 53.8,-66.7 53.8,-82.5 C53.8,-91.6 51,-99 49.3,-102.6 C46.9,-107.7 44,-111.2 42.3,-111.2 C41.6,-111.2 38.4,-110 35.2,-106.1 C28.7,-98.5 26.9,-85.8 26.9,-77.4 C26.9,-72 27.4,-67.1 29.1,-55.8 C29,-55.8 23.8,-50.5 21.7,-48.7 C12.6,-40.3 0,-28.1 0,-8.2 C0,10.6 16.3,25.3 34.9,25.3 C37.8,25.3 40.5,25 42.9,24.6 C44.7,34.1 45.9,41.2 45.9,46.5 C45.9,56.9 40.5,62.4 30.4,62.4 C28,62.4 25.9,61.9 25.7,61.8 C25.6,61.8 25.4,61.7 25.4,61.6 C25.4,61.4 25.6,61.3 25.9,61.2 C30.6,60.5 35.3,56.4 35.3,50.1 C35.3,44.7 31.2,39 23.7,39 C16.7,39 12.3,44.7 12.3,51.3 C12.3,57.9 17.3,66.6 30.8,66.6 C43.7,66.6 50,59.3 50,46.5 C50,42.6 49.4,38.1 48.4,32.4 C48.1,30.4 47.6,27.3 46.9,23.5 C56.7,20.2 64,10.1 64,-0.2 M42.3,71.7 C42.3,68 38.9,66.4 35.6,66.4 C31.4,66.4 27.3,69 27.3,73.5 C27.3,75.4 28,76.8 29.4,78.2 C26.8,79.2 24.2,81.2 24.2,84.3 C24.2,87.6 27.2,89.8 31.6,89.8 C37,89.8 40.8,86.8 40.8,82.5 C40.8,80.2 39.8,78.3 38,77 C40.9,75.7 42.3,74.1 42.3,71.7"/>
<path class="KeySig" transform="matrix(1.06583,0,0,1.06583,325.559,326.9)" d="M13.2,-4 C13.2,3.9 9.1,8.1 3.3,12.7 L3.6,-6.8 C3.8,-7.7 5.3,-10.6 9.3,-10.6 C12.9,-10.6 13.2,-7.2 13.2,-5.1 L13.2,-4 M12,-15.5 C7,-15.5 4.1,-12.4 3.6,-11.8 L4,-43.9 C4,-44.7 3.4,-45.3 2.6,-45.3 L1.4,-45.3 C0.6,-45.3 0,-44.7 0,-43.9 L0.5,16.2 C0.5,17 1.1,17.6 1.9,17.6 C2.1,17.6 2.5,17.5 2.7,17.4 C11.3,13.1 20.3,4.9 20.3,-5.4 C20.3,-10.6 17.9,-15.5 12,-15.5"/>
<path class="KeySig" transform="matrix(1.06583,0,0,1.06583,325.559,973.351)" d="M13.2,-4 C13.2,3.9 9.1,8.1 3.3,12.7 L3.6,-6.8 C3.8,-7.7 5.3,-10.6 9.3,-10.6 C12.9,-10.6 13.2,-7.2 13.2,-5.1 L13.2,-4 M12,-15.5 C7,-15.5 4.1,-12.4 3.6,-11.8 L4,-43.9 C4,-44.7 3.4,-45.3 2.6,-45.3 L1.4,-45.3 C0.6,-45.3 0,-44.7 0,-43.9 L0.5,16.2 C0.5,17 1.1,17.6 1.9,17.6 C2.1,17.6 2.5,17.5 2.7,17.4 C11.3,13.1 20.3,4.9 20.3,-5.4 C20.3,-10.6 17.9,-15.5 12,-15.5"/>
<path class="KeySig" transform="matrix(1.06583,0,0,1.06583,325.559,1253.13)" d="M13.2,-4 C13.2,3.9 9.1,8.1 3.3,12.7 L3.6,-6.8 C3.8,-7.7 5.3,-10.6 9.3,-10.6 C12.9,-10.6 13.2,-7.2 13.2,-5.1 L13.2,-4 M12,-15.5 C7,-15.5 4.1,-12.4 3.6,-11.8 L4,-43.9 C4,-44.7 3.4,-45.3 2.6,-45.3 L1.4,-45.3 C0.6,-45.3 0,-44.7 0,-43.9 L0.5,16.2 C0.5,17 1.1,17.6 1.9,17.6 C2.1,17.6 2.5,17.5 2.7,17.4 C11.3,13.1 20.3,4.9 20.3,-5.4 C20.3,-10.6 17.9,-15.5 12,-15.5"/>
<path class="KeySig" transform="matrix(1.06583,0,0,1.06583,325.559,606.68)" d="M13.2,-4 C13.2,3.9 9.1,8.1 3.3,12.7 L3.6,-6.8 C3.8,-7.7 5.3,-10.6 9.3,-10.6 C12.9,-10.6 13.2,-7.2 13.2,-5.1 L13.2,-4 M12,-15.5 C7,-15.5 4.1,-12.4 3.6,-11.8 L4,-43.9 C4,-44.7 3.4,-45.3 2.6,-45.3 L1.4,-45.3 C0.6,-45.3 0,-44.7 0,-43.9 L0.5,16.2 C0.5,17 1.1,17.6 1.9,17.6 C2.1,17.6 2.5,17.5 2.7,17.4 C11.3,13.1 20.3,4.9 20.3,-5.4 C20.3,-10.6 17.9,-15.5 12,-15.5"/>
<path class="Rest" transform="matrix(1.06583,0,0,1.06583,2036.45,326.9)" d="M26.7,-20.3 C26.6,-20.3 26.4,-20.4 26.3,-20.4 C25.7,-20.4 25.2,-20.1 25,-19.6 C24.6,-19 21.5,-13.1 17,-9.8 C15.7,-8.8 14.1,-8.1 12.5,-7.8 C13.6,-9.1 14.3,-10.7 14.3,-12.6 C14.3,-16.5 11.1,-19.7 7.2,-19.7 C3.2,-19.7 0,-16.5 0,-12.6 C0,-7.2 5.3,-4.7 10,-4.7 C15.3,-4.7 18.8,-7.2 22.2,-10.9 L10.8,24.7 L13.5,25.5 L27.5,-18.6 C27.6,-18.7 27.6,-18.9 27.6,-19.1 C27.6,-19.6 27.3,-20 26.7,-20.3"/>
<path class="Rest" transform="matrix(1.06583,0,0,1.06583,519.1,973.351)" d="M26.7,-20.3 C26.6,-20.3 26.4,-20.4 26.3,-20.4 C25.7,-20.4 25.2,-20.1 25,-19.6 C24.6,-19 21.5,-13.1 17,-9.8 C15.7,-8.8 14.1,-8.1 12.5,-7.8 C13.6,-9.1 14.3,-10.7 14.3,-12.6 C14.3,-16.5 11.1,-19.7 7.2,-19.7 C3.2,-19.7 0,-16.5 0,-12.6 C0,-7.2 5.3,-4.7 10,-4.7 C15.3,-4.7 18.8,-7.2 22.2,-10.9 L10.8,24.7 L13.5,25.5 L27.5,-18.6 C27.6,-18.7 27.6,-18.9 27.6,-19.1 C27.6,-19.6 27.3,-20 26.7,-20.3"/>
<path class="Rest" transform="matrix(1.06583,0,0,1.06583,1173.3,326.9)" d="M26.7,-20.3 C26.6,-20.3 26.4,-20.4 26.3,-20.4 C25.7,-20.4 25.2,-20.1 25,-19.6 C24.6,-19 21.5,-13.1 17,-9.8 C15.7,-8.8 14.1,-8.1 12.5,-7.8 C13.6,-9.1 14.3,-10.7 14.3,-12.6 C14.3,-16.5 11.1,-19.7 7.2,-19.7 C3.2,-19.7 0,-16.5 0,-12.6 C0,-7.2 5.3,-4.7 10,-4.7 C15.3,-4.7 18.8,-7.2 22.2,-10.9 L10.8,24.7 L13.5,25.5 L27.5,-18.6 C27.6,-18.7 27.6,-18.9 27.6,-19.1 C27.6,-19.6 27.3,-20 26.7,-20.3"/>
<path class="Rest" transform="matrix(1.06583,0,0,1.06583,1361.79,973.351)" d="M26.7,-20.3 C26.6,-20.3 26.4,-20.4 26.3,-20.4 C25.7,-20.4 25.2,-20.1 25,-19.6 C24.6,-19 21.5,-13.1 17,-9.8 C15.7,-8.8 14.1,-8.1 12.5,-7.8 C13.6,-9.1 14.3,-10.7 14.3,-12.6 C14.3,-16.5 11.1,-19.7 7.2,-19.7 C3.2,-19.7 0,-16.5 0,-12.6 C0,-7.2 5.3,-4.7 10,-4.7 C15.3,-4.7 18.8,-7.2 22.2,-10.9 L10.8,24.7 L13.5,25.5 L27.5,-18.6 C27.6,-18.7 27.6,-18.9 27.6,-19.1 C27.6,-19.6 27.3,-20 26.7,-20.3"/>
<path class="Rest" transform="matrix(1.06583,0,0,1.06583,523.318,326.9)" d="M26.7,-20.3 C26.6,-20.3 26.4,-20.4 26.3,-20.4 C25.7,-20.4 25.2,-20.1 25,-19.6 C24.6,-19 21.5,-13.1 17,-9.8 C15.7,-8.8 14.1,-8.1 12.5,-7.8 C13.6,-9.1 14.3,-10.7 14.3,-12.6 C14.3,-16.5 11.1,-19.7 7.2,-19.7 C3.2,-19.7 0,-16.5 0,-12.6 C0,-7.2 5.3,-4.7 10,-4.7 C15.3,-4.7 18.8,-7.2 22.2,-10.9 L10.8,24.7 L13.5,25.5 L27.5,-18.6 C27.6,-18.7 27.6,-18.9 27.6,-19.1 C27.6,-19.6 27.3,-20 26.7,-20.3"/>
<path class="Rest" transform="matrix(1.06583,0,0,1.06583,523.318,606.68)" d="M26.7,-20.3 C26.6,-20.3 26.4,-20.4 26.3,-20.4 C25.7,-20.4 25.2,-20.1 25,-19.6 C24.6,-19 21.5,-13.1 17,-9.8 C15.7,-8.8 14.1,-8.1 12.5,-7.8 C13.6,-9.1 14.3,-10.7 14.3,-12.6 C14.3,-16.5 11.1,-19.7 7.2,-19.7 C3.2,-19.7 0,-16.5 0,-12.6 C0,-7.2 5.3,-4.7 10,-4.7 C15.3,-4.7 18.8,-7.2 22.2,-10.9 L10.8,24.7 L13.5,25.5 L27.5,-18.6 C27.6,-18.7 27.6,-18.9 27.6,-19.1 C27.6,-19.6 27.3,-20 26.7,-20.3"/>
<path class="Rest" transform="matrix(1.06583,0,0,1.06583,1805.49,606.68)" d="M26.7,-20.3 C26.6,-20.3 26.4,-20.4 26.3,-20.4 C25.7,-20.4 25.2,-20.1 25,-19.6 C24.6,-19 21.5,-13.1 17,-9.8 C15.7,-8.8 14.1,-8.1 12.5,-7.8 C13.6,-9.1 14.3,-10.7 14.3,-12.6 C14.3,-16.5 11.1,-19.7 7.2,-19.7 C3.2,-19.7 0,-16.5 0,-12.6 C0,-7.2 5.3,-4.7 10,-4.7 C15.3,-4.7 18.8,-7.2 22.2,-10.9 L10.8,24.7 L13.5,25.5 L27.5,-18.6 C27.6,-18.7 27.6,-18.9 27.6,-19.1 C27.6,-19.6 27.3,-20 26.7,-20.3"/>
<path class="Rest" transform="matrix(1.06583,0,0,1.06583,2010.96,1253.13)" d="M26.7,-20.3 C26.6,-20.3 26.4,-20.4 26.3,-20.4 C25.7,-20.4 25.2,-20.1 25,-19.6 C24.6,-19 21.5,-13.1 17,-9.8 C15.7,-8.8 14.1,-8.1 12.5,-7.8 C13.6,-9.1 14.3,-10.7 14.3,-12.6 C14.3,-16.5 11.1,-19.7 7.2,-19.7 C3.2,-19.7 0,-16.5 0,-12.6 C0,-7.2 5.3,-4.7 10,-4.7 C15.3,-4.7 18.8,-7.2 22.2,-10.9 L10.8,24.7 L13.5,25.5 L27.5,-18.6 C27.6,-18.7 27.6,-18.9 27.6,-19.1 C27.6,-19.6 27.3,-20 26.7,-20.3"/>
<path class="Rest" transform="matrix(1.06583,0,0,1.06583,2257.44,606.68)" d="M26.7,-20.3 C26.6,-20.3 26.4,-20.4 26.3,-20.4 C25.7,-20.4 25.2,-20.1 25,-19.6 C24.6,-19 21.5,-13.1 17,-9.8 C15.7,-8.8 14.1,-8.1 12.5,-7.8 C13.6,-9.1 14.3,-10.7 14.3,-12.6 C14.3,-16.5 11.1,-19.7 7.2,-19.7 C3.2,-19.7 0,-16.5 0,-12.6 C0,-7.2 5.3,-4.7 10,-4.7 C15.3,-4.7 18.8,-7.2 22.2,-10.9 L10.8,24.7 L13.5,25.5 L27.5,-18.6 C27.6,-18.7 27.6,-18.9 27.6,-19.1 C27.6,-19.6 27.3,-20 26.7,-20.3"/>
<path class="Rest" transform="matrix(1.06583,0,0,1.06583,942.338,606.68)" d="M26.7,-20.3 C26.6,-20.3 26.4,-20.4 26.3,-20.4 C25.7,-20.4 25.2,-20.1 25,-19.6 C24.6,-19 21.5,-13.1 17,-9.8 C15.7,-8.8 14.1,-8.1 12.5,-7.8 C13.6,-9.1 14.3,-10.7 14.3,-12.6 C14.3,-16.5 11.1,-19.7 7.2,-19.7 C3.2,-19.7 0,-16.5 0,-12.6 C0,-7.2 5.3,-4.7 10,-4.7 C15.3,-4.7 18.8,-7.2 22.2,-10.9 L10.8,24.7 L13.5,25.5 L27.5,-18.6 C27.6,-18.7 27.6,-18.9 27.6,-19.1 C27.6,-19.6 27.3,-20 26.7,-20.3"/>
<path class="Rest" transform="matrix(1.06583,0,0,1.06583,2676.46,606.68)" d="M26.7,-20.3 C26.6,-20.3 26.4,-20.4 26.3,-20.4 C25.7,-20.4 25.2,-20.1 25,-19.6 C24.6,-19 21.5,-13.1 17,-9.8 C15.7,-8.8 14.1,-8.1 12.5,-7.8 C13.6,-9.1 14.3,-10.7 14.3,-12.6 C14.3,-16.5 11.1,-19.7 7.2,-19.7 C3.2,-19.7 0,-16.5 0,-12.6 C0,-7.2 5.3,-4.7 10,-4.7 C15.3,-4.7 18.8,-7.2 22.2,-10.9 L10.8,24.7 L13.5,25.5 L27.5,-18.6 C27.6,-18.7 27.6,-18.9 27.6,-19.1 C27.6,-19.6 27.3,-20 26.7,-20.3"/>
<path class="Beam" fill-rule="evenodd" d="M1515.22,1173.18 L1637.21,1179.85 L1637.21,1193.19 L1515.22,1186.53 L1515.22,1173.18 "/>
<path class="Lyrics" d="M2613.09,1390.18 L2613.09,1350.05 L2620.56,1350.05 L2620.56,1348.09 L2608.32,1348.09 L2608.32,1392.08 L2620.56,1392.08 L2620.56,1390.18 L2613.09,1390.18 M2632.95,1361.66 L2623.57,1362.24 L2623.57,1364.52 L2625.74,1364.52 C2627.76,1364.58 2628.02,1364.89 2628.02,1367.17 L2628.02,1382.33 C2627.97,1383.13 2627.92,1383.44 2627.71,1383.71 C2627.33,1384.19 2626.27,1384.4 2624,1384.45 L2623.78,1384.45 L2623.78,1386.36 L2637.93,1386.36 L2637.93,1384.45 L2636.98,1384.45 C2633.43,1384.35 2632.95,1384.08 2632.95,1382.17 L2632.95,1379.31 C2633.01,1370.41 2636.19,1363.62 2640.32,1363.41 C2639.58,1364.26 2639.37,1364.79 2639.37,1365.8 C2639.37,1367.49 2640.58,1368.71 2642.28,1368.71 C2644.24,1368.71 2645.51,1367.28 2645.51,1365.16 C2645.51,1362.56 2643.71,1360.87 2640.9,1360.87 C2637.56,1360.87 2634.7,1363.52 2632.95,1368.23 L2632.95,1361.66 M2670.32,1374.43 C2670.37,1366.48 2665.87,1360.87 2659.4,1360.87 C2652.62,1360.87 2647.53,1366.75 2647.53,1374.7 C2647.53,1382.17 2652.35,1387.15 2659.51,1387.15 C2664.6,1387.15 2668.15,1384.66 2670.32,1379.63 L2668.47,1378.62 C2666.29,1382.7 2664.07,1384.29 2660.52,1384.29 C2657.81,1384.29 2655.85,1383.18 2654.47,1380.79 C2653.52,1379.2 2653.1,1377.35 2653.15,1374.43 L2670.32,1374.43 M2653.2,1372.16 C2653.2,1368.45 2654.9,1363.15 2659.35,1363.15 C2662.53,1363.15 2664.65,1365.95 2664.65,1370.25 C2664.65,1371.73 2664.17,1372.16 2662.48,1372.16 L2653.2,1372.16 M2679.02,1380.48 C2677.16,1380.48 2675.68,1381.96 2675.68,1383.76 C2675.68,1385.62 2677.16,1387.1 2678.96,1387.1 C2680.82,1387.1 2682.3,1385.62 2682.3,1383.76 C2682.3,1381.96 2680.82,1380.48 2679.02,1380.48 M2695.8,1350 L2695.8,1390.12 L2688.38,1390.12 L2688.38,1392.08 L2700.57,1392.08 L2700.57,1348.09 L2688.38,1348.09 L2688.38,1350 L2695.8,1350 "/>
<polyline class="TextLineSegment" fill="none" stroke="#000000" stroke-width="3.75" stroke-linejoin="miter" stroke-miterlimit="2" points="1483.24,899.943 1483.24,873.297 1859.29,873.297 1859.29,899.943" />
<polyline class="TextLineSegment" fill="none" stroke="#000000" stroke-width="3.75" stroke-linejoin="miter" stroke-miterlimit="2" points="2676.46,253.492 2676.46,226.846 2753.14,226.846" />
<polyline class="TextLineSegment" fill="none" stroke="#000000" stroke-width="3.75" stroke-linejoin="miter" stroke-miterlimit="2" points="2478.43,253.492 2478.43,226.846 2649.81,226.846 2649.81,253.492" />
<polyline class="TextLineSegment" fill="none" stroke="#000000" stroke-width="3.75" stroke-linejoin="miter" stroke-miterlimit="2" points="2147.93,241.118 2147.93,214.472 2451.78,214.472 2451.78,241.118" />
<polyline class="TextLineSegment" fill="none" stroke="#000000" stroke-width="3.75" stroke-linejoin="miter" stroke-miterlimit="2" points="2132.41,887.569 2132.41,860.923 2459.96,860.923 2459.96,887.569" />
<polyline class="TextLineSegment" fill="none" stroke="#000000" stroke-width="3.75" stroke-linejoin="miter" stroke-miterlimit="2" points="1805.49,253.492 1805.49,226.846 2009.8,226.846 2009.8,253.492" />
<polyline class="TextLineSegment" fill="none" stroke="#000000" stroke-width="3.75" stroke-linejoin="miter" stroke-miterlimit="2" points="1595.2,253.492 1595.2,226.846 1778.84,226.846 1778.84,253.492" />
<polyline class="TextLineSegment" fill="none" stroke="#000000" stroke-width="3.75" stroke-linejoin="miter" stroke-miterlimit="2" points="373.838,873.297 492.455,873.297 492.455,899.943" />
<polyline class="TextLineSegment" fill="none" stroke="#000000" stroke-width="3.75" stroke-linejoin="miter" stroke-miterlimit="2" points="1394.29,253.492 1394.29,226.846 1568.55,226.846 1568.55,253.492" />
<polyline class="TextLineSegment" fill="none" stroke="#000000" stroke-width="3.75" stroke-linejoin="miter" stroke-miterlimit="2" points="630.579,887.569 630.579,860.923 911.691,860.923 911.691,887.569" />
<polyline class="TextLineSegment" fill="none" stroke="#000000" stroke-width="3.75" stroke-linejoin="miter" stroke-miterlimit="2" points="942.338,253.492 942.338,226.846 1146.65,226.846 1146.65,253.492" />
<polyline class="TextLineSegment" fill="none" stroke="#000000" stroke-width="3.75" stroke-linejoin="miter" stroke-miterlimit="2" points="938.337,874.246 938.337,847.6 1124.86,847.6 1124.86,874.246" />
<polyline class="TextLineSegment" fill="none" stroke="#000000" stroke-width="3.75" stroke-linejoin="miter" stroke-miterlimit="2" points="634.797,253.492 634.797,226.846 915.692,226.846 915.692,253.492" />
<polyline class="TextLineSegment" fill="none" stroke="#000000" stroke-width="3.75" stroke-linejoin="miter" stroke-miterlimit="2" points="1151.5,899.943 1151.5,873.297 1335.14,873.297 1335.14,899.943" />
<polyline class="TextLineSegment" fill="none" stroke="#000000" stroke-width="3.75" stroke-linejoin="miter" stroke-miterlimit="2" points="1361.79,1156.21 1361.79,1129.56 1575.93,1129.56 1575.93,1156.21" />
<polyline class="TextLineSegment" fill="none" stroke="#000000" stroke-width="3.75" stroke-linejoin="miter" stroke-miterlimit="2" points="1602.57,1157.87 1602.57,1131.23 1859.29,1131.23 1859.29,1157.87" />
<polyline class="TextLineSegment" fill="none" stroke="#000000" stroke-width="3.75" stroke-linejoin="miter" stroke-miterlimit="2" points="1595.2,533.271 1595.2,506.626 1778.84,506.626 1778.84,533.271" />
<polyline class="TextLineSegment" fill="none" stroke="#000000" stroke-width="3.75" stroke-linejoin="miter" stroke-miterlimit="2" points="1394.29,533.271 1394.29,506.626 1568.55,506.626 1568.55,533.271" />
<polyline class="TextLineSegment" fill="none" stroke="#000000" stroke-width="3.75" stroke-linejoin="miter" stroke-miterlimit="2" points="413.806,1179.72 413.806,1153.08 711.848,1153.08 711.848,1179.72" />
<polyline class="TextLineSegment" fill="none" stroke="#000000" stroke-width="3.75" stroke-linejoin="miter" stroke-miterlimit="2" points="1173.3,533.271 1173.3,506.626 1367.65,506.626 1367.65,533.271" />
<polyline class="TextLineSegment" fill="none" stroke="#000000" stroke-width="3.75" stroke-linejoin="miter" stroke-miterlimit="2" points="738.494,1179.72 738.494,1153.08 911.691,1153.08 911.691,1179.72" />
<polyline class="TextLineSegment" fill="none" stroke="#000000" stroke-width="3.75" stroke-linejoin="miter" stroke-miterlimit="2" points="938.337,1179.72 938.337,1153.08 1124.86,1153.08 1124.86,1179.72" />
<polyline class="TextLineSegment" fill="none" stroke="#000000" stroke-width="3.75" stroke-linejoin="miter" stroke-miterlimit="2" points="1151.5,1179.72 1151.5,1153.08 1335.14,1153.08 1335.14,1179.72" />
<polyline class="LyricsLineSegment" fill="none" stroke="#000000" stroke-width="2.66" stroke-linejoin="bevel" points="551.938,1374.01 567.925,1374.01" />
<polyline class="LyricsLineSegment" fill="none" stroke="#000000" stroke-width="2.66" stroke-linejoin="bevel" points="924.125,1374.01 940.113,1374.01" />
<polyline class="LyricsLineSegment" fill="none" stroke="#000000" stroke-width="2.66" stroke-linejoin="bevel" points="1296.31,1374.01 1312.3,1374.01" />
<polyline class="LyricsLineSegment" fill="none" stroke="#000000" stroke-width="2.66" stroke-linejoin="bevel" points="1668.5,1374.01 1684.49,1374.01" />
<polyline class="LyricsLineSegment" fill="none" stroke="#000000" stroke-width="2.66" stroke-linejoin="bevel" points="2040.69,1374.01 2056.67,1374.01" />
<polyline class="LyricsLineSegment" fill="none" stroke="#000000" stroke-width="2.66" stroke-linejoin="bevel" points="2412.87,1374.01 2428.86,1374.01" />
<polyline class="LyricsLineSegment" fill="none" stroke="#000000" stroke-width="2.66" stroke-linejoin="bevel" points="564.12,727.559 580.107,727.559" />
<polyline class="LyricsLineSegment" fill="none" stroke="#000000" stroke-width="2.66" stroke-linejoin="bevel" points="960.671,727.559 976.658,727.559" />
<polyline class="LyricsLineSegment" fill="none" stroke="#000000" stroke-width="2.66" stroke-linejoin="bevel" points="1357.22,727.559 1373.21,727.559" />
<polyline class="LyricsLineSegment" fill="none" stroke="#000000" stroke-width="2.66" stroke-linejoin="bevel" points="1753.77,727.559 1769.76,727.559" />
<polyline class="LyricsLineSegment" fill="none" stroke="#000000" stroke-width="2.66" stroke-linejoin="bevel" points="2150.32,727.559 2166.31,727.559" />
<polyline class="LyricsLineSegment" fill="none" stroke="#000000" stroke-width="2.66" stroke-linejoin="bevel" points="2546.88,727.559 2562.86,727.559" />
<path class="NoteDot" transform="matrix(1.06583,0,0,1.06583,1720.71,960.029)" d="M0,0 C0,2.8 2.2,5 5,5 C7.8,5 10,2.8 10,0 C10,-2.8 7.8,-5 5,-5 C2.2,-5 0,-2.8 0,0"/>
<path class="NoteDot" transform="matrix(1.06583,0,0,1.06583,1974.88,620.003)" d="M0,0 C0,2.8 2.2,5 5,5 C7.8,5 10,2.8 10,0 C10,-2.8 7.8,-5 5,-5 C2.2,-5 0,-2.8 0,0"/>
<path class="NoteDot" transform="matrix(1.06583,0,0,1.06583,1720.71,1293.1)" d="M0,0 C0,2.8 2.2,5 5,5 C7.8,5 10,2.8 10,0 C10,-2.8 7.8,-5 5,-5 C2.2,-5 0,-2.8 0,0"/>
<path class="NoteDot" transform="matrix(1.06583,0,0,1.06583,2416.86,593.357)" d="M0,0 C0,2.8 2.2,5 5,5 C7.8,5 10,2.8 10,0 C10,-2.8 7.8,-5 5,-5 C2.2,-5 0,-2.8 0,0"/>
<path class="NoteDot" transform="matrix(1.06583,0,0,1.06583,682.743,593.357)" d="M0,0 C0,2.8 2.2,5 5,5 C7.8,5 10,2.8 10,0 C10,-2.8 7.8,-5 5,-5 C2.2,-5 0,-2.8 0,0"/>
<polyline class="Bracket" fill="none" stroke="#000000" stroke-width="2.93" stroke-linejoin="bevel" points="173.829,920.06 173.829,1306.42" />
<polyline class="Bracket" fill="none" stroke="#000000" stroke-width="2.93" stroke-linejoin="bevel" points="172.363,920.06 188.617,920.06" />
<polyline class="Bracket" fill="none" stroke="#000000" stroke-width="2.93" stroke-linejoin="bevel" points="172.363,1306.42 188.617,1306.42" />
<polyline class="Bracket" fill="none" stroke="#000000" stroke-width="11.99" stroke-linejoin="bevel" points="194.613,900.742 194.613,1325.74" />
<path class="Bracket" transform="matrix(1.06583,0,0,1.06583,188.617,906.737)" d="M48.4,-27.7 C48.2,-27.8 47.9,-27.9 47.7,-27.9 C47.3,-27.9 46.8,-27.8 46.6,-27.4 C46.4,-27.1 36.4,-11.7 17.3,-11.7 L1.4,-11.7 C0.6,-11.7 0,-11.2 0,-10.4 L0,0 L12.2,0 C43,0 48.9,-25.7 49,-26 C49,-26.1 49.1,-26.3 49.1,-26.5 C49.1,-27 48.8,-27.4 48.4,-27.7"/>
<path class="Bracket" transform="matrix(1.06583,0,0,1.06583,188.617,1319.75)" d="M48.4,27.7 C48.8,27.4 49.1,27 49.1,26.5 C49.1,26.3 49,26.1 49,26 C48.9,25.7 43,0 12.2,0 L0,0 L0,10.4 C0,11.2 0.6,11.7 1.4,11.7 L17.3,11.7 C36.4,11.7 46.4,27.1 46.6,27.4 C46.8,27.8 47.3,27.9 47.7,27.9 C47.9,27.9 48.2,27.8 48.4,27.7"/>
<polyline class="Bracket" fill="none" stroke="#000000" stroke-width="11.99" stroke-linejoin="bevel" points="194.613,254.291 194.613,679.289" />
<path class="Bracket" transform="matrix(1.06583,0,0,1.06583,188.617,260.286)" d="M48.4,-27.7 C48.2,-27.8 47.9,-27.9 47.7,-27.9 C47.3,-27.9 46.8,-27.8 46.6,-27.4 C46.4,-27.1 36.4,-11.7 17.3,-11.7 L1.4,-11.7 C0.6,-11.7 0,-11.2 0,-10.4 L0,0 L12.2,0 C43,0 48.9,-25.7 49,-26 C49,-26.1 49.1,-26.3 49.1,-26.5 C49.1,-27 48.8,-27.4 48.4,-27.7"/>
<path class="Bracket" transform="matrix(1.06583,0,0,1.06583,188.617,673.294)" d="M48.4,27.7 C48.8,27.4 49.1,27 49.1,26.5 C49.1,26.3 49,26.1 49,26 C48.9,25.7 43,0 12.2,0 L0,0 L0,10.4 C0,11.2 0.6,11.7 1.4,11.7 L17.3,11.7 C36.4,11.7 46.4,27.1 46.6,27.4 C46.8,27.8 47.3,27.9 47.7,27.9 C47.9,27.9 48.2,27.8 48.4,27.7"/>
<polyline class="Bracket" fill="none" stroke="#000000" stroke-width="2.93" stroke-linejoin="bevel" points="173.829,273.609 173.829,659.971" />
<polyline class="Bracket" fill="none" stroke="#000000" stroke-width="2.93" stroke-linejoin="bevel" points="172.363,273.609 188.617,273.609" />
<polyline class="Bracket" fill="none" stroke="#000000" stroke-width="2.93" stroke-linejoin="bevel" points="172.363,659.971 188.617,659.971" />
</svg>
