<?xml version="1.0" encoding="UTF-8" standalone="no"?>
<svg width="210.058mm" height="296.926mm" viewBox="0 0 2977.2 4208.4"
 xmlns="http://www.w3.org/2000/svg" xmlns:xlink="http://www.w3.org/1999/xlink" version="1.2" baseProfile="full">
<title>CB034_w2 (5)</title>
<desc>Generated by MuseScore Studio 4.6.5</desc>
<polyline class="StaffLines" fill="none" stroke="#000000" stroke-width="2.93" stroke-linejoin="bevel" points="212.598,261.644 2764.6,261.644" />
<polyline class="StaffLines" fill="none" stroke="#000000" stroke-width="2.93" stroke-linejoin="bevel" points="212.598,288.29 2764.6,288.29" />
<polyline class="StaffLines" fill="none" stroke="#000000" stroke-width="2.93" stroke-linejoin="bevel" points="212.598,314.935 2764.6,314.935" />
<polyline class="StaffLines" fill="none" stroke="#000000" stroke-width="2.93" stroke-linejoin="bevel" points="212.598,341.581 2764.6,341.581" />
<polyline class="StaffLines" fill="none" stroke="#000000" stroke-width="2.93" stroke-linejoin="bevel" points="212.598,368.227 2764.6,368.227" />
<polyline class="StaffLines" fill="none" stroke="#000000" stroke-width="2.93" stroke-linejoin="bevel" points="212.598,541.424 2764.6,541.424" />
<polyline class="StaffLines" fill="none" stroke="#000000" stroke-width="2.93" stroke-linejoin="bevel" points="212.598,568.069 2764.6,568.069" />
<polyline class="StaffLines" fill="none" stroke="#000000" stroke-width="2.93" stroke-linejoin="bevel" points="212.598,594.715 2764.6,594.715" />
<polyline class="StaffLines" fill="none" stroke="#000000" stroke-width="2.93" stroke-linejoin="bevel" points="212.598,621.361 2764.6,621.361" />
<polyline class="StaffLines" fill="none" stroke="#000000" stroke-width="2.93" stroke-linejoin="bevel" points="212.598,648.006 2764.6,648.006" />
<polyline class="StaffLines" fill="none" stroke="#000000" stroke-width="2.93" stroke-linejoin="bevel" points="212.598,909.911 2764.6,909.911" />
<polyline class="StaffLines" fill="none" stroke="#000000" stroke-width="2.93" stroke-linejoin="bevel" points="212.598,936.557 2764.6,936.557" />
<polyline class="StaffLines" fill="none" stroke="#000000" stroke-width="2.93" stroke-linejoin="bevel" points="212.598,963.203 2764.6,963.203" />
<polyline class="StaffLines" fill="none" stroke="#000000" stroke-width="2.93" stroke-linejoin="bevel" points="212.598,989.848 2764.6,989.848" />
<polyline class="StaffLines" fill="none" stroke="#000000" stroke-width="2.93" stroke-linejoin="bevel" points="212.598,1016.49 2764.6,1016.49" />
<polyline class="StaffLines" fill="none" stroke="#000000" stroke-width="2.93" stroke-linejoin="bevel" points="212.598,1189.69 2764.6,1189.69" />
<polyline class="StaffLines" fill="none" stroke="#000000" stroke-width="2.93" stroke-linejoin="bevel" points="212.598,1216.34 2764.6,1216.34" />
<polyline class="StaffLines" fill="none" stroke="#000000" stroke-width="2.93" stroke-linejoin="bevel" points="212.598,1242.98 2764.6,1242.98" />
<polyline class="StaffLines" fill="none" stroke="#000000" stroke-width="2.93" stroke-linejoin="bevel" points="212.598,1269.63 2764.6,1269.63" />
<polyline class="StaffLines" fill="none" stroke="#000000" stroke-width="2.93" stroke-linejoin="bevel" points="212.598,1296.27 2764.6,1296.27" />
<polyline class="StaffLines" fill="none" stroke="#000000" stroke-width="2.93" stroke-linejoin="bevel" points="212.598,1558.18 1204.82,1558.18" />
<polyline class="StaffLines" fill="none" stroke="#000000" stroke-width="2.93" stroke-linejoin="bevel" points="212.598,1584.82 1204.82,1584.82" />
<polyline class="StaffLines" fill="none" stroke="#000000" stroke-width="2.93" stroke-linejoin="bevel" points="212.598,1611.47 1204.82,1611.47" />
<polyline class="StaffLines" fill="none" stroke="#000000" stroke-width="2.93" stroke-linejoin="bevel" points="212.598,1638.12 1204.82,1638.12" />
<polyline class="StaffLines" fill="none" stroke="#000000" stroke-width="2.93" stroke-linejoin="bevel" points="212.598,1664.76 1204.82,1664.76" />
<polyline class="StaffLines" fill="none" stroke="#000000" stroke-width="2.93" stroke-linejoin="bevel" points="212.598,1837.96 1204.82,1837.96" />
<polyline class="StaffLines" fill="none" stroke="#000000" stroke-width="2.93" stroke-linejoin="bevel" points="212.598,1864.6 1204.82,1864.6" />
<polyline class="StaffLines" fill="none" stroke="#000000" stroke-width="2.93" stroke-linejoin="bevel" points="212.598,1891.25 1204.82,1891.25" />
<polyline class="StaffLines" fill="none" stroke="#000000" stroke-width="2.93" stroke-linejoin="bevel" points="212.598,1917.9 1204.82,1917.9" />
<polyline class="StaffLines" fill="none" stroke="#000000" stroke-width="2.93" stroke-linejoin="bevel" points="212.598,1944.54 1204.82,1944.54" />
<polyline class="BarLine" fill="none" stroke="#000000" stroke-width="4.80" stroke-linejoin="bevel" points="214.996,260.179 214.996,541.424" />
<polyline class="BarLine" fill="none" stroke="#000000" stroke-width="4.80" stroke-linejoin="bevel" points="2532.11,935.091 2532.11,991.314" />
<polyline class="BarLine" fill="none" stroke="#000000" stroke-width="4.80" stroke-linejoin="bevel" points="2315.35,286.824 2315.35,343.047" />
<polyline class="BarLine" fill="none" stroke="#000000" stroke-width="4.80" stroke-linejoin="bevel" points="1677.09,935.091 1677.09,991.314" />
<polyline class="BarLine" fill="none" stroke="#000000" stroke-width="4.80" stroke-linejoin="bevel" points="1177.9,1556.71 1177.9,1666.23" />
<polyline class="BarLine" fill="none" stroke="#000000" stroke-width="14.66" stroke-linejoin="bevel" points="1197.49,1556.71 1197.49,1666.23" />
<polyline class="BarLine" fill="none" stroke="#000000" stroke-width="4.80" stroke-linejoin="bevel" points="214.996,908.446 214.996,1189.69" />
<polyline class="BarLine" fill="none" stroke="#000000" stroke-width="4.80" stroke-linejoin="bevel" points="1046.54,1583.36 1046.54,1639.58" />
<polyline class="BarLine" fill="none" stroke="#000000" stroke-width="4.80" stroke-linejoin="bevel" points="1630.02,286.824 1630.02,343.047" />
<polyline class="BarLine" fill="none" stroke="#000000" stroke-width="4.80" stroke-linejoin="bevel" points="806.788,935.091 806.788,991.314" />
<polyline class="BarLine" fill="none" stroke="#000000" stroke-width="4.80" stroke-linejoin="bevel" points="214.996,1556.71 214.996,1837.96" />
<polyline class="BarLine" fill="none" stroke="#000000" stroke-width="4.80" stroke-linejoin="bevel" points="1456.28,1214.87 1456.28,1271.09" />
<polyline class="BarLine" fill="none" stroke="#000000" stroke-width="4.80" stroke-linejoin="bevel" points="214.996,539.958 214.996,649.472" />
<polyline class="BarLine" fill="none" stroke="#000000" stroke-width="4.80" stroke-linejoin="bevel" points="2076.87,566.604 2076.87,622.826" />
<polyline class="BarLine" fill="none" stroke="#000000" stroke-width="4.80" stroke-linejoin="bevel" points="1177.9,1836.49 1177.9,1946.01" />
<polyline class="BarLine" fill="none" stroke="#000000" stroke-width="14.66" stroke-linejoin="bevel" points="1197.49,1836.49 1197.49,1946.01" />
<polyline class="BarLine" fill="none" stroke="#000000" stroke-width="4.80" stroke-linejoin="bevel" points="1046.54,1863.14 1046.54,1919.36" />
<polyline class="BarLine" fill="none" stroke="#000000" stroke-width="4.80" stroke-linejoin="bevel" points="214.996,1188.23 214.996,1297.74" />
<polyline class="BarLine" fill="none" stroke="#000000" stroke-width="4.80" stroke-linejoin="bevel" points="1630.02,566.604 1630.02,622.826" />
<polyline class="BarLine" fill="none" stroke="#000000" stroke-width="4.80" stroke-linejoin="bevel" points="214.996,1836.49 214.996,1946.01" />
<polyline class="BarLine" fill="none" stroke="#000000" stroke-width="4.80" stroke-linejoin="bevel" points="1027.6,1214.87 1027.6,1271.09" />
<path class="SlurSegment" stroke="#000000" stroke-width="1.33" stroke-linecap="round" stroke-linejoin="round" fill-rule="evenodd" d="M533.416,1574.17 C539.767,1552.59 567.046,1548.92 578.882,1568.04 C567.861,1554.96 540.581,1558.64 533.416,1574.17"/>
<path class="SlurSegment" stroke="#000000" stroke-width="1.33" stroke-linecap="round" stroke-linejoin="round" fill-rule="evenodd" d="M2125.48,885.93 C2156.07,869.073 2195.55,885.993 2204.43,919.77 C2192.69,892.655 2153.22,875.735 2125.48,885.93"/>
<path class="SlurSegment" stroke="#000000" stroke-width="1.33" stroke-linecap="round" stroke-linejoin="round" fill-rule="evenodd" d="M1048.29,347.71 C1068.32,367.193 1108.4,367.193 1128.44,347.71 C1108.4,374.44 1068.32,374.44 1048.29,347.71"/>
<path class="SlurSegment" stroke="#000000" stroke-width="1.33" stroke-linecap="round" stroke-linejoin="round" fill-rule="evenodd" d="M831.876,535.295 C860.54,516.009 900.616,529.332 912.028,561.941 C898.329,536.209 858.254,522.886 831.876,535.295"/>
<path class="SlurSegment" stroke="#000000" stroke-width="1.33" stroke-linecap="round" stroke-linejoin="round" fill-rule="evenodd" d="M2585.12,1275.76 C2603.34,1294.2 2639.79,1294.2 2658.01,1275.76 C2639.79,1301.38 2603.34,1301.38 2585.12,1275.76"/>
<polyline class="Stem" fill="none" stroke="#000000" stroke-width="2.66" stroke-linejoin="bevel" points="556.442,972.262 556.442,890.14" />
<polyline class="Stem" fill="none" stroke="#000000" stroke-width="2.66" stroke-linejoin="bevel" points="815.897,292.766 815.897,381.55" />
<polyline class="Stem" fill="none" stroke="#000000" stroke-width="2.66" stroke-linejoin="bevel" points="415.139,306.089 415.139,388.211" />
<polyline class="Stem" fill="none" stroke="#000000" stroke-width="2.66" stroke-linejoin="bevel" points="1064.28,310.672 1064.28,241.724" />
<polyline class="Stem" fill="none" stroke="#000000" stroke-width="2.66" stroke-linejoin="bevel" points="1246.85,954.356 1246.85,1036.48" />
<polyline class="Stem" fill="none" stroke="#000000" stroke-width="2.66" stroke-linejoin="bevel" points="1173.96,927.711 1173.96,1016.39" />
<polyline class="Stem" fill="none" stroke="#000000" stroke-width="2.66" stroke-linejoin="bevel" points="1371.87,941.033 1371.87,1029.71" />
<polyline class="Stem" fill="none" stroke="#000000" stroke-width="2.66" stroke-linejoin="bevel" points="2352.39,306.089 2352.39,388.211" />
<polyline class="Stem" fill="none" stroke="#000000" stroke-width="2.66" stroke-linejoin="bevel" points="1200.54,337.318 1200.54,248.257" />
<polyline class="Stem" fill="none" stroke="#000000" stroke-width="1.87" stroke-linejoin="bevel" points="1139.63,325.274 1139.63,245.337" />
<polyline class="Stem" fill="none" stroke="#000000" stroke-width="2.66" stroke-linejoin="bevel" points="1064.63,941.033 1064.63,1029.82" />
<polyline class="Stem" fill="none" stroke="#000000" stroke-width="2.66" stroke-linejoin="bevel" points="1493.32,914.388 1493.32,1003.17" />
<polyline class="Stem" fill="none" stroke="#000000" stroke-width="2.66" stroke-linejoin="bevel" points="2472.62,306.089 2472.62,388.104" />
<polyline class="Stem" fill="none" stroke="#000000" stroke-width="2.66" stroke-linejoin="bevel" points="535.366,306.089 535.366,388.104" />
<polyline class="Stem" fill="none" stroke="#000000" stroke-width="2.66" stroke-linejoin="bevel" points="1460.55,337.318 1460.55,248.321" />
<polyline class="Stem" fill="none" stroke="#000000" stroke-width="2.66" stroke-linejoin="bevel" points="953.154,927.711 953.154,1016.39" />
<polyline class="Stem" fill="none" stroke="#000000" stroke-width="1.87" stroke-linejoin="bevel" points="567.697,1587.96 567.697,1678.2" />
<polyline class="Stem" fill="none" stroke="#000000" stroke-width="2.66" stroke-linejoin="bevel" points="517.437,1602.62 517.437,1684.58" />
<polyline class="Stem" fill="none" stroke="#000000" stroke-width="2.66" stroke-linejoin="bevel" points="2145.88,350.641 2145.88,261.644" />
<polyline class="Stem" fill="none" stroke="#000000" stroke-width="2.66" stroke-linejoin="bevel" points="1714.13,914.388 1714.13,1003.17" />
<polyline class="Stem" fill="none" stroke="#000000" stroke-width="2.66" stroke-linejoin="bevel" points="415.139,1602.62 415.139,1684.75" />
<polyline class="Stem" fill="none" stroke="#000000" stroke-width="2.66" stroke-linejoin="bevel" points="2552.77,319.412 2552.77,394.872" />
<polyline class="Stem" fill="none" stroke="#000000" stroke-width="2.66" stroke-linejoin="bevel" points="615.518,319.412 615.518,394.872" />
<polyline class="Stem" fill="none" stroke="#000000" stroke-width="2.66" stroke-linejoin="bevel" points="843.825,914.388 843.825,1003.17" />
<polyline class="Stem" fill="none" stroke="#000000" stroke-width="2.66" stroke-linejoin="bevel" points="1823.45,941.033 1823.45,1029.71" />
<polyline class="Stem" fill="none" stroke="#000000" stroke-width="2.66" stroke-linejoin="bevel" points="629.328,985.585 629.328,896.588" />
<polyline class="Stem" fill="none" stroke="#000000" stroke-width="2.66" stroke-linejoin="bevel" points="2680.67,319.412 2680.67,401.427" />
<polyline class="Stem" fill="none" stroke="#000000" stroke-width="2.66" stroke-linejoin="bevel" points="1667.06,319.412 1667.06,394.872" />
<polyline class="Stem" fill="none" stroke="#000000" stroke-width="2.66" stroke-linejoin="bevel" points="1896.34,927.711 1896.34,1016.49" />
<polyline class="Stem" fill="none" stroke="#000000" stroke-width="2.66" stroke-linejoin="bevel" points="2024.24,901.065 2024.24,989.742" />
<polyline class="Stem" fill="none" stroke="#000000" stroke-width="2.66" stroke-linejoin="bevel" points="735.745,306.089 735.745,388.104" />
<polyline class="Stem" fill="none" stroke="#000000" stroke-width="2.66" stroke-linejoin="bevel" points="2024.43,323.995 2024.43,241.873" />
<polyline class="Stem" fill="none" stroke="#000000" stroke-width="2.66" stroke-linejoin="bevel" points="984.129,337.318 984.129,248.534" />
<polyline class="Stem" fill="none" stroke="#000000" stroke-width="2.66" stroke-linejoin="bevel" points="447.114,972.262 447.114,889.927" />
<polyline class="Stem" fill="none" stroke="#000000" stroke-width="2.66" stroke-linejoin="bevel" points="2693.05,967.679 2693.05,1049.69" />
<polyline class="Stem" fill="none" stroke="#000000" stroke-width="2.66" stroke-linejoin="bevel" points="2109.51,914.388 2109.51,1009.83" />
<polyline class="Stem" fill="none" stroke="#000000" stroke-width="1.87" stroke-linejoin="bevel" points="2193.25,939.691 2193.25,1009.83" />
<polyline class="Stem" fill="none" stroke="#000000" stroke-width="2.66" stroke-linejoin="bevel" points="1819.26,323.995 1819.26,241.873" />
<polyline class="Stem" fill="none" stroke="#000000" stroke-width="2.66" stroke-linejoin="bevel" points="2243.72,927.711 2243.72,1009.83" />
<polyline class="Stem" fill="none" stroke="#000000" stroke-width="2.66" stroke-linejoin="bevel" points="2569.14,954.356 2569.14,1036.48" />
<polyline class="Stem" fill="none" stroke="#000000" stroke-width="2.66" stroke-linejoin="bevel" points="1899.41,337.318 1899.41,248.321" />
<polyline class="Stem" fill="none" stroke="#000000" stroke-width="2.66" stroke-linejoin="bevel" points="2322.67,941.033 2322.67,1029.82" />
<polyline class="Stem" fill="none" stroke="#000000" stroke-width="2.66" stroke-linejoin="bevel" points="1280.69,350.641 1280.69,261.644" />
<polyline class="Stem" fill="none" stroke="#000000" stroke-width="2.66" stroke-linejoin="bevel" points="2447.69,1234.14 2447.69,1316.15" />
<polyline class="Stem" fill="none" stroke="#000000" stroke-width="2.66" stroke-linejoin="bevel" points="615.518,572.546 615.518,661.329" />
<polyline class="Stem" fill="none" stroke="#000000" stroke-width="2.66" stroke-linejoin="bevel" points="735.745,559.223 735.745,647.9" />
<polyline class="Stem" fill="none" stroke="#000000" stroke-width="2.66" stroke-linejoin="bevel" points="815.897,572.546 815.897,648.006" />
<polyline class="Stem" fill="none" stroke="#000000" stroke-width="1.87" stroke-linejoin="bevel" points="900.842,584.526 900.842,648.006" />
<polyline class="Stem" fill="none" stroke="#000000" stroke-width="2.66" stroke-linejoin="bevel" points="2243.72,1234.14 2243.72,1316.15" />
<polyline class="Stem" fill="none" stroke="#000000" stroke-width="2.66" stroke-linejoin="bevel" points="2601.12,1238.72 2601.12,1169.78" />
<polyline class="Stem" fill="none" stroke="#000000" stroke-width="1.87" stroke-linejoin="bevel" points="2669.21,1253.32 2669.21,1173.36" />
<polyline class="Stem" fill="none" stroke="#000000" stroke-width="2.66" stroke-linejoin="bevel" points="1867.44,585.869 1867.44,667.991" />
<polyline class="Stem" fill="none" stroke="#000000" stroke-width="2.66" stroke-linejoin="bevel" points="2109.51,1247.46 2109.51,1322.92" />
<polyline class="Stem" fill="none" stroke="#000000" stroke-width="2.66" stroke-linejoin="bevel" points="415.139,585.869 415.139,667.991" />
<polyline class="Stem" fill="none" stroke="#000000" stroke-width="2.66" stroke-linejoin="bevel" points="1246.85,1234.14 1246.85,1316.26" />
<polyline class="Stem" fill="none" stroke="#000000" stroke-width="2.66" stroke-linejoin="bevel" points="1280.69,603.775 1280.69,521.439" />
<polyline class="Stem" fill="none" stroke="#000000" stroke-width="2.66" stroke-linejoin="bevel" points="2113.91,599.191 2113.91,674.652" />
<polyline class="Stem" fill="none" stroke="#000000" stroke-width="2.66" stroke-linejoin="bevel" points="1064.63,1247.46 1064.63,1322.92" />
<polyline class="Stem" fill="none" stroke="#000000" stroke-width="2.66" stroke-linejoin="bevel" points="2725.02,1265.36 2725.02,1176.3" />
<polyline class="Stem" fill="none" stroke="#000000" stroke-width="2.66" stroke-linejoin="bevel" points="2384.37,603.775 2384.37,521.439" />
<polyline class="Stem" fill="none" stroke="#000000" stroke-width="2.66" stroke-linejoin="bevel" points="447.114,1278.69 447.114,1189.69" />
<polyline class="Stem" fill="none" stroke="#000000" stroke-width="2.66" stroke-linejoin="bevel" points="2056.21,1265.36 2056.21,1176.58" />
<polyline class="Stem" fill="none" stroke="#000000" stroke-width="2.66" stroke-linejoin="bevel" points="1525.29,1278.69 1525.29,1189.69" />
<polyline class="Stem" fill="none" stroke="#000000" stroke-width="2.66" stroke-linejoin="bevel" points="1634.62,1265.36 1634.62,1176.58" />
<polyline class="Stem" fill="none" stroke="#000000" stroke-width="2.66" stroke-linejoin="bevel" points="2712.64,617.097 2712.64,528.314" />
<polyline class="Stem" fill="none" stroke="#000000" stroke-width="2.66" stroke-linejoin="bevel" points="1064.28,617.097 1064.28,528.101" />
<polyline class="Stem" fill="none" stroke="#000000" stroke-width="2.66" stroke-linejoin="bevel" points="2504.59,603.775 2504.59,521.653" />
<polyline class="Stem" fill="none" stroke="#000000" stroke-width="2.66" stroke-linejoin="bevel" points="1928.32,1252.04 1928.32,1169.71" />
<polyline class="Stem" fill="none" stroke="#000000" stroke-width="2.66" stroke-linejoin="bevel" points="1667.06,599.191 1667.06,674.652" />
<polyline class="Stem" fill="none" stroke="#000000" stroke-width="2.66" stroke-linejoin="bevel" points="447.114,1926.95 447.114,1837.96" />
<polyline class="Stem" fill="none" stroke="#000000" stroke-width="2.66" stroke-linejoin="bevel" points="875.8,1278.69 875.8,1189.69" />
<polyline class="Stem" fill="none" stroke="#000000" stroke-width="2.66" stroke-linejoin="bevel" points="1714.13,1247.46 1714.13,1322.92" />
<polyline class="Stem" fill="none" stroke="#000000" stroke-width="2.66" stroke-linejoin="bevel" points="952.155,572.546 952.155,648.006" />
<polyline class="Stem" fill="none" stroke="#000000" stroke-width="2.66" stroke-linejoin="bevel" points="629.328,1265.36 629.328,1176.37" />
<polyline class="Stem" fill="none" stroke="#000000" stroke-width="2.66" stroke-linejoin="bevel" points="2234.14,599.191 2234.14,681.207" />
<polyline class="Stem" fill="none" stroke="#000000" stroke-width="2.66" stroke-linejoin="bevel" points="2584.74,617.097 2584.74,528.101" />
<polyline class="Stem" fill="none" stroke="#000000" stroke-width="2.66" stroke-linejoin="bevel" points="1823.45,1247.46 1823.45,1329.47" />
<polyline class="Stem" fill="none" stroke="#000000" stroke-width="2.66" stroke-linejoin="bevel" points="1460.55,617.097 1460.55,528.101" />
<polyline class="Stem" fill="none" stroke="#000000" stroke-width="2.66" stroke-linejoin="bevel" points="2322.67,1220.81 2322.67,1309.6" />
<path class="Hook" transform="matrix(1.06583,0,0,1.06583,2691.72,1049.8)" d="M0,-0.1 C0,0.6 0.6,1.2 1.3,1.2 C1.8,1.2 2.4,0.8 2.5,0.4 C2.5,0.3 3.4,-3.2 3.5,-3.5 C3.6,-3.9 4.5,-7.7 8.1,-13.6 C12,-20.1 18,-24.8 23,-31.8 C27.9,-38.8 30.9,-45.4 30.9,-54.2 C30.9,-63.3 28.8,-70.9 23.5,-80.6 C23.2,-81.3 22.6,-81.7 22,-81.7 C21.8,-81.7 21.6,-81.7 21.5,-81.6 C21,-81.4 20.8,-81 20.8,-80.4 C20.8,-80.1 20.9,-79.6 21.1,-79.2 C25.1,-69.9 26.7,-64.6 26.7,-57.4 C26.7,-49.1 23.8,-44.8 22,-41.7 C15.5,-30.6 5,-25.2 0.8,-23.8 C0.1,-23.5 0,-23 0,-22.7 L0,-0.1 "/>
<path class="Hook" transform="matrix(1.06583,0,0,1.06583,2023.1,241.66)" d="M0,22.7 C0,23 0.1,23.5 0.8,23.8 C5.1,25.2 13.7,30.6 20.2,41.7 C22,44.8 24.9,49.1 24.9,57.4 C24.9,64.6 23,72 20.4,79.2 C20.2,79.8 20,80.3 20.1,80.7 C20.1,81.3 20.5,81.7 21.1,81.7 C21.8,81.7 22.3,81.3 22.7,80.6 C27.2,72.6 28.9,63.3 28.9,54.2 C28.4,41.3 21,31.8 21,31.8 C21.3,31.8 11.8,19.5 9.1,15.3 C5.4,9.6 3.7,3.9 3.5,3.5 C3.4,3.2 2.5,-0.4 2.5,-0.4 C2.4,-0.8 1.9,-1.2 1.3,-1.2 C0.6,-1.2 0,-0.6 0,0.1 L0,22.7 "/>
<path class="Hook" transform="matrix(1.06583,0,0,1.06583,734.413,388.211)" d="M0,-0.1 C0,0.6 0.6,1.2 1.3,1.2 C1.8,1.2 2.4,0.8 2.5,0.4 C2.5,0.3 3.4,-3.2 3.5,-3.5 C3.6,-3.9 4.5,-7.7 8.1,-13.6 C12,-20.1 18,-24.8 23,-31.8 C27.9,-38.8 30.9,-45.4 30.9,-54.2 C30.9,-63.3 28.8,-70.9 23.5,-80.6 C23.2,-81.3 22.6,-81.7 22,-81.7 C21.8,-81.7 21.6,-81.7 21.5,-81.6 C21,-81.4 20.8,-81 20.8,-80.4 C20.8,-80.1 20.9,-79.6 21.1,-79.2 C25.1,-69.9 26.7,-64.6 26.7,-57.4 C26.7,-49.1 23.8,-44.8 22,-41.7 C15.5,-30.6 5,-25.2 0.8,-23.8 C0.1,-23.5 0,-23 0,-22.7 L0,-0.1 "/>
<path class="Hook" transform="matrix(1.06583,0,0,1.06583,951.821,1016.49)" d="M0,-0.1 C0,0.6 0.6,1.2 1.3,1.2 C1.8,1.2 2.4,0.8 2.5,0.4 C2.5,0.3 3.4,-3.2 3.5,-3.5 C3.6,-3.9 4.5,-7.7 8.1,-13.6 C12,-20.1 18,-24.8 23,-31.8 C27.9,-38.8 30.9,-45.4 30.9,-54.2 C30.9,-63.3 28.8,-70.9 23.5,-80.6 C23.2,-81.3 22.6,-81.7 22,-81.7 C21.8,-81.7 21.6,-81.7 21.5,-81.6 C21,-81.4 20.8,-81 20.8,-80.4 C20.8,-80.1 20.9,-79.6 21.1,-79.2 C25.1,-69.9 26.7,-64.6 26.7,-57.4 C26.7,-49.1 23.8,-44.8 22,-41.7 C15.5,-30.6 5,-25.2 0.8,-23.8 C0.1,-23.5 0,-23 0,-22.7 L0,-0.1 "/>
<path class="Hook" transform="matrix(1.06583,0,0,1.06583,2022.91,989.848)" d="M0,-0.1 C0,0.6 0.6,1.2 1.3,1.2 C1.8,1.2 2.4,0.8 2.5,0.4 C2.5,0.3 3.4,-3.2 3.5,-3.5 C3.6,-3.9 4.5,-7.7 8.1,-13.6 C12,-20.1 18,-24.8 23,-31.8 C27.9,-38.8 30.9,-45.4 30.9,-54.2 C30.9,-63.3 28.8,-70.9 23.5,-80.6 C23.2,-81.3 22.6,-81.7 22,-81.7 C21.8,-81.7 21.6,-81.7 21.5,-81.6 C21,-81.4 20.8,-81 20.8,-80.4 C20.8,-80.1 20.9,-79.6 21.1,-79.2 C25.1,-69.9 26.7,-64.6 26.7,-57.4 C26.7,-49.1 23.8,-44.8 22,-41.7 C15.5,-30.6 5,-25.2 0.8,-23.8 C0.1,-23.5 0,-23 0,-22.7 L0,-0.1 "/>
<path class="Hook" transform="matrix(1.06583,0,0,1.06583,555.11,889.927)" d="M0,22.7 C0,23 0.1,23.5 0.8,23.8 C5.1,25.2 13.7,30.6 20.2,41.7 C22,44.8 24.9,49.1 24.9,57.4 C24.9,64.6 23,72 20.4,79.2 C20.2,79.8 20,80.3 20.1,80.7 C20.1,81.3 20.5,81.7 21.1,81.7 C21.8,81.7 22.3,81.3 22.7,80.6 C27.2,72.6 28.9,63.3 28.9,54.2 C28.4,41.3 21,31.8 21,31.8 C21.3,31.8 11.8,19.5 9.1,15.3 C5.4,9.6 3.7,3.9 3.5,3.5 C3.4,3.2 2.5,-0.4 2.5,-0.4 C2.4,-0.8 1.9,-1.2 1.3,-1.2 C0.6,-1.2 0,-0.6 0,0.1 L0,22.7 "/>
<path class="Hook" transform="matrix(1.06583,0,0,1.06583,1817.93,241.66)" d="M0,22.7 C0,23 0.1,23.5 0.8,23.8 C5.1,25.2 13.7,30.6 20.2,41.7 C22,44.8 24.9,49.1 24.9,57.4 C24.9,64.6 23,72 20.4,79.2 C20.2,79.8 20,80.3 20.1,80.7 C20.1,81.3 20.5,81.7 21.1,81.7 C21.8,81.7 22.3,81.3 22.7,80.6 C27.2,72.6 28.9,63.3 28.9,54.2 C28.4,41.3 21,31.8 21,31.8 C21.3,31.8 11.8,19.5 9.1,15.3 C5.4,9.6 3.7,3.9 3.5,3.5 C3.4,3.2 2.5,-0.4 2.5,-0.4 C2.4,-0.8 1.9,-1.2 1.3,-1.2 C0.6,-1.2 0,-0.6 0,0.1 L0,22.7 "/>
<path class="Hook" transform="matrix(1.06583,0,0,1.06583,1822.12,1029.82)" d="M0,-0.1 C0,0.6 0.6,1.2 1.3,1.2 C1.8,1.2 2.4,0.8 2.5,0.4 C2.5,0.3 3.4,-3.2 3.5,-3.5 C3.6,-3.9 4.5,-7.7 8.1,-13.6 C12,-20.1 18,-24.8 23,-31.8 C27.9,-38.8 30.9,-45.4 30.9,-54.2 C30.9,-63.3 28.8,-70.9 23.5,-80.6 C23.2,-81.3 22.6,-81.7 22,-81.7 C21.8,-81.7 21.6,-81.7 21.5,-81.6 C21,-81.4 20.8,-81 20.8,-80.4 C20.8,-80.1 20.9,-79.6 21.1,-79.2 C25.1,-69.9 26.7,-64.6 26.7,-57.4 C26.7,-49.1 23.8,-44.8 22,-41.7 C15.5,-30.6 5,-25.2 0.8,-23.8 C0.1,-23.5 0,-23 0,-22.7 L0,-0.1 "/>
<path class="Hook" transform="matrix(1.06583,0,0,1.06583,2471.29,388.211)" d="M0,-0.1 C0,0.6 0.6,1.2 1.3,1.2 C1.8,1.2 2.4,0.8 2.5,0.4 C2.5,0.3 3.4,-3.2 3.5,-3.5 C3.6,-3.9 4.5,-7.7 8.1,-13.6 C12,-20.1 18,-24.8 23,-31.8 C27.9,-38.8 30.9,-45.4 30.9,-54.2 C30.9,-63.3 28.8,-70.9 23.5,-80.6 C23.2,-81.3 22.6,-81.7 22,-81.7 C21.8,-81.7 21.6,-81.7 21.5,-81.6 C21,-81.4 20.8,-81 20.8,-80.4 C20.8,-80.1 20.9,-79.6 21.1,-79.2 C25.1,-69.9 26.7,-64.6 26.7,-57.4 C26.7,-49.1 23.8,-44.8 22,-41.7 C15.5,-30.6 5,-25.2 0.8,-23.8 C0.1,-23.5 0,-23 0,-22.7 L0,-0.1 "/>
<path class="Hook" transform="matrix(1.06583,0,0,1.06583,534.034,388.211)" d="M0,-0.1 C0,0.6 0.6,1.2 1.3,1.2 C1.8,1.2 2.4,0.8 2.5,0.4 C2.5,0.3 3.4,-3.2 3.5,-3.5 C3.6,-3.9 4.5,-7.7 8.1,-13.6 C12,-20.1 18,-24.8 23,-31.8 C27.9,-38.8 30.9,-45.4 30.9,-54.2 C30.9,-63.3 28.8,-70.9 23.5,-80.6 C23.2,-81.3 22.6,-81.7 22,-81.7 C21.8,-81.7 21.6,-81.7 21.5,-81.6 C21,-81.4 20.8,-81 20.8,-80.4 C20.8,-80.1 20.9,-79.6 21.1,-79.2 C25.1,-69.9 26.7,-64.6 26.7,-57.4 C26.7,-49.1 23.8,-44.8 22,-41.7 C15.5,-30.6 5,-25.2 0.8,-23.8 C0.1,-23.5 0,-23 0,-22.7 L0,-0.1 "/>
<path class="Hook" transform="matrix(1.06583,0,0,1.06583,1370.54,1029.82)" d="M0,-0.1 C0,0.6 0.6,1.2 1.3,1.2 C1.8,1.2 2.4,0.8 2.5,0.4 C2.5,0.3 3.4,-3.2 3.5,-3.5 C3.6,-3.9 4.5,-7.7 8.1,-13.6 C12,-20.1 18,-24.8 23,-31.8 C27.9,-38.8 30.9,-45.4 30.9,-54.2 C30.9,-63.3 28.8,-70.9 23.5,-80.6 C23.2,-81.3 22.6,-81.7 22,-81.7 C21.8,-81.7 21.6,-81.7 21.5,-81.6 C21,-81.4 20.8,-81 20.8,-80.4 C20.8,-80.1 20.9,-79.6 21.1,-79.2 C25.1,-69.9 26.7,-64.6 26.7,-57.4 C26.7,-49.1 23.8,-44.8 22,-41.7 C15.5,-30.6 5,-25.2 0.8,-23.8 C0.1,-23.5 0,-23 0,-22.7 L0,-0.1 "/>
<path class="Hook" transform="matrix(1.06583,0,0,1.06583,1172.63,1016.49)" d="M0,-0.1 C0,0.6 0.6,1.2 1.3,1.2 C1.8,1.2 2.4,0.8 2.5,0.4 C2.5,0.3 3.4,-3.2 3.5,-3.5 C3.6,-3.9 4.5,-7.7 8.1,-13.6 C12,-20.1 18,-24.8 23,-31.8 C27.9,-38.8 30.9,-45.4 30.9,-54.2 C30.9,-63.3 28.8,-70.9 23.5,-80.6 C23.2,-81.3 22.6,-81.7 22,-81.7 C21.8,-81.7 21.6,-81.7 21.5,-81.6 C21,-81.4 20.8,-81 20.8,-80.4 C20.8,-80.1 20.9,-79.6 21.1,-79.2 C25.1,-69.9 26.7,-64.6 26.7,-57.4 C26.7,-49.1 23.8,-44.8 22,-41.7 C15.5,-30.6 5,-25.2 0.8,-23.8 C0.1,-23.5 0,-23 0,-22.7 L0,-0.1 "/>
<path class="Hook" transform="matrix(1.06583,0,0,1.06583,982.797,248.321)" d="M0,22.7 C0,23 0.1,23.5 0.8,23.8 C5.1,25.2 13.7,30.6 20.2,41.7 C22,44.8 24.9,49.1 24.9,57.4 C24.9,64.6 23,72 20.4,79.2 C20.2,79.8 20,80.3 20.1,80.7 C20.1,81.3 20.5,81.7 21.1,81.7 C21.8,81.7 22.3,81.3 22.7,80.6 C27.2,72.6 28.9,63.3 28.9,54.2 C28.4,41.3 21,31.8 21,31.8 C21.3,31.8 11.8,19.5 9.1,15.3 C5.4,9.6 3.7,3.9 3.5,3.5 C3.4,3.2 2.5,-0.4 2.5,-0.4 C2.4,-0.8 1.9,-1.2 1.3,-1.2 C0.6,-1.2 0,-0.6 0,0.1 L0,22.7 "/>
<path class="Hook" transform="matrix(1.06583,0,0,1.06583,2679.34,401.534)" d="M0,-0.1 C0,0.6 0.6,1.2 1.3,1.2 C1.8,1.2 2.4,0.8 2.5,0.4 C2.5,0.3 3.4,-3.2 3.5,-3.5 C3.6,-3.9 4.5,-7.7 8.1,-13.6 C12,-20.1 18,-24.8 23,-31.8 C27.9,-38.8 30.9,-45.4 30.9,-54.2 C30.9,-63.3 28.8,-70.9 23.5,-80.6 C23.2,-81.3 22.6,-81.7 22,-81.7 C21.8,-81.7 21.6,-81.7 21.5,-81.6 C21,-81.4 20.8,-81 20.8,-80.4 C20.8,-80.1 20.9,-79.6 21.1,-79.2 C25.1,-69.9 26.7,-64.6 26.7,-57.4 C26.7,-49.1 23.8,-44.8 22,-41.7 C15.5,-30.6 5,-25.2 0.8,-23.8 C0.1,-23.5 0,-23 0,-22.7 L0,-0.1 "/>
<path class="Hook" transform="matrix(1.06583,0,0,1.06583,1633.29,1176.37)" d="M0,22.7 C0,23 0.1,23.5 0.8,23.8 C5.1,25.2 13.7,30.6 20.2,41.7 C22,44.8 24.9,49.1 24.9,57.4 C24.9,64.6 23,72 20.4,79.2 C20.2,79.8 20,80.3 20.1,80.7 C20.1,81.3 20.5,81.7 21.1,81.7 C21.8,81.7 22.3,81.3 22.7,80.6 C27.2,72.6 28.9,63.3 28.9,54.2 C28.4,41.3 21,31.8 21,31.8 C21.3,31.8 11.8,19.5 9.1,15.3 C5.4,9.6 3.7,3.9 3.5,3.5 C3.4,3.2 2.5,-0.4 2.5,-0.4 C2.4,-0.8 1.9,-1.2 1.3,-1.2 C0.6,-1.2 0,-0.6 0,0.1 L0,22.7 "/>
<path class="Hook" transform="matrix(1.06583,0,0,1.06583,2503.26,521.439)" d="M0,22.7 C0,23 0.1,23.5 0.8,23.8 C5.1,25.2 13.7,30.6 20.2,41.7 C22,44.8 24.9,49.1 24.9,57.4 C24.9,64.6 23,72 20.4,79.2 C20.2,79.8 20,80.3 20.1,80.7 C20.1,81.3 20.5,81.7 21.1,81.7 C21.8,81.7 22.3,81.3 22.7,80.6 C27.2,72.6 28.9,63.3 28.9,54.2 C28.4,41.3 21,31.8 21,31.8 C21.3,31.8 11.8,19.5 9.1,15.3 C5.4,9.6 3.7,3.9 3.5,3.5 C3.4,3.2 2.5,-0.4 2.5,-0.4 C2.4,-0.8 1.9,-1.2 1.3,-1.2 C0.6,-1.2 0,-0.6 0,0.1 L0,22.7 "/>
<path class="Hook" transform="matrix(1.06583,0,0,1.06583,2711.31,528.101)" d="M0,22.7 C0,23 0.1,23.5 0.8,23.8 C5.1,25.2 13.7,30.6 20.2,41.7 C22,44.8 24.9,49.1 24.9,57.4 C24.9,64.6 23,72 20.4,79.2 C20.2,79.8 20,80.3 20.1,80.7 C20.1,81.3 20.5,81.7 21.1,81.7 C21.8,81.7 22.3,81.3 22.7,80.6 C27.2,72.6 28.9,63.3 28.9,54.2 C28.4,41.3 21,31.8 21,31.8 C21.3,31.8 11.8,19.5 9.1,15.3 C5.4,9.6 3.7,3.9 3.5,3.5 C3.4,3.2 2.5,-0.4 2.5,-0.4 C2.4,-0.8 1.9,-1.2 1.3,-1.2 C0.6,-1.2 0,-0.6 0,0.1 L0,22.7 "/>
<path class="Hook" transform="matrix(1.06583,0,0,1.06583,734.413,648.006)" d="M0,-0.1 C0,0.6 0.6,1.2 1.3,1.2 C1.8,1.2 2.4,0.8 2.5,0.4 C2.5,0.3 3.4,-3.2 3.5,-3.5 C3.6,-3.9 4.5,-7.7 8.1,-13.6 C12,-20.1 18,-24.8 23,-31.8 C27.9,-38.8 30.9,-45.4 30.9,-54.2 C30.9,-63.3 28.8,-70.9 23.5,-80.6 C23.2,-81.3 22.6,-81.7 22,-81.7 C21.8,-81.7 21.6,-81.7 21.5,-81.6 C21,-81.4 20.8,-81 20.8,-80.4 C20.8,-80.1 20.9,-79.6 21.1,-79.2 C25.1,-69.9 26.7,-64.6 26.7,-57.4 C26.7,-49.1 23.8,-44.8 22,-41.7 C15.5,-30.6 5,-25.2 0.8,-23.8 C0.1,-23.5 0,-23 0,-22.7 L0,-0.1 "/>
<path class="Hook" transform="matrix(1.06583,0,0,1.06583,2232.8,681.313)" d="M0,-0.1 C0,0.6 0.6,1.2 1.3,1.2 C1.8,1.2 2.4,0.8 2.5,0.4 C2.5,0.3 3.4,-3.2 3.5,-3.5 C3.6,-3.9 4.5,-7.7 8.1,-13.6 C12,-20.1 18,-24.8 23,-31.8 C27.9,-38.8 30.9,-45.4 30.9,-54.2 C30.9,-63.3 28.8,-70.9 23.5,-80.6 C23.2,-81.3 22.6,-81.7 22,-81.7 C21.8,-81.7 21.6,-81.7 21.5,-81.6 C21,-81.4 20.8,-81 20.8,-80.4 C20.8,-80.1 20.9,-79.6 21.1,-79.2 C25.1,-69.9 26.7,-64.6 26.7,-57.4 C26.7,-49.1 23.8,-44.8 22,-41.7 C15.5,-30.6 5,-25.2 0.8,-23.8 C0.1,-23.5 0,-23 0,-22.7 L0,-0.1 "/>
<path class="Hook" transform="matrix(1.06583,0,0,1.06583,1822.12,1329.58)" d="M0,-0.1 C0,0.6 0.6,1.2 1.3,1.2 C1.8,1.2 2.4,0.8 2.5,0.4 C2.5,0.3 3.4,-3.2 3.5,-3.5 C3.6,-3.9 4.5,-7.7 8.1,-13.6 C12,-20.1 18,-24.8 23,-31.8 C27.9,-38.8 30.9,-45.4 30.9,-54.2 C30.9,-63.3 28.8,-70.9 23.5,-80.6 C23.2,-81.3 22.6,-81.7 22,-81.7 C21.8,-81.7 21.6,-81.7 21.5,-81.6 C21,-81.4 20.8,-81 20.8,-80.4 C20.8,-80.1 20.9,-79.6 21.1,-79.2 C25.1,-69.9 26.7,-64.6 26.7,-57.4 C26.7,-49.1 23.8,-44.8 22,-41.7 C15.5,-30.6 5,-25.2 0.8,-23.8 C0.1,-23.5 0,-23 0,-22.7 L0,-0.1 "/>
<path class="Hook" transform="matrix(1.06583,0,0,1.06583,2242.39,1316.26)" d="M0,-0.1 C0,0.6 0.6,1.2 1.3,1.2 C1.8,1.2 2.4,0.8 2.5,0.4 C2.5,0.3 3.4,-3.2 3.5,-3.5 C3.6,-3.9 4.5,-7.7 8.1,-13.6 C12,-20.1 18,-24.8 23,-31.8 C27.9,-38.8 30.9,-45.4 30.9,-54.2 C30.9,-63.3 28.8,-70.9 23.5,-80.6 C23.2,-81.3 22.6,-81.7 22,-81.7 C21.8,-81.7 21.6,-81.7 21.5,-81.6 C21,-81.4 20.8,-81 20.8,-80.4 C20.8,-80.1 20.9,-79.6 21.1,-79.2 C25.1,-69.9 26.7,-64.6 26.7,-57.4 C26.7,-49.1 23.8,-44.8 22,-41.7 C15.5,-30.6 5,-25.2 0.8,-23.8 C0.1,-23.5 0,-23 0,-22.7 L0,-0.1 "/>
<path class="Hook" transform="matrix(1.06583,0,0,1.06583,2446.36,1316.26)" d="M0,-0.1 C0,0.6 0.6,1.2 1.3,1.2 C1.8,1.2 2.4,0.8 2.5,0.4 C2.5,0.3 3.4,-3.2 3.5,-3.5 C3.6,-3.9 4.5,-7.7 8.1,-13.6 C12,-20.1 18,-24.8 23,-31.8 C27.9,-38.8 30.9,-45.4 30.9,-54.2 C30.9,-63.3 28.8,-70.9 23.5,-80.6 C23.2,-81.3 22.6,-81.7 22,-81.7 C21.8,-81.7 21.6,-81.7 21.5,-81.6 C21,-81.4 20.8,-81 20.8,-80.4 C20.8,-80.1 20.9,-79.6 21.1,-79.2 C25.1,-69.9 26.7,-64.6 26.7,-57.4 C26.7,-49.1 23.8,-44.8 22,-41.7 C15.5,-30.6 5,-25.2 0.8,-23.8 C0.1,-23.5 0,-23 0,-22.7 L0,-0.1 "/>
<path class="Hook" transform="matrix(1.06583,0,0,1.06583,2054.88,1176.37)" d="M0,22.7 C0,23 0.1,23.5 0.8,23.8 C5.1,25.2 13.7,30.6 20.2,41.7 C22,44.8 24.9,49.1 24.9,57.4 C24.9,64.6 23,72 20.4,79.2 C20.2,79.8 20,80.3 20.1,80.7 C20.1,81.3 20.5,81.7 21.1,81.7 C21.8,81.7 22.3,81.3 22.7,80.6 C27.2,72.6 28.9,63.3 28.9,54.2 C28.4,41.3 21,31.8 21,31.8 C21.3,31.8 11.8,19.5 9.1,15.3 C5.4,9.6 3.7,3.9 3.5,3.5 C3.4,3.2 2.5,-0.4 2.5,-0.4 C2.4,-0.8 1.9,-1.2 1.3,-1.2 C0.6,-1.2 0,-0.6 0,0.1 L0,22.7 "/>
<path class="Note" transform="matrix(1.06583,0,0,1.06583,1030.97,314.935)" d="M0,4.2 C0,8.5 3.1,13.3 11.2,13.3 C21.6,13.3 32.5,4.8 32.5,-4 C32.5,-9.9 27.5,-13.2 21.3,-13.2 C11.6,-13.2 0,-5 0,4.2"/>
<path class="Note" transform="matrix(1.06583,0,0,1.06583,2108.17,909.911)" d="M0,4.2 C0,8.5 3.1,13.3 11.2,13.3 C21.6,13.3 32.5,4.8 32.5,-4 C32.5,-9.9 27.5,-13.2 21.3,-13.2 C11.6,-13.2 0,-5 0,4.2"/>
<path class="Note" transform="matrix(1.06583,0,0,1.06583,1245.51,949.88)" d="M0,4.2 C0,8.5 3.1,13.3 11.2,13.3 C21.6,13.3 32.5,4.8 32.5,-4 C32.5,-9.9 27.5,-13.2 21.3,-13.2 C11.6,-13.2 0,-5 0,4.2"/>
<path class="Note" transform="matrix(1.06583,0,0,1.06583,2551.44,314.935)" d="M0,4.2 C0,8.5 3.1,13.3 11.2,13.3 C21.6,13.3 32.5,4.8 32.5,-4 C32.5,-9.9 27.5,-13.2 21.3,-13.2 C11.6,-13.2 0,-5 0,4.2"/>
<path class="Note" transform="matrix(1.06583,0,0,1.06583,614.186,314.935)" d="M0,4.2 C0,8.5 3.1,13.3 11.2,13.3 C21.6,13.3 32.5,4.8 32.5,-4 C32.5,-9.9 27.5,-13.2 21.3,-13.2 C11.6,-13.2 0,-5 0,4.2"/>
<path class="Note" transform="matrix(1.06583,0,0,1.06583,1172.63,923.234)" d="M0,4.2 C0,8.5 3.1,13.3 11.2,13.3 C21.6,13.3 32.5,4.8 32.5,-4 C32.5,-9.9 27.5,-13.2 21.3,-13.2 C11.6,-13.2 0,-5 0,4.2"/>
<path class="Note" transform="matrix(1.06583,0,0,1.06583,1991.12,328.258)" d="M0,4.2 C0,8.5 3.1,13.3 11.2,13.3 C21.6,13.3 32.5,4.8 32.5,-4 C32.5,-9.9 27.5,-13.2 21.3,-13.2 C11.6,-13.2 0,-5 0,4.2"/>
<path class="Note" transform="matrix(1.06583,0,0,1.06583,1370.54,936.557)" d="M0,4.2 C0,8.5 3.1,13.3 11.2,13.3 C21.6,13.3 32.5,4.8 32.5,-4 C32.5,-9.9 27.5,-13.2 21.3,-13.2 C11.6,-13.2 0,-5 0,4.2"/>
<path class="Note" transform="matrix(1.06583,0,0,1.06583,413.806,1598.15)" d="M0,4.2 C0,8.5 3.1,13.3 11.2,13.3 C21.6,13.3 32.5,4.8 32.5,-4 C32.5,-9.9 27.5,-13.2 21.3,-13.2 C11.6,-13.2 0,-5 0,4.2"/>
<path class="Note" transform="matrix(1.06583,0,0,1.06583,1167.23,341.581)" d="M0,4.2 C0,8.5 3.1,13.3 11.2,13.3 C21.6,13.3 32.5,4.8 32.5,-4 C32.5,-9.9 27.5,-13.2 21.3,-13.2 C11.6,-13.2 0,-5 0,4.2"/>
<path class="Note" transform="matrix(1.06583,0,0,1.06583,2112.58,354.904)" d="M0,4.2 C0,8.5 3.1,13.3 11.2,13.3 C21.6,13.3 32.5,4.8 32.5,-4 C32.5,-9.9 27.5,-13.2 21.3,-13.2 C11.6,-13.2 0,-5 0,4.2"/>
<path class="Note" transform="matrix(0.746079,0,0,0.746079,1116.32,328.258)" d="M0,4.2 C0,8.5 3.1,13.3 11.2,13.3 C21.6,13.3 32.5,4.8 32.5,-4 C32.5,-9.9 27.5,-13.2 21.3,-13.2 C11.6,-13.2 0,-5 0,4.2"/>
<path class="Note" transform="matrix(1.06583,0,0,1.06583,1063.3,936.557)" d="M0,4.2 C0,8.5 3.1,13.3 11.2,13.3 C21.6,13.3 32.5,4.8 32.5,-4 C32.5,-9.9 27.5,-13.2 21.3,-13.2 C11.6,-13.2 0,-5 0,4.2"/>
<path class="Note" transform="matrix(1.06583,0,0,1.06583,516.105,1598.15)" d="M0,4.2 C0,8.5 3.1,13.3 11.2,13.3 C21.6,13.3 32.5,4.8 32.5,-4 C32.5,-9.9 27.5,-13.2 21.3,-13.2 C11.6,-13.2 0,-5 0,4.2"/>
<path class="Note" transform="matrix(1.06583,0,0,1.06583,1491.99,909.911)" d="M0,4.2 C0,8.5 3.1,13.3 11.2,13.3 C21.6,13.3 32.5,4.8 32.5,-4 C32.5,-9.9 27.5,-13.2 21.3,-13.2 C11.6,-13.2 0,-5 0,4.2"/>
<path class="Note" transform="matrix(0.746079,0,0,0.746079,566.764,1584.82)" d="M0,4.2 C0,8.5 3.1,13.3 11.2,13.3 C21.6,13.3 32.5,4.8 32.5,-4 C32.5,-9.9 27.5,-13.2 21.3,-13.2 C11.6,-13.2 0,-5 0,4.2"/>
<path class="Note" transform="matrix(1.06583,0,0,1.06583,2471.29,301.613)" d="M0,4.2 C0,8.5 3.1,13.3 11.2,13.3 C21.6,13.3 32.5,4.8 32.5,-4 C32.5,-9.9 27.5,-13.2 21.3,-13.2 C11.6,-13.2 0,-5 0,4.2"/>
<path class="Note" transform="matrix(1.06583,0,0,1.06583,2679.34,314.935)" d="M0,4.2 C0,8.5 3.1,13.3 11.2,13.3 C21.6,13.3 32.5,4.8 32.5,-4 C32.5,-9.9 27.5,-13.2 21.3,-13.2 C11.6,-13.2 0,-5 0,4.2"/>
<path class="Note" transform="matrix(1.06583,0,0,1.06583,1427.24,341.581)" d="M0,4.2 C0,8.5 3.1,13.3 11.2,13.3 C21.6,13.3 32.5,4.8 32.5,-4 C32.5,-9.9 27.5,-13.2 21.3,-13.2 C11.6,-13.2 0,-5 0,4.2"/>
<path class="Note" transform="matrix(1.06583,0,0,1.06583,593.665,1558.18)" d="M0,4.2 C0,8.5 3.1,13.3 11.2,13.3 C21.6,13.3 32.5,4.8 32.5,-4 C32.5,-9.9 27.5,-13.2 21.3,-13.2 C11.6,-13.2 0,-5 0,4.2"/>
<path class="Note" transform="matrix(1.06583,0,0,1.06583,734.413,301.613)" d="M0,4.2 C0,8.5 3.1,13.3 11.2,13.3 C21.6,13.3 32.5,4.8 32.5,-4 C32.5,-9.9 27.5,-13.2 21.3,-13.2 C11.6,-13.2 0,-5 0,4.2"/>
<path class="Note" transform="matrix(1.06583,0,0,1.06583,2691.72,963.203)" d="M0,4.2 C0,8.5 3.1,13.3 11.2,13.3 C21.6,13.3 32.5,4.8 32.5,-4 C32.5,-9.9 27.5,-13.2 21.3,-13.2 C11.6,-13.2 0,-5 0,4.2"/>
<path class="Note" transform="matrix(1.06583,0,0,1.06583,638.481,1571.5)" d="M0,4.2 C0,8.5 3.1,13.3 11.2,13.3 C21.6,13.3 32.5,4.8 32.5,-4 C32.5,-9.9 27.5,-13.2 21.3,-13.2 C11.6,-13.2 0,-5 0,4.2"/>
<path class="Note" transform="matrix(1.06583,0,0,1.06583,951.821,923.234)" d="M0,4.2 C0,8.5 3.1,13.3 11.2,13.3 C21.6,13.3 32.5,4.8 32.5,-4 C32.5,-9.9 27.5,-13.2 21.3,-13.2 C11.6,-13.2 0,-5 0,4.2"/>
<path class="Note" transform="matrix(1.06583,0,0,1.06583,1247.38,354.904)" d="M0,4.2 C0,8.5 3.1,13.3 11.2,13.3 C21.6,13.3 32.5,4.8 32.5,-4 C32.5,-9.9 27.5,-13.2 21.3,-13.2 C11.6,-13.2 0,-5 0,4.2"/>
<path class="Note" transform="matrix(1.06583,0,0,1.06583,683.297,1584.82)" d="M0,4.2 C0,8.5 3.1,13.3 11.2,13.3 C21.6,13.3 32.5,4.8 32.5,-4 C32.5,-9.9 27.5,-13.2 21.3,-13.2 C11.6,-13.2 0,-5 0,4.2"/>
<path class="Note" transform="matrix(1.06583,0,0,1.06583,1712.79,909.911)" d="M0,4.2 C0,8.5 3.1,13.3 11.2,13.3 C21.6,13.3 32.5,4.8 32.5,-4 C32.5,-9.9 27.5,-13.2 21.3,-13.2 C11.6,-13.2 0,-5 0,4.2"/>
<path class="Note" transform="matrix(1.06583,0,0,1.06583,842.493,909.911)" d="M0,4.2 C0,8.5 3.1,13.3 11.2,13.3 C21.6,13.3 32.5,4.8 32.5,-4 C32.5,-9.9 27.5,-13.2 21.3,-13.2 C11.6,-13.2 0,-5 0,4.2"/>
<path class="Note" transform="matrix(1.06583,0,0,1.06583,2567.81,949.88)" d="M0,4.2 C0,8.5 3.1,13.3 11.2,13.3 C21.6,13.3 32.5,4.8 32.5,-4 C32.5,-9.9 27.5,-13.2 21.3,-13.2 C11.6,-13.2 0,-5 0,4.2"/>
<path class="Note" transform="matrix(1.06583,0,0,1.06583,728.113,1598.15)" d="M0,4.2 C0,8.5 3.1,13.3 11.2,13.3 C21.6,13.3 32.5,4.8 32.5,-4 C32.5,-9.9 27.5,-13.2 21.3,-13.2 C11.6,-13.2 0,-5 0,4.2"/>
<path class="Note" transform="matrix(1.06583,0,0,1.06583,2351.06,301.613)" d="M0,4.2 C0,8.5 3.1,13.3 11.2,13.3 C21.6,13.3 32.5,4.8 32.5,-4 C32.5,-9.9 27.5,-13.2 21.3,-13.2 C11.6,-13.2 0,-5 0,4.2"/>
<path class="Note" transform="matrix(1.06583,0,0,1.06583,1822.12,936.557)" d="M0,4.2 C0,8.5 3.1,13.3 11.2,13.3 C21.6,13.3 32.5,4.8 32.5,-4 C32.5,-9.9 27.5,-13.2 21.3,-13.2 C11.6,-13.2 0,-5 0,4.2"/>
<path class="Note" transform="matrix(1.06583,0,0,1.06583,772.93,1611.47)" d="M0,4.2 C0,8.5 3.1,13.3 11.2,13.3 C21.6,13.3 32.5,4.8 32.5,-4 C32.5,-9.9 27.5,-13.2 21.3,-13.2 C11.6,-13.2 0,-5 0,4.2"/>
<path class="Note" transform="matrix(1.06583,0,0,1.06583,817.746,1624.79)" d="M0,4.2 C0,8.5 3.1,13.3 11.2,13.3 C21.6,13.3 32.5,4.8 32.5,-4 C32.5,-9.9 27.5,-13.2 21.3,-13.2 C11.6,-13.2 0,-5 0,4.2"/>
<path class="Note" transform="matrix(1.06583,0,0,1.06583,862.562,1638.12)" d="M0,4.2 C0,8.5 3.1,13.3 11.2,13.3 C21.6,13.3 32.5,4.8 32.5,-4 C32.5,-9.9 27.5,-13.2 21.3,-13.2 C11.6,-13.2 0,-5 0,4.2"/>
<path class="Note" transform="matrix(1.06583,0,0,1.06583,907.378,1638.12)" d="M0,4.2 C0,8.5 3.1,13.3 11.2,13.3 C21.6,13.3 32.5,4.8 32.5,-4 C32.5,-9.9 27.5,-13.2 21.3,-13.2 C11.6,-13.2 0,-5 0,4.2"/>
<path class="Note" transform="matrix(1.06583,0,0,1.06583,814.565,288.29)" d="M0,4.2 C0,8.5 3.1,13.3 11.2,13.3 C21.6,13.3 32.5,4.8 32.5,-4 C32.5,-9.9 27.5,-13.2 21.3,-13.2 C11.6,-13.2 0,-5 0,4.2"/>
<path class="Note" transform="matrix(1.06583,0,0,1.06583,969.552,1624.79)" d="M0,4.2 C0,8.5 3.1,13.3 11.2,13.3 C21.6,13.3 32.5,4.8 32.5,-4 C32.5,-9.9 27.5,-13.2 21.3,-13.2 C11.6,-13.2 0,-5 0,4.2"/>
<path class="Note" transform="matrix(1.06583,0,0,1.06583,596.021,989.848)" d="M0,4.2 C0,8.5 3.1,13.3 11.2,13.3 C21.6,13.3 32.5,4.8 32.5,-4 C32.5,-9.9 27.5,-13.2 21.3,-13.2 C11.6,-13.2 0,-5 0,4.2"/>
<path class="Note" transform="matrix(1.06583,0,0,1.06583,1665.72,314.935)" d="M0,4.2 C0,8.5 3.1,13.3 11.2,13.3 C21.6,13.3 32.5,4.8 32.5,-4 C32.5,-9.9 27.5,-13.2 21.3,-13.2 C11.6,-13.2 0,-5 0,4.2"/>
<path class="Note" transform="matrix(1.06583,0,0,1.06583,1895.01,923.234)" d="M0,4.2 C0,8.5 3.1,13.3 11.2,13.3 C21.6,13.3 32.5,4.8 32.5,-4 C32.5,-9.9 27.5,-13.2 21.3,-13.2 C11.6,-13.2 0,-5 0,4.2"/>
<path class="Note" transform="matrix(1.06583,0,0,1.06583,2321.34,936.557)" d="M0,4.2 C0,8.5 3.1,13.3 11.2,13.3 C21.6,13.3 32.5,4.8 32.5,-4 C32.5,-9.9 27.5,-13.2 21.3,-13.2 C11.6,-13.2 0,-5 0,4.2"/>
<path class="Note" transform="matrix(1.06583,0,0,1.06583,413.806,301.613)" d="M0,4.2 C0,8.5 3.1,13.3 11.2,13.3 C21.6,13.3 32.5,4.8 32.5,-4 C32.5,-9.9 27.5,-13.2 21.3,-13.2 C11.6,-13.2 0,-5 0,4.2"/>
<path class="Note" transform="matrix(1.06583,0,0,1.06583,523.135,976.525)" d="M0,4.2 C0,8.5 3.1,13.3 11.2,13.3 C21.6,13.3 32.5,4.8 32.5,-4 C32.5,-9.9 27.5,-13.2 21.3,-13.2 C11.6,-13.2 0,-5 0,4.2"/>
<path class="Note" transform="matrix(1.06583,0,0,1.06583,1866.1,341.581)" d="M0,4.2 C0,8.5 3.1,13.3 11.2,13.3 C21.6,13.3 32.5,4.8 32.5,-4 C32.5,-9.9 27.5,-13.2 21.3,-13.2 C11.6,-13.2 0,-5 0,4.2"/>
<path class="Note" transform="matrix(1.06583,0,0,1.06583,2022.91,896.588)" d="M0,4.2 C0,8.5 3.1,13.3 11.2,13.3 C21.6,13.3 32.5,4.8 32.5,-4 C32.5,-9.9 27.5,-13.2 21.3,-13.2 C11.6,-13.2 0,-5 0,4.2"/>
<path class="Note" transform="matrix(1.06583,0,0,1.06583,1082.25,1638.12)" d="M0,4.2 C0,8.5 3.1,13.3 11.2,13.3 C21.6,13.3 32.5,4.8 32.5,-4 C32.5,-9.9 27.5,-13.2 21.3,-13.2 C11.6,-13.2 0,-5 0,4.2"/>
<path class="Note" transform="matrix(1.06583,0,0,1.06583,2242.39,923.234)" d="M0,4.2 C0,8.5 3.1,13.3 11.2,13.3 C21.6,13.3 32.5,4.8 32.5,-4 C32.5,-9.9 27.5,-13.2 21.3,-13.2 C11.6,-13.2 0,-5 0,4.2"/>
<path class="Note" transform="matrix(1.06583,0,0,1.06583,1785.95,328.258)" d="M0,4.2 C0,8.5 3.1,13.3 11.2,13.3 C21.6,13.3 32.5,4.8 32.5,-4 C32.5,-9.9 27.5,-13.2 21.3,-13.2 C11.6,-13.2 0,-5 0,4.2"/>
<path class="Note" transform="matrix(1.06583,0,0,1.06583,950.822,341.581)" d="M0,4.2 C0,8.5 3.1,13.3 11.2,13.3 C21.6,13.3 32.5,4.8 32.5,-4 C32.5,-9.9 27.5,-13.2 21.3,-13.2 C11.6,-13.2 0,-5 0,4.2"/>
<path class="Note" transform="matrix(1.06583,0,0,1.06583,413.806,976.525)" d="M0,4.2 C0,8.5 3.1,13.3 11.2,13.3 C21.6,13.3 32.5,4.8 32.5,-4 C32.5,-9.9 27.5,-13.2 21.3,-13.2 C11.6,-13.2 0,-5 0,4.2"/>
<path class="Note" transform="matrix(0.746079,0,0,0.746079,2192.32,936.557)" d="M0,4.2 C0,8.5 3.1,13.3 11.2,13.3 C21.6,13.3 32.5,4.8 32.5,-4 C32.5,-9.9 27.5,-13.2 21.3,-13.2 C11.6,-13.2 0,-5 0,4.2"/>
<path class="Note" transform="matrix(1.06583,0,0,1.06583,534.034,301.613)" d="M0,4.2 C0,8.5 3.1,13.3 11.2,13.3 C21.6,13.3 32.5,4.8 32.5,-4 C32.5,-9.9 27.5,-13.2 21.3,-13.2 C11.6,-13.2 0,-5 0,4.2"/>
<path class="Note" transform="matrix(1.06583,0,0,1.06583,614.186,568.069)" d="M0,4.2 C0,8.5 3.1,13.3 11.2,13.3 C21.6,13.3 32.5,4.8 32.5,-4 C32.5,-9.9 27.5,-13.2 21.3,-13.2 C11.6,-13.2 0,-5 0,4.2"/>
<path class="Note" fill="#247c21" transform="matrix(1.06583,0,0,1.06583,593.665,1931.22)" d="M0,4.2 C0,8.5 3.1,13.3 11.2,13.3 C21.6,13.3 32.5,4.8 32.5,-4 C32.5,-9.9 27.5,-13.2 21.3,-13.2 C11.6,-13.2 0,-5 0,4.2"/>
<path class="Note" transform="matrix(1.06583,0,0,1.06583,1245.51,1229.66)" d="M0,4.2 C0,8.5 3.1,13.3 11.2,13.3 C21.6,13.3 32.5,4.8 32.5,-4 C32.5,-9.9 27.5,-13.2 21.3,-13.2 C11.6,-13.2 0,-5 0,4.2"/>
<path class="Note" transform="matrix(1.06583,0,0,1.06583,2108.17,1242.98)" d="M0,4.2 C0,8.5 3.1,13.3 11.2,13.3 C21.6,13.3 32.5,4.8 32.5,-4 C32.5,-9.9 27.5,-13.2 21.3,-13.2 C11.6,-13.2 0,-5 0,4.2"/>
<path class="Note" transform="matrix(1.06583,0,0,1.06583,2551.44,621.361)" d="M0,4.2 C0,8.5 3.1,13.3 11.2,13.3 C21.6,13.3 32.5,4.8 32.5,-4 C32.5,-9.9 27.5,-13.2 21.3,-13.2 C11.6,-13.2 0,-5 0,4.2"/>
<path class="Note" transform="matrix(1.06583,0,0,1.06583,2022.91,1269.63)" d="M0,4.2 C0,8.5 3.1,13.3 11.2,13.3 C21.6,13.3 32.5,4.8 32.5,-4 C32.5,-9.9 27.5,-13.2 21.3,-13.2 C11.6,-13.2 0,-5 0,4.2"/>
<path class="Note" transform="matrix(1.06583,0,0,1.06583,413.806,1282.95)" d="M0,4.2 C0,8.5 3.1,13.3 11.2,13.3 C21.6,13.3 32.5,4.8 32.5,-4 C32.5,-9.9 27.5,-13.2 21.3,-13.2 C11.6,-13.2 0,-5 0,4.2"/>
<path class="Note" fill="#247c21" transform="matrix(1.06583,0,0,1.06583,1082.25,1917.9)" d="M0,4.2 C0,8.5 3.1,13.3 11.2,13.3 C21.6,13.3 32.5,4.8 32.5,-4 C32.5,-9.9 27.5,-13.2 21.3,-13.2 C11.6,-13.2 0,-5 0,4.2"/>
<path class="Note" transform="matrix(1.06583,0,0,1.06583,2242.39,1229.66)" d="M0,4.2 C0,8.5 3.1,13.3 11.2,13.3 C21.6,13.3 32.5,4.8 32.5,-4 C32.5,-9.9 27.5,-13.2 21.3,-13.2 C11.6,-13.2 0,-5 0,4.2"/>
<path class="Note" transform="matrix(1.06583,0,0,1.06583,413.806,581.392)" d="M0,4.2 C0,8.5 3.1,13.3 11.2,13.3 C21.6,13.3 32.5,4.8 32.5,-4 C32.5,-9.9 27.5,-13.2 21.3,-13.2 C11.6,-13.2 0,-5 0,4.2"/>
<path class="Note" transform="matrix(1.06583,0,0,1.06583,2679.34,621.361)" d="M0,4.2 C0,8.5 3.1,13.3 11.2,13.3 C21.6,13.3 32.5,4.8 32.5,-4 C32.5,-9.9 27.5,-13.2 21.3,-13.2 C11.6,-13.2 0,-5 0,4.2"/>
<path class="Note" transform="matrix(1.06583,0,0,1.06583,1601.32,1269.63)" d="M0,4.2 C0,8.5 3.1,13.3 11.2,13.3 C21.6,13.3 32.5,4.8 32.5,-4 C32.5,-9.9 27.5,-13.2 21.3,-13.2 C11.6,-13.2 0,-5 0,4.2"/>
<path class="Note" transform="matrix(1.06583,0,0,1.06583,2232.8,594.715)" d="M0,4.2 C0,8.5 3.1,13.3 11.2,13.3 C21.6,13.3 32.5,4.8 32.5,-4 C32.5,-9.9 27.5,-13.2 21.3,-13.2 C11.6,-13.2 0,-5 0,4.2"/>
<path class="Note" fill="#247c21" transform="matrix(1.06583,0,0,1.06583,2691.72,1269.63)" d="M0,4.2 C0,8.5 3.1,13.3 11.2,13.3 C21.6,13.3 32.5,4.8 32.5,-4 C32.5,-9.9 27.5,-13.2 21.3,-13.2 C11.6,-13.2 0,-5 0,4.2"/>
<path class="Note" transform="matrix(1.06583,0,0,1.06583,814.565,568.069)" d="M0,4.2 C0,8.5 3.1,13.3 11.2,13.3 C21.6,13.3 32.5,4.8 32.5,-4 C32.5,-9.9 27.5,-13.2 21.3,-13.2 C11.6,-13.2 0,-5 0,4.2"/>
<path class="Note" transform="matrix(1.06583,0,0,1.06583,1895.01,1256.31)" d="M0,4.2 C0,8.5 3.1,13.3 11.2,13.3 C21.6,13.3 32.5,4.8 32.5,-4 C32.5,-9.9 27.5,-13.2 21.3,-13.2 C11.6,-13.2 0,-5 0,4.2"/>
<path class="Note" transform="matrix(1.06583,0,0,1.06583,2351.06,608.038)" d="M0,4.2 C0,8.5 3.1,13.3 11.2,13.3 C21.6,13.3 32.5,4.8 32.5,-4 C32.5,-9.9 27.5,-13.2 21.3,-13.2 C11.6,-13.2 0,-5 0,4.2"/>
<path class="Note" transform="matrix(1.06583,0,0,1.06583,1665.72,594.715)" d="M0,4.2 C0,8.5 3.1,13.3 11.2,13.3 C21.6,13.3 32.5,4.8 32.5,-4 C32.5,-9.9 27.5,-13.2 21.3,-13.2 C11.6,-13.2 0,-5 0,4.2"/>
<path class="Note" transform="matrix(1.06583,0,0,1.06583,950.822,568.069)" d="M0,4.2 C0,8.5 3.1,13.3 11.2,13.3 C21.6,13.3 32.5,4.8 32.5,-4 C32.5,-9.9 27.5,-13.2 21.3,-13.2 C11.6,-13.2 0,-5 0,4.2"/>
<path class="Note" transform="matrix(1.06583,0,0,1.06583,2112.58,594.715)" d="M0,4.2 C0,8.5 3.1,13.3 11.2,13.3 C21.6,13.3 32.5,4.8 32.5,-4 C32.5,-9.9 27.5,-13.2 21.3,-13.2 C11.6,-13.2 0,-5 0,4.2"/>
<path class="Note" transform="matrix(1.06583,0,0,1.06583,2321.34,1216.34)" d="M0,4.2 C0,8.5 3.1,13.3 11.2,13.3 C21.6,13.3 32.5,4.8 32.5,-4 C32.5,-9.9 27.5,-13.2 21.3,-13.2 C11.6,-13.2 0,-5 0,4.2"/>
<path class="Note" transform="matrix(1.06583,0,0,1.06583,1822.12,1242.98)" d="M0,4.2 C0,8.5 3.1,13.3 11.2,13.3 C21.6,13.3 32.5,4.8 32.5,-4 C32.5,-9.9 27.5,-13.2 21.3,-13.2 C11.6,-13.2 0,-5 0,4.2"/>
<path class="Note" transform="matrix(1.06583,0,0,1.06583,596.021,1269.63)" d="M0,4.2 C0,8.5 3.1,13.3 11.2,13.3 C21.6,13.3 32.5,4.8 32.5,-4 C32.5,-9.9 27.5,-13.2 21.3,-13.2 C11.6,-13.2 0,-5 0,4.2"/>
<path class="Note" fill="#247c21" transform="matrix(1.06583,0,0,1.06583,413.806,1931.22)" d="M0,4.2 C0,8.5 3.1,13.3 11.2,13.3 C21.6,13.3 32.5,4.8 32.5,-4 C32.5,-9.9 27.5,-13.2 21.3,-13.2 C11.6,-13.2 0,-5 0,4.2"/>
<path class="Note" transform="matrix(1.06583,0,0,1.06583,2446.36,1229.66)" d="M0,4.2 C0,8.5 3.1,13.3 11.2,13.3 C21.6,13.3 32.5,4.8 32.5,-4 C32.5,-9.9 27.5,-13.2 21.3,-13.2 C11.6,-13.2 0,-5 0,4.2"/>
<path class="Note" transform="matrix(1.06583,0,0,1.06583,1063.3,1242.98)" d="M0,4.2 C0,8.5 3.1,13.3 11.2,13.3 C21.6,13.3 32.5,4.8 32.5,-4 C32.5,-9.9 27.5,-13.2 21.3,-13.2 C11.6,-13.2 0,-5 0,4.2"/>
<path class="Note" transform="matrix(1.06583,0,0,1.06583,734.413,554.746)" d="M0,4.2 C0,8.5 3.1,13.3 11.2,13.3 C21.6,13.3 32.5,4.8 32.5,-4 C32.5,-9.9 27.5,-13.2 21.3,-13.2 C11.6,-13.2 0,-5 0,4.2"/>
<path class="Note" transform="matrix(1.06583,0,0,1.06583,1247.38,608.038)" d="M0,4.2 C0,8.5 3.1,13.3 11.2,13.3 C21.6,13.3 32.5,4.8 32.5,-4 C32.5,-9.9 27.5,-13.2 21.3,-13.2 C11.6,-13.2 0,-5 0,4.2"/>
<path class="Note" transform="matrix(1.06583,0,0,1.06583,2471.29,608.038)" d="M0,4.2 C0,8.5 3.1,13.3 11.2,13.3 C21.6,13.3 32.5,4.8 32.5,-4 C32.5,-9.9 27.5,-13.2 21.3,-13.2 C11.6,-13.2 0,-5 0,4.2"/>
<path class="Note" transform="matrix(1.06583,0,0,1.06583,1427.24,621.361)" d="M0,4.2 C0,8.5 3.1,13.3 11.2,13.3 C21.6,13.3 32.5,4.8 32.5,-4 C32.5,-9.9 27.5,-13.2 21.3,-13.2 C11.6,-13.2 0,-5 0,4.2"/>
<path class="Note" transform="matrix(1.06583,0,0,1.06583,1712.79,1242.98)" d="M0,4.2 C0,8.5 3.1,13.3 11.2,13.3 C21.6,13.3 32.5,4.8 32.5,-4 C32.5,-9.9 27.5,-13.2 21.3,-13.2 C11.6,-13.2 0,-5 0,4.2"/>
<path class="Note" transform="matrix(1.06583,0,0,1.06583,842.493,1282.95)" d="M0,4.2 C0,8.5 3.1,13.3 11.2,13.3 C21.6,13.3 32.5,4.8 32.5,-4 C32.5,-9.9 27.5,-13.2 21.3,-13.2 C11.6,-13.2 0,-5 0,4.2"/>
<path class="Note" transform="matrix(1.06583,0,0,1.06583,2567.81,1242.98)" d="M0,4.2 C0,8.5 3.1,13.3 11.2,13.3 C21.6,13.3 32.5,4.8 32.5,-4 C32.5,-9.9 27.5,-13.2 21.3,-13.2 C11.6,-13.2 0,-5 0,4.2"/>
<path class="Note" transform="matrix(0.746079,0,0,0.746079,2645.89,1256.31)" d="M0,4.2 C0,8.5 3.1,13.3 11.2,13.3 C21.6,13.3 32.5,4.8 32.5,-4 C32.5,-9.9 27.5,-13.2 21.3,-13.2 C11.6,-13.2 0,-5 0,4.2"/>
<path class="Note" transform="matrix(1.06583,0,0,1.06583,1491.99,1282.95)" d="M0,4.2 C0,8.5 3.1,13.3 11.2,13.3 C21.6,13.3 32.5,4.8 32.5,-4 C32.5,-9.9 27.5,-13.2 21.3,-13.2 C11.6,-13.2 0,-5 0,4.2"/>
<path class="Note" transform="matrix(1.06583,0,0,1.06583,1030.97,621.361)" d="M0,4.2 C0,8.5 3.1,13.3 11.2,13.3 C21.6,13.3 32.5,4.8 32.5,-4 C32.5,-9.9 27.5,-13.2 21.3,-13.2 C11.6,-13.2 0,-5 0,4.2"/>
<path class="Note" transform="matrix(1.06583,0,0,1.06583,1866.1,581.392)" d="M0,4.2 C0,8.5 3.1,13.3 11.2,13.3 C21.6,13.3 32.5,4.8 32.5,-4 C32.5,-9.9 27.5,-13.2 21.3,-13.2 C11.6,-13.2 0,-5 0,4.2"/>
<path class="Note" transform="matrix(0.746079,0,0,0.746079,899.91,581.392)" d="M0,4.2 C0,8.5 3.1,13.3 11.2,13.3 C21.6,13.3 32.5,4.8 32.5,-4 C32.5,-9.9 27.5,-13.2 21.3,-13.2 C11.6,-13.2 0,-5 0,4.2"/>
<path class="Clef" transform="matrix(1.06583,0,0,1.06583,237.379,341.581)" d="M36.2,21.2 C21.9,21.2 9.7,11.2 9.7,-3.9 C9.7,-16.1 18.3,-27 27.1,-34.7 C28.8,-36.1 30.4,-37.5 31.9,-39 C32.8,-33.6 33.5,-29 34.2,-24.8 C25.1,-22.2 18.9,-12.5 18.9,-3.2 C18.9,3.9 24.4,13.5 32.4,13.5 C33.2,13.5 34.1,13.1 34.1,12.1 C34.1,11.3 33.2,10.7 31.9,9.9 C28,7.6 25.8,4.9 25.8,0.1 C25.8,-6 30.4,-10.9 36.2,-12.3 L42,20.5 C40,20.9 38.2,21.2 36.2,21.2 M33.2,-82.2 C34.2,-86.2 38.7,-96.7 43.9,-96.7 C45.4,-96.7 47.9,-91.9 47.9,-84.9 C47.9,-74.6 40.1,-66.8 33.2,-59.9 C32.6,-63.9 32.1,-67.9 32.1,-72 C32.1,-75.8 32.5,-79.1 33.2,-82.2 M46.2,19.3 C44.1,7.4 41.4,-8.5 40.7,-12.9 C50.8,-12.9 55.1,-5.9 56,-1.1 C56.1,-0.3 56.3,0.8 56.3,2 C56.3,9.2 53.3,16.4 46.2,19.3 M32.3,87.7 C30.1,87.7 28.6,86.3 28.6,84.2 C28.6,82.2 29.5,80.6 31.2,79.6 C31.6,79.8 31.7,79.8 32,80 C33.2,80.6 33.2,80.6 33.4,80.8 C35.3,81.9 36.1,82.9 36.1,84.3 C36.1,86.2 34.5,87.7 32.3,87.7 M36.1,75.7 C34.6,74.9 34.2,74.7 33.9,74.5 L33.7,74.4 C32.2,73.5 31.7,72.8 31.7,71.6 C31.7,69.8 33.1,68.5 35.1,68.5 C37,68.5 38.2,69.7 38.2,71.8 C38.2,73.4 37.6,74.5 36.1,75.7 M64,-0.2 C64,-15.3 53.3,-25.5 38.7,-25.5 C37.7,-31.5 36.8,-37.4 35.9,-43 C46.4,-54.1 53.8,-66.7 53.8,-82.5 C53.8,-91.6 51,-99 49.3,-102.6 C46.9,-107.7 44,-111.2 42.3,-111.2 C41.6,-111.2 38.4,-110 35.2,-106.1 C28.7,-98.5 26.9,-85.8 26.9,-77.4 C26.9,-72 27.4,-67.1 29.1,-55.8 C29,-55.8 23.8,-50.5 21.7,-48.7 C12.6,-40.3 0,-28.1 0,-8.2 C0,10.6 16.3,25.3 34.9,25.3 C37.8,25.3 40.5,25 42.9,24.6 C44.7,34.1 45.9,41.2 45.9,46.5 C45.9,56.9 40.5,62.4 30.4,62.4 C28,62.4 25.9,61.9 25.7,61.8 C25.6,61.8 25.4,61.7 25.4,61.6 C25.4,61.4 25.6,61.3 25.9,61.2 C30.6,60.5 35.3,56.4 35.3,50.1 C35.3,44.7 31.2,39 23.7,39 C16.7,39 12.3,44.7 12.3,51.3 C12.3,57.9 17.3,66.6 30.8,66.6 C43.7,66.6 50,59.3 50,46.5 C50,42.6 49.4,38.1 48.4,32.4 C48.1,30.4 47.6,27.3 46.9,23.5 C56.7,20.2 64,10.1 64,-0.2 M42.3,71.7 C42.3,68 38.9,66.4 35.6,66.4 C31.4,66.4 27.3,69 27.3,73.5 C27.3,75.4 28,76.8 29.4,78.2 C26.8,79.2 24.2,81.2 24.2,84.3 C24.2,87.6 27.2,89.8 31.6,89.8 C37,89.8 40.8,86.8 40.8,82.5 C40.8,80.2 39.8,78.3 38,77 C40.9,75.7 42.3,74.1 42.3,71.7"/>
<path class="Clef" transform="matrix(1.06583,0,0,1.06583,237.379,1638.12)" d="M36.2,21.2 C21.9,21.2 9.7,11.2 9.7,-3.9 C9.7,-16.1 18.3,-27 27.1,-34.7 C28.8,-36.1 30.4,-37.5 31.9,-39 C32.8,-33.6 33.5,-29 34.2,-24.8 C25.1,-22.2 18.9,-12.5 18.9,-3.2 C18.9,3.9 24.4,13.5 32.4,13.5 C33.2,13.5 34.1,13.1 34.1,12.1 C34.1,11.3 33.2,10.7 31.9,9.9 C28,7.6 25.8,4.9 25.8,0.1 C25.8,-6 30.4,-10.9 36.2,-12.3 L42,20.5 C40,20.9 38.2,21.2 36.2,21.2 M33.2,-82.2 C34.2,-86.2 38.7,-96.7 43.9,-96.7 C45.4,-96.7 47.9,-91.9 47.9,-84.9 C47.9,-74.6 40.1,-66.8 33.2,-59.9 C32.6,-63.9 32.1,-67.9 32.1,-72 C32.1,-75.8 32.5,-79.1 33.2,-82.2 M46.2,19.3 C44.1,7.4 41.4,-8.5 40.7,-12.9 C50.8,-12.9 55.1,-5.9 56,-1.1 C56.1,-0.3 56.3,0.8 56.3,2 C56.3,9.2 53.3,16.4 46.2,19.3 M32.3,87.7 C30.1,87.7 28.6,86.3 28.6,84.2 C28.6,82.2 29.5,80.6 31.2,79.6 C31.6,79.8 31.7,79.8 32,80 C33.2,80.6 33.2,80.6 33.4,80.8 C35.3,81.9 36.1,82.9 36.1,84.3 C36.1,86.2 34.5,87.7 32.3,87.7 M36.1,75.7 C34.6,74.9 34.2,74.7 33.9,74.5 L33.7,74.4 C32.2,73.5 31.7,72.8 31.7,71.6 C31.7,69.8 33.1,68.5 35.1,68.5 C37,68.5 38.2,69.7 38.2,71.8 C38.2,73.4 37.6,74.5 36.1,75.7 M64,-0.2 C64,-15.3 53.3,-25.5 38.7,-25.5 C37.7,-31.5 36.8,-37.4 35.9,-43 C46.4,-54.1 53.8,-66.7 53.8,-82.5 C53.8,-91.6 51,-99 49.3,-102.6 C46.9,-107.7 44,-111.2 42.3,-111.2 C41.6,-111.2 38.4,-110 35.2,-106.1 C28.7,-98.5 26.9,-85.8 26.9,-77.4 C26.9,-72 27.4,-67.1 29.1,-55.8 C29,-55.8 23.8,-50.5 21.7,-48.7 C12.6,-40.3 0,-28.1 0,-8.2 C0,10.6 16.3,25.3 34.9,25.3 C37.8,25.3 40.5,25 42.9,24.6 C44.7,34.1 45.9,41.2 45.9,46.5 C45.9,56.9 40.5,62.4 30.4,62.4 C28,62.4 25.9,61.9 25.7,61.8 C25.6,61.8 25.4,61.7 25.4,61.6 C25.4,61.4 25.6,61.3 25.9,61.2 C30.6,60.5 35.3,56.4 35.3,50.1 C35.3,44.7 31.2,39 23.7,39 C16.7,39 12.3,44.7 12.3,51.3 C12.3,57.9 17.3,66.6 30.8,66.6 C43.7,66.6 50,59.3 50,46.5 C50,42.6 49.4,38.1 48.4,32.4 C48.1,30.4 47.6,27.3 46.9,23.5 C56.7,20.2 64,10.1 64,-0.2 M42.3,71.7 C42.3,68 38.9,66.4 35.6,66.4 C31.4,66.4 27.3,69 27.3,73.5 C27.3,75.4 28,76.8 29.4,78.2 C26.8,79.2 24.2,81.2 24.2,84.3 C24.2,87.6 27.2,89.8 31.6,89.8 C37,89.8 40.8,86.8 40.8,82.5 C40.8,80.2 39.8,78.3 38,77 C40.9,75.7 42.3,74.1 42.3,71.7"/>
<path class="Clef" transform="matrix(1.06583,0,0,1.06583,237.379,989.848)" d="M36.2,21.2 C21.9,21.2 9.7,11.2 9.7,-3.9 C9.7,-16.1 18.3,-27 27.1,-34.7 C28.8,-36.1 30.4,-37.5 31.9,-39 C32.8,-33.6 33.5,-29 34.2,-24.8 C25.1,-22.2 18.9,-12.5 18.9,-3.2 C18.9,3.9 24.4,13.5 32.4,13.5 C33.2,13.5 34.1,13.1 34.1,12.1 C34.1,11.3 33.2,10.7 31.9,9.9 C28,7.6 25.8,4.9 25.8,0.1 C25.8,-6 30.4,-10.9 36.2,-12.3 L42,20.5 C40,20.9 38.2,21.2 36.2,21.2 M33.2,-82.2 C34.2,-86.2 38.7,-96.7 43.9,-96.7 C45.4,-96.7 47.9,-91.9 47.9,-84.9 C47.9,-74.6 40.1,-66.8 33.2,-59.9 C32.6,-63.9 32.1,-67.9 32.1,-72 C32.1,-75.8 32.5,-79.1 33.2,-82.2 M46.2,19.3 C44.1,7.4 41.4,-8.5 40.7,-12.9 C50.8,-12.9 55.1,-5.9 56,-1.1 C56.1,-0.3 56.3,0.8 56.3,2 C56.3,9.2 53.3,16.4 46.2,19.3 M32.3,87.7 C30.1,87.7 28.6,86.3 28.6,84.2 C28.6,82.2 29.5,80.6 31.2,79.6 C31.6,79.8 31.7,79.8 32,80 C33.2,80.6 33.2,80.6 33.4,80.8 C35.3,81.9 36.1,82.9 36.1,84.3 C36.1,86.2 34.5,87.7 32.3,87.7 M36.1,75.7 C34.6,74.9 34.2,74.7 33.9,74.5 L33.7,74.4 C32.2,73.5 31.7,72.8 31.7,71.6 C31.7,69.8 33.1,68.5 35.1,68.5 C37,68.5 38.2,69.7 38.2,71.8 C38.2,73.4 37.6,74.5 36.1,75.7 M64,-0.2 C64,-15.3 53.3,-25.5 38.7,-25.5 C37.7,-31.5 36.8,-37.4 35.9,-43 C46.4,-54.1 53.8,-66.7 53.8,-82.5 C53.8,-91.6 51,-99 49.3,-102.6 C46.9,-107.7 44,-111.2 42.3,-111.2 C41.6,-111.2 38.4,-110 35.2,-106.1 C28.7,-98.5 26.9,-85.8 26.9,-77.4 C26.9,-72 27.4,-67.1 29.1,-55.8 C29,-55.8 23.8,-50.5 21.7,-48.7 C12.6,-40.3 0,-28.1 0,-8.2 C0,10.6 16.3,25.3 34.9,25.3 C37.8,25.3 40.5,25 42.9,24.6 C44.7,34.1 45.9,41.2 45.9,46.5 C45.9,56.9 40.5,62.4 30.4,62.4 C28,62.4 25.9,61.9 25.7,61.8 C25.6,61.8 25.4,61.7 25.4,61.6 C25.4,61.4 25.6,61.3 25.9,61.2 C30.6,60.5 35.3,56.4 35.3,50.1 C35.3,44.7 31.2,39 23.7,39 C16.7,39 12.3,44.7 12.3,51.3 C12.3,57.9 17.3,66.6 30.8,66.6 C43.7,66.6 50,59.3 50,46.5 C50,42.6 49.4,38.1 48.4,32.4 C48.1,30.4 47.6,27.3 46.9,23.5 C56.7,20.2 64,10.1 64,-0.2 M42.3,71.7 C42.3,68 38.9,66.4 35.6,66.4 C31.4,66.4 27.3,69 27.3,73.5 C27.3,75.4 28,76.8 29.4,78.2 C26.8,79.2 24.2,81.2 24.2,84.3 C24.2,87.6 27.2,89.8 31.6,89.8 C37,89.8 40.8,86.8 40.8,82.5 C40.8,80.2 39.8,78.3 38,77 C40.9,75.7 42.3,74.1 42.3,71.7"/>
<path class="Clef" transform="matrix(1.06583,0,0,1.06583,237.379,621.361)" d="M36.2,21.2 C21.9,21.2 9.7,11.2 9.7,-3.9 C9.7,-16.1 18.3,-27 27.1,-34.7 C28.8,-36.1 30.4,-37.5 31.9,-39 C32.8,-33.6 33.5,-29 34.2,-24.8 C25.1,-22.2 18.9,-12.5 18.9,-3.2 C18.9,3.9 24.4,13.5 32.4,13.5 C33.2,13.5 34.1,13.1 34.1,12.1 C34.1,11.3 33.2,10.7 31.9,9.9 C28,7.6 25.8,4.9 25.8,0.1 C25.8,-6 30.4,-10.9 36.2,-12.3 L42,20.5 C40,20.9 38.2,21.2 36.2,21.2 M33.2,-82.2 C34.2,-86.2 38.7,-96.7 43.9,-96.7 C45.4,-96.7 47.9,-91.9 47.9,-84.9 C47.9,-74.6 40.1,-66.8 33.2,-59.9 C32.6,-63.9 32.1,-67.9 32.1,-72 C32.1,-75.8 32.5,-79.1 33.2,-82.2 M46.2,19.3 C44.1,7.4 41.4,-8.5 40.7,-12.9 C50.8,-12.9 55.1,-5.9 56,-1.1 C56.1,-0.3 56.3,0.8 56.3,2 C56.3,9.2 53.3,16.4 46.2,19.3 M32.3,87.7 C30.1,87.7 28.6,86.3 28.6,84.2 C28.6,82.2 29.5,80.6 31.2,79.6 C31.6,79.8 31.7,79.8 32,80 C33.2,80.6 33.2,80.6 33.4,80.8 C35.3,81.9 36.1,82.9 36.1,84.3 C36.1,86.2 34.5,87.7 32.3,87.7 M36.1,75.7 C34.6,74.9 34.2,74.7 33.9,74.5 L33.7,74.4 C32.2,73.5 31.7,72.8 31.7,71.6 C31.7,69.8 33.1,68.5 35.1,68.5 C37,68.5 38.2,69.7 38.2,71.8 C38.2,73.4 37.6,74.5 36.1,75.7 M64,-0.2 C64,-15.3 53.3,-25.5 38.7,-25.5 C37.7,-31.5 36.8,-37.4 35.9,-43 C46.4,-54.1 53.8,-66.7 53.8,-82.5 C53.8,-91.6 51,-99 49.3,-102.6 C46.9,-107.7 44,-111.2 42.3,-111.2 C41.6,-111.2 38.4,-110 35.2,-106.1 C28.7,-98.5 26.9,-85.8 26.9,-77.4 C26.9,-72 27.4,-67.1 29.1,-55.8 C29,-55.8 23.8,-50.5 21.7,-48.7 C12.6,-40.3 0,-28.1 0,-8.2 C0,10.6 16.3,25.3 34.9,25.3 C37.8,25.3 40.5,25 42.9,24.6 C44.7,34.1 45.9,41.2 45.9,46.5 C45.9,56.9 40.5,62.4 30.4,62.4 C28,62.4 25.9,61.9 25.7,61.8 C25.6,61.8 25.4,61.7 25.4,61.6 C25.4,61.4 25.6,61.3 25.9,61.2 C30.6,60.5 35.3,56.4 35.3,50.1 C35.3,44.7 31.2,39 23.7,39 C16.7,39 12.3,44.7 12.3,51.3 C12.3,57.9 17.3,66.6 30.8,66.6 C43.7,66.6 50,59.3 50,46.5 C50,42.6 49.4,38.1 48.4,32.4 C48.1,30.4 47.6,27.3 46.9,23.5 C56.7,20.2 64,10.1 64,-0.2 M42.3,71.7 C42.3,68 38.9,66.4 35.6,66.4 C31.4,66.4 27.3,69 27.3,73.5 C27.3,75.4 28,76.8 29.4,78.2 C26.8,79.2 24.2,81.2 24.2,84.3 C24.2,87.6 27.2,89.8 31.6,89.8 C37,89.8 40.8,86.8 40.8,82.5 C40.8,80.2 39.8,78.3 38,77 C40.9,75.7 42.3,74.1 42.3,71.7"/>
<path class="Clef" transform="matrix(1.06583,0,0,1.06583,237.379,1917.9)" d="M36.2,21.2 C21.9,21.2 9.7,11.2 9.7,-3.9 C9.7,-16.1 18.3,-27 27.1,-34.7 C28.8,-36.1 30.4,-37.5 31.9,-39 C32.8,-33.6 33.5,-29 34.2,-24.8 C25.1,-22.2 18.9,-12.5 18.9,-3.2 C18.9,3.9 24.4,13.5 32.4,13.5 C33.2,13.5 34.1,13.1 34.1,12.1 C34.1,11.3 33.2,10.7 31.9,9.9 C28,7.6 25.8,4.9 25.8,0.1 C25.8,-6 30.4,-10.9 36.2,-12.3 L42,20.5 C40,20.9 38.2,21.2 36.2,21.2 M33.2,-82.2 C34.2,-86.2 38.7,-96.7 43.9,-96.7 C45.4,-96.7 47.9,-91.9 47.9,-84.9 C47.9,-74.6 40.1,-66.8 33.2,-59.9 C32.6,-63.9 32.1,-67.9 32.1,-72 C32.1,-75.8 32.5,-79.1 33.2,-82.2 M46.2,19.3 C44.1,7.4 41.4,-8.5 40.7,-12.9 C50.8,-12.9 55.1,-5.9 56,-1.1 C56.1,-0.3 56.3,0.8 56.3,2 C56.3,9.2 53.3,16.4 46.2,19.3 M32.3,87.7 C30.1,87.7 28.6,86.3 28.6,84.2 C28.6,82.2 29.5,80.6 31.2,79.6 C31.6,79.8 31.7,79.8 32,80 C33.2,80.6 33.2,80.6 33.4,80.8 C35.3,81.9 36.1,82.9 36.1,84.3 C36.1,86.2 34.5,87.7 32.3,87.7 M36.1,75.7 C34.6,74.9 34.2,74.7 33.9,74.5 L33.7,74.4 C32.2,73.5 31.7,72.8 31.7,71.6 C31.7,69.8 33.1,68.5 35.1,68.5 C37,68.5 38.2,69.7 38.2,71.8 C38.2,73.4 37.6,74.5 36.1,75.7 M64,-0.2 C64,-15.3 53.3,-25.5 38.7,-25.5 C37.7,-31.5 36.8,-37.4 35.9,-43 C46.4,-54.1 53.8,-66.7 53.8,-82.5 C53.8,-91.6 51,-99 49.3,-102.6 C46.9,-107.7 44,-111.2 42.3,-111.2 C41.6,-111.2 38.4,-110 35.2,-106.1 C28.7,-98.5 26.9,-85.8 26.9,-77.4 C26.9,-72 27.4,-67.1 29.1,-55.8 C29,-55.8 23.8,-50.5 21.7,-48.7 C12.6,-40.3 0,-28.1 0,-8.2 C0,10.6 16.3,25.3 34.9,25.3 C37.8,25.3 40.5,25 42.9,24.6 C44.7,34.1 45.9,41.2 45.9,46.5 C45.9,56.9 40.5,62.4 30.4,62.4 C28,62.4 25.9,61.9 25.7,61.8 C25.6,61.8 25.4,61.7 25.4,61.6 C25.4,61.4 25.6,61.3 25.9,61.2 C30.6,60.5 35.3,56.4 35.3,50.1 C35.3,44.7 31.2,39 23.7,39 C16.7,39 12.3,44.7 12.3,51.3 C12.3,57.9 17.3,66.6 30.8,66.6 C43.7,66.6 50,59.3 50,46.5 C50,42.6 49.4,38.1 48.4,32.4 C48.1,30.4 47.6,27.3 46.9,23.5 C56.7,20.2 64,10.1 64,-0.2 M42.3,71.7 C42.3,68 38.9,66.4 35.6,66.4 C31.4,66.4 27.3,69 27.3,73.5 C27.3,75.4 28,76.8 29.4,78.2 C26.8,79.2 24.2,81.2 24.2,84.3 C24.2,87.6 27.2,89.8 31.6,89.8 C37,89.8 40.8,86.8 40.8,82.5 C40.8,80.2 39.8,78.3 38,77 C40.9,75.7 42.3,74.1 42.3,71.7"/>
<path class="Clef" transform="matrix(1.06583,0,0,1.06583,237.379,1269.63)" d="M36.2,21.2 C21.9,21.2 9.7,11.2 9.7,-3.9 C9.7,-16.1 18.3,-27 27.1,-34.7 C28.8,-36.1 30.4,-37.5 31.9,-39 C32.8,-33.6 33.5,-29 34.2,-24.8 C25.1,-22.2 18.9,-12.5 18.9,-3.2 C18.9,3.9 24.4,13.5 32.4,13.5 C33.2,13.5 34.1,13.1 34.1,12.1 C34.1,11.3 33.2,10.7 31.9,9.9 C28,7.6 25.8,4.9 25.8,0.1 C25.8,-6 30.4,-10.9 36.2,-12.3 L42,20.5 C40,20.9 38.2,21.2 36.2,21.2 M33.2,-82.2 C34.2,-86.2 38.7,-96.7 43.9,-96.7 C45.4,-96.7 47.9,-91.9 47.9,-84.9 C47.9,-74.6 40.1,-66.8 33.2,-59.9 C32.6,-63.9 32.1,-67.9 32.1,-72 C32.1,-75.8 32.5,-79.1 33.2,-82.2 M46.2,19.3 C44.1,7.4 41.4,-8.5 40.7,-12.9 C50.8,-12.9 55.1,-5.9 56,-1.1 C56.1,-0.3 56.3,0.8 56.3,2 C56.3,9.2 53.3,16.4 46.2,19.3 M32.3,87.7 C30.1,87.7 28.6,86.3 28.6,84.2 C28.6,82.2 29.5,80.6 31.2,79.6 C31.6,79.8 31.7,79.8 32,80 C33.2,80.6 33.2,80.6 33.4,80.8 C35.3,81.9 36.1,82.9 36.1,84.3 C36.1,86.2 34.5,87.7 32.3,87.7 M36.1,75.7 C34.6,74.9 34.2,74.7 33.9,74.5 L33.7,74.4 C32.2,73.5 31.7,72.8 31.7,71.6 C31.7,69.8 33.1,68.5 35.1,68.5 C37,68.5 38.2,69.7 38.2,71.8 C38.2,73.4 37.6,74.5 36.1,75.7 M64,-0.2 C64,-15.3 53.3,-25.5 38.7,-25.5 C37.7,-31.5 36.8,-37.4 35.9,-43 C46.4,-54.1 53.8,-66.7 53.8,-82.5 C53.8,-91.6 51,-99 49.3,-102.6 C46.9,-107.7 44,-111.2 42.3,-111.2 C41.6,-111.2 38.4,-110 35.2,-106.1 C28.7,-98.5 26.9,-85.8 26.9,-77.4 C26.9,-72 27.4,-67.1 29.1,-55.8 C29,-55.8 23.8,-50.5 21.7,-48.7 C12.6,-40.3 0,-28.1 0,-8.2 C0,10.6 16.3,25.3 34.9,25.3 C37.8,25.3 40.5,25 42.9,24.6 C44.7,34.1 45.9,41.2 45.9,46.5 C45.9,56.9 40.5,62.4 30.4,62.4 C28,62.4 25.9,61.9 25.7,61.8 C25.6,61.8 25.4,61.7 25.4,61.6 C25.4,61.4 25.6,61.3 25.9,61.2 C30.6,60.5 35.3,56.4 35.3,50.1 C35.3,44.7 31.2,39 23.7,39 C16.7,39 12.3,44.7 12.3,51.3 C12.3,57.9 17.3,66.6 30.8,66.6 C43.7,66.6 50,59.3 50,46.5 C50,42.6 49.4,38.1 48.4,32.4 C48.1,30.4 47.6,27.3 46.9,23.5 C56.7,20.2 64,10.1 64,-0.2 M42.3,71.7 C42.3,68 38.9,66.4 35.6,66.4 C31.4,66.4 27.3,69 27.3,73.5 C27.3,75.4 28,76.8 29.4,78.2 C26.8,79.2 24.2,81.2 24.2,84.3 C24.2,87.6 27.2,89.8 31.6,89.8 C37,89.8 40.8,86.8 40.8,82.5 C40.8,80.2 39.8,78.3 38,77 C40.9,75.7 42.3,74.1 42.3,71.7"/>
<path class="KeySig" transform="matrix(1.06583,0,0,1.06583,325.559,963.203)" d="M13.2,-4 C13.2,3.9 9.1,8.1 3.3,12.7 L3.6,-6.8 C3.8,-7.7 5.3,-10.6 9.3,-10.6 C12.9,-10.6 13.2,-7.2 13.2,-5.1 L13.2,-4 M12,-15.5 C7,-15.5 4.1,-12.4 3.6,-11.8 L4,-43.9 C4,-44.7 3.4,-45.3 2.6,-45.3 L1.4,-45.3 C0.6,-45.3 0,-44.7 0,-43.9 L0.5,16.2 C0.5,17 1.1,17.6 1.9,17.6 C2.1,17.6 2.5,17.5 2.7,17.4 C11.3,13.1 20.3,4.9 20.3,-5.4 C20.3,-10.6 17.9,-15.5 12,-15.5"/>
<path class="KeySig" transform="matrix(1.06583,0,0,1.06583,325.559,314.935)" d="M13.2,-4 C13.2,3.9 9.1,8.1 3.3,12.7 L3.6,-6.8 C3.8,-7.7 5.3,-10.6 9.3,-10.6 C12.9,-10.6 13.2,-7.2 13.2,-5.1 L13.2,-4 M12,-15.5 C7,-15.5 4.1,-12.4 3.6,-11.8 L4,-43.9 C4,-44.7 3.4,-45.3 2.6,-45.3 L1.4,-45.3 C0.6,-45.3 0,-44.7 0,-43.9 L0.5,16.2 C0.5,17 1.1,17.6 1.9,17.6 C2.1,17.6 2.5,17.5 2.7,17.4 C11.3,13.1 20.3,4.9 20.3,-5.4 C20.3,-10.6 17.9,-15.5 12,-15.5"/>
<path class="KeySig" transform="matrix(1.06583,0,0,1.06583,325.559,1611.47)" d="M13.2,-4 C13.2,3.9 9.1,8.1 3.3,12.7 L3.6,-6.8 C3.8,-7.7 5.3,-10.6 9.3,-10.6 C12.9,-10.6 13.2,-7.2 13.2,-5.1 L13.2,-4 M12,-15.5 C7,-15.5 4.1,-12.4 3.6,-11.8 L4,-43.9 C4,-44.7 3.4,-45.3 2.6,-45.3 L1.4,-45.3 C0.6,-45.3 0,-44.7 0,-43.9 L0.5,16.2 C0.5,17 1.1,17.6 1.9,17.6 C2.1,17.6 2.5,17.5 2.7,17.4 C11.3,13.1 20.3,4.9 20.3,-5.4 C20.3,-10.6 17.9,-15.5 12,-15.5"/>
<path class="KeySig" transform="matrix(1.06583,0,0,1.06583,325.559,1891.25)" d="M13.2,-4 C13.2,3.9 9.1,8.1 3.3,12.7 L3.6,-6.8 C3.8,-7.7 5.3,-10.6 9.3,-10.6 C12.9,-10.6 13.2,-7.2 13.2,-5.1 L13.2,-4 M12,-15.5 C7,-15.5 4.1,-12.4 3.6,-11.8 L4,-43.9 C4,-44.7 3.4,-45.3 2.6,-45.3 L1.4,-45.3 C0.6,-45.3 0,-44.7 0,-43.9 L0.5,16.2 C0.5,17 1.1,17.6 1.9,17.6 C2.1,17.6 2.5,17.5 2.7,17.4 C11.3,13.1 20.3,4.9 20.3,-5.4 C20.3,-10.6 17.9,-15.5 12,-15.5"/>
<path class="KeySig" transform="matrix(1.06583,0,0,1.06583,325.559,594.715)" d="M13.2,-4 C13.2,3.9 9.1,8.1 3.3,12.7 L3.6,-6.8 C3.8,-7.7 5.3,-10.6 9.3,-10.6 C12.9,-10.6 13.2,-7.2 13.2,-5.1 L13.2,-4 M12,-15.5 C7,-15.5 4.1,-12.4 3.6,-11.8 L4,-43.9 C4,-44.7 3.4,-45.3 2.6,-45.3 L1.4,-45.3 C0.6,-45.3 0,-44.7 0,-43.9 L0.5,16.2 C0.5,17 1.1,17.6 1.9,17.6 C2.1,17.6 2.5,17.5 2.7,17.4 C11.3,13.1 20.3,4.9 20.3,-5.4 C20.3,-10.6 17.9,-15.5 12,-15.5"/>
<path class="KeySig" transform="matrix(1.06583,0,0,1.06583,325.559,1242.98)" d="M13.2,-4 C13.2,3.9 9.1,8.1 3.3,12.7 L3.6,-6.8 C3.8,-7.7 5.3,-10.6 9.3,-10.6 C12.9,-10.6 13.2,-7.2 13.2,-5.1 L13.2,-4 M12,-15.5 C7,-15.5 4.1,-12.4 3.6,-11.8 L4,-43.9 C4,-44.7 3.4,-45.3 2.6,-45.3 L1.4,-45.3 C0.6,-45.3 0,-44.7 0,-43.9 L0.5,16.2 C0.5,17 1.1,17.6 1.9,17.6 C2.1,17.6 2.5,17.5 2.7,17.4 C11.3,13.1 20.3,4.9 20.3,-5.4 C20.3,-10.6 17.9,-15.5 12,-15.5"/>
<path class="Rest" transform="matrix(1.06583,0,0,1.06583,1601.32,963.203)" d="M26.7,-20.3 C26.6,-20.3 26.4,-20.4 26.3,-20.4 C25.7,-20.4 25.2,-20.1 25,-19.6 C24.6,-19 21.5,-13.1 17,-9.8 C15.7,-8.8 14.1,-8.1 12.5,-7.8 C13.6,-9.1 14.3,-10.7 14.3,-12.6 C14.3,-16.5 11.1,-19.7 7.2,-19.7 C3.2,-19.7 0,-16.5 0,-12.6 C0,-7.2 5.3,-4.7 10,-4.7 C15.3,-4.7 18.8,-7.2 22.2,-10.9 L10.8,24.7 L13.5,25.5 L27.5,-18.6 C27.6,-18.7 27.6,-18.9 27.6,-19.1 C27.6,-19.6 27.3,-20 26.7,-20.3"/>
<path class="Rest" transform="matrix(1.06583,0,0,1.06583,1547.47,314.935)" d="M26.7,-20.3 C26.6,-20.3 26.4,-20.4 26.3,-20.4 C25.7,-20.4 25.2,-20.1 25,-19.6 C24.6,-19 21.5,-13.1 17,-9.8 C15.7,-8.8 14.1,-8.1 12.5,-7.8 C13.6,-9.1 14.3,-10.7 14.3,-12.6 C14.3,-16.5 11.1,-19.7 7.2,-19.7 C3.2,-19.7 0,-16.5 0,-12.6 C0,-7.2 5.3,-4.7 10,-4.7 C15.3,-4.7 18.8,-7.2 22.2,-10.9 L10.8,24.7 L13.5,25.5 L27.5,-18.6 C27.6,-18.7 27.6,-18.9 27.6,-19.1 C27.6,-19.6 27.3,-20 26.7,-20.3"/>
<path class="Rest" transform="matrix(1.06583,0,0,1.06583,721.042,963.203)" d="M26.7,-20.3 C26.6,-20.3 26.4,-20.4 26.3,-20.4 C25.7,-20.4 25.2,-20.1 25,-19.6 C24.6,-19 21.5,-13.1 17,-9.8 C15.7,-8.8 14.1,-8.1 12.5,-7.8 C13.6,-9.1 14.3,-10.7 14.3,-12.6 C14.3,-16.5 11.1,-19.7 7.2,-19.7 C3.2,-19.7 0,-16.5 0,-12.6 C0,-7.2 5.3,-4.7 10,-4.7 C15.3,-4.7 18.8,-7.2 22.2,-10.9 L10.8,24.7 L13.5,25.5 L27.5,-18.6 C27.6,-18.7 27.6,-18.9 27.6,-19.1 C27.6,-19.6 27.3,-20 26.7,-20.3"/>
<path class="Rest" transform="matrix(1.06583,0,0,1.06583,2232.8,314.935)" d="M26.7,-20.3 C26.6,-20.3 26.4,-20.4 26.3,-20.4 C25.7,-20.4 25.2,-20.1 25,-19.6 C24.6,-19 21.5,-13.1 17,-9.8 C15.7,-8.8 14.1,-8.1 12.5,-7.8 C13.6,-9.1 14.3,-10.7 14.3,-12.6 C14.3,-16.5 11.1,-19.7 7.2,-19.7 C3.2,-19.7 0,-16.5 0,-12.6 C0,-7.2 5.3,-4.7 10,-4.7 C15.3,-4.7 18.8,-7.2 22.2,-10.9 L10.8,24.7 L13.5,25.5 L27.5,-18.6 C27.6,-18.7 27.6,-18.9 27.6,-19.1 C27.6,-19.6 27.3,-20 26.7,-20.3"/>
<path class="Rest" transform="matrix(1.06583,0,0,1.06583,951.821,1242.98)" d="M26.7,-20.3 C26.6,-20.3 26.4,-20.4 26.3,-20.4 C25.7,-20.4 25.2,-20.1 25,-19.6 C24.6,-19 21.5,-13.1 17,-9.8 C15.7,-8.8 14.1,-8.1 12.5,-7.8 C13.6,-9.1 14.3,-10.7 14.3,-12.6 C14.3,-16.5 11.1,-19.7 7.2,-19.7 C3.2,-19.7 0,-16.5 0,-12.6 C0,-7.2 5.3,-4.7 10,-4.7 C15.3,-4.7 18.8,-7.2 22.2,-10.9 L10.8,24.7 L13.5,25.5 L27.5,-18.6 C27.6,-18.7 27.6,-18.9 27.6,-19.1 C27.6,-19.6 27.3,-20 26.7,-20.3"/>
<path class="Rest" transform="matrix(1.06583,0,0,1.06583,1547.47,594.715)" d="M26.7,-20.3 C26.6,-20.3 26.4,-20.4 26.3,-20.4 C25.7,-20.4 25.2,-20.1 25,-19.6 C24.6,-19 21.5,-13.1 17,-9.8 C15.7,-8.8 14.1,-8.1 12.5,-7.8 C13.6,-9.1 14.3,-10.7 14.3,-12.6 C14.3,-16.5 11.1,-19.7 7.2,-19.7 C3.2,-19.7 0,-16.5 0,-12.6 C0,-7.2 5.3,-4.7 10,-4.7 C15.3,-4.7 18.8,-7.2 22.2,-10.9 L10.8,24.7 L13.5,25.5 L27.5,-18.6 C27.6,-18.7 27.6,-18.9 27.6,-19.1 C27.6,-19.6 27.3,-20 26.7,-20.3"/>
<path class="Rest" transform="matrix(1.06583,0,0,1.06583,1991.12,594.715)" d="M26.7,-20.3 C26.6,-20.3 26.4,-20.4 26.3,-20.4 C25.7,-20.4 25.2,-20.1 25,-19.6 C24.6,-19 21.5,-13.1 17,-9.8 C15.7,-8.8 14.1,-8.1 12.5,-7.8 C13.6,-9.1 14.3,-10.7 14.3,-12.6 C14.3,-16.5 11.1,-19.7 7.2,-19.7 C3.2,-19.7 0,-16.5 0,-12.6 C0,-7.2 5.3,-4.7 10,-4.7 C15.3,-4.7 18.8,-7.2 22.2,-10.9 L10.8,24.7 L13.5,25.5 L27.5,-18.6 C27.6,-18.7 27.6,-18.9 27.6,-19.1 C27.6,-19.6 27.3,-20 26.7,-20.3"/>
<path class="Rest" transform="matrix(1.06583,0,0,1.06583,1370.54,1242.98)" d="M26.7,-20.3 C26.6,-20.3 26.4,-20.4 26.3,-20.4 C25.7,-20.4 25.2,-20.1 25,-19.6 C24.6,-19 21.5,-13.1 17,-9.8 C15.7,-8.8 14.1,-8.1 12.5,-7.8 C13.6,-9.1 14.3,-10.7 14.3,-12.6 C14.3,-16.5 11.1,-19.7 7.2,-19.7 C3.2,-19.7 0,-16.5 0,-12.6 C0,-7.2 5.3,-4.7 10,-4.7 C15.3,-4.7 18.8,-7.2 22.2,-10.9 L10.8,24.7 L13.5,25.5 L27.5,-18.6 C27.6,-18.7 27.6,-18.9 27.6,-19.1 C27.6,-19.6 27.3,-20 26.7,-20.3"/>
<path class="Beam" fill-rule="evenodd" d="M1062.95,234.991 L1201.87,241.652 L1201.87,254.99 L1062.95,248.329 L1062.95,234.991 "/>
<path class="Beam" fill-rule="evenodd" d="M516.105,1678.03 L568.629,1671.37 L568.629,1684.8 L516.105,1691.46 L516.105,1678.03 "/>
<path class="Beam" fill-rule="evenodd" d="M516.105,1658.05 L568.629,1651.39 L568.629,1664.81 L516.105,1671.48 L516.105,1658.05 "/>
<path class="Beam" fill-rule="evenodd" d="M2108.17,1003.17 L2245.05,1003.17 L2245.05,1016.49 L2108.17,1016.49 L2108.17,1003.17 "/>
<path class="Beam" fill-rule="evenodd" d="M814.565,641.345 L953.487,641.345 L953.487,654.668 L814.565,654.668 L814.565,641.345 "/>
<path class="Beam" fill-rule="evenodd" d="M2599.79,1163.04 L2726.36,1169.7 L2726.36,1183.04 L2599.79,1176.38 L2599.79,1163.04 "/>
<path class="Lyrics" d="M1085.19,1999.78 L1075.81,2000.36 L1075.81,2002.64 L1077.98,2002.64 C1080,2002.69 1080.26,2003.01 1080.26,2005.29 L1080.26,2020.45 C1080.21,2021.24 1080.16,2021.56 1079.95,2021.83 C1079.57,2022.3 1078.51,2022.52 1076.24,2022.57 L1076.02,2022.57 L1076.02,2024.48 L1090.17,2024.48 L1090.17,2022.57 L1089.22,2022.57 C1085.67,2022.46 1085.19,2022.2 1085.19,2020.29 L1085.19,2017.43 C1085.25,2008.52 1088.43,2001.74 1092.56,2001.53 C1091.82,2002.38 1091.61,2002.91 1091.61,2003.91 C1091.61,2005.61 1092.82,2006.83 1094.52,2006.83 C1096.48,2006.83 1097.75,2005.4 1097.75,2003.28 C1097.75,2000.68 1095.95,1998.98 1093.14,1998.98 C1089.8,1998.98 1086.94,2001.63 1085.19,2006.35 L1085.19,1999.78 M1122.56,2012.55 C1122.61,2004.6 1118.11,1998.98 1111.64,1998.98 C1104.86,1998.98 1099.77,2004.87 1099.77,2012.82 C1099.77,2020.29 1104.59,2025.27 1111.75,2025.27 C1116.84,2025.27 1120.39,2022.78 1122.56,2017.75 L1120.71,2016.74 C1118.53,2020.82 1116.31,2022.41 1112.76,2022.41 C1110.05,2022.41 1108.09,2021.3 1106.71,2018.91 C1105.76,2017.32 1105.34,2015.47 1105.39,2012.55 L1122.56,2012.55 M1105.44,2010.27 C1105.44,2006.56 1107.14,2001.26 1111.59,2001.26 C1114.77,2001.26 1116.89,2004.07 1116.89,2008.37 C1116.89,2009.85 1116.41,2010.27 1114.72,2010.27 L1105.44,2010.27 M1131.26,2018.59 C1129.4,2018.59 1127.92,2020.08 1127.92,2021.88 C1127.92,2023.74 1129.4,2025.22 1131.2,2025.22 C1133.06,2025.22 1134.54,2023.74 1134.54,2021.88 C1134.54,2020.08 1133.06,2018.59 1131.26,2018.59"/>
<polyline class="TextLineSegment" fill="none" stroke="#000000" stroke-width="3.75" stroke-linejoin="miter" stroke-miterlimit="2" points="534.034,241.527 534.034,214.881 707.767,214.881 707.767,241.527" />
<polyline class="TextLineSegment" fill="none" stroke="#000000" stroke-width="3.75" stroke-linejoin="miter" stroke-miterlimit="2" points="373.838,863.148 496.489,863.148 496.489,889.794" />
<polyline class="TextLineSegment" fill="none" stroke="#000000" stroke-width="3.75" stroke-linejoin="miter" stroke-miterlimit="2" points="1991.12,241.527 1991.12,214.881 2206.16,214.881 2206.16,241.527" />
<polyline class="TextLineSegment" fill="none" stroke="#000000" stroke-width="3.75" stroke-linejoin="miter" stroke-miterlimit="2" points="2567.81,889.794 2567.81,863.148 2757.94,863.148" />
<polyline class="TextLineSegment" fill="none" stroke="#000000" stroke-width="3.75" stroke-linejoin="miter" stroke-miterlimit="2" points="1665.72,241.527 1665.72,214.881 1964.48,214.881 1964.48,241.527" />
<polyline class="TextLineSegment" fill="none" stroke="#000000" stroke-width="3.75" stroke-linejoin="miter" stroke-miterlimit="2" points="2242.39,889.794 2242.39,863.148 2503.06,863.148 2503.06,889.794" />
<polyline class="TextLineSegment" fill="none" stroke="#000000" stroke-width="3.75" stroke-linejoin="miter" stroke-miterlimit="2" points="950.822,241.118 950.822,214.472 1400.6,214.472 1400.6,241.118" />
<polyline class="TextLineSegment" fill="none" stroke="#000000" stroke-width="3.75" stroke-linejoin="miter" stroke-miterlimit="2" points="734.413,241.527 734.413,214.881 924.177,214.881 924.177,241.527" />
<polyline class="TextLineSegment" fill="none" stroke="#000000" stroke-width="3.75" stroke-linejoin="miter" stroke-miterlimit="2" points="2022.91,864.097 2022.91,837.452 2215.74,837.452 2215.74,864.097" />
<polyline class="TextLineSegment" fill="none" stroke="#000000" stroke-width="3.75" stroke-linejoin="miter" stroke-miterlimit="2" points="907.378,1538.06 907.378,1511.42 1017.5,1511.42 1017.5,1538.06" />
<polyline class="TextLineSegment" fill="none" stroke="#000000" stroke-width="3.75" stroke-linejoin="miter" stroke-miterlimit="2" points="2679.34,241.527 2679.34,214.881 2757.94,214.881" />
<polyline class="TextLineSegment" fill="none" stroke="#000000" stroke-width="3.75" stroke-linejoin="miter" stroke-miterlimit="2" points="1712.79,877.42 1712.79,850.775 1996.26,850.775 1996.26,877.42" />
<polyline class="TextLineSegment" fill="none" stroke="#000000" stroke-width="3.75" stroke-linejoin="miter" stroke-miterlimit="2" points="373.838,1511.42 567.019,1511.42 567.019,1538.06" />
<polyline class="TextLineSegment" fill="none" stroke="#000000" stroke-width="3.75" stroke-linejoin="miter" stroke-miterlimit="2" points="1370.54,889.794 1370.54,863.148 1574.67,863.148 1574.67,889.794" />
<polyline class="TextLineSegment" fill="none" stroke="#000000" stroke-width="3.75" stroke-linejoin="miter" stroke-miterlimit="2" points="1172.63,889.794 1172.63,863.148 1343.89,863.148 1343.89,889.794" />
<polyline class="TextLineSegment" fill="none" stroke="#000000" stroke-width="3.75" stroke-linejoin="miter" stroke-miterlimit="2" points="842.493,877.42 842.493,850.775 1145.98,850.775 1145.98,877.42" />
<polyline class="TextLineSegment" fill="none" stroke="#000000" stroke-width="3.75" stroke-linejoin="miter" stroke-miterlimit="2" points="523.135,889.794 523.135,863.148 694.396,863.148 694.396,889.794" />
<polyline class="TextLineSegment" fill="none" stroke="#000000" stroke-width="3.75" stroke-linejoin="miter" stroke-miterlimit="2" points="593.665,1525.69 593.665,1499.04 880.733,1499.04 880.733,1525.69" />
<polyline class="TextLineSegment" fill="none" stroke="#000000" stroke-width="3.75" stroke-linejoin="miter" stroke-miterlimit="2" points="2471.29,241.527 2471.29,214.881 2652.69,214.881 2652.69,241.527" />
<polyline class="TextLineSegment" fill="none" stroke="#000000" stroke-width="3.75" stroke-linejoin="miter" stroke-miterlimit="2" points="373.838,1142.93 496.489,1142.93 496.489,1169.57" />
<polyline class="TextLineSegment" fill="none" stroke="#000000" stroke-width="3.75" stroke-linejoin="miter" stroke-miterlimit="2" points="373.838,1791.19 567.019,1791.19 567.019,1817.84" />
<polyline class="TextLineSegment" fill="none" stroke="#000000" stroke-width="3.75" stroke-linejoin="miter" stroke-miterlimit="2" points="1491.99,1169.57 1491.99,1142.93 1795.48,1142.93 1795.48,1169.57" />
<polyline class="TextLineSegment" fill="none" stroke="#000000" stroke-width="3.75" stroke-linejoin="miter" stroke-miterlimit="2" points="2679.34,521.306 2679.34,494.66 2757.94,494.66" />
<polyline class="TextLineSegment" fill="none" stroke="#000000" stroke-width="3.75" stroke-linejoin="miter" stroke-miterlimit="2" points="1822.12,1169.57 1822.12,1142.93 1996.26,1142.93 1996.26,1169.57" />
<polyline class="TextLineSegment" fill="none" stroke="#000000" stroke-width="3.75" stroke-linejoin="miter" stroke-miterlimit="2" points="2471.29,521.306 2471.29,494.66 2652.69,494.66 2652.69,521.306" />
<polyline class="TextLineSegment" fill="none" stroke="#000000" stroke-width="3.75" stroke-linejoin="miter" stroke-miterlimit="2" points="614.186,521.306 614.186,494.66 924.177,494.66 924.177,521.306" />
<polyline class="TextLineSegment" fill="none" stroke="#000000" stroke-width="3.75" stroke-linejoin="miter" stroke-miterlimit="2" points="2022.91,1169.57 2022.91,1142.93 2215.74,1142.93 2215.74,1169.57" />
<polyline class="TextLineSegment" fill="none" stroke="#000000" stroke-width="3.75" stroke-linejoin="miter" stroke-miterlimit="2" points="950.822,521.306 950.822,494.66 1220.74,494.66 1220.74,521.306" />
<polyline class="TextLineSegment" fill="none" stroke="#000000" stroke-width="3.75" stroke-linejoin="miter" stroke-miterlimit="2" points="2242.39,1169.57 2242.39,1142.93 2419.71,1142.93 2419.71,1169.57" />
<polyline class="TextLineSegment" fill="none" stroke="#000000" stroke-width="3.75" stroke-linejoin="miter" stroke-miterlimit="2" points="2446.36,1147.72 2446.36,1121.08 2665.07,1121.08 2665.07,1147.72" />
<polyline class="TextLineSegment" fill="none" stroke="#000000" stroke-width="3.75" stroke-linejoin="miter" stroke-miterlimit="2" points="2691.72,1147.72 2691.72,1121.08 2757.94,1121.08" />
<polyline class="TextLineSegment" fill="none" stroke="#000000" stroke-width="3.75" stroke-linejoin="miter" stroke-miterlimit="2" points="2232.8,521.306 2232.8,494.66 2444.64,494.66 2444.64,521.306" />
<polyline class="LyricsLineSegment" fill="none" stroke="#000000" stroke-width="2.66" stroke-linejoin="bevel" points="564.52,1363.86 580.507,1363.86" />
<polyline class="LyricsLineSegment" fill="none" stroke="#000000" stroke-width="2.66" stroke-linejoin="bevel" points="961.87,1363.86 977.857,1363.86" />
<polyline class="LyricsLineSegment" fill="none" stroke="#000000" stroke-width="2.66" stroke-linejoin="bevel" points="1359.22,1363.86 1375.21,1363.86" />
<polyline class="LyricsLineSegment" fill="none" stroke="#000000" stroke-width="2.66" stroke-linejoin="bevel" points="1756.57,1363.86 1772.56,1363.86" />
<polyline class="LyricsLineSegment" fill="none" stroke="#000000" stroke-width="2.66" stroke-linejoin="bevel" points="2153.92,1363.86 2169.91,1363.86" />
<polyline class="LyricsLineSegment" fill="none" stroke="#000000" stroke-width="2.66" stroke-linejoin="bevel" points="2551.27,1363.86 2567.26,1363.86" />
<polyline class="LyricsLineSegment" fill="none" stroke="#000000" stroke-width="2.66" stroke-linejoin="bevel" points="541.004,2012.13 556.991,2012.13" />
<polyline class="LyricsLineSegment" fill="none" stroke="#000000" stroke-width="2.66" stroke-linejoin="bevel" points="891.322,2012.13 907.31,2012.13" />
<polyline class="LyricsLineSegment" fill="none" stroke="#000000" stroke-width="2.66" stroke-linejoin="bevel" points="564.52,715.594 580.507,715.594" />
<polyline class="LyricsLineSegment" fill="none" stroke="#000000" stroke-width="2.66" stroke-linejoin="bevel" points="961.87,715.594 977.857,715.594" />
<polyline class="LyricsLineSegment" fill="none" stroke="#000000" stroke-width="2.66" stroke-linejoin="bevel" points="1359.22,715.594 1375.21,715.594" />
<polyline class="LyricsLineSegment" fill="none" stroke="#000000" stroke-width="2.66" stroke-linejoin="bevel" points="1756.57,715.594 1772.56,715.594" />
<polyline class="LyricsLineSegment" fill="none" stroke="#000000" stroke-width="2.66" stroke-linejoin="bevel" points="2153.92,715.594 2169.91,715.594" />
<polyline class="LyricsLineSegment" fill="none" stroke="#000000" stroke-width="2.66" stroke-linejoin="bevel" points="2551.27,715.594 2567.26,715.594" />
<path class="NoteDot" transform="matrix(1.06583,0,0,1.06583,2369.28,923.234)" d="M0,0 C0,2.8 2.2,5 5,5 C7.8,5 10,2.8 10,0 C10,-2.8 7.8,-5 5,-5 C2.2,-5 0,-2.8 0,0"/>
<path class="NoteDot" transform="matrix(1.06583,0,0,1.06583,1295.33,354.904)" d="M0,0 C0,2.8 2.2,5 5,5 C7.8,5 10,2.8 10,0 C10,-2.8 7.8,-5 5,-5 C2.2,-5 0,-2.8 0,0"/>
<path class="NoteDot" transform="matrix(1.06583,0,0,1.06583,461.752,1282.95)" d="M0,0 C0,2.8 2.2,5 5,5 C7.8,5 10,2.8 10,0 C10,-2.8 7.8,-5 5,-5 C2.2,-5 0,-2.8 0,0"/>
<path class="NoteDot" transform="matrix(1.06583,0,0,1.06583,1713.67,581.392)" d="M0,0 C0,2.8 2.2,5 5,5 C7.8,5 10,2.8 10,0 C10,-2.8 7.8,-5 5,-5 C2.2,-5 0,-2.8 0,0"/>
<path class="NoteDot" transform="matrix(1.06583,0,0,1.06583,643.966,1256.31)" d="M0,0 C0,2.8 2.2,5 5,5 C7.8,5 10,2.8 10,0 C10,-2.8 7.8,-5 5,-5 C2.2,-5 0,-2.8 0,0"/>
<path class="NoteDot" transform="matrix(1.06583,0,0,1.06583,1078.92,608.038)" d="M0,0 C0,2.8 2.2,5 5,5 C7.8,5 10,2.8 10,0 C10,-2.8 7.8,-5 5,-5 C2.2,-5 0,-2.8 0,0"/>
<path class="NoteDot" transform="matrix(1.06583,0,0,1.06583,1295.33,608.038)" d="M0,0 C0,2.8 2.2,5 5,5 C7.8,5 10,2.8 10,0 C10,-2.8 7.8,-5 5,-5 C2.2,-5 0,-2.8 0,0"/>
<path class="NoteDot" transform="matrix(1.06583,0,0,1.06583,1111.25,1229.66)" d="M0,0 C0,2.8 2.2,5 5,5 C7.8,5 10,2.8 10,0 C10,-2.8 7.8,-5 5,-5 C2.2,-5 0,-2.8 0,0"/>
<path class="NoteDot" transform="matrix(1.06583,0,0,1.06583,461.752,581.392)" d="M0,0 C0,2.8 2.2,5 5,5 C7.8,5 10,2.8 10,0 C10,-2.8 7.8,-5 5,-5 C2.2,-5 0,-2.8 0,0"/>
<path class="NoteDot" transform="matrix(1.06583,0,0,1.06583,461.752,1931.22)" d="M0,0 C0,2.8 2.2,5 5,5 C7.8,5 10,2.8 10,0 C10,-2.8 7.8,-5 5,-5 C2.2,-5 0,-2.8 0,0"/>
<polyline class="Bracket" fill="none" stroke="#000000" stroke-width="2.93" stroke-linejoin="bevel" points="173.829,261.644 173.829,648.006" />
<polyline class="Bracket" fill="none" stroke="#000000" stroke-width="2.93" stroke-linejoin="bevel" points="172.363,261.644 188.617,261.644" />
<polyline class="Bracket" fill="none" stroke="#000000" stroke-width="2.93" stroke-linejoin="bevel" points="172.363,648.006 188.617,648.006" />
<polyline class="Bracket" fill="none" stroke="#000000" stroke-width="11.99" stroke-linejoin="bevel" points="194.613,242.326 194.613,667.324" />
<path class="Bracket" transform="matrix(1.06583,0,0,1.06583,188.617,248.321)" d="M48.4,-27.7 C48.2,-27.8 47.9,-27.9 47.7,-27.9 C47.3,-27.9 46.8,-27.8 46.6,-27.4 C46.4,-27.1 36.4,-11.7 17.3,-11.7 L1.4,-11.7 C0.6,-11.7 0,-11.2 0,-10.4 L0,0 L12.2,0 C43,0 48.9,-25.7 49,-26 C49,-26.1 49.1,-26.3 49.1,-26.5 C49.1,-27 48.8,-27.4 48.4,-27.7"/>
<path class="Bracket" transform="matrix(1.06583,0,0,1.06583,188.617,661.329)" d="M48.4,27.7 C48.8,27.4 49.1,27 49.1,26.5 C49.1,26.3 49,26.1 49,26 C48.9,25.7 43,0 12.2,0 L0,0 L0,10.4 C0,11.2 0.6,11.7 1.4,11.7 L17.3,11.7 C36.4,11.7 46.4,27.1 46.6,27.4 C46.8,27.8 47.3,27.9 47.7,27.9 C47.9,27.9 48.2,27.8 48.4,27.7"/>
<polyline class="Bracket" fill="none" stroke="#000000" stroke-width="11.99" stroke-linejoin="bevel" points="194.613,1538.86 194.613,1963.86" />
<path class="Bracket" transform="matrix(1.06583,0,0,1.06583,188.617,1544.86)" d="M48.4,-27.7 C48.2,-27.8 47.9,-27.9 47.7,-27.9 C47.3,-27.9 46.8,-27.8 46.6,-27.4 C46.4,-27.1 36.4,-11.7 17.3,-11.7 L1.4,-11.7 C0.6,-11.7 0,-11.2 0,-10.4 L0,0 L12.2,0 C43,0 48.9,-25.7 49,-26 C49,-26.1 49.1,-26.3 49.1,-26.5 C49.1,-27 48.8,-27.4 48.4,-27.7"/>
<path class="Bracket" transform="matrix(1.06583,0,0,1.06583,188.617,1957.86)" d="M48.4,27.7 C48.8,27.4 49.1,27 49.1,26.5 C49.1,26.3 49,26.1 49,26 C48.9,25.7 43,0 12.2,0 L0,0 L0,10.4 C0,11.2 0.6,11.7 1.4,11.7 L17.3,11.7 C36.4,11.7 46.4,27.1 46.6,27.4 C46.8,27.8 47.3,27.9 47.7,27.9 C47.9,27.9 48.2,27.8 48.4,27.7"/>
<polyline class="Bracket" fill="none" stroke="#000000" stroke-width="2.93" stroke-linejoin="bevel" points="173.829,1558.18 173.829,1944.54" />
<polyline class="Bracket" fill="none" stroke="#000000" stroke-width="2.93" stroke-linejoin="bevel" points="172.363,1558.18 188.617,1558.18" />
<polyline class="Bracket" fill="none" stroke="#000000" stroke-width="2.93" stroke-linejoin="bevel" points="172.363,1944.54 188.617,1944.54" />
<polyline class="Bracket" fill="none" stroke="#000000" stroke-width="11.99" stroke-linejoin="bevel" points="194.613,890.593 194.613,1315.59" />
<path class="Bracket" transform="matrix(1.06583,0,0,1.06583,188.617,896.588)" d="M48.4,-27.7 C48.2,-27.8 47.9,-27.9 47.7,-27.9 C47.3,-27.9 46.8,-27.8 46.6,-27.4 C46.4,-27.1 36.4,-11.7 17.3,-11.7 L1.4,-11.7 C0.6,-11.7 0,-11.2 0,-10.4 L0,0 L12.2,0 C43,0 48.9,-25.7 49,-26 C49,-26.1 49.1,-26.3 49.1,-26.5 C49.1,-27 48.8,-27.4 48.4,-27.7"/>
<path class="Bracket" transform="matrix(1.06583,0,0,1.06583,188.617,1309.6)" d="M48.4,27.7 C48.8,27.4 49.1,27 49.1,26.5 C49.1,26.3 49,26.1 49,26 C48.9,25.7 43,0 12.2,0 L0,0 L0,10.4 C0,11.2 0.6,11.7 1.4,11.7 L17.3,11.7 C36.4,11.7 46.4,27.1 46.6,27.4 C46.8,27.8 47.3,27.9 47.7,27.9 C47.9,27.9 48.2,27.8 48.4,27.7"/>
<polyline class="Bracket" fill="none" stroke="#000000" stroke-width="2.93" stroke-linejoin="bevel" points="173.829,909.911 173.829,1296.27" />
<polyline class="Bracket" fill="none" stroke="#000000" stroke-width="2.93" stroke-linejoin="bevel" points="172.363,909.911 188.617,909.911" />
<polyline class="Bracket" fill="none" stroke="#000000" stroke-width="2.93" stroke-linejoin="bevel" points="172.363,1296.27 188.617,1296.27" />
</svg>
