<?xml version="1.0" encoding="UTF-8" standalone="no"?>
<svg width="210.058mm" height="296.926mm" viewBox="0 0 2977.2 4208.4"
 xmlns="http://www.w3.org/2000/svg" xmlns:xlink="http://www.w3.org/1999/xlink" version="1.2" baseProfile="full">
<title>CB047_w1 (2)</title>
<desc>Generated by MuseScore Studio 4.6.5</desc>
<polyline class="StaffLines" fill="none" stroke="#000000" stroke-width="2.96" stroke-linejoin="bevel" points="212.598,287.723 2764.6,287.723" />
<polyline class="StaffLines" fill="none" stroke="#000000" stroke-width="2.96" stroke-linejoin="bevel" points="212.598,314.652 2764.6,314.652" />
<polyline class="StaffLines" fill="none" stroke="#000000" stroke-width="2.96" stroke-linejoin="bevel" points="212.598,341.581 2764.6,341.581" />
<polyline class="StaffLines" fill="none" stroke="#000000" stroke-width="2.96" stroke-linejoin="bevel" points="212.598,368.51 2764.6,368.51" />
<polyline class="StaffLines" fill="none" stroke="#000000" stroke-width="2.96" stroke-linejoin="bevel" points="212.598,395.439 2764.6,395.439" />
<polyline class="StaffLines" fill="none" stroke="#000000" stroke-width="2.96" stroke-linejoin="bevel" points="212.598,570.479 2764.6,570.479" />
<polyline class="StaffLines" fill="none" stroke="#000000" stroke-width="2.96" stroke-linejoin="bevel" points="212.598,597.408 2764.6,597.408" />
<polyline class="StaffLines" fill="none" stroke="#000000" stroke-width="2.96" stroke-linejoin="bevel" points="212.598,624.337 2764.6,624.337" />
<polyline class="StaffLines" fill="none" stroke="#000000" stroke-width="2.96" stroke-linejoin="bevel" points="212.598,651.266 2764.6,651.266" />
<polyline class="StaffLines" fill="none" stroke="#000000" stroke-width="2.96" stroke-linejoin="bevel" points="212.598,678.195 2764.6,678.195" />
<polyline class="StaffLines" fill="none" stroke="#000000" stroke-width="2.96" stroke-linejoin="bevel" points="212.598,853.235 2764.6,853.235" />
<polyline class="StaffLines" fill="none" stroke="#000000" stroke-width="2.96" stroke-linejoin="bevel" points="212.598,880.164 2764.6,880.164" />
<polyline class="StaffLines" fill="none" stroke="#000000" stroke-width="2.96" stroke-linejoin="bevel" points="212.598,907.093 2764.6,907.093" />
<polyline class="StaffLines" fill="none" stroke="#000000" stroke-width="2.96" stroke-linejoin="bevel" points="212.598,934.022 2764.6,934.022" />
<polyline class="StaffLines" fill="none" stroke="#000000" stroke-width="2.96" stroke-linejoin="bevel" points="212.598,960.951 2764.6,960.951" />
<polyline class="BarLine" fill="none" stroke="#000000" stroke-width="4.85" stroke-linejoin="bevel" points="1075.13,313.171 1075.13,369.991" />
<polyline class="BarLine" fill="none" stroke="#000000" stroke-width="4.85" stroke-linejoin="bevel" points="1548.24,313.171 1548.24,369.991" />
<polyline class="BarLine" fill="none" stroke="#000000" stroke-width="4.85" stroke-linejoin="bevel" points="2737.4,286.242 2737.4,396.92" />
<polyline class="BarLine" fill="none" stroke="#000000" stroke-width="14.81" stroke-linejoin="bevel" points="2757.2,286.242 2757.2,396.92" />
<polyline class="BarLine" fill="none" stroke="#000000" stroke-width="4.85" stroke-linejoin="bevel" points="215.022,286.242 215.022,570.479" />
<polyline class="BarLine" fill="none" stroke="#000000" stroke-width="4.85" stroke-linejoin="bevel" points="602.025,313.171 602.025,369.991" />
<polyline class="BarLine" fill="none" stroke="#000000" stroke-width="4.85" stroke-linejoin="bevel" points="602.025,595.927 602.025,652.747" />
<polyline class="BarLine" fill="none" stroke="#000000" stroke-width="4.85" stroke-linejoin="bevel" points="215.022,568.998 215.022,853.235" />
<polyline class="BarLine" fill="none" stroke="#000000" stroke-width="4.85" stroke-linejoin="bevel" points="2737.4,568.998 2737.4,679.676" />
<polyline class="BarLine" fill="none" stroke="#000000" stroke-width="14.81" stroke-linejoin="bevel" points="2757.2,568.998 2757.2,679.676" />
<polyline class="BarLine" fill="none" stroke="#000000" stroke-width="4.85" stroke-linejoin="bevel" points="1548.24,595.927 1548.24,652.747" />
<polyline class="BarLine" fill="none" stroke="#000000" stroke-width="4.85" stroke-linejoin="bevel" points="1548.24,878.683 1548.24,935.503" />
<polyline class="BarLine" fill="none" stroke="#000000" stroke-width="4.85" stroke-linejoin="bevel" points="215.022,851.753 215.022,962.432" />
<polyline class="BarLine" fill="none" stroke="#000000" stroke-width="4.85" stroke-linejoin="bevel" points="2737.4,851.753 2737.4,962.432" />
<polyline class="BarLine" fill="none" stroke="#000000" stroke-width="14.81" stroke-linejoin="bevel" points="2757.2,851.753 2757.2,962.432" />
<polyline class="BarLine" fill="none" stroke="#000000" stroke-width="4.85" stroke-linejoin="bevel" points="602.025,878.683 602.025,935.503" />
<path class="Note" transform="matrix(1.07717,0,0,1.07717,2053.33,274.258)" d="M0,4.2 C0,8.5 3.1,13.3 11.2,13.3 C21.6,13.3 32.5,4.8 32.5,-4 C32.5,-9.9 27.5,-13.2 21.3,-13.2 C11.6,-13.2 0,-5 0,4.2"/>
<path class="Note" transform="matrix(1.07717,0,0,1.07717,972.418,301.187)" d="M0,4.2 C0,8.5 3.1,13.3 11.2,13.3 C21.6,13.3 32.5,4.8 32.5,-4 C32.5,-9.9 27.5,-13.2 21.3,-13.2 C11.6,-13.2 0,-5 0,4.2"/>
<path class="Note" transform="matrix(1.07717,0,0,1.07717,1953.04,301.187)" d="M0,4.2 C0,8.5 3.1,13.3 11.2,13.3 C21.6,13.3 32.5,4.8 32.5,-4 C32.5,-9.9 27.5,-13.2 21.3,-13.2 C11.6,-13.2 0,-5 0,4.2"/>
<path class="Note" transform="matrix(1.07717,0,0,1.07717,1852.75,287.723)" d="M0,4.2 C0,8.5 3.1,13.3 11.2,13.3 C21.6,13.3 32.5,4.8 32.5,-4 C32.5,-9.9 27.5,-13.2 21.3,-13.2 C11.6,-13.2 0,-5 0,4.2"/>
<path class="Note" transform="matrix(1.07717,0,0,1.07717,872.126,287.723)" d="M0,4.2 C0,8.5 3.1,13.3 11.2,13.3 C21.6,13.3 32.5,4.8 32.5,-4 C32.5,-9.9 27.5,-13.2 21.3,-13.2 C11.6,-13.2 0,-5 0,4.2"/>
<path class="Note" transform="matrix(1.07717,0,0,1.07717,805.264,301.187)" d="M0,4.2 C0,8.5 3.1,13.3 11.2,13.3 C21.6,13.3 32.5,4.8 32.5,-4 C32.5,-9.9 27.5,-13.2 21.3,-13.2 C11.6,-13.2 0,-5 0,4.2"/>
<path class="Note" transform="matrix(1.07717,0,0,1.07717,738.402,274.258)" d="M0,4.2 C0,8.5 3.1,13.3 11.2,13.3 C21.6,13.3 32.5,4.8 32.5,-4 C32.5,-9.9 27.5,-13.2 21.3,-13.2 C11.6,-13.2 0,-5 0,4.2"/>
<path class="Note" transform="matrix(1.07717,0,0,1.07717,2153.63,274.258)" d="M0,4.2 C0,8.5 3.1,13.3 11.2,13.3 C21.6,13.3 32.5,4.8 32.5,-4 C32.5,-9.9 27.5,-13.2 21.3,-13.2 C11.6,-13.2 0,-5 0,4.2"/>
<path class="Note" transform="matrix(1.07717,0,0,1.07717,2220.49,301.187)" d="M0,4.2 C0,8.5 3.1,13.3 11.2,13.3 C21.6,13.3 32.5,4.8 32.5,-4 C32.5,-9.9 27.5,-13.2 21.3,-13.2 C11.6,-13.2 0,-5 0,4.2"/>
<path class="Note" transform="matrix(1.07717,0,0,1.07717,2287.35,287.723)" d="M0,4.2 C0,8.5 3.1,13.3 11.2,13.3 C21.6,13.3 32.5,4.8 32.5,-4 C32.5,-9.9 27.5,-13.2 21.3,-13.2 C11.6,-13.2 0,-5 0,4.2"/>
<path class="Note" transform="matrix(1.07717,0,0,1.07717,1111.22,274.258)" d="M0,4.2 C0,8.5 3.1,13.3 11.2,13.3 C21.6,13.3 32.5,4.8 32.5,-4 C32.5,-9.9 27.5,-13.2 21.3,-13.2 C11.6,-13.2 0,-5 0,4.2"/>
<path class="Note" transform="matrix(1.07717,0,0,1.07717,1785.89,301.187)" d="M0,4.2 C0,8.5 3.1,13.3 11.2,13.3 C21.6,13.3 32.5,4.8 32.5,-4 C32.5,-9.9 27.5,-13.2 21.3,-13.2 C11.6,-13.2 0,-5 0,4.2"/>
<path class="Note" transform="matrix(1.07717,0,0,1.07717,1719.02,274.258)" d="M0,4.2 C0,8.5 3.1,13.3 11.2,13.3 C21.6,13.3 32.5,4.8 32.5,-4 C32.5,-9.9 27.5,-13.2 21.3,-13.2 C11.6,-13.2 0,-5 0,4.2"/>
<path class="Note" transform="matrix(1.07717,0,0,1.07717,638.11,274.258)" d="M0,4.2 C0,8.5 3.1,13.3 11.2,13.3 C21.6,13.3 32.5,4.8 32.5,-4 C32.5,-9.9 27.5,-13.2 21.3,-13.2 C11.6,-13.2 0,-5 0,4.2"/>
<path class="Note" transform="matrix(1.07717,0,0,1.07717,1211.51,274.258)" d="M0,4.2 C0,8.5 3.1,13.3 11.2,13.3 C21.6,13.3 32.5,4.8 32.5,-4 C32.5,-9.9 27.5,-13.2 21.3,-13.2 C11.6,-13.2 0,-5 0,4.2"/>
<path class="Note" transform="matrix(1.07717,0,0,1.07717,1584.33,274.258)" d="M0,4.2 C0,8.5 3.1,13.3 11.2,13.3 C21.6,13.3 32.5,4.8 32.5,-4 C32.5,-9.9 27.5,-13.2 21.3,-13.2 C11.6,-13.2 0,-5 0,4.2"/>
<path class="Note" transform="matrix(1.07717,0,0,1.07717,2387.64,314.652)" d="M0,4.2 C0,8.5 3.1,13.3 11.2,13.3 C21.6,13.3 32.5,4.8 32.5,-4 C32.5,-9.9 27.5,-13.2 21.3,-13.2 C11.6,-13.2 0,-5 0,4.2"/>
<path class="Note" transform="matrix(1.07717,0,0,1.07717,499.308,314.652)" d="M0,4.2 C0,8.5 3.1,13.3 11.2,13.3 C21.6,13.3 32.5,4.8 32.5,-4 C32.5,-9.9 27.5,-13.2 21.3,-13.2 C11.6,-13.2 0,-5 0,4.2"/>
<path class="Note" transform="matrix(1.07717,0,0,1.07717,1278.37,301.187)" d="M0,4.2 C0,8.5 3.1,13.3 11.2,13.3 C21.6,13.3 32.5,4.8 32.5,-4 C32.5,-9.9 27.5,-13.2 21.3,-13.2 C11.6,-13.2 0,-5 0,4.2"/>
<path class="Note" transform="matrix(1.07717,0,0,1.07717,1345.24,287.723)" d="M0,4.2 C0,8.5 3.1,13.3 11.2,13.3 C21.6,13.3 32.5,4.8 32.5,-4 C32.5,-9.9 27.5,-13.2 21.3,-13.2 C11.6,-13.2 0,-5 0,4.2"/>
<path class="Note" transform="matrix(1.07717,0,0,1.07717,373.887,328.116)" d="M0,4.2 C0,8.5 3.1,13.3 11.2,13.3 C21.6,13.3 32.5,4.8 32.5,-4 C32.5,-9.9 27.5,-13.2 21.3,-13.2 C11.6,-13.2 0,-5 0,4.2"/>
<path class="Note" transform="matrix(1.07717,0,0,1.07717,2509.42,328.116)" d="M0,4.2 C0,8.5 3.1,13.3 11.2,13.3 C21.6,13.3 32.5,4.8 32.5,-4 C32.5,-9.9 27.5,-13.2 21.3,-13.2 C11.6,-13.2 0,-5 0,4.2"/>
<path class="Note" transform="matrix(1.07717,0,0,1.07717,2634.69,314.652)" d="M0,4.2 C0,8.5 3.1,13.3 11.2,13.3 C21.6,13.3 32.5,4.8 32.5,-4 C32.5,-9.9 27.5,-13.2 21.3,-13.2 C11.6,-13.2 0,-5 0,4.2"/>
<path class="Note" transform="matrix(1.07717,0,0,1.07717,1445.53,301.187)" d="M0,4.2 C0,8.5 3.1,13.3 11.2,13.3 C21.6,13.3 32.5,4.8 32.5,-4 C32.5,-9.9 27.5,-13.2 21.3,-13.2 C11.6,-13.2 0,-5 0,4.2"/>
<path class="Note" transform="matrix(1.07717,0,0,1.07717,1584.33,597.408)" d="M0,4.2 C0,8.5 3.1,13.3 11.2,13.3 C21.6,13.3 32.5,4.8 32.5,-4 C32.5,-9.9 27.5,-13.2 21.3,-13.2 C11.6,-13.2 0,-5 0,4.2"/>
<path class="Note" transform="matrix(1.07717,0,0,1.07717,1953.04,637.802)" d="M0,4.2 C0,8.5 3.1,13.3 11.2,13.3 C21.6,13.3 32.5,4.8 32.5,-4 C32.5,-9.9 27.5,-13.2 21.3,-13.2 C11.6,-13.2 0,-5 0,4.2"/>
<path class="Note" transform="matrix(1.07717,0,0,1.07717,2634.69,651.266)" d="M0,4.2 C0,8.5 3.1,13.3 11.2,13.3 C21.6,13.3 32.5,4.8 32.5,-4 C32.5,-9.9 27.5,-13.2 21.3,-13.2 C11.6,-13.2 0,-5 0,4.2"/>
<path class="Note" transform="matrix(1.07717,0,0,1.07717,1445.53,637.802)" d="M0,4.2 C0,8.5 3.1,13.3 11.2,13.3 C21.6,13.3 32.5,4.8 32.5,-4 C32.5,-9.9 27.5,-13.2 21.3,-13.2 C11.6,-13.2 0,-5 0,4.2"/>
<path class="Note" transform="matrix(1.07717,0,0,1.07717,2509.42,637.802)" d="M0,4.2 C0,8.5 3.1,13.3 11.2,13.3 C21.6,13.3 32.5,4.8 32.5,-4 C32.5,-9.9 27.5,-13.2 21.3,-13.2 C11.6,-13.2 0,-5 0,4.2"/>
<path class="Note" transform="matrix(1.07717,0,0,1.07717,373.887,637.802)" d="M0,4.2 C0,8.5 3.1,13.3 11.2,13.3 C21.6,13.3 32.5,4.8 32.5,-4 C32.5,-9.9 27.5,-13.2 21.3,-13.2 C11.6,-13.2 0,-5 0,4.2"/>
<path class="Note" transform="matrix(1.07717,0,0,1.07717,1345.24,624.337)" d="M0,4.2 C0,8.5 3.1,13.3 11.2,13.3 C21.6,13.3 32.5,4.8 32.5,-4 C32.5,-9.9 27.5,-13.2 21.3,-13.2 C11.6,-13.2 0,-5 0,4.2"/>
<path class="Note" transform="matrix(1.07717,0,0,1.07717,499.308,651.266)" d="M0,4.2 C0,8.5 3.1,13.3 11.2,13.3 C21.6,13.3 32.5,4.8 32.5,-4 C32.5,-9.9 27.5,-13.2 21.3,-13.2 C11.6,-13.2 0,-5 0,4.2"/>
<path class="Note" transform="matrix(1.07717,0,0,1.07717,2387.64,624.337)" d="M0,4.2 C0,8.5 3.1,13.3 11.2,13.3 C21.6,13.3 32.5,4.8 32.5,-4 C32.5,-9.9 27.5,-13.2 21.3,-13.2 C11.6,-13.2 0,-5 0,4.2"/>
<path class="Note" transform="matrix(1.07717,0,0,1.07717,1211.51,610.872)" d="M0,4.2 C0,8.5 3.1,13.3 11.2,13.3 C21.6,13.3 32.5,4.8 32.5,-4 C32.5,-9.9 27.5,-13.2 21.3,-13.2 C11.6,-13.2 0,-5 0,4.2"/>
<path class="Note" transform="matrix(1.07717,0,0,1.07717,2287.35,624.337)" d="M0,4.2 C0,8.5 3.1,13.3 11.2,13.3 C21.6,13.3 32.5,4.8 32.5,-4 C32.5,-9.9 27.5,-13.2 21.3,-13.2 C11.6,-13.2 0,-5 0,4.2"/>
<path class="Note" transform="matrix(1.07717,0,0,1.07717,638.11,597.408)" d="M0,4.2 C0,8.5 3.1,13.3 11.2,13.3 C21.6,13.3 32.5,4.8 32.5,-4 C32.5,-9.9 27.5,-13.2 21.3,-13.2 C11.6,-13.2 0,-5 0,4.2"/>
<path class="Note" transform="matrix(1.07717,0,0,1.07717,2153.63,610.872)" d="M0,4.2 C0,8.5 3.1,13.3 11.2,13.3 C21.6,13.3 32.5,4.8 32.5,-4 C32.5,-9.9 27.5,-13.2 21.3,-13.2 C11.6,-13.2 0,-5 0,4.2"/>
<path class="Note" transform="matrix(1.07717,0,0,1.07717,2053.33,610.872)" d="M0,4.2 C0,8.5 3.1,13.3 11.2,13.3 C21.6,13.3 32.5,4.8 32.5,-4 C32.5,-9.9 27.5,-13.2 21.3,-13.2 C11.6,-13.2 0,-5 0,4.2"/>
<path class="Note" transform="matrix(1.07717,0,0,1.07717,1719.02,597.408)" d="M0,4.2 C0,8.5 3.1,13.3 11.2,13.3 C21.6,13.3 32.5,4.8 32.5,-4 C32.5,-9.9 27.5,-13.2 21.3,-13.2 C11.6,-13.2 0,-5 0,4.2"/>
<path class="Note" transform="matrix(1.07717,0,0,1.07717,738.402,597.408)" d="M0,4.2 C0,8.5 3.1,13.3 11.2,13.3 C21.6,13.3 32.5,4.8 32.5,-4 C32.5,-9.9 27.5,-13.2 21.3,-13.2 C11.6,-13.2 0,-5 0,4.2"/>
<path class="Note" transform="matrix(1.07717,0,0,1.07717,872.126,624.337)" d="M0,4.2 C0,8.5 3.1,13.3 11.2,13.3 C21.6,13.3 32.5,4.8 32.5,-4 C32.5,-9.9 27.5,-13.2 21.3,-13.2 C11.6,-13.2 0,-5 0,4.2"/>
<path class="Note" transform="matrix(1.07717,0,0,1.07717,1111.22,610.872)" d="M0,4.2 C0,8.5 3.1,13.3 11.2,13.3 C21.6,13.3 32.5,4.8 32.5,-4 C32.5,-9.9 27.5,-13.2 21.3,-13.2 C11.6,-13.2 0,-5 0,4.2"/>
<path class="Note" transform="matrix(1.07717,0,0,1.07717,972.418,637.802)" d="M0,4.2 C0,8.5 3.1,13.3 11.2,13.3 C21.6,13.3 32.5,4.8 32.5,-4 C32.5,-9.9 27.5,-13.2 21.3,-13.2 C11.6,-13.2 0,-5 0,4.2"/>
<path class="Note" transform="matrix(1.07717,0,0,1.07717,1852.75,624.337)" d="M0,4.2 C0,8.5 3.1,13.3 11.2,13.3 C21.6,13.3 32.5,4.8 32.5,-4 C32.5,-9.9 27.5,-13.2 21.3,-13.2 C11.6,-13.2 0,-5 0,4.2"/>
<path class="Note" transform="matrix(1.07717,0,0,1.07717,1445.53,947.487)" d="M0,4.2 C0,8.5 3.1,13.3 11.2,13.3 C21.6,13.3 32.5,4.8 32.5,-4 C32.5,-9.9 27.5,-13.2 21.3,-13.2 C11.6,-13.2 0,-5 0,4.2"/>
<path class="Note" transform="matrix(1.07717,0,0,1.07717,1345.24,934.022)" d="M0,4.2 C0,8.5 3.1,13.3 11.2,13.3 C21.6,13.3 32.5,4.8 32.5,-4 C32.5,-9.9 27.5,-13.2 21.3,-13.2 C11.6,-13.2 0,-5 0,4.2"/>
<path class="Note" transform="matrix(1.07717,0,0,1.07717,972.418,893.628)" d="M0,4.2 C0,8.5 3.1,13.3 11.2,13.3 C21.6,13.3 32.5,4.8 32.5,-4 C32.5,-9.9 27.5,-13.2 21.3,-13.2 C11.6,-13.2 0,-5 0,4.2"/>
<path class="Note" transform="matrix(1.07717,0,0,1.07717,1852.75,907.093)" d="M0,4.2 C0,8.5 3.1,13.3 11.2,13.3 C21.6,13.3 32.5,4.8 32.5,-4 C32.5,-9.9 27.5,-13.2 21.3,-13.2 C11.6,-13.2 0,-5 0,4.2"/>
<path class="Note" transform="matrix(1.07717,0,0,1.07717,1953.04,893.628)" d="M0,4.2 C0,8.5 3.1,13.3 11.2,13.3 C21.6,13.3 32.5,4.8 32.5,-4 C32.5,-9.9 27.5,-13.2 21.3,-13.2 C11.6,-13.2 0,-5 0,4.2"/>
<path class="Note" transform="matrix(1.07717,0,0,1.07717,2387.64,947.487)" d="M0,4.2 C0,8.5 3.1,13.3 11.2,13.3 C21.6,13.3 32.5,4.8 32.5,-4 C32.5,-9.9 27.5,-13.2 21.3,-13.2 C11.6,-13.2 0,-5 0,4.2"/>
<path class="Note" transform="matrix(1.07717,0,0,1.07717,499.308,934.022)" d="M0,4.2 C0,8.5 3.1,13.3 11.2,13.3 C21.6,13.3 32.5,4.8 32.5,-4 C32.5,-9.9 27.5,-13.2 21.3,-13.2 C11.6,-13.2 0,-5 0,4.2"/>
<path class="Note" transform="matrix(1.07717,0,0,1.07717,2287.35,934.022)" d="M0,4.2 C0,8.5 3.1,13.3 11.2,13.3 C21.6,13.3 32.5,4.8 32.5,-4 C32.5,-9.9 27.5,-13.2 21.3,-13.2 C11.6,-13.2 0,-5 0,4.2"/>
<path class="Note" transform="matrix(1.07717,0,0,1.07717,872.126,907.093)" d="M0,4.2 C0,8.5 3.1,13.3 11.2,13.3 C21.6,13.3 32.5,4.8 32.5,-4 C32.5,-9.9 27.5,-13.2 21.3,-13.2 C11.6,-13.2 0,-5 0,4.2"/>
<path class="Note" transform="matrix(1.07717,0,0,1.07717,2634.69,934.022)" d="M0,4.2 C0,8.5 3.1,13.3 11.2,13.3 C21.6,13.3 32.5,4.8 32.5,-4 C32.5,-9.9 27.5,-13.2 21.3,-13.2 C11.6,-13.2 0,-5 0,4.2"/>
<path class="Note" transform="matrix(1.07717,0,0,1.07717,373.887,947.487)" d="M0,4.2 C0,8.5 3.1,13.3 11.2,13.3 C21.6,13.3 32.5,4.8 32.5,-4 C32.5,-9.9 27.5,-13.2 21.3,-13.2 C11.6,-13.2 0,-5 0,4.2"/>
<path class="Note" transform="matrix(1.07717,0,0,1.07717,738.402,920.557)" d="M0,4.2 C0,8.5 3.1,13.3 11.2,13.3 C21.6,13.3 32.5,4.8 32.5,-4 C32.5,-9.9 27.5,-13.2 21.3,-13.2 C11.6,-13.2 0,-5 0,4.2"/>
<path class="Note" transform="matrix(1.07717,0,0,1.07717,1719.02,920.557)" d="M0,4.2 C0,8.5 3.1,13.3 11.2,13.3 C21.6,13.3 32.5,4.8 32.5,-4 C32.5,-9.9 27.5,-13.2 21.3,-13.2 C11.6,-13.2 0,-5 0,4.2"/>
<path class="Note" transform="matrix(1.07717,0,0,1.07717,1111.22,920.557)" d="M0,4.2 C0,8.5 3.1,13.3 11.2,13.3 C21.6,13.3 32.5,4.8 32.5,-4 C32.5,-9.9 27.5,-13.2 21.3,-13.2 C11.6,-13.2 0,-5 0,4.2"/>
<path class="Note" transform="matrix(1.07717,0,0,1.07717,2053.33,920.557)" d="M0,4.2 C0,8.5 3.1,13.3 11.2,13.3 C21.6,13.3 32.5,4.8 32.5,-4 C32.5,-9.9 27.5,-13.2 21.3,-13.2 C11.6,-13.2 0,-5 0,4.2"/>
<path class="Note" transform="matrix(1.07717,0,0,1.07717,2509.42,947.487)" d="M0,4.2 C0,8.5 3.1,13.3 11.2,13.3 C21.6,13.3 32.5,4.8 32.5,-4 C32.5,-9.9 27.5,-13.2 21.3,-13.2 C11.6,-13.2 0,-5 0,4.2"/>
<path class="Note" transform="matrix(1.07717,0,0,1.07717,1584.33,934.022)" d="M0,4.2 C0,8.5 3.1,13.3 11.2,13.3 C21.6,13.3 32.5,4.8 32.5,-4 C32.5,-9.9 27.5,-13.2 21.3,-13.2 C11.6,-13.2 0,-5 0,4.2"/>
<path class="Note" transform="matrix(1.07717,0,0,1.07717,638.11,934.022)" d="M0,4.2 C0,8.5 3.1,13.3 11.2,13.3 C21.6,13.3 32.5,4.8 32.5,-4 C32.5,-9.9 27.5,-13.2 21.3,-13.2 C11.6,-13.2 0,-5 0,4.2"/>
<path class="Note" transform="matrix(1.07717,0,0,1.07717,2153.63,934.022)" d="M0,4.2 C0,8.5 3.1,13.3 11.2,13.3 C21.6,13.3 32.5,4.8 32.5,-4 C32.5,-9.9 27.5,-13.2 21.3,-13.2 C11.6,-13.2 0,-5 0,4.2"/>
<path class="Note" transform="matrix(1.07717,0,0,1.07717,1211.51,934.022)" d="M0,4.2 C0,8.5 3.1,13.3 11.2,13.3 C21.6,13.3 32.5,4.8 32.5,-4 C32.5,-9.9 27.5,-13.2 21.3,-13.2 C11.6,-13.2 0,-5 0,4.2"/>
<path class="Clef" transform="matrix(1.07717,0,0,1.07717,237.642,368.51)" d="M36.2,21.2 C21.9,21.2 9.7,11.2 9.7,-3.9 C9.7,-16.1 18.3,-27 27.1,-34.7 C28.8,-36.1 30.4,-37.5 31.9,-39 C32.8,-33.6 33.5,-29 34.2,-24.8 C25.1,-22.2 18.9,-12.5 18.9,-3.2 C18.9,3.9 24.4,13.5 32.4,13.5 C33.2,13.5 34.1,13.1 34.1,12.1 C34.1,11.3 33.2,10.7 31.9,9.9 C28,7.6 25.8,4.9 25.8,0.1 C25.8,-6 30.4,-10.9 36.2,-12.3 L42,20.5 C40,20.9 38.2,21.2 36.2,21.2 M33.2,-82.2 C34.2,-86.2 38.7,-96.7 43.9,-96.7 C45.4,-96.7 47.9,-91.9 47.9,-84.9 C47.9,-74.6 40.1,-66.8 33.2,-59.9 C32.6,-63.9 32.1,-67.9 32.1,-72 C32.1,-75.8 32.5,-79.1 33.2,-82.2 M46.2,19.3 C44.1,7.4 41.4,-8.5 40.7,-12.9 C50.8,-12.9 55.1,-5.9 56,-1.1 C56.1,-0.3 56.3,0.8 56.3,2 C56.3,9.2 53.3,16.4 46.2,19.3 M32.3,87.7 C30.1,87.7 28.6,86.3 28.6,84.2 C28.6,82.2 29.5,80.6 31.2,79.6 C31.6,79.8 31.7,79.8 32,80 C33.2,80.6 33.2,80.6 33.4,80.8 C35.3,81.9 36.1,82.9 36.1,84.3 C36.1,86.2 34.5,87.7 32.3,87.7 M36.1,75.7 C34.6,74.9 34.2,74.7 33.9,74.5 L33.7,74.4 C32.2,73.5 31.7,72.8 31.7,71.6 C31.7,69.8 33.1,68.5 35.1,68.5 C37,68.5 38.2,69.7 38.2,71.8 C38.2,73.4 37.6,74.5 36.1,75.7 M64,-0.2 C64,-15.3 53.3,-25.5 38.7,-25.5 C37.7,-31.5 36.8,-37.4 35.9,-43 C46.4,-54.1 53.8,-66.7 53.8,-82.5 C53.8,-91.6 51,-99 49.3,-102.6 C46.9,-107.7 44,-111.2 42.3,-111.2 C41.6,-111.2 38.4,-110 35.2,-106.1 C28.7,-98.5 26.9,-85.8 26.9,-77.4 C26.9,-72 27.4,-67.1 29.1,-55.8 C29,-55.8 23.8,-50.5 21.7,-48.7 C12.6,-40.3 0,-28.1 0,-8.2 C0,10.6 16.3,25.3 34.9,25.3 C37.8,25.3 40.5,25 42.9,24.6 C44.7,34.1 45.9,41.2 45.9,46.5 C45.9,56.9 40.5,62.4 30.4,62.4 C28,62.4 25.9,61.9 25.7,61.8 C25.6,61.8 25.4,61.7 25.4,61.6 C25.4,61.4 25.6,61.3 25.9,61.2 C30.6,60.5 35.3,56.4 35.3,50.1 C35.3,44.7 31.2,39 23.7,39 C16.7,39 12.3,44.7 12.3,51.3 C12.3,57.9 17.3,66.6 30.8,66.6 C43.7,66.6 50,59.3 50,46.5 C50,42.6 49.4,38.1 48.4,32.4 C48.1,30.4 47.6,27.3 46.9,23.5 C56.7,20.2 64,10.1 64,-0.2 M42.3,71.7 C42.3,68 38.9,66.4 35.6,66.4 C31.4,66.4 27.3,69 27.3,73.5 C27.3,75.4 28,76.8 29.4,78.2 C26.8,79.2 24.2,81.2 24.2,84.3 C24.2,87.6 27.2,89.8 31.6,89.8 C37,89.8 40.8,86.8 40.8,82.5 C40.8,80.2 39.8,78.3 38,77 C40.9,75.7 42.3,74.1 42.3,71.7"/>
<path class="Clef" transform="matrix(1.07717,0,0,1.07717,237.642,651.266)" d="M36.2,21.2 C21.9,21.2 9.7,11.2 9.7,-3.9 C9.7,-16.1 18.3,-27 27.1,-34.7 C28.8,-36.1 30.4,-37.5 31.9,-39 C32.8,-33.6 33.5,-29 34.2,-24.8 C25.1,-22.2 18.9,-12.5 18.9,-3.2 C18.9,3.9 24.4,13.5 32.4,13.5 C33.2,13.5 34.1,13.1 34.1,12.1 C34.1,11.3 33.2,10.7 31.9,9.9 C28,7.6 25.8,4.9 25.8,0.1 C25.8,-6 30.4,-10.9 36.2,-12.3 L42,20.5 C40,20.9 38.2,21.2 36.2,21.2 M33.2,-82.2 C34.2,-86.2 38.7,-96.7 43.9,-96.7 C45.4,-96.7 47.9,-91.9 47.9,-84.9 C47.9,-74.6 40.1,-66.8 33.2,-59.9 C32.6,-63.9 32.1,-67.9 32.1,-72 C32.1,-75.8 32.5,-79.1 33.2,-82.2 M46.2,19.3 C44.1,7.4 41.4,-8.5 40.7,-12.9 C50.8,-12.9 55.1,-5.9 56,-1.1 C56.1,-0.3 56.3,0.8 56.3,2 C56.3,9.2 53.3,16.4 46.2,19.3 M32.3,87.7 C30.1,87.7 28.6,86.3 28.6,84.2 C28.6,82.2 29.5,80.6 31.2,79.6 C31.6,79.8 31.7,79.8 32,80 C33.2,80.6 33.2,80.6 33.4,80.8 C35.3,81.9 36.1,82.9 36.1,84.3 C36.1,86.2 34.5,87.7 32.3,87.7 M36.1,75.7 C34.6,74.9 34.2,74.7 33.9,74.5 L33.7,74.4 C32.2,73.5 31.7,72.8 31.7,71.6 C31.7,69.8 33.1,68.5 35.1,68.5 C37,68.5 38.2,69.7 38.2,71.8 C38.2,73.4 37.6,74.5 36.1,75.7 M64,-0.2 C64,-15.3 53.3,-25.5 38.7,-25.5 C37.7,-31.5 36.8,-37.4 35.9,-43 C46.4,-54.1 53.8,-66.7 53.8,-82.5 C53.8,-91.6 51,-99 49.3,-102.6 C46.9,-107.7 44,-111.2 42.3,-111.2 C41.6,-111.2 38.4,-110 35.2,-106.1 C28.7,-98.5 26.9,-85.8 26.9,-77.4 C26.9,-72 27.4,-67.1 29.1,-55.8 C29,-55.8 23.8,-50.5 21.7,-48.7 C12.6,-40.3 0,-28.1 0,-8.2 C0,10.6 16.3,25.3 34.9,25.3 C37.8,25.3 40.5,25 42.9,24.6 C44.7,34.1 45.9,41.2 45.9,46.5 C45.9,56.9 40.5,62.4 30.4,62.4 C28,62.4 25.9,61.9 25.7,61.8 C25.6,61.8 25.4,61.7 25.4,61.6 C25.4,61.4 25.6,61.3 25.9,61.2 C30.6,60.5 35.3,56.4 35.3,50.1 C35.3,44.7 31.2,39 23.7,39 C16.7,39 12.3,44.7 12.3,51.3 C12.3,57.9 17.3,66.6 30.8,66.6 C43.7,66.6 50,59.3 50,46.5 C50,42.6 49.4,38.1 48.4,32.4 C48.1,30.4 47.6,27.3 46.9,23.5 C56.7,20.2 64,10.1 64,-0.2 M42.3,71.7 C42.3,68 38.9,66.4 35.6,66.4 C31.4,66.4 27.3,69 27.3,73.5 C27.3,75.4 28,76.8 29.4,78.2 C26.8,79.2 24.2,81.2 24.2,84.3 C24.2,87.6 27.2,89.8 31.6,89.8 C37,89.8 40.8,86.8 40.8,82.5 C40.8,80.2 39.8,78.3 38,77 C40.9,75.7 42.3,74.1 42.3,71.7"/>
<path class="Clef" transform="matrix(1.07717,0,0,1.07717,237.642,934.022)" d="M36.2,21.2 C21.9,21.2 9.7,11.2 9.7,-3.9 C9.7,-16.1 18.3,-27 27.1,-34.7 C28.8,-36.1 30.4,-37.5 31.9,-39 C32.8,-33.6 33.5,-29 34.2,-24.8 C25.1,-22.2 18.9,-12.5 18.9,-3.2 C18.9,3.9 24.4,13.5 32.4,13.5 C33.2,13.5 34.1,13.1 34.1,12.1 C34.1,11.3 33.2,10.7 31.9,9.9 C28,7.6 25.8,4.9 25.8,0.1 C25.8,-6 30.4,-10.9 36.2,-12.3 L42,20.5 C40,20.9 38.2,21.2 36.2,21.2 M33.2,-82.2 C34.2,-86.2 38.7,-96.7 43.9,-96.7 C45.4,-96.7 47.9,-91.9 47.9,-84.9 C47.9,-74.6 40.1,-66.8 33.2,-59.9 C32.6,-63.9 32.1,-67.9 32.1,-72 C32.1,-75.8 32.5,-79.1 33.2,-82.2 M46.2,19.3 C44.1,7.4 41.4,-8.5 40.7,-12.9 C50.8,-12.9 55.1,-5.9 56,-1.1 C56.1,-0.3 56.3,0.8 56.3,2 C56.3,9.2 53.3,16.4 46.2,19.3 M32.3,87.7 C30.1,87.7 28.6,86.3 28.6,84.2 C28.6,82.2 29.5,80.6 31.2,79.6 C31.6,79.8 31.7,79.8 32,80 C33.2,80.6 33.2,80.6 33.4,80.8 C35.3,81.9 36.1,82.9 36.1,84.3 C36.1,86.2 34.5,87.7 32.3,87.7 M36.1,75.7 C34.6,74.9 34.2,74.7 33.9,74.5 L33.7,74.4 C32.2,73.5 31.7,72.8 31.7,71.6 C31.7,69.8 33.1,68.5 35.1,68.5 C37,68.5 38.2,69.7 38.2,71.8 C38.2,73.4 37.6,74.5 36.1,75.7 M64,-0.2 C64,-15.3 53.3,-25.5 38.7,-25.5 C37.7,-31.5 36.8,-37.4 35.9,-43 C46.4,-54.1 53.8,-66.7 53.8,-82.5 C53.8,-91.6 51,-99 49.3,-102.6 C46.9,-107.7 44,-111.2 42.3,-111.2 C41.6,-111.2 38.4,-110 35.2,-106.1 C28.7,-98.5 26.9,-85.8 26.9,-77.4 C26.9,-72 27.4,-67.1 29.1,-55.8 C29,-55.8 23.8,-50.5 21.7,-48.7 C12.6,-40.3 0,-28.1 0,-8.2 C0,10.6 16.3,25.3 34.9,25.3 C37.8,25.3 40.5,25 42.9,24.6 C44.7,34.1 45.9,41.2 45.9,46.5 C45.9,56.9 40.5,62.4 30.4,62.4 C28,62.4 25.9,61.9 25.7,61.8 C25.6,61.8 25.4,61.7 25.4,61.6 C25.4,61.4 25.6,61.3 25.9,61.2 C30.6,60.5 35.3,56.4 35.3,50.1 C35.3,44.7 31.2,39 23.7,39 C16.7,39 12.3,44.7 12.3,51.3 C12.3,57.9 17.3,66.6 30.8,66.6 C43.7,66.6 50,59.3 50,46.5 C50,42.6 49.4,38.1 48.4,32.4 C48.1,30.4 47.6,27.3 46.9,23.5 C56.7,20.2 64,10.1 64,-0.2 M42.3,71.7 C42.3,68 38.9,66.4 35.6,66.4 C31.4,66.4 27.3,69 27.3,73.5 C27.3,75.4 28,76.8 29.4,78.2 C26.8,79.2 24.2,81.2 24.2,84.3 C24.2,87.6 27.2,89.8 31.6,89.8 C37,89.8 40.8,86.8 40.8,82.5 C40.8,80.2 39.8,78.3 38,77 C40.9,75.7 42.3,74.1 42.3,71.7"/>
<path class="Lyrics" d="M1841.86,1003.13 C1840.13,1003.13 1838.73,1004.53 1838.73,1006.26 C1838.73,1007.99 1840.13,1009.39 1841.81,1009.39 C1843.59,1009.39 1844.99,1007.99 1844.99,1006.26 C1844.99,1004.53 1843.59,1003.13 1841.86,1003.13 M1844.4,1016.57 L1834.25,1017.17 L1834.25,1019.49 L1837,1019.49 C1839.05,1019.54 1839.32,1019.87 1839.32,1022.19 L1839.32,1037.63 C1839.27,1038.44 1839.21,1038.77 1839,1039.04 C1838.62,1039.52 1837.59,1039.74 1835.27,1039.79 L1834.89,1039.79 L1834.89,1041.74 L1848.88,1041.74 L1848.88,1039.79 L1848.5,1039.79 C1844.88,1039.69 1844.4,1039.42 1844.4,1037.47 L1844.4,1016.57 M1872.52,1042.12 L1882.35,1041.74 L1882.35,1039.42 L1881,1039.42 C1877.87,1039.31 1877.6,1038.98 1877.6,1035.47 L1877.6,1016.57 L1867.45,1017.17 L1867.45,1019.49 L1870.2,1019.49 C1872.25,1019.54 1872.52,1019.87 1872.52,1022.19 L1872.52,1028.83 C1872.52,1033.53 1871.39,1039.25 1865.45,1039.25 C1863.77,1039.25 1862.37,1038.66 1861.67,1037.58 C1860.97,1036.55 1860.86,1036.01 1860.86,1033.04 L1860.86,1016.57 L1851.41,1017.17 L1851.41,1019.49 L1853.46,1019.49 C1855.51,1019.54 1855.78,1019.87 1855.78,1022.19 L1855.78,1033.85 C1855.78,1036.61 1856,1037.85 1856.81,1039.09 C1858.27,1041.31 1860.86,1042.55 1864.1,1042.55 C1867.66,1042.55 1870.15,1041.09 1872.52,1037.63 L1872.52,1042.12 M1904.32,1015.98 L1902.43,1015.98 L1900.86,1017.92 C1898.92,1016.41 1896.98,1015.76 1894.28,1015.76 C1889.52,1015.76 1886.39,1018.84 1886.39,1023.59 C1886.39,1028.67 1889.69,1029.97 1894.01,1030.99 L1896.87,1031.64 C1901.13,1032.67 1902.65,1033.75 1902.65,1035.91 C1902.65,1038.44 1900.43,1040.23 1897.3,1040.23 C1892.71,1040.23 1889.47,1037.31 1888.17,1031.91 L1886.01,1031.91 L1886.01,1042.12 L1887.9,1042.12 L1889.79,1039.9 C1892.01,1041.68 1894.44,1042.55 1897.19,1042.55 C1902.48,1042.55 1905.99,1039.25 1905.99,1034.23 C1905.99,1031.86 1905.24,1030.02 1903.73,1028.78 C1902.43,1027.64 1901.35,1027.21 1898.06,1026.51 L1895.36,1025.92 C1892.39,1025.27 1892.39,1025.27 1891.41,1024.73 C1890.23,1024.19 1889.52,1023.05 1889.52,1021.87 C1889.52,1019.65 1891.58,1018.14 1894.55,1018.14 C1898.97,1018.14 1901.13,1021.27 1902.43,1025.05 L1904.32,1025.05 L1904.32,1015.98 "/>
<path class="Lyrics" d="M1956.9,1016.57 L1956.9,1005.88 L1954.69,1005.88 C1954.15,1012.9 1951.77,1016.47 1947.4,1016.79 L1947.4,1018.9 L1951.83,1018.9 L1951.83,1032.67 C1951.83,1036.45 1951.93,1037.8 1952.47,1039.04 C1953.34,1041.31 1955.5,1042.55 1958.63,1042.55 C1963.49,1042.55 1966.62,1038.88 1966.62,1033.15 C1966.62,1032.83 1966.62,1032.45 1966.57,1031.91 L1964.3,1031.91 C1964.14,1036.77 1962.73,1039.25 1960.09,1039.25 C1958.85,1039.25 1957.77,1038.61 1957.39,1037.69 C1957.06,1036.93 1956.9,1035.58 1956.9,1033.64 L1956.9,1018.9 L1964.84,1018.9 L1964.84,1016.57 L1956.9,1016.57 M1992.91,1029.59 C1992.97,1021.49 1988.38,1015.76 1981.79,1015.76 C1974.88,1015.76 1969.69,1021.76 1969.69,1029.86 C1969.69,1037.47 1974.61,1042.55 1981.9,1042.55 C1987.08,1042.55 1990.7,1040.01 1992.91,1034.88 L1991.02,1033.85 C1988.81,1038.01 1986.54,1039.63 1982.92,1039.63 C1980.17,1039.63 1978.17,1038.5 1976.77,1036.07 C1975.79,1034.45 1975.36,1032.56 1975.42,1029.59 L1992.91,1029.59 M1975.47,1027.27 C1975.47,1023.49 1977.2,1018.09 1981.73,1018.09 C1984.97,1018.09 1987.13,1020.95 1987.13,1025.32 C1987.13,1026.83 1986.65,1027.27 1984.92,1027.27 L1975.47,1027.27 "/>
<path class="Lyrics" d="M2375.96,1016.57 L2375.96,1005.88 L2373.74,1005.88 C2373.2,1012.9 2370.83,1016.47 2366.45,1016.79 L2366.45,1018.9 L2370.88,1018.9 L2370.88,1032.67 C2370.88,1036.45 2370.99,1037.8 2371.53,1039.04 C2372.39,1041.31 2374.55,1042.55 2377.69,1042.55 C2382.55,1042.55 2385.68,1038.88 2385.68,1033.15 C2385.68,1032.83 2385.68,1032.45 2385.62,1031.91 L2383.36,1031.91 C2383.19,1036.77 2381.79,1039.25 2379.14,1039.25 C2377.9,1039.25 2376.82,1038.61 2376.44,1037.69 C2376.12,1036.93 2375.96,1035.58 2375.96,1033.64 L2375.96,1018.9 L2383.9,1018.9 L2383.9,1016.57 L2375.96,1016.57 M2408.68,1042.12 L2418.51,1041.74 L2418.51,1039.42 L2417.16,1039.42 C2414.03,1039.31 2413.76,1038.98 2413.76,1035.47 L2413.76,1016.57 L2403.61,1017.17 L2403.61,1019.49 L2406.36,1019.49 C2408.41,1019.54 2408.68,1019.87 2408.68,1022.19 L2408.68,1028.83 C2408.68,1033.53 2407.55,1039.25 2401.61,1039.25 C2399.93,1039.25 2398.53,1038.66 2397.83,1037.58 C2397.13,1036.55 2397.02,1036.01 2397.02,1033.04 L2397.02,1016.57 L2387.57,1017.17 L2387.57,1019.49 L2389.62,1019.49 C2391.67,1019.54 2391.94,1019.87 2391.94,1022.19 L2391.94,1033.85 C2391.94,1036.61 2392.16,1037.85 2392.97,1039.09 C2394.43,1041.31 2397.02,1042.55 2400.26,1042.55 C2403.82,1042.55 2406.31,1041.09 2408.68,1037.63 L2408.68,1042.12 M2430.11,1016.57 L2420.55,1017.17 L2420.55,1019.49 L2422.77,1019.49 C2424.82,1019.54 2425.09,1019.87 2425.09,1022.19 L2425.09,1037.63 C2425.03,1038.44 2424.98,1038.77 2424.76,1039.04 C2424.39,1039.52 2423.31,1039.74 2420.98,1039.79 L2420.77,1039.79 L2420.77,1041.74 L2435.19,1041.74 L2435.19,1039.79 L2434.21,1039.79 C2430.6,1039.69 2430.11,1039.42 2430.11,1037.47 L2430.11,1034.56 C2430.16,1025.48 2433.4,1018.57 2437.62,1018.36 C2436.86,1019.22 2436.64,1019.76 2436.64,1020.79 C2436.64,1022.51 2437.89,1023.76 2439.61,1023.76 C2441.61,1023.76 2442.91,1022.3 2442.91,1020.14 C2442.91,1017.49 2441.07,1015.76 2438.21,1015.76 C2434.81,1015.76 2431.89,1018.46 2430.11,1023.27 L2430.11,1016.57 "/>
<path class="Lyrics" d="M2297.87,1033.8 C2296.14,1037.69 2294.3,1039.25 2291.5,1039.25 C2287.18,1039.25 2284.48,1035.31 2284.48,1028.99 C2284.48,1022.41 2287.12,1018.09 2291.12,1018.09 C2292.74,1018.09 2294.14,1018.84 2294.14,1019.71 C2294.14,1019.87 2294.09,1020.03 2293.82,1020.35 C2292.95,1021.38 2292.74,1021.92 2292.74,1022.84 C2292.74,1024.62 2294.09,1025.86 2295.98,1025.86 C2297.92,1025.86 2299.27,1024.35 2299.27,1022.19 C2299.27,1018.52 2295.65,1015.76 2290.85,1015.76 C2283.83,1015.76 2278.81,1021.49 2278.81,1029.59 C2278.81,1037.26 2283.4,1042.55 2290.09,1042.55 C2294.9,1042.55 2297.65,1040.33 2299.97,1034.61 L2297.87,1033.8 M2325.39,1024.35 C2325.39,1020.95 2324.8,1019.22 2323.23,1017.92 C2321.45,1016.47 2318.81,1015.76 2315.35,1015.76 C2309.25,1015.76 2304.82,1018.63 2304.82,1022.57 C2304.82,1024.57 2306.06,1025.86 2307.95,1025.86 C2309.68,1025.86 2310.87,1024.73 2310.87,1023.11 C2310.87,1022.41 2310.6,1021.65 2310.06,1020.89 C2309.73,1020.52 2309.68,1020.41 2309.68,1020.14 C2309.68,1019.06 2311.84,1018.09 2314.43,1018.09 C2316.16,1018.09 2318.05,1018.63 2318.91,1019.44 C2319.94,1020.3 2320.32,1021.6 2320.32,1024.03 L2320.32,1026.13 C2314.7,1027.1 2312.92,1027.54 2310.27,1028.56 C2305.58,1030.29 2303.36,1032.77 2303.36,1036.23 C2303.36,1040.12 2306.39,1042.55 2311.19,1042.55 C2314.92,1042.55 2318.27,1041.04 2320.59,1038.28 C2321.45,1041.04 2322.8,1042.12 2325.34,1042.12 C2327.77,1042.12 2330.31,1040.55 2330.31,1038.98 C2330.31,1038.61 2330.09,1038.34 2329.77,1038.34 C2329.55,1038.34 2329.34,1038.39 2328.96,1038.55 C2328.2,1038.88 2327.88,1038.93 2327.45,1038.93 C2325.93,1038.93 2325.39,1037.96 2325.39,1035.2 L2325.39,1024.35 M2320.32,1030.94 C2320.32,1034.18 2320.16,1034.93 2319.24,1036.34 C2317.89,1038.34 2315.46,1039.69 2313.08,1039.69 C2310.6,1039.69 2308.82,1037.9 2308.82,1035.47 C2308.82,1033.21 2309.95,1031.59 2312.33,1030.45 C2314,1029.7 2316.11,1029.16 2320.32,1028.45 L2320.32,1030.94 "/>
<path class="Lyrics" d="M1225.06,1042.12 L1234.46,1041.74 L1234.46,1039.42 L1233.48,1039.42 C1230.41,1039.25 1230.14,1038.93 1230.14,1035.47 L1230.14,1001.94 L1219.55,1002.53 L1219.55,1004.86 L1222.74,1004.86 C1224.79,1004.91 1225.06,1005.23 1225.06,1007.56 L1225.06,1019.76 C1223.06,1017.01 1220.74,1015.76 1217.61,1015.76 C1211.51,1015.76 1206.86,1021.65 1206.86,1029.43 C1206.86,1037.09 1211.34,1042.55 1217.61,1042.55 C1221.01,1042.55 1223.33,1041.09 1225.06,1037.85 L1225.06,1042.12 M1218.69,1018.68 C1220.9,1018.68 1223.01,1020.3 1223.98,1022.78 C1224.68,1024.4 1225.01,1026.62 1225.01,1029.26 C1225.01,1035.58 1222.52,1039.63 1218.63,1039.63 C1214.8,1039.63 1212.53,1036.07 1212.53,1030.07 C1212.53,1026.83 1212.86,1024.4 1213.56,1022.62 C1214.48,1020.19 1216.47,1018.68 1218.69,1018.68 M1244.11,1003.13 C1242.38,1003.13 1240.98,1004.53 1240.98,1006.26 C1240.98,1007.99 1242.38,1009.39 1244.06,1009.39 C1245.84,1009.39 1247.24,1007.99 1247.24,1006.26 C1247.24,1004.53 1245.84,1003.13 1244.11,1003.13 M1246.65,1016.57 L1236.5,1017.17 L1236.5,1019.49 L1239.25,1019.49 C1241.3,1019.54 1241.57,1019.87 1241.57,1022.19 L1241.57,1037.63 C1241.52,1038.44 1241.46,1038.77 1241.25,1039.04 C1240.87,1039.52 1239.84,1039.74 1237.52,1039.79 L1237.14,1039.79 L1237.14,1041.74 L1251.13,1041.74 L1251.13,1039.79 L1250.75,1039.79 C1247.13,1039.69 1246.65,1039.42 1246.65,1037.47 L1246.65,1016.57 "/>
<path class="Lyrics" d="M344.846,1016.57 L335.234,1017.17 L335.234,1019.49 L337.448,1019.49 C339.5,1019.54 339.77,1019.87 339.77,1022.19 L339.77,1037.63 C339.716,1038.44 339.662,1038.77 339.446,1039.04 C339.068,1039.52 338.042,1039.74 335.72,1039.79 L335.504,1039.79 L335.504,1041.74 L349.112,1041.74 L349.112,1039.79 L348.896,1039.79 C345.332,1039.69 344.846,1039.42 344.846,1037.42 L344.846,1027.43 C344.846,1022.62 347.492,1019.06 351.002,1019.06 C354.08,1019.06 355.646,1021.27 355.646,1025.65 L355.646,1037.69 C355.592,1038.39 355.538,1038.77 355.268,1039.04 C354.944,1039.52 353.864,1039.74 351.542,1039.79 L351.326,1039.79 L351.326,1041.74 L364.988,1041.74 L364.988,1039.79 L364.772,1039.79 C361.208,1039.69 360.722,1039.42 360.722,1037.47 L360.722,1027.91 C360.722,1022.51 363.152,1019.06 366.932,1019.06 C370.01,1019.06 371.522,1021.38 371.522,1026.24 L371.522,1037.63 C371.468,1038.39 371.414,1038.77 371.144,1039.04 C370.82,1039.52 369.74,1039.74 367.418,1039.79 L367.202,1039.79 L367.202,1041.74 L380.864,1041.74 L380.864,1039.79 L380.648,1039.79 C377.084,1039.69 376.598,1039.42 376.598,1037.42 L376.598,1025.16 C376.598,1021.81 376.274,1020.68 374.87,1018.84 C373.304,1016.84 371.09,1015.76 368.498,1015.76 C364.988,1015.76 362.396,1017.44 360.074,1021.16 C359.156,1017.92 356.24,1015.76 352.622,1015.76 C349.328,1015.76 346.952,1017.33 344.846,1020.73 L344.846,1016.57 M404.24,1042.12 L414.068,1041.74 L414.068,1039.42 L412.718,1039.42 C409.586,1039.31 409.316,1038.98 409.316,1035.47 L409.316,1016.57 L399.164,1017.17 L399.164,1019.49 L401.918,1019.49 C403.97,1019.54 404.24,1019.87 404.24,1022.19 L404.24,1028.83 C404.24,1033.53 403.106,1039.25 397.166,1039.25 C395.492,1039.25 394.088,1038.66 393.386,1037.58 C392.684,1036.55 392.576,1036.01 392.576,1033.04 L392.576,1016.57 L383.126,1017.17 L383.126,1019.49 L385.178,1019.49 C387.23,1019.54 387.5,1019.87 387.5,1022.19 L387.5,1033.85 C387.5,1036.61 387.716,1037.85 388.526,1039.09 C389.984,1041.31 392.576,1042.55 395.816,1042.55 C399.38,1042.55 401.864,1041.09 404.24,1037.63 L404.24,1042.12 M425.776,1016.57 L416.434,1017.17 L416.434,1019.49 L418.378,1019.49 C420.43,1019.54 420.7,1019.87 420.7,1022.19 L420.7,1037.63 C420.646,1038.44 420.592,1038.77 420.376,1039.04 C419.998,1039.52 418.972,1039.74 416.65,1039.79 L416.434,1039.79 L416.434,1041.74 L430.096,1041.74 L430.096,1039.79 L429.88,1039.79 C426.262,1039.69 425.776,1039.42 425.776,1037.47 L425.776,1029.48 C425.776,1026.83 426.154,1024.4 426.748,1023.16 C427.882,1020.73 430.312,1019.06 432.634,1019.06 C434.038,1019.06 435.658,1019.81 436.468,1020.95 C437.278,1022.14 437.656,1023.76 437.656,1026.35 L437.656,1037.63 C437.602,1038.44 437.548,1038.77 437.332,1039.04 C436.954,1039.52 435.874,1039.74 433.552,1039.79 L433.336,1039.79 L433.336,1041.74 L446.998,1041.74 L446.998,1039.79 L446.782,1039.79 C443.218,1039.69 442.732,1039.42 442.732,1037.47 L442.732,1026.62 C442.732,1022.73 442.57,1021.76 441.598,1019.92 C440.248,1017.33 437.548,1015.76 434.308,1015.76 C430.798,1015.76 428.152,1017.38 425.776,1020.95 L425.776,1016.57 "/>
<path class="Lyrics" d="M1122.62,1024.35 C1122.62,1020.95 1122.03,1019.22 1120.46,1017.92 C1118.68,1016.47 1116.04,1015.76 1112.58,1015.76 C1106.48,1015.76 1102.05,1018.63 1102.05,1022.57 C1102.05,1024.57 1103.29,1025.86 1105.18,1025.86 C1106.91,1025.86 1108.1,1024.73 1108.1,1023.11 C1108.1,1022.41 1107.83,1021.65 1107.29,1020.89 C1106.96,1020.52 1106.91,1020.41 1106.91,1020.14 C1106.91,1019.06 1109.07,1018.09 1111.66,1018.09 C1113.39,1018.09 1115.28,1018.63 1116.14,1019.44 C1117.17,1020.3 1117.55,1021.6 1117.55,1024.03 L1117.55,1026.13 C1111.93,1027.1 1110.15,1027.54 1107.5,1028.56 C1102.81,1030.29 1100.59,1032.77 1100.59,1036.23 C1100.59,1040.12 1103.62,1042.55 1108.42,1042.55 C1112.15,1042.55 1115.5,1041.04 1117.82,1038.28 C1118.68,1041.04 1120.03,1042.12 1122.57,1042.12 C1125,1042.12 1127.54,1040.55 1127.54,1038.98 C1127.54,1038.61 1127.32,1038.34 1127,1038.34 C1126.78,1038.34 1126.57,1038.39 1126.19,1038.55 C1125.43,1038.88 1125.11,1038.93 1124.68,1038.93 C1123.16,1038.93 1122.62,1037.96 1122.62,1035.2 L1122.62,1024.35 M1117.55,1030.94 C1117.55,1034.18 1117.39,1034.93 1116.47,1036.34 C1115.12,1038.34 1112.69,1039.69 1110.31,1039.69 C1107.83,1039.69 1106.05,1037.9 1106.05,1035.47 C1106.05,1033.21 1107.18,1031.59 1109.56,1030.45 C1111.23,1029.7 1113.34,1029.16 1117.55,1028.45 L1117.55,1030.94 M1137.95,1001.94 L1128.66,1002.53 L1128.66,1004.86 L1130.55,1004.86 C1132.6,1004.91 1132.87,1005.23 1132.87,1007.56 L1132.87,1028.56 C1132.87,1036.07 1132.55,1040.17 1131.9,1042.49 L1133.95,1042.49 L1136.6,1038.28 C1138.81,1041.2 1141.35,1042.55 1144.7,1042.55 C1151.4,1042.55 1156.31,1036.82 1156.31,1028.99 C1156.31,1021.22 1151.77,1015.76 1145.29,1015.76 C1142,1015.76 1140,1016.9 1137.95,1019.98 L1137.95,1001.94 M1144.32,1018.52 C1148.37,1018.52 1150.64,1022.46 1150.64,1029.53 C1150.64,1036.39 1148.43,1040.23 1144.48,1040.23 C1140.22,1040.23 1137.68,1036.28 1137.68,1029.64 C1137.68,1022.41 1140,1018.52 1144.32,1018.52"/>
<path class="Lyrics" d="M2167.17,1042.12 L2176.57,1041.74 L2176.57,1039.42 L2175.6,1039.42 C2172.52,1039.25 2172.25,1038.93 2172.25,1035.47 L2172.25,1001.94 L2161.66,1002.53 L2161.66,1004.86 L2164.85,1004.86 C2166.9,1004.91 2167.17,1005.23 2167.17,1007.56 L2167.17,1019.76 C2165.17,1017.01 2162.85,1015.76 2159.72,1015.76 C2153.62,1015.76 2148.97,1021.65 2148.97,1029.43 C2148.97,1037.09 2153.46,1042.55 2159.72,1042.55 C2163.12,1042.55 2165.44,1041.09 2167.17,1037.85 L2167.17,1042.12 M2160.8,1018.68 C2163.01,1018.68 2165.12,1020.3 2166.09,1022.78 C2166.79,1024.4 2167.12,1026.62 2167.12,1029.26 C2167.12,1035.58 2164.63,1039.63 2160.75,1039.63 C2156.91,1039.63 2154.64,1036.07 2154.64,1030.07 C2154.64,1026.83 2154.97,1024.4 2155.67,1022.62 C2156.59,1020.19 2158.59,1018.68 2160.8,1018.68 M2186.22,1003.13 C2184.49,1003.13 2183.09,1004.53 2183.09,1006.26 C2183.09,1007.99 2184.49,1009.39 2186.17,1009.39 C2187.95,1009.39 2189.35,1007.99 2189.35,1006.26 C2189.35,1004.53 2187.95,1003.13 2186.22,1003.13 M2188.76,1016.57 L2178.61,1017.17 L2178.61,1019.49 L2181.36,1019.49 C2183.41,1019.54 2183.68,1019.87 2183.68,1022.19 L2183.68,1037.63 C2183.63,1038.44 2183.58,1038.77 2183.36,1039.04 C2182.98,1039.52 2181.96,1039.74 2179.63,1039.79 L2179.26,1039.79 L2179.26,1041.74 L2193.24,1041.74 L2193.24,1039.79 L2192.86,1039.79 C2189.25,1039.69 2188.76,1039.42 2188.76,1037.47 L2188.76,1016.57 "/>
<path class="Lyrics" d="M1570.76,1016.57 L1561.42,1017.17 L1561.42,1019.49 L1563.36,1019.49 C1565.41,1019.54 1565.68,1019.87 1565.68,1022.19 L1565.68,1048.6 C1565.63,1049.35 1565.57,1049.68 1565.36,1049.95 C1564.98,1050.43 1563.95,1050.65 1561.63,1050.7 L1561.42,1050.7 L1561.42,1052.65 L1575.46,1052.65 L1575.46,1050.7 L1574.86,1050.7 C1571.24,1050.59 1570.76,1050.32 1570.76,1048.38 L1570.76,1038.17 C1572.54,1041.31 1574.54,1042.55 1577.89,1042.55 C1585.07,1042.55 1588.79,1035.47 1588.79,1029.05 C1588.79,1022.95 1585.07,1015.76 1578.21,1015.76 C1574.86,1015.76 1572.65,1017.17 1570.76,1020.41 L1570.76,1016.57 M1577.24,1018.68 C1580.96,1018.68 1583.12,1022.41 1583.12,1028.72 C1583.12,1035.69 1580.96,1039.63 1577.08,1039.63 C1573.19,1039.63 1570.7,1035.64 1570.7,1029.43 C1570.7,1022.68 1573.13,1018.68 1577.24,1018.68 M1616,1029.59 C1616.05,1021.49 1611.46,1015.76 1604.87,1015.76 C1597.96,1015.76 1592.78,1021.76 1592.78,1029.86 C1592.78,1037.47 1597.69,1042.55 1604.98,1042.55 C1610.17,1042.55 1613.78,1040.01 1616,1034.88 L1614.11,1033.85 C1611.89,1038.01 1609.63,1039.63 1606.01,1039.63 C1603.25,1039.63 1601.26,1038.5 1599.85,1036.07 C1598.88,1034.45 1598.45,1032.56 1598.5,1029.59 L1616,1029.59 M1598.56,1027.27 C1598.56,1023.49 1600.28,1018.09 1604.82,1018.09 C1608.06,1018.09 1610.22,1020.95 1610.22,1025.32 C1610.22,1026.83 1609.73,1027.27 1608.01,1027.27 L1598.56,1027.27 M1628.58,1016.57 L1619.02,1017.17 L1619.02,1019.49 L1621.24,1019.49 C1623.29,1019.54 1623.56,1019.87 1623.56,1022.19 L1623.56,1037.63 C1623.5,1038.44 1623.45,1038.77 1623.23,1039.04 C1622.86,1039.52 1621.78,1039.74 1619.45,1039.79 L1619.24,1039.79 L1619.24,1041.74 L1633.66,1041.74 L1633.66,1039.79 L1632.68,1039.79 C1629.07,1039.69 1628.58,1039.42 1628.58,1037.47 L1628.58,1034.56 C1628.63,1025.48 1631.87,1018.57 1636.09,1018.36 C1635.33,1019.22 1635.11,1019.76 1635.11,1020.79 C1635.11,1022.51 1636.36,1023.76 1638.08,1023.76 C1640.08,1023.76 1641.38,1022.3 1641.38,1020.14 C1641.38,1017.49 1639.54,1015.76 1636.68,1015.76 C1633.28,1015.76 1630.36,1018.46 1628.58,1023.27 L1628.58,1016.57 "/>
<path class="Lyrics" d="M649.513,1024.35 C649.513,1020.95 648.919,1019.22 647.353,1017.92 C645.571,1016.47 642.925,1015.76 639.469,1015.76 C633.367,1015.76 628.939,1018.63 628.939,1022.57 C628.939,1024.57 630.181,1025.86 632.071,1025.86 C633.799,1025.86 634.987,1024.73 634.987,1023.11 C634.987,1022.41 634.717,1021.65 634.177,1020.89 C633.853,1020.52 633.799,1020.41 633.799,1020.14 C633.799,1019.06 635.959,1018.09 638.551,1018.09 C640.279,1018.09 642.169,1018.63 643.033,1019.44 C644.059,1020.3 644.437,1021.6 644.437,1024.03 L644.437,1026.13 C638.821,1027.1 637.039,1027.54 634.393,1028.56 C629.695,1030.29 627.481,1032.77 627.481,1036.23 C627.481,1040.12 630.505,1042.55 635.311,1042.55 C639.037,1042.55 642.385,1041.04 644.707,1038.28 C645.571,1041.04 646.921,1042.12 649.459,1042.12 C651.889,1042.12 654.427,1040.55 654.427,1038.98 C654.427,1038.61 654.211,1038.34 653.887,1038.34 C653.671,1038.34 653.455,1038.39 653.077,1038.55 C652.321,1038.88 651.997,1038.93 651.565,1038.93 C650.053,1038.93 649.513,1037.96 649.513,1035.2 L649.513,1024.35 M644.437,1030.94 C644.437,1034.18 644.275,1034.93 643.357,1036.34 C642.007,1038.34 639.577,1039.69 637.201,1039.69 C634.717,1039.69 632.935,1037.9 632.935,1035.47 C632.935,1033.21 634.069,1031.59 636.445,1030.45 C638.119,1029.7 640.225,1029.16 644.437,1028.45 L644.437,1030.94 M664.841,1001.94 L655.553,1002.53 L655.553,1004.86 L657.443,1004.86 C659.495,1004.91 659.765,1005.23 659.765,1007.56 L659.765,1028.56 C659.765,1036.07 659.441,1040.17 658.793,1042.49 L660.845,1042.49 L663.491,1038.28 C665.705,1041.2 668.243,1042.55 671.591,1042.55 C678.287,1042.55 683.201,1036.82 683.201,1028.99 C683.201,1021.22 678.665,1015.76 672.185,1015.76 C668.891,1015.76 666.893,1016.9 664.841,1019.98 L664.841,1001.94 M671.213,1018.52 C675.263,1018.52 677.531,1022.46 677.531,1029.53 C677.531,1036.39 675.317,1040.23 671.375,1040.23 C667.109,1040.23 664.571,1036.28 664.571,1029.64 C664.571,1022.41 666.893,1018.52 671.213,1018.52"/>
<path class="Lyrics" d="M1355.75,1033.8 C1354.03,1037.69 1352.19,1039.25 1349.38,1039.25 C1345.06,1039.25 1342.36,1035.31 1342.36,1028.99 C1342.36,1022.41 1345.01,1018.09 1349,1018.09 C1350.62,1018.09 1352.03,1018.84 1352.03,1019.71 C1352.03,1019.87 1351.97,1020.03 1351.7,1020.35 C1350.84,1021.38 1350.62,1021.92 1350.62,1022.84 C1350.62,1024.62 1351.97,1025.86 1353.86,1025.86 C1355.81,1025.86 1357.16,1024.35 1357.16,1022.19 C1357.16,1018.52 1353.54,1015.76 1348.73,1015.76 C1341.71,1015.76 1336.69,1021.49 1336.69,1029.59 C1336.69,1037.26 1341.28,1042.55 1347.98,1042.55 C1352.78,1042.55 1355.54,1040.33 1357.86,1034.61 L1355.75,1033.8 M1383.28,1024.35 C1383.28,1020.95 1382.69,1019.22 1381.12,1017.92 C1379.34,1016.47 1376.69,1015.76 1373.24,1015.76 C1367.13,1015.76 1362.71,1018.63 1362.71,1022.57 C1362.71,1024.57 1363.95,1025.86 1365.84,1025.86 C1367.57,1025.86 1368.75,1024.73 1368.75,1023.11 C1368.75,1022.41 1368.48,1021.65 1367.94,1020.89 C1367.62,1020.52 1367.57,1020.41 1367.57,1020.14 C1367.57,1019.06 1369.73,1018.09 1372.32,1018.09 C1374.05,1018.09 1375.94,1018.63 1376.8,1019.44 C1377.83,1020.3 1378.2,1021.6 1378.2,1024.03 L1378.2,1026.13 C1372.59,1027.1 1370.81,1027.54 1368.16,1028.56 C1363.46,1030.29 1361.25,1032.77 1361.25,1036.23 C1361.25,1040.12 1364.27,1042.55 1369.08,1042.55 C1372.8,1042.55 1376.15,1041.04 1378.47,1038.28 C1379.34,1041.04 1380.69,1042.12 1383.23,1042.12 C1385.66,1042.12 1388.19,1040.55 1388.19,1038.98 C1388.19,1038.61 1387.98,1038.34 1387.65,1038.34 C1387.44,1038.34 1387.22,1038.39 1386.84,1038.55 C1386.09,1038.88 1385.76,1038.93 1385.33,1038.93 C1383.82,1038.93 1383.28,1037.96 1383.28,1035.2 L1383.28,1024.35 M1378.2,1030.94 C1378.2,1034.18 1378.04,1034.93 1377.12,1036.34 C1375.77,1038.34 1373.34,1039.69 1370.97,1039.69 C1368.48,1039.69 1366.7,1037.9 1366.7,1035.47 C1366.7,1033.21 1367.84,1031.59 1370.21,1030.45 C1371.89,1029.7 1373.99,1029.16 1378.2,1028.45 L1378.2,1030.94 "/>
<path class="Lyrics" d="M2053.96,1003.13 C2052.23,1003.13 2050.83,1004.53 2050.83,1006.26 C2050.83,1007.99 2052.23,1009.39 2053.91,1009.39 C2055.69,1009.39 2057.09,1007.99 2057.09,1006.26 C2057.09,1004.53 2055.69,1003.13 2053.96,1003.13 M2056.5,1016.57 L2046.35,1017.17 L2046.35,1019.49 L2049.1,1019.49 C2051.15,1019.54 2051.42,1019.87 2051.42,1022.19 L2051.42,1037.63 C2051.37,1038.44 2051.32,1038.77 2051.1,1039.04 C2050.72,1039.52 2049.7,1039.74 2047.37,1039.79 L2047,1039.79 L2047,1041.74 L2060.98,1041.74 L2060.98,1039.79 L2060.6,1039.79 C2056.99,1039.69 2056.5,1039.42 2056.5,1037.47 L2056.5,1016.57 M2084.62,1042.12 L2094.45,1041.74 L2094.45,1039.42 L2093.1,1039.42 C2089.97,1039.31 2089.7,1038.98 2089.7,1035.47 L2089.7,1016.57 L2079.55,1017.17 L2079.55,1019.49 L2082.3,1019.49 C2084.35,1019.54 2084.62,1019.87 2084.62,1022.19 L2084.62,1028.83 C2084.62,1033.53 2083.49,1039.25 2077.55,1039.25 C2075.88,1039.25 2074.47,1038.66 2073.77,1037.58 C2073.07,1036.55 2072.96,1036.01 2072.96,1033.04 L2072.96,1016.57 L2063.51,1017.17 L2063.51,1019.49 L2065.56,1019.49 C2067.61,1019.54 2067.88,1019.87 2067.88,1022.19 L2067.88,1033.85 C2067.88,1036.61 2068.1,1037.85 2068.91,1039.09 C2070.37,1041.31 2072.96,1042.55 2076.2,1042.55 C2079.76,1042.55 2082.25,1041.09 2084.62,1037.63 L2084.62,1042.12 "/>
<path class="Lyrics" d="M2480.38,1016.57 L2470.77,1017.17 L2470.77,1019.49 L2472.98,1019.49 C2475.04,1019.54 2475.31,1019.87 2475.31,1022.19 L2475.31,1037.63 C2475.25,1038.44 2475.2,1038.77 2474.98,1039.04 C2474.6,1039.52 2473.58,1039.74 2471.26,1039.79 L2471.04,1039.79 L2471.04,1041.74 L2484.65,1041.74 L2484.65,1039.79 L2484.43,1039.79 C2480.87,1039.69 2480.38,1039.42 2480.38,1037.42 L2480.38,1027.43 C2480.38,1022.62 2483.03,1019.06 2486.54,1019.06 C2489.62,1019.06 2491.18,1021.27 2491.18,1025.65 L2491.18,1037.69 C2491.13,1038.39 2491.07,1038.77 2490.8,1039.04 C2490.48,1039.52 2489.4,1039.74 2487.08,1039.79 L2486.86,1039.79 L2486.86,1041.74 L2500.52,1041.74 L2500.52,1039.79 L2500.31,1039.79 C2496.74,1039.69 2496.26,1039.42 2496.26,1037.47 L2496.26,1027.91 C2496.26,1022.51 2498.69,1019.06 2502.47,1019.06 C2505.55,1019.06 2507.06,1021.38 2507.06,1026.24 L2507.06,1037.63 C2507,1038.39 2506.95,1038.77 2506.68,1039.04 C2506.36,1039.52 2505.28,1039.74 2502.95,1039.79 L2502.74,1039.79 L2502.74,1041.74 L2516.4,1041.74 L2516.4,1039.79 L2516.18,1039.79 C2512.62,1039.69 2512.13,1039.42 2512.13,1037.42 L2512.13,1025.16 C2512.13,1021.81 2511.81,1020.68 2510.41,1018.84 C2508.84,1016.84 2506.63,1015.76 2504.03,1015.76 C2500.52,1015.76 2497.93,1017.44 2495.61,1021.16 C2494.69,1017.92 2491.78,1015.76 2488.16,1015.76 C2484.86,1015.76 2482.49,1017.33 2480.38,1020.73 L2480.38,1016.57 M2539.78,1042.12 L2549.6,1041.74 L2549.6,1039.42 L2548.25,1039.42 C2545.12,1039.31 2544.85,1038.98 2544.85,1035.47 L2544.85,1016.57 L2534.7,1017.17 L2534.7,1019.49 L2537.45,1019.49 C2539.51,1019.54 2539.78,1019.87 2539.78,1022.19 L2539.78,1028.83 C2539.78,1033.53 2538.64,1039.25 2532.7,1039.25 C2531.03,1039.25 2529.62,1038.66 2528.92,1037.58 C2528.22,1036.55 2528.11,1036.01 2528.11,1033.04 L2528.11,1016.57 L2518.66,1017.17 L2518.66,1019.49 L2520.71,1019.49 C2522.77,1019.54 2523.04,1019.87 2523.04,1022.19 L2523.04,1033.85 C2523.04,1036.61 2523.25,1037.85 2524.06,1039.09 C2525.52,1041.31 2528.11,1042.55 2531.35,1042.55 C2534.92,1042.55 2537.4,1041.09 2539.78,1037.63 L2539.78,1042.12 M2561.31,1016.57 L2551.97,1017.17 L2551.97,1019.49 L2553.91,1019.49 C2555.97,1019.54 2556.24,1019.87 2556.24,1022.19 L2556.24,1037.63 C2556.18,1038.44 2556.13,1038.77 2555.91,1039.04 C2555.53,1039.52 2554.51,1039.74 2552.19,1039.79 L2551.97,1039.79 L2551.97,1041.74 L2565.63,1041.74 L2565.63,1039.79 L2565.42,1039.79 C2561.8,1039.69 2561.31,1039.42 2561.31,1037.47 L2561.31,1029.48 C2561.31,1026.83 2561.69,1024.4 2562.28,1023.16 C2563.42,1020.73 2565.85,1019.06 2568.17,1019.06 C2569.57,1019.06 2571.19,1019.81 2572,1020.95 C2572.81,1022.14 2573.19,1023.76 2573.19,1026.35 L2573.19,1037.63 C2573.14,1038.44 2573.08,1038.77 2572.87,1039.04 C2572.49,1039.52 2571.41,1039.74 2569.09,1039.79 L2568.87,1039.79 L2568.87,1041.74 L2582.53,1041.74 L2582.53,1039.79 L2582.32,1039.79 C2578.75,1039.69 2578.27,1039.42 2578.27,1037.47 L2578.27,1026.62 C2578.27,1022.73 2578.11,1021.76 2577.13,1019.92 C2575.78,1017.33 2573.08,1015.76 2569.84,1015.76 C2566.33,1015.76 2563.69,1017.38 2561.31,1020.95 L2561.31,1016.57 "/>
<path class="Lyrics" d="M739.218,1003.13 C737.49,1003.13 736.086,1004.53 736.086,1006.26 C736.086,1007.99 737.49,1009.39 739.164,1009.39 C740.946,1009.39 742.35,1007.99 742.35,1006.26 C742.35,1004.53 740.946,1003.13 739.218,1003.13 M741.756,1016.57 L731.604,1017.17 L731.604,1019.49 L734.358,1019.49 C736.41,1019.54 736.68,1019.87 736.68,1022.19 L736.68,1037.63 C736.626,1038.44 736.572,1038.77 736.356,1039.04 C735.978,1039.52 734.952,1039.74 732.63,1039.79 L732.252,1039.79 L732.252,1041.74 L746.238,1041.74 L746.238,1039.79 L745.86,1039.79 C742.242,1039.69 741.756,1039.42 741.756,1037.47 L741.756,1016.57 M758.432,1016.57 L749.09,1017.17 L749.09,1019.49 L751.034,1019.49 C753.086,1019.54 753.356,1019.87 753.356,1022.19 L753.356,1037.63 C753.302,1038.44 753.248,1038.77 753.032,1039.04 C752.654,1039.52 751.628,1039.74 749.306,1039.79 L749.09,1039.79 L749.09,1041.74 L762.752,1041.74 L762.752,1039.79 L762.536,1039.79 C758.918,1039.69 758.432,1039.42 758.432,1037.47 L758.432,1029.48 C758.432,1026.83 758.81,1024.4 759.404,1023.16 C760.538,1020.73 762.968,1019.06 765.29,1019.06 C766.694,1019.06 768.314,1019.81 769.124,1020.95 C769.934,1022.14 770.312,1023.76 770.312,1026.35 L770.312,1037.63 C770.258,1038.44 770.204,1038.77 769.988,1039.04 C769.61,1039.52 768.53,1039.74 766.208,1039.79 L765.992,1039.79 L765.992,1041.74 L779.654,1041.74 L779.654,1039.79 L779.438,1039.79 C775.874,1039.69 775.388,1039.42 775.388,1037.47 L775.388,1026.62 C775.388,1022.73 775.226,1021.76 774.254,1019.92 C772.904,1017.33 770.204,1015.76 766.964,1015.76 C763.454,1015.76 760.808,1017.38 758.432,1020.95 L758.432,1016.57 "/>
<path class="Lyrics" d="M1433.84,1016.57 L1433.84,1005.88 L1431.63,1005.88 C1431.09,1012.9 1428.71,1016.47 1424.34,1016.79 L1424.34,1018.9 L1428.77,1018.9 L1428.77,1032.67 C1428.77,1036.45 1428.88,1037.8 1429.42,1039.04 C1430.28,1041.31 1432.44,1042.55 1435.57,1042.55 C1440.43,1042.55 1443.56,1038.88 1443.56,1033.15 C1443.56,1032.83 1443.56,1032.45 1443.51,1031.91 L1441.24,1031.91 C1441.08,1036.77 1439.68,1039.25 1437.03,1039.25 C1435.79,1039.25 1434.71,1038.61 1434.33,1037.69 C1434.01,1036.93 1433.84,1035.58 1433.84,1033.64 L1433.84,1018.9 L1441.78,1018.9 L1441.78,1016.57 L1433.84,1016.57 M1466.57,1042.12 L1476.4,1041.74 L1476.4,1039.42 L1475.05,1039.42 C1471.91,1039.31 1471.64,1038.98 1471.64,1035.47 L1471.64,1016.57 L1461.49,1017.17 L1461.49,1019.49 L1464.25,1019.49 C1466.3,1019.54 1466.57,1019.87 1466.57,1022.19 L1466.57,1028.83 C1466.57,1033.53 1465.43,1039.25 1459.49,1039.25 C1457.82,1039.25 1456.42,1038.66 1455.71,1037.58 C1455.01,1036.55 1454.9,1036.01 1454.9,1033.04 L1454.9,1016.57 L1445.45,1017.17 L1445.45,1019.49 L1447.51,1019.49 C1449.56,1019.54 1449.83,1019.87 1449.83,1022.19 L1449.83,1033.85 C1449.83,1036.61 1450.04,1037.85 1450.85,1039.09 C1452.31,1041.31 1454.9,1042.55 1458.14,1042.55 C1461.71,1042.55 1464.19,1041.09 1466.57,1037.63 L1466.57,1042.12 M1488,1016.57 L1478.44,1017.17 L1478.44,1019.49 L1480.65,1019.49 C1482.71,1019.54 1482.98,1019.87 1482.98,1022.19 L1482.98,1037.63 C1482.92,1038.44 1482.87,1038.77 1482.65,1039.04 C1482.27,1039.52 1481.19,1039.74 1478.87,1039.79 L1478.66,1039.79 L1478.66,1041.74 L1493.07,1041.74 L1493.07,1039.79 L1492.1,1039.79 C1488.48,1039.69 1488,1039.42 1488,1037.47 L1488,1034.56 C1488.05,1025.48 1491.29,1018.57 1495.5,1018.36 C1494.75,1019.22 1494.53,1019.76 1494.53,1020.79 C1494.53,1022.51 1495.77,1023.76 1497.5,1023.76 C1499.5,1023.76 1500.8,1022.3 1500.8,1020.14 C1500.8,1017.49 1498.96,1015.76 1496.1,1015.76 C1492.7,1015.76 1489.78,1018.46 1488,1023.27 L1488,1016.57 "/>
<path class="Lyrics" d="M1691.48,1016.57 L1688.95,1020.25 C1686.79,1017.22 1684.14,1015.76 1680.74,1015.76 C1674.15,1015.76 1669.18,1021.76 1669.18,1029.75 C1669.18,1037.15 1673.83,1042.55 1680.14,1042.55 C1683.49,1042.55 1685.33,1041.58 1687.49,1038.61 L1687.49,1048.6 C1687.43,1049.35 1687.38,1049.68 1687.16,1049.95 C1686.79,1050.43 1685.76,1050.65 1683.38,1050.7 L1682.79,1050.7 L1682.79,1052.65 L1696.83,1052.65 L1696.83,1050.7 L1696.61,1050.7 C1693.05,1050.59 1692.56,1050.32 1692.56,1048.38 L1692.56,1025.05 C1692.62,1021.97 1692.62,1021.76 1692.62,1021.16 C1692.73,1020.14 1692.89,1019.38 1693.48,1016.57 L1691.48,1016.57 M1681.22,1018.09 C1683.38,1018.09 1685.33,1019.49 1686.35,1021.76 C1687.16,1023.54 1687.49,1025.43 1687.49,1028.56 C1687.49,1035.96 1685.44,1039.63 1681.22,1039.63 C1677.17,1039.63 1674.85,1035.91 1674.85,1029.43 C1674.85,1021.81 1676.96,1018.09 1681.22,1018.09 M1718.8,1042.12 L1728.63,1041.74 L1728.63,1039.42 L1727.28,1039.42 C1724.15,1039.31 1723.88,1038.98 1723.88,1035.47 L1723.88,1016.57 L1713.72,1017.17 L1713.72,1019.49 L1716.48,1019.49 C1718.53,1019.54 1718.8,1019.87 1718.8,1022.19 L1718.8,1028.83 C1718.8,1033.53 1717.67,1039.25 1711.73,1039.25 C1710.05,1039.25 1708.65,1038.66 1707.95,1037.58 C1707.24,1036.55 1707.14,1036.01 1707.14,1033.04 L1707.14,1016.57 L1697.69,1017.17 L1697.69,1019.49 L1699.74,1019.49 C1701.79,1019.54 1702.06,1019.87 1702.06,1022.19 L1702.06,1033.85 C1702.06,1036.61 1702.28,1037.85 1703.09,1039.09 C1704.54,1041.31 1707.14,1042.55 1710.38,1042.55 C1713.94,1042.55 1716.42,1041.09 1718.8,1037.63 L1718.8,1042.12 M1754.65,1029.59 C1754.7,1021.49 1750.11,1015.76 1743.52,1015.76 C1736.61,1015.76 1731.43,1021.76 1731.43,1029.86 C1731.43,1037.47 1736.34,1042.55 1743.63,1042.55 C1748.81,1042.55 1752.43,1040.01 1754.65,1034.88 L1752.76,1033.85 C1750.54,1038.01 1748.27,1039.63 1744.66,1039.63 C1741.9,1039.63 1739.9,1038.5 1738.5,1036.07 C1737.53,1034.45 1737.1,1032.56 1737.15,1029.59 L1754.65,1029.59 M1737.2,1027.27 C1737.2,1023.49 1738.93,1018.09 1743.47,1018.09 C1746.71,1018.09 1748.87,1020.95 1748.87,1025.32 C1748.87,1026.83 1748.38,1027.27 1746.65,1027.27 L1737.2,1027.27 M1767.39,1016.57 L1757.78,1017.17 L1757.78,1019.49 L1759.99,1019.49 C1762.04,1019.54 1762.31,1019.87 1762.31,1022.19 L1762.31,1037.63 C1762.26,1038.44 1762.21,1038.77 1761.99,1039.04 C1761.61,1039.52 1760.59,1039.74 1758.26,1039.79 L1758.05,1039.79 L1758.05,1041.74 L1771.66,1041.74 L1771.66,1039.79 L1771.44,1039.79 C1767.88,1039.69 1767.39,1039.42 1767.39,1037.42 L1767.39,1027.43 C1767.39,1022.62 1770.04,1019.06 1773.55,1019.06 C1776.62,1019.06 1778.19,1021.27 1778.19,1025.65 L1778.19,1037.69 C1778.14,1038.39 1778.08,1038.77 1777.81,1039.04 C1777.49,1039.52 1776.41,1039.74 1774.09,1039.79 L1773.87,1039.79 L1773.87,1041.74 L1787.53,1041.74 L1787.53,1039.79 L1787.32,1039.79 C1783.75,1039.69 1783.27,1039.42 1783.27,1037.47 L1783.27,1027.91 C1783.27,1022.51 1785.7,1019.06 1789.48,1019.06 C1792.55,1019.06 1794.07,1021.38 1794.07,1026.24 L1794.07,1037.63 C1794.01,1038.39 1793.96,1038.77 1793.69,1039.04 C1793.36,1039.52 1792.28,1039.74 1789.96,1039.79 L1789.75,1039.79 L1789.75,1041.74 L1803.41,1041.74 L1803.41,1039.79 L1803.19,1039.79 C1799.63,1039.69 1799.14,1039.42 1799.14,1037.42 L1799.14,1025.16 C1799.14,1021.81 1798.82,1020.68 1797.41,1018.84 C1795.85,1016.84 1793.63,1015.76 1791.04,1015.76 C1787.53,1015.76 1784.94,1017.44 1782.62,1021.16 C1781.7,1017.92 1778.78,1015.76 1775.17,1015.76 C1771.87,1015.76 1769.5,1017.33 1767.39,1020.73 L1767.39,1016.57 "/>
<path class="Lyrics" d="M2628.22,1042.12 L2637.61,1041.74 L2637.61,1039.42 L2636.64,1039.42 C2633.56,1039.25 2633.29,1038.93 2633.29,1035.47 L2633.29,1001.94 L2622.71,1002.53 L2622.71,1004.86 L2625.9,1004.86 C2627.95,1004.91 2628.22,1005.23 2628.22,1007.56 L2628.22,1019.76 C2626.22,1017.01 2623.9,1015.76 2620.77,1015.76 C2614.66,1015.76 2610.02,1021.65 2610.02,1029.43 C2610.02,1037.09 2614.5,1042.55 2620.77,1042.55 C2624.17,1042.55 2626.49,1041.09 2628.22,1037.85 L2628.22,1042.12 M2621.85,1018.68 C2624.06,1018.68 2626.17,1020.3 2627.14,1022.78 C2627.84,1024.4 2628.16,1026.62 2628.16,1029.26 C2628.16,1035.58 2625.68,1039.63 2621.79,1039.63 C2617.96,1039.63 2615.69,1036.07 2615.69,1030.07 C2615.69,1026.83 2616.01,1024.4 2616.72,1022.62 C2617.63,1020.19 2619.63,1018.68 2621.85,1018.68 M2660.93,1042.12 L2670.76,1041.74 L2670.76,1039.42 L2669.41,1039.42 C2666.28,1039.31 2666.01,1038.98 2666.01,1035.47 L2666.01,1016.57 L2655.86,1017.17 L2655.86,1019.49 L2658.61,1019.49 C2660.66,1019.54 2660.93,1019.87 2660.93,1022.19 L2660.93,1028.83 C2660.93,1033.53 2659.8,1039.25 2653.86,1039.25 C2652.18,1039.25 2650.78,1038.66 2650.08,1037.58 C2649.38,1036.55 2649.27,1036.01 2649.27,1033.04 L2649.27,1016.57 L2639.82,1017.17 L2639.82,1019.49 L2641.87,1019.49 C2643.92,1019.54 2644.19,1019.87 2644.19,1022.19 L2644.19,1033.85 C2644.19,1036.61 2644.41,1037.85 2645.22,1039.09 C2646.68,1041.31 2649.27,1042.55 2652.51,1042.55 C2656.07,1042.55 2658.56,1041.09 2660.93,1037.63 L2660.93,1042.12 M2692.73,1015.98 L2690.84,1015.98 L2689.27,1017.92 C2687.33,1016.41 2685.38,1015.76 2682.68,1015.76 C2677.93,1015.76 2674.8,1018.84 2674.8,1023.59 C2674.8,1028.67 2678.09,1029.97 2682.41,1030.99 L2685.28,1031.64 C2689.54,1032.67 2691.05,1033.75 2691.05,1035.91 C2691.05,1038.44 2688.84,1040.23 2685.71,1040.23 C2681.12,1040.23 2677.88,1037.31 2676.58,1031.91 L2674.42,1031.91 L2674.42,1042.12 L2676.31,1042.12 L2678.2,1039.9 C2680.42,1041.68 2682.85,1042.55 2685.6,1042.55 C2690.89,1042.55 2694.4,1039.25 2694.4,1034.23 C2694.4,1031.86 2693.65,1030.02 2692.13,1028.78 C2690.84,1027.64 2689.76,1027.21 2686.46,1026.51 L2683.76,1025.92 C2680.79,1025.27 2680.79,1025.27 2679.82,1024.73 C2678.63,1024.19 2677.93,1023.05 2677.93,1021.87 C2677.93,1019.65 2679.98,1018.14 2682.95,1018.14 C2687.38,1018.14 2689.54,1021.27 2690.84,1025.05 L2692.73,1025.05 L2692.73,1015.98 M2703.91,1035.74 C2702.02,1035.74 2700.51,1037.26 2700.51,1039.09 C2700.51,1040.98 2702.02,1042.49 2703.86,1042.49 C2705.75,1042.49 2707.26,1040.98 2707.26,1039.09 C2707.26,1037.26 2705.75,1035.74 2703.91,1035.74"/>
<path class="Lyrics" d="M861.239,1003.13 C859.511,1003.13 858.107,1004.53 858.107,1006.26 C858.107,1007.99 859.511,1009.39 861.185,1009.39 C862.967,1009.39 864.371,1007.99 864.371,1006.26 C864.371,1004.53 862.967,1003.13 861.239,1003.13 M863.777,1016.57 L853.625,1017.17 L853.625,1019.49 L856.379,1019.49 C858.431,1019.54 858.701,1019.87 858.701,1022.19 L858.701,1037.63 C858.647,1038.44 858.593,1038.77 858.377,1039.04 C857.999,1039.52 856.973,1039.74 854.651,1039.79 L854.273,1039.79 L854.273,1041.74 L868.259,1041.74 L868.259,1039.79 L867.881,1039.79 C864.263,1039.69 863.777,1039.42 863.777,1037.47 L863.777,1016.57 M891.901,1042.12 L901.729,1041.74 L901.729,1039.42 L900.379,1039.42 C897.247,1039.31 896.977,1038.98 896.977,1035.47 L896.977,1016.57 L886.825,1017.17 L886.825,1019.49 L889.579,1019.49 C891.631,1019.54 891.901,1019.87 891.901,1022.19 L891.901,1028.83 C891.901,1033.53 890.767,1039.25 884.827,1039.25 C883.153,1039.25 881.749,1038.66 881.047,1037.58 C880.345,1036.55 880.237,1036.01 880.237,1033.04 L880.237,1016.57 L870.787,1017.17 L870.787,1019.49 L872.839,1019.49 C874.891,1019.54 875.161,1019.87 875.161,1022.19 L875.161,1033.85 C875.161,1036.61 875.377,1037.85 876.187,1039.09 C877.645,1041.31 880.237,1042.55 883.477,1042.55 C887.041,1042.55 889.525,1041.09 891.901,1037.63 L891.901,1042.12 M923.697,1015.98 L921.807,1015.98 L920.241,1017.92 C918.297,1016.41 916.353,1015.76 913.653,1015.76 C908.901,1015.76 905.769,1018.84 905.769,1023.59 C905.769,1028.67 909.063,1029.97 913.383,1030.99 L916.245,1031.64 C920.511,1032.67 922.023,1033.75 922.023,1035.91 C922.023,1038.44 919.809,1040.23 916.677,1040.23 C912.087,1040.23 908.847,1037.31 907.551,1031.91 L905.391,1031.91 L905.391,1042.12 L907.281,1042.12 L909.171,1039.9 C911.385,1041.68 913.815,1042.55 916.569,1042.55 C921.861,1042.55 925.371,1039.25 925.371,1034.23 C925.371,1031.86 924.615,1030.02 923.103,1028.78 C921.807,1027.64 920.727,1027.21 917.433,1026.51 L914.733,1025.92 C911.763,1025.27 911.763,1025.27 910.791,1024.73 C909.603,1024.19 908.901,1023.05 908.901,1021.87 C908.901,1019.65 910.953,1018.14 913.923,1018.14 C918.351,1018.14 920.511,1021.27 921.807,1025.05 L923.697,1025.05 L923.697,1015.98 "/>
<path class="Lyrics" d="M969.421,1016.57 L969.421,1005.88 L967.207,1005.88 C966.667,1012.9 964.291,1016.47 959.917,1016.79 L959.917,1018.9 L964.345,1018.9 L964.345,1032.67 C964.345,1036.45 964.453,1037.8 964.993,1039.04 C965.857,1041.31 968.017,1042.55 971.149,1042.55 C976.009,1042.55 979.141,1038.88 979.141,1033.15 C979.141,1032.83 979.141,1032.45 979.087,1031.91 L976.819,1031.91 C976.657,1036.77 975.253,1039.25 972.607,1039.25 C971.365,1039.25 970.285,1038.61 969.907,1037.69 C969.583,1036.93 969.421,1035.58 969.421,1033.64 L969.421,1018.9 L977.359,1018.9 L977.359,1016.57 L969.421,1016.57 M988.531,1003.13 C986.803,1003.13 985.399,1004.53 985.399,1006.26 C985.399,1007.99 986.803,1009.39 988.477,1009.39 C990.259,1009.39 991.663,1007.99 991.663,1006.26 C991.663,1004.53 990.259,1003.13 988.531,1003.13 M991.069,1016.57 L980.917,1017.17 L980.917,1019.49 L983.671,1019.49 C985.723,1019.54 985.993,1019.87 985.993,1022.19 L985.993,1037.63 C985.939,1038.44 985.885,1038.77 985.669,1039.04 C985.291,1039.52 984.265,1039.74 981.943,1039.79 L981.565,1039.79 L981.565,1041.74 L995.551,1041.74 L995.551,1039.79 L995.173,1039.79 C991.555,1039.69 991.069,1039.42 991.069,1037.47 L991.069,1016.57 M1018.01,1015.98 L1016.12,1015.98 L1014.55,1017.92 C1012.61,1016.41 1010.66,1015.76 1007.96,1015.76 C1003.21,1015.76 1000.08,1018.84 1000.08,1023.59 C1000.08,1028.67 1003.37,1029.97 1007.69,1030.99 L1010.55,1031.64 C1014.82,1032.67 1016.33,1033.75 1016.33,1035.91 C1016.33,1038.44 1014.12,1040.23 1010.99,1040.23 C1006.4,1040.23 1003.16,1037.31 1001.86,1031.91 L999.699,1031.91 L999.699,1042.12 L1001.59,1042.12 L1003.48,1039.9 C1005.69,1041.68 1008.12,1042.55 1010.88,1042.55 C1016.17,1042.55 1019.68,1039.25 1019.68,1034.23 C1019.68,1031.86 1018.92,1030.02 1017.41,1028.78 C1016.12,1027.64 1015.04,1027.21 1011.74,1026.51 L1009.04,1025.92 C1006.07,1025.27 1006.07,1025.27 1005.1,1024.73 C1003.91,1024.19 1003.21,1023.05 1003.21,1021.87 C1003.21,1019.65 1005.26,1018.14 1008.23,1018.14 C1012.66,1018.14 1014.82,1021.27 1016.12,1025.05 L1018.01,1025.05 L1018.01,1015.98 "/>
<path class="Lyrics" d="M492.683,1042.12 L502.079,1041.74 L502.079,1039.42 L501.107,1039.42 C498.029,1039.25 497.759,1038.93 497.759,1035.47 L497.759,1001.94 L487.175,1002.53 L487.175,1004.86 L490.361,1004.86 C492.413,1004.91 492.683,1005.23 492.683,1007.56 L492.683,1019.76 C490.685,1017.01 488.363,1015.76 485.231,1015.76 C479.129,1015.76 474.485,1021.65 474.485,1029.43 C474.485,1037.09 478.967,1042.55 485.231,1042.55 C488.633,1042.55 490.955,1041.09 492.683,1037.85 L492.683,1042.12 M486.311,1018.68 C488.525,1018.68 490.631,1020.3 491.603,1022.78 C492.305,1024.4 492.629,1026.62 492.629,1029.26 C492.629,1035.58 490.145,1039.63 486.257,1039.63 C482.423,1039.63 480.155,1036.07 480.155,1030.07 C480.155,1026.83 480.479,1024.4 481.181,1022.62 C482.099,1020.19 484.097,1018.68 486.311,1018.68 M525.396,1042.12 L535.224,1041.74 L535.224,1039.42 L533.874,1039.42 C530.742,1039.31 530.472,1038.98 530.472,1035.47 L530.472,1016.57 L520.32,1017.17 L520.32,1019.49 L523.074,1019.49 C525.126,1019.54 525.396,1019.87 525.396,1022.19 L525.396,1028.83 C525.396,1033.53 524.262,1039.25 518.322,1039.25 C516.648,1039.25 515.244,1038.66 514.542,1037.58 C513.84,1036.55 513.732,1036.01 513.732,1033.04 L513.732,1016.57 L504.282,1017.17 L504.282,1019.49 L506.334,1019.49 C508.386,1019.54 508.656,1019.87 508.656,1022.19 L508.656,1033.85 C508.656,1036.61 508.872,1037.85 509.682,1039.09 C511.14,1041.31 513.732,1042.55 516.972,1042.55 C520.536,1042.55 523.02,1041.09 525.396,1037.63 L525.396,1042.12 M557.192,1015.98 L555.302,1015.98 L553.736,1017.92 C551.792,1016.41 549.848,1015.76 547.148,1015.76 C542.396,1015.76 539.264,1018.84 539.264,1023.59 C539.264,1028.67 542.558,1029.97 546.878,1030.99 L549.74,1031.64 C554.006,1032.67 555.518,1033.75 555.518,1035.91 C555.518,1038.44 553.304,1040.23 550.172,1040.23 C545.582,1040.23 542.342,1037.31 541.046,1031.91 L538.886,1031.91 L538.886,1042.12 L540.776,1042.12 L542.666,1039.9 C544.88,1041.68 547.31,1042.55 550.064,1042.55 C555.356,1042.55 558.866,1039.25 558.866,1034.23 C558.866,1031.86 558.11,1030.02 556.598,1028.78 C555.302,1027.64 554.222,1027.21 550.928,1026.51 L548.228,1025.92 C545.258,1025.27 545.258,1025.27 544.286,1024.73 C543.098,1024.19 542.396,1023.05 542.396,1021.87 C542.396,1019.65 544.448,1018.14 547.418,1018.14 C551.846,1018.14 554.006,1021.27 555.302,1025.05 L557.192,1025.05 L557.192,1015.98 "/>
<polyline class="TextLineSegment" fill="none" stroke="#000000" stroke-width="3.79" stroke-linejoin="miter" stroke-miterlimit="2" points="738.402,241.421 738.402,214.492 845.197,214.492 845.197,241.421" />
<polyline class="TextLineSegment" fill="none" stroke="#000000" stroke-width="3.79" stroke-linejoin="miter" stroke-miterlimit="2" points="1211.51,241.421 1211.51,214.492 1318.31,214.492 1318.31,241.421" />
<polyline class="TextLineSegment" fill="none" stroke="#000000" stroke-width="3.79" stroke-linejoin="miter" stroke-miterlimit="2" points="1719.02,241.421 1719.02,214.492 1825.82,214.492 1825.82,241.421" />
<polyline class="TextLineSegment" fill="none" stroke="#000000" stroke-width="3.79" stroke-linejoin="miter" stroke-miterlimit="2" points="2153.63,241.421 2153.63,214.492 2260.42,214.492 2260.42,241.421" />
<polyline class="LyricsLineSegment" fill="none" stroke="#000000" stroke-width="2.69" stroke-linejoin="bevel" points="1173.77,1029.39 1189.93,1029.39" />
<polyline class="LyricsLineSegment" fill="none" stroke="#000000" stroke-width="2.69" stroke-linejoin="bevel" points="934.689,1029.39 950.846,1029.39" />
<polyline class="LyricsLineSegment" fill="none" stroke="#000000" stroke-width="2.69" stroke-linejoin="bevel" points="1398.48,1029.39 1414.64,1029.39" />
<polyline class="LyricsLineSegment" fill="none" stroke="#000000" stroke-width="2.69" stroke-linejoin="bevel" points="1285.84,1029.39 1302,1029.39" />
<polyline class="LyricsLineSegment" fill="none" stroke="#000000" stroke-width="2.69" stroke-linejoin="bevel" points="808.829,1029.39 824.987,1029.39" />
<polyline class="LyricsLineSegment" fill="none" stroke="#000000" stroke-width="2.69" stroke-linejoin="bevel" points="2588.47,1029.39 2604.63,1029.39" />
<polyline class="LyricsLineSegment" fill="none" stroke="#000000" stroke-width="2.69" stroke-linejoin="bevel" points="2340.6,1029.39 2356.75,1029.39" />
<polyline class="LyricsLineSegment" fill="none" stroke="#000000" stroke-width="2.69" stroke-linejoin="bevel" points="2227.96,1029.39 2244.11,1029.39" />
<polyline class="LyricsLineSegment" fill="none" stroke="#000000" stroke-width="2.69" stroke-linejoin="bevel" points="2114.06,1029.39 2130.22,1029.39" />
<polyline class="LyricsLineSegment" fill="none" stroke="#000000" stroke-width="2.69" stroke-linejoin="bevel" points="452.932,1029.39 469.09,1029.39" />
<polyline class="LyricsLineSegment" fill="none" stroke="#000000" stroke-width="2.69" stroke-linejoin="bevel" points="1918.74,1029.39 1934.89,1029.39" />
<polyline class="Bracket" fill="none" stroke="#000000" stroke-width="12.12" stroke-linejoin="bevel" points="194.421,268.199 194.421,980.475" />
<path class="Bracket" transform="matrix(1.07717,0,0,1.07717,188.362,274.258)" d="M48.4,-27.7 C48.2,-27.8 47.9,-27.9 47.7,-27.9 C47.3,-27.9 46.8,-27.8 46.6,-27.4 C46.4,-27.1 36.4,-11.7 17.3,-11.7 L1.4,-11.7 C0.6,-11.7 0,-11.2 0,-10.4 L0,0 L12.2,0 C43,0 48.9,-25.7 49,-26 C49,-26.1 49.1,-26.3 49.1,-26.5 C49.1,-27 48.8,-27.4 48.4,-27.7"/>
<path class="Bracket" transform="matrix(1.07717,0,0,1.07717,188.362,974.416)" d="M48.4,27.7 C48.8,27.4 49.1,27 49.1,26.5 C49.1,26.3 49,26.1 49,26 C48.9,25.7 43,0 12.2,0 L0,0 L0,10.4 C0,11.2 0.6,11.7 1.4,11.7 L17.3,11.7 C36.4,11.7 46.4,27.1 46.6,27.4 C46.8,27.8 47.3,27.9 47.7,27.9 C47.9,27.9 48.2,27.8 48.4,27.7"/>
<polyline class="Bracket" fill="none" stroke="#000000" stroke-width="2.96" stroke-linejoin="bevel" points="173.416,287.723 173.416,960.951" />
<polyline class="Bracket" fill="none" stroke="#000000" stroke-width="2.96" stroke-linejoin="bevel" points="171.935,287.723 188.362,287.723" />
<polyline class="Bracket" fill="none" stroke="#000000" stroke-width="2.96" stroke-linejoin="bevel" points="171.935,960.951 188.362,960.951" />
</svg>
