<?xml version="1.0" encoding="UTF-8" standalone="no"?>
<svg width="210.058mm" height="296.926mm" viewBox="0 0 2977.2 4208.4"
 xmlns="http://www.w3.org/2000/svg" xmlns:xlink="http://www.w3.org/1999/xlink" version="1.2" baseProfile="full">
<title>CB047_plut (2)</title>
<desc>Generated by MuseScore Studio 4.6.5</desc>
<polyline class="StaffLines" fill="none" stroke="#000000" stroke-width="2.96" stroke-linejoin="bevel" points="212.598,287.723 2764.6,287.723" />
<polyline class="StaffLines" fill="none" stroke="#000000" stroke-width="2.96" stroke-linejoin="bevel" points="212.598,314.652 2764.6,314.652" />
<polyline class="StaffLines" fill="none" stroke="#000000" stroke-width="2.96" stroke-linejoin="bevel" points="212.598,341.581 2764.6,341.581" />
<polyline class="StaffLines" fill="none" stroke="#000000" stroke-width="2.96" stroke-linejoin="bevel" points="212.598,368.51 2764.6,368.51" />
<polyline class="StaffLines" fill="none" stroke="#000000" stroke-width="2.96" stroke-linejoin="bevel" points="212.598,395.439 2764.6,395.439" />
<polyline class="StaffLines" fill="none" stroke="#000000" stroke-width="2.96" stroke-linejoin="bevel" points="212.598,570.479 2764.6,570.479" />
<polyline class="StaffLines" fill="none" stroke="#000000" stroke-width="2.96" stroke-linejoin="bevel" points="212.598,597.408 2764.6,597.408" />
<polyline class="StaffLines" fill="none" stroke="#000000" stroke-width="2.96" stroke-linejoin="bevel" points="212.598,624.337 2764.6,624.337" />
<polyline class="StaffLines" fill="none" stroke="#000000" stroke-width="2.96" stroke-linejoin="bevel" points="212.598,651.266 2764.6,651.266" />
<polyline class="StaffLines" fill="none" stroke="#000000" stroke-width="2.96" stroke-linejoin="bevel" points="212.598,678.195 2764.6,678.195" />
<polyline class="StaffLines" fill="none" stroke="#000000" stroke-width="2.96" stroke-linejoin="bevel" points="212.598,853.235 2764.6,853.235" />
<polyline class="StaffLines" fill="none" stroke="#000000" stroke-width="2.96" stroke-linejoin="bevel" points="212.598,880.164 2764.6,880.164" />
<polyline class="StaffLines" fill="none" stroke="#000000" stroke-width="2.96" stroke-linejoin="bevel" points="212.598,907.093 2764.6,907.093" />
<polyline class="StaffLines" fill="none" stroke="#000000" stroke-width="2.96" stroke-linejoin="bevel" points="212.598,934.022 2764.6,934.022" />
<polyline class="StaffLines" fill="none" stroke="#000000" stroke-width="2.96" stroke-linejoin="bevel" points="212.598,960.951 2764.6,960.951" />
<polyline class="BarLine" fill="none" stroke="#000000" stroke-width="4.85" stroke-linejoin="bevel" points="1114.82,313.171 1114.82,369.991" />
<polyline class="BarLine" fill="none" stroke="#000000" stroke-width="4.85" stroke-linejoin="bevel" points="1593.36,313.171 1593.36,369.991" />
<polyline class="BarLine" fill="none" stroke="#000000" stroke-width="4.85" stroke-linejoin="bevel" points="2737.4,286.242 2737.4,396.92" />
<polyline class="BarLine" fill="none" stroke="#000000" stroke-width="14.81" stroke-linejoin="bevel" points="2757.2,286.242 2757.2,396.92" />
<polyline class="BarLine" fill="none" stroke="#000000" stroke-width="4.85" stroke-linejoin="bevel" points="215.022,286.242 215.022,570.479" />
<polyline class="BarLine" fill="none" stroke="#000000" stroke-width="4.85" stroke-linejoin="bevel" points="636.282,313.171 636.282,369.991" />
<polyline class="BarLine" fill="none" stroke="#000000" stroke-width="4.85" stroke-linejoin="bevel" points="636.282,595.927 636.282,652.747" />
<polyline class="BarLine" fill="none" stroke="#000000" stroke-width="4.85" stroke-linejoin="bevel" points="215.022,568.998 215.022,853.235" />
<polyline class="BarLine" fill="none" stroke="#000000" stroke-width="4.85" stroke-linejoin="bevel" points="2737.4,568.998 2737.4,679.676" />
<polyline class="BarLine" fill="none" stroke="#000000" stroke-width="14.81" stroke-linejoin="bevel" points="2757.2,568.998 2757.2,679.676" />
<polyline class="BarLine" fill="none" stroke="#000000" stroke-width="4.85" stroke-linejoin="bevel" points="1593.36,595.927 1593.36,652.747" />
<polyline class="BarLine" fill="none" stroke="#000000" stroke-width="4.85" stroke-linejoin="bevel" points="1593.36,878.683 1593.36,935.503" />
<polyline class="BarLine" fill="none" stroke="#000000" stroke-width="4.85" stroke-linejoin="bevel" points="215.022,851.753 215.022,962.432" />
<polyline class="BarLine" fill="none" stroke="#000000" stroke-width="4.85" stroke-linejoin="bevel" points="2737.4,851.753 2737.4,962.432" />
<polyline class="BarLine" fill="none" stroke="#000000" stroke-width="14.81" stroke-linejoin="bevel" points="2757.2,851.753 2757.2,962.432" />
<polyline class="BarLine" fill="none" stroke="#000000" stroke-width="4.85" stroke-linejoin="bevel" points="636.282,878.683 636.282,935.503" />
<path class="Note" transform="matrix(1.07717,0,0,1.07717,2081.41,274.258)" d="M0,4.2 C0,8.5 3.1,13.3 11.2,13.3 C21.6,13.3 32.5,4.8 32.5,-4 C32.5,-9.9 27.5,-13.2 21.3,-13.2 C11.6,-13.2 0,-5 0,4.2"/>
<path class="Note" transform="matrix(1.07717,0,0,1.07717,1010.85,301.187)" d="M0,4.2 C0,8.5 3.1,13.3 11.2,13.3 C21.6,13.3 32.5,4.8 32.5,-4 C32.5,-9.9 27.5,-13.2 21.3,-13.2 C11.6,-13.2 0,-5 0,4.2"/>
<path class="Note" transform="matrix(1.07717,0,0,1.07717,1979.86,301.187)" d="M0,4.2 C0,8.5 3.1,13.3 11.2,13.3 C21.6,13.3 32.5,4.8 32.5,-4 C32.5,-9.9 27.5,-13.2 21.3,-13.2 C11.6,-13.2 0,-5 0,4.2"/>
<path class="Note" transform="matrix(1.07717,0,0,1.07717,1878.32,287.723)" d="M0,4.2 C0,8.5 3.1,13.3 11.2,13.3 C21.6,13.3 32.5,4.8 32.5,-4 C32.5,-9.9 27.5,-13.2 21.3,-13.2 C11.6,-13.2 0,-5 0,4.2"/>
<path class="Note" transform="matrix(1.07717,0,0,1.07717,909.306,287.723)" d="M0,4.2 C0,8.5 3.1,13.3 11.2,13.3 C21.6,13.3 32.5,4.8 32.5,-4 C32.5,-9.9 27.5,-13.2 21.3,-13.2 C11.6,-13.2 0,-5 0,4.2"/>
<path class="Note" transform="matrix(1.07717,0,0,1.07717,841.609,301.187)" d="M0,4.2 C0,8.5 3.1,13.3 11.2,13.3 C21.6,13.3 32.5,4.8 32.5,-4 C32.5,-9.9 27.5,-13.2 21.3,-13.2 C11.6,-13.2 0,-5 0,4.2"/>
<path class="Note" transform="matrix(1.07717,0,0,1.07717,773.913,274.258)" d="M0,4.2 C0,8.5 3.1,13.3 11.2,13.3 C21.6,13.3 32.5,4.8 32.5,-4 C32.5,-9.9 27.5,-13.2 21.3,-13.2 C11.6,-13.2 0,-5 0,4.2"/>
<path class="Note" transform="matrix(1.07717,0,0,1.07717,2182.96,274.258)" d="M0,4.2 C0,8.5 3.1,13.3 11.2,13.3 C21.6,13.3 32.5,4.8 32.5,-4 C32.5,-9.9 27.5,-13.2 21.3,-13.2 C11.6,-13.2 0,-5 0,4.2"/>
<path class="Note" transform="matrix(1.07717,0,0,1.07717,2250.65,301.187)" d="M0,4.2 C0,8.5 3.1,13.3 11.2,13.3 C21.6,13.3 32.5,4.8 32.5,-4 C32.5,-9.9 27.5,-13.2 21.3,-13.2 C11.6,-13.2 0,-5 0,4.2"/>
<path class="Note" transform="matrix(1.07717,0,0,1.07717,2318.35,287.723)" d="M0,4.2 C0,8.5 3.1,13.3 11.2,13.3 C21.6,13.3 32.5,4.8 32.5,-4 C32.5,-9.9 27.5,-13.2 21.3,-13.2 C11.6,-13.2 0,-5 0,4.2"/>
<path class="Note" transform="matrix(1.07717,0,0,1.07717,1150.91,274.258)" d="M0,4.2 C0,8.5 3.1,13.3 11.2,13.3 C21.6,13.3 32.5,4.8 32.5,-4 C32.5,-9.9 27.5,-13.2 21.3,-13.2 C11.6,-13.2 0,-5 0,4.2"/>
<path class="Note" transform="matrix(1.07717,0,0,1.07717,1810.62,301.187)" d="M0,4.2 C0,8.5 3.1,13.3 11.2,13.3 C21.6,13.3 32.5,4.8 32.5,-4 C32.5,-9.9 27.5,-13.2 21.3,-13.2 C11.6,-13.2 0,-5 0,4.2"/>
<path class="Note" transform="matrix(1.07717,0,0,1.07717,1742.93,274.258)" d="M0,4.2 C0,8.5 3.1,13.3 11.2,13.3 C21.6,13.3 32.5,4.8 32.5,-4 C32.5,-9.9 27.5,-13.2 21.3,-13.2 C11.6,-13.2 0,-5 0,4.2"/>
<path class="Note" transform="matrix(1.07717,0,0,1.07717,672.367,274.258)" d="M0,4.2 C0,8.5 3.1,13.3 11.2,13.3 C21.6,13.3 32.5,4.8 32.5,-4 C32.5,-9.9 27.5,-13.2 21.3,-13.2 C11.6,-13.2 0,-5 0,4.2"/>
<path class="Note" transform="matrix(1.07717,0,0,1.07717,1252.45,274.258)" d="M0,4.2 C0,8.5 3.1,13.3 11.2,13.3 C21.6,13.3 32.5,4.8 32.5,-4 C32.5,-9.9 27.5,-13.2 21.3,-13.2 C11.6,-13.2 0,-5 0,4.2"/>
<path class="Note" transform="matrix(1.07717,0,0,1.07717,1629.44,274.258)" d="M0,4.2 C0,8.5 3.1,13.3 11.2,13.3 C21.6,13.3 32.5,4.8 32.5,-4 C32.5,-9.9 27.5,-13.2 21.3,-13.2 C11.6,-13.2 0,-5 0,4.2"/>
<path class="Note" transform="matrix(1.07717,0,0,1.07717,2419.89,314.652)" d="M0,4.2 C0,8.5 3.1,13.3 11.2,13.3 C21.6,13.3 32.5,4.8 32.5,-4 C32.5,-9.9 27.5,-13.2 21.3,-13.2 C11.6,-13.2 0,-5 0,4.2"/>
<path class="Note" transform="matrix(1.07717,0,0,1.07717,532.313,314.652)" d="M0,4.2 C0,8.5 3.1,13.3 11.2,13.3 C21.6,13.3 32.5,4.8 32.5,-4 C32.5,-9.9 27.5,-13.2 21.3,-13.2 C11.6,-13.2 0,-5 0,4.2"/>
<path class="Note" transform="matrix(1.07717,0,0,1.07717,1320.15,301.187)" d="M0,4.2 C0,8.5 3.1,13.3 11.2,13.3 C21.6,13.3 32.5,4.8 32.5,-4 C32.5,-9.9 27.5,-13.2 21.3,-13.2 C11.6,-13.2 0,-5 0,4.2"/>
<path class="Note" transform="matrix(1.07717,0,0,1.07717,1387.84,287.723)" d="M0,4.2 C0,8.5 3.1,13.3 11.2,13.3 C21.6,13.3 32.5,4.8 32.5,-4 C32.5,-9.9 27.5,-13.2 21.3,-13.2 C11.6,-13.2 0,-5 0,4.2"/>
<path class="Note" transform="matrix(1.07717,0,0,1.07717,420.357,328.116)" d="M0,4.2 C0,8.5 3.1,13.3 11.2,13.3 C21.6,13.3 32.5,4.8 32.5,-4 C32.5,-9.9 27.5,-13.2 21.3,-13.2 C11.6,-13.2 0,-5 0,4.2"/>
<path class="Note" transform="matrix(1.07717,0,0,1.07717,2521.48,328.116)" d="M0,4.2 C0,8.5 3.1,13.3 11.2,13.3 C21.6,13.3 32.5,4.8 32.5,-4 C32.5,-9.9 27.5,-13.2 21.3,-13.2 C11.6,-13.2 0,-5 0,4.2"/>
<path class="Note" transform="matrix(1.07717,0,0,1.07717,2633.44,314.652)" d="M0,4.2 C0,8.5 3.1,13.3 11.2,13.3 C21.6,13.3 32.5,4.8 32.5,-4 C32.5,-9.9 27.5,-13.2 21.3,-13.2 C11.6,-13.2 0,-5 0,4.2"/>
<path class="Note" transform="matrix(1.07717,0,0,1.07717,1489.39,301.187)" d="M0,4.2 C0,8.5 3.1,13.3 11.2,13.3 C21.6,13.3 32.5,4.8 32.5,-4 C32.5,-9.9 27.5,-13.2 21.3,-13.2 C11.6,-13.2 0,-5 0,4.2"/>
<path class="Note" transform="matrix(1.07717,0,0,1.07717,1629.44,597.408)" d="M0,4.2 C0,8.5 3.1,13.3 11.2,13.3 C21.6,13.3 32.5,4.8 32.5,-4 C32.5,-9.9 27.5,-13.2 21.3,-13.2 C11.6,-13.2 0,-5 0,4.2"/>
<path class="Note" transform="matrix(1.07717,0,0,1.07717,1979.86,637.802)" d="M0,4.2 C0,8.5 3.1,13.3 11.2,13.3 C21.6,13.3 32.5,4.8 32.5,-4 C32.5,-9.9 27.5,-13.2 21.3,-13.2 C11.6,-13.2 0,-5 0,4.2"/>
<path class="Note" transform="matrix(1.07717,0,0,1.07717,2633.44,651.266)" d="M0,4.2 C0,8.5 3.1,13.3 11.2,13.3 C21.6,13.3 32.5,4.8 32.5,-4 C32.5,-9.9 27.5,-13.2 21.3,-13.2 C11.6,-13.2 0,-5 0,4.2"/>
<path class="Note" transform="matrix(1.07717,0,0,1.07717,1489.39,637.802)" d="M0,4.2 C0,8.5 3.1,13.3 11.2,13.3 C21.6,13.3 32.5,4.8 32.5,-4 C32.5,-9.9 27.5,-13.2 21.3,-13.2 C11.6,-13.2 0,-5 0,4.2"/>
<path class="Note" transform="matrix(1.07717,0,0,1.07717,2521.48,637.802)" d="M0,4.2 C0,8.5 3.1,13.3 11.2,13.3 C21.6,13.3 32.5,4.8 32.5,-4 C32.5,-9.9 27.5,-13.2 21.3,-13.2 C11.6,-13.2 0,-5 0,4.2"/>
<path class="Note" transform="matrix(1.07717,0,0,1.07717,420.357,637.802)" d="M0,4.2 C0,8.5 3.1,13.3 11.2,13.3 C21.6,13.3 32.5,4.8 32.5,-4 C32.5,-9.9 27.5,-13.2 21.3,-13.2 C11.6,-13.2 0,-5 0,4.2"/>
<path class="Note" transform="matrix(1.07717,0,0,1.07717,1387.84,624.337)" d="M0,4.2 C0,8.5 3.1,13.3 11.2,13.3 C21.6,13.3 32.5,4.8 32.5,-4 C32.5,-9.9 27.5,-13.2 21.3,-13.2 C11.6,-13.2 0,-5 0,4.2"/>
<path class="Note" transform="matrix(1.07717,0,0,1.07717,532.313,651.266)" d="M0,4.2 C0,8.5 3.1,13.3 11.2,13.3 C21.6,13.3 32.5,4.8 32.5,-4 C32.5,-9.9 27.5,-13.2 21.3,-13.2 C11.6,-13.2 0,-5 0,4.2"/>
<path class="Note" transform="matrix(1.07717,0,0,1.07717,2419.89,624.337)" d="M0,4.2 C0,8.5 3.1,13.3 11.2,13.3 C21.6,13.3 32.5,4.8 32.5,-4 C32.5,-9.9 27.5,-13.2 21.3,-13.2 C11.6,-13.2 0,-5 0,4.2"/>
<path class="Note" transform="matrix(1.07717,0,0,1.07717,1252.45,610.872)" d="M0,4.2 C0,8.5 3.1,13.3 11.2,13.3 C21.6,13.3 32.5,4.8 32.5,-4 C32.5,-9.9 27.5,-13.2 21.3,-13.2 C11.6,-13.2 0,-5 0,4.2"/>
<path class="Note" transform="matrix(1.07717,0,0,1.07717,2318.35,624.337)" d="M0,4.2 C0,8.5 3.1,13.3 11.2,13.3 C21.6,13.3 32.5,4.8 32.5,-4 C32.5,-9.9 27.5,-13.2 21.3,-13.2 C11.6,-13.2 0,-5 0,4.2"/>
<path class="Note" transform="matrix(1.07717,0,0,1.07717,672.367,624.337)" d="M0,4.2 C0,8.5 3.1,13.3 11.2,13.3 C21.6,13.3 32.5,4.8 32.5,-4 C32.5,-9.9 27.5,-13.2 21.3,-13.2 C11.6,-13.2 0,-5 0,4.2"/>
<path class="Note" transform="matrix(1.07717,0,0,1.07717,2182.96,610.872)" d="M0,4.2 C0,8.5 3.1,13.3 11.2,13.3 C21.6,13.3 32.5,4.8 32.5,-4 C32.5,-9.9 27.5,-13.2 21.3,-13.2 C11.6,-13.2 0,-5 0,4.2"/>
<path class="Note" transform="matrix(1.07717,0,0,1.07717,2081.41,610.872)" d="M0,4.2 C0,8.5 3.1,13.3 11.2,13.3 C21.6,13.3 32.5,4.8 32.5,-4 C32.5,-9.9 27.5,-13.2 21.3,-13.2 C11.6,-13.2 0,-5 0,4.2"/>
<path class="Note" transform="matrix(1.07717,0,0,1.07717,1742.93,597.408)" d="M0,4.2 C0,8.5 3.1,13.3 11.2,13.3 C21.6,13.3 32.5,4.8 32.5,-4 C32.5,-9.9 27.5,-13.2 21.3,-13.2 C11.6,-13.2 0,-5 0,4.2"/>
<path class="Note" transform="matrix(1.07717,0,0,1.07717,773.913,597.408)" d="M0,4.2 C0,8.5 3.1,13.3 11.2,13.3 C21.6,13.3 32.5,4.8 32.5,-4 C32.5,-9.9 27.5,-13.2 21.3,-13.2 C11.6,-13.2 0,-5 0,4.2"/>
<path class="Note" transform="matrix(1.07717,0,0,1.07717,909.306,624.337)" d="M0,4.2 C0,8.5 3.1,13.3 11.2,13.3 C21.6,13.3 32.5,4.8 32.5,-4 C32.5,-9.9 27.5,-13.2 21.3,-13.2 C11.6,-13.2 0,-5 0,4.2"/>
<path class="Note" transform="matrix(1.07717,0,0,1.07717,1150.91,610.872)" d="M0,4.2 C0,8.5 3.1,13.3 11.2,13.3 C21.6,13.3 32.5,4.8 32.5,-4 C32.5,-9.9 27.5,-13.2 21.3,-13.2 C11.6,-13.2 0,-5 0,4.2"/>
<path class="Note" transform="matrix(1.07717,0,0,1.07717,1010.85,637.802)" d="M0,4.2 C0,8.5 3.1,13.3 11.2,13.3 C21.6,13.3 32.5,4.8 32.5,-4 C32.5,-9.9 27.5,-13.2 21.3,-13.2 C11.6,-13.2 0,-5 0,4.2"/>
<path class="Note" transform="matrix(1.07717,0,0,1.07717,1878.32,624.337)" d="M0,4.2 C0,8.5 3.1,13.3 11.2,13.3 C21.6,13.3 32.5,4.8 32.5,-4 C32.5,-9.9 27.5,-13.2 21.3,-13.2 C11.6,-13.2 0,-5 0,4.2"/>
<path class="Note" transform="matrix(1.07717,0,0,1.07717,1489.39,947.487)" d="M0,4.2 C0,8.5 3.1,13.3 11.2,13.3 C21.6,13.3 32.5,4.8 32.5,-4 C32.5,-9.9 27.5,-13.2 21.3,-13.2 C11.6,-13.2 0,-5 0,4.2"/>
<path class="Note" transform="matrix(1.07717,0,0,1.07717,1387.84,934.022)" d="M0,4.2 C0,8.5 3.1,13.3 11.2,13.3 C21.6,13.3 32.5,4.8 32.5,-4 C32.5,-9.9 27.5,-13.2 21.3,-13.2 C11.6,-13.2 0,-5 0,4.2"/>
<path class="Note" transform="matrix(1.07717,0,0,1.07717,1010.85,893.628)" d="M0,4.2 C0,8.5 3.1,13.3 11.2,13.3 C21.6,13.3 32.5,4.8 32.5,-4 C32.5,-9.9 27.5,-13.2 21.3,-13.2 C11.6,-13.2 0,-5 0,4.2"/>
<path class="Note" transform="matrix(1.07717,0,0,1.07717,1878.32,907.093)" d="M0,4.2 C0,8.5 3.1,13.3 11.2,13.3 C21.6,13.3 32.5,4.8 32.5,-4 C32.5,-9.9 27.5,-13.2 21.3,-13.2 C11.6,-13.2 0,-5 0,4.2"/>
<path class="Note" transform="matrix(1.07717,0,0,1.07717,1979.86,893.628)" d="M0,4.2 C0,8.5 3.1,13.3 11.2,13.3 C21.6,13.3 32.5,4.8 32.5,-4 C32.5,-9.9 27.5,-13.2 21.3,-13.2 C11.6,-13.2 0,-5 0,4.2"/>
<path class="Note" transform="matrix(1.07717,0,0,1.07717,2419.89,947.487)" d="M0,4.2 C0,8.5 3.1,13.3 11.2,13.3 C21.6,13.3 32.5,4.8 32.5,-4 C32.5,-9.9 27.5,-13.2 21.3,-13.2 C11.6,-13.2 0,-5 0,4.2"/>
<path class="Note" transform="matrix(1.07717,0,0,1.07717,532.313,934.022)" d="M0,4.2 C0,8.5 3.1,13.3 11.2,13.3 C21.6,13.3 32.5,4.8 32.5,-4 C32.5,-9.9 27.5,-13.2 21.3,-13.2 C11.6,-13.2 0,-5 0,4.2"/>
<path class="Note" transform="matrix(1.07717,0,0,1.07717,2318.35,934.022)" d="M0,4.2 C0,8.5 3.1,13.3 11.2,13.3 C21.6,13.3 32.5,4.8 32.5,-4 C32.5,-9.9 27.5,-13.2 21.3,-13.2 C11.6,-13.2 0,-5 0,4.2"/>
<path class="Note" transform="matrix(1.07717,0,0,1.07717,909.306,907.093)" d="M0,4.2 C0,8.5 3.1,13.3 11.2,13.3 C21.6,13.3 32.5,4.8 32.5,-4 C32.5,-9.9 27.5,-13.2 21.3,-13.2 C11.6,-13.2 0,-5 0,4.2"/>
<path class="Note" transform="matrix(1.07717,0,0,1.07717,2633.44,934.022)" d="M0,4.2 C0,8.5 3.1,13.3 11.2,13.3 C21.6,13.3 32.5,4.8 32.5,-4 C32.5,-9.9 27.5,-13.2 21.3,-13.2 C11.6,-13.2 0,-5 0,4.2"/>
<path class="Note" transform="matrix(1.07717,0,0,1.07717,420.357,947.487)" d="M0,4.2 C0,8.5 3.1,13.3 11.2,13.3 C21.6,13.3 32.5,4.8 32.5,-4 C32.5,-9.9 27.5,-13.2 21.3,-13.2 C11.6,-13.2 0,-5 0,4.2"/>
<path class="Note" transform="matrix(1.07717,0,0,1.07717,773.913,920.557)" d="M0,4.2 C0,8.5 3.1,13.3 11.2,13.3 C21.6,13.3 32.5,4.8 32.5,-4 C32.5,-9.9 27.5,-13.2 21.3,-13.2 C11.6,-13.2 0,-5 0,4.2"/>
<path class="Note" transform="matrix(1.07717,0,0,1.07717,1742.93,920.557)" d="M0,4.2 C0,8.5 3.1,13.3 11.2,13.3 C21.6,13.3 32.5,4.8 32.5,-4 C32.5,-9.9 27.5,-13.2 21.3,-13.2 C11.6,-13.2 0,-5 0,4.2"/>
<path class="Note" transform="matrix(1.07717,0,0,1.07717,1150.91,920.557)" d="M0,4.2 C0,8.5 3.1,13.3 11.2,13.3 C21.6,13.3 32.5,4.8 32.5,-4 C32.5,-9.9 27.5,-13.2 21.3,-13.2 C11.6,-13.2 0,-5 0,4.2"/>
<path class="Note" transform="matrix(1.07717,0,0,1.07717,2081.41,920.557)" d="M0,4.2 C0,8.5 3.1,13.3 11.2,13.3 C21.6,13.3 32.5,4.8 32.5,-4 C32.5,-9.9 27.5,-13.2 21.3,-13.2 C11.6,-13.2 0,-5 0,4.2"/>
<path class="Note" transform="matrix(1.07717,0,0,1.07717,2521.48,947.487)" d="M0,4.2 C0,8.5 3.1,13.3 11.2,13.3 C21.6,13.3 32.5,4.8 32.5,-4 C32.5,-9.9 27.5,-13.2 21.3,-13.2 C11.6,-13.2 0,-5 0,4.2"/>
<path class="Note" transform="matrix(1.07717,0,0,1.07717,1629.44,934.022)" d="M0,4.2 C0,8.5 3.1,13.3 11.2,13.3 C21.6,13.3 32.5,4.8 32.5,-4 C32.5,-9.9 27.5,-13.2 21.3,-13.2 C11.6,-13.2 0,-5 0,4.2"/>
<path class="Note" transform="matrix(1.07717,0,0,1.07717,672.367,934.022)" d="M0,4.2 C0,8.5 3.1,13.3 11.2,13.3 C21.6,13.3 32.5,4.8 32.5,-4 C32.5,-9.9 27.5,-13.2 21.3,-13.2 C11.6,-13.2 0,-5 0,4.2"/>
<path class="Note" transform="matrix(1.07717,0,0,1.07717,2182.96,934.022)" d="M0,4.2 C0,8.5 3.1,13.3 11.2,13.3 C21.6,13.3 32.5,4.8 32.5,-4 C32.5,-9.9 27.5,-13.2 21.3,-13.2 C11.6,-13.2 0,-5 0,4.2"/>
<path class="Note" transform="matrix(1.07717,0,0,1.07717,1252.45,934.022)" d="M0,4.2 C0,8.5 3.1,13.3 11.2,13.3 C21.6,13.3 32.5,4.8 32.5,-4 C32.5,-9.9 27.5,-13.2 21.3,-13.2 C11.6,-13.2 0,-5 0,4.2"/>
<path class="Clef" transform="matrix(1.07717,0,0,1.07717,237.642,368.51)" d="M36.2,21.2 C21.9,21.2 9.7,11.2 9.7,-3.9 C9.7,-16.1 18.3,-27 27.1,-34.7 C28.8,-36.1 30.4,-37.5 31.9,-39 C32.8,-33.6 33.5,-29 34.2,-24.8 C25.1,-22.2 18.9,-12.5 18.9,-3.2 C18.9,3.9 24.4,13.5 32.4,13.5 C33.2,13.5 34.1,13.1 34.1,12.1 C34.1,11.3 33.2,10.7 31.9,9.9 C28,7.6 25.8,4.9 25.8,0.1 C25.8,-6 30.4,-10.9 36.2,-12.3 L42,20.5 C40,20.9 38.2,21.2 36.2,21.2 M33.2,-82.2 C34.2,-86.2 38.7,-96.7 43.9,-96.7 C45.4,-96.7 47.9,-91.9 47.9,-84.9 C47.9,-74.6 40.1,-66.8 33.2,-59.9 C32.6,-63.9 32.1,-67.9 32.1,-72 C32.1,-75.8 32.5,-79.1 33.2,-82.2 M46.2,19.3 C44.1,7.4 41.4,-8.5 40.7,-12.9 C50.8,-12.9 55.1,-5.9 56,-1.1 C56.1,-0.3 56.3,0.8 56.3,2 C56.3,9.2 53.3,16.4 46.2,19.3 M32.3,87.7 C30.1,87.7 28.6,86.3 28.6,84.2 C28.6,82.2 29.5,80.6 31.2,79.6 C31.6,79.8 31.7,79.8 32,80 C33.2,80.6 33.2,80.6 33.4,80.8 C35.3,81.9 36.1,82.9 36.1,84.3 C36.1,86.2 34.5,87.7 32.3,87.7 M36.1,75.7 C34.6,74.9 34.2,74.7 33.9,74.5 L33.7,74.4 C32.2,73.5 31.7,72.8 31.7,71.6 C31.7,69.8 33.1,68.5 35.1,68.5 C37,68.5 38.2,69.7 38.2,71.8 C38.2,73.4 37.6,74.5 36.1,75.7 M64,-0.2 C64,-15.3 53.3,-25.5 38.7,-25.5 C37.7,-31.5 36.8,-37.4 35.9,-43 C46.4,-54.1 53.8,-66.7 53.8,-82.5 C53.8,-91.6 51,-99 49.3,-102.6 C46.9,-107.7 44,-111.2 42.3,-111.2 C41.6,-111.2 38.4,-110 35.2,-106.1 C28.7,-98.5 26.9,-85.8 26.9,-77.4 C26.9,-72 27.4,-67.1 29.1,-55.8 C29,-55.8 23.8,-50.5 21.7,-48.7 C12.6,-40.3 0,-28.1 0,-8.2 C0,10.6 16.3,25.3 34.9,25.3 C37.8,25.3 40.5,25 42.9,24.6 C44.7,34.1 45.9,41.2 45.9,46.5 C45.9,56.9 40.5,62.4 30.4,62.4 C28,62.4 25.9,61.9 25.7,61.8 C25.6,61.8 25.4,61.7 25.4,61.6 C25.4,61.4 25.6,61.3 25.9,61.2 C30.6,60.5 35.3,56.4 35.3,50.1 C35.3,44.7 31.2,39 23.7,39 C16.7,39 12.3,44.7 12.3,51.3 C12.3,57.9 17.3,66.6 30.8,66.6 C43.7,66.6 50,59.3 50,46.5 C50,42.6 49.4,38.1 48.4,32.4 C48.1,30.4 47.6,27.3 46.9,23.5 C56.7,20.2 64,10.1 64,-0.2 M42.3,71.7 C42.3,68 38.9,66.4 35.6,66.4 C31.4,66.4 27.3,69 27.3,73.5 C27.3,75.4 28,76.8 29.4,78.2 C26.8,79.2 24.2,81.2 24.2,84.3 C24.2,87.6 27.2,89.8 31.6,89.8 C37,89.8 40.8,86.8 40.8,82.5 C40.8,80.2 39.8,78.3 38,77 C40.9,75.7 42.3,74.1 42.3,71.7"/>
<path class="Clef" transform="matrix(1.07717,0,0,1.07717,237.642,651.266)" d="M36.2,21.2 C21.9,21.2 9.7,11.2 9.7,-3.9 C9.7,-16.1 18.3,-27 27.1,-34.7 C28.8,-36.1 30.4,-37.5 31.9,-39 C32.8,-33.6 33.5,-29 34.2,-24.8 C25.1,-22.2 18.9,-12.5 18.9,-3.2 C18.9,3.9 24.4,13.5 32.4,13.5 C33.2,13.5 34.1,13.1 34.1,12.1 C34.1,11.3 33.2,10.7 31.9,9.9 C28,7.6 25.8,4.9 25.8,0.1 C25.8,-6 30.4,-10.9 36.2,-12.3 L42,20.5 C40,20.9 38.2,21.2 36.2,21.2 M33.2,-82.2 C34.2,-86.2 38.7,-96.7 43.9,-96.7 C45.4,-96.7 47.9,-91.9 47.9,-84.9 C47.9,-74.6 40.1,-66.8 33.2,-59.9 C32.6,-63.9 32.1,-67.9 32.1,-72 C32.1,-75.8 32.5,-79.1 33.2,-82.2 M46.2,19.3 C44.1,7.4 41.4,-8.5 40.7,-12.9 C50.8,-12.9 55.1,-5.9 56,-1.1 C56.1,-0.3 56.3,0.8 56.3,2 C56.3,9.2 53.3,16.4 46.2,19.3 M32.3,87.7 C30.1,87.7 28.6,86.3 28.6,84.2 C28.6,82.2 29.5,80.6 31.2,79.6 C31.6,79.8 31.7,79.8 32,80 C33.2,80.6 33.2,80.6 33.4,80.8 C35.3,81.9 36.1,82.9 36.1,84.3 C36.1,86.2 34.5,87.7 32.3,87.7 M36.1,75.7 C34.6,74.9 34.2,74.7 33.9,74.5 L33.7,74.4 C32.2,73.5 31.7,72.8 31.7,71.6 C31.7,69.8 33.1,68.5 35.1,68.5 C37,68.5 38.2,69.7 38.2,71.8 C38.2,73.4 37.6,74.5 36.1,75.7 M64,-0.2 C64,-15.3 53.3,-25.5 38.7,-25.5 C37.7,-31.5 36.8,-37.4 35.9,-43 C46.4,-54.1 53.8,-66.7 53.8,-82.5 C53.8,-91.6 51,-99 49.3,-102.6 C46.9,-107.7 44,-111.2 42.3,-111.2 C41.6,-111.2 38.4,-110 35.2,-106.1 C28.7,-98.5 26.9,-85.8 26.9,-77.4 C26.9,-72 27.4,-67.1 29.1,-55.8 C29,-55.8 23.8,-50.5 21.7,-48.7 C12.6,-40.3 0,-28.1 0,-8.2 C0,10.6 16.3,25.3 34.9,25.3 C37.8,25.3 40.5,25 42.9,24.6 C44.7,34.1 45.9,41.2 45.9,46.5 C45.9,56.9 40.5,62.4 30.4,62.4 C28,62.4 25.9,61.9 25.7,61.8 C25.6,61.8 25.4,61.7 25.4,61.6 C25.4,61.4 25.6,61.3 25.9,61.2 C30.6,60.5 35.3,56.4 35.3,50.1 C35.3,44.7 31.2,39 23.7,39 C16.7,39 12.3,44.7 12.3,51.3 C12.3,57.9 17.3,66.6 30.8,66.6 C43.7,66.6 50,59.3 50,46.5 C50,42.6 49.4,38.1 48.4,32.4 C48.1,30.4 47.6,27.3 46.9,23.5 C56.7,20.2 64,10.1 64,-0.2 M42.3,71.7 C42.3,68 38.9,66.4 35.6,66.4 C31.4,66.4 27.3,69 27.3,73.5 C27.3,75.4 28,76.8 29.4,78.2 C26.8,79.2 24.2,81.2 24.2,84.3 C24.2,87.6 27.2,89.8 31.6,89.8 C37,89.8 40.8,86.8 40.8,82.5 C40.8,80.2 39.8,78.3 38,77 C40.9,75.7 42.3,74.1 42.3,71.7"/>
<path class="Clef" transform="matrix(1.07717,0,0,1.07717,237.642,934.022)" d="M36.2,21.2 C21.9,21.2 9.7,11.2 9.7,-3.9 C9.7,-16.1 18.3,-27 27.1,-34.7 C28.8,-36.1 30.4,-37.5 31.9,-39 C32.8,-33.6 33.5,-29 34.2,-24.8 C25.1,-22.2 18.9,-12.5 18.9,-3.2 C18.9,3.9 24.4,13.5 32.4,13.5 C33.2,13.5 34.1,13.1 34.1,12.1 C34.1,11.3 33.2,10.7 31.9,9.9 C28,7.6 25.8,4.9 25.8,0.1 C25.8,-6 30.4,-10.9 36.2,-12.3 L42,20.5 C40,20.9 38.2,21.2 36.2,21.2 M33.2,-82.2 C34.2,-86.2 38.7,-96.7 43.9,-96.7 C45.4,-96.7 47.9,-91.9 47.9,-84.9 C47.9,-74.6 40.1,-66.8 33.2,-59.9 C32.6,-63.9 32.1,-67.9 32.1,-72 C32.1,-75.8 32.5,-79.1 33.2,-82.2 M46.2,19.3 C44.1,7.4 41.4,-8.5 40.7,-12.9 C50.8,-12.9 55.1,-5.9 56,-1.1 C56.1,-0.3 56.3,0.8 56.3,2 C56.3,9.2 53.3,16.4 46.2,19.3 M32.3,87.7 C30.1,87.7 28.6,86.3 28.6,84.2 C28.6,82.2 29.5,80.6 31.2,79.6 C31.6,79.8 31.7,79.8 32,80 C33.2,80.6 33.2,80.6 33.4,80.8 C35.3,81.9 36.1,82.9 36.1,84.3 C36.1,86.2 34.5,87.7 32.3,87.7 M36.1,75.7 C34.6,74.9 34.2,74.7 33.9,74.5 L33.7,74.4 C32.2,73.5 31.7,72.8 31.7,71.6 C31.7,69.8 33.1,68.5 35.1,68.5 C37,68.5 38.2,69.7 38.2,71.8 C38.2,73.4 37.6,74.5 36.1,75.7 M64,-0.2 C64,-15.3 53.3,-25.5 38.7,-25.5 C37.7,-31.5 36.8,-37.4 35.9,-43 C46.4,-54.1 53.8,-66.7 53.8,-82.5 C53.8,-91.6 51,-99 49.3,-102.6 C46.9,-107.7 44,-111.2 42.3,-111.2 C41.6,-111.2 38.4,-110 35.2,-106.1 C28.7,-98.5 26.9,-85.8 26.9,-77.4 C26.9,-72 27.4,-67.1 29.1,-55.8 C29,-55.8 23.8,-50.5 21.7,-48.7 C12.6,-40.3 0,-28.1 0,-8.2 C0,10.6 16.3,25.3 34.9,25.3 C37.8,25.3 40.5,25 42.9,24.6 C44.7,34.1 45.9,41.2 45.9,46.5 C45.9,56.9 40.5,62.4 30.4,62.4 C28,62.4 25.9,61.9 25.7,61.8 C25.6,61.8 25.4,61.7 25.4,61.6 C25.4,61.4 25.6,61.3 25.9,61.2 C30.6,60.5 35.3,56.4 35.3,50.1 C35.3,44.7 31.2,39 23.7,39 C16.7,39 12.3,44.7 12.3,51.3 C12.3,57.9 17.3,66.6 30.8,66.6 C43.7,66.6 50,59.3 50,46.5 C50,42.6 49.4,38.1 48.4,32.4 C48.1,30.4 47.6,27.3 46.9,23.5 C56.7,20.2 64,10.1 64,-0.2 M42.3,71.7 C42.3,68 38.9,66.4 35.6,66.4 C31.4,66.4 27.3,69 27.3,73.5 C27.3,75.4 28,76.8 29.4,78.2 C26.8,79.2 24.2,81.2 24.2,84.3 C24.2,87.6 27.2,89.8 31.6,89.8 C37,89.8 40.8,86.8 40.8,82.5 C40.8,80.2 39.8,78.3 38,77 C40.9,75.7 42.3,74.1 42.3,71.7"/>
<path class="KeySig" transform="matrix(1.07717,0,0,1.07717,326.761,287.723)" d="M7.8,-7.4 L16.7,-9.2 L16.7,7.3 L7.8,9.2 L7.8,-7.4 M23.3,-10.5 C23.9,-10.6 24.4,-11.3 24.4,-11.9 L24.4,-17.8 C24.4,-18.6 23.8,-19.2 23,-19.2 L22.8,-19.2 L19.5,-18.5 L19.5,-33.4 L16.7,-33.4 L16.7,-17.9 L7.8,-16.1 L7.8,-30.2 L5,-30.2 L5,-15.5 L1.1,-14.7 C0.5,-14.6 0,-13.9 0,-13.3 L0,-7.5 C0,-6.7 0.6,-6.1 1.4,-6.1 L1.7,-6.1 L5,-6.8 L5,9.7 L1.1,10.5 C0.5,10.6 0,11.3 0,11.9 L0,17.7 C0,18.5 0.6,19.1 1.4,19.1 L1.7,19.1 L5,18.4 L5,33.3 L7.8,33.3 L7.8,17.8 L16.7,16 L16.7,30.1 L19.5,30.1 L19.5,15.4 L23.3,14.7 C23.9,14.6 24.4,13.9 24.4,13.3 L24.4,7.4 C24.4,6.6 23.8,6 23,6 L22.8,6 L19.5,6.7 L19.5,-9.8 L23.3,-10.5 "/>
<path class="Lyrics" d="M1867.43,1003.13 C1865.7,1003.13 1864.3,1004.53 1864.3,1006.26 C1864.3,1007.99 1865.7,1009.39 1867.38,1009.39 C1869.16,1009.39 1870.56,1007.99 1870.56,1006.26 C1870.56,1004.53 1869.16,1003.13 1867.43,1003.13 M1869.97,1016.57 L1859.82,1017.17 L1859.82,1019.49 L1862.57,1019.49 C1864.62,1019.54 1864.89,1019.87 1864.89,1022.19 L1864.89,1037.63 C1864.84,1038.44 1864.79,1038.77 1864.57,1039.04 C1864.19,1039.52 1863.17,1039.74 1860.84,1039.79 L1860.47,1039.79 L1860.47,1041.74 L1874.45,1041.74 L1874.45,1039.79 L1874.07,1039.79 C1870.46,1039.69 1869.97,1039.42 1869.97,1037.47 L1869.97,1016.57 M1898.09,1042.12 L1907.92,1041.74 L1907.92,1039.42 L1906.57,1039.42 C1903.44,1039.31 1903.17,1038.98 1903.17,1035.47 L1903.17,1016.57 L1893.02,1017.17 L1893.02,1019.49 L1895.77,1019.49 C1897.82,1019.54 1898.09,1019.87 1898.09,1022.19 L1898.09,1028.83 C1898.09,1033.53 1896.96,1039.25 1891.02,1039.25 C1889.35,1039.25 1887.94,1038.66 1887.24,1037.58 C1886.54,1036.55 1886.43,1036.01 1886.43,1033.04 L1886.43,1016.57 L1876.98,1017.17 L1876.98,1019.49 L1879.03,1019.49 C1881.08,1019.54 1881.35,1019.87 1881.35,1022.19 L1881.35,1033.85 C1881.35,1036.61 1881.57,1037.85 1882.38,1039.09 C1883.84,1041.31 1886.43,1042.55 1889.67,1042.55 C1893.23,1042.55 1895.72,1041.09 1898.09,1037.63 L1898.09,1042.12 M1929.89,1015.98 L1928,1015.98 L1926.43,1017.92 C1924.49,1016.41 1922.55,1015.76 1919.85,1015.76 C1915.09,1015.76 1911.96,1018.84 1911.96,1023.59 C1911.96,1028.67 1915.26,1029.97 1919.58,1030.99 L1922.44,1031.64 C1926.7,1032.67 1928.22,1033.75 1928.22,1035.91 C1928.22,1038.44 1926,1040.23 1922.87,1040.23 C1918.28,1040.23 1915.04,1037.31 1913.74,1031.91 L1911.58,1031.91 L1911.58,1042.12 L1913.47,1042.12 L1915.36,1039.9 C1917.58,1041.68 1920.01,1042.55 1922.76,1042.55 C1928.05,1042.55 1931.56,1039.25 1931.56,1034.23 C1931.56,1031.86 1930.81,1030.02 1929.3,1028.78 C1928,1027.64 1926.92,1027.21 1923.63,1026.51 L1920.93,1025.92 C1917.96,1025.27 1917.96,1025.27 1916.98,1024.73 C1915.8,1024.19 1915.09,1023.05 1915.09,1021.87 C1915.09,1019.65 1917.15,1018.14 1920.12,1018.14 C1924.54,1018.14 1926.7,1021.27 1928,1025.05 L1929.89,1025.05 L1929.89,1015.98 "/>
<path class="Lyrics" d="M1983.73,1016.57 L1983.73,1005.88 L1981.51,1005.88 C1980.97,1012.9 1978.6,1016.47 1974.22,1016.79 L1974.22,1018.9 L1978.65,1018.9 L1978.65,1032.67 C1978.65,1036.45 1978.76,1037.8 1979.3,1039.04 C1980.16,1041.31 1982.32,1042.55 1985.46,1042.55 C1990.32,1042.55 1993.45,1038.88 1993.45,1033.15 C1993.45,1032.83 1993.45,1032.45 1993.39,1031.91 L1991.13,1031.91 C1990.96,1036.77 1989.56,1039.25 1986.91,1039.25 C1985.67,1039.25 1984.59,1038.61 1984.21,1037.69 C1983.89,1036.93 1983.73,1035.58 1983.73,1033.64 L1983.73,1018.9 L1991.67,1018.9 L1991.67,1016.57 L1983.73,1016.57 M2019.74,1029.59 C2019.79,1021.49 2015.2,1015.76 2008.61,1015.76 C2001.7,1015.76 1996.52,1021.76 1996.52,1029.86 C1996.52,1037.47 2001.43,1042.55 2008.72,1042.55 C2013.9,1042.55 2017.52,1040.01 2019.74,1034.88 L2017.85,1033.85 C2015.63,1038.01 2013.36,1039.63 2009.75,1039.63 C2006.99,1039.63 2004.99,1038.5 2003.59,1036.07 C2002.62,1034.45 2002.19,1032.56 2002.24,1029.59 L2019.74,1029.59 M2002.29,1027.27 C2002.29,1023.49 2004.02,1018.09 2008.56,1018.09 C2011.8,1018.09 2013.96,1020.95 2013.96,1025.32 C2013.96,1026.83 2013.47,1027.27 2011.74,1027.27 L2002.29,1027.27 "/>
<path class="Lyrics" d="M2408.21,1016.57 L2408.21,1005.88 L2406,1005.88 C2405.46,1012.9 2403.08,1016.47 2398.71,1016.79 L2398.71,1018.9 L2403.13,1018.9 L2403.13,1032.67 C2403.13,1036.45 2403.24,1037.8 2403.78,1039.04 C2404.65,1041.31 2406.81,1042.55 2409.94,1042.55 C2414.8,1042.55 2417.93,1038.88 2417.93,1033.15 C2417.93,1032.83 2417.93,1032.45 2417.88,1031.91 L2415.61,1031.91 C2415.45,1036.77 2414.04,1039.25 2411.4,1039.25 C2410.15,1039.25 2409.07,1038.61 2408.7,1037.69 C2408.37,1036.93 2408.21,1035.58 2408.21,1033.64 L2408.21,1018.9 L2416.15,1018.9 L2416.15,1016.57 L2408.21,1016.57 M2440.93,1042.12 L2450.76,1041.74 L2450.76,1039.42 L2449.41,1039.42 C2446.28,1039.31 2446.01,1038.98 2446.01,1035.47 L2446.01,1016.57 L2435.86,1017.17 L2435.86,1019.49 L2438.61,1019.49 C2440.66,1019.54 2440.93,1019.87 2440.93,1022.19 L2440.93,1028.83 C2440.93,1033.53 2439.8,1039.25 2433.86,1039.25 C2432.19,1039.25 2430.78,1038.66 2430.08,1037.58 C2429.38,1036.55 2429.27,1036.01 2429.27,1033.04 L2429.27,1016.57 L2419.82,1017.17 L2419.82,1019.49 L2421.87,1019.49 C2423.92,1019.54 2424.19,1019.87 2424.19,1022.19 L2424.19,1033.85 C2424.19,1036.61 2424.41,1037.85 2425.22,1039.09 C2426.68,1041.31 2429.27,1042.55 2432.51,1042.55 C2436.07,1042.55 2438.56,1041.09 2440.93,1037.63 L2440.93,1042.12 M2462.36,1016.57 L2452.81,1017.17 L2452.81,1019.49 L2455.02,1019.49 C2457.07,1019.54 2457.34,1019.87 2457.34,1022.19 L2457.34,1037.63 C2457.29,1038.44 2457.23,1038.77 2457.02,1039.04 C2456.64,1039.52 2455.56,1039.74 2453.24,1039.79 L2453.02,1039.79 L2453.02,1041.74 L2467.44,1041.74 L2467.44,1039.79 L2466.47,1039.79 C2462.85,1039.69 2462.36,1039.42 2462.36,1037.47 L2462.36,1034.56 C2462.42,1025.48 2465.66,1018.57 2469.87,1018.36 C2469.11,1019.22 2468.9,1019.76 2468.9,1020.79 C2468.9,1022.51 2470.14,1023.76 2471.87,1023.76 C2473.87,1023.76 2475.16,1022.3 2475.16,1020.14 C2475.16,1017.49 2473.33,1015.76 2470.46,1015.76 C2467.06,1015.76 2464.15,1018.46 2462.36,1023.27 L2462.36,1016.57 "/>
<path class="Lyrics" d="M2328.87,1033.8 C2327.14,1037.69 2325.3,1039.25 2322.5,1039.25 C2318.18,1039.25 2315.48,1035.31 2315.48,1028.99 C2315.48,1022.41 2318.12,1018.09 2322.12,1018.09 C2323.74,1018.09 2325.14,1018.84 2325.14,1019.71 C2325.14,1019.87 2325.09,1020.03 2324.82,1020.35 C2323.95,1021.38 2323.74,1021.92 2323.74,1022.84 C2323.74,1024.62 2325.09,1025.86 2326.98,1025.86 C2328.92,1025.86 2330.27,1024.35 2330.27,1022.19 C2330.27,1018.52 2326.65,1015.76 2321.85,1015.76 C2314.83,1015.76 2309.81,1021.49 2309.81,1029.59 C2309.81,1037.26 2314.4,1042.55 2321.09,1042.55 C2325.9,1042.55 2328.65,1040.33 2330.97,1034.61 L2328.87,1033.8 M2356.39,1024.35 C2356.39,1020.95 2355.8,1019.22 2354.23,1017.92 C2352.45,1016.47 2349.81,1015.76 2346.35,1015.76 C2340.25,1015.76 2335.82,1018.63 2335.82,1022.57 C2335.82,1024.57 2337.06,1025.86 2338.95,1025.86 C2340.68,1025.86 2341.87,1024.73 2341.87,1023.11 C2341.87,1022.41 2341.6,1021.65 2341.06,1020.89 C2340.73,1020.52 2340.68,1020.41 2340.68,1020.14 C2340.68,1019.06 2342.84,1018.09 2345.43,1018.09 C2347.16,1018.09 2349.05,1018.63 2349.91,1019.44 C2350.94,1020.3 2351.32,1021.6 2351.32,1024.03 L2351.32,1026.13 C2345.7,1027.1 2343.92,1027.54 2341.27,1028.56 C2336.58,1030.29 2334.36,1032.77 2334.36,1036.23 C2334.36,1040.12 2337.39,1042.55 2342.19,1042.55 C2345.92,1042.55 2349.27,1041.04 2351.59,1038.28 C2352.45,1041.04 2353.8,1042.12 2356.34,1042.12 C2358.77,1042.12 2361.31,1040.55 2361.31,1038.98 C2361.31,1038.61 2361.09,1038.34 2360.77,1038.34 C2360.55,1038.34 2360.34,1038.39 2359.96,1038.55 C2359.2,1038.88 2358.88,1038.93 2358.45,1038.93 C2356.93,1038.93 2356.39,1037.96 2356.39,1035.2 L2356.39,1024.35 M2351.32,1030.94 C2351.32,1034.18 2351.16,1034.93 2350.24,1036.34 C2348.89,1038.34 2346.46,1039.69 2344.08,1039.69 C2341.6,1039.69 2339.82,1037.9 2339.82,1035.47 C2339.82,1033.21 2340.95,1031.59 2343.33,1030.45 C2345,1029.7 2347.11,1029.16 2351.32,1028.45 L2351.32,1030.94 "/>
<path class="Lyrics" d="M1266,1042.12 L1275.39,1041.74 L1275.39,1039.42 L1274.42,1039.42 C1271.34,1039.25 1271.07,1038.93 1271.07,1035.47 L1271.07,1001.94 L1260.49,1002.53 L1260.49,1004.86 L1263.68,1004.86 C1265.73,1004.91 1266,1005.23 1266,1007.56 L1266,1019.76 C1264,1017.01 1261.68,1015.76 1258.55,1015.76 C1252.44,1015.76 1247.8,1021.65 1247.8,1029.43 C1247.8,1037.09 1252.28,1042.55 1258.55,1042.55 C1261.95,1042.55 1264.27,1041.09 1266,1037.85 L1266,1042.12 M1259.63,1018.68 C1261.84,1018.68 1263.95,1020.3 1264.92,1022.78 C1265.62,1024.4 1265.94,1026.62 1265.94,1029.26 C1265.94,1035.58 1263.46,1039.63 1259.57,1039.63 C1255.74,1039.63 1253.47,1036.07 1253.47,1030.07 C1253.47,1026.83 1253.79,1024.4 1254.5,1022.62 C1255.41,1020.19 1257.41,1018.68 1259.63,1018.68 M1285.05,1003.13 C1283.32,1003.13 1281.92,1004.53 1281.92,1006.26 C1281.92,1007.99 1283.32,1009.39 1284.99,1009.39 C1286.78,1009.39 1288.18,1007.99 1288.18,1006.26 C1288.18,1004.53 1286.78,1003.13 1285.05,1003.13 M1287.59,1016.57 L1277.43,1017.17 L1277.43,1019.49 L1280.19,1019.49 C1282.24,1019.54 1282.51,1019.87 1282.51,1022.19 L1282.51,1037.63 C1282.46,1038.44 1282.4,1038.77 1282.19,1039.04 C1281.81,1039.52 1280.78,1039.74 1278.46,1039.79 L1278.08,1039.79 L1278.08,1041.74 L1292.07,1041.74 L1292.07,1039.79 L1291.69,1039.79 C1288.07,1039.69 1287.59,1039.42 1287.59,1037.47 L1287.59,1016.57 "/>
<path class="Lyrics" d="M391.316,1016.57 L381.704,1017.17 L381.704,1019.49 L383.918,1019.49 C385.97,1019.54 386.24,1019.87 386.24,1022.19 L386.24,1037.63 C386.186,1038.44 386.132,1038.77 385.916,1039.04 C385.538,1039.52 384.512,1039.74 382.19,1039.79 L381.974,1039.79 L381.974,1041.74 L395.582,1041.74 L395.582,1039.79 L395.366,1039.79 C391.802,1039.69 391.316,1039.42 391.316,1037.42 L391.316,1027.43 C391.316,1022.62 393.962,1019.06 397.472,1019.06 C400.55,1019.06 402.116,1021.27 402.116,1025.65 L402.116,1037.69 C402.062,1038.39 402.008,1038.77 401.738,1039.04 C401.414,1039.52 400.334,1039.74 398.012,1039.79 L397.796,1039.79 L397.796,1041.74 L411.458,1041.74 L411.458,1039.79 L411.242,1039.79 C407.678,1039.69 407.192,1039.42 407.192,1037.47 L407.192,1027.91 C407.192,1022.51 409.622,1019.06 413.402,1019.06 C416.48,1019.06 417.992,1021.38 417.992,1026.24 L417.992,1037.63 C417.938,1038.39 417.884,1038.77 417.614,1039.04 C417.29,1039.52 416.21,1039.74 413.888,1039.79 L413.672,1039.79 L413.672,1041.74 L427.334,1041.74 L427.334,1039.79 L427.118,1039.79 C423.554,1039.69 423.068,1039.42 423.068,1037.42 L423.068,1025.16 C423.068,1021.81 422.744,1020.68 421.34,1018.84 C419.774,1016.84 417.56,1015.76 414.968,1015.76 C411.458,1015.76 408.866,1017.44 406.544,1021.16 C405.626,1017.92 402.71,1015.76 399.092,1015.76 C395.798,1015.76 393.422,1017.33 391.316,1020.73 L391.316,1016.57 M450.71,1042.12 L460.538,1041.74 L460.538,1039.42 L459.188,1039.42 C456.056,1039.31 455.786,1038.98 455.786,1035.47 L455.786,1016.57 L445.634,1017.17 L445.634,1019.49 L448.388,1019.49 C450.44,1019.54 450.71,1019.87 450.71,1022.19 L450.71,1028.83 C450.71,1033.53 449.576,1039.25 443.636,1039.25 C441.962,1039.25 440.558,1038.66 439.856,1037.58 C439.154,1036.55 439.046,1036.01 439.046,1033.04 L439.046,1016.57 L429.596,1017.17 L429.596,1019.49 L431.648,1019.49 C433.7,1019.54 433.97,1019.87 433.97,1022.19 L433.97,1033.85 C433.97,1036.61 434.186,1037.85 434.996,1039.09 C436.454,1041.31 439.046,1042.55 442.286,1042.55 C445.85,1042.55 448.334,1041.09 450.71,1037.63 L450.71,1042.12 M472.246,1016.57 L462.904,1017.17 L462.904,1019.49 L464.848,1019.49 C466.9,1019.54 467.17,1019.87 467.17,1022.19 L467.17,1037.63 C467.116,1038.44 467.062,1038.77 466.846,1039.04 C466.468,1039.52 465.442,1039.74 463.12,1039.79 L462.904,1039.79 L462.904,1041.74 L476.566,1041.74 L476.566,1039.79 L476.35,1039.79 C472.732,1039.69 472.246,1039.42 472.246,1037.47 L472.246,1029.48 C472.246,1026.83 472.624,1024.4 473.218,1023.16 C474.352,1020.73 476.782,1019.06 479.104,1019.06 C480.508,1019.06 482.128,1019.81 482.938,1020.95 C483.748,1022.14 484.126,1023.76 484.126,1026.35 L484.126,1037.63 C484.072,1038.44 484.018,1038.77 483.802,1039.04 C483.424,1039.52 482.344,1039.74 480.022,1039.79 L479.806,1039.79 L479.806,1041.74 L493.468,1041.74 L493.468,1039.79 L493.252,1039.79 C489.688,1039.69 489.202,1039.42 489.202,1037.47 L489.202,1026.62 C489.202,1022.73 489.04,1021.76 488.068,1019.92 C486.718,1017.33 484.018,1015.76 480.778,1015.76 C477.268,1015.76 474.622,1017.38 472.246,1020.95 L472.246,1016.57 "/>
<path class="Lyrics" d="M1162.31,1024.35 C1162.31,1020.95 1161.72,1019.22 1160.15,1017.92 C1158.37,1016.47 1155.72,1015.76 1152.27,1015.76 C1146.16,1015.76 1141.74,1018.63 1141.74,1022.57 C1141.74,1024.57 1142.98,1025.86 1144.87,1025.86 C1146.6,1025.86 1147.78,1024.73 1147.78,1023.11 C1147.78,1022.41 1147.51,1021.65 1146.97,1020.89 C1146.65,1020.52 1146.6,1020.41 1146.6,1020.14 C1146.6,1019.06 1148.76,1018.09 1151.35,1018.09 C1153.08,1018.09 1154.97,1018.63 1155.83,1019.44 C1156.86,1020.3 1157.23,1021.6 1157.23,1024.03 L1157.23,1026.13 C1151.62,1027.1 1149.84,1027.54 1147.19,1028.56 C1142.49,1030.29 1140.28,1032.77 1140.28,1036.23 C1140.28,1040.12 1143.3,1042.55 1148.11,1042.55 C1151.83,1042.55 1155.18,1041.04 1157.5,1038.28 C1158.37,1041.04 1159.72,1042.12 1162.26,1042.12 C1164.69,1042.12 1167.22,1040.55 1167.22,1038.98 C1167.22,1038.61 1167.01,1038.34 1166.68,1038.34 C1166.47,1038.34 1166.25,1038.39 1165.87,1038.55 C1165.12,1038.88 1164.79,1038.93 1164.36,1038.93 C1162.85,1038.93 1162.31,1037.96 1162.31,1035.2 L1162.31,1024.35 M1157.23,1030.94 C1157.23,1034.18 1157.07,1034.93 1156.15,1036.34 C1154.8,1038.34 1152.37,1039.69 1150,1039.69 C1147.51,1039.69 1145.73,1037.9 1145.73,1035.47 C1145.73,1033.21 1146.87,1031.59 1149.24,1030.45 C1150.92,1029.7 1153.02,1029.16 1157.23,1028.45 L1157.23,1030.94 M1177.64,1001.94 L1168.35,1002.53 L1168.35,1004.86 L1170.24,1004.86 C1172.29,1004.91 1172.56,1005.23 1172.56,1007.56 L1172.56,1028.56 C1172.56,1036.07 1172.24,1040.17 1171.59,1042.49 L1173.64,1042.49 L1176.29,1038.28 C1178.5,1041.2 1181.04,1042.55 1184.39,1042.55 C1191.08,1042.55 1196,1036.82 1196,1028.99 C1196,1021.22 1191.46,1015.76 1184.98,1015.76 C1181.69,1015.76 1179.69,1016.9 1177.64,1019.98 L1177.64,1001.94 M1184.01,1018.52 C1188.06,1018.52 1190.33,1022.46 1190.33,1029.53 C1190.33,1036.39 1188.11,1040.23 1184.17,1040.23 C1179.9,1040.23 1177.37,1036.28 1177.37,1029.64 C1177.37,1022.41 1179.69,1018.52 1184.01,1018.52"/>
<path class="Lyrics" d="M2196.5,1042.12 L2205.9,1041.74 L2205.9,1039.42 L2204.93,1039.42 C2201.85,1039.25 2201.58,1038.93 2201.58,1035.47 L2201.58,1001.94 L2190.99,1002.53 L2190.99,1004.86 L2194.18,1004.86 C2196.23,1004.91 2196.5,1005.23 2196.5,1007.56 L2196.5,1019.76 C2194.5,1017.01 2192.18,1015.76 2189.05,1015.76 C2182.95,1015.76 2178.3,1021.65 2178.3,1029.43 C2178.3,1037.09 2182.79,1042.55 2189.05,1042.55 C2192.45,1042.55 2194.77,1041.09 2196.5,1037.85 L2196.5,1042.12 M2190.13,1018.68 C2192.34,1018.68 2194.45,1020.3 2195.42,1022.78 C2196.12,1024.4 2196.45,1026.62 2196.45,1029.26 C2196.45,1035.58 2193.96,1039.63 2190.08,1039.63 C2186.24,1039.63 2183.97,1036.07 2183.97,1030.07 C2183.97,1026.83 2184.3,1024.4 2185,1022.62 C2185.92,1020.19 2187.92,1018.68 2190.13,1018.68 M2215.55,1003.13 C2213.82,1003.13 2212.42,1004.53 2212.42,1006.26 C2212.42,1007.99 2213.82,1009.39 2215.5,1009.39 C2217.28,1009.39 2218.68,1007.99 2218.68,1006.26 C2218.68,1004.53 2217.28,1003.13 2215.55,1003.13 M2218.09,1016.57 L2207.94,1017.17 L2207.94,1019.49 L2210.69,1019.49 C2212.74,1019.54 2213.01,1019.87 2213.01,1022.19 L2213.01,1037.63 C2212.96,1038.44 2212.91,1038.77 2212.69,1039.04 C2212.31,1039.52 2211.29,1039.74 2208.96,1039.79 L2208.59,1039.79 L2208.59,1041.74 L2222.57,1041.74 L2222.57,1039.79 L2222.19,1039.79 C2218.58,1039.69 2218.09,1039.42 2218.09,1037.47 L2218.09,1016.57 "/>
<path class="Lyrics" d="M1616.89,1016.57 L1607.54,1017.17 L1607.54,1019.49 L1609.49,1019.49 C1611.54,1019.54 1611.81,1019.87 1611.81,1022.19 L1611.81,1048.6 C1611.76,1049.35 1611.7,1049.68 1611.49,1049.95 C1611.11,1050.43 1610.08,1050.65 1607.76,1050.7 L1607.54,1050.7 L1607.54,1052.65 L1621.58,1052.65 L1621.58,1050.7 L1620.99,1050.7 C1617.37,1050.59 1616.89,1050.32 1616.89,1048.38 L1616.89,1038.17 C1618.67,1041.31 1620.67,1042.55 1624.01,1042.55 C1631.2,1042.55 1634.92,1035.47 1634.92,1029.05 C1634.92,1022.95 1631.2,1015.76 1624.34,1015.76 C1620.99,1015.76 1618.78,1017.17 1616.89,1020.41 L1616.89,1016.57 M1623.37,1018.68 C1627.09,1018.68 1629.25,1022.41 1629.25,1028.72 C1629.25,1035.69 1627.09,1039.63 1623.2,1039.63 C1619.32,1039.63 1616.83,1035.64 1616.83,1029.43 C1616.83,1022.68 1619.26,1018.68 1623.37,1018.68 M1647.71,1016.57 L1638.15,1017.17 L1638.15,1019.49 L1640.37,1019.49 C1642.42,1019.54 1642.69,1019.87 1642.69,1022.19 L1642.69,1037.63 C1642.63,1038.44 1642.58,1038.77 1642.36,1039.04 C1641.99,1039.52 1640.91,1039.74 1638.58,1039.79 L1638.37,1039.79 L1638.37,1041.74 L1652.79,1041.74 L1652.79,1039.79 L1651.81,1039.79 C1648.2,1039.69 1647.71,1039.42 1647.71,1037.47 L1647.71,1034.56 C1647.76,1025.48 1651,1018.57 1655.22,1018.36 C1654.46,1019.22 1654.24,1019.76 1654.24,1020.79 C1654.24,1022.51 1655.49,1023.76 1657.21,1023.76 C1659.21,1023.76 1660.51,1022.3 1660.51,1020.14 C1660.51,1017.49 1658.67,1015.76 1655.81,1015.76 C1652.41,1015.76 1649.49,1018.46 1647.71,1023.27 L1647.71,1016.57 M1674.33,1015.76 C1667.69,1015.76 1662.56,1021.65 1662.56,1029.21 C1662.56,1036.61 1667.74,1042.55 1674.22,1042.55 C1680.7,1042.55 1685.88,1036.61 1685.88,1029.16 C1685.88,1021.76 1680.7,1015.76 1674.33,1015.76 M1674.33,1018.09 C1678.11,1018.09 1680.21,1022.03 1680.21,1029.16 C1680.21,1036.34 1678.11,1040.23 1674.22,1040.23 C1670.33,1040.23 1668.23,1036.34 1668.23,1029.21 C1668.23,1021.87 1670.28,1018.09 1674.33,1018.09"/>
<path class="Lyrics" d="M683.771,1024.35 C683.771,1020.95 683.177,1019.22 681.611,1017.92 C679.829,1016.47 677.183,1015.76 673.727,1015.76 C667.625,1015.76 663.197,1018.63 663.197,1022.57 C663.197,1024.57 664.439,1025.86 666.329,1025.86 C668.057,1025.86 669.245,1024.73 669.245,1023.11 C669.245,1022.41 668.975,1021.65 668.435,1020.89 C668.111,1020.52 668.057,1020.41 668.057,1020.14 C668.057,1019.06 670.217,1018.09 672.809,1018.09 C674.537,1018.09 676.427,1018.63 677.291,1019.44 C678.317,1020.3 678.695,1021.6 678.695,1024.03 L678.695,1026.13 C673.079,1027.1 671.297,1027.54 668.651,1028.56 C663.953,1030.29 661.739,1032.77 661.739,1036.23 C661.739,1040.12 664.763,1042.55 669.569,1042.55 C673.295,1042.55 676.643,1041.04 678.965,1038.28 C679.829,1041.04 681.179,1042.12 683.717,1042.12 C686.147,1042.12 688.685,1040.55 688.685,1038.98 C688.685,1038.61 688.469,1038.34 688.145,1038.34 C687.929,1038.34 687.713,1038.39 687.335,1038.55 C686.579,1038.88 686.255,1038.93 685.823,1038.93 C684.311,1038.93 683.771,1037.96 683.771,1035.2 L683.771,1024.35 M678.695,1030.94 C678.695,1034.18 678.533,1034.93 677.615,1036.34 C676.265,1038.34 673.835,1039.69 671.459,1039.69 C668.975,1039.69 667.193,1037.9 667.193,1035.47 C667.193,1033.21 668.327,1031.59 670.703,1030.45 C672.377,1029.7 674.483,1029.16 678.695,1028.45 L678.695,1030.94 M699.098,1001.94 L689.81,1002.53 L689.81,1004.86 L691.7,1004.86 C693.752,1004.91 694.022,1005.23 694.022,1007.56 L694.022,1028.56 C694.022,1036.07 693.698,1040.17 693.05,1042.49 L695.102,1042.49 L697.748,1038.28 C699.962,1041.2 702.5,1042.55 705.848,1042.55 C712.544,1042.55 717.458,1036.82 717.458,1028.99 C717.458,1021.22 712.922,1015.76 706.442,1015.76 C703.148,1015.76 701.15,1016.9 699.098,1019.98 L699.098,1001.94 M705.47,1018.52 C709.52,1018.52 711.788,1022.46 711.788,1029.53 C711.788,1036.39 709.574,1040.23 705.632,1040.23 C701.366,1040.23 698.828,1036.28 698.828,1029.64 C698.828,1022.41 701.15,1018.52 705.47,1018.52"/>
<path class="Lyrics" d="M1398.36,1033.8 C1396.63,1037.69 1394.8,1039.25 1391.99,1039.25 C1387.67,1039.25 1384.97,1035.31 1384.97,1028.99 C1384.97,1022.41 1387.62,1018.09 1391.61,1018.09 C1393.23,1018.09 1394.64,1018.84 1394.64,1019.71 C1394.64,1019.87 1394.58,1020.03 1394.31,1020.35 C1393.45,1021.38 1393.23,1021.92 1393.23,1022.84 C1393.23,1024.62 1394.58,1025.86 1396.47,1025.86 C1398.42,1025.86 1399.77,1024.35 1399.77,1022.19 C1399.77,1018.52 1396.15,1015.76 1391.34,1015.76 C1384.32,1015.76 1379.3,1021.49 1379.3,1029.59 C1379.3,1037.26 1383.89,1042.55 1390.59,1042.55 C1395.39,1042.55 1398.15,1040.33 1400.47,1034.61 L1398.36,1033.8 M1425.89,1024.35 C1425.89,1020.95 1425.29,1019.22 1423.73,1017.92 C1421.95,1016.47 1419.3,1015.76 1415.84,1015.76 C1409.74,1015.76 1405.31,1018.63 1405.31,1022.57 C1405.31,1024.57 1406.56,1025.86 1408.45,1025.86 C1410.17,1025.86 1411.36,1024.73 1411.36,1023.11 C1411.36,1022.41 1411.09,1021.65 1410.55,1020.89 C1410.23,1020.52 1410.17,1020.41 1410.17,1020.14 C1410.17,1019.06 1412.33,1018.09 1414.93,1018.09 C1416.65,1018.09 1418.54,1018.63 1419.41,1019.44 C1420.43,1020.3 1420.81,1021.6 1420.81,1024.03 L1420.81,1026.13 C1415.2,1027.1 1413.41,1027.54 1410.77,1028.56 C1406.07,1030.29 1403.86,1032.77 1403.86,1036.23 C1403.86,1040.12 1406.88,1042.55 1411.69,1042.55 C1415.41,1042.55 1418.76,1041.04 1421.08,1038.28 C1421.95,1041.04 1423.3,1042.12 1425.83,1042.12 C1428.26,1042.12 1430.8,1040.55 1430.8,1038.98 C1430.8,1038.61 1430.59,1038.34 1430.26,1038.34 C1430.05,1038.34 1429.83,1038.39 1429.45,1038.55 C1428.7,1038.88 1428.37,1038.93 1427.94,1038.93 C1426.43,1038.93 1425.89,1037.96 1425.89,1035.2 L1425.89,1024.35 M1420.81,1030.94 C1420.81,1034.18 1420.65,1034.93 1419.73,1036.34 C1418.38,1038.34 1415.95,1039.69 1413.58,1039.69 C1411.09,1039.69 1409.31,1037.9 1409.31,1035.47 C1409.31,1033.21 1410.44,1031.59 1412.82,1030.45 C1414.49,1029.7 1416.6,1029.16 1420.81,1028.45 L1420.81,1030.94 "/>
<path class="Lyrics" d="M2082.04,1003.13 C2080.31,1003.13 2078.91,1004.53 2078.91,1006.26 C2078.91,1007.99 2080.31,1009.39 2081.98,1009.39 C2083.77,1009.39 2085.17,1007.99 2085.17,1006.26 C2085.17,1004.53 2083.77,1003.13 2082.04,1003.13 M2084.58,1016.57 L2074.42,1017.17 L2074.42,1019.49 L2077.18,1019.49 C2079.23,1019.54 2079.5,1019.87 2079.5,1022.19 L2079.5,1037.63 C2079.45,1038.44 2079.39,1038.77 2079.18,1039.04 C2078.8,1039.52 2077.77,1039.74 2075.45,1039.79 L2075.07,1039.79 L2075.07,1041.74 L2089.06,1041.74 L2089.06,1039.79 L2088.68,1039.79 C2085.06,1039.69 2084.58,1039.42 2084.58,1037.47 L2084.58,1016.57 M2112.7,1042.12 L2122.53,1041.74 L2122.53,1039.42 L2121.18,1039.42 C2118.05,1039.31 2117.78,1038.98 2117.78,1035.47 L2117.78,1016.57 L2107.62,1017.17 L2107.62,1019.49 L2110.38,1019.49 C2112.43,1019.54 2112.7,1019.87 2112.7,1022.19 L2112.7,1028.83 C2112.7,1033.53 2111.57,1039.25 2105.63,1039.25 C2103.95,1039.25 2102.55,1038.66 2101.85,1037.58 C2101.14,1036.55 2101.04,1036.01 2101.04,1033.04 L2101.04,1016.57 L2091.59,1017.17 L2091.59,1019.49 L2093.64,1019.49 C2095.69,1019.54 2095.96,1019.87 2095.96,1022.19 L2095.96,1033.85 C2095.96,1036.61 2096.18,1037.85 2096.99,1039.09 C2098.44,1041.31 2101.04,1042.55 2104.28,1042.55 C2107.84,1042.55 2110.32,1041.09 2112.7,1037.63 L2112.7,1042.12 "/>
<path class="Lyrics" d="M2492.44,1016.57 L2482.83,1017.17 L2482.83,1019.49 L2485.04,1019.49 C2487.09,1019.54 2487.36,1019.87 2487.36,1022.19 L2487.36,1037.63 C2487.31,1038.44 2487.25,1038.77 2487.04,1039.04 C2486.66,1039.52 2485.63,1039.74 2483.31,1039.79 L2483.1,1039.79 L2483.1,1041.74 L2496.7,1041.74 L2496.7,1039.79 L2496.49,1039.79 C2492.92,1039.69 2492.44,1039.42 2492.44,1037.42 L2492.44,1027.43 C2492.44,1022.62 2495.08,1019.06 2498.59,1019.06 C2501.67,1019.06 2503.24,1021.27 2503.24,1025.65 L2503.24,1037.69 C2503.18,1038.39 2503.13,1038.77 2502.86,1039.04 C2502.54,1039.52 2501.46,1039.74 2499.13,1039.79 L2498.92,1039.79 L2498.92,1041.74 L2512.58,1041.74 L2512.58,1039.79 L2512.36,1039.79 C2508.8,1039.69 2508.31,1039.42 2508.31,1037.47 L2508.31,1027.91 C2508.31,1022.51 2510.74,1019.06 2514.52,1019.06 C2517.6,1019.06 2519.11,1021.38 2519.11,1026.24 L2519.11,1037.63 C2519.06,1038.39 2519.01,1038.77 2518.74,1039.04 C2518.41,1039.52 2517.33,1039.74 2515.01,1039.79 L2514.79,1039.79 L2514.79,1041.74 L2528.46,1041.74 L2528.46,1039.79 L2528.24,1039.79 C2524.68,1039.69 2524.19,1039.42 2524.19,1037.42 L2524.19,1025.16 C2524.19,1021.81 2523.87,1020.68 2522.46,1018.84 C2520.9,1016.84 2518.68,1015.76 2516.09,1015.76 C2512.58,1015.76 2509.99,1017.44 2507.67,1021.16 C2506.75,1017.92 2503.83,1015.76 2500.21,1015.76 C2496.92,1015.76 2494.54,1017.33 2492.44,1020.73 L2492.44,1016.57 M2551.83,1042.12 L2561.66,1041.74 L2561.66,1039.42 L2560.31,1039.42 C2557.18,1039.31 2556.91,1038.98 2556.91,1035.47 L2556.91,1016.57 L2546.76,1017.17 L2546.76,1019.49 L2549.51,1019.49 C2551.56,1019.54 2551.83,1019.87 2551.83,1022.19 L2551.83,1028.83 C2551.83,1033.53 2550.7,1039.25 2544.76,1039.25 C2543.08,1039.25 2541.68,1038.66 2540.98,1037.58 C2540.28,1036.55 2540.17,1036.01 2540.17,1033.04 L2540.17,1016.57 L2530.72,1017.17 L2530.72,1019.49 L2532.77,1019.49 C2534.82,1019.54 2535.09,1019.87 2535.09,1022.19 L2535.09,1033.85 C2535.09,1036.61 2535.31,1037.85 2536.12,1039.09 C2537.58,1041.31 2540.17,1042.55 2543.41,1042.55 C2546.97,1042.55 2549.46,1041.09 2551.83,1037.63 L2551.83,1042.12 M2573.37,1016.57 L2564.03,1017.17 L2564.03,1019.49 L2565.97,1019.49 C2568.02,1019.54 2568.29,1019.87 2568.29,1022.19 L2568.29,1037.63 C2568.24,1038.44 2568.18,1038.77 2567.97,1039.04 C2567.59,1039.52 2566.56,1039.74 2564.24,1039.79 L2564.03,1039.79 L2564.03,1041.74 L2577.69,1041.74 L2577.69,1039.79 L2577.47,1039.79 C2573.85,1039.69 2573.37,1039.42 2573.37,1037.47 L2573.37,1029.48 C2573.37,1026.83 2573.75,1024.4 2574.34,1023.16 C2575.47,1020.73 2577.9,1019.06 2580.23,1019.06 C2581.63,1019.06 2583.25,1019.81 2584.06,1020.95 C2584.87,1022.14 2585.25,1023.76 2585.25,1026.35 L2585.25,1037.63 C2585.19,1038.44 2585.14,1038.77 2584.92,1039.04 C2584.55,1039.52 2583.47,1039.74 2581.14,1039.79 L2580.93,1039.79 L2580.93,1041.74 L2594.59,1041.74 L2594.59,1039.79 L2594.37,1039.79 C2590.81,1039.69 2590.32,1039.42 2590.32,1037.47 L2590.32,1026.62 C2590.32,1022.73 2590.16,1021.76 2589.19,1019.92 C2587.84,1017.33 2585.14,1015.76 2581.9,1015.76 C2578.39,1015.76 2575.74,1017.38 2573.37,1020.95 L2573.37,1016.57 "/>
<path class="Lyrics" d="M774.728,1003.13 C773,1003.13 771.596,1004.53 771.596,1006.26 C771.596,1007.99 773,1009.39 774.674,1009.39 C776.456,1009.39 777.86,1007.99 777.86,1006.26 C777.86,1004.53 776.456,1003.13 774.728,1003.13 M777.266,1016.57 L767.114,1017.17 L767.114,1019.49 L769.868,1019.49 C771.92,1019.54 772.19,1019.87 772.19,1022.19 L772.19,1037.63 C772.136,1038.44 772.082,1038.77 771.866,1039.04 C771.488,1039.52 770.462,1039.74 768.14,1039.79 L767.762,1039.79 L767.762,1041.74 L781.748,1041.74 L781.748,1039.79 L781.37,1039.79 C777.752,1039.69 777.266,1039.42 777.266,1037.47 L777.266,1016.57 M793.942,1016.57 L784.6,1017.17 L784.6,1019.49 L786.544,1019.49 C788.596,1019.54 788.866,1019.87 788.866,1022.19 L788.866,1037.63 C788.812,1038.44 788.758,1038.77 788.542,1039.04 C788.164,1039.52 787.138,1039.74 784.816,1039.79 L784.6,1039.79 L784.6,1041.74 L798.262,1041.74 L798.262,1039.79 L798.046,1039.79 C794.428,1039.69 793.942,1039.42 793.942,1037.47 L793.942,1029.48 C793.942,1026.83 794.32,1024.4 794.914,1023.16 C796.048,1020.73 798.478,1019.06 800.8,1019.06 C802.204,1019.06 803.824,1019.81 804.634,1020.95 C805.444,1022.14 805.822,1023.76 805.822,1026.35 L805.822,1037.63 C805.768,1038.44 805.714,1038.77 805.498,1039.04 C805.12,1039.52 804.04,1039.74 801.718,1039.79 L801.502,1039.79 L801.502,1041.74 L815.164,1041.74 L815.164,1039.79 L814.948,1039.79 C811.384,1039.69 810.898,1039.42 810.898,1037.47 L810.898,1026.62 C810.898,1022.73 810.736,1021.76 809.764,1019.92 C808.414,1017.33 805.714,1015.76 802.474,1015.76 C798.964,1015.76 796.318,1017.38 793.942,1020.95 L793.942,1016.57 "/>
<path class="Lyrics" d="M1477.71,1016.57 L1477.71,1005.88 L1475.49,1005.88 C1474.95,1012.9 1472.58,1016.47 1468.2,1016.79 L1468.2,1018.9 L1472.63,1018.9 L1472.63,1032.67 C1472.63,1036.45 1472.74,1037.8 1473.28,1039.04 C1474.14,1041.31 1476.3,1042.55 1479.43,1042.55 C1484.29,1042.55 1487.43,1038.88 1487.43,1033.15 C1487.43,1032.83 1487.43,1032.45 1487.37,1031.91 L1485.1,1031.91 C1484.94,1036.77 1483.54,1039.25 1480.89,1039.25 C1479.65,1039.25 1478.57,1038.61 1478.19,1037.69 C1477.87,1036.93 1477.71,1035.58 1477.71,1033.64 L1477.71,1018.9 L1485.64,1018.9 L1485.64,1016.57 L1477.71,1016.57 M1510.43,1042.12 L1520.26,1041.74 L1520.26,1039.42 L1518.91,1039.42 C1515.78,1039.31 1515.51,1038.98 1515.51,1035.47 L1515.51,1016.57 L1505.35,1017.17 L1505.35,1019.49 L1508.11,1019.49 C1510.16,1019.54 1510.43,1019.87 1510.43,1022.19 L1510.43,1028.83 C1510.43,1033.53 1509.3,1039.25 1503.36,1039.25 C1501.68,1039.25 1500.28,1038.66 1499.58,1037.58 C1498.87,1036.55 1498.77,1036.01 1498.77,1033.04 L1498.77,1016.57 L1489.32,1017.17 L1489.32,1019.49 L1491.37,1019.49 C1493.42,1019.54 1493.69,1019.87 1493.69,1022.19 L1493.69,1033.85 C1493.69,1036.61 1493.91,1037.85 1494.72,1039.09 C1496.17,1041.31 1498.77,1042.55 1502.01,1042.55 C1505.57,1042.55 1508.05,1041.09 1510.43,1037.63 L1510.43,1042.12 M1531.86,1016.57 L1522.3,1017.17 L1522.3,1019.49 L1524.51,1019.49 C1526.57,1019.54 1526.84,1019.87 1526.84,1022.19 L1526.84,1037.63 C1526.78,1038.44 1526.73,1038.77 1526.51,1039.04 C1526.13,1039.52 1525.05,1039.74 1522.73,1039.79 L1522.52,1039.79 L1522.52,1041.74 L1536.93,1041.74 L1536.93,1039.79 L1535.96,1039.79 C1532.34,1039.69 1531.86,1039.42 1531.86,1037.47 L1531.86,1034.56 C1531.91,1025.48 1535.15,1018.57 1539.36,1018.36 C1538.61,1019.22 1538.39,1019.76 1538.39,1020.79 C1538.39,1022.51 1539.63,1023.76 1541.36,1023.76 C1543.36,1023.76 1544.66,1022.3 1544.66,1020.14 C1544.66,1017.49 1542.82,1015.76 1539.96,1015.76 C1536.56,1015.76 1533.64,1018.46 1531.86,1023.27 L1531.86,1016.57 "/>
<path class="Lyrics" d="M1715.39,1016.57 L1712.85,1020.25 C1710.69,1017.22 1708.04,1015.76 1704.64,1015.76 C1698.05,1015.76 1693.08,1021.76 1693.08,1029.75 C1693.08,1037.15 1697.73,1042.55 1704.05,1042.55 C1707.39,1042.55 1709.23,1041.58 1711.39,1038.61 L1711.39,1048.6 C1711.34,1049.35 1711.28,1049.68 1711.07,1049.95 C1710.69,1050.43 1709.66,1050.65 1707.29,1050.7 L1706.69,1050.7 L1706.69,1052.65 L1720.73,1052.65 L1720.73,1050.7 L1720.52,1050.7 C1716.95,1050.59 1716.47,1050.32 1716.47,1048.38 L1716.47,1025.05 C1716.52,1021.97 1716.52,1021.76 1716.52,1021.16 C1716.63,1020.14 1716.79,1019.38 1717.38,1016.57 L1715.39,1016.57 M1705.13,1018.09 C1707.29,1018.09 1709.23,1019.49 1710.26,1021.76 C1711.07,1023.54 1711.39,1025.43 1711.39,1028.56 C1711.39,1035.96 1709.34,1039.63 1705.13,1039.63 C1701.08,1039.63 1698.75,1035.91 1698.75,1029.43 C1698.75,1021.81 1700.86,1018.09 1705.13,1018.09 M1742.7,1042.12 L1752.53,1041.74 L1752.53,1039.42 L1751.18,1039.42 C1748.05,1039.31 1747.78,1038.98 1747.78,1035.47 L1747.78,1016.57 L1737.62,1017.17 L1737.62,1019.49 L1740.38,1019.49 C1742.43,1019.54 1742.7,1019.87 1742.7,1022.19 L1742.7,1028.83 C1742.7,1033.53 1741.57,1039.25 1735.63,1039.25 C1733.95,1039.25 1732.55,1038.66 1731.85,1037.58 C1731.14,1036.55 1731.04,1036.01 1731.04,1033.04 L1731.04,1016.57 L1721.59,1017.17 L1721.59,1019.49 L1723.64,1019.49 C1725.69,1019.54 1725.96,1019.87 1725.96,1022.19 L1725.96,1033.85 C1725.96,1036.61 1726.18,1037.85 1726.99,1039.09 C1728.44,1041.31 1731.04,1042.55 1734.28,1042.55 C1737.84,1042.55 1740.32,1041.09 1742.7,1037.63 L1742.7,1042.12 M1778.55,1029.59 C1778.6,1021.49 1774.01,1015.76 1767.42,1015.76 C1760.51,1015.76 1755.33,1021.76 1755.33,1029.86 C1755.33,1037.47 1760.24,1042.55 1767.53,1042.55 C1772.72,1042.55 1776.33,1040.01 1778.55,1034.88 L1776.66,1033.85 C1774.44,1038.01 1772.18,1039.63 1768.56,1039.63 C1765.8,1039.63 1763.81,1038.5 1762.4,1036.07 C1761.43,1034.45 1761,1032.56 1761.05,1029.59 L1778.55,1029.59 M1761.11,1027.27 C1761.11,1023.49 1762.83,1018.09 1767.37,1018.09 C1770.61,1018.09 1772.77,1020.95 1772.77,1025.32 C1772.77,1026.83 1772.28,1027.27 1770.56,1027.27 L1761.11,1027.27 M1791.29,1016.57 L1781.68,1017.17 L1781.68,1019.49 L1783.89,1019.49 C1785.95,1019.54 1786.22,1019.87 1786.22,1022.19 L1786.22,1037.63 C1786.16,1038.44 1786.11,1038.77 1785.89,1039.04 C1785.51,1039.52 1784.49,1039.74 1782.17,1039.79 L1781.95,1039.79 L1781.95,1041.74 L1795.56,1041.74 L1795.56,1039.79 L1795.34,1039.79 C1791.78,1039.69 1791.29,1039.42 1791.29,1037.42 L1791.29,1027.43 C1791.29,1022.62 1793.94,1019.06 1797.45,1019.06 C1800.53,1019.06 1802.09,1021.27 1802.09,1025.65 L1802.09,1037.69 C1802.04,1038.39 1801.98,1038.77 1801.71,1039.04 C1801.39,1039.52 1800.31,1039.74 1797.99,1039.79 L1797.77,1039.79 L1797.77,1041.74 L1811.43,1041.74 L1811.43,1039.79 L1811.22,1039.79 C1807.65,1039.69 1807.17,1039.42 1807.17,1037.47 L1807.17,1027.91 C1807.17,1022.51 1809.6,1019.06 1813.38,1019.06 C1816.46,1019.06 1817.97,1021.38 1817.97,1026.24 L1817.97,1037.63 C1817.91,1038.39 1817.86,1038.77 1817.59,1039.04 C1817.27,1039.52 1816.19,1039.74 1813.86,1039.79 L1813.65,1039.79 L1813.65,1041.74 L1827.31,1041.74 L1827.31,1039.79 L1827.09,1039.79 C1823.53,1039.69 1823.04,1039.42 1823.04,1037.42 L1823.04,1025.16 C1823.04,1021.81 1822.72,1020.68 1821.32,1018.84 C1819.75,1016.84 1817.54,1015.76 1814.94,1015.76 C1811.43,1015.76 1808.84,1017.44 1806.52,1021.16 C1805.6,1017.92 1802.69,1015.76 1799.07,1015.76 C1795.77,1015.76 1793.4,1017.33 1791.29,1020.73 L1791.29,1016.57 "/>
<path class="Lyrics" d="M2626.81,1042.12 L2636.21,1041.74 L2636.21,1039.42 L2635.23,1039.42 C2632.16,1039.25 2631.89,1038.93 2631.89,1035.47 L2631.89,1001.94 L2621.3,1002.53 L2621.3,1004.86 L2624.49,1004.86 C2626.54,1004.91 2626.81,1005.23 2626.81,1007.56 L2626.81,1019.76 C2624.81,1017.01 2622.49,1015.76 2619.36,1015.76 C2613.26,1015.76 2608.61,1021.65 2608.61,1029.43 C2608.61,1037.09 2613.09,1042.55 2619.36,1042.55 C2622.76,1042.55 2625.08,1041.09 2626.81,1037.85 L2626.81,1042.12 M2620.44,1018.68 C2622.65,1018.68 2624.76,1020.3 2625.73,1022.78 C2626.43,1024.4 2626.76,1026.62 2626.76,1029.26 C2626.76,1035.58 2624.27,1039.63 2620.38,1039.63 C2616.55,1039.63 2614.28,1036.07 2614.28,1030.07 C2614.28,1026.83 2614.61,1024.4 2615.31,1022.62 C2616.23,1020.19 2618.22,1018.68 2620.44,1018.68 M2659.52,1042.12 L2669.35,1041.74 L2669.35,1039.42 L2668,1039.42 C2664.87,1039.31 2664.6,1038.98 2664.6,1035.47 L2664.6,1016.57 L2654.45,1017.17 L2654.45,1019.49 L2657.2,1019.49 C2659.25,1019.54 2659.52,1019.87 2659.52,1022.19 L2659.52,1028.83 C2659.52,1033.53 2658.39,1039.25 2652.45,1039.25 C2650.77,1039.25 2649.37,1038.66 2648.67,1037.58 C2647.97,1036.55 2647.86,1036.01 2647.86,1033.04 L2647.86,1016.57 L2638.41,1017.17 L2638.41,1019.49 L2640.46,1019.49 C2642.51,1019.54 2642.78,1019.87 2642.78,1022.19 L2642.78,1033.85 C2642.78,1036.61 2643,1037.85 2643.81,1039.09 C2645.27,1041.31 2647.86,1042.55 2651.1,1042.55 C2654.66,1042.55 2657.15,1041.09 2659.52,1037.63 L2659.52,1042.12 M2691.32,1015.98 L2689.43,1015.98 L2687.86,1017.92 C2685.92,1016.41 2683.97,1015.76 2681.27,1015.76 C2676.52,1015.76 2673.39,1018.84 2673.39,1023.59 C2673.39,1028.67 2676.68,1029.97 2681,1030.99 L2683.87,1031.64 C2688.13,1032.67 2689.64,1033.75 2689.64,1035.91 C2689.64,1038.44 2687.43,1040.23 2684.3,1040.23 C2679.71,1040.23 2676.47,1037.31 2675.17,1031.91 L2673.01,1031.91 L2673.01,1042.12 L2674.9,1042.12 L2676.79,1039.9 C2679.01,1041.68 2681.44,1042.55 2684.19,1042.55 C2689.48,1042.55 2692.99,1039.25 2692.99,1034.23 C2692.99,1031.86 2692.24,1030.02 2690.72,1028.78 C2689.43,1027.64 2688.35,1027.21 2685.05,1026.51 L2682.35,1025.92 C2679.38,1025.27 2679.38,1025.27 2678.41,1024.73 C2677.22,1024.19 2676.52,1023.05 2676.52,1021.87 C2676.52,1019.65 2678.57,1018.14 2681.54,1018.14 C2685.97,1018.14 2688.13,1021.27 2689.43,1025.05 L2691.32,1025.05 L2691.32,1015.98 "/>
<path class="Lyrics" d="M898.419,1003.13 C896.691,1003.13 895.287,1004.53 895.287,1006.26 C895.287,1007.99 896.691,1009.39 898.365,1009.39 C900.147,1009.39 901.551,1007.99 901.551,1006.26 C901.551,1004.53 900.147,1003.13 898.419,1003.13 M900.957,1016.57 L890.805,1017.17 L890.805,1019.49 L893.559,1019.49 C895.611,1019.54 895.881,1019.87 895.881,1022.19 L895.881,1037.63 C895.827,1038.44 895.773,1038.77 895.557,1039.04 C895.179,1039.52 894.153,1039.74 891.831,1039.79 L891.453,1039.79 L891.453,1041.74 L905.439,1041.74 L905.439,1039.79 L905.061,1039.79 C901.443,1039.69 900.957,1039.42 900.957,1037.47 L900.957,1016.57 M929.081,1042.12 L938.909,1041.74 L938.909,1039.42 L937.559,1039.42 C934.427,1039.31 934.157,1038.98 934.157,1035.47 L934.157,1016.57 L924.005,1017.17 L924.005,1019.49 L926.759,1019.49 C928.811,1019.54 929.081,1019.87 929.081,1022.19 L929.081,1028.83 C929.081,1033.53 927.947,1039.25 922.007,1039.25 C920.333,1039.25 918.929,1038.66 918.227,1037.58 C917.525,1036.55 917.417,1036.01 917.417,1033.04 L917.417,1016.57 L907.967,1017.17 L907.967,1019.49 L910.019,1019.49 C912.071,1019.54 912.341,1019.87 912.341,1022.19 L912.341,1033.85 C912.341,1036.61 912.557,1037.85 913.367,1039.09 C914.825,1041.31 917.417,1042.55 920.657,1042.55 C924.221,1042.55 926.705,1041.09 929.081,1037.63 L929.081,1042.12 M960.877,1015.98 L958.987,1015.98 L957.421,1017.92 C955.477,1016.41 953.533,1015.76 950.833,1015.76 C946.081,1015.76 942.949,1018.84 942.949,1023.59 C942.949,1028.67 946.243,1029.97 950.563,1030.99 L953.425,1031.64 C957.691,1032.67 959.203,1033.75 959.203,1035.91 C959.203,1038.44 956.989,1040.23 953.857,1040.23 C949.267,1040.23 946.027,1037.31 944.731,1031.91 L942.571,1031.91 L942.571,1042.12 L944.461,1042.12 L946.351,1039.9 C948.565,1041.68 950.995,1042.55 953.749,1042.55 C959.041,1042.55 962.551,1039.25 962.551,1034.23 C962.551,1031.86 961.795,1030.02 960.283,1028.78 C958.987,1027.64 957.907,1027.21 954.613,1026.51 L951.913,1025.92 C948.943,1025.27 948.943,1025.27 947.971,1024.73 C946.783,1024.19 946.081,1023.05 946.081,1021.87 C946.081,1019.65 948.133,1018.14 951.103,1018.14 C955.531,1018.14 957.691,1021.27 958.987,1025.05 L960.877,1025.05 L960.877,1015.98 "/>
<path class="Lyrics" d="M1007.85,1016.57 L1007.85,1005.88 L1005.64,1005.88 C1005.1,1012.9 1002.72,1016.47 998.35,1016.79 L998.35,1018.9 L1002.78,1018.9 L1002.78,1032.67 C1002.78,1036.45 1002.89,1037.8 1003.43,1039.04 C1004.29,1041.31 1006.45,1042.55 1009.58,1042.55 C1014.44,1042.55 1017.57,1038.88 1017.57,1033.15 C1017.57,1032.83 1017.57,1032.45 1017.52,1031.91 L1015.25,1031.91 C1015.09,1036.77 1013.69,1039.25 1011.04,1039.25 C1009.8,1039.25 1008.72,1038.61 1008.34,1037.69 C1008.02,1036.93 1007.85,1035.58 1007.85,1033.64 L1007.85,1018.9 L1015.79,1018.9 L1015.79,1016.57 L1007.85,1016.57 M1026.96,1003.13 C1025.24,1003.13 1023.83,1004.53 1023.83,1006.26 C1023.83,1007.99 1025.24,1009.39 1026.91,1009.39 C1028.69,1009.39 1030.1,1007.99 1030.1,1006.26 C1030.1,1004.53 1028.69,1003.13 1026.96,1003.13 M1029.5,1016.57 L1019.35,1017.17 L1019.35,1019.49 L1022.1,1019.49 C1024.16,1019.54 1024.43,1019.87 1024.43,1022.19 L1024.43,1037.63 C1024.37,1038.44 1024.32,1038.77 1024.1,1039.04 C1023.72,1039.52 1022.7,1039.74 1020.38,1039.79 L1020,1039.79 L1020,1041.74 L1033.98,1041.74 L1033.98,1039.79 L1033.61,1039.79 C1029.99,1039.69 1029.5,1039.42 1029.5,1037.47 L1029.5,1016.57 M1056.44,1015.98 L1054.55,1015.98 L1052.98,1017.92 C1051.04,1016.41 1049.09,1015.76 1046.39,1015.76 C1041.64,1015.76 1038.51,1018.84 1038.51,1023.59 C1038.51,1028.67 1041.8,1029.97 1046.12,1030.99 L1048.99,1031.64 C1053.25,1032.67 1054.76,1033.75 1054.76,1035.91 C1054.76,1038.44 1052.55,1040.23 1049.42,1040.23 C1044.83,1040.23 1041.59,1037.31 1040.29,1031.91 L1038.13,1031.91 L1038.13,1042.12 L1040.02,1042.12 L1041.91,1039.9 C1044.13,1041.68 1046.56,1042.55 1049.31,1042.55 C1054.6,1042.55 1058.11,1039.25 1058.11,1034.23 C1058.11,1031.86 1057.36,1030.02 1055.84,1028.78 C1054.55,1027.64 1053.47,1027.21 1050.17,1026.51 L1047.47,1025.92 C1044.5,1025.27 1044.5,1025.27 1043.53,1024.73 C1042.34,1024.19 1041.64,1023.05 1041.64,1021.87 C1041.64,1019.65 1043.69,1018.14 1046.66,1018.14 C1051.09,1018.14 1053.25,1021.27 1054.55,1025.05 L1056.44,1025.05 L1056.44,1015.98 "/>
<path class="Lyrics" d="M525.688,1042.12 L535.084,1041.74 L535.084,1039.42 L534.112,1039.42 C531.034,1039.25 530.764,1038.93 530.764,1035.47 L530.764,1001.94 L520.18,1002.53 L520.18,1004.86 L523.366,1004.86 C525.418,1004.91 525.688,1005.23 525.688,1007.56 L525.688,1019.76 C523.69,1017.01 521.368,1015.76 518.236,1015.76 C512.134,1015.76 507.49,1021.65 507.49,1029.43 C507.49,1037.09 511.972,1042.55 518.236,1042.55 C521.638,1042.55 523.96,1041.09 525.688,1037.85 L525.688,1042.12 M519.316,1018.68 C521.53,1018.68 523.636,1020.3 524.608,1022.78 C525.31,1024.4 525.634,1026.62 525.634,1029.26 C525.634,1035.58 523.15,1039.63 519.262,1039.63 C515.428,1039.63 513.16,1036.07 513.16,1030.07 C513.16,1026.83 513.484,1024.4 514.186,1022.62 C515.104,1020.19 517.102,1018.68 519.316,1018.68 M558.401,1042.12 L568.229,1041.74 L568.229,1039.42 L566.879,1039.42 C563.747,1039.31 563.477,1038.98 563.477,1035.47 L563.477,1016.57 L553.325,1017.17 L553.325,1019.49 L556.079,1019.49 C558.131,1019.54 558.401,1019.87 558.401,1022.19 L558.401,1028.83 C558.401,1033.53 557.267,1039.25 551.327,1039.25 C549.653,1039.25 548.249,1038.66 547.547,1037.58 C546.845,1036.55 546.737,1036.01 546.737,1033.04 L546.737,1016.57 L537.287,1017.17 L537.287,1019.49 L539.339,1019.49 C541.391,1019.54 541.661,1019.87 541.661,1022.19 L541.661,1033.85 C541.661,1036.61 541.877,1037.85 542.687,1039.09 C544.145,1041.31 546.737,1042.55 549.977,1042.55 C553.541,1042.55 556.025,1041.09 558.401,1037.63 L558.401,1042.12 M590.197,1015.98 L588.307,1015.98 L586.741,1017.92 C584.797,1016.41 582.853,1015.76 580.153,1015.76 C575.401,1015.76 572.269,1018.84 572.269,1023.59 C572.269,1028.67 575.563,1029.97 579.883,1030.99 L582.745,1031.64 C587.011,1032.67 588.523,1033.75 588.523,1035.91 C588.523,1038.44 586.309,1040.23 583.177,1040.23 C578.587,1040.23 575.347,1037.31 574.051,1031.91 L571.891,1031.91 L571.891,1042.12 L573.781,1042.12 L575.671,1039.9 C577.885,1041.68 580.315,1042.55 583.069,1042.55 C588.361,1042.55 591.871,1039.25 591.871,1034.23 C591.871,1031.86 591.115,1030.02 589.603,1028.78 C588.307,1027.64 587.227,1027.21 583.933,1026.51 L581.233,1025.92 C578.263,1025.27 578.263,1025.27 577.291,1024.73 C576.103,1024.19 575.401,1023.05 575.401,1021.87 C575.401,1019.65 577.453,1018.14 580.423,1018.14 C584.851,1018.14 587.011,1021.27 588.307,1025.05 L590.197,1025.05 L590.197,1015.98 "/>
<polyline class="TextLineSegment" fill="none" stroke="#000000" stroke-width="3.79" stroke-linejoin="miter" stroke-miterlimit="2" points="773.913,241.421 773.913,214.492 882.377,214.492 882.377,241.421" />
<polyline class="TextLineSegment" fill="none" stroke="#000000" stroke-width="3.79" stroke-linejoin="miter" stroke-miterlimit="2" points="1252.45,241.421 1252.45,214.492 1360.92,214.492 1360.92,241.421" />
<polyline class="TextLineSegment" fill="none" stroke="#000000" stroke-width="3.79" stroke-linejoin="miter" stroke-miterlimit="2" points="1742.93,241.421 1742.93,214.492 1851.39,214.492 1851.39,241.421" />
<polyline class="TextLineSegment" fill="none" stroke="#000000" stroke-width="3.79" stroke-linejoin="miter" stroke-miterlimit="2" points="2182.96,241.421 2182.96,214.492 2291.42,214.492 2291.42,241.421" />
<polyline class="LyricsLineSegment" fill="none" stroke="#000000" stroke-width="2.69" stroke-linejoin="bevel" points="495.363,1029.39 506.134,1029.39" />
<polyline class="LyricsLineSegment" fill="none" stroke="#000000" stroke-width="2.69" stroke-linejoin="bevel" points="1944.93,1029.39 1961.09,1029.39" />
<polyline class="LyricsLineSegment" fill="none" stroke="#000000" stroke-width="2.69" stroke-linejoin="bevel" points="1441.72,1029.39 1457.87,1029.39" />
<polyline class="LyricsLineSegment" fill="none" stroke="#000000" stroke-width="2.69" stroke-linejoin="bevel" points="2258.12,1029.39 2274.28,1029.39" />
<polyline class="LyricsLineSegment" fill="none" stroke="#000000" stroke-width="2.69" stroke-linejoin="bevel" points="1214.08,1029.39 1230.24,1029.39" />
<polyline class="LyricsLineSegment" fill="none" stroke="#000000" stroke-width="2.69" stroke-linejoin="bevel" points="2142.76,1029.39 2158.92,1029.39" />
<polyline class="LyricsLineSegment" fill="none" stroke="#000000" stroke-width="2.69" stroke-linejoin="bevel" points="972.496,1029.39 988.653,1029.39" />
<polyline class="LyricsLineSegment" fill="none" stroke="#000000" stroke-width="2.69" stroke-linejoin="bevel" points="1327.62,1029.39 1343.77,1029.39" />
<polyline class="LyricsLineSegment" fill="none" stroke="#000000" stroke-width="2.69" stroke-linejoin="bevel" points="845.175,1029.39 861.332,1029.39" />
<polyline class="LyricsLineSegment" fill="none" stroke="#000000" stroke-width="2.69" stroke-linejoin="bevel" points="2596.48,1029.39 2607.26,1029.39" />
<polyline class="LyricsLineSegment" fill="none" stroke="#000000" stroke-width="2.69" stroke-linejoin="bevel" points="2372.22,1029.39 2388.38,1029.39" />
<polyline class="Bracket" fill="none" stroke="#000000" stroke-width="12.12" stroke-linejoin="bevel" points="194.421,268.199 194.421,980.475" />
<path class="Bracket" transform="matrix(1.07717,0,0,1.07717,188.362,274.258)" d="M48.4,-27.7 C48.2,-27.8 47.9,-27.9 47.7,-27.9 C47.3,-27.9 46.8,-27.8 46.6,-27.4 C46.4,-27.1 36.4,-11.7 17.3,-11.7 L1.4,-11.7 C0.6,-11.7 0,-11.2 0,-10.4 L0,0 L12.2,0 C43,0 48.9,-25.7 49,-26 C49,-26.1 49.1,-26.3 49.1,-26.5 C49.1,-27 48.8,-27.4 48.4,-27.7"/>
<path class="Bracket" transform="matrix(1.07717,0,0,1.07717,188.362,974.416)" d="M48.4,27.7 C48.8,27.4 49.1,27 49.1,26.5 C49.1,26.3 49,26.1 49,26 C48.9,25.7 43,0 12.2,0 L0,0 L0,10.4 C0,11.2 0.6,11.7 1.4,11.7 L17.3,11.7 C36.4,11.7 46.4,27.1 46.6,27.4 C46.8,27.8 47.3,27.9 47.7,27.9 C47.9,27.9 48.2,27.8 48.4,27.7"/>
<polyline class="Bracket" fill="none" stroke="#000000" stroke-width="2.96" stroke-linejoin="bevel" points="173.416,287.723 173.416,960.951" />
<polyline class="Bracket" fill="none" stroke="#000000" stroke-width="2.96" stroke-linejoin="bevel" points="171.935,287.723 188.362,287.723" />
<polyline class="Bracket" fill="none" stroke="#000000" stroke-width="2.96" stroke-linejoin="bevel" points="171.935,960.951 188.362,960.951" />
</svg>
