<?xml version="1.0" encoding="UTF-8" standalone="no"?>
<svg width="210.058mm" height="296.926mm" viewBox="0 0 2977.2 4208.4"
 xmlns="http://www.w3.org/2000/svg" xmlns:xlink="http://www.w3.org/1999/xlink" version="1.2" baseProfile="full">
<title>CB052_3719_1 (2)</title>
<desc>Generated by MuseScore Studio 4.6.5</desc>
<polyline class="StaffLines" fill="none" stroke="#000000" stroke-width="2.96" stroke-linejoin="bevel" points="212.598,251.359 1028.8,251.359" />
<polyline class="StaffLines" fill="none" stroke="#000000" stroke-width="2.96" stroke-linejoin="bevel" points="212.598,278.289 1028.8,278.289" />
<polyline class="StaffLines" fill="none" stroke="#000000" stroke-width="2.96" stroke-linejoin="bevel" points="212.598,305.218 1028.8,305.218" />
<polyline class="StaffLines" fill="none" stroke="#000000" stroke-width="2.96" stroke-linejoin="bevel" points="212.598,332.147 1028.8,332.147" />
<polyline class="StaffLines" fill="none" stroke="#000000" stroke-width="2.96" stroke-linejoin="bevel" points="212.598,359.076 1028.8,359.076" />
<polyline class="StaffLines" fill="none" stroke="#000000" stroke-width="2.96" stroke-linejoin="bevel" points="212.598,587.974 1028.8,587.974" />
<polyline class="StaffLines" fill="none" stroke="#000000" stroke-width="2.96" stroke-linejoin="bevel" points="212.598,614.903 1028.8,614.903" />
<polyline class="StaffLines" fill="none" stroke="#000000" stroke-width="2.96" stroke-linejoin="bevel" points="212.598,641.832 1028.8,641.832" />
<polyline class="StaffLines" fill="none" stroke="#000000" stroke-width="2.96" stroke-linejoin="bevel" points="212.598,668.761 1028.8,668.761" />
<polyline class="StaffLines" fill="none" stroke="#000000" stroke-width="2.96" stroke-linejoin="bevel" points="212.598,695.69 1028.8,695.69" />
<polyline class="StaffLines" fill="none" stroke="#000000" stroke-width="2.96" stroke-linejoin="bevel" points="212.598,924.588 1123.06,924.588" />
<polyline class="StaffLines" fill="none" stroke="#000000" stroke-width="2.96" stroke-linejoin="bevel" points="212.598,951.517 1123.06,951.517" />
<polyline class="StaffLines" fill="none" stroke="#000000" stroke-width="2.96" stroke-linejoin="bevel" points="212.598,978.446 1123.06,978.446" />
<polyline class="StaffLines" fill="none" stroke="#000000" stroke-width="2.96" stroke-linejoin="bevel" points="212.598,1005.38 1123.06,1005.38" />
<polyline class="StaffLines" fill="none" stroke="#000000" stroke-width="2.96" stroke-linejoin="bevel" points="212.598,1032.3 1123.06,1032.3" />
<polyline class="StaffLines" fill="none" stroke="#000000" stroke-width="2.96" stroke-linejoin="bevel" points="212.598,1261.2 1123.06,1261.2" />
<polyline class="StaffLines" fill="none" stroke="#000000" stroke-width="2.96" stroke-linejoin="bevel" points="212.598,1288.13 1123.06,1288.13" />
<polyline class="StaffLines" fill="none" stroke="#000000" stroke-width="2.96" stroke-linejoin="bevel" points="212.598,1315.06 1123.06,1315.06" />
<polyline class="StaffLines" fill="none" stroke="#000000" stroke-width="2.96" stroke-linejoin="bevel" points="212.598,1341.99 1123.06,1341.99" />
<polyline class="StaffLines" fill="none" stroke="#000000" stroke-width="2.96" stroke-linejoin="bevel" points="212.598,1368.92 1123.06,1368.92" />
<polyline class="StaffLines" fill="none" stroke="#000000" stroke-width="2.96" stroke-linejoin="bevel" points="212.598,1597.82 1152.68,1597.82" />
<polyline class="StaffLines" fill="none" stroke="#000000" stroke-width="2.96" stroke-linejoin="bevel" points="212.598,1624.75 1152.68,1624.75" />
<polyline class="StaffLines" fill="none" stroke="#000000" stroke-width="2.96" stroke-linejoin="bevel" points="212.598,1651.67 1152.68,1651.67" />
<polyline class="StaffLines" fill="none" stroke="#000000" stroke-width="2.96" stroke-linejoin="bevel" points="212.598,1678.6 1152.68,1678.6" />
<polyline class="StaffLines" fill="none" stroke="#000000" stroke-width="2.96" stroke-linejoin="bevel" points="212.598,1705.53 1152.68,1705.53" />
<polyline class="BarLine" fill="none" stroke="#000000" stroke-width="4.85" stroke-linejoin="bevel" points="1125.48,1596.34 1125.48,1707.01" />
<polyline class="BarLine" fill="none" stroke="#000000" stroke-width="14.81" stroke-linejoin="bevel" points="1145.27,1596.34 1145.27,1707.01" />
<polyline class="LedgerLine" fill="none" stroke="#000000" stroke-width="4.31" stroke-linejoin="bevel" points="737.161,1059.23 789.925,1059.23" />
<polyline class="LedgerLine" fill="none" stroke="#000000" stroke-width="4.31" stroke-linejoin="bevel" points="737.161,1395.85 789.925,1395.85" />
<polyline class="LedgerLine" fill="none" stroke="#000000" stroke-width="4.31" stroke-linejoin="bevel" points="831.413,1732.46 884.177,1732.46" />
<path class="Note" transform="matrix(1.07717,0,0,1.07717,557.544,332.147)" d="M0,4.2 C0,8.5 3.1,13.3 11.2,13.3 C21.6,13.3 32.5,4.8 32.5,-4 C32.5,-9.9 27.5,-13.2 21.3,-13.2 C11.6,-13.2 0,-5 0,4.2"/>
<path class="Note" transform="matrix(1.07717,0,0,1.07717,746.048,1719)" d="M0,4.2 C0,8.5 3.1,13.3 11.2,13.3 C21.6,13.3 32.5,4.8 32.5,-4 C32.5,-9.9 27.5,-13.2 21.3,-13.2 C11.6,-13.2 0,-5 0,4.2"/>
<path class="Note" transform="matrix(1.07717,0,0,1.07717,369.04,1705.53)" d="M0,4.2 C0,8.5 3.1,13.3 11.2,13.3 C21.6,13.3 32.5,4.8 32.5,-4 C32.5,-9.9 27.5,-13.2 21.3,-13.2 C11.6,-13.2 0,-5 0,4.2"/>
<path class="Note" transform="matrix(1.07717,0,0,1.07717,463.292,668.761)" d="M0,4.2 C0,8.5 3.1,13.3 11.2,13.3 C21.6,13.3 32.5,4.8 32.5,-4 C32.5,-9.9 27.5,-13.2 21.3,-13.2 C11.6,-13.2 0,-5 0,4.2"/>
<path class="Note" transform="matrix(1.07717,0,0,1.07717,1028.8,1045.77)" d="M0,4.2 C0,8.5 3.1,13.3 11.2,13.3 C21.6,13.3 32.5,4.8 32.5,-4 C32.5,-9.9 27.5,-13.2 21.3,-13.2 C11.6,-13.2 0,-5 0,4.2"/>
<path class="Note" transform="matrix(1.07717,0,0,1.07717,557.544,668.761)" d="M0,4.2 C0,8.5 3.1,13.3 11.2,13.3 C21.6,13.3 32.5,4.8 32.5,-4 C32.5,-9.9 27.5,-13.2 21.3,-13.2 C11.6,-13.2 0,-5 0,4.2"/>
<path class="Note" transform="matrix(1.07717,0,0,1.07717,369.04,1368.92)" d="M0,4.2 C0,8.5 3.1,13.3 11.2,13.3 C21.6,13.3 32.5,4.8 32.5,-4 C32.5,-9.9 27.5,-13.2 21.3,-13.2 C11.6,-13.2 0,-5 0,4.2"/>
<path class="Note" transform="matrix(1.07717,0,0,1.07717,651.796,655.296)" d="M0,4.2 C0,8.5 3.1,13.3 11.2,13.3 C21.6,13.3 32.5,4.8 32.5,-4 C32.5,-9.9 27.5,-13.2 21.3,-13.2 C11.6,-13.2 0,-5 0,4.2"/>
<path class="Note" transform="matrix(1.07717,0,0,1.07717,840.3,359.076)" d="M0,4.2 C0,8.5 3.1,13.3 11.2,13.3 C21.6,13.3 32.5,4.8 32.5,-4 C32.5,-9.9 27.5,-13.2 21.3,-13.2 C11.6,-13.2 0,-5 0,4.2"/>
<path class="Note" transform="matrix(1.07717,0,0,1.07717,840.3,1732.46)" d="M0,4.2 C0,8.5 3.1,13.3 11.2,13.3 C21.6,13.3 32.5,4.8 32.5,-4 C32.5,-9.9 27.5,-13.2 21.3,-13.2 C11.6,-13.2 0,-5 0,4.2"/>
<path class="Note" transform="matrix(1.07717,0,0,1.07717,651.796,318.682)" d="M0,4.2 C0,8.5 3.1,13.3 11.2,13.3 C21.6,13.3 32.5,4.8 32.5,-4 C32.5,-9.9 27.5,-13.2 21.3,-13.2 C11.6,-13.2 0,-5 0,4.2"/>
<path class="Note" transform="matrix(1.07717,0,0,1.07717,934.552,1032.3)" d="M0,4.2 C0,8.5 3.1,13.3 11.2,13.3 C21.6,13.3 32.5,4.8 32.5,-4 C32.5,-9.9 27.5,-13.2 21.3,-13.2 C11.6,-13.2 0,-5 0,4.2"/>
<path class="Note" transform="matrix(1.07717,0,0,1.07717,746.048,682.226)" d="M0,4.2 C0,8.5 3.1,13.3 11.2,13.3 C21.6,13.3 32.5,4.8 32.5,-4 C32.5,-9.9 27.5,-13.2 21.3,-13.2 C11.6,-13.2 0,-5 0,4.2"/>
<path class="Note" transform="matrix(1.07717,0,0,1.07717,934.552,1705.53)" d="M0,4.2 C0,8.5 3.1,13.3 11.2,13.3 C21.6,13.3 32.5,4.8 32.5,-4 C32.5,-9.9 27.5,-13.2 21.3,-13.2 C11.6,-13.2 0,-5 0,4.2"/>
<path class="Note" transform="matrix(1.07717,0,0,1.07717,840.3,695.69)" d="M0,4.2 C0,8.5 3.1,13.3 11.2,13.3 C21.6,13.3 32.5,4.8 32.5,-4 C32.5,-9.9 27.5,-13.2 21.3,-13.2 C11.6,-13.2 0,-5 0,4.2"/>
<path class="Note" transform="matrix(1.07717,0,0,1.07717,1028.8,1382.38)" d="M0,4.2 C0,8.5 3.1,13.3 11.2,13.3 C21.6,13.3 32.5,4.8 32.5,-4 C32.5,-9.9 27.5,-13.2 21.3,-13.2 C11.6,-13.2 0,-5 0,4.2"/>
<path class="Note" transform="matrix(1.07717,0,0,1.07717,934.552,709.155)" d="M0,4.2 C0,8.5 3.1,13.3 11.2,13.3 C21.6,13.3 32.5,4.8 32.5,-4 C32.5,-9.9 27.5,-13.2 21.3,-13.2 C11.6,-13.2 0,-5 0,4.2"/>
<path class="Note" transform="matrix(1.07717,0,0,1.07717,934.552,1368.92)" d="M0,4.2 C0,8.5 3.1,13.3 11.2,13.3 C21.6,13.3 32.5,4.8 32.5,-4 C32.5,-9.9 27.5,-13.2 21.3,-13.2 C11.6,-13.2 0,-5 0,4.2"/>
<path class="Note" transform="matrix(1.07717,0,0,1.07717,463.292,1678.6)" d="M0,4.2 C0,8.5 3.1,13.3 11.2,13.3 C21.6,13.3 32.5,4.8 32.5,-4 C32.5,-9.9 27.5,-13.2 21.3,-13.2 C11.6,-13.2 0,-5 0,4.2"/>
<path class="Note" transform="matrix(1.07717,0,0,1.07717,840.3,1355.45)" d="M0,4.2 C0,8.5 3.1,13.3 11.2,13.3 C21.6,13.3 32.5,4.8 32.5,-4 C32.5,-9.9 27.5,-13.2 21.3,-13.2 C11.6,-13.2 0,-5 0,4.2"/>
<path class="Note" transform="matrix(1.07717,0,0,1.07717,746.048,1395.85)" d="M0,4.2 C0,8.5 3.1,13.3 11.2,13.3 C21.6,13.3 32.5,4.8 32.5,-4 C32.5,-9.9 27.5,-13.2 21.3,-13.2 C11.6,-13.2 0,-5 0,4.2"/>
<path class="Note" transform="matrix(1.07717,0,0,1.07717,557.544,1678.6)" d="M0,4.2 C0,8.5 3.1,13.3 11.2,13.3 C21.6,13.3 32.5,4.8 32.5,-4 C32.5,-9.9 27.5,-13.2 21.3,-13.2 C11.6,-13.2 0,-5 0,4.2"/>
<path class="Note" transform="matrix(1.07717,0,0,1.07717,651.796,1705.53)" d="M0,4.2 C0,8.5 3.1,13.3 11.2,13.3 C21.6,13.3 32.5,4.8 32.5,-4 C32.5,-9.9 27.5,-13.2 21.3,-13.2 C11.6,-13.2 0,-5 0,4.2"/>
<path class="Note" transform="matrix(1.07717,0,0,1.07717,746.048,345.611)" d="M0,4.2 C0,8.5 3.1,13.3 11.2,13.3 C21.6,13.3 32.5,4.8 32.5,-4 C32.5,-9.9 27.5,-13.2 21.3,-13.2 C11.6,-13.2 0,-5 0,4.2"/>
<path class="Note" transform="matrix(1.07717,0,0,1.07717,369.04,695.69)" d="M0,4.2 C0,8.5 3.1,13.3 11.2,13.3 C21.6,13.3 32.5,4.8 32.5,-4 C32.5,-9.9 27.5,-13.2 21.3,-13.2 C11.6,-13.2 0,-5 0,4.2"/>
<path class="Note" transform="matrix(1.07717,0,0,1.07717,840.3,1018.84)" d="M0,4.2 C0,8.5 3.1,13.3 11.2,13.3 C21.6,13.3 32.5,4.8 32.5,-4 C32.5,-9.9 27.5,-13.2 21.3,-13.2 C11.6,-13.2 0,-5 0,4.2"/>
<path class="Note" transform="matrix(1.07717,0,0,1.07717,369.04,1032.3)" d="M0,4.2 C0,8.5 3.1,13.3 11.2,13.3 C21.6,13.3 32.5,4.8 32.5,-4 C32.5,-9.9 27.5,-13.2 21.3,-13.2 C11.6,-13.2 0,-5 0,4.2"/>
<path class="Note" transform="matrix(1.07717,0,0,1.07717,1028.8,1678.6)" d="M0,4.2 C0,8.5 3.1,13.3 11.2,13.3 C21.6,13.3 32.5,4.8 32.5,-4 C32.5,-9.9 27.5,-13.2 21.3,-13.2 C11.6,-13.2 0,-5 0,4.2"/>
<path class="Note" transform="matrix(1.07717,0,0,1.07717,463.292,1005.38)" d="M0,4.2 C0,8.5 3.1,13.3 11.2,13.3 C21.6,13.3 32.5,4.8 32.5,-4 C32.5,-9.9 27.5,-13.2 21.3,-13.2 C11.6,-13.2 0,-5 0,4.2"/>
<path class="Note" transform="matrix(1.07717,0,0,1.07717,463.292,332.147)" d="M0,4.2 C0,8.5 3.1,13.3 11.2,13.3 C21.6,13.3 32.5,4.8 32.5,-4 C32.5,-9.9 27.5,-13.2 21.3,-13.2 C11.6,-13.2 0,-5 0,4.2"/>
<path class="Note" transform="matrix(1.07717,0,0,1.07717,557.544,1005.38)" d="M0,4.2 C0,8.5 3.1,13.3 11.2,13.3 C21.6,13.3 32.5,4.8 32.5,-4 C32.5,-9.9 27.5,-13.2 21.3,-13.2 C11.6,-13.2 0,-5 0,4.2"/>
<path class="Note" transform="matrix(1.07717,0,0,1.07717,651.796,1368.92)" d="M0,4.2 C0,8.5 3.1,13.3 11.2,13.3 C21.6,13.3 32.5,4.8 32.5,-4 C32.5,-9.9 27.5,-13.2 21.3,-13.2 C11.6,-13.2 0,-5 0,4.2"/>
<path class="Note" transform="matrix(1.07717,0,0,1.07717,651.796,1032.3)" d="M0,4.2 C0,8.5 3.1,13.3 11.2,13.3 C21.6,13.3 32.5,4.8 32.5,-4 C32.5,-9.9 27.5,-13.2 21.3,-13.2 C11.6,-13.2 0,-5 0,4.2"/>
<path class="Note" transform="matrix(1.07717,0,0,1.07717,557.544,1341.99)" d="M0,4.2 C0,8.5 3.1,13.3 11.2,13.3 C21.6,13.3 32.5,4.8 32.5,-4 C32.5,-9.9 27.5,-13.2 21.3,-13.2 C11.6,-13.2 0,-5 0,4.2"/>
<path class="Note" transform="matrix(1.07717,0,0,1.07717,369.04,359.076)" d="M0,4.2 C0,8.5 3.1,13.3 11.2,13.3 C21.6,13.3 32.5,4.8 32.5,-4 C32.5,-9.9 27.5,-13.2 21.3,-13.2 C11.6,-13.2 0,-5 0,4.2"/>
<path class="Note" transform="matrix(1.07717,0,0,1.07717,463.292,1341.99)" d="M0,4.2 C0,8.5 3.1,13.3 11.2,13.3 C21.6,13.3 32.5,4.8 32.5,-4 C32.5,-9.9 27.5,-13.2 21.3,-13.2 C11.6,-13.2 0,-5 0,4.2"/>
<path class="Note" transform="matrix(1.07717,0,0,1.07717,934.552,372.541)" d="M0,4.2 C0,8.5 3.1,13.3 11.2,13.3 C21.6,13.3 32.5,4.8 32.5,-4 C32.5,-9.9 27.5,-13.2 21.3,-13.2 C11.6,-13.2 0,-5 0,4.2"/>
<path class="Note" transform="matrix(1.07717,0,0,1.07717,746.048,1059.23)" d="M0,4.2 C0,8.5 3.1,13.3 11.2,13.3 C21.6,13.3 32.5,4.8 32.5,-4 C32.5,-9.9 27.5,-13.2 21.3,-13.2 C11.6,-13.2 0,-5 0,4.2"/>
<path class="Clef" transform="matrix(1.07717,0,0,1.07717,232.795,1005.38)" d="M36.2,21.2 C21.9,21.2 9.7,11.2 9.7,-3.9 C9.7,-16.1 18.3,-27 27.1,-34.7 C28.8,-36.1 30.4,-37.5 31.9,-39 C32.8,-33.6 33.5,-29 34.2,-24.8 C25.1,-22.2 18.9,-12.5 18.9,-3.2 C18.9,3.9 24.4,13.5 32.4,13.5 C33.2,13.5 34.1,13.1 34.1,12.1 C34.1,11.3 33.2,10.7 31.9,9.9 C28,7.6 25.8,4.9 25.8,0.1 C25.8,-6 30.4,-10.9 36.2,-12.3 L42,20.5 C40,20.9 38.2,21.2 36.2,21.2 M33.2,-82.2 C34.2,-86.2 38.7,-96.7 43.9,-96.7 C45.4,-96.7 47.9,-91.9 47.9,-84.9 C47.9,-74.6 40.1,-66.8 33.2,-59.9 C32.6,-63.9 32.1,-67.9 32.1,-72 C32.1,-75.8 32.5,-79.1 33.2,-82.2 M46.2,19.3 C44.1,7.4 41.4,-8.5 40.7,-12.9 C50.8,-12.9 55.1,-5.9 56,-1.1 C56.1,-0.3 56.3,0.8 56.3,2 C56.3,9.2 53.3,16.4 46.2,19.3 M32.3,87.7 C30.1,87.7 28.6,86.3 28.6,84.2 C28.6,82.2 29.5,80.6 31.2,79.6 C31.6,79.8 31.7,79.8 32,80 C33.2,80.6 33.2,80.6 33.4,80.8 C35.3,81.9 36.1,82.9 36.1,84.3 C36.1,86.2 34.5,87.7 32.3,87.7 M36.1,75.7 C34.6,74.9 34.2,74.7 33.9,74.5 L33.7,74.4 C32.2,73.5 31.7,72.8 31.7,71.6 C31.7,69.8 33.1,68.5 35.1,68.5 C37,68.5 38.2,69.7 38.2,71.8 C38.2,73.4 37.6,74.5 36.1,75.7 M64,-0.2 C64,-15.3 53.3,-25.5 38.7,-25.5 C37.7,-31.5 36.8,-37.4 35.9,-43 C46.4,-54.1 53.8,-66.7 53.8,-82.5 C53.8,-91.6 51,-99 49.3,-102.6 C46.9,-107.7 44,-111.2 42.3,-111.2 C41.6,-111.2 38.4,-110 35.2,-106.1 C28.7,-98.5 26.9,-85.8 26.9,-77.4 C26.9,-72 27.4,-67.1 29.1,-55.8 C29,-55.8 23.8,-50.5 21.7,-48.7 C12.6,-40.3 0,-28.1 0,-8.2 C0,10.6 16.3,25.3 34.9,25.3 C37.8,25.3 40.5,25 42.9,24.6 C44.7,34.1 45.9,41.2 45.9,46.5 C45.9,56.9 40.5,62.4 30.4,62.4 C28,62.4 25.9,61.9 25.7,61.8 C25.6,61.8 25.4,61.7 25.4,61.6 C25.4,61.4 25.6,61.3 25.9,61.2 C30.6,60.5 35.3,56.4 35.3,50.1 C35.3,44.7 31.2,39 23.7,39 C16.7,39 12.3,44.7 12.3,51.3 C12.3,57.9 17.3,66.6 30.8,66.6 C43.7,66.6 50,59.3 50,46.5 C50,42.6 49.4,38.1 48.4,32.4 C48.1,30.4 47.6,27.3 46.9,23.5 C56.7,20.2 64,10.1 64,-0.2 M42.3,71.7 C42.3,68 38.9,66.4 35.6,66.4 C31.4,66.4 27.3,69 27.3,73.5 C27.3,75.4 28,76.8 29.4,78.2 C26.8,79.2 24.2,81.2 24.2,84.3 C24.2,87.6 27.2,89.8 31.6,89.8 C37,89.8 40.8,86.8 40.8,82.5 C40.8,80.2 39.8,78.3 38,77 C40.9,75.7 42.3,74.1 42.3,71.7"/>
<path class="Clef" transform="matrix(1.07717,0,0,1.07717,232.795,668.761)" d="M36.2,21.2 C21.9,21.2 9.7,11.2 9.7,-3.9 C9.7,-16.1 18.3,-27 27.1,-34.7 C28.8,-36.1 30.4,-37.5 31.9,-39 C32.8,-33.6 33.5,-29 34.2,-24.8 C25.1,-22.2 18.9,-12.5 18.9,-3.2 C18.9,3.9 24.4,13.5 32.4,13.5 C33.2,13.5 34.1,13.1 34.1,12.1 C34.1,11.3 33.2,10.7 31.9,9.9 C28,7.6 25.8,4.9 25.8,0.1 C25.8,-6 30.4,-10.9 36.2,-12.3 L42,20.5 C40,20.9 38.2,21.2 36.2,21.2 M33.2,-82.2 C34.2,-86.2 38.7,-96.7 43.9,-96.7 C45.4,-96.7 47.9,-91.9 47.9,-84.9 C47.9,-74.6 40.1,-66.8 33.2,-59.9 C32.6,-63.9 32.1,-67.9 32.1,-72 C32.1,-75.8 32.5,-79.1 33.2,-82.2 M46.2,19.3 C44.1,7.4 41.4,-8.5 40.7,-12.9 C50.8,-12.9 55.1,-5.9 56,-1.1 C56.1,-0.3 56.3,0.8 56.3,2 C56.3,9.2 53.3,16.4 46.2,19.3 M32.3,87.7 C30.1,87.7 28.6,86.3 28.6,84.2 C28.6,82.2 29.5,80.6 31.2,79.6 C31.6,79.8 31.7,79.8 32,80 C33.2,80.6 33.2,80.6 33.4,80.8 C35.3,81.9 36.1,82.9 36.1,84.3 C36.1,86.2 34.5,87.7 32.3,87.7 M36.1,75.7 C34.6,74.9 34.2,74.7 33.9,74.5 L33.7,74.4 C32.2,73.5 31.7,72.8 31.7,71.6 C31.7,69.8 33.1,68.5 35.1,68.5 C37,68.5 38.2,69.7 38.2,71.8 C38.2,73.4 37.6,74.5 36.1,75.7 M64,-0.2 C64,-15.3 53.3,-25.5 38.7,-25.5 C37.7,-31.5 36.8,-37.4 35.9,-43 C46.4,-54.1 53.8,-66.7 53.8,-82.5 C53.8,-91.6 51,-99 49.3,-102.6 C46.9,-107.7 44,-111.2 42.3,-111.2 C41.6,-111.2 38.4,-110 35.2,-106.1 C28.7,-98.5 26.9,-85.8 26.9,-77.4 C26.9,-72 27.4,-67.1 29.1,-55.8 C29,-55.8 23.8,-50.5 21.7,-48.7 C12.6,-40.3 0,-28.1 0,-8.2 C0,10.6 16.3,25.3 34.9,25.3 C37.8,25.3 40.5,25 42.9,24.6 C44.7,34.1 45.9,41.2 45.9,46.5 C45.9,56.9 40.5,62.4 30.4,62.4 C28,62.4 25.9,61.9 25.7,61.8 C25.6,61.8 25.4,61.7 25.4,61.6 C25.4,61.4 25.6,61.3 25.9,61.2 C30.6,60.5 35.3,56.4 35.3,50.1 C35.3,44.7 31.2,39 23.7,39 C16.7,39 12.3,44.7 12.3,51.3 C12.3,57.9 17.3,66.6 30.8,66.6 C43.7,66.6 50,59.3 50,46.5 C50,42.6 49.4,38.1 48.4,32.4 C48.1,30.4 47.6,27.3 46.9,23.5 C56.7,20.2 64,10.1 64,-0.2 M42.3,71.7 C42.3,68 38.9,66.4 35.6,66.4 C31.4,66.4 27.3,69 27.3,73.5 C27.3,75.4 28,76.8 29.4,78.2 C26.8,79.2 24.2,81.2 24.2,84.3 C24.2,87.6 27.2,89.8 31.6,89.8 C37,89.8 40.8,86.8 40.8,82.5 C40.8,80.2 39.8,78.3 38,77 C40.9,75.7 42.3,74.1 42.3,71.7"/>
<path class="Clef" transform="matrix(1.07717,0,0,1.07717,232.795,1678.6)" d="M36.2,21.2 C21.9,21.2 9.7,11.2 9.7,-3.9 C9.7,-16.1 18.3,-27 27.1,-34.7 C28.8,-36.1 30.4,-37.5 31.9,-39 C32.8,-33.6 33.5,-29 34.2,-24.8 C25.1,-22.2 18.9,-12.5 18.9,-3.2 C18.9,3.9 24.4,13.5 32.4,13.5 C33.2,13.5 34.1,13.1 34.1,12.1 C34.1,11.3 33.2,10.7 31.9,9.9 C28,7.6 25.8,4.9 25.8,0.1 C25.8,-6 30.4,-10.9 36.2,-12.3 L42,20.5 C40,20.9 38.2,21.2 36.2,21.2 M33.2,-82.2 C34.2,-86.2 38.7,-96.7 43.9,-96.7 C45.4,-96.7 47.9,-91.9 47.9,-84.9 C47.9,-74.6 40.1,-66.8 33.2,-59.9 C32.6,-63.9 32.1,-67.9 32.1,-72 C32.1,-75.8 32.5,-79.1 33.2,-82.2 M46.2,19.3 C44.1,7.4 41.4,-8.5 40.7,-12.9 C50.8,-12.9 55.1,-5.9 56,-1.1 C56.1,-0.3 56.3,0.8 56.3,2 C56.3,9.2 53.3,16.4 46.2,19.3 M32.3,87.7 C30.1,87.7 28.6,86.3 28.6,84.2 C28.6,82.2 29.5,80.6 31.2,79.6 C31.6,79.8 31.7,79.8 32,80 C33.2,80.6 33.2,80.6 33.4,80.8 C35.3,81.9 36.1,82.9 36.1,84.3 C36.1,86.2 34.5,87.7 32.3,87.7 M36.1,75.7 C34.6,74.9 34.2,74.7 33.9,74.5 L33.7,74.4 C32.2,73.5 31.7,72.8 31.7,71.6 C31.7,69.8 33.1,68.5 35.1,68.5 C37,68.5 38.2,69.7 38.2,71.8 C38.2,73.4 37.6,74.5 36.1,75.7 M64,-0.2 C64,-15.3 53.3,-25.5 38.7,-25.5 C37.7,-31.5 36.8,-37.4 35.9,-43 C46.4,-54.1 53.8,-66.7 53.8,-82.5 C53.8,-91.6 51,-99 49.3,-102.6 C46.9,-107.7 44,-111.2 42.3,-111.2 C41.6,-111.2 38.4,-110 35.2,-106.1 C28.7,-98.5 26.9,-85.8 26.9,-77.4 C26.9,-72 27.4,-67.1 29.1,-55.8 C29,-55.8 23.8,-50.5 21.7,-48.7 C12.6,-40.3 0,-28.1 0,-8.2 C0,10.6 16.3,25.3 34.9,25.3 C37.8,25.3 40.5,25 42.9,24.6 C44.7,34.1 45.9,41.2 45.9,46.5 C45.9,56.9 40.5,62.4 30.4,62.4 C28,62.4 25.9,61.9 25.7,61.8 C25.6,61.8 25.4,61.7 25.4,61.6 C25.4,61.4 25.6,61.3 25.9,61.2 C30.6,60.5 35.3,56.4 35.3,50.1 C35.3,44.7 31.2,39 23.7,39 C16.7,39 12.3,44.7 12.3,51.3 C12.3,57.9 17.3,66.6 30.8,66.6 C43.7,66.6 50,59.3 50,46.5 C50,42.6 49.4,38.1 48.4,32.4 C48.1,30.4 47.6,27.3 46.9,23.5 C56.7,20.2 64,10.1 64,-0.2 M42.3,71.7 C42.3,68 38.9,66.4 35.6,66.4 C31.4,66.4 27.3,69 27.3,73.5 C27.3,75.4 28,76.8 29.4,78.2 C26.8,79.2 24.2,81.2 24.2,84.3 C24.2,87.6 27.2,89.8 31.6,89.8 C37,89.8 40.8,86.8 40.8,82.5 C40.8,80.2 39.8,78.3 38,77 C40.9,75.7 42.3,74.1 42.3,71.7"/>
<path class="Clef" transform="matrix(1.07717,0,0,1.07717,232.795,332.147)" d="M36.2,21.2 C21.9,21.2 9.7,11.2 9.7,-3.9 C9.7,-16.1 18.3,-27 27.1,-34.7 C28.8,-36.1 30.4,-37.5 31.9,-39 C32.8,-33.6 33.5,-29 34.2,-24.8 C25.1,-22.2 18.9,-12.5 18.9,-3.2 C18.9,3.9 24.4,13.5 32.4,13.5 C33.2,13.5 34.1,13.1 34.1,12.1 C34.1,11.3 33.2,10.7 31.9,9.9 C28,7.6 25.8,4.9 25.8,0.1 C25.8,-6 30.4,-10.9 36.2,-12.3 L42,20.5 C40,20.9 38.2,21.2 36.2,21.2 M33.2,-82.2 C34.2,-86.2 38.7,-96.7 43.9,-96.7 C45.4,-96.7 47.9,-91.9 47.9,-84.9 C47.9,-74.6 40.1,-66.8 33.2,-59.9 C32.6,-63.9 32.1,-67.9 32.1,-72 C32.1,-75.8 32.5,-79.1 33.2,-82.2 M46.2,19.3 C44.1,7.4 41.4,-8.5 40.7,-12.9 C50.8,-12.9 55.1,-5.9 56,-1.1 C56.1,-0.3 56.3,0.8 56.3,2 C56.3,9.2 53.3,16.4 46.2,19.3 M32.3,87.7 C30.1,87.7 28.6,86.3 28.6,84.2 C28.6,82.2 29.5,80.6 31.2,79.6 C31.6,79.8 31.7,79.8 32,80 C33.2,80.6 33.2,80.6 33.4,80.8 C35.3,81.9 36.1,82.9 36.1,84.3 C36.1,86.2 34.5,87.7 32.3,87.7 M36.1,75.7 C34.6,74.9 34.2,74.7 33.9,74.5 L33.7,74.4 C32.2,73.5 31.7,72.8 31.7,71.6 C31.7,69.8 33.1,68.5 35.1,68.5 C37,68.5 38.2,69.7 38.2,71.8 C38.2,73.4 37.6,74.5 36.1,75.7 M64,-0.2 C64,-15.3 53.3,-25.5 38.7,-25.5 C37.7,-31.5 36.8,-37.4 35.9,-43 C46.4,-54.1 53.8,-66.7 53.8,-82.5 C53.8,-91.6 51,-99 49.3,-102.6 C46.9,-107.7 44,-111.2 42.3,-111.2 C41.6,-111.2 38.4,-110 35.2,-106.1 C28.7,-98.5 26.9,-85.8 26.9,-77.4 C26.9,-72 27.4,-67.1 29.1,-55.8 C29,-55.8 23.8,-50.5 21.7,-48.7 C12.6,-40.3 0,-28.1 0,-8.2 C0,10.6 16.3,25.3 34.9,25.3 C37.8,25.3 40.5,25 42.9,24.6 C44.7,34.1 45.9,41.2 45.9,46.5 C45.9,56.9 40.5,62.4 30.4,62.4 C28,62.4 25.9,61.9 25.7,61.8 C25.6,61.8 25.4,61.7 25.4,61.6 C25.4,61.4 25.6,61.3 25.9,61.2 C30.6,60.5 35.3,56.4 35.3,50.1 C35.3,44.7 31.2,39 23.7,39 C16.7,39 12.3,44.7 12.3,51.3 C12.3,57.9 17.3,66.6 30.8,66.6 C43.7,66.6 50,59.3 50,46.5 C50,42.6 49.4,38.1 48.4,32.4 C48.1,30.4 47.6,27.3 46.9,23.5 C56.7,20.2 64,10.1 64,-0.2 M42.3,71.7 C42.3,68 38.9,66.4 35.6,66.4 C31.4,66.4 27.3,69 27.3,73.5 C27.3,75.4 28,76.8 29.4,78.2 C26.8,79.2 24.2,81.2 24.2,84.3 C24.2,87.6 27.2,89.8 31.6,89.8 C37,89.8 40.8,86.8 40.8,82.5 C40.8,80.2 39.8,78.3 38,77 C40.9,75.7 42.3,74.1 42.3,71.7"/>
<path class="Clef" transform="matrix(1.07717,0,0,1.07717,232.795,1341.99)" d="M36.2,21.2 C21.9,21.2 9.7,11.2 9.7,-3.9 C9.7,-16.1 18.3,-27 27.1,-34.7 C28.8,-36.1 30.4,-37.5 31.9,-39 C32.8,-33.6 33.5,-29 34.2,-24.8 C25.1,-22.2 18.9,-12.5 18.9,-3.2 C18.9,3.9 24.4,13.5 32.4,13.5 C33.2,13.5 34.1,13.1 34.1,12.1 C34.1,11.3 33.2,10.7 31.9,9.9 C28,7.6 25.8,4.9 25.8,0.1 C25.8,-6 30.4,-10.9 36.2,-12.3 L42,20.5 C40,20.9 38.2,21.2 36.2,21.2 M33.2,-82.2 C34.2,-86.2 38.7,-96.7 43.9,-96.7 C45.4,-96.7 47.9,-91.9 47.9,-84.9 C47.9,-74.6 40.1,-66.8 33.2,-59.9 C32.6,-63.9 32.1,-67.9 32.1,-72 C32.1,-75.8 32.5,-79.1 33.2,-82.2 M46.2,19.3 C44.1,7.4 41.4,-8.5 40.7,-12.9 C50.8,-12.9 55.1,-5.9 56,-1.1 C56.1,-0.3 56.3,0.8 56.3,2 C56.3,9.2 53.3,16.4 46.2,19.3 M32.3,87.7 C30.1,87.7 28.6,86.3 28.6,84.2 C28.6,82.2 29.5,80.6 31.2,79.6 C31.6,79.8 31.7,79.8 32,80 C33.2,80.6 33.2,80.6 33.4,80.8 C35.3,81.9 36.1,82.9 36.1,84.3 C36.1,86.2 34.5,87.7 32.3,87.7 M36.1,75.7 C34.6,74.9 34.2,74.7 33.9,74.5 L33.7,74.4 C32.2,73.5 31.7,72.8 31.7,71.6 C31.7,69.8 33.1,68.5 35.1,68.5 C37,68.5 38.2,69.7 38.2,71.8 C38.2,73.4 37.6,74.5 36.1,75.7 M64,-0.2 C64,-15.3 53.3,-25.5 38.7,-25.5 C37.7,-31.5 36.8,-37.4 35.9,-43 C46.4,-54.1 53.8,-66.7 53.8,-82.5 C53.8,-91.6 51,-99 49.3,-102.6 C46.9,-107.7 44,-111.2 42.3,-111.2 C41.6,-111.2 38.4,-110 35.2,-106.1 C28.7,-98.5 26.9,-85.8 26.9,-77.4 C26.9,-72 27.4,-67.1 29.1,-55.8 C29,-55.8 23.8,-50.5 21.7,-48.7 C12.6,-40.3 0,-28.1 0,-8.2 C0,10.6 16.3,25.3 34.9,25.3 C37.8,25.3 40.5,25 42.9,24.6 C44.7,34.1 45.9,41.2 45.9,46.5 C45.9,56.9 40.5,62.4 30.4,62.4 C28,62.4 25.9,61.9 25.7,61.8 C25.6,61.8 25.4,61.7 25.4,61.6 C25.4,61.4 25.6,61.3 25.9,61.2 C30.6,60.5 35.3,56.4 35.3,50.1 C35.3,44.7 31.2,39 23.7,39 C16.7,39 12.3,44.7 12.3,51.3 C12.3,57.9 17.3,66.6 30.8,66.6 C43.7,66.6 50,59.3 50,46.5 C50,42.6 49.4,38.1 48.4,32.4 C48.1,30.4 47.6,27.3 46.9,23.5 C56.7,20.2 64,10.1 64,-0.2 M42.3,71.7 C42.3,68 38.9,66.4 35.6,66.4 C31.4,66.4 27.3,69 27.3,73.5 C27.3,75.4 28,76.8 29.4,78.2 C26.8,79.2 24.2,81.2 24.2,84.3 C24.2,87.6 27.2,89.8 31.6,89.8 C37,89.8 40.8,86.8 40.8,82.5 C40.8,80.2 39.8,78.3 38,77 C40.9,75.7 42.3,74.1 42.3,71.7"/>
<path class="Lyrics" d="M847.112,1101.52 L837.554,1102.12 L837.554,1104.44 L839.768,1104.44 C841.82,1104.49 842.09,1104.82 842.09,1107.14 L842.09,1122.58 C842.036,1123.39 841.982,1123.72 841.766,1123.99 C841.388,1124.47 840.308,1124.69 837.986,1124.74 L837.77,1124.74 L837.77,1126.69 L852.188,1126.69 L852.188,1124.74 L851.216,1124.74 C847.598,1124.64 847.112,1124.37 847.112,1122.42 L847.112,1119.51 C847.166,1110.43 850.406,1103.52 854.618,1103.31 C853.862,1104.17 853.646,1104.71 853.646,1105.74 C853.646,1107.46 854.888,1108.71 856.616,1108.71 C858.614,1108.71 859.91,1107.25 859.91,1105.09 C859.91,1102.44 858.074,1100.71 855.212,1100.71 C851.81,1100.71 848.894,1103.41 847.112,1108.22 L847.112,1101.52 M870.053,1088.08 C868.325,1088.08 866.921,1089.48 866.921,1091.21 C866.921,1092.94 868.325,1094.34 869.999,1094.34 C871.781,1094.34 873.185,1092.94 873.185,1091.21 C873.185,1089.48 871.781,1088.08 870.053,1088.08 M872.591,1101.52 L862.439,1102.12 L862.439,1104.44 L865.193,1104.44 C867.245,1104.49 867.515,1104.82 867.515,1107.14 L867.515,1122.58 C867.461,1123.39 867.407,1123.72 867.191,1123.99 C866.813,1124.47 865.787,1124.69 863.465,1124.74 L863.087,1124.74 L863.087,1126.69 L877.073,1126.69 L877.073,1124.74 L876.695,1124.74 C873.077,1124.64 872.591,1124.37 872.591,1122.42 L872.591,1101.52 "/>
<path class="Lyrics" d="M365.148,751.794 L355.806,752.388 L355.806,754.71 L357.75,754.71 C359.802,754.764 360.072,755.088 360.072,757.41 L360.072,772.854 C360.018,773.664 359.964,773.988 359.748,774.258 C359.37,774.744 358.344,774.96 356.022,775.014 L355.806,775.014 L355.806,776.958 L369.468,776.958 L369.468,775.014 L369.252,775.014 C365.634,774.906 365.148,774.636 365.148,772.692 L365.148,764.7 C365.148,762.054 365.526,759.624 366.12,758.382 C367.254,755.952 369.684,754.278 372.006,754.278 C373.41,754.278 375.03,755.034 375.84,756.168 C376.65,757.356 377.028,758.976 377.028,761.568 L377.028,772.854 C376.974,773.664 376.92,773.988 376.704,774.258 C376.326,774.744 375.246,774.96 372.924,775.014 L372.708,775.014 L372.708,776.958 L386.37,776.958 L386.37,775.014 L386.154,775.014 C382.59,774.906 382.104,774.636 382.104,772.692 L382.104,761.838 C382.104,757.95 381.942,756.978 380.97,755.142 C379.62,752.55 376.92,750.984 373.68,750.984 C370.17,750.984 367.524,752.604 365.148,756.168 L365.148,751.794 M411.74,759.57 C411.74,756.168 411.146,754.44 409.58,753.144 C407.798,751.686 405.152,750.984 401.696,750.984 C395.594,750.984 391.166,753.846 391.166,757.788 C391.166,759.786 392.408,761.082 394.298,761.082 C396.026,761.082 397.214,759.948 397.214,758.328 C397.214,757.626 396.944,756.87 396.404,756.114 C396.08,755.736 396.026,755.628 396.026,755.358 C396.026,754.278 398.186,753.306 400.778,753.306 C402.506,753.306 404.396,753.846 405.26,754.656 C406.286,755.52 406.664,756.816 406.664,759.246 L406.664,761.352 C401.048,762.324 399.266,762.756 396.62,763.782 C391.922,765.51 389.708,767.994 389.708,771.45 C389.708,775.338 392.732,777.768 397.538,777.768 C401.264,777.768 404.612,776.256 406.934,773.502 C407.798,776.256 409.148,777.336 411.686,777.336 C414.116,777.336 416.654,775.77 416.654,774.204 C416.654,773.826 416.438,773.556 416.114,773.556 C415.898,773.556 415.682,773.61 415.304,773.772 C414.548,774.096 414.224,774.15 413.792,774.15 C412.28,774.15 411.74,773.178 411.74,770.424 L411.74,759.57 M406.664,766.158 C406.664,769.398 406.502,770.154 405.584,771.558 C404.234,773.556 401.804,774.906 399.428,774.906 C396.944,774.906 395.162,773.124 395.162,770.694 C395.162,768.426 396.296,766.806 398.672,765.672 C400.346,764.916 402.452,764.376 406.664,763.674 L406.664,766.158 "/>
<path class="Lyrics" d="M387.598,427.83 C387.652,419.73 383.062,414.006 376.474,414.006 C369.562,414.006 364.378,420 364.378,428.1 C364.378,435.714 369.292,440.79 376.582,440.79 C381.766,440.79 385.384,438.252 387.598,433.122 L385.708,432.096 C383.494,436.254 381.226,437.874 377.608,437.874 C374.854,437.874 372.856,436.74 371.452,434.31 C370.48,432.69 370.048,430.8 370.102,427.83 L387.598,427.83 M370.156,425.508 C370.156,421.728 371.884,416.328 376.42,416.328 C379.66,416.328 381.82,419.19 381.82,423.564 C381.82,425.076 381.334,425.508 379.606,425.508 L370.156,425.508 M398.886,414.816 L398.886,404.124 L396.672,404.124 C396.132,411.144 393.756,414.708 389.382,415.032 L389.382,417.138 L393.81,417.138 L393.81,430.908 C393.81,434.688 393.918,436.038 394.458,437.28 C395.322,439.548 397.482,440.79 400.614,440.79 C405.474,440.79 408.606,437.118 408.606,431.394 C408.606,431.07 408.606,430.692 408.552,430.152 L406.284,430.152 C406.122,435.012 404.718,437.496 402.072,437.496 C400.83,437.496 399.75,436.848 399.372,435.93 C399.048,435.174 398.886,433.824 398.886,431.88 L398.886,417.138 L406.824,417.138 L406.824,414.816 L398.886,414.816 "/>
<path class="Lyrics" d="M1017.12,1787.38 L1017.12,1776.69 L1014.9,1776.69 C1014.36,1783.71 1011.99,1787.27 1007.61,1787.59 L1007.61,1789.7 L1012.04,1789.7 L1012.04,1803.47 C1012.04,1807.25 1012.15,1808.6 1012.69,1809.84 C1013.55,1812.11 1015.71,1813.35 1018.85,1813.35 C1023.71,1813.35 1026.84,1809.68 1026.84,1803.96 C1026.84,1803.63 1026.84,1803.25 1026.78,1802.71 L1024.52,1802.71 C1024.35,1807.57 1022.95,1810.06 1020.3,1810.06 C1019.06,1810.06 1017.98,1809.41 1017.6,1808.49 C1017.28,1807.74 1017.12,1806.39 1017.12,1804.44 L1017.12,1789.7 L1025.06,1789.7 L1025.06,1787.38 L1017.12,1787.38 M1049.84,1812.92 L1059.67,1812.54 L1059.67,1810.22 L1058.32,1810.22 C1055.19,1810.11 1054.92,1809.79 1054.92,1806.28 L1054.92,1787.38 L1044.77,1787.97 L1044.77,1790.29 L1047.52,1790.29 C1049.57,1790.35 1049.84,1790.67 1049.84,1792.99 L1049.84,1799.64 C1049.84,1804.33 1048.71,1810.06 1042.77,1810.06 C1041.1,1810.06 1039.69,1809.46 1038.99,1808.38 C1038.29,1807.36 1038.18,1806.82 1038.18,1803.85 L1038.18,1787.38 L1028.73,1787.97 L1028.73,1790.29 L1030.78,1790.29 C1032.83,1790.35 1033.1,1790.67 1033.1,1792.99 L1033.1,1804.66 C1033.1,1807.41 1033.32,1808.65 1034.13,1809.9 C1035.59,1812.11 1038.18,1813.35 1041.42,1813.35 C1044.98,1813.35 1047.47,1811.89 1049.84,1808.44 L1049.84,1812.92 M1071.27,1787.38 L1061.71,1787.97 L1061.71,1790.29 L1063.93,1790.29 C1065.98,1790.35 1066.25,1790.67 1066.25,1792.99 L1066.25,1808.44 C1066.2,1809.25 1066.14,1809.57 1065.93,1809.84 C1065.55,1810.33 1064.47,1810.54 1062.15,1810.6 L1061.93,1810.6 L1061.93,1812.54 L1076.35,1812.54 L1076.35,1810.6 L1075.38,1810.6 C1071.76,1810.49 1071.27,1810.22 1071.27,1808.28 L1071.27,1805.36 C1071.33,1796.29 1074.57,1789.38 1078.78,1789.16 C1078.02,1790.02 1077.81,1790.56 1077.81,1791.59 C1077.81,1793.32 1079.05,1794.56 1080.78,1794.56 C1082.77,1794.56 1084.07,1793.1 1084.07,1790.94 C1084.07,1788.3 1082.23,1786.57 1079.37,1786.57 C1075.97,1786.57 1073.05,1789.27 1071.27,1794.07 L1071.27,1787.38 "/>
<path class="Lyrics" d="M481.465,400.236 L479.197,400.236 L466.777,431.718 C465.319,435.93 463.915,437.226 460.837,437.442 L460.621,437.442 L460.621,439.98 L474.931,439.98 L474.931,437.442 L473.851,437.442 C470.935,437.442 469.477,436.416 469.477,434.364 C469.477,433.662 469.639,433.014 469.963,432.096 L471.745,427.344 L486.055,427.344 L488.971,434.58 C489.295,435.444 489.403,435.768 489.403,436.038 C489.403,436.902 488.053,437.442 486.055,437.442 L483.787,437.442 L483.787,439.98 L500.527,439.98 L500.527,437.442 L499.771,437.442 C496.963,437.388 496.477,437.064 495.235,433.986 L481.465,400.236 M478.819,409.092 L484.921,424.428 L472.825,424.428 L478.819,409.092 "/>
<path class="Lyrics" d="M939.709,1808.55 C936.739,1808.49 936.577,1808.44 935.929,1808.06 C935.551,1807.84 935.281,1807.25 935.281,1806.66 C935.281,1805.04 936.739,1804.33 940.357,1804.23 C945.433,1804.12 946.243,1804.01 948.079,1803.2 C951.319,1801.74 953.101,1798.93 953.101,1795.37 C953.101,1793.21 952.615,1791.86 951.157,1790.08 C952.075,1789.11 952.561,1788.78 952.993,1788.78 C953.263,1788.78 953.425,1788.94 953.533,1789.54 C953.749,1790.83 954.613,1791.54 955.963,1791.54 C957.367,1791.54 958.393,1790.4 958.393,1788.94 C958.393,1787.11 956.935,1785.81 954.829,1785.81 C953.101,1785.81 952.129,1786.35 949.645,1788.62 C947.377,1787.11 945.649,1786.57 942.949,1786.57 C936.523,1786.57 932.311,1790.13 932.311,1795.53 C932.311,1798.72 934.039,1801.42 936.847,1802.77 C933.229,1803.58 931.717,1805.2 931.717,1808.17 C931.717,1810.54 932.797,1811.95 935.335,1812.81 C931.987,1814.05 930.367,1815.73 930.367,1817.94 C930.367,1819.56 931.447,1821.07 933.175,1821.99 C935.281,1823.07 937.873,1823.5 941.761,1823.5 C950.779,1823.5 955.261,1820.64 955.261,1814.97 C955.261,1812.27 954.019,1810.11 952.075,1809.3 C950.617,1808.76 948.889,1808.55 945.217,1808.55 L939.709,1808.55 M942.895,1788.89 C946.243,1788.89 948.133,1791.21 948.133,1795.42 C948.133,1799.64 946.081,1802.17 942.679,1802.17 C939.331,1802.17 937.225,1799.64 937.225,1795.59 C937.225,1791.32 939.277,1788.89 942.895,1788.89 M942.409,1813.19 C946.891,1813.19 947.215,1813.19 947.971,1813.3 C950.185,1813.51 951.481,1814.7 951.481,1816.43 C951.481,1819.51 947.971,1821.29 941.977,1821.29 C937.387,1821.29 934.849,1819.94 934.849,1817.51 C934.849,1815.73 935.821,1814.54 938.413,1813.19 L942.409,1813.19 M966.696,1773.93 C964.968,1773.93 963.564,1775.34 963.564,1777.06 C963.564,1778.79 964.968,1780.2 966.642,1780.2 C968.424,1780.2 969.828,1778.79 969.828,1777.06 C969.828,1775.34 968.424,1773.93 966.696,1773.93 M969.234,1787.38 L959.082,1787.97 L959.082,1790.29 L961.836,1790.29 C963.888,1790.35 964.158,1790.67 964.158,1792.99 L964.158,1808.44 C964.104,1809.25 964.05,1809.57 963.834,1809.84 C963.456,1810.33 962.43,1810.54 960.108,1810.6 L959.73,1810.6 L959.73,1812.54 L973.716,1812.54 L973.716,1810.6 L973.338,1810.6 C969.72,1810.49 969.234,1810.22 969.234,1808.28 L969.234,1787.38 "/>
<path class="Lyrics" d="M546.315,414.816 L536.703,415.41 L536.703,417.732 L538.917,417.732 C540.969,417.786 541.239,418.11 541.239,420.432 L541.239,435.876 C541.185,436.686 541.131,437.01 540.915,437.28 C540.537,437.766 539.511,437.982 537.189,438.036 L536.973,438.036 L536.973,439.98 L550.581,439.98 L550.581,438.036 L550.365,438.036 C546.801,437.928 546.315,437.658 546.315,435.66 L546.315,425.67 C546.315,420.864 548.961,417.3 552.471,417.3 C555.549,417.3 557.115,419.514 557.115,423.888 L557.115,435.93 C557.061,436.632 557.007,437.01 556.737,437.28 C556.413,437.766 555.333,437.982 553.011,438.036 L552.795,438.036 L552.795,439.98 L566.457,439.98 L566.457,438.036 L566.241,438.036 C562.677,437.928 562.191,437.658 562.191,435.714 L562.191,426.156 C562.191,420.756 564.621,417.3 568.401,417.3 C571.479,417.3 572.991,419.622 572.991,424.482 L572.991,435.876 C572.937,436.632 572.883,437.01 572.613,437.28 C572.289,437.766 571.209,437.982 568.887,438.036 L568.671,438.036 L568.671,439.98 L582.333,439.98 L582.333,438.036 L582.117,438.036 C578.553,437.928 578.067,437.658 578.067,435.66 L578.067,423.402 C578.067,420.054 577.743,418.92 576.339,417.084 C574.773,415.086 572.559,414.006 569.967,414.006 C566.457,414.006 563.865,415.68 561.543,419.406 C560.625,416.166 557.709,414.006 554.091,414.006 C550.797,414.006 548.421,415.572 546.315,418.974 L546.315,414.816 M607.869,422.592 C607.869,419.19 607.275,417.462 605.709,416.166 C603.927,414.708 601.281,414.006 597.825,414.006 C591.723,414.006 587.295,416.868 587.295,420.81 C587.295,422.808 588.537,424.104 590.427,424.104 C592.155,424.104 593.343,422.97 593.343,421.35 C593.343,420.648 593.073,419.892 592.533,419.136 C592.209,418.758 592.155,418.65 592.155,418.38 C592.155,417.3 594.315,416.328 596.907,416.328 C598.635,416.328 600.525,416.868 601.389,417.678 C602.415,418.542 602.793,419.838 602.793,422.268 L602.793,424.374 C597.177,425.346 595.395,425.778 592.749,426.804 C588.051,428.532 585.837,431.016 585.837,434.472 C585.837,438.36 588.861,440.79 593.667,440.79 C597.393,440.79 600.741,439.278 603.063,436.524 C603.927,439.278 605.277,440.358 607.815,440.358 C610.245,440.358 612.783,438.792 612.783,437.226 C612.783,436.848 612.567,436.578 612.243,436.578 C612.027,436.578 611.811,436.632 611.433,436.794 C610.677,437.118 610.353,437.172 609.921,437.172 C608.409,437.172 607.869,436.2 607.869,433.446 L607.869,422.592 M602.793,429.18 C602.793,432.42 602.631,433.176 601.713,434.58 C600.363,436.578 597.933,437.928 595.557,437.928 C593.073,437.928 591.291,436.146 591.291,433.716 C591.291,431.448 592.425,429.828 594.801,428.694 C596.475,427.938 598.581,427.398 602.793,426.696 L602.793,429.18 "/>
<path class="Lyrics" d="M1017.12,1101.52 L1017.12,1090.83 L1014.9,1090.83 C1014.36,1097.85 1011.99,1101.42 1007.61,1101.74 L1007.61,1103.85 L1012.04,1103.85 L1012.04,1117.62 C1012.04,1121.4 1012.15,1122.75 1012.69,1123.99 C1013.55,1126.26 1015.71,1127.5 1018.85,1127.5 C1023.71,1127.5 1026.84,1123.83 1026.84,1118.1 C1026.84,1117.78 1026.84,1117.4 1026.78,1116.86 L1024.52,1116.86 C1024.35,1121.72 1022.95,1124.2 1020.3,1124.2 C1019.06,1124.2 1017.98,1123.56 1017.6,1122.64 C1017.28,1121.88 1017.12,1120.53 1017.12,1118.59 L1017.12,1103.85 L1025.06,1103.85 L1025.06,1101.52 L1017.12,1101.52 M1049.84,1127.07 L1059.67,1126.69 L1059.67,1124.37 L1058.32,1124.37 C1055.19,1124.26 1054.92,1123.93 1054.92,1120.42 L1054.92,1101.52 L1044.77,1102.12 L1044.77,1104.44 L1047.52,1104.44 C1049.57,1104.49 1049.84,1104.82 1049.84,1107.14 L1049.84,1113.78 C1049.84,1118.48 1048.71,1124.2 1042.77,1124.2 C1041.1,1124.2 1039.69,1123.61 1038.99,1122.53 C1038.29,1121.5 1038.18,1120.96 1038.18,1117.99 L1038.18,1101.52 L1028.73,1102.12 L1028.73,1104.44 L1030.78,1104.44 C1032.83,1104.49 1033.1,1104.82 1033.1,1107.14 L1033.1,1118.8 C1033.1,1121.56 1033.32,1122.8 1034.13,1124.04 C1035.59,1126.26 1038.18,1127.5 1041.42,1127.5 C1044.98,1127.5 1047.47,1126.04 1049.84,1122.58 L1049.84,1127.07 M1071.27,1101.52 L1061.71,1102.12 L1061.71,1104.44 L1063.93,1104.44 C1065.98,1104.49 1066.25,1104.82 1066.25,1107.14 L1066.25,1122.58 C1066.2,1123.39 1066.14,1123.72 1065.93,1123.99 C1065.55,1124.47 1064.47,1124.69 1062.15,1124.74 L1061.93,1124.74 L1061.93,1126.69 L1076.35,1126.69 L1076.35,1124.74 L1075.38,1124.74 C1071.76,1124.64 1071.27,1124.37 1071.27,1122.42 L1071.27,1119.51 C1071.33,1110.43 1074.57,1103.52 1078.78,1103.31 C1078.02,1104.17 1077.81,1104.71 1077.81,1105.74 C1077.81,1107.46 1079.05,1108.71 1080.78,1108.71 C1082.77,1108.71 1084.07,1107.25 1084.07,1105.09 C1084.07,1102.44 1082.23,1100.71 1079.37,1100.71 C1075.97,1100.71 1073.05,1103.41 1071.27,1108.22 L1071.27,1101.52 "/>
<path class="Lyrics" d="M938.839,1101.52 L929.497,1102.12 L929.497,1104.44 L931.441,1104.44 C933.493,1104.49 933.763,1104.82 933.763,1107.14 L933.763,1133.55 C933.709,1134.3 933.655,1134.63 933.439,1134.9 C933.061,1135.38 932.035,1135.6 929.713,1135.65 L929.497,1135.65 L929.497,1137.6 L943.537,1137.6 L943.537,1135.65 L942.943,1135.65 C939.325,1135.54 938.839,1135.27 938.839,1133.33 L938.839,1123.12 C940.621,1126.26 942.619,1127.5 945.967,1127.5 C953.149,1127.5 956.875,1120.42 956.875,1114 C956.875,1107.9 953.149,1100.71 946.291,1100.71 C942.943,1100.71 940.729,1102.12 938.839,1105.36 L938.839,1101.52 M945.319,1103.63 C949.045,1103.63 951.205,1107.36 951.205,1113.67 C951.205,1120.64 949.045,1124.58 945.157,1124.58 C941.269,1124.58 938.785,1120.59 938.785,1114.38 C938.785,1107.63 941.215,1103.63 945.319,1103.63 M967.555,1088.08 C965.827,1088.08 964.423,1089.48 964.423,1091.21 C964.423,1092.94 965.827,1094.34 967.501,1094.34 C969.283,1094.34 970.687,1092.94 970.687,1091.21 C970.687,1089.48 969.283,1088.08 967.555,1088.08 M970.093,1101.52 L959.941,1102.12 L959.941,1104.44 L962.695,1104.44 C964.747,1104.49 965.017,1104.82 965.017,1107.14 L965.017,1122.58 C964.963,1123.39 964.909,1123.72 964.693,1123.99 C964.315,1124.47 963.289,1124.69 960.967,1124.74 L960.589,1124.74 L960.589,1126.69 L974.575,1126.69 L974.575,1124.74 L974.197,1124.74 C970.579,1124.64 970.093,1124.37 970.093,1122.42 L970.093,1101.52 "/>
<path class="Lyrics" d="M387.598,1463.78 C387.652,1455.68 383.062,1449.95 376.474,1449.95 C369.562,1449.95 364.378,1455.95 364.378,1464.05 C364.378,1471.66 369.292,1476.74 376.582,1476.74 C381.766,1476.74 385.384,1474.2 387.598,1469.07 L385.708,1468.04 C383.494,1472.2 381.226,1473.82 377.608,1473.82 C374.854,1473.82 372.856,1472.69 371.452,1470.26 C370.48,1468.64 370.048,1466.75 370.102,1463.78 L387.598,1463.78 M370.156,1461.46 C370.156,1457.68 371.884,1452.28 376.42,1452.28 C379.66,1452.28 381.82,1455.14 381.82,1459.51 C381.82,1461.02 381.334,1461.46 379.606,1461.46 L370.156,1461.46 M398.886,1450.76 L398.886,1440.07 L396.672,1440.07 C396.132,1447.09 393.756,1450.66 389.382,1450.98 L389.382,1453.09 L393.81,1453.09 L393.81,1466.86 C393.81,1470.64 393.918,1471.99 394.458,1473.23 C395.322,1475.5 397.482,1476.74 400.614,1476.74 C405.474,1476.74 408.606,1473.07 408.606,1467.34 C408.606,1467.02 408.606,1466.64 408.552,1466.1 L406.284,1466.1 C406.122,1470.96 404.718,1473.44 402.072,1473.44 C400.83,1473.44 399.75,1472.8 399.372,1471.88 C399.048,1471.12 398.886,1469.77 398.886,1467.83 L398.886,1453.09 L406.824,1453.09 L406.824,1450.76 L398.886,1450.76 "/>
<path class="Lyrics" d="M775.091,1114.54 C775.145,1106.44 770.555,1100.71 763.967,1100.71 C757.055,1100.71 751.871,1106.71 751.871,1114.81 C751.871,1122.42 756.785,1127.5 764.075,1127.5 C769.259,1127.5 772.877,1124.96 775.091,1119.83 L773.201,1118.8 C770.987,1122.96 768.719,1124.58 765.101,1124.58 C762.347,1124.58 760.349,1123.45 758.945,1121.02 C757.973,1119.4 757.541,1117.51 757.595,1114.54 L775.091,1114.54 M757.649,1112.22 C757.649,1108.44 759.377,1103.04 763.913,1103.04 C767.153,1103.04 769.313,1105.9 769.313,1110.27 C769.313,1111.78 768.827,1112.22 767.099,1112.22 L757.649,1112.22 "/>
<path class="Lyrics" d="M439.795,1467.99 C438.067,1471.88 436.231,1473.44 433.423,1473.44 C429.103,1473.44 426.403,1469.5 426.403,1463.18 C426.403,1456.6 429.049,1452.28 433.045,1452.28 C434.665,1452.28 436.069,1453.03 436.069,1453.9 C436.069,1454.06 436.015,1454.22 435.745,1454.54 C434.881,1455.57 434.665,1456.11 434.665,1457.03 C434.665,1458.81 436.015,1460.05 437.905,1460.05 C439.849,1460.05 441.199,1458.54 441.199,1456.38 C441.199,1452.71 437.581,1449.95 432.775,1449.95 C425.755,1449.95 420.733,1455.68 420.733,1463.78 C420.733,1471.45 425.323,1476.74 432.019,1476.74 C436.825,1476.74 439.579,1474.52 441.901,1468.8 L439.795,1467.99 M453.072,1436.13 L443.082,1436.72 L443.082,1439.05 L445.674,1439.05 C447.726,1439.1 447.996,1439.42 447.996,1441.75 L447.996,1471.88 C447.942,1472.63 447.888,1472.96 447.672,1473.23 C447.294,1473.71 446.268,1473.93 443.946,1473.98 L443.73,1473.98 L443.73,1475.93 L457.392,1475.93 L457.392,1473.98 L457.176,1473.98 C453.558,1473.88 453.072,1473.61 453.072,1471.66 L453.072,1463.67 C453.072,1461.02 453.45,1458.59 454.044,1457.35 C455.232,1454.92 457.608,1453.25 459.93,1453.25 C461.334,1453.25 462.954,1454.06 463.71,1455.14 C464.574,1456.33 464.952,1457.95 464.952,1460.59 L464.952,1471.88 C464.898,1472.63 464.844,1472.96 464.628,1473.23 C464.25,1473.71 463.17,1473.93 460.848,1473.98 L460.632,1473.98 L460.632,1475.93 L474.294,1475.93 L474.294,1473.98 L474.078,1473.98 C470.514,1473.88 470.028,1473.61 470.028,1471.66 L470.028,1460.81 C470.028,1456.92 469.866,1455.95 468.894,1454.11 C467.544,1451.47 464.844,1449.95 461.604,1449.95 C458.094,1449.95 455.502,1451.52 453.072,1455.14 L453.072,1436.13 M485.948,1450.76 L476.39,1451.36 L476.39,1453.68 L478.604,1453.68 C480.656,1453.73 480.926,1454.06 480.926,1456.38 L480.926,1471.82 C480.872,1472.63 480.818,1472.96 480.602,1473.23 C480.224,1473.71 479.144,1473.93 476.822,1473.98 L476.606,1473.98 L476.606,1475.93 L491.024,1475.93 L491.024,1473.98 L490.052,1473.98 C486.434,1473.88 485.948,1473.61 485.948,1471.66 L485.948,1468.75 C486.002,1459.67 489.242,1452.76 493.454,1452.55 C492.698,1453.41 492.482,1453.95 492.482,1454.98 C492.482,1456.7 493.724,1457.95 495.452,1457.95 C497.45,1457.95 498.746,1456.49 498.746,1454.33 C498.746,1451.68 496.91,1449.95 494.048,1449.95 C490.646,1449.95 487.73,1452.65 485.948,1457.46 L485.948,1450.76 M508.889,1437.32 C507.161,1437.32 505.757,1438.72 505.757,1440.45 C505.757,1442.18 507.161,1443.58 508.835,1443.58 C510.617,1443.58 512.021,1442.18 512.021,1440.45 C512.021,1438.72 510.617,1437.32 508.889,1437.32 M511.427,1450.76 L501.275,1451.36 L501.275,1453.68 L504.029,1453.68 C506.081,1453.73 506.351,1454.06 506.351,1456.38 L506.351,1471.82 C506.297,1472.63 506.243,1472.96 506.027,1473.23 C505.649,1473.71 504.623,1473.93 502.301,1473.98 L501.923,1473.98 L501.923,1475.93 L515.909,1475.93 L515.909,1473.98 L515.531,1473.98 C511.913,1473.88 511.427,1473.61 511.427,1471.66 L511.427,1450.76 M538.363,1450.17 L536.473,1450.17 L534.907,1452.11 C532.963,1450.6 531.019,1449.95 528.319,1449.95 C523.567,1449.95 520.435,1453.03 520.435,1457.78 C520.435,1462.86 523.729,1464.16 528.049,1465.18 L530.911,1465.83 C535.177,1466.86 536.689,1467.94 536.689,1470.1 C536.689,1472.63 534.475,1474.42 531.343,1474.42 C526.753,1474.42 523.513,1471.5 522.217,1466.1 L520.057,1466.1 L520.057,1476.31 L521.947,1476.31 L523.837,1474.09 C526.051,1475.87 528.481,1476.74 531.235,1476.74 C536.527,1476.74 540.037,1473.44 540.037,1468.42 C540.037,1466.05 539.281,1464.21 537.769,1462.97 C536.473,1461.83 535.393,1461.4 532.099,1460.7 L529.399,1460.11 C526.429,1459.46 526.429,1459.46 525.457,1458.92 C524.269,1458.38 523.567,1457.24 523.567,1456.06 C523.567,1453.84 525.619,1452.33 528.589,1452.33 C533.017,1452.33 535.177,1455.46 536.473,1459.24 L538.363,1459.24 L538.363,1450.17 "/>
<path class="Lyrics" d="M633.995,1086.89 L624.005,1087.48 L624.005,1089.81 L626.651,1089.81 C628.649,1089.86 628.919,1090.18 628.919,1092.51 L628.919,1122.58 C628.865,1123.39 628.811,1123.72 628.595,1123.99 C628.217,1124.47 627.191,1124.69 624.869,1124.74 L624.491,1124.74 L624.491,1126.69 L638.477,1126.69 L638.477,1124.74 L638.099,1124.74 C634.481,1124.64 633.995,1124.37 633.995,1122.42 L633.995,1086.89 M665.089,1114.54 C665.143,1106.44 660.553,1100.71 653.965,1100.71 C647.053,1100.71 641.869,1106.71 641.869,1114.81 C641.869,1122.42 646.783,1127.5 654.073,1127.5 C659.257,1127.5 662.875,1124.96 665.089,1119.83 L663.199,1118.8 C660.985,1122.96 658.717,1124.58 655.099,1124.58 C652.345,1124.58 650.347,1123.45 648.943,1121.02 C647.971,1119.4 647.539,1117.51 647.593,1114.54 L665.089,1114.54 M647.647,1112.22 C647.647,1108.44 649.375,1103.04 653.911,1103.04 C657.151,1103.04 659.311,1105.9 659.311,1110.27 C659.311,1111.78 658.825,1112.22 657.097,1112.22 L647.647,1112.22 M677.833,1101.52 L668.221,1102.12 L668.221,1104.44 L670.435,1104.44 C672.487,1104.49 672.757,1104.82 672.757,1107.14 L672.757,1122.58 C672.703,1123.39 672.649,1123.72 672.433,1123.99 C672.055,1124.47 671.029,1124.69 668.707,1124.74 L668.491,1124.74 L668.491,1126.69 L682.099,1126.69 L682.099,1124.74 L681.883,1124.74 C678.319,1124.64 677.833,1124.37 677.833,1122.37 L677.833,1112.38 C677.833,1107.57 680.479,1104.01 683.989,1104.01 C687.067,1104.01 688.633,1106.22 688.633,1110.6 L688.633,1122.64 C688.579,1123.34 688.525,1123.72 688.255,1123.99 C687.931,1124.47 686.851,1124.69 684.529,1124.74 L684.313,1124.74 L684.313,1126.69 L697.975,1126.69 L697.975,1124.74 L697.759,1124.74 C694.195,1124.64 693.709,1124.37 693.709,1122.42 L693.709,1112.86 C693.709,1107.46 696.139,1104.01 699.919,1104.01 C702.997,1104.01 704.509,1106.33 704.509,1111.19 L704.509,1122.58 C704.455,1123.34 704.401,1123.72 704.131,1123.99 C703.807,1124.47 702.727,1124.69 700.405,1124.74 L700.189,1124.74 L700.189,1126.69 L713.851,1126.69 L713.851,1124.74 L713.635,1124.74 C710.071,1124.64 709.585,1124.37 709.585,1122.37 L709.585,1110.11 C709.585,1106.76 709.261,1105.63 707.857,1103.79 C706.291,1101.79 704.077,1100.71 701.485,1100.71 C697.975,1100.71 695.383,1102.39 693.061,1106.11 C692.143,1102.87 689.227,1100.71 685.609,1100.71 C682.315,1100.71 679.939,1102.28 677.833,1105.68 L677.833,1101.52 "/>
<path class="Lyrics" d="M566.718,1450.76 L566.718,1440.07 L564.504,1440.07 C563.964,1447.09 561.588,1450.66 557.214,1450.98 L557.214,1453.09 L561.642,1453.09 L561.642,1466.86 C561.642,1470.64 561.75,1471.99 562.29,1473.23 C563.154,1475.5 565.314,1476.74 568.446,1476.74 C573.306,1476.74 576.438,1473.07 576.438,1467.34 C576.438,1467.02 576.438,1466.64 576.384,1466.1 L574.116,1466.1 C573.954,1470.96 572.55,1473.44 569.904,1473.44 C568.662,1473.44 567.582,1472.8 567.204,1471.88 C566.88,1471.12 566.718,1469.77 566.718,1467.83 L566.718,1453.09 L574.656,1453.09 L574.656,1450.76 L566.718,1450.76 M585.828,1437.32 C584.1,1437.32 582.696,1438.72 582.696,1440.45 C582.696,1442.18 584.1,1443.58 585.774,1443.58 C587.556,1443.58 588.96,1442.18 588.96,1440.45 C588.96,1438.72 587.556,1437.32 585.828,1437.32 M588.366,1450.76 L578.214,1451.36 L578.214,1453.68 L580.968,1453.68 C583.02,1453.73 583.29,1454.06 583.29,1456.38 L583.29,1471.82 C583.236,1472.63 583.182,1472.96 582.966,1473.23 C582.588,1473.71 581.562,1473.93 579.24,1473.98 L578.862,1473.98 L578.862,1475.93 L592.848,1475.93 L592.848,1473.98 L592.47,1473.98 C588.852,1473.88 588.366,1473.61 588.366,1471.66 L588.366,1450.76 "/>
<path class="Lyrics" d="M567.756,1100.93 L565.866,1100.93 L564.3,1102.87 C562.356,1101.36 560.412,1100.71 557.712,1100.71 C552.96,1100.71 549.828,1103.79 549.828,1108.54 C549.828,1113.62 553.122,1114.92 557.442,1115.94 L560.304,1116.59 C564.57,1117.62 566.082,1118.7 566.082,1120.86 C566.082,1123.39 563.868,1125.18 560.736,1125.18 C556.146,1125.18 552.906,1122.26 551.61,1116.86 L549.45,1116.86 L549.45,1127.07 L551.34,1127.07 L553.23,1124.85 C555.444,1126.63 557.874,1127.5 560.628,1127.5 C565.92,1127.5 569.43,1124.2 569.43,1119.18 C569.43,1116.81 568.674,1114.97 567.162,1113.73 C565.866,1112.59 564.786,1112.16 561.492,1111.46 L558.792,1110.87 C555.822,1110.22 555.822,1110.22 554.85,1109.68 C553.662,1109.14 552.96,1108 552.96,1106.82 C552.96,1104.6 555.012,1103.09 557.982,1103.09 C562.41,1103.09 564.57,1106.22 565.866,1110 L567.756,1110 L567.756,1100.93 M595.557,1109.3 C595.557,1105.9 594.963,1104.17 593.397,1102.87 C591.615,1101.42 588.969,1100.71 585.513,1100.71 C579.411,1100.71 574.983,1103.58 574.983,1107.52 C574.983,1109.52 576.225,1110.81 578.115,1110.81 C579.843,1110.81 581.031,1109.68 581.031,1108.06 C581.031,1107.36 580.761,1106.6 580.221,1105.84 C579.897,1105.47 579.843,1105.36 579.843,1105.09 C579.843,1104.01 582.003,1103.04 584.595,1103.04 C586.323,1103.04 588.213,1103.58 589.077,1104.39 C590.103,1105.25 590.481,1106.55 590.481,1108.98 L590.481,1111.08 C584.865,1112.05 583.083,1112.49 580.437,1113.51 C575.739,1115.24 573.525,1117.72 573.525,1121.18 C573.525,1125.07 576.549,1127.5 581.355,1127.5 C585.081,1127.5 588.429,1125.99 590.751,1123.23 C591.615,1125.99 592.965,1127.07 595.503,1127.07 C597.933,1127.07 600.471,1125.5 600.471,1123.93 C600.471,1123.56 600.255,1123.29 599.931,1123.29 C599.715,1123.29 599.499,1123.34 599.121,1123.5 C598.365,1123.83 598.041,1123.88 597.609,1123.88 C596.097,1123.88 595.557,1122.91 595.557,1120.15 L595.557,1109.3 M590.481,1115.89 C590.481,1119.13 590.319,1119.88 589.401,1121.29 C588.051,1123.29 585.621,1124.64 583.245,1124.64 C580.761,1124.64 578.979,1122.85 578.979,1120.42 C578.979,1118.16 580.113,1116.54 582.489,1115.4 C584.163,1114.65 586.269,1114.11 590.481,1113.4 L590.481,1115.89 "/>
<path class="Lyrics" d="M677.543,1458.54 C677.543,1455.14 676.949,1453.41 675.383,1452.11 C673.601,1450.66 670.955,1449.95 667.499,1449.95 C661.397,1449.95 656.969,1452.82 656.969,1456.76 C656.969,1458.76 658.211,1460.05 660.101,1460.05 C661.829,1460.05 663.017,1458.92 663.017,1457.3 C663.017,1456.6 662.747,1455.84 662.207,1455.08 C661.883,1454.71 661.829,1454.6 661.829,1454.33 C661.829,1453.25 663.989,1452.28 666.581,1452.28 C668.309,1452.28 670.199,1452.82 671.063,1453.63 C672.089,1454.49 672.467,1455.79 672.467,1458.22 L672.467,1460.32 C666.851,1461.29 665.069,1461.73 662.423,1462.75 C657.725,1464.48 655.511,1466.96 655.511,1470.42 C655.511,1474.31 658.535,1476.74 663.341,1476.74 C667.067,1476.74 670.415,1475.23 672.737,1472.47 C673.601,1475.23 674.951,1476.31 677.489,1476.31 C679.919,1476.31 682.457,1474.74 682.457,1473.17 C682.457,1472.8 682.241,1472.53 681.917,1472.53 C681.701,1472.53 681.485,1472.58 681.107,1472.74 C680.351,1473.07 680.027,1473.12 679.595,1473.12 C678.083,1473.12 677.543,1472.15 677.543,1469.39 L677.543,1458.54 M672.467,1465.13 C672.467,1468.37 672.305,1469.12 671.387,1470.53 C670.037,1472.53 667.607,1473.88 665.231,1473.88 C662.747,1473.88 660.965,1472.09 660.965,1469.66 C660.965,1467.4 662.099,1465.78 664.475,1464.64 C666.149,1463.89 668.255,1463.35 672.467,1462.64 L672.467,1465.13 "/>
<path class="Lyrics" d="M458.228,1086.89 L448.238,1087.48 L448.238,1089.81 L450.83,1089.81 C452.882,1089.86 453.152,1090.18 453.152,1092.51 L453.152,1122.64 C453.098,1123.39 453.044,1123.72 452.828,1123.99 C452.45,1124.47 451.424,1124.69 449.102,1124.74 L448.886,1124.74 L448.886,1126.69 L462.548,1126.69 L462.548,1124.74 L462.332,1124.74 C458.714,1124.64 458.228,1124.37 458.228,1122.42 L458.228,1114.43 C458.228,1111.78 458.606,1109.35 459.2,1108.11 C460.388,1105.68 462.764,1104.01 465.086,1104.01 C466.49,1104.01 468.11,1104.82 468.866,1105.9 C469.73,1107.09 470.108,1108.71 470.108,1111.35 L470.108,1122.64 C470.054,1123.39 470,1123.72 469.784,1123.99 C469.406,1124.47 468.326,1124.69 466.004,1124.74 L465.788,1124.74 L465.788,1126.69 L479.45,1126.69 L479.45,1124.74 L479.234,1124.74 C475.67,1124.64 475.184,1124.37 475.184,1122.42 L475.184,1111.57 C475.184,1107.68 475.022,1106.71 474.05,1104.87 C472.7,1102.23 470,1100.71 466.76,1100.71 C463.25,1100.71 460.658,1102.28 458.228,1105.9 L458.228,1086.89 M502.66,1127.07 L512.488,1126.69 L512.488,1124.37 L511.138,1124.37 C508.006,1124.26 507.736,1123.93 507.736,1120.42 L507.736,1101.52 L497.584,1102.12 L497.584,1104.44 L500.338,1104.44 C502.39,1104.49 502.66,1104.82 502.66,1107.14 L502.66,1113.78 C502.66,1118.48 501.526,1124.2 495.586,1124.2 C493.912,1124.2 492.508,1123.61 491.806,1122.53 C491.104,1121.5 490.996,1120.96 490.996,1117.99 L490.996,1101.52 L481.546,1102.12 L481.546,1104.44 L483.598,1104.44 C485.65,1104.49 485.92,1104.82 485.92,1107.14 L485.92,1118.8 C485.92,1121.56 486.136,1122.8 486.946,1124.04 C488.404,1126.26 490.996,1127.5 494.236,1127.5 C497.8,1127.5 500.284,1126.04 502.66,1122.58 L502.66,1127.07 "/>
<path class="Lyrics" d="M350.9,1090.24 L351.98,1090.24 C355.058,1090.29 356.084,1090.45 356.516,1090.99 C356.84,1091.48 356.84,1091.64 356.84,1094.34 L356.84,1120.05 C356.84,1122.75 356.84,1122.91 356.516,1123.39 C356.084,1123.93 355.058,1124.15 351.98,1124.15 L350.9,1124.15 L350.9,1126.69 L368.774,1126.69 L368.774,1124.15 L367.694,1124.15 C364.67,1124.15 363.644,1123.99 363.212,1123.39 C362.888,1122.91 362.888,1122.8 362.888,1120.05 L362.888,1094.34 C362.888,1091.59 362.888,1091.48 363.212,1090.99 C363.644,1090.45 364.616,1090.29 367.694,1090.24 L368.774,1090.24 L368.774,1087.7 L350.9,1087.7 L350.9,1090.24 M395.927,1114.54 C395.981,1106.44 391.391,1100.71 384.803,1100.71 C377.891,1100.71 372.707,1106.71 372.707,1114.81 C372.707,1122.42 377.621,1127.5 384.911,1127.5 C390.095,1127.5 393.713,1124.96 395.927,1119.83 L394.037,1118.8 C391.823,1122.96 389.555,1124.58 385.937,1124.58 C383.183,1124.58 381.185,1123.45 379.781,1121.02 C378.809,1119.4 378.377,1117.51 378.431,1114.54 L395.927,1114.54 M378.485,1112.22 C378.485,1108.44 380.213,1103.04 384.749,1103.04 C387.989,1103.04 390.149,1105.9 390.149,1110.27 C390.149,1111.78 389.663,1112.22 387.935,1112.22 L378.485,1112.22 M408.509,1101.52 L398.951,1102.12 L398.951,1104.44 L401.165,1104.44 C403.217,1104.49 403.487,1104.82 403.487,1107.14 L403.487,1122.58 C403.433,1123.39 403.379,1123.72 403.163,1123.99 C402.785,1124.47 401.705,1124.69 399.383,1124.74 L399.167,1124.74 L399.167,1126.69 L413.585,1126.69 L413.585,1124.74 L412.613,1124.74 C408.995,1124.64 408.509,1124.37 408.509,1122.42 L408.509,1119.51 C408.563,1110.43 411.803,1103.52 416.015,1103.31 C415.259,1104.17 415.043,1104.71 415.043,1105.74 C415.043,1107.46 416.285,1108.71 418.013,1108.71 C420.011,1108.71 421.307,1107.25 421.307,1105.09 C421.307,1102.44 419.471,1100.71 416.609,1100.71 C413.207,1100.71 410.291,1103.41 408.509,1108.22 L408.509,1101.52 "/>
<path class="Lyrics" d="M858.084,1773.93 C856.356,1773.93 854.952,1775.34 854.952,1777.06 C854.952,1778.79 856.356,1780.2 858.03,1780.2 C859.812,1780.2 861.216,1778.79 861.216,1777.06 C861.216,1775.34 859.812,1773.93 858.084,1773.93 M860.622,1787.38 L850.47,1787.97 L850.47,1790.29 L853.224,1790.29 C855.276,1790.35 855.546,1790.67 855.546,1792.99 L855.546,1808.44 C855.492,1809.25 855.438,1809.57 855.222,1809.84 C854.844,1810.33 853.818,1810.54 851.496,1810.6 L851.118,1810.6 L851.118,1812.54 L865.104,1812.54 L865.104,1810.6 L864.726,1810.6 C861.108,1810.49 860.622,1810.22 860.622,1808.28 L860.622,1787.38 "/>
<path class="Lyrics" d="M646.229,400.182 L636.239,400.776 L636.239,403.098 L638.885,403.098 C640.883,403.152 641.153,403.476 641.153,405.798 L641.153,435.876 C641.099,436.686 641.045,437.01 640.829,437.28 C640.451,437.766 639.425,437.982 637.103,438.036 L636.725,438.036 L636.725,439.98 L650.711,439.98 L650.711,438.036 L650.333,438.036 C646.715,437.928 646.229,437.658 646.229,435.714 L646.229,400.182 M677.323,427.83 C677.377,419.73 672.787,414.006 666.199,414.006 C659.287,414.006 654.103,420 654.103,428.1 C654.103,435.714 659.017,440.79 666.307,440.79 C671.491,440.79 675.109,438.252 677.323,433.122 L675.433,432.096 C673.219,436.254 670.951,437.874 667.333,437.874 C664.579,437.874 662.581,436.74 661.177,434.31 C660.205,432.69 659.773,430.8 659.827,427.83 L677.323,427.83 M659.881,425.508 C659.881,421.728 661.609,416.328 666.145,416.328 C669.385,416.328 671.545,419.19 671.545,423.564 C671.545,425.076 671.059,425.508 669.331,425.508 L659.881,425.508 M700.111,432.042 C698.383,435.93 696.547,437.496 693.739,437.496 C689.419,437.496 686.719,433.554 686.719,427.236 C686.719,420.648 689.365,416.328 693.361,416.328 C694.981,416.328 696.385,417.084 696.385,417.948 C696.385,418.11 696.331,418.272 696.061,418.596 C695.197,419.622 694.981,420.162 694.981,421.08 C694.981,422.862 696.331,424.104 698.221,424.104 C700.165,424.104 701.515,422.592 701.515,420.432 C701.515,416.76 697.897,414.006 693.091,414.006 C686.071,414.006 681.049,419.73 681.049,427.83 C681.049,435.498 685.639,440.79 692.335,440.79 C697.141,440.79 699.895,438.576 702.217,432.852 L700.111,432.042 "/>
<path class="Lyrics" d="M739.489,433.446 L733.333,419.19 C733.171,418.758 733.063,418.326 733.063,418.002 C733.063,417.084 733.765,416.76 735.979,416.76 L736.735,416.76 L736.735,414.816 L723.991,414.816 L723.991,416.76 L724.423,416.76 C726.475,416.76 727.231,417.3 727.987,419.082 L737.275,440.79 L739.165,440.79 L746.833,421.836 C748.345,418.164 749.641,416.922 751.855,416.76 L752.071,416.76 L752.071,414.816 L741.271,414.816 L741.271,416.76 L742.027,416.76 C743.917,416.76 744.943,417.408 744.943,418.65 C744.943,419.298 744.781,420.108 744.457,420.918 L739.489,433.446 M762.207,401.37 C760.479,401.37 759.075,402.774 759.075,404.502 C759.075,406.23 760.479,407.634 762.153,407.634 C763.935,407.634 765.339,406.23 765.339,404.502 C765.339,402.774 763.935,401.37 762.207,401.37 M764.745,414.816 L754.593,415.41 L754.593,417.732 L757.347,417.732 C759.399,417.786 759.669,418.11 759.669,420.432 L759.669,435.876 C759.615,436.686 759.561,437.01 759.345,437.28 C758.967,437.766 757.941,437.982 755.619,438.036 L755.241,438.036 L755.241,439.98 L769.227,439.98 L769.227,438.036 L768.849,438.036 C765.231,437.928 764.745,437.658 764.745,435.714 L764.745,414.816 M781.421,414.816 L772.079,415.41 L772.079,417.732 L774.023,417.732 C776.075,417.786 776.345,418.11 776.345,420.432 L776.345,435.876 C776.291,436.686 776.237,437.01 776.021,437.28 C775.643,437.766 774.617,437.982 772.295,438.036 L772.079,438.036 L772.079,439.98 L785.741,439.98 L785.741,438.036 L785.525,438.036 C781.907,437.928 781.421,437.658 781.421,435.714 L781.421,427.722 C781.421,425.076 781.799,422.646 782.393,421.404 C783.527,418.974 785.957,417.3 788.279,417.3 C789.683,417.3 791.303,418.056 792.113,419.19 C792.923,420.378 793.301,421.998 793.301,424.59 L793.301,435.876 C793.247,436.686 793.193,437.01 792.977,437.28 C792.599,437.766 791.519,437.982 789.197,438.036 L788.981,438.036 L788.981,439.98 L802.643,439.98 L802.643,438.036 L802.427,438.036 C798.863,437.928 798.377,437.658 798.377,435.714 L798.377,424.86 C798.377,420.972 798.215,420 797.243,418.164 C795.893,415.572 793.193,414.006 789.953,414.006 C786.443,414.006 783.797,415.626 781.421,419.19 L781.421,414.816 "/>
<path class="Lyrics" d="M737.14,1450.76 L727.798,1451.36 L727.798,1453.68 L729.742,1453.68 C731.794,1453.73 732.064,1454.06 732.064,1456.38 L732.064,1471.82 C732.01,1472.63 731.956,1472.96 731.74,1473.23 C731.362,1473.71 730.336,1473.93 728.014,1473.98 L727.798,1473.98 L727.798,1475.93 L741.46,1475.93 L741.46,1473.98 L741.244,1473.98 C737.626,1473.88 737.14,1473.61 737.14,1471.66 L737.14,1463.67 C737.14,1461.02 737.518,1458.59 738.112,1457.35 C739.246,1454.92 741.676,1453.25 743.998,1453.25 C745.402,1453.25 747.022,1454 747.832,1455.14 C748.642,1456.33 749.02,1457.95 749.02,1460.54 L749.02,1471.82 C748.966,1472.63 748.912,1472.96 748.696,1473.23 C748.318,1473.71 747.238,1473.93 744.916,1473.98 L744.7,1473.98 L744.7,1475.93 L758.362,1475.93 L758.362,1473.98 L758.146,1473.98 C754.582,1473.88 754.096,1473.61 754.096,1471.66 L754.096,1460.81 C754.096,1456.92 753.934,1455.95 752.962,1454.11 C751.612,1451.52 748.912,1449.95 745.672,1449.95 C742.162,1449.95 739.516,1451.57 737.14,1455.14 L737.14,1450.76 M767.91,1437.32 C766.182,1437.32 764.778,1438.72 764.778,1440.45 C764.778,1442.18 766.182,1443.58 767.856,1443.58 C769.638,1443.58 771.042,1442.18 771.042,1440.45 C771.042,1438.72 769.638,1437.32 767.91,1437.32 M770.448,1450.76 L760.296,1451.36 L760.296,1453.68 L763.05,1453.68 C765.102,1453.73 765.372,1454.06 765.372,1456.38 L765.372,1471.82 C765.318,1472.63 765.264,1472.96 765.048,1473.23 C764.67,1473.71 763.644,1473.93 761.322,1473.98 L760.944,1473.98 L760.944,1475.93 L774.93,1475.93 L774.93,1473.98 L774.552,1473.98 C770.934,1473.88 770.448,1473.61 770.448,1471.66 L770.448,1450.76 M797.384,1450.17 L795.494,1450.17 L793.928,1452.11 C791.984,1450.6 790.04,1449.95 787.34,1449.95 C782.588,1449.95 779.456,1453.03 779.456,1457.78 C779.456,1462.86 782.75,1464.16 787.07,1465.18 L789.932,1465.83 C794.198,1466.86 795.71,1467.94 795.71,1470.1 C795.71,1472.63 793.496,1474.42 790.364,1474.42 C785.774,1474.42 782.534,1471.5 781.238,1466.1 L779.078,1466.1 L779.078,1476.31 L780.968,1476.31 L782.858,1474.09 C785.072,1475.87 787.502,1476.74 790.256,1476.74 C795.548,1476.74 799.058,1473.44 799.058,1468.42 C799.058,1466.05 798.302,1464.21 796.79,1462.97 C795.494,1461.83 794.414,1461.4 791.12,1460.7 L788.42,1460.11 C785.45,1459.46 785.45,1459.46 784.478,1458.92 C783.29,1458.38 782.588,1457.24 782.588,1456.06 C782.588,1453.84 784.64,1452.33 787.61,1452.33 C792.038,1452.33 794.198,1455.46 795.494,1459.24 L797.384,1459.24 L797.384,1450.17 "/>
<path class="Lyrics" d="M721.803,1787.38 L712.191,1787.97 L712.191,1790.29 L714.405,1790.29 C716.457,1790.35 716.727,1790.67 716.727,1792.99 L716.727,1808.44 C716.673,1809.25 716.619,1809.57 716.403,1809.84 C716.025,1810.33 714.999,1810.54 712.677,1810.6 L712.461,1810.6 L712.461,1812.54 L726.069,1812.54 L726.069,1810.6 L725.853,1810.6 C722.289,1810.49 721.803,1810.22 721.803,1808.22 L721.803,1798.23 C721.803,1793.43 724.449,1789.86 727.959,1789.86 C731.037,1789.86 732.603,1792.08 732.603,1796.45 L732.603,1808.49 C732.549,1809.19 732.495,1809.57 732.225,1809.84 C731.901,1810.33 730.821,1810.54 728.499,1810.6 L728.283,1810.6 L728.283,1812.54 L741.945,1812.54 L741.945,1810.6 L741.729,1810.6 C738.165,1810.49 737.679,1810.22 737.679,1808.28 L737.679,1798.72 C737.679,1793.32 740.109,1789.86 743.889,1789.86 C746.967,1789.86 748.479,1792.18 748.479,1797.04 L748.479,1808.44 C748.425,1809.19 748.371,1809.57 748.101,1809.84 C747.777,1810.33 746.697,1810.54 744.375,1810.6 L744.159,1810.6 L744.159,1812.54 L757.821,1812.54 L757.821,1810.6 L757.605,1810.6 C754.041,1810.49 753.555,1810.22 753.555,1808.22 L753.555,1795.96 C753.555,1792.62 753.231,1791.48 751.827,1789.65 C750.261,1787.65 748.047,1786.57 745.455,1786.57 C741.945,1786.57 739.353,1788.24 737.031,1791.97 C736.113,1788.73 733.197,1786.57 729.579,1786.57 C726.285,1786.57 723.909,1788.13 721.803,1791.54 L721.803,1787.38 M781.197,1812.92 L791.025,1812.54 L791.025,1810.22 L789.675,1810.22 C786.543,1810.11 786.273,1809.79 786.273,1806.28 L786.273,1787.38 L776.121,1787.97 L776.121,1790.29 L778.875,1790.29 C780.927,1790.35 781.197,1790.67 781.197,1792.99 L781.197,1799.64 C781.197,1804.33 780.063,1810.06 774.123,1810.06 C772.449,1810.06 771.045,1809.46 770.343,1808.38 C769.641,1807.36 769.533,1806.82 769.533,1803.85 L769.533,1787.38 L760.083,1787.97 L760.083,1790.29 L762.135,1790.29 C764.187,1790.35 764.457,1790.67 764.457,1792.99 L764.457,1804.66 C764.457,1807.41 764.673,1808.65 765.483,1809.9 C766.941,1812.11 769.533,1813.35 772.773,1813.35 C776.337,1813.35 778.821,1811.89 781.197,1808.44 L781.197,1812.92 M812.994,1786.78 L811.104,1786.78 L809.538,1788.73 C807.594,1787.22 805.65,1786.57 802.95,1786.57 C798.198,1786.57 795.066,1789.65 795.066,1794.4 C795.066,1799.47 798.36,1800.77 802.68,1801.8 L805.542,1802.44 C809.808,1803.47 811.32,1804.55 811.32,1806.71 C811.32,1809.25 809.106,1811.03 805.974,1811.03 C801.384,1811.03 798.144,1808.11 796.848,1802.71 L794.688,1802.71 L794.688,1812.92 L796.578,1812.92 L798.468,1810.71 C800.682,1812.49 803.112,1813.35 805.866,1813.35 C811.158,1813.35 814.668,1810.06 814.668,1805.04 C814.668,1802.66 813.912,1800.82 812.4,1799.58 C811.104,1798.45 810.024,1798.02 806.73,1797.31 L804.03,1796.72 C801.06,1796.07 801.06,1796.07 800.088,1795.53 C798.9,1794.99 798.198,1793.86 798.198,1792.67 C798.198,1790.46 800.25,1788.94 803.22,1788.94 C807.648,1788.94 809.808,1792.08 811.104,1795.86 L812.994,1795.86 L812.994,1786.78 "/>
<path class="Lyrics" d="M827.628,1450.76 L818.07,1451.36 L818.07,1453.68 L820.284,1453.68 C822.336,1453.73 822.606,1454.06 822.606,1456.38 L822.606,1471.82 C822.552,1472.63 822.498,1472.96 822.282,1473.23 C821.904,1473.71 820.824,1473.93 818.502,1473.98 L818.286,1473.98 L818.286,1475.93 L832.704,1475.93 L832.704,1473.98 L831.732,1473.98 C828.114,1473.88 827.628,1473.61 827.628,1471.66 L827.628,1468.75 C827.682,1459.67 830.922,1452.76 835.134,1452.55 C834.378,1453.41 834.162,1453.95 834.162,1454.98 C834.162,1456.7 835.404,1457.95 837.132,1457.95 C839.13,1457.95 840.426,1456.49 840.426,1454.33 C840.426,1451.68 838.59,1449.95 835.728,1449.95 C832.326,1449.95 829.41,1452.65 827.628,1457.46 L827.628,1450.76 M865.686,1463.78 C865.74,1455.68 861.15,1449.95 854.562,1449.95 C847.65,1449.95 842.466,1455.95 842.466,1464.05 C842.466,1471.66 847.38,1476.74 854.67,1476.74 C859.854,1476.74 863.472,1474.2 865.686,1469.07 L863.796,1468.04 C861.582,1472.2 859.314,1473.82 855.696,1473.82 C852.942,1473.82 850.944,1472.69 849.54,1470.26 C848.568,1468.64 848.136,1466.75 848.19,1463.78 L865.686,1463.78 M848.244,1461.46 C848.244,1457.68 849.972,1452.28 854.508,1452.28 C857.748,1452.28 859.908,1455.14 859.908,1459.51 C859.908,1461.02 859.422,1461.46 857.694,1461.46 L848.244,1461.46 M888.096,1476.31 L897.492,1475.93 L897.492,1473.61 L896.52,1473.61 C893.442,1473.44 893.172,1473.12 893.172,1469.66 L893.172,1436.13 L882.588,1436.72 L882.588,1439.05 L885.774,1439.05 C887.826,1439.1 888.096,1439.42 888.096,1441.75 L888.096,1453.95 C886.098,1451.2 883.776,1449.95 880.644,1449.95 C874.542,1449.95 869.898,1455.84 869.898,1463.62 C869.898,1471.28 874.38,1476.74 880.644,1476.74 C884.046,1476.74 886.368,1475.28 888.096,1472.04 L888.096,1476.31 M881.724,1452.87 C883.938,1452.87 886.044,1454.49 887.016,1456.97 C887.718,1458.59 888.042,1460.81 888.042,1463.45 C888.042,1469.77 885.558,1473.82 881.67,1473.82 C877.836,1473.82 875.568,1470.26 875.568,1464.26 C875.568,1461.02 875.892,1458.59 876.594,1456.81 C877.512,1454.38 879.51,1452.87 881.724,1452.87"/>
<path class="Lyrics" d="M922.867,751.794 L922.867,741.102 L920.653,741.102 C920.113,748.122 917.737,751.686 913.363,752.01 L913.363,754.116 L917.791,754.116 L917.791,767.886 C917.791,771.666 917.899,773.016 918.439,774.258 C919.303,776.526 921.463,777.768 924.595,777.768 C929.455,777.768 932.587,774.096 932.587,768.372 C932.587,768.048 932.587,767.67 932.533,767.13 L930.265,767.13 C930.103,771.99 928.699,774.474 926.053,774.474 C924.811,774.474 923.731,773.826 923.353,772.908 C923.029,772.152 922.867,770.802 922.867,768.858 L922.867,754.116 L930.805,754.116 L930.805,751.794 L922.867,751.794 M955.592,777.336 L965.42,776.958 L965.42,774.636 L964.07,774.636 C960.938,774.528 960.668,774.204 960.668,770.694 L960.668,751.794 L950.516,752.388 L950.516,754.71 L953.27,754.71 C955.322,754.764 955.592,755.088 955.592,757.41 L955.592,764.052 C955.592,768.75 954.458,774.474 948.518,774.474 C946.844,774.474 945.44,773.88 944.738,772.8 C944.036,771.774 943.928,771.234 943.928,768.264 L943.928,751.794 L934.478,752.388 L934.478,754.71 L936.53,754.71 C938.582,754.764 938.852,755.088 938.852,757.41 L938.852,769.074 C938.852,771.828 939.068,773.07 939.878,774.312 C941.336,776.526 943.928,777.768 947.168,777.768 C950.732,777.768 953.216,776.31 955.592,772.854 L955.592,777.336 M977.02,751.794 L967.462,752.388 L967.462,754.71 L969.676,754.71 C971.728,754.764 971.998,755.088 971.998,757.41 L971.998,772.854 C971.944,773.664 971.89,773.988 971.674,774.258 C971.296,774.744 970.216,774.96 967.894,775.014 L967.678,775.014 L967.678,776.958 L982.096,776.958 L982.096,775.014 L981.124,775.014 C977.506,774.906 977.02,774.636 977.02,772.692 L977.02,769.776 C977.074,760.704 980.314,753.792 984.526,753.576 C983.77,754.44 983.554,754.98 983.554,756.006 C983.554,757.734 984.796,758.976 986.524,758.976 C988.522,758.976 989.818,757.518 989.818,755.358 C989.818,752.712 987.982,750.984 985.12,750.984 C981.718,750.984 978.802,753.684 977.02,758.49 L977.02,751.794 "/>
<path class="Lyrics" d="M948.098,1476.31 L957.494,1475.93 L957.494,1473.61 L956.522,1473.61 C953.444,1473.44 953.174,1473.12 953.174,1469.66 L953.174,1436.13 L942.59,1436.72 L942.59,1439.05 L945.776,1439.05 C947.828,1439.1 948.098,1439.42 948.098,1441.75 L948.098,1453.95 C946.1,1451.2 943.778,1449.95 940.646,1449.95 C934.544,1449.95 929.9,1455.84 929.9,1463.62 C929.9,1471.28 934.382,1476.74 940.646,1476.74 C944.048,1476.74 946.37,1475.28 948.098,1472.04 L948.098,1476.31 M941.726,1452.87 C943.94,1452.87 946.046,1454.49 947.018,1456.97 C947.72,1458.59 948.044,1460.81 948.044,1463.45 C948.044,1469.77 945.56,1473.82 941.672,1473.82 C937.838,1473.82 935.57,1470.26 935.57,1464.26 C935.57,1461.02 935.894,1458.59 936.596,1456.81 C937.514,1454.38 939.512,1452.87 941.726,1452.87 M967.149,1437.32 C965.421,1437.32 964.017,1438.72 964.017,1440.45 C964.017,1442.18 965.421,1443.58 967.095,1443.58 C968.877,1443.58 970.281,1442.18 970.281,1440.45 C970.281,1438.72 968.877,1437.32 967.149,1437.32 M969.687,1450.76 L959.535,1451.36 L959.535,1453.68 L962.289,1453.68 C964.341,1453.73 964.611,1454.06 964.611,1456.38 L964.611,1471.82 C964.557,1472.63 964.503,1472.96 964.287,1473.23 C963.909,1473.71 962.883,1473.93 960.561,1473.98 L960.183,1473.98 L960.183,1475.93 L974.169,1475.93 L974.169,1473.98 L973.791,1473.98 C970.173,1473.88 969.687,1473.61 969.687,1471.66 L969.687,1450.76 "/>
<path class="Lyrics" d="M851.999,737.16 L842.009,737.754 L842.009,740.076 L844.655,740.076 C846.653,740.13 846.923,740.454 846.923,742.776 L846.923,772.854 C846.869,773.664 846.815,773.988 846.599,774.258 C846.221,774.744 845.195,774.96 842.873,775.014 L842.495,775.014 L842.495,776.958 L856.481,776.958 L856.481,775.014 L856.103,775.014 C852.485,774.906 851.999,774.636 851.999,772.692 L851.999,737.16 M866.569,738.348 C864.841,738.348 863.437,739.752 863.437,741.48 C863.437,743.208 864.841,744.612 866.515,744.612 C868.297,744.612 869.701,743.208 869.701,741.48 C869.701,739.752 868.297,738.348 866.569,738.348 M869.107,751.794 L858.955,752.388 L858.955,754.71 L861.709,754.71 C863.761,754.764 864.031,755.088 864.031,757.41 L864.031,772.854 C863.977,773.664 863.923,773.988 863.707,774.258 C863.329,774.744 862.303,774.96 859.981,775.014 L859.603,775.014 L859.603,776.958 L873.589,776.958 L873.589,775.014 L873.211,775.014 C869.593,774.906 869.107,774.636 869.107,772.692 L869.107,751.794 "/>
<path class="Lyrics" d="M1017.12,1450.76 L1017.12,1440.07 L1014.9,1440.07 C1014.36,1447.09 1011.99,1450.66 1007.61,1450.98 L1007.61,1453.09 L1012.04,1453.09 L1012.04,1466.86 C1012.04,1470.64 1012.15,1471.99 1012.69,1473.23 C1013.55,1475.5 1015.71,1476.74 1018.85,1476.74 C1023.71,1476.74 1026.84,1473.07 1026.84,1467.34 C1026.84,1467.02 1026.84,1466.64 1026.78,1466.1 L1024.52,1466.1 C1024.35,1470.96 1022.95,1473.44 1020.3,1473.44 C1019.06,1473.44 1017.98,1472.8 1017.6,1471.88 C1017.28,1471.12 1017.12,1469.77 1017.12,1467.83 L1017.12,1453.09 L1025.06,1453.09 L1025.06,1450.76 L1017.12,1450.76 M1049.84,1476.31 L1059.67,1475.93 L1059.67,1473.61 L1058.32,1473.61 C1055.19,1473.5 1054.92,1473.17 1054.92,1469.66 L1054.92,1450.76 L1044.77,1451.36 L1044.77,1453.68 L1047.52,1453.68 C1049.57,1453.73 1049.84,1454.06 1049.84,1456.38 L1049.84,1463.02 C1049.84,1467.72 1048.71,1473.44 1042.77,1473.44 C1041.1,1473.44 1039.69,1472.85 1038.99,1471.77 C1038.29,1470.74 1038.18,1470.2 1038.18,1467.23 L1038.18,1450.76 L1028.73,1451.36 L1028.73,1453.68 L1030.78,1453.68 C1032.83,1453.73 1033.1,1454.06 1033.1,1456.38 L1033.1,1468.04 C1033.1,1470.8 1033.32,1472.04 1034.13,1473.28 C1035.59,1475.5 1038.18,1476.74 1041.42,1476.74 C1044.98,1476.74 1047.47,1475.28 1049.84,1471.82 L1049.84,1476.31 M1071.27,1450.76 L1061.71,1451.36 L1061.71,1453.68 L1063.93,1453.68 C1065.98,1453.73 1066.25,1454.06 1066.25,1456.38 L1066.25,1471.82 C1066.2,1472.63 1066.14,1472.96 1065.93,1473.23 C1065.55,1473.71 1064.47,1473.93 1062.15,1473.98 L1061.93,1473.98 L1061.93,1475.93 L1076.35,1475.93 L1076.35,1473.98 L1075.38,1473.98 C1071.76,1473.88 1071.27,1473.61 1071.27,1471.66 L1071.27,1468.75 C1071.33,1459.67 1074.57,1452.76 1078.78,1452.55 C1078.02,1453.41 1077.81,1453.95 1077.81,1454.98 C1077.81,1456.7 1079.05,1457.95 1080.78,1457.95 C1082.77,1457.95 1084.07,1456.49 1084.07,1454.33 C1084.07,1451.68 1082.23,1449.95 1079.37,1449.95 C1075.97,1449.95 1073.05,1452.65 1071.27,1457.46 L1071.27,1450.76 "/>
<path class="Lyrics" d="M737.413,751.794 L728.071,752.388 L728.071,754.71 L730.015,754.71 C732.067,754.764 732.337,755.088 732.337,757.41 L732.337,783.816 C732.283,784.572 732.229,784.896 732.013,785.166 C731.635,785.652 730.609,785.868 728.287,785.922 L728.071,785.922 L728.071,787.866 L742.111,787.866 L742.111,785.922 L741.517,785.922 C737.899,785.814 737.413,785.544 737.413,783.6 L737.413,773.394 C739.195,776.526 741.193,777.768 744.541,777.768 C751.723,777.768 755.449,770.694 755.449,764.268 C755.449,758.166 751.723,750.984 744.865,750.984 C741.517,750.984 739.303,752.388 737.413,755.628 L737.413,751.794 M743.893,753.9 C747.619,753.9 749.779,757.626 749.779,763.944 C749.779,770.91 747.619,774.852 743.731,774.852 C739.843,774.852 737.359,770.856 737.359,764.646 C737.359,757.896 739.789,753.9 743.893,753.9 M782.653,764.808 C782.707,756.708 778.117,750.984 771.529,750.984 C764.617,750.984 759.433,756.978 759.433,765.078 C759.433,772.692 764.347,777.768 771.637,777.768 C776.821,777.768 780.439,775.23 782.653,770.1 L780.763,769.074 C778.549,773.232 776.281,774.852 772.663,774.852 C769.909,774.852 767.911,773.718 766.507,771.288 C765.535,769.668 765.103,767.778 765.157,764.808 L782.653,764.808 M765.211,762.486 C765.211,758.706 766.939,753.306 771.475,753.306 C774.715,753.306 776.875,756.168 776.875,760.542 C776.875,762.054 776.389,762.486 774.661,762.486 L765.211,762.486 M794.262,737.16 L784.272,737.754 L784.272,740.076 L786.918,740.076 C788.916,740.13 789.186,740.454 789.186,742.776 L789.186,772.854 C789.132,773.664 789.078,773.988 788.862,774.258 C788.484,774.744 787.458,774.96 785.136,775.014 L784.758,775.014 L784.758,776.958 L798.744,776.958 L798.744,775.014 L798.366,775.014 C794.748,774.906 794.262,774.636 794.262,772.692 L794.262,737.16 "/>
<path class="Lyrics" d="M857.974,432.042 C856.246,435.93 854.41,437.496 851.602,437.496 C847.282,437.496 844.582,433.554 844.582,427.236 C844.582,420.648 847.228,416.328 851.224,416.328 C852.844,416.328 854.248,417.084 854.248,417.948 C854.248,418.11 854.194,418.272 853.924,418.596 C853.06,419.622 852.844,420.162 852.844,421.08 C852.844,422.862 854.194,424.104 856.084,424.104 C858.028,424.104 859.378,422.592 859.378,420.432 C859.378,416.76 855.76,414.006 850.954,414.006 C843.934,414.006 838.912,419.73 838.912,427.83 C838.912,435.498 843.502,440.79 850.198,440.79 C855.004,440.79 857.758,438.576 860.08,432.852 L857.974,432.042 M869.631,401.37 C867.903,401.37 866.499,402.774 866.499,404.502 C866.499,406.23 867.903,407.634 869.577,407.634 C871.359,407.634 872.763,406.23 872.763,404.502 C872.763,402.774 871.359,401.37 869.631,401.37 M872.169,414.816 L862.017,415.41 L862.017,417.732 L864.771,417.732 C866.823,417.786 867.093,418.11 867.093,420.432 L867.093,435.876 C867.039,436.686 866.985,437.01 866.769,437.28 C866.391,437.766 865.365,437.982 863.043,438.036 L862.665,438.036 L862.665,439.98 L876.651,439.98 L876.651,438.036 L876.273,438.036 C872.655,437.928 872.169,437.658 872.169,435.714 L872.169,414.816 "/>
<path class="Lyrics" d="M922.867,414.816 L922.867,404.124 L920.653,404.124 C920.113,411.144 917.737,414.708 913.363,415.032 L913.363,417.138 L917.791,417.138 L917.791,430.908 C917.791,434.688 917.899,436.038 918.439,437.28 C919.303,439.548 921.463,440.79 924.595,440.79 C929.455,440.79 932.587,437.118 932.587,431.394 C932.587,431.07 932.587,430.692 932.533,430.152 L930.265,430.152 C930.103,435.012 928.699,437.496 926.053,437.496 C924.811,437.496 923.731,436.848 923.353,435.93 C923.029,435.174 922.867,433.824 922.867,431.88 L922.867,417.138 L930.805,417.138 L930.805,414.816 L922.867,414.816 M955.592,440.358 L965.42,439.98 L965.42,437.658 L964.07,437.658 C960.938,437.55 960.668,437.226 960.668,433.716 L960.668,414.816 L950.516,415.41 L950.516,417.732 L953.27,417.732 C955.322,417.786 955.592,418.11 955.592,420.432 L955.592,427.074 C955.592,431.772 954.458,437.496 948.518,437.496 C946.844,437.496 945.44,436.902 944.738,435.822 C944.036,434.796 943.928,434.256 943.928,431.286 L943.928,414.816 L934.478,415.41 L934.478,417.732 L936.53,417.732 C938.582,417.786 938.852,418.11 938.852,420.432 L938.852,432.096 C938.852,434.85 939.068,436.092 939.878,437.334 C941.336,439.548 943.928,440.79 947.168,440.79 C950.732,440.79 953.216,439.332 955.592,435.876 L955.592,440.358 M977.02,414.816 L967.462,415.41 L967.462,417.732 L969.676,417.732 C971.728,417.786 971.998,418.11 971.998,420.432 L971.998,435.876 C971.944,436.686 971.89,437.01 971.674,437.28 C971.296,437.766 970.216,437.982 967.894,438.036 L967.678,438.036 L967.678,439.98 L982.096,439.98 L982.096,438.036 L981.124,438.036 C977.506,437.928 977.02,437.658 977.02,435.714 L977.02,432.798 C977.074,423.726 980.314,416.814 984.526,416.598 C983.77,417.462 983.554,418.002 983.554,419.028 C983.554,420.756 984.796,421.998 986.524,421.998 C988.522,421.998 989.818,420.54 989.818,418.38 C989.818,415.734 987.982,414.006 985.12,414.006 C981.718,414.006 978.802,416.706 977.02,421.512 L977.02,414.816 "/>
<path class="Lyrics" d="M656.338,1772.74 L646.348,1773.34 L646.348,1775.66 L648.994,1775.66 C650.992,1775.71 651.262,1776.04 651.262,1778.36 L651.262,1808.44 C651.208,1809.25 651.154,1809.57 650.938,1809.84 C650.56,1810.33 649.534,1810.54 647.212,1810.6 L646.834,1810.6 L646.834,1812.54 L660.82,1812.54 L660.82,1810.6 L660.442,1810.6 C656.824,1810.49 656.338,1810.22 656.338,1808.28 L656.338,1772.74 M686.73,1795.15 C686.73,1791.75 686.136,1790.02 684.57,1788.73 C682.788,1787.27 680.142,1786.57 676.686,1786.57 C670.584,1786.57 666.156,1789.43 666.156,1793.37 C666.156,1795.37 667.398,1796.67 669.288,1796.67 C671.016,1796.67 672.204,1795.53 672.204,1793.91 C672.204,1793.21 671.934,1792.45 671.394,1791.7 C671.07,1791.32 671.016,1791.21 671.016,1790.94 C671.016,1789.86 673.176,1788.89 675.768,1788.89 C677.496,1788.89 679.386,1789.43 680.25,1790.24 C681.276,1791.1 681.654,1792.4 681.654,1794.83 L681.654,1796.94 C676.038,1797.91 674.256,1798.34 671.61,1799.37 C666.912,1801.09 664.698,1803.58 664.698,1807.03 C664.698,1810.92 667.722,1813.35 672.528,1813.35 C676.254,1813.35 679.602,1811.84 681.924,1809.09 C682.788,1811.84 684.138,1812.92 686.676,1812.92 C689.106,1812.92 691.644,1811.35 691.644,1809.79 C691.644,1809.41 691.428,1809.14 691.104,1809.14 C690.888,1809.14 690.672,1809.19 690.294,1809.36 C689.538,1809.68 689.214,1809.73 688.782,1809.73 C687.27,1809.73 686.73,1808.76 686.73,1806.01 L686.73,1795.15 M681.654,1801.74 C681.654,1804.98 681.492,1805.74 680.574,1807.14 C679.224,1809.14 676.794,1810.49 674.418,1810.49 C671.934,1810.49 670.152,1808.71 670.152,1806.28 C670.152,1804.01 671.286,1802.39 673.662,1801.26 C675.336,1800.5 677.442,1799.96 681.654,1799.26 L681.654,1801.74 "/>
<path class="Lyrics" d="M570.375,1804.6 C568.647,1808.49 566.811,1810.06 564.003,1810.06 C559.683,1810.06 556.983,1806.12 556.983,1799.8 C556.983,1793.21 559.629,1788.89 563.625,1788.89 C565.245,1788.89 566.649,1789.65 566.649,1790.51 C566.649,1790.67 566.595,1790.83 566.325,1791.16 C565.461,1792.18 565.245,1792.72 565.245,1793.64 C565.245,1795.42 566.595,1796.67 568.485,1796.67 C570.429,1796.67 571.779,1795.15 571.779,1792.99 C571.779,1789.32 568.161,1786.57 563.355,1786.57 C556.335,1786.57 551.313,1792.29 551.313,1800.39 C551.313,1808.06 555.903,1813.35 562.599,1813.35 C567.405,1813.35 570.159,1811.14 572.481,1805.41 L570.375,1804.6 M587.007,1786.57 C580.365,1786.57 575.235,1792.45 575.235,1800.01 C575.235,1807.41 580.419,1813.35 586.899,1813.35 C593.379,1813.35 598.563,1807.41 598.563,1799.96 C598.563,1792.56 593.379,1786.57 587.007,1786.57 M587.007,1788.89 C590.787,1788.89 592.893,1792.83 592.893,1799.96 C592.893,1807.14 590.787,1811.03 586.899,1811.03 C583.011,1811.03 580.905,1807.14 580.905,1800.01 C580.905,1792.67 582.957,1788.89 587.007,1788.89"/>
<path class="Lyrics" d="M467.647,1800.39 C467.701,1792.29 463.111,1786.57 456.523,1786.57 C449.611,1786.57 444.427,1792.56 444.427,1800.66 C444.427,1808.28 449.341,1813.35 456.631,1813.35 C461.815,1813.35 465.433,1810.81 467.647,1805.68 L465.757,1804.66 C463.543,1808.82 461.275,1810.44 457.657,1810.44 C454.903,1810.44 452.905,1809.3 451.501,1806.87 C450.529,1805.25 450.097,1803.36 450.151,1800.39 L467.647,1800.39 M450.205,1798.07 C450.205,1794.29 451.933,1788.89 456.469,1788.89 C459.709,1788.89 461.869,1791.75 461.869,1796.13 C461.869,1797.64 461.383,1798.07 459.655,1798.07 L450.205,1798.07 M480.391,1787.38 L470.779,1787.97 L470.779,1790.29 L472.993,1790.29 C475.045,1790.35 475.315,1790.67 475.315,1792.99 L475.315,1808.44 C475.261,1809.25 475.207,1809.57 474.991,1809.84 C474.613,1810.33 473.587,1810.54 471.265,1810.6 L471.049,1810.6 L471.049,1812.54 L484.657,1812.54 L484.657,1810.6 L484.441,1810.6 C480.877,1810.49 480.391,1810.22 480.391,1808.22 L480.391,1798.23 C480.391,1793.43 483.037,1789.86 486.547,1789.86 C489.625,1789.86 491.191,1792.08 491.191,1796.45 L491.191,1808.49 C491.137,1809.19 491.083,1809.57 490.813,1809.84 C490.489,1810.33 489.409,1810.54 487.087,1810.6 L486.871,1810.6 L486.871,1812.54 L500.533,1812.54 L500.533,1810.6 L500.317,1810.6 C496.753,1810.49 496.267,1810.22 496.267,1808.28 L496.267,1798.72 C496.267,1793.32 498.697,1789.86 502.477,1789.86 C505.555,1789.86 507.067,1792.18 507.067,1797.04 L507.067,1808.44 C507.013,1809.19 506.959,1809.57 506.689,1809.84 C506.365,1810.33 505.285,1810.54 502.963,1810.6 L502.747,1810.6 L502.747,1812.54 L516.409,1812.54 L516.409,1810.6 L516.193,1810.6 C512.629,1810.49 512.143,1810.22 512.143,1808.22 L512.143,1795.96 C512.143,1792.62 511.819,1791.48 510.415,1789.65 C508.849,1787.65 506.635,1786.57 504.043,1786.57 C500.533,1786.57 497.941,1788.24 495.619,1791.97 C494.701,1788.73 491.785,1786.57 488.167,1786.57 C484.873,1786.57 482.497,1788.13 480.391,1791.54 L480.391,1787.38 "/>
<path class="Lyrics" d="M638.094,772.962 C635.124,772.908 634.962,772.854 634.314,772.476 C633.936,772.26 633.666,771.666 633.666,771.072 C633.666,769.452 635.124,768.75 638.742,768.642 C643.818,768.534 644.628,768.426 646.464,767.616 C649.704,766.158 651.486,763.35 651.486,759.786 C651.486,757.626 651,756.276 649.542,754.494 C650.46,753.522 650.946,753.198 651.378,753.198 C651.648,753.198 651.81,753.36 651.918,753.954 C652.134,755.25 652.998,755.952 654.348,755.952 C655.752,755.952 656.778,754.818 656.778,753.36 C656.778,751.524 655.32,750.228 653.214,750.228 C651.486,750.228 650.514,750.768 648.03,753.036 C645.762,751.524 644.034,750.984 641.334,750.984 C634.908,750.984 630.696,754.548 630.696,759.948 C630.696,763.134 632.424,765.834 635.232,767.184 C631.614,767.994 630.102,769.614 630.102,772.584 C630.102,774.96 631.182,776.364 633.72,777.228 C630.372,778.47 628.752,780.144 628.752,782.358 C628.752,783.978 629.832,785.49 631.56,786.408 C633.666,787.488 636.258,787.92 640.146,787.92 C649.164,787.92 653.646,785.058 653.646,779.388 C653.646,776.688 652.404,774.528 650.46,773.718 C649.002,773.178 647.274,772.962 643.602,772.962 L638.094,772.962 M641.28,753.306 C644.628,753.306 646.518,755.628 646.518,759.84 C646.518,764.052 644.466,766.59 641.064,766.59 C637.716,766.59 635.61,764.052 635.61,760.002 C635.61,755.736 637.662,753.306 641.28,753.306 M640.794,777.606 C645.276,777.606 645.6,777.606 646.356,777.714 C648.57,777.93 649.866,779.118 649.866,780.846 C649.866,783.924 646.356,785.706 640.362,785.706 C635.772,785.706 633.234,784.356 633.234,781.926 C633.234,780.144 634.206,778.956 636.798,777.606 L640.794,777.606 M680.574,759.57 C680.574,756.168 679.98,754.44 678.414,753.144 C676.632,751.686 673.986,750.984 670.53,750.984 C664.428,750.984 660,753.846 660,757.788 C660,759.786 661.242,761.082 663.132,761.082 C664.86,761.082 666.048,759.948 666.048,758.328 C666.048,757.626 665.778,756.87 665.238,756.114 C664.914,755.736 664.86,755.628 664.86,755.358 C664.86,754.278 667.02,753.306 669.612,753.306 C671.34,753.306 673.23,753.846 674.094,754.656 C675.12,755.52 675.498,756.816 675.498,759.246 L675.498,761.352 C669.882,762.324 668.1,762.756 665.454,763.782 C660.756,765.51 658.542,767.994 658.542,771.45 C658.542,775.338 661.566,777.768 666.372,777.768 C670.098,777.768 673.446,776.256 675.768,773.502 C676.632,776.256 677.982,777.336 680.52,777.336 C682.95,777.336 685.488,775.77 685.488,774.204 C685.488,773.826 685.272,773.556 684.948,773.556 C684.732,773.556 684.516,773.61 684.138,773.772 C683.382,774.096 683.058,774.15 682.626,774.15 C681.114,774.15 680.574,773.178 680.574,770.424 L680.574,759.57 M675.498,766.158 C675.498,769.398 675.336,770.154 674.418,771.558 C673.068,773.556 670.638,774.906 668.262,774.906 C665.778,774.906 663.996,773.124 663.996,770.694 C663.996,768.426 665.13,766.806 667.506,765.672 C669.18,764.916 671.286,764.376 675.498,763.674 L675.498,766.158 M696.874,751.794 L687.316,752.388 L687.316,754.71 L689.53,754.71 C691.582,754.764 691.852,755.088 691.852,757.41 L691.852,772.854 C691.798,773.664 691.744,773.988 691.528,774.258 C691.15,774.744 690.07,774.96 687.748,775.014 L687.532,775.014 L687.532,776.958 L701.95,776.958 L701.95,775.014 L700.978,775.014 C697.36,774.906 696.874,774.636 696.874,772.692 L696.874,769.776 C696.928,760.704 700.168,753.792 704.38,753.576 C703.624,754.44 703.408,754.98 703.408,756.006 C703.408,757.734 704.65,758.976 706.378,758.976 C708.376,758.976 709.672,757.518 709.672,755.358 C709.672,752.712 707.836,750.984 704.974,750.984 C701.572,750.984 698.656,753.684 696.874,758.49 L696.874,751.794 "/>
<path class="Lyrics" d="M575.717,737.214 L573.449,737.214 L561.029,768.696 C559.571,772.908 558.167,774.204 555.089,774.42 L554.873,774.42 L554.873,776.958 L569.183,776.958 L569.183,774.42 L568.103,774.42 C565.187,774.42 563.729,773.394 563.729,771.342 C563.729,770.64 563.891,769.992 564.215,769.074 L565.997,764.322 L580.307,764.322 L583.223,771.558 C583.547,772.422 583.655,772.746 583.655,773.016 C583.655,773.88 582.305,774.42 580.307,774.42 L578.039,774.42 L578.039,776.958 L594.779,776.958 L594.779,774.42 L594.023,774.42 C591.215,774.366 590.729,774.042 589.487,770.964 L575.717,737.214 M573.071,746.07 L579.173,761.406 L567.077,761.406 L573.071,746.07 "/>
<path class="Lyrics" d="M452.295,751.794 L452.295,741.102 L450.081,741.102 C449.541,748.122 447.165,751.686 442.791,752.01 L442.791,754.116 L447.219,754.116 L447.219,767.886 C447.219,771.666 447.327,773.016 447.867,774.258 C448.731,776.526 450.891,777.768 454.023,777.768 C458.883,777.768 462.015,774.096 462.015,768.372 C462.015,768.048 462.015,767.67 461.961,767.13 L459.693,767.13 C459.531,771.99 458.127,774.474 455.481,774.474 C454.239,774.474 453.159,773.826 452.781,772.908 C452.457,772.152 452.295,770.802 452.295,768.858 L452.295,754.116 L460.233,754.116 L460.233,751.794 L452.295,751.794 M485.02,777.336 L494.848,776.958 L494.848,774.636 L493.498,774.636 C490.366,774.528 490.096,774.204 490.096,770.694 L490.096,751.794 L479.944,752.388 L479.944,754.71 L482.698,754.71 C484.75,754.764 485.02,755.088 485.02,757.41 L485.02,764.052 C485.02,768.75 483.886,774.474 477.946,774.474 C476.272,774.474 474.868,773.88 474.166,772.8 C473.464,771.774 473.356,771.234 473.356,768.264 L473.356,751.794 L463.906,752.388 L463.906,754.71 L465.958,754.71 C468.01,754.764 468.28,755.088 468.28,757.41 L468.28,769.074 C468.28,771.828 468.496,773.07 469.306,774.312 C470.764,776.526 473.356,777.768 476.596,777.768 C480.16,777.768 482.644,776.31 485.02,772.854 L485.02,777.336 M516.816,751.2 L514.926,751.2 L513.36,753.144 C511.416,751.632 509.472,750.984 506.772,750.984 C502.02,750.984 498.888,754.062 498.888,758.814 C498.888,763.89 502.182,765.186 506.502,766.212 L509.364,766.86 C513.63,767.886 515.142,768.966 515.142,771.126 C515.142,773.664 512.928,775.446 509.796,775.446 C505.206,775.446 501.966,772.53 500.67,767.13 L498.51,767.13 L498.51,777.336 L500.4,777.336 L502.29,775.122 C504.504,776.904 506.934,777.768 509.688,777.768 C514.98,777.768 518.49,774.474 518.49,769.452 C518.49,767.076 517.734,765.24 516.222,763.998 C514.926,762.864 513.846,762.432 510.552,761.73 L507.852,761.136 C504.882,760.488 504.882,760.488 503.91,759.948 C502.722,759.408 502.02,758.274 502.02,757.086 C502.02,754.872 504.072,753.36 507.042,753.36 C511.47,753.36 513.63,756.492 514.926,760.272 L516.816,760.272 L516.816,751.2 "/>
<path class="Lyrics" d="M382.587,1812.92 L391.983,1812.54 L391.983,1810.22 L391.011,1810.22 C387.933,1810.06 387.663,1809.73 387.663,1806.28 L387.663,1772.74 L377.079,1773.34 L377.079,1775.66 L380.265,1775.66 C382.317,1775.71 382.587,1776.04 382.587,1778.36 L382.587,1790.56 C380.589,1787.81 378.267,1786.57 375.135,1786.57 C369.033,1786.57 364.389,1792.45 364.389,1800.23 C364.389,1807.9 368.871,1813.35 375.135,1813.35 C378.537,1813.35 380.859,1811.89 382.587,1808.65 L382.587,1812.92 M376.215,1789.48 C378.429,1789.48 380.535,1791.1 381.507,1793.59 C382.209,1795.21 382.533,1797.42 382.533,1800.07 C382.533,1806.39 380.049,1810.44 376.161,1810.44 C372.327,1810.44 370.059,1806.87 370.059,1800.88 C370.059,1797.64 370.383,1795.21 371.085,1793.43 C372.003,1791 374.001,1789.48 376.215,1789.48 M401.637,1773.93 C399.909,1773.93 398.505,1775.34 398.505,1777.06 C398.505,1778.79 399.909,1780.2 401.583,1780.2 C403.365,1780.2 404.769,1778.79 404.769,1777.06 C404.769,1775.34 403.365,1773.93 401.637,1773.93 M404.175,1787.38 L394.023,1787.97 L394.023,1790.29 L396.777,1790.29 C398.829,1790.35 399.099,1790.67 399.099,1792.99 L399.099,1808.44 C399.045,1809.25 398.991,1809.57 398.775,1809.84 C398.397,1810.33 397.371,1810.54 395.049,1810.6 L394.671,1810.6 L394.671,1812.54 L408.657,1812.54 L408.657,1810.6 L408.279,1810.6 C404.661,1810.49 404.175,1810.22 404.175,1808.28 L404.175,1787.38 "/>
<polyline class="LyricsLineSegment" fill="none" stroke="#000000" stroke-width="2.69" stroke-linejoin="bevel" points="798.313,1114.34 814.471,1114.34" />
<polyline class="LyricsLineSegment" fill="none" stroke="#000000" stroke-width="2.69" stroke-linejoin="bevel" points="418.473,1800.19 434.631,1800.19" />
<polyline class="LyricsLineSegment" fill="none" stroke="#000000" stroke-width="2.69" stroke-linejoin="bevel" points="542.204,1463.58 555.865,1463.58" />
<polyline class="LyricsLineSegment" fill="none" stroke="#000000" stroke-width="2.69" stroke-linejoin="bevel" points="616.727,427.631 632.885,427.631" />
<polyline class="LyricsLineSegment" fill="none" stroke="#000000" stroke-width="2.69" stroke-linejoin="bevel" points="616.11,1463.58 632.267,1463.58" />
<polyline class="LyricsLineSegment" fill="none" stroke="#000000" stroke-width="2.69" stroke-linejoin="bevel" points="510.737,427.631 526.894,427.631" />
<polyline class="LyricsLineSegment" fill="none" stroke="#000000" stroke-width="2.69" stroke-linejoin="bevel" points="905.631,1463.58 921.789,1463.58" />
<polyline class="LyricsLineSegment" fill="none" stroke="#000000" stroke-width="2.69" stroke-linejoin="bevel" points="886.948,427.631 903.105,427.631" />
<polyline class="LyricsLineSegment" fill="none" stroke="#000000" stroke-width="2.69" stroke-linejoin="bevel" points="697.35,1463.58 713.508,1463.58" />
<polyline class="LyricsLineSegment" fill="none" stroke="#000000" stroke-width="2.69" stroke-linejoin="bevel" points="982.829,1463.58 998.986,1463.58" />
<polyline class="LyricsLineSegment" fill="none" stroke="#000000" stroke-width="2.69" stroke-linejoin="bevel" points="603.887,764.609 620.045,764.609" />
<polyline class="LyricsLineSegment" fill="none" stroke="#000000" stroke-width="2.69" stroke-linejoin="bevel" points="421.954,764.609 438.111,764.609" />
<polyline class="LyricsLineSegment" fill="none" stroke="#000000" stroke-width="2.69" stroke-linejoin="bevel" points="885.401,764.609 901.558,764.609" />
<polyline class="LyricsLineSegment" fill="none" stroke="#000000" stroke-width="2.69" stroke-linejoin="bevel" points="812.43,764.609 828.588,764.609" />
<polyline class="LyricsLineSegment" fill="none" stroke="#000000" stroke-width="2.69" stroke-linejoin="bevel" points="427.122,1114.34 443.279,1114.34" />
<polyline class="LyricsLineSegment" fill="none" stroke="#000000" stroke-width="2.69" stroke-linejoin="bevel" points="604.231,1114.34 620.389,1114.34" />
<polyline class="LyricsLineSegment" fill="none" stroke="#000000" stroke-width="2.69" stroke-linejoin="bevel" points="983.032,1114.34 999.189,1114.34" />
<polyline class="LyricsLineSegment" fill="none" stroke="#000000" stroke-width="2.69" stroke-linejoin="bevel" points="895.686,1114.34 911.844,1114.34" />
<polyline class="LyricsLineSegment" fill="none" stroke="#000000" stroke-width="2.69" stroke-linejoin="bevel" points="523.323,1114.34 539.48,1114.34" />
<polyline class="LyricsLineSegment" fill="none" stroke="#000000" stroke-width="2.69" stroke-linejoin="bevel" points="694.135,1800.19 710.293,1800.19" />
<polyline class="LyricsLineSegment" fill="none" stroke="#000000" stroke-width="2.69" stroke-linejoin="bevel" points="889.659,1800.19 905.816,1800.19" />
<polyline class="LyricsLineSegment" fill="none" stroke="#000000" stroke-width="2.69" stroke-linejoin="bevel" points="982.598,1800.19 998.756,1800.19" />
<polyline class="LyricsLineSegment" fill="none" stroke="#000000" stroke-width="2.69" stroke-linejoin="bevel" points="614.477,1800.19 630.635,1800.19" />
<polyline class="LyricsLineSegment" fill="none" stroke="#000000" stroke-width="2.69" stroke-linejoin="bevel" points="812.926,427.631 829.084,427.631" />
</svg>
