<?xml version="1.0" encoding="UTF-8" standalone="no"?>
<svg width="210.058mm" height="296.926mm" viewBox="0 0 2977.2 4208.4"
 xmlns="http://www.w3.org/2000/svg" xmlns:xlink="http://www.w3.org/1999/xlink" version="1.2" baseProfile="full">
<title>CB063_gb (5)</title>
<desc>Generated by MuseScore Studio 4.6.5</desc>
<polyline class="StaffLines" fill="none" stroke="#000000" stroke-width="2.96" stroke-linejoin="bevel" points="212.598,261.753 1128.59,261.753" />
<polyline class="StaffLines" fill="none" stroke="#000000" stroke-width="2.96" stroke-linejoin="bevel" points="212.598,288.682 1128.59,288.682" />
<polyline class="StaffLines" fill="none" stroke="#000000" stroke-width="2.96" stroke-linejoin="bevel" points="212.598,315.611 1128.59,315.611" />
<polyline class="StaffLines" fill="none" stroke="#000000" stroke-width="2.96" stroke-linejoin="bevel" points="212.598,342.54 1128.59,342.54" />
<polyline class="StaffLines" fill="none" stroke="#000000" stroke-width="2.96" stroke-linejoin="bevel" points="212.598,369.47 1128.59,369.47" />
<polyline class="StaffLines" fill="none" stroke="#000000" stroke-width="2.96" stroke-linejoin="bevel" points="212.598,773.407 1249.82,773.407" />
<polyline class="StaffLines" fill="none" stroke="#000000" stroke-width="2.96" stroke-linejoin="bevel" points="212.598,800.336 1249.82,800.336" />
<polyline class="StaffLines" fill="none" stroke="#000000" stroke-width="2.96" stroke-linejoin="bevel" points="212.598,827.265 1249.82,827.265" />
<polyline class="StaffLines" fill="none" stroke="#000000" stroke-width="2.96" stroke-linejoin="bevel" points="212.598,854.194 1249.82,854.194" />
<polyline class="StaffLines" fill="none" stroke="#000000" stroke-width="2.96" stroke-linejoin="bevel" points="212.598,881.123 1249.82,881.123" />
<polyline class="StaffLines" fill="none" stroke="#000000" stroke-width="2.96" stroke-linejoin="bevel" points="212.598,1285.06 845.467,1285.06" />
<polyline class="StaffLines" fill="none" stroke="#000000" stroke-width="2.96" stroke-linejoin="bevel" points="212.598,1311.99 845.467,1311.99" />
<polyline class="StaffLines" fill="none" stroke="#000000" stroke-width="2.96" stroke-linejoin="bevel" points="212.598,1338.92 845.467,1338.92" />
<polyline class="StaffLines" fill="none" stroke="#000000" stroke-width="2.96" stroke-linejoin="bevel" points="212.598,1365.85 845.467,1365.85" />
<polyline class="StaffLines" fill="none" stroke="#000000" stroke-width="2.96" stroke-linejoin="bevel" points="212.598,1392.78 845.467,1392.78" />
<path class="BarLine" transform="matrix(1.07717,0,0,1.07717,794.689,1325.45)" d="M10.4,0 C10.4,-2.9 8.1,-5.3 5.2,-5.3 C2.3,-5.3 0,-2.9 0,0 C0,2.9 2.3,5.3 5.2,5.3 C8.1,5.3 10.4,2.9 10.4,0"/>
<path class="BarLine" transform="matrix(1.07717,0,0,1.07717,794.689,1352.38)" d="M10.4,0 C10.4,-2.9 8.1,-5.3 5.2,-5.3 C2.3,-5.3 0,-2.9 0,0 C0,2.9 2.3,5.3 5.2,5.3 C8.1,5.3 10.4,2.9 10.4,0"/>
<polyline class="BarLine" fill="none" stroke="#000000" stroke-width="4.85" stroke-linejoin="bevel" points="818.268,1283.58 818.268,1394.26" />
<polyline class="BarLine" fill="none" stroke="#000000" stroke-width="14.81" stroke-linejoin="bevel" points="838.061,1283.58 838.061,1394.26" />
<polyline class="BarLine" fill="none" stroke="#000000" stroke-width="4.85" stroke-linejoin="bevel" points="1247.4,771.925 1247.4,882.604" />
<path class="Note" transform="matrix(1.07717,0,0,1.07717,730.102,827.265)" d="M0,4.2 C0,8.5 3.1,13.3 11.2,13.3 C21.6,13.3 32.5,4.8 32.5,-4 C32.5,-9.9 27.5,-13.2 21.3,-13.2 C11.6,-13.2 0,-5 0,4.2"/>
<path class="Note" transform="matrix(1.07717,0,0,1.07717,411.1,827.265)" d="M0,4.2 C0,8.5 3.1,13.3 11.2,13.3 C21.6,13.3 32.5,4.8 32.5,-4 C32.5,-9.9 27.5,-13.2 21.3,-13.2 C11.6,-13.2 0,-5 0,4.2"/>
<path class="Note" transform="matrix(1.07717,0,0,1.07717,700.437,1365.85)" d="M0,4.2 C0,8.5 3.1,13.3 11.2,13.3 C21.6,13.3 32.5,4.8 32.5,-4 C32.5,-9.9 27.5,-13.2 21.3,-13.2 C11.6,-13.2 0,-5 0,4.2"/>
<path class="Note" transform="matrix(1.07717,0,0,1.07717,606.185,1365.85)" d="M0,4.2 C0,8.5 3.1,13.3 11.2,13.3 C21.6,13.3 32.5,4.8 32.5,-4 C32.5,-9.9 27.5,-13.2 21.3,-13.2 C11.6,-13.2 0,-5 0,4.2"/>
<path class="Note" transform="matrix(1.07717,0,0,1.07717,669.483,329.076)" d="M0,4.2 C0,8.5 3.1,13.3 11.2,13.3 C21.6,13.3 32.5,4.8 32.5,-4 C32.5,-9.9 27.5,-13.2 21.3,-13.2 C11.6,-13.2 0,-5 0,4.2"/>
<path class="Note" transform="matrix(1.07717,0,0,1.07717,507.24,1379.31)" d="M0,4.2 C0,8.5 3.1,13.3 11.2,13.3 C21.6,13.3 32.5,4.8 32.5,-4 C32.5,-9.9 27.5,-13.2 21.3,-13.2 C11.6,-13.2 0,-5 0,4.2"/>
<path class="Note" transform="matrix(1.07717,0,0,1.07717,411.1,1379.31)" d="M0,4.2 C0,8.5 3.1,13.3 11.2,13.3 C21.6,13.3 32.5,4.8 32.5,-4 C32.5,-9.9 27.5,-13.2 21.3,-13.2 C11.6,-13.2 0,-5 0,4.2"/>
<path class="Note" transform="matrix(1.07717,0,0,1.07717,842.575,342.54)" d="M0,4.2 C0,8.5 3.1,13.3 11.2,13.3 C21.6,13.3 32.5,4.8 32.5,-4 C32.5,-9.9 27.5,-13.2 21.3,-13.2 C11.6,-13.2 0,-5 0,4.2"/>
<path class="Note" transform="matrix(1.07717,0,0,1.07717,411.1,342.54)" d="M0,4.2 C0,8.5 3.1,13.3 11.2,13.3 C21.6,13.3 32.5,4.8 32.5,-4 C32.5,-9.9 27.5,-13.2 21.3,-13.2 C11.6,-13.2 0,-5 0,4.2"/>
<path class="Note" transform="matrix(1.07717,0,0,1.07717,1150.72,854.194)" d="M0,4.2 C0,8.5 3.1,13.3 11.2,13.3 C21.6,13.3 32.5,4.8 32.5,-4 C32.5,-9.9 27.5,-13.2 21.3,-13.2 C11.6,-13.2 0,-5 0,4.2"/>
<path class="Note" transform="matrix(1.07717,0,0,1.07717,936.827,342.54)" d="M0,4.2 C0,8.5 3.1,13.3 11.2,13.3 C21.6,13.3 32.5,4.8 32.5,-4 C32.5,-9.9 27.5,-13.2 21.3,-13.2 C11.6,-13.2 0,-5 0,4.2"/>
<path class="Note" transform="matrix(1.07717,0,0,1.07717,1106.3,867.658)" d="M0,4.2 C0,8.5 3.1,13.3 11.2,13.3 C21.6,13.3 32.5,4.8 32.5,-4 C32.5,-9.9 27.5,-13.2 21.3,-13.2 C11.6,-13.2 0,-5 0,4.2"/>
<path class="Note" transform="matrix(1.07717,0,0,1.07717,1061.89,854.194)" d="M0,4.2 C0,8.5 3.1,13.3 11.2,13.3 C21.6,13.3 32.5,4.8 32.5,-4 C32.5,-9.9 27.5,-13.2 21.3,-13.2 C11.6,-13.2 0,-5 0,4.2"/>
<path class="Note" transform="matrix(1.07717,0,0,1.07717,1034.33,329.076)" d="M0,4.2 C0,8.5 3.1,13.3 11.2,13.3 C21.6,13.3 32.5,4.8 32.5,-4 C32.5,-9.9 27.5,-13.2 21.3,-13.2 C11.6,-13.2 0,-5 0,4.2"/>
<path class="Note" transform="matrix(1.07717,0,0,1.07717,1017.47,840.729)" d="M0,4.2 C0,8.5 3.1,13.3 11.2,13.3 C21.6,13.3 32.5,4.8 32.5,-4 C32.5,-9.9 27.5,-13.2 21.3,-13.2 C11.6,-13.2 0,-5 0,4.2"/>
<path class="Note" transform="matrix(1.07717,0,0,1.07717,973.055,827.265)" d="M0,4.2 C0,8.5 3.1,13.3 11.2,13.3 C21.6,13.3 32.5,4.8 32.5,-4 C32.5,-9.9 27.5,-13.2 21.3,-13.2 C11.6,-13.2 0,-5 0,4.2"/>
<path class="Note" transform="matrix(1.07717,0,0,1.07717,606.648,315.611)" d="M0,4.2 C0,8.5 3.1,13.3 11.2,13.3 C21.6,13.3 32.5,4.8 32.5,-4 C32.5,-9.9 27.5,-13.2 21.3,-13.2 C11.6,-13.2 0,-5 0,4.2"/>
<path class="Note" transform="matrix(1.07717,0,0,1.07717,878.803,840.729)" d="M0,4.2 C0,8.5 3.1,13.3 11.2,13.3 C21.6,13.3 32.5,4.8 32.5,-4 C32.5,-9.9 27.5,-13.2 21.3,-13.2 C11.6,-13.2 0,-5 0,4.2"/>
<path class="Note" transform="matrix(1.07717,0,0,1.07717,512.396,342.54)" d="M0,4.2 C0,8.5 3.1,13.3 11.2,13.3 C21.6,13.3 32.5,4.8 32.5,-4 C32.5,-9.9 27.5,-13.2 21.3,-13.2 C11.6,-13.2 0,-5 0,4.2"/>
<path class="Note" transform="matrix(1.07717,0,0,1.07717,829.236,854.194)" d="M0,4.2 C0,8.5 3.1,13.3 11.2,13.3 C21.6,13.3 32.5,4.8 32.5,-4 C32.5,-9.9 27.5,-13.2 21.3,-13.2 C11.6,-13.2 0,-5 0,4.2"/>
<path class="Note" transform="matrix(1.07717,0,0,1.07717,779.669,840.729)" d="M0,4.2 C0,8.5 3.1,13.3 11.2,13.3 C21.6,13.3 32.5,4.8 32.5,-4 C32.5,-9.9 27.5,-13.2 21.3,-13.2 C11.6,-13.2 0,-5 0,4.2"/>
<path class="Note" transform="matrix(1.07717,0,0,1.07717,635.85,813.8)" d="M0,4.2 C0,8.5 3.1,13.3 11.2,13.3 C21.6,13.3 32.5,4.8 32.5,-4 C32.5,-9.9 27.5,-13.2 21.3,-13.2 C11.6,-13.2 0,-5 0,4.2"/>
<path class="Note" transform="matrix(1.07717,0,0,1.07717,573.015,800.336)" d="M0,4.2 C0,8.5 3.1,13.3 11.2,13.3 C21.6,13.3 32.5,4.8 32.5,-4 C32.5,-9.9 27.5,-13.2 21.3,-13.2 C11.6,-13.2 0,-5 0,4.2"/>
<path class="Note" transform="matrix(1.07717,0,0,1.07717,510.181,813.8)" d="M0,4.2 C0,8.5 3.1,13.3 11.2,13.3 C21.6,13.3 32.5,4.8 32.5,-4 C32.5,-9.9 27.5,-13.2 21.3,-13.2 C11.6,-13.2 0,-5 0,4.2"/>
<path class="Note" transform="matrix(1.07717,0,0,1.07717,732.317,342.54)" d="M0,4.2 C0,8.5 3.1,13.3 11.2,13.3 C21.6,13.3 32.5,4.8 32.5,-4 C32.5,-9.9 27.5,-13.2 21.3,-13.2 C11.6,-13.2 0,-5 0,4.2"/>
<path class="Clef" transform="matrix(1.07717,0,0,1.07717,232.795,342.54)" d="M36.2,21.2 C21.9,21.2 9.7,11.2 9.7,-3.9 C9.7,-16.1 18.3,-27 27.1,-34.7 C28.8,-36.1 30.4,-37.5 31.9,-39 C32.8,-33.6 33.5,-29 34.2,-24.8 C25.1,-22.2 18.9,-12.5 18.9,-3.2 C18.9,3.9 24.4,13.5 32.4,13.5 C33.2,13.5 34.1,13.1 34.1,12.1 C34.1,11.3 33.2,10.7 31.9,9.9 C28,7.6 25.8,4.9 25.8,0.1 C25.8,-6 30.4,-10.9 36.2,-12.3 L42,20.5 C40,20.9 38.2,21.2 36.2,21.2 M33.2,-82.2 C34.2,-86.2 38.7,-96.7 43.9,-96.7 C45.4,-96.7 47.9,-91.9 47.9,-84.9 C47.9,-74.6 40.1,-66.8 33.2,-59.9 C32.6,-63.9 32.1,-67.9 32.1,-72 C32.1,-75.8 32.5,-79.1 33.2,-82.2 M46.2,19.3 C44.1,7.4 41.4,-8.5 40.7,-12.9 C50.8,-12.9 55.1,-5.9 56,-1.1 C56.1,-0.3 56.3,0.8 56.3,2 C56.3,9.2 53.3,16.4 46.2,19.3 M32.3,87.7 C30.1,87.7 28.6,86.3 28.6,84.2 C28.6,82.2 29.5,80.6 31.2,79.6 C31.6,79.8 31.7,79.8 32,80 C33.2,80.6 33.2,80.6 33.4,80.8 C35.3,81.9 36.1,82.9 36.1,84.3 C36.1,86.2 34.5,87.7 32.3,87.7 M36.1,75.7 C34.6,74.9 34.2,74.7 33.9,74.5 L33.7,74.4 C32.2,73.5 31.7,72.8 31.7,71.6 C31.7,69.8 33.1,68.5 35.1,68.5 C37,68.5 38.2,69.7 38.2,71.8 C38.2,73.4 37.6,74.5 36.1,75.7 M64,-0.2 C64,-15.3 53.3,-25.5 38.7,-25.5 C37.7,-31.5 36.8,-37.4 35.9,-43 C46.4,-54.1 53.8,-66.7 53.8,-82.5 C53.8,-91.6 51,-99 49.3,-102.6 C46.9,-107.7 44,-111.2 42.3,-111.2 C41.6,-111.2 38.4,-110 35.2,-106.1 C28.7,-98.5 26.9,-85.8 26.9,-77.4 C26.9,-72 27.4,-67.1 29.1,-55.8 C29,-55.8 23.8,-50.5 21.7,-48.7 C12.6,-40.3 0,-28.1 0,-8.2 C0,10.6 16.3,25.3 34.9,25.3 C37.8,25.3 40.5,25 42.9,24.6 C44.7,34.1 45.9,41.2 45.9,46.5 C45.9,56.9 40.5,62.4 30.4,62.4 C28,62.4 25.9,61.9 25.7,61.8 C25.6,61.8 25.4,61.7 25.4,61.6 C25.4,61.4 25.6,61.3 25.9,61.2 C30.6,60.5 35.3,56.4 35.3,50.1 C35.3,44.7 31.2,39 23.7,39 C16.7,39 12.3,44.7 12.3,51.3 C12.3,57.9 17.3,66.6 30.8,66.6 C43.7,66.6 50,59.3 50,46.5 C50,42.6 49.4,38.1 48.4,32.4 C48.1,30.4 47.6,27.3 46.9,23.5 C56.7,20.2 64,10.1 64,-0.2 M42.3,71.7 C42.3,68 38.9,66.4 35.6,66.4 C31.4,66.4 27.3,69 27.3,73.5 C27.3,75.4 28,76.8 29.4,78.2 C26.8,79.2 24.2,81.2 24.2,84.3 C24.2,87.6 27.2,89.8 31.6,89.8 C37,89.8 40.8,86.8 40.8,82.5 C40.8,80.2 39.8,78.3 38,77 C40.9,75.7 42.3,74.1 42.3,71.7"/>
<path class="Clef" transform="matrix(1.07717,0,0,1.07717,232.795,1365.85)" d="M36.2,21.2 C21.9,21.2 9.7,11.2 9.7,-3.9 C9.7,-16.1 18.3,-27 27.1,-34.7 C28.8,-36.1 30.4,-37.5 31.9,-39 C32.8,-33.6 33.5,-29 34.2,-24.8 C25.1,-22.2 18.9,-12.5 18.9,-3.2 C18.9,3.9 24.4,13.5 32.4,13.5 C33.2,13.5 34.1,13.1 34.1,12.1 C34.1,11.3 33.2,10.7 31.9,9.9 C28,7.6 25.8,4.9 25.8,0.1 C25.8,-6 30.4,-10.9 36.2,-12.3 L42,20.5 C40,20.9 38.2,21.2 36.2,21.2 M33.2,-82.2 C34.2,-86.2 38.7,-96.7 43.9,-96.7 C45.4,-96.7 47.9,-91.9 47.9,-84.9 C47.9,-74.6 40.1,-66.8 33.2,-59.9 C32.6,-63.9 32.1,-67.9 32.1,-72 C32.1,-75.8 32.5,-79.1 33.2,-82.2 M46.2,19.3 C44.1,7.4 41.4,-8.5 40.7,-12.9 C50.8,-12.9 55.1,-5.9 56,-1.1 C56.1,-0.3 56.3,0.8 56.3,2 C56.3,9.2 53.3,16.4 46.2,19.3 M32.3,87.7 C30.1,87.7 28.6,86.3 28.6,84.2 C28.6,82.2 29.5,80.6 31.2,79.6 C31.6,79.8 31.7,79.8 32,80 C33.2,80.6 33.2,80.6 33.4,80.8 C35.3,81.9 36.1,82.9 36.1,84.3 C36.1,86.2 34.5,87.7 32.3,87.7 M36.1,75.7 C34.6,74.9 34.2,74.7 33.9,74.5 L33.7,74.4 C32.2,73.5 31.7,72.8 31.7,71.6 C31.7,69.8 33.1,68.5 35.1,68.5 C37,68.5 38.2,69.7 38.2,71.8 C38.2,73.4 37.6,74.5 36.1,75.7 M64,-0.2 C64,-15.3 53.3,-25.5 38.7,-25.5 C37.7,-31.5 36.8,-37.4 35.9,-43 C46.4,-54.1 53.8,-66.7 53.8,-82.5 C53.8,-91.6 51,-99 49.3,-102.6 C46.9,-107.7 44,-111.2 42.3,-111.2 C41.6,-111.2 38.4,-110 35.2,-106.1 C28.7,-98.5 26.9,-85.8 26.9,-77.4 C26.9,-72 27.4,-67.1 29.1,-55.8 C29,-55.8 23.8,-50.5 21.7,-48.7 C12.6,-40.3 0,-28.1 0,-8.2 C0,10.6 16.3,25.3 34.9,25.3 C37.8,25.3 40.5,25 42.9,24.6 C44.7,34.1 45.9,41.2 45.9,46.5 C45.9,56.9 40.5,62.4 30.4,62.4 C28,62.4 25.9,61.9 25.7,61.8 C25.6,61.8 25.4,61.7 25.4,61.6 C25.4,61.4 25.6,61.3 25.9,61.2 C30.6,60.5 35.3,56.4 35.3,50.1 C35.3,44.7 31.2,39 23.7,39 C16.7,39 12.3,44.7 12.3,51.3 C12.3,57.9 17.3,66.6 30.8,66.6 C43.7,66.6 50,59.3 50,46.5 C50,42.6 49.4,38.1 48.4,32.4 C48.1,30.4 47.6,27.3 46.9,23.5 C56.7,20.2 64,10.1 64,-0.2 M42.3,71.7 C42.3,68 38.9,66.4 35.6,66.4 C31.4,66.4 27.3,69 27.3,73.5 C27.3,75.4 28,76.8 29.4,78.2 C26.8,79.2 24.2,81.2 24.2,84.3 C24.2,87.6 27.2,89.8 31.6,89.8 C37,89.8 40.8,86.8 40.8,82.5 C40.8,80.2 39.8,78.3 38,77 C40.9,75.7 42.3,74.1 42.3,71.7"/>
<path class="Clef" transform="matrix(1.07717,0,0,1.07717,232.795,854.194)" d="M36.2,21.2 C21.9,21.2 9.7,11.2 9.7,-3.9 C9.7,-16.1 18.3,-27 27.1,-34.7 C28.8,-36.1 30.4,-37.5 31.9,-39 C32.8,-33.6 33.5,-29 34.2,-24.8 C25.1,-22.2 18.9,-12.5 18.9,-3.2 C18.9,3.9 24.4,13.5 32.4,13.5 C33.2,13.5 34.1,13.1 34.1,12.1 C34.1,11.3 33.2,10.7 31.9,9.9 C28,7.6 25.8,4.9 25.8,0.1 C25.8,-6 30.4,-10.9 36.2,-12.3 L42,20.5 C40,20.9 38.2,21.2 36.2,21.2 M33.2,-82.2 C34.2,-86.2 38.7,-96.7 43.9,-96.7 C45.4,-96.7 47.9,-91.9 47.9,-84.9 C47.9,-74.6 40.1,-66.8 33.2,-59.9 C32.6,-63.9 32.1,-67.9 32.1,-72 C32.1,-75.8 32.5,-79.1 33.2,-82.2 M46.2,19.3 C44.1,7.4 41.4,-8.5 40.7,-12.9 C50.8,-12.9 55.1,-5.9 56,-1.1 C56.1,-0.3 56.3,0.8 56.3,2 C56.3,9.2 53.3,16.4 46.2,19.3 M32.3,87.7 C30.1,87.7 28.6,86.3 28.6,84.2 C28.6,82.2 29.5,80.6 31.2,79.6 C31.6,79.8 31.7,79.8 32,80 C33.2,80.6 33.2,80.6 33.4,80.8 C35.3,81.9 36.1,82.9 36.1,84.3 C36.1,86.2 34.5,87.7 32.3,87.7 M36.1,75.7 C34.6,74.9 34.2,74.7 33.9,74.5 L33.7,74.4 C32.2,73.5 31.7,72.8 31.7,71.6 C31.7,69.8 33.1,68.5 35.1,68.5 C37,68.5 38.2,69.7 38.2,71.8 C38.2,73.4 37.6,74.5 36.1,75.7 M64,-0.2 C64,-15.3 53.3,-25.5 38.7,-25.5 C37.7,-31.5 36.8,-37.4 35.9,-43 C46.4,-54.1 53.8,-66.7 53.8,-82.5 C53.8,-91.6 51,-99 49.3,-102.6 C46.9,-107.7 44,-111.2 42.3,-111.2 C41.6,-111.2 38.4,-110 35.2,-106.1 C28.7,-98.5 26.9,-85.8 26.9,-77.4 C26.9,-72 27.4,-67.1 29.1,-55.8 C29,-55.8 23.8,-50.5 21.7,-48.7 C12.6,-40.3 0,-28.1 0,-8.2 C0,10.6 16.3,25.3 34.9,25.3 C37.8,25.3 40.5,25 42.9,24.6 C44.7,34.1 45.9,41.2 45.9,46.5 C45.9,56.9 40.5,62.4 30.4,62.4 C28,62.4 25.9,61.9 25.7,61.8 C25.6,61.8 25.4,61.7 25.4,61.6 C25.4,61.4 25.6,61.3 25.9,61.2 C30.6,60.5 35.3,56.4 35.3,50.1 C35.3,44.7 31.2,39 23.7,39 C16.7,39 12.3,44.7 12.3,51.3 C12.3,57.9 17.3,66.6 30.8,66.6 C43.7,66.6 50,59.3 50,46.5 C50,42.6 49.4,38.1 48.4,32.4 C48.1,30.4 47.6,27.3 46.9,23.5 C56.7,20.2 64,10.1 64,-0.2 M42.3,71.7 C42.3,68 38.9,66.4 35.6,66.4 C31.4,66.4 27.3,69 27.3,73.5 C27.3,75.4 28,76.8 29.4,78.2 C26.8,79.2 24.2,81.2 24.2,84.3 C24.2,87.6 27.2,89.8 31.6,89.8 C37,89.8 40.8,86.8 40.8,82.5 C40.8,80.2 39.8,78.3 38,77 C40.9,75.7 42.3,74.1 42.3,71.7"/>
<path class="KeySig" transform="matrix(1.07717,0,0,1.07717,321.914,315.611)" d="M13.2,-4 C13.2,3.9 9.1,8.1 3.3,12.7 L3.6,-6.8 C3.8,-7.7 5.3,-10.6 9.3,-10.6 C12.9,-10.6 13.2,-7.2 13.2,-5.1 L13.2,-4 M12,-15.5 C7,-15.5 4.1,-12.4 3.6,-11.8 L4,-43.9 C4,-44.7 3.4,-45.3 2.6,-45.3 L1.4,-45.3 C0.6,-45.3 0,-44.7 0,-43.9 L0.5,16.2 C0.5,17 1.1,17.6 1.9,17.6 C2.1,17.6 2.5,17.5 2.7,17.4 C11.3,13.1 20.3,4.9 20.3,-5.4 C20.3,-10.6 17.9,-15.5 12,-15.5"/>
<path class="KeySig" transform="matrix(1.07717,0,0,1.07717,321.914,827.265)" d="M13.2,-4 C13.2,3.9 9.1,8.1 3.3,12.7 L3.6,-6.8 C3.8,-7.7 5.3,-10.6 9.3,-10.6 C12.9,-10.6 13.2,-7.2 13.2,-5.1 L13.2,-4 M12,-15.5 C7,-15.5 4.1,-12.4 3.6,-11.8 L4,-43.9 C4,-44.7 3.4,-45.3 2.6,-45.3 L1.4,-45.3 C0.6,-45.3 0,-44.7 0,-43.9 L0.5,16.2 C0.5,17 1.1,17.6 1.9,17.6 C2.1,17.6 2.5,17.5 2.7,17.4 C11.3,13.1 20.3,4.9 20.3,-5.4 C20.3,-10.6 17.9,-15.5 12,-15.5"/>
<path class="KeySig" transform="matrix(1.07717,0,0,1.07717,321.914,1338.92)" d="M13.2,-4 C13.2,3.9 9.1,8.1 3.3,12.7 L3.6,-6.8 C3.8,-7.7 5.3,-10.6 9.3,-10.6 C12.9,-10.6 13.2,-7.2 13.2,-5.1 L13.2,-4 M12,-15.5 C7,-15.5 4.1,-12.4 3.6,-11.8 L4,-43.9 C4,-44.7 3.4,-45.3 2.6,-45.3 L1.4,-45.3 C0.6,-45.3 0,-44.7 0,-43.9 L0.5,16.2 C0.5,17 1.1,17.6 1.9,17.6 C2.1,17.6 2.5,17.5 2.7,17.4 C11.3,13.1 20.3,4.9 20.3,-5.4 C20.3,-10.6 17.9,-15.5 12,-15.5"/>
<path class="Lyrics" d="M422.503,496.469 C422.503,493.067 421.909,491.339 420.343,490.043 C418.561,488.585 415.915,487.883 412.459,487.883 C406.357,487.883 401.929,490.745 401.929,494.687 C401.929,496.685 403.171,497.981 405.061,497.981 C406.789,497.981 407.977,496.847 407.977,495.227 C407.977,494.525 407.707,493.769 407.167,493.013 C406.843,492.635 406.789,492.527 406.789,492.257 C406.789,491.177 408.949,490.205 411.541,490.205 C413.269,490.205 415.159,490.745 416.023,491.555 C417.049,492.419 417.427,493.715 417.427,496.145 L417.427,498.251 C411.811,499.223 410.029,499.655 407.383,500.681 C402.685,502.409 400.471,504.893 400.471,508.349 C400.471,512.237 403.495,514.667 408.301,514.667 C412.027,514.667 415.375,513.155 417.697,510.401 C418.561,513.155 419.911,514.235 422.449,514.235 C424.879,514.235 427.417,512.669 427.417,511.103 C427.417,510.725 427.201,510.455 426.877,510.455 C426.661,510.455 426.445,510.509 426.067,510.671 C425.311,510.995 424.987,511.049 424.555,511.049 C423.043,511.049 422.503,510.077 422.503,507.323 L422.503,496.469 M417.427,503.057 C417.427,506.297 417.265,507.053 416.347,508.457 C414.997,510.455 412.567,511.805 410.191,511.805 C407.707,511.805 405.925,510.023 405.925,507.593 C405.925,505.325 407.059,503.705 409.435,502.571 C411.109,501.815 413.215,501.275 417.427,500.573 L417.427,503.057 M437.831,474.059 L428.543,474.653 L428.543,476.975 L430.433,476.975 C432.485,477.029 432.755,477.353 432.755,479.675 L432.755,500.681 C432.755,508.187 432.431,512.291 431.783,514.613 L433.835,514.613 L436.481,510.401 C438.695,513.317 441.233,514.667 444.581,514.667 C451.277,514.667 456.191,508.943 456.191,501.113 C456.191,493.337 451.655,487.883 445.175,487.883 C441.881,487.883 439.883,489.017 437.831,492.095 L437.831,474.059 M444.203,490.637 C448.253,490.637 450.521,494.579 450.521,501.653 C450.521,508.511 448.307,512.345 444.365,512.345 C440.099,512.345 437.561,508.403 437.561,501.761 C437.561,494.525 439.883,490.637 444.203,490.637"/>
<path class="Lyrics" d="M429.273,1433.82 L427.005,1433.82 L414.585,1465.3 C413.127,1469.51 411.723,1470.81 408.645,1471.03 L408.429,1471.03 L408.429,1473.56 L422.739,1473.56 L422.739,1471.03 L421.659,1471.03 C418.743,1471.03 417.285,1470 417.285,1467.95 C417.285,1467.25 417.447,1466.6 417.771,1465.68 L419.553,1460.93 L433.863,1460.93 L436.779,1468.16 C437.103,1469.03 437.211,1469.35 437.211,1469.62 C437.211,1470.49 435.861,1471.03 433.863,1471.03 L431.595,1471.03 L431.595,1473.56 L448.335,1473.56 L448.335,1471.03 L447.579,1471.03 C444.771,1470.97 444.285,1470.65 443.043,1467.57 L429.273,1433.82 M426.627,1442.68 L432.729,1458.01 L420.633,1458.01 L426.627,1442.68 "/>
<path class="Lyrics" d="M520.019,936.746 L520.019,933.668 C520.019,930.968 520.181,929.186 520.613,928.106 C521.477,925.73 523.367,924.272 525.527,924.272 C526.661,924.272 527.363,924.596 527.363,925.19 C527.363,925.406 527.363,925.46 527.039,925.892 C526.715,926.378 526.553,927.026 526.553,927.62 C526.553,929.24 527.849,930.482 529.523,930.482 C531.305,930.482 532.547,929.132 532.547,927.188 C532.547,924.056 529.847,922.112 525.473,922.112 C521.747,922.112 518.993,923.408 517.103,926.108 C515.483,928.376 514.943,930.698 514.943,935.072 L514.943,936.746 L510.191,936.746 L510.191,939.068 L514.943,939.068 L514.943,957.806 C514.889,958.562 514.835,958.886 514.619,959.21 C514.241,959.696 513.215,959.912 510.893,959.966 L510.677,959.966 L510.677,961.91 L525.095,961.91 L525.095,959.966 L524.123,959.966 C520.505,959.858 520.019,959.588 520.019,957.644 L520.019,939.068 L525.959,939.068 L525.959,936.746 L520.019,936.746 M550.022,962.288 L559.85,961.91 L559.85,959.588 L558.5,959.588 C555.368,959.48 555.098,959.156 555.098,955.646 L555.098,936.746 L544.946,937.34 L544.946,939.662 L547.7,939.662 C549.752,939.716 550.022,940.04 550.022,942.362 L550.022,949.004 C550.022,953.702 548.888,959.426 542.948,959.426 C541.274,959.426 539.87,958.832 539.168,957.752 C538.466,956.726 538.358,956.186 538.358,953.216 L538.358,936.746 L528.908,937.34 L528.908,939.662 L530.96,939.662 C533.012,939.716 533.282,940.04 533.282,942.362 L533.282,954.026 C533.282,956.78 533.498,958.022 534.308,959.264 C535.766,961.478 538.358,962.72 541.598,962.72 C545.162,962.72 547.646,961.262 550.022,957.806 L550.022,962.288 "/>
<path class="Lyrics" d="M520.181,985.712 L510.191,986.306 L510.191,988.628 L512.837,988.628 C514.835,988.682 515.105,989.006 515.105,991.328 L515.105,1021.41 C515.051,1022.22 514.997,1022.54 514.781,1022.81 C514.403,1023.3 513.377,1023.51 511.055,1023.57 L510.677,1023.57 L510.677,1025.51 L524.663,1025.51 L524.663,1023.57 L524.285,1023.57 C520.667,1023.46 520.181,1023.19 520.181,1021.24 L520.181,985.712 M534.751,986.9 C533.023,986.9 531.619,988.304 531.619,990.032 C531.619,991.76 533.023,993.164 534.697,993.164 C536.479,993.164 537.883,991.76 537.883,990.032 C537.883,988.304 536.479,986.9 534.751,986.9 M537.289,1000.35 L527.137,1000.94 L527.137,1003.26 L529.891,1003.26 C531.943,1003.32 532.213,1003.64 532.213,1005.96 L532.213,1021.41 C532.159,1022.22 532.105,1022.54 531.889,1022.81 C531.511,1023.3 530.485,1023.51 528.163,1023.57 L527.785,1023.57 L527.785,1025.51 L541.771,1025.51 L541.771,1023.57 L541.393,1023.57 C537.775,1023.46 537.289,1023.19 537.289,1021.24 L537.289,1000.35 "/>
<path class="Lyrics" d="M715.41,425.093 L706.068,425.687 L706.068,428.009 L708.012,428.009 C710.064,428.063 710.334,428.387 710.334,430.709 L710.334,446.153 C710.28,446.963 710.226,447.287 710.01,447.557 C709.632,448.043 708.606,448.259 706.284,448.313 L706.068,448.313 L706.068,450.257 L719.73,450.257 L719.73,448.313 L719.514,448.313 C715.896,448.205 715.41,447.935 715.41,445.991 L715.41,437.999 C715.41,435.353 715.788,432.923 716.382,431.681 C717.516,429.251 719.946,427.577 722.268,427.577 C723.672,427.577 725.292,428.333 726.102,429.467 C726.912,430.655 727.29,432.275 727.29,434.867 L727.29,446.153 C727.236,446.963 727.182,447.287 726.966,447.557 C726.588,448.043 725.508,448.259 723.186,448.313 L722.97,448.313 L722.97,450.257 L736.632,450.257 L736.632,448.313 L736.416,448.313 C732.852,448.205 732.366,447.935 732.366,445.991 L732.366,435.137 C732.366,431.249 732.204,430.277 731.232,428.441 C729.882,425.849 727.182,424.283 723.942,424.283 C720.432,424.283 717.786,425.903 715.41,429.467 L715.41,425.093 M759.842,450.635 L769.67,450.257 L769.67,447.935 L768.32,447.935 C765.188,447.827 764.918,447.503 764.918,443.993 L764.918,425.093 L754.766,425.687 L754.766,428.009 L757.52,428.009 C759.572,428.063 759.842,428.387 759.842,430.709 L759.842,437.351 C759.842,442.049 758.708,447.773 752.768,447.773 C751.094,447.773 749.69,447.179 748.988,446.099 C748.286,445.073 748.178,444.533 748.178,441.563 L748.178,425.093 L738.728,425.687 L738.728,428.009 L740.78,428.009 C742.832,428.063 743.102,428.387 743.102,430.709 L743.102,442.373 C743.102,445.127 743.318,446.369 744.128,447.611 C745.586,449.825 748.178,451.067 751.418,451.067 C754.982,451.067 757.466,449.609 759.842,446.153 L759.842,450.635 M791.638,424.499 L789.748,424.499 L788.182,426.443 C786.238,424.931 784.294,424.283 781.594,424.283 C776.842,424.283 773.71,427.361 773.71,432.113 C773.71,437.189 777.004,438.485 781.324,439.511 L784.186,440.159 C788.452,441.185 789.964,442.265 789.964,444.425 C789.964,446.963 787.75,448.745 784.618,448.745 C780.028,448.745 776.788,445.829 775.492,440.429 L773.332,440.429 L773.332,450.635 L775.222,450.635 L777.112,448.421 C779.326,450.203 781.756,451.067 784.51,451.067 C789.802,451.067 793.312,447.773 793.312,442.751 C793.312,440.375 792.556,438.539 791.044,437.297 C789.748,436.163 788.668,435.731 785.374,435.029 L782.674,434.435 C779.704,433.787 779.704,433.787 778.732,433.247 C777.544,432.707 776.842,431.573 776.842,430.385 C776.842,428.171 778.894,426.659 781.864,426.659 C786.292,426.659 788.452,429.791 789.748,433.571 L791.638,433.571 L791.638,424.499 "/>
<path class="Lyrics" d="M610.565,1448.4 L610.565,1445.32 C610.565,1442.62 610.727,1440.84 611.159,1439.76 C612.023,1437.38 613.913,1435.93 616.073,1435.93 C617.207,1435.93 617.909,1436.25 617.909,1436.84 C617.909,1437.06 617.909,1437.11 617.585,1437.55 C617.261,1438.03 617.099,1438.68 617.099,1439.27 C617.099,1440.89 618.395,1442.14 620.069,1442.14 C621.851,1442.14 623.093,1440.79 623.093,1438.84 C623.093,1435.71 620.393,1433.77 616.019,1433.77 C612.293,1433.77 609.539,1435.06 607.649,1437.76 C606.029,1440.03 605.489,1442.35 605.489,1446.73 L605.489,1448.4 L600.737,1448.4 L600.737,1450.72 L605.489,1450.72 L605.489,1469.46 C605.435,1470.22 605.381,1470.54 605.165,1470.86 C604.787,1471.35 603.761,1471.57 601.439,1471.62 L601.223,1471.62 L601.223,1473.56 L615.641,1473.56 L615.641,1471.62 L614.669,1471.62 C611.051,1471.51 610.565,1471.24 610.565,1469.3 L610.565,1450.72 L616.505,1450.72 L616.505,1448.4 L610.565,1448.4 M641.385,1456.18 C641.385,1452.77 640.791,1451.05 639.225,1449.75 C637.443,1448.29 634.797,1447.59 631.341,1447.59 C625.239,1447.59 620.811,1450.45 620.811,1454.39 C620.811,1456.39 622.053,1457.69 623.943,1457.69 C625.671,1457.69 626.859,1456.55 626.859,1454.93 C626.859,1454.23 626.589,1453.48 626.049,1452.72 C625.725,1452.34 625.671,1452.23 625.671,1451.96 C625.671,1450.88 627.831,1449.91 630.423,1449.91 C632.151,1449.91 634.041,1450.45 634.905,1451.26 C635.931,1452.13 636.309,1453.42 636.309,1455.85 L636.309,1457.96 C630.693,1458.93 628.911,1459.36 626.265,1460.39 C621.567,1462.12 619.353,1464.6 619.353,1468.06 C619.353,1471.94 622.377,1474.37 627.183,1474.37 C630.909,1474.37 634.257,1472.86 636.579,1470.11 C637.443,1472.86 638.793,1473.94 641.331,1473.94 C643.761,1473.94 646.299,1472.38 646.299,1470.81 C646.299,1470.43 646.083,1470.16 645.759,1470.16 C645.543,1470.16 645.327,1470.22 644.949,1470.38 C644.193,1470.7 643.869,1470.76 643.437,1470.76 C641.925,1470.76 641.385,1469.78 641.385,1467.03 L641.385,1456.18 M636.309,1462.76 C636.309,1466 636.147,1466.76 635.229,1468.16 C633.879,1470.16 631.449,1471.51 629.073,1471.51 C626.589,1471.51 624.807,1469.73 624.807,1467.3 C624.807,1465.03 625.941,1463.41 628.317,1462.28 C629.991,1461.52 632.097,1460.98 636.309,1460.28 L636.309,1462.76 "/>
<path class="Lyrics" d="M641.008,957.914 C638.038,957.86 637.876,957.806 637.228,957.428 C636.85,957.212 636.58,956.618 636.58,956.024 C636.58,954.404 638.038,953.702 641.656,953.594 C646.732,953.486 647.542,953.378 649.378,952.568 C652.618,951.11 654.4,948.302 654.4,944.738 C654.4,942.578 653.914,941.228 652.456,939.446 C653.374,938.474 653.86,938.15 654.292,938.15 C654.562,938.15 654.724,938.312 654.832,938.906 C655.048,940.202 655.912,940.904 657.262,940.904 C658.666,940.904 659.692,939.77 659.692,938.312 C659.692,936.476 658.234,935.18 656.128,935.18 C654.4,935.18 653.428,935.72 650.944,937.988 C648.676,936.476 646.948,935.936 644.248,935.936 C637.822,935.936 633.61,939.5 633.61,944.9 C633.61,948.086 635.338,950.786 638.146,952.136 C634.528,952.946 633.016,954.566 633.016,957.536 C633.016,959.912 634.096,961.316 636.634,962.18 C633.286,963.422 631.666,965.096 631.666,967.31 C631.666,968.93 632.746,970.442 634.474,971.36 C636.58,972.44 639.172,972.872 643.06,972.872 C652.078,972.872 656.56,970.01 656.56,964.34 C656.56,961.64 655.318,959.48 653.374,958.67 C651.916,958.13 650.188,957.914 646.516,957.914 L641.008,957.914 M644.194,938.258 C647.542,938.258 649.432,940.58 649.432,944.792 C649.432,949.004 647.38,951.542 643.978,951.542 C640.63,951.542 638.524,949.004 638.524,944.954 C638.524,940.688 640.576,938.258 644.194,938.258 M643.708,962.558 C648.19,962.558 648.514,962.558 649.27,962.666 C651.484,962.882 652.78,964.07 652.78,965.798 C652.78,968.876 649.27,970.658 643.276,970.658 C638.686,970.658 636.148,969.308 636.148,966.878 C636.148,965.096 637.12,963.908 639.712,962.558 L643.708,962.558 M667.994,923.3 C666.266,923.3 664.862,924.704 664.862,926.432 C664.862,928.16 666.266,929.564 667.94,929.564 C669.722,929.564 671.126,928.16 671.126,926.432 C671.126,924.704 669.722,923.3 667.994,923.3 M670.532,936.746 L660.38,937.34 L660.38,939.662 L663.134,939.662 C665.186,939.716 665.456,940.04 665.456,942.362 L665.456,957.806 C665.402,958.616 665.348,958.94 665.132,959.21 C664.754,959.696 663.728,959.912 661.406,959.966 L661.028,959.966 L661.028,961.91 L675.014,961.91 L675.014,959.966 L674.636,959.966 C671.018,959.858 670.532,959.588 670.532,957.644 L670.532,936.746 "/>
<path class="Lyrics" d="M653.525,1017.57 C651.797,1021.46 649.961,1023.03 647.153,1023.03 C642.833,1023.03 640.133,1019.08 640.133,1012.77 C640.133,1006.18 642.779,1001.86 646.775,1001.86 C648.395,1001.86 649.799,1002.61 649.799,1003.48 C649.799,1003.64 649.745,1003.8 649.475,1004.13 C648.611,1005.15 648.395,1005.69 648.395,1006.61 C648.395,1008.39 649.745,1009.63 651.635,1009.63 C653.579,1009.63 654.929,1008.12 654.929,1005.96 C654.929,1002.29 651.311,999.536 646.505,999.536 C639.485,999.536 634.463,1005.26 634.463,1013.36 C634.463,1021.03 639.053,1026.32 645.749,1026.32 C650.555,1026.32 653.309,1024.11 655.631,1018.38 L653.525,1017.57 M665.181,986.9 C663.453,986.9 662.049,988.304 662.049,990.032 C662.049,991.76 663.453,993.164 665.127,993.164 C666.909,993.164 668.313,991.76 668.313,990.032 C668.313,988.304 666.909,986.9 665.181,986.9 M667.719,1000.35 L657.567,1000.94 L657.567,1003.26 L660.321,1003.26 C662.373,1003.32 662.643,1003.64 662.643,1005.96 L662.643,1021.41 C662.589,1022.22 662.535,1022.54 662.319,1022.81 C661.941,1023.3 660.915,1023.51 658.593,1023.57 L658.215,1023.57 L658.215,1025.51 L672.201,1025.51 L672.201,1023.57 L671.823,1023.57 C668.205,1023.46 667.719,1023.19 667.719,1021.24 L667.719,1000.35 "/>
<path class="Lyrics" d="M509.044,425.093 L506.506,428.765 C504.346,425.741 501.7,424.283 498.298,424.283 C491.71,424.283 486.742,430.277 486.742,438.269 C486.742,445.667 491.386,451.067 497.704,451.067 C501.052,451.067 502.888,450.095 505.048,447.125 L505.048,457.115 C504.994,457.871 504.94,458.195 504.724,458.465 C504.346,458.951 503.32,459.167 500.944,459.221 L500.35,459.221 L500.35,461.165 L514.39,461.165 L514.39,459.221 L514.174,459.221 C510.61,459.113 510.124,458.843 510.124,456.899 L510.124,433.571 C510.178,430.493 510.178,430.277 510.178,429.683 C510.286,428.657 510.448,427.901 511.042,425.093 L509.044,425.093 M498.784,426.605 C500.944,426.605 502.888,428.009 503.914,430.277 C504.724,432.059 505.048,433.949 505.048,437.081 C505.048,444.479 502.996,448.151 498.784,448.151 C494.734,448.151 492.412,444.425 492.412,437.945 C492.412,430.331 494.518,426.605 498.784,426.605 M536.358,450.635 L546.186,450.257 L546.186,447.935 L544.836,447.935 C541.704,447.827 541.434,447.503 541.434,443.993 L541.434,425.093 L531.282,425.687 L531.282,428.009 L534.036,428.009 C536.088,428.063 536.358,428.387 536.358,430.709 L536.358,437.351 C536.358,442.049 535.224,447.773 529.284,447.773 C527.61,447.773 526.206,447.179 525.504,446.099 C524.802,445.073 524.694,444.533 524.694,441.563 L524.694,425.093 L515.244,425.687 L515.244,428.009 L517.296,428.009 C519.348,428.063 519.618,428.387 519.618,430.709 L519.618,442.373 C519.618,445.127 519.834,446.369 520.644,447.611 C522.102,449.825 524.694,451.067 527.934,451.067 C531.498,451.067 533.982,449.609 536.358,446.153 L536.358,450.635 M572.205,438.107 C572.259,430.007 567.669,424.283 561.081,424.283 C554.169,424.283 548.985,430.277 548.985,438.377 C548.985,445.991 553.899,451.067 561.189,451.067 C566.373,451.067 569.991,448.529 572.205,443.399 L570.315,442.373 C568.101,446.531 565.833,448.151 562.215,448.151 C559.461,448.151 557.463,447.017 556.059,444.587 C555.087,442.967 554.655,441.077 554.709,438.107 L572.205,438.107 M554.763,435.785 C554.763,432.005 556.491,426.605 561.027,426.605 C564.267,426.605 566.427,429.467 566.427,433.841 C566.427,435.353 565.941,435.785 564.213,435.785 L554.763,435.785 "/>
<path class="Lyrics" d="M739.609,936.746 L739.609,926.054 L737.395,926.054 C736.855,933.074 734.479,936.638 730.105,936.962 L730.105,939.068 L734.533,939.068 L734.533,952.838 C734.533,956.618 734.641,957.968 735.181,959.21 C736.045,961.478 738.205,962.72 741.337,962.72 C746.197,962.72 749.329,959.048 749.329,953.324 C749.329,953 749.329,952.622 749.275,952.082 L747.007,952.082 C746.845,956.942 745.441,959.426 742.795,959.426 C741.553,959.426 740.473,958.778 740.095,957.86 C739.771,957.104 739.609,955.754 739.609,953.81 L739.609,939.068 L747.547,939.068 L747.547,936.746 L739.609,936.746 M772.334,962.288 L782.162,961.91 L782.162,959.588 L780.812,959.588 C777.68,959.48 777.41,959.156 777.41,955.646 L777.41,936.746 L767.258,937.34 L767.258,939.662 L770.012,939.662 C772.064,939.716 772.334,940.04 772.334,942.362 L772.334,949.004 C772.334,953.702 771.2,959.426 765.26,959.426 C763.586,959.426 762.182,958.832 761.48,957.752 C760.778,956.726 760.67,956.186 760.67,953.216 L760.67,936.746 L751.22,937.34 L751.22,939.662 L753.272,939.662 C755.324,939.716 755.594,940.04 755.594,942.362 L755.594,954.026 C755.594,956.78 755.81,958.022 756.62,959.264 C758.078,961.478 760.67,962.72 763.91,962.72 C767.474,962.72 769.958,961.262 772.334,957.806 L772.334,962.288 M793.763,936.746 L784.205,937.34 L784.205,939.662 L786.419,939.662 C788.471,939.716 788.741,940.04 788.741,942.362 L788.741,957.806 C788.687,958.616 788.633,958.94 788.417,959.21 C788.039,959.696 786.959,959.912 784.637,959.966 L784.421,959.966 L784.421,961.91 L798.839,961.91 L798.839,959.966 L797.867,959.966 C794.249,959.858 793.763,959.588 793.763,957.644 L793.763,954.728 C793.817,945.656 797.057,938.744 801.269,938.528 C800.513,939.392 800.297,939.932 800.297,940.958 C800.297,942.686 801.539,943.928 803.267,943.928 C805.265,943.928 806.561,942.47 806.561,940.31 C806.561,937.664 804.725,935.936 801.863,935.936 C798.461,935.936 795.545,938.636 793.763,943.442 L793.763,936.746 "/>
<path class="Lyrics" d="M739.609,1000.35 L739.609,989.654 L737.395,989.654 C736.855,996.674 734.479,1000.24 730.105,1000.56 L730.105,1002.67 L734.533,1002.67 L734.533,1016.44 C734.533,1020.22 734.641,1021.57 735.181,1022.81 C736.045,1025.08 738.205,1026.32 741.337,1026.32 C746.197,1026.32 749.329,1022.65 749.329,1016.92 C749.329,1016.6 749.329,1016.22 749.275,1015.68 L747.007,1015.68 C746.845,1020.54 745.441,1023.03 742.795,1023.03 C741.553,1023.03 740.473,1022.38 740.095,1021.46 C739.771,1020.7 739.609,1019.35 739.609,1017.41 L739.609,1002.67 L747.547,1002.67 L747.547,1000.35 L739.609,1000.35 M772.334,1025.89 L782.162,1025.51 L782.162,1023.19 L780.812,1023.19 C777.68,1023.08 777.41,1022.76 777.41,1019.25 L777.41,1000.35 L767.258,1000.94 L767.258,1003.26 L770.012,1003.26 C772.064,1003.32 772.334,1003.64 772.334,1005.96 L772.334,1012.6 C772.334,1017.3 771.2,1023.03 765.26,1023.03 C763.586,1023.03 762.182,1022.43 761.48,1021.35 C760.778,1020.33 760.67,1019.79 760.67,1016.82 L760.67,1000.35 L751.22,1000.94 L751.22,1003.26 L753.272,1003.26 C755.324,1003.32 755.594,1003.64 755.594,1005.96 L755.594,1017.63 C755.594,1020.38 755.81,1021.62 756.62,1022.86 C758.078,1025.08 760.67,1026.32 763.91,1026.32 C767.474,1026.32 769.958,1024.86 772.334,1021.41 L772.334,1025.89 M793.925,1000.35 L784.313,1000.94 L784.313,1003.26 L786.527,1003.26 C788.579,1003.32 788.849,1003.64 788.849,1005.96 L788.849,1021.41 C788.795,1022.22 788.741,1022.54 788.525,1022.81 C788.147,1023.3 787.121,1023.51 784.799,1023.57 L784.583,1023.57 L784.583,1025.51 L798.191,1025.51 L798.191,1023.57 L797.975,1023.57 C794.411,1023.46 793.925,1023.19 793.925,1021.19 L793.925,1011.2 C793.925,1006.39 796.571,1002.83 800.081,1002.83 C803.159,1002.83 804.725,1005.04 804.725,1009.42 L804.725,1021.46 C804.671,1022.16 804.617,1022.54 804.347,1022.81 C804.023,1023.3 802.943,1023.51 800.621,1023.57 L800.405,1023.57 L800.405,1025.51 L814.067,1025.51 L814.067,1023.57 L813.851,1023.57 C810.287,1023.46 809.801,1023.19 809.801,1021.24 L809.801,1011.69 C809.801,1006.29 812.231,1002.83 816.011,1002.83 C819.089,1002.83 820.601,1005.15 820.601,1010.01 L820.601,1021.41 C820.547,1022.16 820.493,1022.54 820.223,1022.81 C819.899,1023.3 818.819,1023.51 816.497,1023.57 L816.281,1023.57 L816.281,1025.51 L829.943,1025.51 L829.943,1023.57 L829.727,1023.57 C826.163,1023.46 825.677,1023.19 825.677,1021.19 L825.677,1008.93 C825.677,1005.58 825.353,1004.45 823.949,1002.61 C822.383,1000.62 820.169,999.536 817.577,999.536 C814.067,999.536 811.475,1001.21 809.153,1004.94 C808.235,1001.7 805.319,999.536 801.701,999.536 C798.407,999.536 796.031,1001.1 793.925,1004.5 L793.925,1000.35 "/>
<path class="Lyrics" d="M392.147,962.288 L401.543,961.91 L401.543,959.588 L400.571,959.588 C397.493,959.426 397.223,959.102 397.223,955.646 L397.223,922.112 L386.639,922.706 L386.639,925.028 L389.825,925.028 C391.877,925.082 392.147,925.406 392.147,927.728 L392.147,939.932 C390.149,937.178 387.827,935.936 384.695,935.936 C378.593,935.936 373.949,941.822 373.949,949.598 C373.949,957.266 378.431,962.72 384.695,962.72 C388.097,962.72 390.419,961.262 392.147,958.022 L392.147,962.288 M385.775,938.852 C387.989,938.852 390.095,940.472 391.067,942.956 C391.769,944.576 392.093,946.79 392.093,949.436 C392.093,955.754 389.609,959.804 385.721,959.804 C381.887,959.804 379.619,956.24 379.619,950.246 C379.619,947.006 379.943,944.576 380.645,942.794 C381.563,940.364 383.561,938.852 385.775,938.852 M424.859,962.288 L434.687,961.91 L434.687,959.588 L433.337,959.588 C430.205,959.48 429.935,959.156 429.935,955.646 L429.935,936.746 L419.783,937.34 L419.783,939.662 L422.537,939.662 C424.589,939.716 424.859,940.04 424.859,942.362 L424.859,949.004 C424.859,953.702 423.725,959.426 417.785,959.426 C416.111,959.426 414.707,958.832 414.005,957.752 C413.303,956.726 413.195,956.186 413.195,953.216 L413.195,936.746 L403.745,937.34 L403.745,939.662 L405.797,939.662 C407.849,939.716 408.119,940.04 408.119,942.362 L408.119,954.026 C408.119,956.78 408.335,958.022 409.145,959.264 C410.603,961.478 413.195,962.72 416.435,962.72 C419.999,962.72 422.483,961.262 424.859,957.806 L424.859,962.288 M446.449,936.746 L436.837,937.34 L436.837,939.662 L439.051,939.662 C441.103,939.716 441.373,940.04 441.373,942.362 L441.373,957.806 C441.319,958.616 441.265,958.94 441.049,959.21 C440.671,959.696 439.645,959.912 437.323,959.966 L437.107,959.966 L437.107,961.91 L450.715,961.91 L450.715,959.966 L450.499,959.966 C446.935,959.858 446.449,959.588 446.449,957.59 L446.449,947.6 C446.449,942.794 449.095,939.23 452.605,939.23 C455.683,939.23 457.249,941.444 457.249,945.818 L457.249,957.86 C457.195,958.562 457.141,958.94 456.871,959.21 C456.547,959.696 455.467,959.912 453.145,959.966 L452.929,959.966 L452.929,961.91 L466.591,961.91 L466.591,959.966 L466.375,959.966 C462.811,959.858 462.325,959.588 462.325,957.644 L462.325,948.086 C462.325,942.686 464.755,939.23 468.535,939.23 C471.613,939.23 473.125,941.552 473.125,946.412 L473.125,957.806 C473.071,958.562 473.017,958.94 472.747,959.21 C472.423,959.696 471.343,959.912 469.021,959.966 L468.805,959.966 L468.805,961.91 L482.467,961.91 L482.467,959.966 L482.251,959.966 C478.687,959.858 478.201,959.588 478.201,957.59 L478.201,945.332 C478.201,941.984 477.877,940.85 476.473,939.014 C474.907,937.016 472.693,935.936 470.101,935.936 C466.591,935.936 463.999,937.61 461.677,941.336 C460.759,938.096 457.843,935.936 454.225,935.936 C450.931,935.936 448.555,937.502 446.449,940.904 L446.449,936.746 "/>
<path class="Lyrics" d="M735.317,488.693 L725.759,489.287 L725.759,491.609 L727.973,491.609 C730.025,491.663 730.295,491.987 730.295,494.309 L730.295,509.753 C730.241,510.563 730.187,510.887 729.971,511.157 C729.593,511.643 728.513,511.859 726.191,511.913 L725.975,511.913 L725.975,513.857 L740.393,513.857 L740.393,511.913 L739.421,511.913 C735.803,511.805 735.317,511.535 735.317,509.591 L735.317,506.675 C735.371,497.603 738.611,490.691 742.823,490.475 C742.067,491.339 741.851,491.879 741.851,492.905 C741.851,494.633 743.093,495.875 744.821,495.875 C746.819,495.875 748.115,494.417 748.115,492.257 C748.115,489.611 746.279,487.883 743.417,487.883 C740.015,487.883 737.099,490.583 735.317,495.389 L735.317,488.693 M773.376,501.707 C773.43,493.607 768.84,487.883 762.252,487.883 C755.34,487.883 750.156,493.877 750.156,501.977 C750.156,509.591 755.07,514.667 762.36,514.667 C767.544,514.667 771.162,512.129 773.376,506.999 L771.486,505.973 C769.272,510.131 767.004,511.751 763.386,511.751 C760.632,511.751 758.634,510.617 757.23,508.187 C756.258,506.567 755.826,504.677 755.88,501.707 L773.376,501.707 M755.934,499.385 C755.934,495.605 757.662,490.205 762.198,490.205 C765.438,490.205 767.598,493.067 767.598,497.441 C767.598,498.953 767.112,499.385 765.384,499.385 L755.934,499.385 "/>
<path class="Lyrics" d="M485.308,1448.4 L475.696,1448.99 L475.696,1451.32 L477.91,1451.32 C479.962,1451.37 480.232,1451.69 480.232,1454.02 L480.232,1469.46 C480.178,1470.27 480.124,1470.59 479.908,1470.86 C479.53,1471.35 478.504,1471.57 476.182,1471.62 L475.966,1471.62 L475.966,1473.56 L489.574,1473.56 L489.574,1471.62 L489.358,1471.62 C485.794,1471.51 485.308,1471.24 485.308,1469.24 L485.308,1459.25 C485.308,1454.45 487.954,1450.88 491.464,1450.88 C494.542,1450.88 496.108,1453.1 496.108,1457.47 L496.108,1469.51 C496.054,1470.22 496,1470.59 495.73,1470.86 C495.406,1471.35 494.326,1471.57 492.004,1471.62 L491.788,1471.62 L491.788,1473.56 L505.45,1473.56 L505.45,1471.62 L505.234,1471.62 C501.67,1471.51 501.184,1471.24 501.184,1469.3 L501.184,1459.74 C501.184,1454.34 503.614,1450.88 507.394,1450.88 C510.472,1450.88 511.984,1453.21 511.984,1458.07 L511.984,1469.46 C511.93,1470.22 511.876,1470.59 511.606,1470.86 C511.282,1471.35 510.202,1471.57 507.88,1471.62 L507.664,1471.62 L507.664,1473.56 L521.326,1473.56 L521.326,1471.62 L521.11,1471.62 C517.546,1471.51 517.06,1471.24 517.06,1469.24 L517.06,1456.99 C517.06,1453.64 516.736,1452.5 515.332,1450.67 C513.766,1448.67 511.552,1447.59 508.96,1447.59 C505.45,1447.59 502.858,1449.26 500.536,1452.99 C499.618,1449.75 496.702,1447.59 493.084,1447.59 C489.79,1447.59 487.414,1449.16 485.308,1452.56 L485.308,1448.4 M536.062,1447.59 C529.42,1447.59 524.29,1453.48 524.29,1461.04 C524.29,1468.43 529.474,1474.37 535.954,1474.37 C542.434,1474.37 547.618,1468.43 547.618,1460.98 C547.618,1453.58 542.434,1447.59 536.062,1447.59 M536.062,1449.91 C539.842,1449.91 541.948,1453.85 541.948,1460.98 C541.948,1468.16 539.842,1472.05 535.954,1472.05 C532.066,1472.05 529.96,1468.16 529.96,1461.04 C529.96,1453.69 532.012,1449.91 536.062,1449.91 M560.146,1448.4 L550.588,1448.99 L550.588,1451.32 L552.802,1451.32 C554.854,1451.37 555.124,1451.69 555.124,1454.02 L555.124,1469.46 C555.07,1470.27 555.016,1470.59 554.8,1470.86 C554.422,1471.35 553.342,1471.57 551.02,1471.62 L550.804,1471.62 L550.804,1473.56 L565.222,1473.56 L565.222,1471.62 L564.25,1471.62 C560.632,1471.51 560.146,1471.24 560.146,1469.3 L560.146,1466.38 C560.2,1457.31 563.44,1450.4 567.652,1450.18 C566.896,1451.05 566.68,1451.59 566.68,1452.61 C566.68,1454.34 567.922,1455.58 569.65,1455.58 C571.648,1455.58 572.944,1454.12 572.944,1451.96 C572.944,1449.32 571.108,1447.59 568.246,1447.59 C564.844,1447.59 561.928,1450.29 560.146,1455.1 L560.146,1448.4 "/>
<path class="Lyrics" d="M616.268,488.693 L606.656,489.287 L606.656,491.609 L608.87,491.609 C610.922,491.663 611.192,491.987 611.192,494.309 L611.192,509.753 C611.138,510.563 611.084,510.887 610.868,511.157 C610.49,511.643 609.464,511.859 607.142,511.913 L606.926,511.913 L606.926,513.857 L620.534,513.857 L620.534,511.913 L620.318,511.913 C616.754,511.805 616.268,511.535 616.268,509.537 L616.268,499.547 C616.268,494.741 618.914,491.177 622.424,491.177 C625.502,491.177 627.068,493.391 627.068,497.765 L627.068,509.807 C627.014,510.509 626.96,510.887 626.69,511.157 C626.366,511.643 625.286,511.859 622.964,511.913 L622.748,511.913 L622.748,513.857 L636.41,513.857 L636.41,511.913 L636.194,511.913 C632.63,511.805 632.144,511.535 632.144,509.591 L632.144,500.033 C632.144,494.633 634.574,491.177 638.354,491.177 C641.432,491.177 642.944,493.499 642.944,498.359 L642.944,509.753 C642.89,510.509 642.836,510.887 642.566,511.157 C642.242,511.643 641.162,511.859 638.84,511.913 L638.624,511.913 L638.624,513.857 L652.286,513.857 L652.286,511.913 L652.07,511.913 C648.506,511.805 648.02,511.535 648.02,509.537 L648.02,497.279 C648.02,493.931 647.696,492.797 646.292,490.961 C644.726,488.963 642.512,487.883 639.92,487.883 C636.41,487.883 633.818,489.557 631.496,493.283 C630.578,490.043 627.662,487.883 624.044,487.883 C620.75,487.883 618.374,489.449 616.268,492.851 L616.268,488.693 M667.022,487.883 C660.38,487.883 655.25,493.769 655.25,501.329 C655.25,508.727 660.434,514.667 666.914,514.667 C673.394,514.667 678.578,508.727 678.578,501.275 C678.578,493.877 673.394,487.883 667.022,487.883 M667.022,490.205 C670.802,490.205 672.908,494.147 672.908,501.275 C672.908,508.457 670.802,512.345 666.914,512.345 C663.026,512.345 660.92,508.457 660.92,501.329 C660.92,493.985 662.972,490.205 667.022,490.205"/>
<path class="Lyrics" d="M538.143,496.469 C538.143,493.067 537.549,491.339 535.983,490.043 C534.201,488.585 531.555,487.883 528.099,487.883 C521.997,487.883 517.569,490.745 517.569,494.687 C517.569,496.685 518.811,497.981 520.701,497.981 C522.429,497.981 523.617,496.847 523.617,495.227 C523.617,494.525 523.347,493.769 522.807,493.013 C522.483,492.635 522.429,492.527 522.429,492.257 C522.429,491.177 524.589,490.205 527.181,490.205 C528.909,490.205 530.799,490.745 531.663,491.555 C532.689,492.419 533.067,493.715 533.067,496.145 L533.067,498.251 C527.451,499.223 525.669,499.655 523.023,500.681 C518.325,502.409 516.111,504.893 516.111,508.349 C516.111,512.237 519.135,514.667 523.941,514.667 C527.667,514.667 531.015,513.155 533.337,510.401 C534.201,513.155 535.551,514.235 538.089,514.235 C540.519,514.235 543.057,512.669 543.057,511.103 C543.057,510.725 542.841,510.455 542.517,510.455 C542.301,510.455 542.085,510.509 541.707,510.671 C540.951,510.995 540.627,511.049 540.195,511.049 C538.683,511.049 538.143,510.077 538.143,507.323 L538.143,496.469 M533.067,503.057 C533.067,506.297 532.905,507.053 531.987,508.457 C530.637,510.455 528.207,511.805 525.831,511.805 C523.347,511.805 521.565,510.023 521.565,507.593 C521.565,505.325 522.699,503.705 525.075,502.571 C526.749,501.815 528.855,501.275 533.067,500.573 L533.067,503.057 "/>
<path class="Lyrics" d="M415.702,424.499 L413.812,424.499 L412.246,426.443 C410.302,424.931 408.358,424.283 405.658,424.283 C400.906,424.283 397.774,427.361 397.774,432.113 C397.774,437.189 401.068,438.485 405.388,439.511 L408.25,440.159 C412.516,441.185 414.028,442.265 414.028,444.425 C414.028,446.963 411.814,448.745 408.682,448.745 C404.092,448.745 400.852,445.829 399.556,440.429 L397.396,440.429 L397.396,450.635 L399.286,450.635 L401.176,448.421 C403.39,450.203 405.82,451.067 408.574,451.067 C413.866,451.067 417.376,447.773 417.376,442.751 C417.376,440.375 416.62,438.539 415.108,437.297 C413.812,436.163 412.732,435.731 409.438,435.029 L406.738,434.435 C403.768,433.787 403.768,433.787 402.796,433.247 C401.608,432.707 400.906,431.573 400.906,430.385 C400.906,428.171 402.958,426.659 405.928,426.659 C410.356,426.659 412.516,429.791 413.812,433.571 L415.702,433.571 L415.702,424.499 M428.228,411.647 C426.5,411.647 425.096,413.051 425.096,414.779 C425.096,416.507 426.5,417.911 428.174,417.911 C429.956,417.911 431.36,416.507 431.36,414.779 C431.36,413.051 429.956,411.647 428.228,411.647 M430.766,425.093 L420.614,425.687 L420.614,428.009 L423.368,428.009 C425.42,428.063 425.69,428.387 425.69,430.709 L425.69,446.153 C425.636,446.963 425.582,447.287 425.366,447.557 C424.988,448.043 423.962,448.259 421.64,448.313 L421.262,448.313 L421.262,450.257 L435.248,450.257 L435.248,448.313 L434.87,448.313 C431.252,448.205 430.766,447.935 430.766,445.991 L430.766,425.093 M457.54,442.319 C455.812,446.207 453.976,447.773 451.168,447.773 C446.848,447.773 444.148,443.831 444.148,437.513 C444.148,430.925 446.794,426.605 450.79,426.605 C452.41,426.605 453.814,427.361 453.814,428.225 C453.814,428.387 453.76,428.549 453.49,428.873 C452.626,429.899 452.41,430.439 452.41,431.357 C452.41,433.139 453.76,434.381 455.65,434.381 C457.594,434.381 458.944,432.869 458.944,430.709 C458.944,427.037 455.326,424.283 450.52,424.283 C443.5,424.283 438.478,430.007 438.478,438.107 C438.478,445.775 443.068,451.067 449.764,451.067 C454.57,451.067 457.324,448.853 459.646,443.129 L457.54,442.319 "/>
<path class="Lyrics" d="M414.046,999.752 L412.156,999.752 L410.59,1001.7 C408.646,1000.18 406.702,999.536 404.002,999.536 C399.25,999.536 396.118,1002.61 396.118,1007.37 C396.118,1012.44 399.412,1013.74 403.732,1014.76 L406.594,1015.41 C410.86,1016.44 412.372,1017.52 412.372,1019.68 C412.372,1022.22 410.158,1024 407.026,1024 C402.436,1024 399.196,1021.08 397.9,1015.68 L395.74,1015.68 L395.74,1025.89 L397.63,1025.89 L399.52,1023.67 C401.734,1025.46 404.164,1026.32 406.918,1026.32 C412.21,1026.32 415.72,1023.03 415.72,1018 C415.72,1015.63 414.964,1013.79 413.452,1012.55 C412.156,1011.42 411.076,1010.98 407.782,1010.28 L405.082,1009.69 C402.112,1009.04 402.112,1009.04 401.14,1008.5 C399.952,1007.96 399.25,1006.83 399.25,1005.64 C399.25,1003.42 401.302,1001.91 404.272,1001.91 C408.7,1001.91 410.86,1005.04 412.156,1008.82 L414.046,1008.82 L414.046,999.752 M431.594,999.536 C424.952,999.536 419.822,1005.42 419.822,1012.98 C419.822,1020.38 425.006,1026.32 431.486,1026.32 C437.966,1026.32 443.15,1020.38 443.15,1012.93 C443.15,1005.53 437.966,999.536 431.594,999.536 M431.594,1001.86 C435.374,1001.86 437.48,1005.8 437.48,1012.93 C437.48,1020.11 435.374,1024 431.486,1024 C427.598,1024 425.492,1020.11 425.492,1012.98 C425.492,1005.64 427.544,1001.86 431.594,1001.86 M456.002,985.712 L446.012,986.306 L446.012,988.628 L448.658,988.628 C450.656,988.682 450.926,989.006 450.926,991.328 L450.926,1021.41 C450.872,1022.22 450.818,1022.54 450.602,1022.81 C450.224,1023.3 449.198,1023.51 446.876,1023.57 L446.498,1023.57 L446.498,1025.51 L460.484,1025.51 L460.484,1023.57 L460.106,1023.57 C456.488,1023.46 456.002,1023.19 456.002,1021.24 L456.002,985.712 "/>
<path class="Lyrics" d="M881.184,936.746 L881.184,933.668 C881.184,930.968 881.346,929.186 881.778,928.106 C882.642,925.73 884.532,924.272 886.692,924.272 C887.826,924.272 888.528,924.596 888.528,925.19 C888.528,925.406 888.528,925.46 888.204,925.892 C887.88,926.378 887.718,927.026 887.718,927.62 C887.718,929.24 889.014,930.482 890.688,930.482 C892.47,930.482 893.712,929.132 893.712,927.188 C893.712,924.056 891.012,922.112 886.638,922.112 C882.912,922.112 880.158,923.408 878.268,926.108 C876.648,928.376 876.108,930.698 876.108,935.072 L876.108,936.746 L871.356,936.746 L871.356,939.068 L876.108,939.068 L876.108,957.806 C876.054,958.562 876,958.886 875.784,959.21 C875.406,959.696 874.38,959.912 872.058,959.966 L871.842,959.966 L871.842,961.91 L886.26,961.91 L886.26,959.966 L885.288,959.966 C881.67,959.858 881.184,959.588 881.184,957.644 L881.184,939.068 L887.124,939.068 L887.124,936.746 L881.184,936.746 M911.187,962.288 L921.015,961.91 L921.015,959.588 L919.665,959.588 C916.533,959.48 916.263,959.156 916.263,955.646 L916.263,936.746 L906.111,937.34 L906.111,939.662 L908.865,939.662 C910.917,939.716 911.187,940.04 911.187,942.362 L911.187,949.004 C911.187,953.702 910.053,959.426 904.113,959.426 C902.439,959.426 901.035,958.832 900.333,957.752 C899.631,956.726 899.523,956.186 899.523,953.216 L899.523,936.746 L890.073,937.34 L890.073,939.662 L892.125,939.662 C894.177,939.716 894.447,940.04 894.447,942.362 L894.447,954.026 C894.447,956.78 894.663,958.022 895.473,959.264 C896.931,961.478 899.523,962.72 902.763,962.72 C906.327,962.72 908.811,961.262 911.187,957.806 L911.187,962.288 "/>
<path class="Lyrics" d="M881.803,1000.35 L872.245,1000.94 L872.245,1003.26 L874.459,1003.26 C876.511,1003.32 876.781,1003.64 876.781,1005.96 L876.781,1021.41 C876.727,1022.22 876.673,1022.54 876.457,1022.81 C876.079,1023.3 874.999,1023.51 872.677,1023.57 L872.461,1023.57 L872.461,1025.51 L886.879,1025.51 L886.879,1023.57 L885.907,1023.57 C882.289,1023.46 881.803,1023.19 881.803,1021.24 L881.803,1018.33 C881.857,1009.26 885.097,1002.34 889.309,1002.13 C888.553,1002.99 888.337,1003.53 888.337,1004.56 C888.337,1006.29 889.579,1007.53 891.307,1007.53 C893.305,1007.53 894.601,1006.07 894.601,1003.91 C894.601,1001.26 892.765,999.536 889.903,999.536 C886.501,999.536 883.585,1002.24 881.803,1007.04 L881.803,1000.35 M919.861,1013.36 C919.915,1005.26 915.325,999.536 908.737,999.536 C901.825,999.536 896.641,1005.53 896.641,1013.63 C896.641,1021.24 901.555,1026.32 908.845,1026.32 C914.029,1026.32 917.647,1023.78 919.861,1018.65 L917.971,1017.63 C915.757,1021.78 913.489,1023.4 909.871,1023.4 C907.117,1023.4 905.119,1022.27 903.715,1019.84 C902.743,1018.22 902.311,1016.33 902.365,1013.36 L919.861,1013.36 M902.419,1011.04 C902.419,1007.26 904.147,1001.86 908.683,1001.86 C911.923,1001.86 914.083,1004.72 914.083,1009.09 C914.083,1010.61 913.597,1011.04 911.869,1011.04 L902.419,1011.04 "/>
<path class="Lyrics" d="M1011.01,488.693 L1011.01,478.001 L1008.79,478.001 C1008.25,485.021 1005.88,488.585 1001.5,488.909 L1001.5,491.015 L1005.93,491.015 L1005.93,504.785 C1005.93,508.565 1006.04,509.915 1006.58,511.157 C1007.44,513.425 1009.6,514.667 1012.74,514.667 C1017.6,514.667 1020.73,510.995 1020.73,505.271 C1020.73,504.947 1020.73,504.569 1020.67,504.029 L1018.41,504.029 C1018.24,508.889 1016.84,511.373 1014.19,511.373 C1012.95,511.373 1011.87,510.725 1011.49,509.807 C1011.17,509.051 1011.01,507.701 1011.01,505.757 L1011.01,491.015 L1018.95,491.015 L1018.95,488.693 L1011.01,488.693 M1043.73,514.235 L1053.56,513.857 L1053.56,511.535 L1052.21,511.535 C1049.08,511.427 1048.81,511.103 1048.81,507.593 L1048.81,488.693 L1038.66,489.287 L1038.66,491.609 L1041.41,491.609 C1043.46,491.663 1043.73,491.987 1043.73,494.309 L1043.73,500.951 C1043.73,505.649 1042.6,511.373 1036.66,511.373 C1034.99,511.373 1033.58,510.779 1032.88,509.699 C1032.18,508.673 1032.07,508.133 1032.07,505.163 L1032.07,488.693 L1022.62,489.287 L1022.62,491.609 L1024.67,491.609 C1026.72,491.663 1026.99,491.987 1026.99,494.309 L1026.99,505.973 C1026.99,508.727 1027.21,509.969 1028.02,511.211 C1029.48,513.425 1032.07,514.667 1035.31,514.667 C1038.87,514.667 1041.36,513.209 1043.73,509.753 L1043.73,514.235 M1065.32,488.693 L1055.71,489.287 L1055.71,491.609 L1057.93,491.609 C1059.98,491.663 1060.25,491.987 1060.25,494.309 L1060.25,509.753 C1060.19,510.563 1060.14,510.887 1059.92,511.157 C1059.55,511.643 1058.52,511.859 1056.2,511.913 L1055.98,511.913 L1055.98,513.857 L1069.59,513.857 L1069.59,511.913 L1069.37,511.913 C1065.81,511.805 1065.32,511.535 1065.32,509.537 L1065.32,499.547 C1065.32,494.741 1067.97,491.177 1071.48,491.177 C1074.56,491.177 1076.12,493.391 1076.12,497.765 L1076.12,509.807 C1076.07,510.509 1076.02,510.887 1075.75,511.157 C1075.42,511.643 1074.34,511.859 1072.02,511.913 L1071.8,511.913 L1071.8,513.857 L1085.47,513.857 L1085.47,511.913 L1085.25,511.913 C1081.69,511.805 1081.2,511.535 1081.2,509.591 L1081.2,500.033 C1081.2,494.633 1083.63,491.177 1087.41,491.177 C1090.49,491.177 1092,493.499 1092,498.359 L1092,509.753 C1091.95,510.509 1091.89,510.887 1091.62,511.157 C1091.3,511.643 1090.22,511.859 1087.9,511.913 L1087.68,511.913 L1087.68,513.857 L1101.34,513.857 L1101.34,511.913 L1101.13,511.913 C1097.56,511.805 1097.08,511.535 1097.08,509.537 L1097.08,497.279 C1097.08,493.931 1096.75,492.797 1095.35,490.961 C1093.78,488.963 1091.57,487.883 1088.98,487.883 C1085.47,487.883 1082.87,489.557 1080.55,493.283 C1079.63,490.043 1076.72,487.883 1073.1,487.883 C1069.81,487.883 1067.43,489.449 1065.32,492.851 L1065.32,488.693 "/>
<path class="Lyrics" d="M982.404,957.914 C979.434,957.86 979.272,957.806 978.624,957.428 C978.246,957.212 977.976,956.618 977.976,956.024 C977.976,954.404 979.434,953.702 983.052,953.594 C988.128,953.486 988.938,953.378 990.774,952.568 C994.014,951.11 995.796,948.302 995.796,944.738 C995.796,942.578 995.31,941.228 993.852,939.446 C994.77,938.474 995.256,938.15 995.688,938.15 C995.958,938.15 996.12,938.312 996.228,938.906 C996.444,940.202 997.308,940.904 998.658,940.904 C1000.06,940.904 1001.09,939.77 1001.09,938.312 C1001.09,936.476 999.63,935.18 997.524,935.18 C995.796,935.18 994.824,935.72 992.34,937.988 C990.072,936.476 988.344,935.936 985.644,935.936 C979.218,935.936 975.006,939.5 975.006,944.9 C975.006,948.086 976.734,950.786 979.542,952.136 C975.924,952.946 974.412,954.566 974.412,957.536 C974.412,959.912 975.492,961.316 978.03,962.18 C974.682,963.422 973.062,965.096 973.062,967.31 C973.062,968.93 974.142,970.442 975.87,971.36 C977.976,972.44 980.568,972.872 984.456,972.872 C993.474,972.872 997.956,970.01 997.956,964.34 C997.956,961.64 996.714,959.48 994.77,958.67 C993.312,958.13 991.584,957.914 987.912,957.914 L982.404,957.914 M985.59,938.258 C988.938,938.258 990.828,940.58 990.828,944.792 C990.828,949.004 988.776,951.542 985.374,951.542 C982.026,951.542 979.92,949.004 979.92,944.954 C979.92,940.688 981.972,938.258 985.59,938.258 M985.104,962.558 C989.586,962.558 989.91,962.558 990.666,962.666 C992.88,962.882 994.176,964.07 994.176,965.798 C994.176,968.876 990.666,970.658 984.672,970.658 C980.082,970.658 977.544,969.308 977.544,966.878 C977.544,965.096 978.516,963.908 981.108,962.558 L985.104,962.558 M1024.88,944.522 C1024.88,941.12 1024.29,939.392 1022.72,938.096 C1020.94,936.638 1018.3,935.936 1014.84,935.936 C1008.74,935.936 1004.31,938.798 1004.31,942.74 C1004.31,944.738 1005.55,946.034 1007.44,946.034 C1009.17,946.034 1010.36,944.9 1010.36,943.28 C1010.36,942.578 1010.09,941.822 1009.55,941.066 C1009.22,940.688 1009.17,940.58 1009.17,940.31 C1009.17,939.23 1011.33,938.258 1013.92,938.258 C1015.65,938.258 1017.54,938.798 1018.4,939.608 C1019.43,940.472 1019.81,941.768 1019.81,944.198 L1019.81,946.304 C1014.19,947.276 1012.41,947.708 1009.76,948.734 C1005.07,950.462 1002.85,952.946 1002.85,956.402 C1002.85,960.29 1005.88,962.72 1010.68,962.72 C1014.41,962.72 1017.76,961.208 1020.08,958.454 C1020.94,961.208 1022.29,962.288 1024.83,962.288 C1027.26,962.288 1029.8,960.722 1029.8,959.156 C1029.8,958.778 1029.58,958.508 1029.26,958.508 C1029.04,958.508 1028.83,958.562 1028.45,958.724 C1027.69,959.048 1027.37,959.102 1026.94,959.102 C1025.42,959.102 1024.88,958.13 1024.88,955.376 L1024.88,944.522 M1019.81,951.11 C1019.81,954.35 1019.65,955.106 1018.73,956.51 C1017.38,958.508 1014.95,959.858 1012.57,959.858 C1010.09,959.858 1008.31,958.076 1008.31,955.646 C1008.31,953.378 1009.44,951.758 1011.82,950.624 C1013.49,949.868 1015.6,949.328 1019.81,948.626 L1019.81,951.11 "/>
<path class="Lyrics" d="M982.674,1000.35 L973.062,1000.94 L973.062,1003.26 L975.276,1003.26 C977.328,1003.32 977.598,1003.64 977.598,1005.96 L977.598,1021.41 C977.544,1022.22 977.49,1022.54 977.274,1022.81 C976.896,1023.3 975.87,1023.51 973.548,1023.57 L973.332,1023.57 L973.332,1025.51 L986.94,1025.51 L986.94,1023.57 L986.724,1023.57 C983.16,1023.46 982.674,1023.19 982.674,1021.19 L982.674,1011.2 C982.674,1006.39 985.32,1002.83 988.83,1002.83 C991.908,1002.83 993.474,1005.04 993.474,1009.42 L993.474,1021.46 C993.42,1022.16 993.366,1022.54 993.096,1022.81 C992.772,1023.3 991.692,1023.51 989.37,1023.57 L989.154,1023.57 L989.154,1025.51 L1002.82,1025.51 L1002.82,1023.57 L1002.6,1023.57 C999.036,1023.46 998.55,1023.19 998.55,1021.24 L998.55,1011.69 C998.55,1006.29 1000.98,1002.83 1004.76,1002.83 C1007.84,1002.83 1009.35,1005.15 1009.35,1010.01 L1009.35,1021.41 C1009.3,1022.16 1009.24,1022.54 1008.97,1022.81 C1008.65,1023.3 1007.57,1023.51 1005.25,1023.57 L1005.03,1023.57 L1005.03,1025.51 L1018.69,1025.51 L1018.69,1023.57 L1018.48,1023.57 C1014.91,1023.46 1014.43,1023.19 1014.43,1021.19 L1014.43,1008.93 C1014.43,1005.58 1014.1,1004.45 1012.7,1002.61 C1011.13,1000.62 1008.92,999.536 1006.33,999.536 C1002.82,999.536 1000.22,1001.21 997.902,1004.94 C996.984,1001.7 994.068,999.536 990.45,999.536 C987.156,999.536 984.78,1001.1 982.674,1004.5 L982.674,1000.35 M1033.43,999.536 C1026.79,999.536 1021.66,1005.42 1021.66,1012.98 C1021.66,1020.38 1026.84,1026.32 1033.32,1026.32 C1039.8,1026.32 1044.98,1020.38 1044.98,1012.93 C1044.98,1005.53 1039.8,999.536 1033.43,999.536 M1033.43,1001.86 C1037.21,1001.86 1039.31,1005.8 1039.31,1012.93 C1039.31,1020.11 1037.21,1024 1033.32,1024 C1029.43,1024 1027.33,1020.11 1027.33,1012.98 C1027.33,1005.64 1029.38,1001.86 1033.43,1001.86"/>
<path class="Lyrics" d="M1022.65,425.093 L1022.65,414.401 L1020.44,414.401 C1019.9,421.421 1017.52,424.985 1013.15,425.309 L1013.15,427.415 L1017.57,427.415 L1017.57,441.185 C1017.57,444.965 1017.68,446.315 1018.22,447.557 C1019.09,449.825 1021.25,451.067 1024.38,451.067 C1029.24,451.067 1032.37,447.395 1032.37,441.671 C1032.37,441.347 1032.37,440.969 1032.32,440.429 L1030.05,440.429 C1029.89,445.289 1028.48,447.773 1025.84,447.773 C1024.59,447.773 1023.51,447.125 1023.14,446.207 C1022.81,445.451 1022.65,444.101 1022.65,442.157 L1022.65,427.415 L1030.59,427.415 L1030.59,425.093 L1022.65,425.093 M1055.37,450.635 L1065.2,450.257 L1065.2,447.935 L1063.85,447.935 C1060.72,447.827 1060.45,447.503 1060.45,443.993 L1060.45,425.093 L1050.3,425.687 L1050.3,428.009 L1053.05,428.009 C1055.1,428.063 1055.37,428.387 1055.37,430.709 L1055.37,437.351 C1055.37,442.049 1054.24,447.773 1048.3,447.773 C1046.63,447.773 1045.22,447.179 1044.52,446.099 C1043.82,445.073 1043.71,444.533 1043.71,441.563 L1043.71,425.093 L1034.26,425.687 L1034.26,428.009 L1036.31,428.009 C1038.36,428.063 1038.63,428.387 1038.63,430.709 L1038.63,442.373 C1038.63,445.127 1038.85,446.369 1039.66,447.611 C1041.12,449.825 1043.71,451.067 1046.95,451.067 C1050.51,451.067 1053,449.609 1055.37,446.153 L1055.37,450.635 M1076.8,425.093 L1067.24,425.687 L1067.24,428.009 L1069.46,428.009 C1071.51,428.063 1071.78,428.387 1071.78,430.709 L1071.78,446.153 C1071.73,446.963 1071.67,447.287 1071.46,447.557 C1071.08,448.043 1070,448.259 1067.68,448.313 L1067.46,448.313 L1067.46,450.257 L1081.88,450.257 L1081.88,448.313 L1080.91,448.313 C1077.29,448.205 1076.8,447.935 1076.8,445.991 L1076.8,443.075 C1076.86,434.003 1080.1,427.091 1084.31,426.875 C1083.55,427.739 1083.34,428.279 1083.34,429.305 C1083.34,431.033 1084.58,432.275 1086.31,432.275 C1088.3,432.275 1089.6,430.817 1089.6,428.657 C1089.6,426.011 1087.76,424.283 1084.9,424.283 C1081.5,424.283 1078.58,426.983 1076.8,431.789 L1076.8,425.093 "/>
<path class="Lyrics" d="M943.639,488.693 L934.081,489.287 L934.081,491.609 L936.295,491.609 C938.347,491.663 938.617,491.987 938.617,494.309 L938.617,509.753 C938.563,510.563 938.509,510.887 938.293,511.157 C937.915,511.643 936.835,511.859 934.513,511.913 L934.297,511.913 L934.297,513.857 L948.715,513.857 L948.715,511.913 L947.743,511.913 C944.125,511.805 943.639,511.535 943.639,509.591 L943.639,506.675 C943.693,497.603 946.933,490.691 951.145,490.475 C950.389,491.339 950.173,491.879 950.173,492.905 C950.173,494.633 951.415,495.875 953.143,495.875 C955.141,495.875 956.437,494.417 956.437,492.257 C956.437,489.611 954.601,487.883 951.739,487.883 C948.337,487.883 945.421,490.583 943.639,495.389 L943.639,488.693 M966.58,475.247 C964.852,475.247 963.448,476.651 963.448,478.379 C963.448,480.107 964.852,481.511 966.526,481.511 C968.308,481.511 969.712,480.107 969.712,478.379 C969.712,476.651 968.308,475.247 966.58,475.247 M969.118,488.693 L958.966,489.287 L958.966,491.609 L961.72,491.609 C963.772,491.663 964.042,491.987 964.042,494.309 L964.042,509.753 C963.988,510.563 963.934,510.887 963.718,511.157 C963.34,511.643 962.314,511.859 959.992,511.913 L959.614,511.913 L959.614,513.857 L973.6,513.857 L973.6,511.913 L973.222,511.913 C969.604,511.805 969.118,511.535 969.118,509.591 L969.118,488.693 "/>
<path class="Lyrics" d="M954.501,442.319 C952.773,446.207 950.937,447.773 948.129,447.773 C943.809,447.773 941.109,443.831 941.109,437.513 C941.109,430.925 943.755,426.605 947.751,426.605 C949.371,426.605 950.775,427.361 950.775,428.225 C950.775,428.387 950.721,428.549 950.451,428.873 C949.587,429.899 949.371,430.439 949.371,431.357 C949.371,433.139 950.721,434.381 952.611,434.381 C954.555,434.381 955.905,432.869 955.905,430.709 C955.905,427.037 952.287,424.283 947.481,424.283 C940.461,424.283 935.439,430.007 935.439,438.107 C935.439,445.775 940.029,451.067 946.725,451.067 C951.531,451.067 954.285,448.853 956.607,443.129 L954.501,442.319 M966.158,411.647 C964.43,411.647 963.026,413.051 963.026,414.779 C963.026,416.507 964.43,417.911 966.104,417.911 C967.886,417.911 969.29,416.507 969.29,414.779 C969.29,413.051 967.886,411.647 966.158,411.647 M968.696,425.093 L958.544,425.687 L958.544,428.009 L961.298,428.009 C963.35,428.063 963.62,428.387 963.62,430.709 L963.62,446.153 C963.566,446.963 963.512,447.287 963.296,447.557 C962.918,448.043 961.892,448.259 959.57,448.313 L959.192,448.313 L959.192,450.257 L973.178,450.257 L973.178,448.313 L972.8,448.313 C969.182,448.205 968.696,447.935 968.696,445.991 L968.696,425.093 "/>
<path class="Lyrics" d="M843.943,488.099 L842.053,488.099 L840.487,490.043 C838.543,488.531 836.599,487.883 833.899,487.883 C829.147,487.883 826.015,490.961 826.015,495.713 C826.015,500.789 829.309,502.085 833.629,503.111 L836.491,503.759 C840.757,504.785 842.269,505.865 842.269,508.025 C842.269,510.563 840.055,512.345 836.923,512.345 C832.333,512.345 829.093,509.429 827.797,504.029 L825.637,504.029 L825.637,514.235 L827.527,514.235 L829.417,512.021 C831.631,513.803 834.061,514.667 836.815,514.667 C842.107,514.667 845.617,511.373 845.617,506.351 C845.617,503.975 844.861,502.139 843.349,500.897 C842.053,499.763 840.973,499.331 837.679,498.629 L834.979,498.035 C832.009,497.387 832.009,497.387 831.037,496.847 C829.849,496.307 829.147,495.173 829.147,493.985 C829.147,491.771 831.199,490.259 834.169,490.259 C838.597,490.259 840.757,493.391 842.053,497.171 L843.943,497.171 L843.943,488.099 M857.815,488.693 L848.473,489.287 L848.473,491.609 L850.417,491.609 C852.469,491.663 852.739,491.987 852.739,494.309 L852.739,520.715 C852.685,521.471 852.631,521.795 852.415,522.065 C852.037,522.551 851.011,522.767 848.689,522.821 L848.473,522.821 L848.473,524.765 L862.513,524.765 L862.513,522.821 L861.919,522.821 C858.301,522.713 857.815,522.443 857.815,520.499 L857.815,510.293 C859.597,513.425 861.595,514.667 864.943,514.667 C872.125,514.667 875.851,507.593 875.851,501.167 C875.851,495.065 872.125,487.883 865.267,487.883 C861.919,487.883 859.705,489.287 857.815,492.527 L857.815,488.693 M864.295,490.799 C868.021,490.799 870.181,494.525 870.181,500.843 C870.181,507.809 868.021,511.751 864.133,511.751 C860.245,511.751 857.761,507.755 857.761,501.545 C857.761,494.795 860.191,490.799 864.295,490.799 M886.531,475.247 C884.803,475.247 883.399,476.651 883.399,478.379 C883.399,480.107 884.803,481.511 886.477,481.511 C888.259,481.511 889.663,480.107 889.663,478.379 C889.663,476.651 888.259,475.247 886.531,475.247 M889.069,488.693 L878.917,489.287 L878.917,491.609 L881.671,491.609 C883.723,491.663 883.993,491.987 883.993,494.309 L883.993,509.753 C883.939,510.563 883.885,510.887 883.669,511.157 C883.291,511.643 882.265,511.859 879.943,511.913 L879.565,511.913 L879.565,513.857 L893.551,513.857 L893.551,511.913 L893.173,511.913 C889.555,511.805 889.069,511.535 889.069,509.591 L889.069,488.693 "/>
<path class="Lyrics" d="M1139.74,936.746 L1139.74,926.054 L1137.52,926.054 C1136.98,933.074 1134.61,936.638 1130.23,936.962 L1130.23,939.068 L1134.66,939.068 L1134.66,952.838 C1134.66,956.618 1134.77,957.968 1135.31,959.21 C1136.17,961.478 1138.33,962.72 1141.47,962.72 C1146.33,962.72 1149.46,959.048 1149.46,953.324 C1149.46,953 1149.46,952.622 1149.4,952.082 L1147.14,952.082 C1146.97,956.942 1145.57,959.426 1142.92,959.426 C1141.68,959.426 1140.6,958.778 1140.22,957.86 C1139.9,957.104 1139.74,955.754 1139.74,953.81 L1139.74,939.068 L1147.68,939.068 L1147.68,936.746 L1139.74,936.746 M1172.46,962.288 L1182.29,961.91 L1182.29,959.588 L1180.94,959.588 C1177.81,959.48 1177.54,959.156 1177.54,955.646 L1177.54,936.746 L1167.39,937.34 L1167.39,939.662 L1170.14,939.662 C1172.19,939.716 1172.46,940.04 1172.46,942.362 L1172.46,949.004 C1172.46,953.702 1171.33,959.426 1165.39,959.426 C1163.72,959.426 1162.31,958.832 1161.61,957.752 C1160.91,956.726 1160.8,956.186 1160.8,953.216 L1160.8,936.746 L1151.35,937.34 L1151.35,939.662 L1153.4,939.662 C1155.45,939.716 1155.72,940.04 1155.72,942.362 L1155.72,954.026 C1155.72,956.78 1155.94,958.022 1156.75,959.264 C1158.21,961.478 1160.8,962.72 1164.04,962.72 C1167.6,962.72 1170.09,961.262 1172.46,957.806 L1172.46,962.288 M1193.89,936.746 L1184.33,937.34 L1184.33,939.662 L1186.55,939.662 C1188.6,939.716 1188.87,940.04 1188.87,942.362 L1188.87,957.806 C1188.82,958.616 1188.76,958.94 1188.55,959.21 C1188.17,959.696 1187.09,959.912 1184.77,959.966 L1184.55,959.966 L1184.55,961.91 L1198.97,961.91 L1198.97,959.966 L1198,959.966 C1194.38,959.858 1193.89,959.588 1193.89,957.644 L1193.89,954.728 C1193.95,945.656 1197.19,938.744 1201.4,938.528 C1200.64,939.392 1200.43,939.932 1200.43,940.958 C1200.43,942.686 1201.67,943.928 1203.4,943.928 C1205.39,943.928 1206.69,942.47 1206.69,940.31 C1206.69,937.664 1204.85,935.936 1201.99,935.936 C1198.59,935.936 1195.67,938.636 1193.89,943.442 L1193.89,936.746 M1210.57,955.916 C1208.68,955.916 1207.16,957.428 1207.16,959.264 C1207.16,961.154 1208.68,962.666 1210.51,962.666 C1212.4,962.666 1213.91,961.154 1213.91,959.264 C1213.91,957.428 1212.4,955.916 1210.57,955.916"/>
<path class="Lyrics" d="M1160.62,1018.98 L1154.47,1004.72 C1154.3,1004.29 1154.2,1003.86 1154.2,1003.53 C1154.2,1002.61 1154.9,1002.29 1157.11,1002.29 L1157.87,1002.29 L1157.87,1000.35 L1145.12,1000.35 L1145.12,1002.29 L1145.56,1002.29 C1147.61,1002.29 1148.36,1002.83 1149.12,1004.61 L1158.41,1026.32 L1160.3,1026.32 L1167.97,1007.37 C1169.48,1003.69 1170.77,1002.45 1172.99,1002.29 L1173.2,1002.29 L1173.2,1000.35 L1162.4,1000.35 L1162.4,1002.29 L1163.16,1002.29 C1165.05,1002.29 1166.08,1002.94 1166.08,1004.18 C1166.08,1004.83 1165.91,1005.64 1165.59,1006.45 L1160.62,1018.98 M1183.34,986.9 C1181.61,986.9 1180.21,988.304 1180.21,990.032 C1180.21,991.76 1181.61,993.164 1183.29,993.164 C1185.07,993.164 1186.47,991.76 1186.47,990.032 C1186.47,988.304 1185.07,986.9 1183.34,986.9 M1185.88,1000.35 L1175.73,1000.94 L1175.73,1003.26 L1178.48,1003.26 C1180.53,1003.32 1180.8,1003.64 1180.8,1005.96 L1180.8,1021.41 C1180.75,1022.22 1180.69,1022.54 1180.48,1022.81 C1180.1,1023.3 1179.07,1023.51 1176.75,1023.57 L1176.37,1023.57 L1176.37,1025.51 L1190.36,1025.51 L1190.36,1023.57 L1189.98,1023.57 C1186.36,1023.46 1185.88,1023.19 1185.88,1021.24 L1185.88,1000.35 M1199.15,1019.52 C1197.26,1019.52 1195.75,1021.03 1195.75,1022.86 C1195.75,1024.75 1197.26,1026.27 1199.1,1026.27 C1200.99,1026.27 1202.5,1024.75 1202.5,1022.86 C1202.5,1021.03 1200.99,1019.52 1199.15,1019.52"/>
<path class="Lyrics" d="M836.016,443.723 L829.86,429.467 C829.698,429.035 829.59,428.603 829.59,428.279 C829.59,427.361 830.292,427.037 832.506,427.037 L833.262,427.037 L833.262,425.093 L820.518,425.093 L820.518,427.037 L820.95,427.037 C823.002,427.037 823.758,427.577 824.514,429.359 L833.802,451.067 L835.692,451.067 L843.36,432.113 C844.872,428.441 846.168,427.199 848.382,427.037 L848.598,427.037 L848.598,425.093 L837.798,425.093 L837.798,427.037 L838.554,427.037 C840.444,427.037 841.47,427.685 841.47,428.927 C841.47,429.575 841.308,430.385 840.984,431.195 L836.016,443.723 M858.734,411.647 C857.006,411.647 855.602,413.051 855.602,414.779 C855.602,416.507 857.006,417.911 858.68,417.911 C860.462,417.911 861.866,416.507 861.866,414.779 C861.866,413.051 860.462,411.647 858.734,411.647 M861.272,425.093 L851.12,425.687 L851.12,428.009 L853.874,428.009 C855.926,428.063 856.196,428.387 856.196,430.709 L856.196,446.153 C856.142,446.963 856.088,447.287 855.872,447.557 C855.494,448.043 854.468,448.259 852.146,448.313 L851.768,448.313 L851.768,450.257 L865.754,450.257 L865.754,448.313 L865.376,448.313 C861.758,448.205 861.272,447.935 861.272,445.991 L861.272,425.093 M877.948,425.093 L868.606,425.687 L868.606,428.009 L870.55,428.009 C872.602,428.063 872.872,428.387 872.872,430.709 L872.872,446.153 C872.818,446.963 872.764,447.287 872.548,447.557 C872.17,448.043 871.144,448.259 868.822,448.313 L868.606,448.313 L868.606,450.257 L882.268,450.257 L882.268,448.313 L882.052,448.313 C878.434,448.205 877.948,447.935 877.948,445.991 L877.948,437.999 C877.948,435.353 878.326,432.923 878.92,431.681 C880.054,429.251 882.484,427.577 884.806,427.577 C886.21,427.577 887.83,428.333 888.64,429.467 C889.45,430.655 889.828,432.275 889.828,434.867 L889.828,446.153 C889.774,446.963 889.72,447.287 889.504,447.557 C889.126,448.043 888.046,448.259 885.724,448.313 L885.508,448.313 L885.508,450.257 L899.17,450.257 L899.17,448.313 L898.954,448.313 C895.39,448.205 894.904,447.935 894.904,445.991 L894.904,435.137 C894.904,431.249 894.742,430.277 893.77,428.441 C892.42,425.849 889.72,424.283 886.48,424.283 C882.97,424.283 880.324,425.903 877.948,429.467 L877.948,425.093 "/>
<path class="Lyrics" d="M628.292,441.887 L618.41,416.831 C618.14,416.129 617.978,415.427 617.978,415.157 C617.978,414.185 618.896,413.807 621.326,413.807 L623.486,413.807 L623.486,411.269 L606.638,411.269 L606.638,413.807 L607.718,413.807 C610.202,413.861 611.012,414.455 611.876,416.831 L625.538,451.067 L627.698,451.067 L640.118,419.099 C641.738,414.887 642.872,413.915 646.004,413.807 L646.544,413.807 L646.544,411.269 L631.91,411.269 L631.91,413.807 L632.936,413.807 C635.69,413.807 637.31,414.887 637.31,416.615 C637.31,417.371 637.04,418.559 636.662,419.639 L628.292,441.887 M666.899,438.107 C666.953,430.007 662.363,424.283 655.775,424.283 C648.863,424.283 643.679,430.277 643.679,438.377 C643.679,445.991 648.593,451.067 655.883,451.067 C661.067,451.067 664.685,448.529 666.899,443.399 L665.009,442.373 C662.795,446.531 660.527,448.151 656.909,448.151 C654.155,448.151 652.157,447.017 650.753,444.587 C649.781,442.967 649.349,441.077 649.403,438.107 L666.899,438.107 M649.457,435.785 C649.457,432.005 651.185,426.605 655.721,426.605 C658.961,426.605 661.121,429.467 661.121,433.841 C661.121,435.353 660.635,435.785 658.907,435.785 L649.457,435.785 "/>
<path class="Lyrics" d="M691.294,1448.4 L681.682,1448.99 L681.682,1451.32 L683.896,1451.32 C685.948,1451.37 686.218,1451.69 686.218,1454.02 L686.218,1469.46 C686.164,1470.27 686.11,1470.59 685.894,1470.86 C685.516,1471.35 684.49,1471.57 682.168,1471.62 L681.952,1471.62 L681.952,1473.56 L695.56,1473.56 L695.56,1471.62 L695.344,1471.62 C691.78,1471.51 691.294,1471.24 691.294,1469.24 L691.294,1459.25 C691.294,1454.45 693.94,1450.88 697.45,1450.88 C700.528,1450.88 702.094,1453.1 702.094,1457.47 L702.094,1469.51 C702.04,1470.22 701.986,1470.59 701.716,1470.86 C701.392,1471.35 700.312,1471.57 697.99,1471.62 L697.774,1471.62 L697.774,1473.56 L711.436,1473.56 L711.436,1471.62 L711.22,1471.62 C707.656,1471.51 707.17,1471.24 707.17,1469.3 L707.17,1459.74 C707.17,1454.34 709.6,1450.88 713.38,1450.88 C716.458,1450.88 717.97,1453.21 717.97,1458.07 L717.97,1469.46 C717.916,1470.22 717.862,1470.59 717.592,1470.86 C717.268,1471.35 716.188,1471.57 713.866,1471.62 L713.65,1471.62 L713.65,1473.56 L727.312,1473.56 L727.312,1471.62 L727.096,1471.62 C723.532,1471.51 723.046,1471.24 723.046,1469.24 L723.046,1456.99 C723.046,1453.64 722.722,1452.5 721.318,1450.67 C719.752,1448.67 717.538,1447.59 714.946,1447.59 C711.436,1447.59 708.844,1449.26 706.522,1452.99 C705.604,1449.75 702.688,1447.59 699.07,1447.59 C695.776,1447.59 693.4,1449.16 691.294,1452.56 L691.294,1448.4 M753.55,1461.41 C753.604,1453.31 749.014,1447.59 742.426,1447.59 C735.514,1447.59 730.33,1453.58 730.33,1461.68 C730.33,1469.3 735.244,1474.37 742.534,1474.37 C747.718,1474.37 751.336,1471.84 753.55,1466.71 L751.66,1465.68 C749.446,1469.84 747.178,1471.46 743.56,1471.46 C740.806,1471.46 738.808,1470.32 737.404,1467.89 C736.432,1466.27 736,1464.38 736.054,1461.41 L753.55,1461.41 M736.108,1459.09 C736.108,1455.31 737.836,1449.91 742.372,1449.91 C745.612,1449.91 747.772,1452.77 747.772,1457.15 C747.772,1458.66 747.286,1459.09 745.558,1459.09 L736.108,1459.09 M762.4,1467.57 C760.51,1467.57 758.998,1469.08 758.998,1470.92 C758.998,1472.81 760.51,1474.32 762.346,1474.32 C764.236,1474.32 765.748,1472.81 765.748,1470.92 C765.748,1469.08 764.236,1467.57 762.4,1467.57 M777.4,1467.57 C775.51,1467.57 773.998,1469.08 773.998,1470.92 C773.998,1472.81 775.51,1474.32 777.346,1474.32 C779.236,1474.32 780.748,1472.81 780.748,1470.92 C780.748,1469.08 779.236,1467.57 777.4,1467.57 M792.4,1467.57 C790.51,1467.57 788.998,1469.08 788.998,1470.92 C788.998,1472.81 790.51,1474.32 792.346,1474.32 C794.236,1474.32 795.748,1472.81 795.748,1470.92 C795.748,1469.08 794.236,1467.57 792.4,1467.57"/>
<polyline class="TextLineSegment" fill="none" stroke="#000000" stroke-width="3.79" stroke-linejoin="miter" stroke-miterlimit="2" points="973.055,753.075 973.055,726.146 1123.79,726.146 1123.79,753.075" />
<polyline class="TextLineSegment" fill="none" stroke="#000000" stroke-width="3.79" stroke-linejoin="miter" stroke-miterlimit="2" points="730.102,753.075 730.102,726.146 851.874,726.146 851.874,753.075" />
<polyline class="TextLineSegment" fill="none" stroke="#000000" stroke-width="3.79" stroke-linejoin="miter" stroke-miterlimit="2" points="510.181,753.075 510.181,726.146 608.921,726.146 608.921,753.075" />
<polyline class="TextLineSegment" fill="none" stroke="#000000" stroke-width="3.79" stroke-linejoin="miter" stroke-miterlimit="2" points="606.648,241.421 606.648,214.492 705.388,214.492 705.388,241.421" />
<polyline class="LyricsLineSegment" fill="none" stroke="#000000" stroke-width="2.69" stroke-linejoin="bevel" points="985.102,437.908 1001.26,437.908" />
<polyline class="LyricsLineSegment" fill="none" stroke="#000000" stroke-width="2.69" stroke-linejoin="bevel" points="938.633,1013.16 954.79,1013.16" />
<polyline class="LyricsLineSegment" fill="none" stroke="#000000" stroke-width="2.69" stroke-linejoin="bevel" points="812.863,960.564 864.227,960.564" />
<polyline class="LyricsLineSegment" fill="none" stroke="#000000" stroke-width="2.69" stroke-linejoin="bevel" points="694.493,949.561 710.65,949.561" />
<polyline class="LyricsLineSegment" fill="none" stroke="#000000" stroke-width="2.69" stroke-linejoin="bevel" points="587.798,949.561 603.955,949.561" />
<polyline class="LyricsLineSegment" fill="none" stroke="#000000" stroke-width="2.69" stroke-linejoin="bevel" points="693.094,1013.16 709.252,1013.16" />
<polyline class="LyricsLineSegment" fill="none" stroke="#000000" stroke-width="2.69" stroke-linejoin="bevel" points="836.144,1024.16 864.227,1024.16" />
<polyline class="LyricsLineSegment" fill="none" stroke="#000000" stroke-width="2.69" stroke-linejoin="bevel" points="477.739,1013.16 493.896,1013.16" />
<polyline class="LyricsLineSegment" fill="none" stroke="#000000" stroke-width="2.69" stroke-linejoin="bevel" points="939.078,949.561 955.236,949.561" />
<polyline class="LyricsLineSegment" fill="none" stroke="#000000" stroke-width="2.69" stroke-linejoin="bevel" points="1072.42,949.561 1088.57,949.561" />
<polyline class="LyricsLineSegment" fill="none" stroke="#000000" stroke-width="2.69" stroke-linejoin="bevel" points="580.04,1013.16 596.197,1013.16" />
<polyline class="LyricsLineSegment" fill="none" stroke="#000000" stroke-width="2.69" stroke-linejoin="bevel" points="1087.04,1013.16 1103.2,1013.16" />
<polyline class="LyricsLineSegment" fill="none" stroke="#000000" stroke-width="2.69" stroke-linejoin="bevel" points="979.958,501.508 996.115,501.508" />
<polyline class="LyricsLineSegment" fill="none" stroke="#000000" stroke-width="2.69" stroke-linejoin="bevel" points="678.617,437.908 694.774,437.908" />
<polyline class="LyricsLineSegment" fill="none" stroke="#000000" stroke-width="2.69" stroke-linejoin="bevel" points="906.211,501.508 922.369,501.508" />
<polyline class="LyricsLineSegment" fill="none" stroke="#000000" stroke-width="2.69" stroke-linejoin="bevel" points="567.082,501.508 583.239,501.508" />
<polyline class="LyricsLineSegment" fill="none" stroke="#000000" stroke-width="2.69" stroke-linejoin="bevel" points="694.156,501.508 710.313,501.508" />
<polyline class="LyricsLineSegment" fill="none" stroke="#000000" stroke-width="2.69" stroke-linejoin="bevel" points="465.184,437.908 481.342,437.908" />
<polyline class="LyricsLineSegment" fill="none" stroke="#000000" stroke-width="2.69" stroke-linejoin="bevel" points="909.453,437.908 925.611,437.908" />
<polyline class="LyricsLineSegment" fill="none" stroke="#000000" stroke-width="2.69" stroke-linejoin="bevel" points="454.137,1461.21 470.295,1461.21" />
<polyline class="LyricsLineSegment" fill="none" stroke="#000000" stroke-width="2.69" stroke-linejoin="bevel" points="656.075,1461.21 672.232,1461.21" />
</svg>
