<?xml version="1.0" encoding="UTF-8" standalone="no"?>
<svg width="210.058mm" height="296.926mm" viewBox="0 0 2977.2 4208.4"
 xmlns="http://www.w3.org/2000/svg" xmlns:xlink="http://www.w3.org/1999/xlink" version="1.2" baseProfile="full">
<title>CB131_frag (2)</title>
<desc>Generated by MuseScore Studio 4.5.2</desc>
<polyline class="StaffLines" fill="none" stroke="#000000" stroke-width="2.96" stroke-linejoin="bevel" points="212.598,401.102 2764.6,401.102" />
<polyline class="StaffLines" fill="none" stroke="#000000" stroke-width="2.96" stroke-linejoin="bevel" points="212.598,428.031 2764.6,428.031" />
<polyline class="StaffLines" fill="none" stroke="#000000" stroke-width="2.96" stroke-linejoin="bevel" points="212.598,454.961 2764.6,454.961" />
<polyline class="StaffLines" fill="none" stroke="#000000" stroke-width="2.96" stroke-linejoin="bevel" points="212.598,481.89 2764.6,481.89" />
<polyline class="StaffLines" fill="none" stroke="#000000" stroke-width="2.96" stroke-linejoin="bevel" points="212.598,508.819 2764.6,508.819" />
<polyline class="StaffLines" fill="none" stroke="#000000" stroke-width="2.96" stroke-linejoin="bevel" points="212.598,683.858 2764.6,683.858" />
<polyline class="StaffLines" fill="none" stroke="#000000" stroke-width="2.96" stroke-linejoin="bevel" points="212.598,710.787 2764.6,710.787" />
<polyline class="StaffLines" fill="none" stroke="#000000" stroke-width="2.96" stroke-linejoin="bevel" points="212.598,737.716 2764.6,737.716" />
<polyline class="StaffLines" fill="none" stroke="#000000" stroke-width="2.96" stroke-linejoin="bevel" points="212.598,764.646 2764.6,764.646" />
<polyline class="StaffLines" fill="none" stroke="#000000" stroke-width="2.96" stroke-linejoin="bevel" points="212.598,791.575 2764.6,791.575" />
<polyline class="StaffLines" fill="none" stroke="#000000" stroke-width="2.96" stroke-linejoin="bevel" points="212.598,966.614 2764.6,966.614" />
<polyline class="StaffLines" fill="none" stroke="#000000" stroke-width="2.96" stroke-linejoin="bevel" points="212.598,993.543 2764.6,993.543" />
<polyline class="StaffLines" fill="none" stroke="#000000" stroke-width="2.96" stroke-linejoin="bevel" points="212.598,1020.47 2764.6,1020.47" />
<polyline class="StaffLines" fill="none" stroke="#000000" stroke-width="2.96" stroke-linejoin="bevel" points="212.598,1047.4 2764.6,1047.4" />
<polyline class="StaffLines" fill="none" stroke="#000000" stroke-width="2.96" stroke-linejoin="bevel" points="212.598,1074.33 2764.6,1074.33" />
<polyline class="StaffLines" fill="none" stroke="#000000" stroke-width="2.96" stroke-linejoin="bevel" points="1039.01,1303.23 2764.6,1303.23" />
<polyline class="StaffLines" fill="none" stroke="#000000" stroke-width="2.96" stroke-linejoin="bevel" points="1039.01,1330.16 2764.6,1330.16" />
<polyline class="StaffLines" fill="none" stroke="#000000" stroke-width="2.96" stroke-linejoin="bevel" points="1039.01,1357.09 2764.6,1357.09" />
<polyline class="StaffLines" fill="none" stroke="#000000" stroke-width="2.96" stroke-linejoin="bevel" points="1039.01,1384.02 2764.6,1384.02" />
<polyline class="StaffLines" fill="none" stroke="#000000" stroke-width="2.96" stroke-linejoin="bevel" points="1039.01,1410.94 2764.6,1410.94" />
<polyline class="StaffLines" fill="none" stroke="#000000" stroke-width="2.96" stroke-linejoin="bevel" points="1039.01,1585.98 2764.6,1585.98" />
<polyline class="StaffLines" fill="none" stroke="#000000" stroke-width="2.96" stroke-linejoin="bevel" points="1039.01,1612.91 2764.6,1612.91" />
<polyline class="StaffLines" fill="none" stroke="#000000" stroke-width="2.96" stroke-linejoin="bevel" points="1039.01,1639.84 2764.6,1639.84" />
<polyline class="StaffLines" fill="none" stroke="#000000" stroke-width="2.96" stroke-linejoin="bevel" points="1039.01,1666.77 2764.6,1666.77" />
<polyline class="StaffLines" fill="none" stroke="#000000" stroke-width="2.96" stroke-linejoin="bevel" points="1039.01,1693.7 2764.6,1693.7" />
<polyline class="StaffLines" fill="none" stroke="#000000" stroke-width="2.96" stroke-linejoin="bevel" points="1039.01,1868.74 2764.6,1868.74" />
<polyline class="StaffLines" fill="none" stroke="#000000" stroke-width="2.96" stroke-linejoin="bevel" points="1039.01,1895.67 2764.6,1895.67" />
<polyline class="StaffLines" fill="none" stroke="#000000" stroke-width="2.96" stroke-linejoin="bevel" points="1039.01,1922.6 2764.6,1922.6" />
<polyline class="StaffLines" fill="none" stroke="#000000" stroke-width="2.96" stroke-linejoin="bevel" points="1039.01,1949.53 2764.6,1949.53" />
<polyline class="StaffLines" fill="none" stroke="#000000" stroke-width="2.96" stroke-linejoin="bevel" points="1039.01,1976.46 2764.6,1976.46" />
<polyline class="BarLine" fill="none" stroke="#000000" stroke-width="4.85" stroke-linejoin="bevel" points="2737.4,1301.75 2737.4,1412.43" />
<polyline class="BarLine" fill="none" stroke="#000000" stroke-width="14.81" stroke-linejoin="bevel" points="2757.2,1301.75 2757.2,1412.43" />
<polyline class="BarLine" fill="none" stroke="#000000" stroke-width="4.85" stroke-linejoin="bevel" points="1443.46,426.55 1443.46,483.371" />
<polyline class="BarLine" fill="none" stroke="#000000" stroke-width="4.85" stroke-linejoin="bevel" points="1223.68,426.55 1223.68,483.371" />
<polyline class="BarLine" fill="none" stroke="#000000" stroke-width="4.85" stroke-linejoin="bevel" points="1663.25,426.55 1663.25,483.371" />
<polyline class="BarLine" fill="none" stroke="#000000" stroke-width="4.85" stroke-linejoin="bevel" points="1968.21,1328.68 1968.21,1385.5" />
<polyline class="BarLine" fill="none" stroke="#000000" stroke-width="4.85" stroke-linejoin="bevel" points="2360.21,426.55 2360.21,483.371" />
<polyline class="BarLine" fill="none" stroke="#000000" stroke-width="4.85" stroke-linejoin="bevel" points="1003.89,426.55 1003.89,483.371" />
<polyline class="BarLine" fill="none" stroke="#000000" stroke-width="4.85" stroke-linejoin="bevel" points="564.32,426.55 564.32,483.371" />
<polyline class="BarLine" fill="none" stroke="#000000" stroke-width="4.85" stroke-linejoin="bevel" points="215.022,399.621 215.022,683.858" />
<polyline class="BarLine" fill="none" stroke="#000000" stroke-width="4.85" stroke-linejoin="bevel" points="784.106,426.55 784.106,483.371" />
<polyline class="BarLine" fill="none" stroke="#000000" stroke-width="4.85" stroke-linejoin="bevel" points="1041.43,1301.75 1041.43,1585.98" />
<polyline class="BarLine" fill="none" stroke="#000000" stroke-width="4.85" stroke-linejoin="bevel" points="2522.4,1328.68 2522.4,1385.5" />
<polyline class="BarLine" fill="none" stroke="#000000" stroke-width="4.85" stroke-linejoin="bevel" points="1443.46,709.306 1443.46,766.127" />
<polyline class="BarLine" fill="none" stroke="#000000" stroke-width="4.85" stroke-linejoin="bevel" points="1663.25,709.306 1663.25,766.127" />
<polyline class="BarLine" fill="none" stroke="#000000" stroke-width="4.85" stroke-linejoin="bevel" points="215.022,682.377 215.022,966.614" />
<polyline class="BarLine" fill="none" stroke="#000000" stroke-width="4.85" stroke-linejoin="bevel" points="1508.5,1611.43 1508.5,1668.25" />
<polyline class="BarLine" fill="none" stroke="#000000" stroke-width="4.85" stroke-linejoin="bevel" points="1223.68,709.306 1223.68,766.127" />
<polyline class="BarLine" fill="none" stroke="#000000" stroke-width="4.85" stroke-linejoin="bevel" points="1968.21,1611.43 1968.21,1668.25" />
<polyline class="BarLine" fill="none" stroke="#000000" stroke-width="4.85" stroke-linejoin="bevel" points="2522.4,1611.43 2522.4,1668.25" />
<polyline class="BarLine" fill="none" stroke="#000000" stroke-width="4.85" stroke-linejoin="bevel" points="1041.43,1584.5 1041.43,1868.74" />
<polyline class="BarLine" fill="none" stroke="#000000" stroke-width="4.85" stroke-linejoin="bevel" points="2360.21,709.306 2360.21,766.127" />
<polyline class="BarLine" fill="none" stroke="#000000" stroke-width="4.85" stroke-linejoin="bevel" points="1003.89,709.306 1003.89,766.127" />
<polyline class="BarLine" fill="none" stroke="#000000" stroke-width="4.85" stroke-linejoin="bevel" points="2737.4,1584.5 2737.4,1695.18" />
<polyline class="BarLine" fill="none" stroke="#000000" stroke-width="14.81" stroke-linejoin="bevel" points="2757.2,1584.5 2757.2,1695.18" />
<polyline class="BarLine" fill="none" stroke="#000000" stroke-width="4.85" stroke-linejoin="bevel" points="2522.4,1894.19 2522.4,1951.01" />
<polyline class="BarLine" fill="none" stroke="#000000" stroke-width="4.85" stroke-linejoin="bevel" points="1968.21,1894.19 1968.21,1951.01" />
<polyline class="BarLine" fill="none" stroke="#000000" stroke-width="4.85" stroke-linejoin="bevel" points="1041.43,1867.26 1041.43,1977.94" />
<polyline class="BarLine" fill="none" stroke="#000000" stroke-width="4.85" stroke-linejoin="bevel" points="2360.21,992.062 2360.21,1048.88" />
<polyline class="BarLine" fill="none" stroke="#000000" stroke-width="4.85" stroke-linejoin="bevel" points="215.022,965.133 215.022,1075.81" />
<polyline class="BarLine" fill="none" stroke="#000000" stroke-width="4.85" stroke-linejoin="bevel" points="2737.4,1867.26 2737.4,1977.94" />
<polyline class="BarLine" fill="none" stroke="#000000" stroke-width="14.81" stroke-linejoin="bevel" points="2757.2,1867.26 2757.2,1977.94" />
<polyline class="Stem" fill="none" stroke="#000000" stroke-width="2.69" stroke-linejoin="bevel" points="375.233,432.556 375.233,522.283" />
<polyline class="Stem" fill="none" stroke="#000000" stroke-width="2.69" stroke-linejoin="bevel" points="1913.73,392.162 1913.73,475.276" />
<polyline class="Stem" fill="none" stroke="#000000" stroke-width="2.69" stroke-linejoin="bevel" points="2064.14,419.091 2064.14,488.504" />
<polyline class="Stem" fill="none" stroke="#000000" stroke-width="2.69" stroke-linejoin="bevel" points="1034.59,446.02 1034.59,529.016" />
<polyline class="Stem" fill="none" stroke="#000000" stroke-width="2.69" stroke-linejoin="bevel" points="1539.2,1321.22 1539.2,1404.21" />
<polyline class="Stem" fill="none" stroke="#000000" stroke-width="2.69" stroke-linejoin="bevel" points="814.805,419.091 814.805,508.819" />
<polyline class="Stem" fill="none" stroke="#000000" stroke-width="2.69" stroke-linejoin="bevel" points="1254.38,419.091 1254.38,508.819" />
<polyline class="Stem" fill="none" stroke="#000000" stroke-width="2.69" stroke-linejoin="bevel" points="1988.94,405.626 1988.94,481.89" />
<polyline class="Stem" fill="none" stroke="#000000" stroke-width="2.69" stroke-linejoin="bevel" points="1783.47,1334.68 1783.47,1424.41" />
<polyline class="Stem" fill="none" stroke="#000000" stroke-width="2.69" stroke-linejoin="bevel" points="595.019,432.556 595.019,522.283" />
<polyline class="Stem" fill="none" stroke="#000000" stroke-width="2.69" stroke-linejoin="bevel" points="1806.75,405.626 1806.75,495.247" />
<polyline class="Stem" fill="none" stroke="#000000" stroke-width="2.69" stroke-linejoin="bevel" points="2390.91,419.091 2390.91,508.819" />
<polyline class="Stem" fill="none" stroke="#000000" stroke-width="2.69" stroke-linejoin="bevel" points="2503.71,405.626 2503.71,495.247" />
<polyline class="Stem" fill="none" stroke="#000000" stroke-width="2.69" stroke-linejoin="bevel" points="1323.77,1348.15 1323.77,1431.14" />
<polyline class="Stem" fill="none" stroke="#000000" stroke-width="2.69" stroke-linejoin="bevel" points="1474.16,446.02 1474.16,529.016" />
<polyline class="Stem" fill="none" stroke="#000000" stroke-width="2.69" stroke-linejoin="bevel" points="1693.95,419.091 1693.95,508.819" />
<polyline class="Stem" fill="none" stroke="#000000" stroke-width="2.69" stroke-linejoin="bevel" points="1417.08,1334.68 1417.08,1424.3" />
<polyline class="Stem" fill="none" stroke="#000000" stroke-width="2.69" stroke-linejoin="bevel" points="1661.35,1321.22 1661.35,1404.21" />
<polyline class="Stem" fill="none" stroke="#000000" stroke-width="2.69" stroke-linejoin="bevel" points="1600.28,1307.75 1600.28,1404.21" />
<polyline class="Stem" fill="none" stroke="#000000" stroke-width="2.69" stroke-linejoin="bevel" points="2610.69,419.091 2610.69,508.711" />
<polyline class="Stem" fill="none" stroke="#000000" stroke-width="2.69" stroke-linejoin="bevel" points="2171.12,432.556 2171.12,522.283" />
<polyline class="Stem" fill="none" stroke="#000000" stroke-width="2.69" stroke-linejoin="bevel" points="814.805,715.311 814.805,805.039" />
<polyline class="Stem" fill="none" stroke="#000000" stroke-width="2.69" stroke-linejoin="bevel" points="2203.42,760.337 2203.42,670.394" />
<polyline class="Stem" fill="none" stroke="#000000" stroke-width="2.69" stroke-linejoin="bevel" points="1693.95,715.311 1693.95,805.039" />
<polyline class="Stem" fill="none" stroke="#000000" stroke-width="2.69" stroke-linejoin="bevel" points="2642.99,760.337 2642.99,670.394" />
<polyline class="Stem" fill="none" stroke="#000000" stroke-width="2.69" stroke-linejoin="bevel" points="1539.2,1644.37 1539.2,1720.63" />
<polyline class="Stem" fill="none" stroke="#000000" stroke-width="2.69" stroke-linejoin="bevel" points="488.039,742.241 488.039,825.128" />
<polyline class="Stem" fill="none" stroke="#000000" stroke-width="2.69" stroke-linejoin="bevel" points="1913.73,728.776 1913.73,811.89" />
<polyline class="Stem" fill="none" stroke="#000000" stroke-width="2.69" stroke-linejoin="bevel" points="1233.94,1662.46 1233.94,1572.74" />
<polyline class="Stem" fill="none" stroke="#000000" stroke-width="2.69" stroke-linejoin="bevel" points="1783.47,1617.44 1783.47,1707.17" />
<polyline class="Stem" fill="none" stroke="#000000" stroke-width="2.69" stroke-linejoin="bevel" points="1474.16,728.776 1474.16,811.772" />
<polyline class="Stem" fill="none" stroke="#000000" stroke-width="2.69" stroke-linejoin="bevel" points="2503.71,742.241 2503.71,825.128" />
<polyline class="Stem" fill="none" stroke="#000000" stroke-width="2.69" stroke-linejoin="bevel" points="1323.77,1630.9 1323.77,1713.9" />
<polyline class="Stem" fill="none" stroke="#000000" stroke-width="2.69" stroke-linejoin="bevel" points="2390.91,742.241 2390.91,818.504" />
<polyline class="Stem" fill="none" stroke="#000000" stroke-width="2.69" stroke-linejoin="bevel" points="1254.38,701.847 1254.38,791.575" />
<polyline class="Stem" fill="none" stroke="#000000" stroke-width="2.69" stroke-linejoin="bevel" points="1988.94,742.241 1988.94,818.504" />
<polyline class="Stem" fill="none" stroke="#000000" stroke-width="2.69" stroke-linejoin="bevel" points="1661.35,1630.9 1661.35,1713.79" />
<polyline class="Stem" fill="none" stroke="#000000" stroke-width="2.69" stroke-linejoin="bevel" points="595.019,715.311 595.019,805.039" />
<polyline class="Stem" fill="none" stroke="#000000" stroke-width="2.69" stroke-linejoin="bevel" points="407.532,760.337 407.532,670.394" />
<polyline class="Stem" fill="none" stroke="#000000" stroke-width="2.69" stroke-linejoin="bevel" points="2064.14,755.705 2064.14,825.118" />
<polyline class="Stem" fill="none" stroke="#000000" stroke-width="2.69" stroke-linejoin="bevel" points="1034.59,715.311 1034.59,805.039" />
<polyline class="Stem" fill="none" stroke="#000000" stroke-width="2.69" stroke-linejoin="bevel" points="1806.75,715.311 1806.75,804.932" />
<polyline class="Stem" fill="none" stroke="#000000" stroke-width="2.69" stroke-linejoin="bevel" points="1913.73,998.067 1913.73,1087.8" />
<polyline class="Stem" fill="none" stroke="#000000" stroke-width="2.69" stroke-linejoin="bevel" points="2390.91,984.603 2390.91,1074.33" />
<polyline class="Stem" fill="none" stroke="#000000" stroke-width="2.69" stroke-linejoin="bevel" points="1034.59,1011.53 1034.59,1094.53" />
<polyline class="Stem" fill="none" stroke="#000000" stroke-width="2.69" stroke-linejoin="bevel" points="2503.71,971.138 2503.71,1060.76" />
<polyline class="Stem" fill="none" stroke="#000000" stroke-width="2.69" stroke-linejoin="bevel" points="375.233,998.067 375.233,1087.8" />
<polyline class="Stem" fill="none" stroke="#000000" stroke-width="2.69" stroke-linejoin="bevel" points="1449.37,1931.75 1449.37,1848.76" />
<polyline class="Stem" fill="none" stroke="#000000" stroke-width="2.69" stroke-linejoin="bevel" points="595.019,998.067 595.019,1087.8" />
<polyline class="Stem" fill="none" stroke="#000000" stroke-width="2.69" stroke-linejoin="bevel" points="1539.2,1927.12 1539.2,2003.39" />
<polyline class="Stem" fill="none" stroke="#000000" stroke-width="2.69" stroke-linejoin="bevel" points="1815.77,1945.22 1815.77,1855.28" />
<polyline class="Stem" fill="none" stroke="#000000" stroke-width="2.69" stroke-linejoin="bevel" points="2171.12,998.067 2171.12,1087.8" />
<polyline class="Stem" fill="none" stroke="#000000" stroke-width="2.69" stroke-linejoin="bevel" points="2610.69,957.674 2610.69,1047.4" />
<polyline class="Stem" fill="none" stroke="#000000" stroke-width="2.69" stroke-linejoin="bevel" points="1147.4,1011.53 1147.4,1094.42" />
<polyline class="Stem" fill="none" stroke="#000000" stroke-width="2.69" stroke-linejoin="bevel" points="1474.16,1025 1474.16,1101.26" />
<polyline class="Stem" fill="none" stroke="#000000" stroke-width="2.69" stroke-linejoin="bevel" points="1323.77,1913.66 1323.77,1996.65" />
<polyline class="Stem" fill="none" stroke="#000000" stroke-width="2.69" stroke-linejoin="bevel" points="707.825,998.067 707.825,1087.69" />
<polyline class="Stem" fill="none" stroke="#000000" stroke-width="2.69" stroke-linejoin="bevel" points="927.611,998.067 927.611,1087.69" />
<polyline class="Stem" fill="none" stroke="#000000" stroke-width="2.69" stroke-linejoin="bevel" points="1806.75,1025 1806.75,1107.88" />
<polyline class="Stem" fill="none" stroke="#000000" stroke-width="2.69" stroke-linejoin="bevel" points="814.805,1025 814.805,1101.26" />
<polyline class="Stem" fill="none" stroke="#000000" stroke-width="2.69" stroke-linejoin="bevel" points="1201.64,1900.19 1201.64,1989.81" />
<polyline class="Stem" fill="none" stroke="#000000" stroke-width="2.69" stroke-linejoin="bevel" points="1586.97,1025 1586.97,1107.88" />
<polyline class="Stem" fill="none" stroke="#000000" stroke-width="2.69" stroke-linejoin="bevel" points="488.039,971.138 488.039,1060.76" />
<polyline class="Stem" fill="none" stroke="#000000" stroke-width="2.69" stroke-linejoin="bevel" points="1367.18,1011.53 1367.18,1094.42" />
<polyline class="Stem" fill="none" stroke="#000000" stroke-width="2.69" stroke-linejoin="bevel" points="1726.25,1043.09 1726.25,953.15" />
<polyline class="Stem" fill="none" stroke="#000000" stroke-width="2.69" stroke-linejoin="bevel" points="1286.68,1029.63 1286.68,946.417" />
<polyline class="Stem" fill="none" stroke="#000000" stroke-width="2.69" stroke-linejoin="bevel" points="1693.65,1931.75 1693.65,1848.76" />
<path class="Hook" transform="matrix(1.07717,0,0,1.07717,1805.41,495.354)" d="M0,-0.1 C0,0.6 0.6,1.2 1.3,1.2 C1.8,1.2 2.4,0.8 2.5,0.4 C2.5,0.3 3.4,-3.2 3.5,-3.5 C3.6,-3.9 4.5,-7.7 8.1,-13.6 C12,-20.1 18,-24.8 23,-31.8 C27.9,-38.8 30.9,-45.4 30.9,-54.2 C30.9,-63.3 28.8,-70.9 23.5,-80.6 C23.2,-81.3 22.6,-81.7 22,-81.7 C21.8,-81.7 21.6,-81.7 21.5,-81.6 C21,-81.4 20.8,-81 20.8,-80.4 C20.8,-80.1 20.9,-79.6 21.1,-79.2 C25.1,-69.9 26.7,-64.6 26.7,-57.4 C26.7,-49.1 23.8,-44.8 22,-41.7 C15.5,-30.6 5,-25.2 0.8,-23.8 C0.1,-23.5 0,-23 0,-22.7 L0,-0.1 "/>
<path class="Hook" transform="matrix(1.07717,0,0,1.07717,2502.37,495.354)" d="M0,-0.1 C0,0.6 0.6,1.2 1.3,1.2 C1.8,1.2 2.4,0.8 2.5,0.4 C2.5,0.3 3.4,-3.2 3.5,-3.5 C3.6,-3.9 4.5,-7.7 8.1,-13.6 C12,-20.1 18,-24.8 23,-31.8 C27.9,-38.8 30.9,-45.4 30.9,-54.2 C30.9,-63.3 28.8,-70.9 23.5,-80.6 C23.2,-81.3 22.6,-81.7 22,-81.7 C21.8,-81.7 21.6,-81.7 21.5,-81.6 C21,-81.4 20.8,-81 20.8,-80.4 C20.8,-80.1 20.9,-79.6 21.1,-79.2 C25.1,-69.9 26.7,-64.6 26.7,-57.4 C26.7,-49.1 23.8,-44.8 22,-41.7 C15.5,-30.6 5,-25.2 0.8,-23.8 C0.1,-23.5 0,-23 0,-22.7 L0,-0.1 "/>
<path class="Hook" transform="matrix(1.07717,0,0,1.07717,2609.35,508.819)" d="M0,-0.1 C0,0.6 0.6,1.2 1.3,1.2 C1.8,1.2 2.4,0.8 2.5,0.4 C2.5,0.3 3.4,-3.2 3.5,-3.5 C3.6,-3.9 4.5,-7.7 8.1,-13.6 C12,-20.1 18,-24.8 23,-31.8 C27.9,-38.8 30.9,-45.4 30.9,-54.2 C30.9,-63.3 28.8,-70.9 23.5,-80.6 C23.2,-81.3 22.6,-81.7 22,-81.7 C21.8,-81.7 21.6,-81.7 21.5,-81.6 C21,-81.4 20.8,-81 20.8,-80.4 C20.8,-80.1 20.9,-79.6 21.1,-79.2 C25.1,-69.9 26.7,-64.6 26.7,-57.4 C26.7,-49.1 23.8,-44.8 22,-41.7 C15.5,-30.6 5,-25.2 0.8,-23.8 C0.1,-23.5 0,-23 0,-22.7 L0,-0.1 "/>
<path class="Hook" transform="matrix(1.07717,0,0,1.07717,1415.73,1424.41)" d="M0,-0.1 C0,0.6 0.6,1.2 1.3,1.2 C1.8,1.2 2.4,0.8 2.5,0.4 C2.5,0.3 3.4,-3.2 3.5,-3.5 C3.6,-3.9 4.5,-7.7 8.1,-13.6 C12,-20.1 18,-24.8 23,-31.8 C27.9,-38.8 30.9,-45.4 30.9,-54.2 C30.9,-63.3 28.8,-70.9 23.5,-80.6 C23.2,-81.3 22.6,-81.7 22,-81.7 C21.8,-81.7 21.6,-81.7 21.5,-81.6 C21,-81.4 20.8,-81 20.8,-80.4 C20.8,-80.1 20.9,-79.6 21.1,-79.2 C25.1,-69.9 26.7,-64.6 26.7,-57.4 C26.7,-49.1 23.8,-44.8 22,-41.7 C15.5,-30.6 5,-25.2 0.8,-23.8 C0.1,-23.5 0,-23 0,-22.7 L0,-0.1 "/>
<path class="Hook" transform="matrix(1.07717,0,0,1.07717,1805.41,805.039)" d="M0,-0.1 C0,0.6 0.6,1.2 1.3,1.2 C1.8,1.2 2.4,0.8 2.5,0.4 C2.5,0.3 3.4,-3.2 3.5,-3.5 C3.6,-3.9 4.5,-7.7 8.1,-13.6 C12,-20.1 18,-24.8 23,-31.8 C27.9,-38.8 30.9,-45.4 30.9,-54.2 C30.9,-63.3 28.8,-70.9 23.5,-80.6 C23.2,-81.3 22.6,-81.7 22,-81.7 C21.8,-81.7 21.6,-81.7 21.5,-81.6 C21,-81.4 20.8,-81 20.8,-80.4 C20.8,-80.1 20.9,-79.6 21.1,-79.2 C25.1,-69.9 26.7,-64.6 26.7,-57.4 C26.7,-49.1 23.8,-44.8 22,-41.7 C15.5,-30.6 5,-25.2 0.8,-23.8 C0.1,-23.5 0,-23 0,-22.7 L0,-0.1 "/>
<path class="Hook" transform="matrix(1.07717,0,0,1.07717,2502.37,825.236)" d="M0,-0.1 C0,0.6 0.6,1.2 1.3,1.2 C1.8,1.2 2.4,0.8 2.5,0.4 C2.5,0.3 3.4,-3.2 3.5,-3.5 C3.6,-3.9 4.5,-7.7 8.1,-13.6 C12,-20.1 18,-24.8 23,-31.8 C27.9,-38.8 30.9,-45.4 30.9,-54.2 C30.9,-63.3 28.8,-70.9 23.5,-80.6 C23.2,-81.3 22.6,-81.7 22,-81.7 C21.8,-81.7 21.6,-81.7 21.5,-81.6 C21,-81.4 20.8,-81 20.8,-80.4 C20.8,-80.1 20.9,-79.6 21.1,-79.2 C25.1,-69.9 26.7,-64.6 26.7,-57.4 C26.7,-49.1 23.8,-44.8 22,-41.7 C15.5,-30.6 5,-25.2 0.8,-23.8 C0.1,-23.5 0,-23 0,-22.7 L0,-0.1 "/>
<path class="Hook" transform="matrix(1.07717,0,0,1.07717,486.693,825.236)" d="M0,-0.1 C0,0.6 0.6,1.2 1.3,1.2 C1.8,1.2 2.4,0.8 2.5,0.4 C2.5,0.3 3.4,-3.2 3.5,-3.5 C3.6,-3.9 4.5,-7.7 8.1,-13.6 C12,-20.1 18,-24.8 23,-31.8 C27.9,-38.8 30.9,-45.4 30.9,-54.2 C30.9,-63.3 28.8,-70.9 23.5,-80.6 C23.2,-81.3 22.6,-81.7 22,-81.7 C21.8,-81.7 21.6,-81.7 21.5,-81.6 C21,-81.4 20.8,-81 20.8,-80.4 C20.8,-80.1 20.9,-79.6 21.1,-79.2 C25.1,-69.9 26.7,-64.6 26.7,-57.4 C26.7,-49.1 23.8,-44.8 22,-41.7 C15.5,-30.6 5,-25.2 0.8,-23.8 C0.1,-23.5 0,-23 0,-22.7 L0,-0.1 "/>
<path class="Hook" transform="matrix(1.07717,0,0,1.07717,1232.59,1572.52)" d="M0,22.7 C0,23 0.1,23.5 0.8,23.8 C5.1,25.2 13.7,30.6 20.2,41.7 C22,44.8 24.9,49.1 24.9,57.4 C24.9,64.6 23,72 20.4,79.2 C20.2,79.8 20,80.3 20.1,80.7 C20.1,81.1 20.2,81.4 20.6,81.6 C20.8,81.7 21,81.7 21.1,81.7 C21.8,81.7 22.3,81.3 22.7,80.6 C27.4,72.3 29,61.7 28.9,55.4 C28.9,54.9 28.9,54.6 28.9,54.2 C28.4,41.3 21,31.8 21,31.8 C21.3,31.8 11.8,19.5 9.1,15.3 C5.4,9.6 3.7,3.9 3.5,3.5 C3.4,3.2 2.5,-0.4 2.5,-0.4 C2.4,-0.8 1.9,-1.2 1.3,-1.2 C0.6,-1.2 0,-0.6 0,0.1 L0,22.7 "/>
<path class="Hook" transform="matrix(1.07717,0,0,1.07717,1660,1713.9)" d="M0,-0.1 C0,0.6 0.6,1.2 1.3,1.2 C1.8,1.2 2.4,0.8 2.5,0.4 C2.5,0.3 3.4,-3.2 3.5,-3.5 C3.6,-3.9 4.5,-7.7 8.1,-13.6 C12,-20.1 18,-24.8 23,-31.8 C27.9,-38.8 30.9,-45.4 30.9,-54.2 C30.9,-63.3 28.8,-70.9 23.5,-80.6 C23.2,-81.3 22.6,-81.7 22,-81.7 C21.8,-81.7 21.6,-81.7 21.5,-81.6 C21,-81.4 20.8,-81 20.8,-80.4 C20.8,-80.1 20.9,-79.6 21.1,-79.2 C25.1,-69.9 26.7,-64.6 26.7,-57.4 C26.7,-49.1 23.8,-44.8 22,-41.7 C15.5,-30.6 5,-25.2 0.8,-23.8 C0.1,-23.5 0,-23 0,-22.7 L0,-0.1 "/>
<path class="Hook" transform="matrix(1.07717,0,0,1.07717,2502.37,1060.87)" d="M0,-0.1 C0,0.6 0.6,1.2 1.3,1.2 C1.8,1.2 2.4,0.8 2.5,0.4 C2.5,0.3 3.4,-3.2 3.5,-3.5 C3.6,-3.9 4.5,-7.7 8.1,-13.6 C12,-20.1 18,-24.8 23,-31.8 C27.9,-38.8 30.9,-45.4 30.9,-54.2 C30.9,-63.3 28.8,-70.9 23.5,-80.6 C23.2,-81.3 22.6,-81.7 22,-81.7 C21.8,-81.7 21.6,-81.7 21.5,-81.6 C21,-81.4 20.8,-81 20.8,-80.4 C20.8,-80.1 20.9,-79.6 21.1,-79.2 C25.1,-69.9 26.7,-64.6 26.7,-57.4 C26.7,-49.1 23.8,-44.8 22,-41.7 C15.5,-30.6 5,-25.2 0.8,-23.8 C0.1,-23.5 0,-23 0,-22.7 L0,-0.1 "/>
<path class="Hook" transform="matrix(1.07717,0,0,1.07717,1692.3,1848.54)" d="M0,22.7 C0,23 0.1,23.5 0.8,23.8 C5.1,25.2 13.7,30.6 20.2,41.7 C22,44.8 24.9,49.1 24.9,57.4 C24.9,64.6 23,72 20.4,79.2 C20.2,79.8 20,80.3 20.1,80.7 C20.1,81.1 20.2,81.4 20.6,81.6 C20.8,81.7 21,81.7 21.1,81.7 C21.8,81.7 22.3,81.3 22.7,80.6 C27.4,72.3 29,61.7 28.9,55.4 C28.9,54.9 28.9,54.6 28.9,54.2 C28.4,41.3 21,31.8 21,31.8 C21.3,31.8 11.8,19.5 9.1,15.3 C5.4,9.6 3.7,3.9 3.5,3.5 C3.4,3.2 2.5,-0.4 2.5,-0.4 C2.4,-0.8 1.9,-1.2 1.3,-1.2 C0.6,-1.2 0,-0.6 0,0.1 L0,22.7 "/>
<path class="Hook" transform="matrix(1.07717,0,0,1.07717,1200.3,1989.92)" d="M0,-0.1 C0,0.6 0.6,1.2 1.3,1.2 C1.8,1.2 2.4,0.8 2.5,0.4 C2.5,0.3 3.4,-3.2 3.5,-3.5 C3.6,-3.9 4.5,-7.7 8.1,-13.6 C12,-20.1 18,-24.8 23,-31.8 C27.9,-38.8 30.9,-45.4 30.9,-54.2 C30.9,-63.3 28.8,-70.9 23.5,-80.6 C23.2,-81.3 22.6,-81.7 22,-81.7 C21.8,-81.7 21.6,-81.7 21.5,-81.6 C21,-81.4 20.8,-81 20.8,-80.4 C20.8,-80.1 20.9,-79.6 21.1,-79.2 C25.1,-69.9 26.7,-64.6 26.7,-57.4 C26.7,-49.1 23.8,-44.8 22,-41.7 C15.5,-30.6 5,-25.2 0.8,-23.8 C0.1,-23.5 0,-23 0,-22.7 L0,-0.1 "/>
<path class="Hook" transform="matrix(1.07717,0,0,1.07717,486.693,1060.87)" d="M0,-0.1 C0,0.6 0.6,1.2 1.3,1.2 C1.8,1.2 2.4,0.8 2.5,0.4 C2.5,0.3 3.4,-3.2 3.5,-3.5 C3.6,-3.9 4.5,-7.7 8.1,-13.6 C12,-20.1 18,-24.8 23,-31.8 C27.9,-38.8 30.9,-45.4 30.9,-54.2 C30.9,-63.3 28.8,-70.9 23.5,-80.6 C23.2,-81.3 22.6,-81.7 22,-81.7 C21.8,-81.7 21.6,-81.7 21.5,-81.6 C21,-81.4 20.8,-81 20.8,-80.4 C20.8,-80.1 20.9,-79.6 21.1,-79.2 C25.1,-69.9 26.7,-64.6 26.7,-57.4 C26.7,-49.1 23.8,-44.8 22,-41.7 C15.5,-30.6 5,-25.2 0.8,-23.8 C0.1,-23.5 0,-23 0,-22.7 L0,-0.1 "/>
<path class="Hook" transform="matrix(1.07717,0,0,1.07717,706.479,1087.8)" d="M0,-0.1 C0,0.6 0.6,1.2 1.3,1.2 C1.8,1.2 2.4,0.8 2.5,0.4 C2.5,0.3 3.4,-3.2 3.5,-3.5 C3.6,-3.9 4.5,-7.7 8.1,-13.6 C12,-20.1 18,-24.8 23,-31.8 C27.9,-38.8 30.9,-45.4 30.9,-54.2 C30.9,-63.3 28.8,-70.9 23.5,-80.6 C23.2,-81.3 22.6,-81.7 22,-81.7 C21.8,-81.7 21.6,-81.7 21.5,-81.6 C21,-81.4 20.8,-81 20.8,-80.4 C20.8,-80.1 20.9,-79.6 21.1,-79.2 C25.1,-69.9 26.7,-64.6 26.7,-57.4 C26.7,-49.1 23.8,-44.8 22,-41.7 C15.5,-30.6 5,-25.2 0.8,-23.8 C0.1,-23.5 0,-23 0,-22.7 L0,-0.1 "/>
<path class="Hook" transform="matrix(1.07717,0,0,1.07717,1805.41,1107.99)" d="M0,-0.1 C0,0.6 0.6,1.2 1.3,1.2 C1.8,1.2 2.4,0.8 2.5,0.4 C2.5,0.3 3.4,-3.2 3.5,-3.5 C3.6,-3.9 4.5,-7.7 8.1,-13.6 C12,-20.1 18,-24.8 23,-31.8 C27.9,-38.8 30.9,-45.4 30.9,-54.2 C30.9,-63.3 28.8,-70.9 23.5,-80.6 C23.2,-81.3 22.6,-81.7 22,-81.7 C21.8,-81.7 21.6,-81.7 21.5,-81.6 C21,-81.4 20.8,-81 20.8,-80.4 C20.8,-80.1 20.9,-79.6 21.1,-79.2 C25.1,-69.9 26.7,-64.6 26.7,-57.4 C26.7,-49.1 23.8,-44.8 22,-41.7 C15.5,-30.6 5,-25.2 0.8,-23.8 C0.1,-23.5 0,-23 0,-22.7 L0,-0.1 "/>
<path class="Hook" transform="matrix(1.07717,0,0,1.07717,1585.62,1107.99)" d="M0,-0.1 C0,0.6 0.6,1.2 1.3,1.2 C1.8,1.2 2.4,0.8 2.5,0.4 C2.5,0.3 3.4,-3.2 3.5,-3.5 C3.6,-3.9 4.5,-7.7 8.1,-13.6 C12,-20.1 18,-24.8 23,-31.8 C27.9,-38.8 30.9,-45.4 30.9,-54.2 C30.9,-63.3 28.8,-70.9 23.5,-80.6 C23.2,-81.3 22.6,-81.7 22,-81.7 C21.8,-81.7 21.6,-81.7 21.5,-81.6 C21,-81.4 20.8,-81 20.8,-80.4 C20.8,-80.1 20.9,-79.6 21.1,-79.2 C25.1,-69.9 26.7,-64.6 26.7,-57.4 C26.7,-49.1 23.8,-44.8 22,-41.7 C15.5,-30.6 5,-25.2 0.8,-23.8 C0.1,-23.5 0,-23 0,-22.7 L0,-0.1 "/>
<path class="Hook" transform="matrix(1.07717,0,0,1.07717,1448.03,1848.54)" d="M0,22.7 C0,23 0.1,23.5 0.8,23.8 C5.1,25.2 13.7,30.6 20.2,41.7 C22,44.8 24.9,49.1 24.9,57.4 C24.9,64.6 23,72 20.4,79.2 C20.2,79.8 20,80.3 20.1,80.7 C20.1,81.1 20.2,81.4 20.6,81.6 C20.8,81.7 21,81.7 21.1,81.7 C21.8,81.7 22.3,81.3 22.7,80.6 C27.4,72.3 29,61.7 28.9,55.4 C28.9,54.9 28.9,54.6 28.9,54.2 C28.4,41.3 21,31.8 21,31.8 C21.3,31.8 11.8,19.5 9.1,15.3 C5.4,9.6 3.7,3.9 3.5,3.5 C3.4,3.2 2.5,-0.4 2.5,-0.4 C2.4,-0.8 1.9,-1.2 1.3,-1.2 C0.6,-1.2 0,-0.6 0,0.1 L0,22.7 "/>
<path class="Hook" transform="matrix(1.07717,0,0,1.07717,1365.84,1094.53)" d="M0,-0.1 C0,0.6 0.6,1.2 1.3,1.2 C1.8,1.2 2.4,0.8 2.5,0.4 C2.5,0.3 3.4,-3.2 3.5,-3.5 C3.6,-3.9 4.5,-7.7 8.1,-13.6 C12,-20.1 18,-24.8 23,-31.8 C27.9,-38.8 30.9,-45.4 30.9,-54.2 C30.9,-63.3 28.8,-70.9 23.5,-80.6 C23.2,-81.3 22.6,-81.7 22,-81.7 C21.8,-81.7 21.6,-81.7 21.5,-81.6 C21,-81.4 20.8,-81 20.8,-80.4 C20.8,-80.1 20.9,-79.6 21.1,-79.2 C25.1,-69.9 26.7,-64.6 26.7,-57.4 C26.7,-49.1 23.8,-44.8 22,-41.7 C15.5,-30.6 5,-25.2 0.8,-23.8 C0.1,-23.5 0,-23 0,-22.7 L0,-0.1 "/>
<path class="Hook" transform="matrix(1.07717,0,0,1.07717,926.264,1087.8)" d="M0,-0.1 C0,0.6 0.6,1.2 1.3,1.2 C1.8,1.2 2.4,0.8 2.5,0.4 C2.5,0.3 3.4,-3.2 3.5,-3.5 C3.6,-3.9 4.5,-7.7 8.1,-13.6 C12,-20.1 18,-24.8 23,-31.8 C27.9,-38.8 30.9,-45.4 30.9,-54.2 C30.9,-63.3 28.8,-70.9 23.5,-80.6 C23.2,-81.3 22.6,-81.7 22,-81.7 C21.8,-81.7 21.6,-81.7 21.5,-81.6 C21,-81.4 20.8,-81 20.8,-80.4 C20.8,-80.1 20.9,-79.6 21.1,-79.2 C25.1,-69.9 26.7,-64.6 26.7,-57.4 C26.7,-49.1 23.8,-44.8 22,-41.7 C15.5,-30.6 5,-25.2 0.8,-23.8 C0.1,-23.5 0,-23 0,-22.7 L0,-0.1 "/>
<path class="Hook" transform="matrix(1.07717,0,0,1.07717,1146.05,1094.53)" d="M0,-0.1 C0,0.6 0.6,1.2 1.3,1.2 C1.8,1.2 2.4,0.8 2.5,0.4 C2.5,0.3 3.4,-3.2 3.5,-3.5 C3.6,-3.9 4.5,-7.7 8.1,-13.6 C12,-20.1 18,-24.8 23,-31.8 C27.9,-38.8 30.9,-45.4 30.9,-54.2 C30.9,-63.3 28.8,-70.9 23.5,-80.6 C23.2,-81.3 22.6,-81.7 22,-81.7 C21.8,-81.7 21.6,-81.7 21.5,-81.6 C21,-81.4 20.8,-81 20.8,-80.4 C20.8,-80.1 20.9,-79.6 21.1,-79.2 C25.1,-69.9 26.7,-64.6 26.7,-57.4 C26.7,-49.1 23.8,-44.8 22,-41.7 C15.5,-30.6 5,-25.2 0.8,-23.8 C0.1,-23.5 0,-23 0,-22.7 L0,-0.1 "/>
<path class="Note" transform="matrix(1.07717,0,0,1.07717,1987.59,401.102)" d="M0,4.2 C0,8.5 3.1,13.3 11.2,13.3 C21.6,13.3 32.5,4.8 32.5,-4 C32.5,-9.9 27.5,-13.2 21.3,-13.2 C11.6,-13.2 0,-5 0,4.2"/>
<path class="Note" transform="matrix(1.07717,0,0,1.07717,2336.75,1316.69)" d="M0,4.2 C0,8.5 3.1,13.3 11.2,13.3 C21.6,13.3 32.5,4.8 32.5,-4 C32.5,-9.9 27.5,-13.2 21.3,-13.2 C11.6,-13.2 0,-5 0,4.2"/>
<path class="Note" transform="matrix(1.07717,0,0,1.07717,1997.56,1343.62)" d="M0,4.2 C0,8.5 3.1,13.3 11.2,13.3 C21.6,13.3 32.5,4.8 32.5,-4 C32.5,-9.9 27.5,-13.2 21.3,-13.2 C11.6,-13.2 0,-5 0,4.2"/>
<path class="Note" transform="matrix(1.07717,0,0,1.07717,2169.78,428.031)" d="M0,4.2 C0,8.5 3.1,13.3 11.2,13.3 C21.6,13.3 32.5,4.8 32.5,-4 C32.5,-9.9 27.5,-13.2 21.3,-13.2 C11.6,-13.2 0,-5 0,4.2"/>
<path class="Note" transform="matrix(1.07717,0,0,1.07717,1598.93,1303.23)" d="M0,4.2 C0,8.5 3.1,13.3 11.2,13.3 C21.6,13.3 32.5,4.8 32.5,-4 C32.5,-9.9 27.5,-13.2 21.3,-13.2 C11.6,-13.2 0,-5 0,4.2"/>
<path class="Note" transform="matrix(1.07717,0,0,1.07717,1033.24,441.496)" d="M0,4.2 C0,8.5 3.1,13.3 11.2,13.3 C21.6,13.3 32.5,4.8 32.5,-4 C32.5,-9.9 27.5,-13.2 21.3,-13.2 C11.6,-13.2 0,-5 0,4.2"/>
<path class="Note" transform="matrix(1.07717,0,0,1.07717,2062.8,414.567)" d="M0,4.2 C0,8.5 3.1,13.3 11.2,13.3 C21.6,13.3 32.5,4.8 32.5,-4 C32.5,-9.9 27.5,-13.2 21.3,-13.2 C11.6,-13.2 0,-5 0,4.2"/>
<path class="Note" transform="matrix(1.07717,0,0,1.07717,1537.85,1316.69)" d="M0,4.2 C0,8.5 3.1,13.3 11.2,13.3 C21.6,13.3 32.5,4.8 32.5,-4 C32.5,-9.9 27.5,-13.2 21.3,-13.2 C11.6,-13.2 0,-5 0,4.2"/>
<path class="Note" transform="matrix(1.07717,0,0,1.07717,1253.03,414.567)" d="M0,4.2 C0,8.5 3.1,13.3 11.2,13.3 C21.6,13.3 32.5,4.8 32.5,-4 C32.5,-9.9 27.5,-13.2 21.3,-13.2 C11.6,-13.2 0,-5 0,4.2"/>
<path class="Note" transform="matrix(1.07717,0,0,1.07717,2609.35,414.567)" d="M0,4.2 C0,8.5 3.1,13.3 11.2,13.3 C21.6,13.3 32.5,4.8 32.5,-4 C32.5,-9.9 27.5,-13.2 21.3,-13.2 C11.6,-13.2 0,-5 0,4.2"/>
<path class="Note" transform="matrix(1.07717,0,0,1.07717,1472.82,441.496)" d="M0,4.2 C0,8.5 3.1,13.3 11.2,13.3 C21.6,13.3 32.5,4.8 32.5,-4 C32.5,-9.9 27.5,-13.2 21.3,-13.2 C11.6,-13.2 0,-5 0,4.2"/>
<path class="Note" transform="matrix(1.07717,0,0,1.07717,2643.37,1289.76)" d="M0,4.2 C0,8.5 3.1,13.3 11.2,13.3 C21.6,13.3 32.5,4.8 32.5,-4 C32.5,-9.9 27.5,-13.2 21.3,-13.2 C11.6,-13.2 0,-5 0,4.2"/>
<path class="Note" transform="matrix(1.07717,0,0,1.07717,813.459,414.567)" d="M0,4.2 C0,8.5 3.1,13.3 11.2,13.3 C21.6,13.3 32.5,4.8 32.5,-4 C32.5,-9.9 27.5,-13.2 21.3,-13.2 C11.6,-13.2 0,-5 0,4.2"/>
<path class="Note" transform="matrix(1.07717,0,0,1.07717,1415.73,1330.16)" d="M0,4.2 C0,8.5 3.1,13.3 11.2,13.3 C21.6,13.3 32.5,4.8 32.5,-4 C32.5,-9.9 27.5,-13.2 21.3,-13.2 C11.6,-13.2 0,-5 0,4.2"/>
<path class="Note" transform="matrix(1.07717,0,0,1.07717,2551.75,1303.23)" d="M0,4.2 C0,8.5 3.1,13.3 11.2,13.3 C21.6,13.3 32.5,4.8 32.5,-4 C32.5,-9.9 27.5,-13.2 21.3,-13.2 C11.6,-13.2 0,-5 0,4.2"/>
<path class="Note" transform="matrix(1.07717,0,0,1.07717,2167.16,1330.16)" d="M0,4.2 C0,8.5 3.1,13.3 11.2,13.3 C21.6,13.3 32.5,4.8 32.5,-4 C32.5,-9.9 27.5,-13.2 21.3,-13.2 C11.6,-13.2 0,-5 0,4.2"/>
<path class="Note" transform="matrix(1.07717,0,0,1.07717,1322.42,1343.62)" d="M0,4.2 C0,8.5 3.1,13.3 11.2,13.3 C21.6,13.3 32.5,4.8 32.5,-4 C32.5,-9.9 27.5,-13.2 21.3,-13.2 C11.6,-13.2 0,-5 0,4.2"/>
<path class="Note" transform="matrix(1.07717,0,0,1.07717,373.887,428.031)" d="M0,4.2 C0,8.5 3.1,13.3 11.2,13.3 C21.6,13.3 32.5,4.8 32.5,-4 C32.5,-9.9 27.5,-13.2 21.3,-13.2 C11.6,-13.2 0,-5 0,4.2"/>
<path class="Note" transform="matrix(1.07717,0,0,1.07717,1782.13,1330.16)" d="M0,4.2 C0,8.5 3.1,13.3 11.2,13.3 C21.6,13.3 32.5,4.8 32.5,-4 C32.5,-9.9 27.5,-13.2 21.3,-13.2 C11.6,-13.2 0,-5 0,4.2"/>
<path class="Note" transform="matrix(1.07717,0,0,1.07717,1692.6,414.567)" d="M0,4.2 C0,8.5 3.1,13.3 11.2,13.3 C21.6,13.3 32.5,4.8 32.5,-4 C32.5,-9.9 27.5,-13.2 21.3,-13.2 C11.6,-13.2 0,-5 0,4.2"/>
<path class="Note" transform="matrix(1.07717,0,0,1.07717,1805.41,401.102)" d="M0,4.2 C0,8.5 3.1,13.3 11.2,13.3 C21.6,13.3 32.5,4.8 32.5,-4 C32.5,-9.9 27.5,-13.2 21.3,-13.2 C11.6,-13.2 0,-5 0,4.2"/>
<path class="Note" transform="matrix(1.07717,0,0,1.07717,2389.56,414.567)" d="M0,4.2 C0,8.5 3.1,13.3 11.2,13.3 C21.6,13.3 32.5,4.8 32.5,-4 C32.5,-9.9 27.5,-13.2 21.3,-13.2 C11.6,-13.2 0,-5 0,4.2"/>
<path class="Note" transform="matrix(1.07717,0,0,1.07717,2502.37,401.102)" d="M0,4.2 C0,8.5 3.1,13.3 11.2,13.3 C21.6,13.3 32.5,4.8 32.5,-4 C32.5,-9.9 27.5,-13.2 21.3,-13.2 C11.6,-13.2 0,-5 0,4.2"/>
<path class="Note" transform="matrix(1.07717,0,0,1.07717,2428.36,1303.23)" d="M0,4.2 C0,8.5 3.1,13.3 11.2,13.3 C21.6,13.3 32.5,4.8 32.5,-4 C32.5,-9.9 27.5,-13.2 21.3,-13.2 C11.6,-13.2 0,-5 0,4.2"/>
<path class="Note" transform="matrix(1.07717,0,0,1.07717,1912.39,387.638)" d="M0,4.2 C0,8.5 3.1,13.3 11.2,13.3 C21.6,13.3 32.5,4.8 32.5,-4 C32.5,-9.9 27.5,-13.2 21.3,-13.2 C11.6,-13.2 0,-5 0,4.2"/>
<path class="Note" transform="matrix(1.07717,0,0,1.07717,593.673,428.031)" d="M0,4.2 C0,8.5 3.1,13.3 11.2,13.3 C21.6,13.3 32.5,4.8 32.5,-4 C32.5,-9.9 27.5,-13.2 21.3,-13.2 C11.6,-13.2 0,-5 0,4.2"/>
<path class="Note" transform="matrix(1.07717,0,0,1.07717,1660,1316.69)" d="M0,4.2 C0,8.5 3.1,13.3 11.2,13.3 C21.6,13.3 32.5,4.8 32.5,-4 C32.5,-9.9 27.5,-13.2 21.3,-13.2 C11.6,-13.2 0,-5 0,4.2"/>
<path class="Note" transform="matrix(1.07717,0,0,1.07717,593.673,710.787)" d="M0,4.2 C0,8.5 3.1,13.3 11.2,13.3 C21.6,13.3 32.5,4.8 32.5,-4 C32.5,-9.9 27.5,-13.2 21.3,-13.2 C11.6,-13.2 0,-5 0,4.2"/>
<path class="Note" transform="matrix(1.07717,0,0,1.07717,2551.75,1626.38)" d="M0,4.2 C0,8.5 3.1,13.3 11.2,13.3 C21.6,13.3 32.5,4.8 32.5,-4 C32.5,-9.9 27.5,-13.2 21.3,-13.2 C11.6,-13.2 0,-5 0,4.2"/>
<path class="Note" transform="matrix(1.07717,0,0,1.07717,2239.84,1639.84)" d="M0,4.2 C0,8.5 3.1,13.3 11.2,13.3 C21.6,13.3 32.5,4.8 32.5,-4 C32.5,-9.9 27.5,-13.2 21.3,-13.2 C11.6,-13.2 0,-5 0,4.2"/>
<path class="Note" transform="matrix(1.07717,0,0,1.07717,2502.37,737.716)" d="M0,4.2 C0,8.5 3.1,13.3 11.2,13.3 C21.6,13.3 32.5,4.8 32.5,-4 C32.5,-9.9 27.5,-13.2 21.3,-13.2 C11.6,-13.2 0,-5 0,4.2"/>
<path class="Note" transform="matrix(1.07717,0,0,1.07717,2191.38,1626.38)" d="M0,4.2 C0,8.5 3.1,13.3 11.2,13.3 C21.6,13.3 32.5,4.8 32.5,-4 C32.5,-9.9 27.5,-13.2 21.3,-13.2 C11.6,-13.2 0,-5 0,4.2"/>
<path class="Note" transform="matrix(1.07717,0,0,1.07717,1912.39,724.252)" d="M0,4.2 C0,8.5 3.1,13.3 11.2,13.3 C21.6,13.3 32.5,4.8 32.5,-4 C32.5,-9.9 27.5,-13.2 21.3,-13.2 C11.6,-13.2 0,-5 0,4.2"/>
<path class="Note" transform="matrix(1.07717,0,0,1.07717,2336.75,1639.84)" d="M0,4.2 C0,8.5 3.1,13.3 11.2,13.3 C21.6,13.3 32.5,4.8 32.5,-4 C32.5,-9.9 27.5,-13.2 21.3,-13.2 C11.6,-13.2 0,-5 0,4.2"/>
<path class="Note" transform="matrix(1.07717,0,0,1.07717,2389.56,737.716)" d="M0,4.2 C0,8.5 3.1,13.3 11.2,13.3 C21.6,13.3 32.5,4.8 32.5,-4 C32.5,-9.9 27.5,-13.2 21.3,-13.2 C11.6,-13.2 0,-5 0,4.2"/>
<path class="Note" transform="matrix(1.07717,0,0,1.07717,1782.13,1612.91)" d="M0,4.2 C0,8.5 3.1,13.3 11.2,13.3 C21.6,13.3 32.5,4.8 32.5,-4 C32.5,-9.9 27.5,-13.2 21.3,-13.2 C11.6,-13.2 0,-5 0,4.2"/>
<path class="Note" transform="matrix(1.07717,0,0,1.07717,813.459,710.787)" d="M0,4.2 C0,8.5 3.1,13.3 11.2,13.3 C21.6,13.3 32.5,4.8 32.5,-4 C32.5,-9.9 27.5,-13.2 21.3,-13.2 C11.6,-13.2 0,-5 0,4.2"/>
<path class="Note" transform="matrix(1.07717,0,0,1.07717,2609.35,764.646)" d="M0,4.2 C0,8.5 3.1,13.3 11.2,13.3 C21.6,13.3 32.5,4.8 32.5,-4 C32.5,-9.9 27.5,-13.2 21.3,-13.2 C11.6,-13.2 0,-5 0,4.2"/>
<path class="Note" transform="matrix(1.07717,0,0,1.07717,1660,1626.38)" d="M0,4.2 C0,8.5 3.1,13.3 11.2,13.3 C21.6,13.3 32.5,4.8 32.5,-4 C32.5,-9.9 27.5,-13.2 21.3,-13.2 C11.6,-13.2 0,-5 0,4.2"/>
<path class="Note" transform="matrix(1.07717,0,0,1.07717,1033.24,710.787)" d="M0,4.2 C0,8.5 3.1,13.3 11.2,13.3 C21.6,13.3 32.5,4.8 32.5,-4 C32.5,-9.9 27.5,-13.2 21.3,-13.2 C11.6,-13.2 0,-5 0,4.2"/>
<path class="Note" transform="matrix(1.07717,0,0,1.07717,2169.78,764.646)" d="M0,4.2 C0,8.5 3.1,13.3 11.2,13.3 C21.6,13.3 32.5,4.8 32.5,-4 C32.5,-9.9 27.5,-13.2 21.3,-13.2 C11.6,-13.2 0,-5 0,4.2"/>
<path class="Note" transform="matrix(1.07717,0,0,1.07717,2062.8,751.181)" d="M0,4.2 C0,8.5 3.1,13.3 11.2,13.3 C21.6,13.3 32.5,4.8 32.5,-4 C32.5,-9.9 27.5,-13.2 21.3,-13.2 C11.6,-13.2 0,-5 0,4.2"/>
<path class="Note" transform="matrix(1.07717,0,0,1.07717,1537.85,1639.84)" d="M0,4.2 C0,8.5 3.1,13.3 11.2,13.3 C21.6,13.3 32.5,4.8 32.5,-4 C32.5,-9.9 27.5,-13.2 21.3,-13.2 C11.6,-13.2 0,-5 0,4.2"/>
<path class="Note" transform="matrix(1.07717,0,0,1.07717,1200.3,1666.77)" d="M0,4.2 C0,8.5 3.1,13.3 11.2,13.3 C21.6,13.3 32.5,4.8 32.5,-4 C32.5,-9.9 27.5,-13.2 21.3,-13.2 C11.6,-13.2 0,-5 0,4.2"/>
<path class="Note" transform="matrix(1.07717,0,0,1.07717,2428.36,1626.38)" d="M0,4.2 C0,8.5 3.1,13.3 11.2,13.3 C21.6,13.3 32.5,4.8 32.5,-4 C32.5,-9.9 27.5,-13.2 21.3,-13.2 C11.6,-13.2 0,-5 0,4.2"/>
<path class="Note" transform="matrix(1.07717,0,0,1.07717,1997.56,1599.45)" d="M0,4.2 C0,8.5 3.1,13.3 11.2,13.3 C21.6,13.3 32.5,4.8 32.5,-4 C32.5,-9.9 27.5,-13.2 21.3,-13.2 C11.6,-13.2 0,-5 0,4.2"/>
<path class="Note" transform="matrix(1.07717,0,0,1.07717,1987.59,737.716)" d="M0,4.2 C0,8.5 3.1,13.3 11.2,13.3 C21.6,13.3 32.5,4.8 32.5,-4 C32.5,-9.9 27.5,-13.2 21.3,-13.2 C11.6,-13.2 0,-5 0,4.2"/>
<path class="Note" transform="matrix(1.07717,0,0,1.07717,1805.41,710.787)" d="M0,4.2 C0,8.5 3.1,13.3 11.2,13.3 C21.6,13.3 32.5,4.8 32.5,-4 C32.5,-9.9 27.5,-13.2 21.3,-13.2 C11.6,-13.2 0,-5 0,4.2"/>
<path class="Note" transform="matrix(1.07717,0,0,1.07717,486.693,737.716)" d="M0,4.2 C0,8.5 3.1,13.3 11.2,13.3 C21.6,13.3 32.5,4.8 32.5,-4 C32.5,-9.9 27.5,-13.2 21.3,-13.2 C11.6,-13.2 0,-5 0,4.2"/>
<path class="Note" transform="matrix(1.07717,0,0,1.07717,1253.03,697.323)" d="M0,4.2 C0,8.5 3.1,13.3 11.2,13.3 C21.6,13.3 32.5,4.8 32.5,-4 C32.5,-9.9 27.5,-13.2 21.3,-13.2 C11.6,-13.2 0,-5 0,4.2"/>
<path class="Note" transform="matrix(1.07717,0,0,1.07717,1692.6,710.787)" d="M0,4.2 C0,8.5 3.1,13.3 11.2,13.3 C21.6,13.3 32.5,4.8 32.5,-4 C32.5,-9.9 27.5,-13.2 21.3,-13.2 C11.6,-13.2 0,-5 0,4.2"/>
<path class="Note" transform="matrix(1.07717,0,0,1.07717,2046.02,1585.98)" d="M0,4.2 C0,8.5 3.1,13.3 11.2,13.3 C21.6,13.3 32.5,4.8 32.5,-4 C32.5,-9.9 27.5,-13.2 21.3,-13.2 C11.6,-13.2 0,-5 0,4.2"/>
<path class="Note" transform="matrix(1.07717,0,0,1.07717,2288.29,1653.31)" d="M0,4.2 C0,8.5 3.1,13.3 11.2,13.3 C21.6,13.3 32.5,4.8 32.5,-4 C32.5,-9.9 27.5,-13.2 21.3,-13.2 C11.6,-13.2 0,-5 0,4.2"/>
<path class="Note" transform="matrix(1.07717,0,0,1.07717,373.887,764.646)" d="M0,4.2 C0,8.5 3.1,13.3 11.2,13.3 C21.6,13.3 32.5,4.8 32.5,-4 C32.5,-9.9 27.5,-13.2 21.3,-13.2 C11.6,-13.2 0,-5 0,4.2"/>
<path class="Note" transform="matrix(1.07717,0,0,1.07717,2643.37,1612.91)" d="M0,4.2 C0,8.5 3.1,13.3 11.2,13.3 C21.6,13.3 32.5,4.8 32.5,-4 C32.5,-9.9 27.5,-13.2 21.3,-13.2 C11.6,-13.2 0,-5 0,4.2"/>
<path class="Note" transform="matrix(1.07717,0,0,1.07717,2094.47,1599.45)" d="M0,4.2 C0,8.5 3.1,13.3 11.2,13.3 C21.6,13.3 32.5,4.8 32.5,-4 C32.5,-9.9 27.5,-13.2 21.3,-13.2 C11.6,-13.2 0,-5 0,4.2"/>
<path class="Note" transform="matrix(1.07717,0,0,1.07717,1322.42,1626.38)" d="M0,4.2 C0,8.5 3.1,13.3 11.2,13.3 C21.6,13.3 32.5,4.8 32.5,-4 C32.5,-9.9 27.5,-13.2 21.3,-13.2 C11.6,-13.2 0,-5 0,4.2"/>
<path class="Note" transform="matrix(1.07717,0,0,1.07717,2142.93,1612.91)" d="M0,4.2 C0,8.5 3.1,13.3 11.2,13.3 C21.6,13.3 32.5,4.8 32.5,-4 C32.5,-9.9 27.5,-13.2 21.3,-13.2 C11.6,-13.2 0,-5 0,4.2"/>
<path class="Note" transform="matrix(1.07717,0,0,1.07717,1472.82,724.252)" d="M0,4.2 C0,8.5 3.1,13.3 11.2,13.3 C21.6,13.3 32.5,4.8 32.5,-4 C32.5,-9.9 27.5,-13.2 21.3,-13.2 C11.6,-13.2 0,-5 0,4.2"/>
<path class="Note" transform="matrix(1.07717,0,0,1.07717,2643.37,1949.53)" d="M0,4.2 C0,8.5 3.1,13.3 11.2,13.3 C21.6,13.3 32.5,4.8 32.5,-4 C32.5,-9.9 27.5,-13.2 21.3,-13.2 C11.6,-13.2 0,-5 0,4.2"/>
<path class="Note" transform="matrix(1.07717,0,0,1.07717,1660,1936.06)" d="M0,4.2 C0,8.5 3.1,13.3 11.2,13.3 C21.6,13.3 32.5,4.8 32.5,-4 C32.5,-9.9 27.5,-13.2 21.3,-13.2 C11.6,-13.2 0,-5 0,4.2"/>
<path class="Note" transform="matrix(1.07717,0,0,1.07717,1322.42,1909.13)" d="M0,4.2 C0,8.5 3.1,13.3 11.2,13.3 C21.6,13.3 32.5,4.8 32.5,-4 C32.5,-9.9 27.5,-13.2 21.3,-13.2 C11.6,-13.2 0,-5 0,4.2"/>
<path class="Note" transform="matrix(1.07717,0,0,1.07717,593.673,993.543)" d="M0,4.2 C0,8.5 3.1,13.3 11.2,13.3 C21.6,13.3 32.5,4.8 32.5,-4 C32.5,-9.9 27.5,-13.2 21.3,-13.2 C11.6,-13.2 0,-5 0,4.2"/>
<path class="Note" transform="matrix(1.07717,0,0,1.07717,2551.75,1936.06)" d="M0,4.2 C0,8.5 3.1,13.3 11.2,13.3 C21.6,13.3 32.5,4.8 32.5,-4 C32.5,-9.9 27.5,-13.2 21.3,-13.2 C11.6,-13.2 0,-5 0,4.2"/>
<path class="Note" transform="matrix(1.07717,0,0,1.07717,1912.39,993.543)" d="M0,4.2 C0,8.5 3.1,13.3 11.2,13.3 C21.6,13.3 32.5,4.8 32.5,-4 C32.5,-9.9 27.5,-13.2 21.3,-13.2 C11.6,-13.2 0,-5 0,4.2"/>
<path class="Note" transform="matrix(1.07717,0,0,1.07717,1415.73,1936.06)" d="M0,4.2 C0,8.5 3.1,13.3 11.2,13.3 C21.6,13.3 32.5,4.8 32.5,-4 C32.5,-9.9 27.5,-13.2 21.3,-13.2 C11.6,-13.2 0,-5 0,4.2"/>
<path class="Note" transform="matrix(1.07717,0,0,1.07717,1365.84,1007.01)" d="M0,4.2 C0,8.5 3.1,13.3 11.2,13.3 C21.6,13.3 32.5,4.8 32.5,-4 C32.5,-9.9 27.5,-13.2 21.3,-13.2 C11.6,-13.2 0,-5 0,4.2"/>
<path class="Note" transform="matrix(1.07717,0,0,1.07717,1585.62,1020.47)" d="M0,4.2 C0,8.5 3.1,13.3 11.2,13.3 C21.6,13.3 32.5,4.8 32.5,-4 C32.5,-9.9 27.5,-13.2 21.3,-13.2 C11.6,-13.2 0,-5 0,4.2"/>
<path class="Note" transform="matrix(1.07717,0,0,1.07717,373.887,993.543)" d="M0,4.2 C0,8.5 3.1,13.3 11.2,13.3 C21.6,13.3 32.5,4.8 32.5,-4 C32.5,-9.9 27.5,-13.2 21.3,-13.2 C11.6,-13.2 0,-5 0,4.2"/>
<path class="Note" transform="matrix(1.07717,0,0,1.07717,1997.56,1962.99)" d="M0,4.2 C0,8.5 3.1,13.3 11.2,13.3 C21.6,13.3 32.5,4.8 32.5,-4 C32.5,-9.9 27.5,-13.2 21.3,-13.2 C11.6,-13.2 0,-5 0,4.2"/>
<path class="Note" transform="matrix(1.07717,0,0,1.07717,1253.03,1033.94)" d="M0,4.2 C0,8.5 3.1,13.3 11.2,13.3 C21.6,13.3 32.5,4.8 32.5,-4 C32.5,-9.9 27.5,-13.2 21.3,-13.2 C11.6,-13.2 0,-5 0,4.2"/>
<path class="Note" transform="matrix(1.07717,0,0,1.07717,1692.6,1047.4)" d="M0,4.2 C0,8.5 3.1,13.3 11.2,13.3 C21.6,13.3 32.5,4.8 32.5,-4 C32.5,-9.9 27.5,-13.2 21.3,-13.2 C11.6,-13.2 0,-5 0,4.2"/>
<path class="Note" transform="matrix(1.07717,0,0,1.07717,486.693,966.614)" d="M0,4.2 C0,8.5 3.1,13.3 11.2,13.3 C21.6,13.3 32.5,4.8 32.5,-4 C32.5,-9.9 27.5,-13.2 21.3,-13.2 C11.6,-13.2 0,-5 0,4.2"/>
<path class="Note" transform="matrix(1.07717,0,0,1.07717,1200.3,1895.67)" d="M0,4.2 C0,8.5 3.1,13.3 11.2,13.3 C21.6,13.3 32.5,4.8 32.5,-4 C32.5,-9.9 27.5,-13.2 21.3,-13.2 C11.6,-13.2 0,-5 0,4.2"/>
<path class="Note" transform="matrix(1.07717,0,0,1.07717,2428.36,1962.99)" d="M0,4.2 C0,8.5 3.1,13.3 11.2,13.3 C21.6,13.3 32.5,4.8 32.5,-4 C32.5,-9.9 27.5,-13.2 21.3,-13.2 C11.6,-13.2 0,-5 0,4.2"/>
<path class="Note" transform="matrix(1.07717,0,0,1.07717,1146.05,1007.01)" d="M0,4.2 C0,8.5 3.1,13.3 11.2,13.3 C21.6,13.3 32.5,4.8 32.5,-4 C32.5,-9.9 27.5,-13.2 21.3,-13.2 C11.6,-13.2 0,-5 0,4.2"/>
<path class="Note" transform="matrix(1.07717,0,0,1.07717,1805.41,1020.47)" d="M0,4.2 C0,8.5 3.1,13.3 11.2,13.3 C21.6,13.3 32.5,4.8 32.5,-4 C32.5,-9.9 27.5,-13.2 21.3,-13.2 C11.6,-13.2 0,-5 0,4.2"/>
<path class="Note" transform="matrix(1.07717,0,0,1.07717,2336.75,1976.46)" d="M0,4.2 C0,8.5 3.1,13.3 11.2,13.3 C21.6,13.3 32.5,4.8 32.5,-4 C32.5,-9.9 27.5,-13.2 21.3,-13.2 C11.6,-13.2 0,-5 0,4.2"/>
<path class="Note" transform="matrix(1.07717,0,0,1.07717,1537.85,1922.6)" d="M0,4.2 C0,8.5 3.1,13.3 11.2,13.3 C21.6,13.3 32.5,4.8 32.5,-4 C32.5,-9.9 27.5,-13.2 21.3,-13.2 C11.6,-13.2 0,-5 0,4.2"/>
<path class="Note" transform="matrix(1.07717,0,0,1.07717,2502.37,966.614)" d="M0,4.2 C0,8.5 3.1,13.3 11.2,13.3 C21.6,13.3 32.5,4.8 32.5,-4 C32.5,-9.9 27.5,-13.2 21.3,-13.2 C11.6,-13.2 0,-5 0,4.2"/>
<path class="Note" transform="matrix(1.07717,0,0,1.07717,2389.56,980.079)" d="M0,4.2 C0,8.5 3.1,13.3 11.2,13.3 C21.6,13.3 32.5,4.8 32.5,-4 C32.5,-9.9 27.5,-13.2 21.3,-13.2 C11.6,-13.2 0,-5 0,4.2"/>
<path class="Note" transform="matrix(1.07717,0,0,1.07717,1782.13,1949.53)" d="M0,4.2 C0,8.5 3.1,13.3 11.2,13.3 C21.6,13.3 32.5,4.8 32.5,-4 C32.5,-9.9 27.5,-13.2 21.3,-13.2 C11.6,-13.2 0,-5 0,4.2"/>
<path class="Note" transform="matrix(1.07717,0,0,1.07717,2609.35,953.15)" d="M0,4.2 C0,8.5 3.1,13.3 11.2,13.3 C21.6,13.3 32.5,4.8 32.5,-4 C32.5,-9.9 27.5,-13.2 21.3,-13.2 C11.6,-13.2 0,-5 0,4.2"/>
<path class="Note" transform="matrix(1.07717,0,0,1.07717,1033.24,1007.01)" d="M0,4.2 C0,8.5 3.1,13.3 11.2,13.3 C21.6,13.3 32.5,4.8 32.5,-4 C32.5,-9.9 27.5,-13.2 21.3,-13.2 C11.6,-13.2 0,-5 0,4.2"/>
<path class="Note" transform="matrix(1.07717,0,0,1.07717,706.479,993.543)" d="M0,4.2 C0,8.5 3.1,13.3 11.2,13.3 C21.6,13.3 32.5,4.8 32.5,-4 C32.5,-9.9 27.5,-13.2 21.3,-13.2 C11.6,-13.2 0,-5 0,4.2"/>
<path class="Note" transform="matrix(1.07717,0,0,1.07717,813.459,1020.47)" d="M0,4.2 C0,8.5 3.1,13.3 11.2,13.3 C21.6,13.3 32.5,4.8 32.5,-4 C32.5,-9.9 27.5,-13.2 21.3,-13.2 C11.6,-13.2 0,-5 0,4.2"/>
<path class="Note" transform="matrix(1.07717,0,0,1.07717,2169.78,993.543)" d="M0,4.2 C0,8.5 3.1,13.3 11.2,13.3 C21.6,13.3 32.5,4.8 32.5,-4 C32.5,-9.9 27.5,-13.2 21.3,-13.2 C11.6,-13.2 0,-5 0,4.2"/>
<path class="Note" transform="matrix(1.07717,0,0,1.07717,926.264,993.543)" d="M0,4.2 C0,8.5 3.1,13.3 11.2,13.3 C21.6,13.3 32.5,4.8 32.5,-4 C32.5,-9.9 27.5,-13.2 21.3,-13.2 C11.6,-13.2 0,-5 0,4.2"/>
<path class="Note" transform="matrix(1.07717,0,0,1.07717,1472.82,1020.47)" d="M0,4.2 C0,8.5 3.1,13.3 11.2,13.3 C21.6,13.3 32.5,4.8 32.5,-4 C32.5,-9.9 27.5,-13.2 21.3,-13.2 C11.6,-13.2 0,-5 0,4.2"/>
<path class="Clef" transform="matrix(1.07717,0,0,1.07717,237.642,481.89)" d="M42.3,71.7 C42.3,68 38.9,66.4 35.6,66.4 C31.4,66.4 27.3,69 27.3,73.5 C27.3,75.4 28,76.8 29.4,78.2 C26.8,79.2 24.2,81.2 24.2,84.3 C24.2,87.6 27.2,89.8 31.6,89.8 C37,89.8 40.8,86.8 40.8,82.5 C40.8,80.2 39.8,78.3 38,77 C40.9,75.7 42.3,74.1 42.3,71.7 M32.3,87.7 C30.1,87.7 28.6,86.3 28.6,84.2 C28.6,82.2 29.5,80.6 31.2,79.6 C31.6,79.8 31.7,79.8 32,80 C33.2,80.6 33.2,80.6 33.4,80.8 C35.3,81.9 36.1,82.9 36.1,84.3 C36.1,86.2 34.5,87.7 32.3,87.7 M36.1,75.7 C34.6,74.9 34.2,74.7 33.9,74.5 L33.7,74.4 C32.2,73.5 31.7,72.8 31.7,71.6 C31.7,69.8 33.1,68.5 35.1,68.5 C37,68.5 38.2,69.7 38.2,71.8 C38.2,73.4 37.6,74.5 36.1,75.7 M64,-0.2 C64,-15.3 53.3,-25.5 38.7,-25.5 C37.7,-31.5 36.8,-37.4 35.9,-43 C46.4,-54.1 53.8,-66.7 53.8,-82.5 C53.8,-91.6 51,-99 49.3,-102.6 C46.9,-107.7 44,-111.2 42.3,-111.2 C41.6,-111.2 38.4,-110 35.2,-106.1 C28.7,-98.5 26.9,-85.8 26.9,-77.4 C26.9,-72 27.4,-67.1 29.1,-55.8 C29,-55.8 23.8,-50.5 21.7,-48.7 C12.6,-40.3 0,-28.1 0,-8.2 C0,10.6 16.3,25.3 34.9,25.3 C37.8,25.3 40.5,25 42.9,24.6 C44.7,34.1 45.9,41.2 45.9,46.5 C45.9,56.9 40.5,62.4 30.4,62.4 C28,62.4 25.9,61.9 25.7,61.8 C25.6,61.8 25.4,61.7 25.4,61.6 C25.4,61.4 25.6,61.3 25.9,61.2 C30.6,60.5 35.3,56.4 35.3,50.1 C35.3,44.7 31.2,39 23.7,39 C16.7,39 12.3,44.7 12.3,51.3 C12.3,57.9 17.3,66.6 30.8,66.6 C43.7,66.6 50,59.3 50,46.5 C50,42.6 49.4,38.1 48.4,32.4 C48.1,30.4 47.6,27.3 46.9,23.5 C56.7,20.2 64,10.1 64,-0.2 M33.2,-82.2 C34.2,-86.2 38.7,-96.7 43.9,-96.7 C45.4,-96.7 47.9,-91.9 47.9,-84.9 C47.9,-74.6 40.1,-66.8 33.2,-59.9 C32.6,-63.9 32.1,-67.9 32.1,-72 C32.1,-75.8 32.5,-79.1 33.2,-82.2 M36.2,21.2 C21.9,21.2 9.7,11.2 9.7,-3.9 C9.7,-16.1 18.3,-27 27.1,-34.7 C28.8,-36.1 30.4,-37.5 31.9,-39 C32.8,-33.6 33.5,-29 34.2,-24.8 C25.1,-22.2 18.9,-12.5 18.9,-3.2 C18.9,3.9 24.4,13.5 32.4,13.5 C33.2,13.5 34.1,13.1 34.1,12.1 C34.1,11.3 33.2,10.7 31.9,9.9 C28,7.6 25.8,4.9 25.8,0.1 C25.8,-6 30.4,-10.9 36.2,-12.3 L42,20.5 C40,20.9 38.2,21.2 36.2,21.2 M46.2,19.3 C44.1,7.4 41.4,-8.5 40.7,-12.9 C50.8,-12.9 55.1,-5.9 56,-1.1 C56.1,-0.3 56.3,0.8 56.3,2 C56.3,9.2 53.3,16.4 46.2,19.3"/>
<path class="Clef" transform="matrix(1.07717,0,0,1.07717,1064.05,1384.02)" d="M42.3,71.7 C42.3,68 38.9,66.4 35.6,66.4 C31.4,66.4 27.3,69 27.3,73.5 C27.3,75.4 28,76.8 29.4,78.2 C26.8,79.2 24.2,81.2 24.2,84.3 C24.2,87.6 27.2,89.8 31.6,89.8 C37,89.8 40.8,86.8 40.8,82.5 C40.8,80.2 39.8,78.3 38,77 C40.9,75.7 42.3,74.1 42.3,71.7 M32.3,87.7 C30.1,87.7 28.6,86.3 28.6,84.2 C28.6,82.2 29.5,80.6 31.2,79.6 C31.6,79.8 31.7,79.8 32,80 C33.2,80.6 33.2,80.6 33.4,80.8 C35.3,81.9 36.1,82.9 36.1,84.3 C36.1,86.2 34.5,87.7 32.3,87.7 M36.1,75.7 C34.6,74.9 34.2,74.7 33.9,74.5 L33.7,74.4 C32.2,73.5 31.7,72.8 31.7,71.6 C31.7,69.8 33.1,68.5 35.1,68.5 C37,68.5 38.2,69.7 38.2,71.8 C38.2,73.4 37.6,74.5 36.1,75.7 M64,-0.2 C64,-15.3 53.3,-25.5 38.7,-25.5 C37.7,-31.5 36.8,-37.4 35.9,-43 C46.4,-54.1 53.8,-66.7 53.8,-82.5 C53.8,-91.6 51,-99 49.3,-102.6 C46.9,-107.7 44,-111.2 42.3,-111.2 C41.6,-111.2 38.4,-110 35.2,-106.1 C28.7,-98.5 26.9,-85.8 26.9,-77.4 C26.9,-72 27.4,-67.1 29.1,-55.8 C29,-55.8 23.8,-50.5 21.7,-48.7 C12.6,-40.3 0,-28.1 0,-8.2 C0,10.6 16.3,25.3 34.9,25.3 C37.8,25.3 40.5,25 42.9,24.6 C44.7,34.1 45.9,41.2 45.9,46.5 C45.9,56.9 40.5,62.4 30.4,62.4 C28,62.4 25.9,61.9 25.7,61.8 C25.6,61.8 25.4,61.7 25.4,61.6 C25.4,61.4 25.6,61.3 25.9,61.2 C30.6,60.5 35.3,56.4 35.3,50.1 C35.3,44.7 31.2,39 23.7,39 C16.7,39 12.3,44.7 12.3,51.3 C12.3,57.9 17.3,66.6 30.8,66.6 C43.7,66.6 50,59.3 50,46.5 C50,42.6 49.4,38.1 48.4,32.4 C48.1,30.4 47.6,27.3 46.9,23.5 C56.7,20.2 64,10.1 64,-0.2 M33.2,-82.2 C34.2,-86.2 38.7,-96.7 43.9,-96.7 C45.4,-96.7 47.9,-91.9 47.9,-84.9 C47.9,-74.6 40.1,-66.8 33.2,-59.9 C32.6,-63.9 32.1,-67.9 32.1,-72 C32.1,-75.8 32.5,-79.1 33.2,-82.2 M36.2,21.2 C21.9,21.2 9.7,11.2 9.7,-3.9 C9.7,-16.1 18.3,-27 27.1,-34.7 C28.8,-36.1 30.4,-37.5 31.9,-39 C32.8,-33.6 33.5,-29 34.2,-24.8 C25.1,-22.2 18.9,-12.5 18.9,-3.2 C18.9,3.9 24.4,13.5 32.4,13.5 C33.2,13.5 34.1,13.1 34.1,12.1 C34.1,11.3 33.2,10.7 31.9,9.9 C28,7.6 25.8,4.9 25.8,0.1 C25.8,-6 30.4,-10.9 36.2,-12.3 L42,20.5 C40,20.9 38.2,21.2 36.2,21.2 M46.2,19.3 C44.1,7.4 41.4,-8.5 40.7,-12.9 C50.8,-12.9 55.1,-5.9 56,-1.1 C56.1,-0.3 56.3,0.8 56.3,2 C56.3,9.2 53.3,16.4 46.2,19.3"/>
<path class="Clef" transform="matrix(1.07717,0,0,1.07717,237.642,764.646)" d="M42.3,71.7 C42.3,68 38.9,66.4 35.6,66.4 C31.4,66.4 27.3,69 27.3,73.5 C27.3,75.4 28,76.8 29.4,78.2 C26.8,79.2 24.2,81.2 24.2,84.3 C24.2,87.6 27.2,89.8 31.6,89.8 C37,89.8 40.8,86.8 40.8,82.5 C40.8,80.2 39.8,78.3 38,77 C40.9,75.7 42.3,74.1 42.3,71.7 M32.3,87.7 C30.1,87.7 28.6,86.3 28.6,84.2 C28.6,82.2 29.5,80.6 31.2,79.6 C31.6,79.8 31.7,79.8 32,80 C33.2,80.6 33.2,80.6 33.4,80.8 C35.3,81.9 36.1,82.9 36.1,84.3 C36.1,86.2 34.5,87.7 32.3,87.7 M36.1,75.7 C34.6,74.9 34.2,74.7 33.9,74.5 L33.7,74.4 C32.2,73.5 31.7,72.8 31.7,71.6 C31.7,69.8 33.1,68.5 35.1,68.5 C37,68.5 38.2,69.7 38.2,71.8 C38.2,73.4 37.6,74.5 36.1,75.7 M64,-0.2 C64,-15.3 53.3,-25.5 38.7,-25.5 C37.7,-31.5 36.8,-37.4 35.9,-43 C46.4,-54.1 53.8,-66.7 53.8,-82.5 C53.8,-91.6 51,-99 49.3,-102.6 C46.9,-107.7 44,-111.2 42.3,-111.2 C41.6,-111.2 38.4,-110 35.2,-106.1 C28.7,-98.5 26.9,-85.8 26.9,-77.4 C26.9,-72 27.4,-67.1 29.1,-55.8 C29,-55.8 23.8,-50.5 21.7,-48.7 C12.6,-40.3 0,-28.1 0,-8.2 C0,10.6 16.3,25.3 34.9,25.3 C37.8,25.3 40.5,25 42.9,24.6 C44.7,34.1 45.9,41.2 45.9,46.5 C45.9,56.9 40.5,62.4 30.4,62.4 C28,62.4 25.9,61.9 25.7,61.8 C25.6,61.8 25.4,61.7 25.4,61.6 C25.4,61.4 25.6,61.3 25.9,61.2 C30.6,60.5 35.3,56.4 35.3,50.1 C35.3,44.7 31.2,39 23.7,39 C16.7,39 12.3,44.7 12.3,51.3 C12.3,57.9 17.3,66.6 30.8,66.6 C43.7,66.6 50,59.3 50,46.5 C50,42.6 49.4,38.1 48.4,32.4 C48.1,30.4 47.6,27.3 46.9,23.5 C56.7,20.2 64,10.1 64,-0.2 M33.2,-82.2 C34.2,-86.2 38.7,-96.7 43.9,-96.7 C45.4,-96.7 47.9,-91.9 47.9,-84.9 C47.9,-74.6 40.1,-66.8 33.2,-59.9 C32.6,-63.9 32.1,-67.9 32.1,-72 C32.1,-75.8 32.5,-79.1 33.2,-82.2 M36.2,21.2 C21.9,21.2 9.7,11.2 9.7,-3.9 C9.7,-16.1 18.3,-27 27.1,-34.7 C28.8,-36.1 30.4,-37.5 31.9,-39 C32.8,-33.6 33.5,-29 34.2,-24.8 C25.1,-22.2 18.9,-12.5 18.9,-3.2 C18.9,3.9 24.4,13.5 32.4,13.5 C33.2,13.5 34.1,13.1 34.1,12.1 C34.1,11.3 33.2,10.7 31.9,9.9 C28,7.6 25.8,4.9 25.8,0.1 C25.8,-6 30.4,-10.9 36.2,-12.3 L42,20.5 C40,20.9 38.2,21.2 36.2,21.2 M46.2,19.3 C44.1,7.4 41.4,-8.5 40.7,-12.9 C50.8,-12.9 55.1,-5.9 56,-1.1 C56.1,-0.3 56.3,0.8 56.3,2 C56.3,9.2 53.3,16.4 46.2,19.3"/>
<path class="Clef" transform="matrix(1.07717,0,0,1.07717,1064.05,1666.77)" d="M42.3,71.7 C42.3,68 38.9,66.4 35.6,66.4 C31.4,66.4 27.3,69 27.3,73.5 C27.3,75.4 28,76.8 29.4,78.2 C26.8,79.2 24.2,81.2 24.2,84.3 C24.2,87.6 27.2,89.8 31.6,89.8 C37,89.8 40.8,86.8 40.8,82.5 C40.8,80.2 39.8,78.3 38,77 C40.9,75.7 42.3,74.1 42.3,71.7 M32.3,87.7 C30.1,87.7 28.6,86.3 28.6,84.2 C28.6,82.2 29.5,80.6 31.2,79.6 C31.6,79.8 31.7,79.8 32,80 C33.2,80.6 33.2,80.6 33.4,80.8 C35.3,81.9 36.1,82.9 36.1,84.3 C36.1,86.2 34.5,87.7 32.3,87.7 M36.1,75.7 C34.6,74.9 34.2,74.7 33.9,74.5 L33.7,74.4 C32.2,73.5 31.7,72.8 31.7,71.6 C31.7,69.8 33.1,68.5 35.1,68.5 C37,68.5 38.2,69.7 38.2,71.8 C38.2,73.4 37.6,74.5 36.1,75.7 M64,-0.2 C64,-15.3 53.3,-25.5 38.7,-25.5 C37.7,-31.5 36.8,-37.4 35.9,-43 C46.4,-54.1 53.8,-66.7 53.8,-82.5 C53.8,-91.6 51,-99 49.3,-102.6 C46.9,-107.7 44,-111.2 42.3,-111.2 C41.6,-111.2 38.4,-110 35.2,-106.1 C28.7,-98.5 26.9,-85.8 26.9,-77.4 C26.9,-72 27.4,-67.1 29.1,-55.8 C29,-55.8 23.8,-50.5 21.7,-48.7 C12.6,-40.3 0,-28.1 0,-8.2 C0,10.6 16.3,25.3 34.9,25.3 C37.8,25.3 40.5,25 42.9,24.6 C44.7,34.1 45.9,41.2 45.9,46.5 C45.9,56.9 40.5,62.4 30.4,62.4 C28,62.4 25.9,61.9 25.7,61.8 C25.6,61.8 25.4,61.7 25.4,61.6 C25.4,61.4 25.6,61.3 25.9,61.2 C30.6,60.5 35.3,56.4 35.3,50.1 C35.3,44.7 31.2,39 23.7,39 C16.7,39 12.3,44.7 12.3,51.3 C12.3,57.9 17.3,66.6 30.8,66.6 C43.7,66.6 50,59.3 50,46.5 C50,42.6 49.4,38.1 48.4,32.4 C48.1,30.4 47.6,27.3 46.9,23.5 C56.7,20.2 64,10.1 64,-0.2 M33.2,-82.2 C34.2,-86.2 38.7,-96.7 43.9,-96.7 C45.4,-96.7 47.9,-91.9 47.9,-84.9 C47.9,-74.6 40.1,-66.8 33.2,-59.9 C32.6,-63.9 32.1,-67.9 32.1,-72 C32.1,-75.8 32.5,-79.1 33.2,-82.2 M36.2,21.2 C21.9,21.2 9.7,11.2 9.7,-3.9 C9.7,-16.1 18.3,-27 27.1,-34.7 C28.8,-36.1 30.4,-37.5 31.9,-39 C32.8,-33.6 33.5,-29 34.2,-24.8 C25.1,-22.2 18.9,-12.5 18.9,-3.2 C18.9,3.9 24.4,13.5 32.4,13.5 C33.2,13.5 34.1,13.1 34.1,12.1 C34.1,11.3 33.2,10.7 31.9,9.9 C28,7.6 25.8,4.9 25.8,0.1 C25.8,-6 30.4,-10.9 36.2,-12.3 L42,20.5 C40,20.9 38.2,21.2 36.2,21.2 M46.2,19.3 C44.1,7.4 41.4,-8.5 40.7,-12.9 C50.8,-12.9 55.1,-5.9 56,-1.1 C56.1,-0.3 56.3,0.8 56.3,2 C56.3,9.2 53.3,16.4 46.2,19.3"/>
<path class="Clef" transform="matrix(1.07717,0,0,1.07717,237.642,1047.4)" d="M42.3,71.7 C42.3,68 38.9,66.4 35.6,66.4 C31.4,66.4 27.3,69 27.3,73.5 C27.3,75.4 28,76.8 29.4,78.2 C26.8,79.2 24.2,81.2 24.2,84.3 C24.2,87.6 27.2,89.8 31.6,89.8 C37,89.8 40.8,86.8 40.8,82.5 C40.8,80.2 39.8,78.3 38,77 C40.9,75.7 42.3,74.1 42.3,71.7 M32.3,87.7 C30.1,87.7 28.6,86.3 28.6,84.2 C28.6,82.2 29.5,80.6 31.2,79.6 C31.6,79.8 31.7,79.8 32,80 C33.2,80.6 33.2,80.6 33.4,80.8 C35.3,81.9 36.1,82.9 36.1,84.3 C36.1,86.2 34.5,87.7 32.3,87.7 M36.1,75.7 C34.6,74.9 34.2,74.7 33.9,74.5 L33.7,74.4 C32.2,73.5 31.7,72.8 31.7,71.6 C31.7,69.8 33.1,68.5 35.1,68.5 C37,68.5 38.2,69.7 38.2,71.8 C38.2,73.4 37.6,74.5 36.1,75.7 M64,-0.2 C64,-15.3 53.3,-25.5 38.7,-25.5 C37.7,-31.5 36.8,-37.4 35.9,-43 C46.4,-54.1 53.8,-66.7 53.8,-82.5 C53.8,-91.6 51,-99 49.3,-102.6 C46.9,-107.7 44,-111.2 42.3,-111.2 C41.6,-111.2 38.4,-110 35.2,-106.1 C28.7,-98.5 26.9,-85.8 26.9,-77.4 C26.9,-72 27.4,-67.1 29.1,-55.8 C29,-55.8 23.8,-50.5 21.7,-48.7 C12.6,-40.3 0,-28.1 0,-8.2 C0,10.6 16.3,25.3 34.9,25.3 C37.8,25.3 40.5,25 42.9,24.6 C44.7,34.1 45.9,41.2 45.9,46.5 C45.9,56.9 40.5,62.4 30.4,62.4 C28,62.4 25.9,61.9 25.7,61.8 C25.6,61.8 25.4,61.7 25.4,61.6 C25.4,61.4 25.6,61.3 25.9,61.2 C30.6,60.5 35.3,56.4 35.3,50.1 C35.3,44.7 31.2,39 23.7,39 C16.7,39 12.3,44.7 12.3,51.3 C12.3,57.9 17.3,66.6 30.8,66.6 C43.7,66.6 50,59.3 50,46.5 C50,42.6 49.4,38.1 48.4,32.4 C48.1,30.4 47.6,27.3 46.9,23.5 C56.7,20.2 64,10.1 64,-0.2 M33.2,-82.2 C34.2,-86.2 38.7,-96.7 43.9,-96.7 C45.4,-96.7 47.9,-91.9 47.9,-84.9 C47.9,-74.6 40.1,-66.8 33.2,-59.9 C32.6,-63.9 32.1,-67.9 32.1,-72 C32.1,-75.8 32.5,-79.1 33.2,-82.2 M36.2,21.2 C21.9,21.2 9.7,11.2 9.7,-3.9 C9.7,-16.1 18.3,-27 27.1,-34.7 C28.8,-36.1 30.4,-37.5 31.9,-39 C32.8,-33.6 33.5,-29 34.2,-24.8 C25.1,-22.2 18.9,-12.5 18.9,-3.2 C18.9,3.9 24.4,13.5 32.4,13.5 C33.2,13.5 34.1,13.1 34.1,12.1 C34.1,11.3 33.2,10.7 31.9,9.9 C28,7.6 25.8,4.9 25.8,0.1 C25.8,-6 30.4,-10.9 36.2,-12.3 L42,20.5 C40,20.9 38.2,21.2 36.2,21.2 M46.2,19.3 C44.1,7.4 41.4,-8.5 40.7,-12.9 C50.8,-12.9 55.1,-5.9 56,-1.1 C56.1,-0.3 56.3,0.8 56.3,2 C56.3,9.2 53.3,16.4 46.2,19.3"/>
<path class="Clef" transform="matrix(1.07717,0,0,1.07717,1064.05,1949.53)" d="M42.3,71.7 C42.3,68 38.9,66.4 35.6,66.4 C31.4,66.4 27.3,69 27.3,73.5 C27.3,75.4 28,76.8 29.4,78.2 C26.8,79.2 24.2,81.2 24.2,84.3 C24.2,87.6 27.2,89.8 31.6,89.8 C37,89.8 40.8,86.8 40.8,82.5 C40.8,80.2 39.8,78.3 38,77 C40.9,75.7 42.3,74.1 42.3,71.7 M32.3,87.7 C30.1,87.7 28.6,86.3 28.6,84.2 C28.6,82.2 29.5,80.6 31.2,79.6 C31.6,79.8 31.7,79.8 32,80 C33.2,80.6 33.2,80.6 33.4,80.8 C35.3,81.9 36.1,82.9 36.1,84.3 C36.1,86.2 34.5,87.7 32.3,87.7 M36.1,75.7 C34.6,74.9 34.2,74.7 33.9,74.5 L33.7,74.4 C32.2,73.5 31.7,72.8 31.7,71.6 C31.7,69.8 33.1,68.5 35.1,68.5 C37,68.5 38.2,69.7 38.2,71.8 C38.2,73.4 37.6,74.5 36.1,75.7 M64,-0.2 C64,-15.3 53.3,-25.5 38.7,-25.5 C37.7,-31.5 36.8,-37.4 35.9,-43 C46.4,-54.1 53.8,-66.7 53.8,-82.5 C53.8,-91.6 51,-99 49.3,-102.6 C46.9,-107.7 44,-111.2 42.3,-111.2 C41.6,-111.2 38.4,-110 35.2,-106.1 C28.7,-98.5 26.9,-85.8 26.9,-77.4 C26.9,-72 27.4,-67.1 29.1,-55.8 C29,-55.8 23.8,-50.5 21.7,-48.7 C12.6,-40.3 0,-28.1 0,-8.2 C0,10.6 16.3,25.3 34.9,25.3 C37.8,25.3 40.5,25 42.9,24.6 C44.7,34.1 45.9,41.2 45.9,46.5 C45.9,56.9 40.5,62.4 30.4,62.4 C28,62.4 25.9,61.9 25.7,61.8 C25.6,61.8 25.4,61.7 25.4,61.6 C25.4,61.4 25.6,61.3 25.9,61.2 C30.6,60.5 35.3,56.4 35.3,50.1 C35.3,44.7 31.2,39 23.7,39 C16.7,39 12.3,44.7 12.3,51.3 C12.3,57.9 17.3,66.6 30.8,66.6 C43.7,66.6 50,59.3 50,46.5 C50,42.6 49.4,38.1 48.4,32.4 C48.1,30.4 47.6,27.3 46.9,23.5 C56.7,20.2 64,10.1 64,-0.2 M33.2,-82.2 C34.2,-86.2 38.7,-96.7 43.9,-96.7 C45.4,-96.7 47.9,-91.9 47.9,-84.9 C47.9,-74.6 40.1,-66.8 33.2,-59.9 C32.6,-63.9 32.1,-67.9 32.1,-72 C32.1,-75.8 32.5,-79.1 33.2,-82.2 M36.2,21.2 C21.9,21.2 9.7,11.2 9.7,-3.9 C9.7,-16.1 18.3,-27 27.1,-34.7 C28.8,-36.1 30.4,-37.5 31.9,-39 C32.8,-33.6 33.5,-29 34.2,-24.8 C25.1,-22.2 18.9,-12.5 18.9,-3.2 C18.9,3.9 24.4,13.5 32.4,13.5 C33.2,13.5 34.1,13.1 34.1,12.1 C34.1,11.3 33.2,10.7 31.9,9.9 C28,7.6 25.8,4.9 25.8,0.1 C25.8,-6 30.4,-10.9 36.2,-12.3 L42,20.5 C40,20.9 38.2,21.2 36.2,21.2 M46.2,19.3 C44.1,7.4 41.4,-8.5 40.7,-12.9 C50.8,-12.9 55.1,-5.9 56,-1.1 C56.1,-0.3 56.3,0.8 56.3,2 C56.3,9.2 53.3,16.4 46.2,19.3"/>
<path class="Rest" transform="matrix(1.07717,0,0,1.07717,1146.05,454.961)" d="M26.7,-20.3 C26.6,-20.3 26.4,-20.4 26.3,-20.4 C25.7,-20.4 25.2,-20.1 25,-19.6 C24.6,-19 21.5,-13.1 17,-9.8 C15.7,-8.8 14.1,-8.1 12.5,-7.8 C13.6,-9.1 14.3,-10.7 14.3,-12.6 C14.3,-16.5 11.1,-19.7 7.2,-19.7 C3.2,-19.7 0,-16.5 0,-12.6 C0,-9.5 1.9,-7 4.5,-5.9 C6,-5.2 8,-4.7 10,-4.7 C12.9,-4.7 16,-5.6 18.7,-7.6 C19.9,-8.5 21.1,-9.7 22.2,-10.9 L10.8,24.7 L13.5,25.5 L27.5,-18.6 C27.6,-18.7 27.6,-18.9 27.6,-19.1 C27.6,-19.6 27.3,-20 26.7,-20.3"/>
<path class="Rest" transform="matrix(1.07717,0,0,1.07717,486.693,454.961)" d="M26.7,-20.3 C26.6,-20.3 26.4,-20.4 26.3,-20.4 C25.7,-20.4 25.2,-20.1 25,-19.6 C24.6,-19 21.5,-13.1 17,-9.8 C15.7,-8.8 14.1,-8.1 12.5,-7.8 C13.6,-9.1 14.3,-10.7 14.3,-12.6 C14.3,-16.5 11.1,-19.7 7.2,-19.7 C3.2,-19.7 0,-16.5 0,-12.6 C0,-9.5 1.9,-7 4.5,-5.9 C6,-5.2 8,-4.7 10,-4.7 C12.9,-4.7 16,-5.6 18.7,-7.6 C19.9,-8.5 21.1,-9.7 22.2,-10.9 L10.8,24.7 L13.5,25.5 L27.5,-18.6 C27.6,-18.7 27.6,-18.9 27.6,-19.1 C27.6,-19.6 27.3,-20 26.7,-20.3"/>
<path class="Rest" transform="matrix(1.07717,0,0,1.07717,706.479,454.961)" d="M26.7,-20.3 C26.6,-20.3 26.4,-20.4 26.3,-20.4 C25.7,-20.4 25.2,-20.1 25,-19.6 C24.6,-19 21.5,-13.1 17,-9.8 C15.7,-8.8 14.1,-8.1 12.5,-7.8 C13.6,-9.1 14.3,-10.7 14.3,-12.6 C14.3,-16.5 11.1,-19.7 7.2,-19.7 C3.2,-19.7 0,-16.5 0,-12.6 C0,-9.5 1.9,-7 4.5,-5.9 C6,-5.2 8,-4.7 10,-4.7 C12.9,-4.7 16,-5.6 18.7,-7.6 C19.9,-8.5 21.1,-9.7 22.2,-10.9 L10.8,24.7 L13.5,25.5 L27.5,-18.6 C27.6,-18.7 27.6,-18.9 27.6,-19.1 C27.6,-19.6 27.3,-20 26.7,-20.3"/>
<path class="Rest" transform="matrix(1.07717,0,0,1.07717,1891.63,1357.09)" d="M26.7,-20.3 C26.6,-20.3 26.4,-20.4 26.3,-20.4 C25.7,-20.4 25.2,-20.1 25,-19.6 C24.6,-19 21.5,-13.1 17,-9.8 C15.7,-8.8 14.1,-8.1 12.5,-7.8 C13.6,-9.1 14.3,-10.7 14.3,-12.6 C14.3,-16.5 11.1,-19.7 7.2,-19.7 C3.2,-19.7 0,-16.5 0,-12.6 C0,-9.5 1.9,-7 4.5,-5.9 C6,-5.2 8,-4.7 10,-4.7 C12.9,-4.7 16,-5.6 18.7,-7.6 C19.9,-8.5 21.1,-9.7 22.2,-10.9 L10.8,24.7 L13.5,25.5 L27.5,-18.6 C27.6,-18.7 27.6,-18.9 27.6,-19.1 C27.6,-19.6 27.3,-20 26.7,-20.3"/>
<path class="Rest" transform="matrix(1.07717,0,0,1.07717,926.264,454.961)" d="M26.7,-20.3 C26.6,-20.3 26.4,-20.4 26.3,-20.4 C25.7,-20.4 25.2,-20.1 25,-19.6 C24.6,-19 21.5,-13.1 17,-9.8 C15.7,-8.8 14.1,-8.1 12.5,-7.8 C13.6,-9.1 14.3,-10.7 14.3,-12.6 C14.3,-16.5 11.1,-19.7 7.2,-19.7 C3.2,-19.7 0,-16.5 0,-12.6 C0,-9.5 1.9,-7 4.5,-5.9 C6,-5.2 8,-4.7 10,-4.7 C12.9,-4.7 16,-5.6 18.7,-7.6 C19.9,-8.5 21.1,-9.7 22.2,-10.9 L10.8,24.7 L13.5,25.5 L27.5,-18.6 C27.6,-18.7 27.6,-18.9 27.6,-19.1 C27.6,-19.6 27.3,-20 26.7,-20.3"/>
<path class="Rest" transform="matrix(1.07717,0,0,1.07717,1365.84,454.961)" d="M26.7,-20.3 C26.6,-20.3 26.4,-20.4 26.3,-20.4 C25.7,-20.4 25.2,-20.1 25,-19.6 C24.6,-19 21.5,-13.1 17,-9.8 C15.7,-8.8 14.1,-8.1 12.5,-7.8 C13.6,-9.1 14.3,-10.7 14.3,-12.6 C14.3,-16.5 11.1,-19.7 7.2,-19.7 C3.2,-19.7 0,-16.5 0,-12.6 C0,-9.5 1.9,-7 4.5,-5.9 C6,-5.2 8,-4.7 10,-4.7 C12.9,-4.7 16,-5.6 18.7,-7.6 C19.9,-8.5 21.1,-9.7 22.2,-10.9 L10.8,24.7 L13.5,25.5 L27.5,-18.6 C27.6,-18.7 27.6,-18.9 27.6,-19.1 C27.6,-19.6 27.3,-20 26.7,-20.3"/>
<path class="Rest" transform="matrix(1.07717,0,0,1.07717,1585.62,454.961)" d="M26.7,-20.3 C26.6,-20.3 26.4,-20.4 26.3,-20.4 C25.7,-20.4 25.2,-20.1 25,-19.6 C24.6,-19 21.5,-13.1 17,-9.8 C15.7,-8.8 14.1,-8.1 12.5,-7.8 C13.6,-9.1 14.3,-10.7 14.3,-12.6 C14.3,-16.5 11.1,-19.7 7.2,-19.7 C3.2,-19.7 0,-16.5 0,-12.6 C0,-9.5 1.9,-7 4.5,-5.9 C6,-5.2 8,-4.7 10,-4.7 C12.9,-4.7 16,-5.6 18.7,-7.6 C19.9,-8.5 21.1,-9.7 22.2,-10.9 L10.8,24.7 L13.5,25.5 L27.5,-18.6 C27.6,-18.7 27.6,-18.9 27.6,-19.1 C27.6,-19.6 27.3,-20 26.7,-20.3"/>
<path class="Rest" transform="matrix(1.07717,0,0,1.07717,2282.58,454.961)" d="M26.7,-20.3 C26.6,-20.3 26.4,-20.4 26.3,-20.4 C25.7,-20.4 25.2,-20.1 25,-19.6 C24.6,-19 21.5,-13.1 17,-9.8 C15.7,-8.8 14.1,-8.1 12.5,-7.8 C13.6,-9.1 14.3,-10.7 14.3,-12.6 C14.3,-16.5 11.1,-19.7 7.2,-19.7 C3.2,-19.7 0,-16.5 0,-12.6 C0,-9.5 1.9,-7 4.5,-5.9 C6,-5.2 8,-4.7 10,-4.7 C12.9,-4.7 16,-5.6 18.7,-7.6 C19.9,-8.5 21.1,-9.7 22.2,-10.9 L10.8,24.7 L13.5,25.5 L27.5,-18.6 C27.6,-18.7 27.6,-18.9 27.6,-19.1 C27.6,-19.6 27.3,-20 26.7,-20.3"/>
<path class="Rest" transform="matrix(1.07717,0,0,1.07717,1891.63,1639.84)" d="M26.7,-20.3 C26.6,-20.3 26.4,-20.4 26.3,-20.4 C25.7,-20.4 25.2,-20.1 25,-19.6 C24.6,-19 21.5,-13.1 17,-9.8 C15.7,-8.8 14.1,-8.1 12.5,-7.8 C13.6,-9.1 14.3,-10.7 14.3,-12.6 C14.3,-16.5 11.1,-19.7 7.2,-19.7 C3.2,-19.7 0,-16.5 0,-12.6 C0,-9.5 1.9,-7 4.5,-5.9 C6,-5.2 8,-4.7 10,-4.7 C12.9,-4.7 16,-5.6 18.7,-7.6 C19.9,-8.5 21.1,-9.7 22.2,-10.9 L10.8,24.7 L13.5,25.5 L27.5,-18.6 C27.6,-18.7 27.6,-18.9 27.6,-19.1 C27.6,-19.6 27.3,-20 26.7,-20.3"/>
<path class="Rest" transform="matrix(1.07717,0,0,1.07717,926.264,737.716)" d="M26.7,-20.3 C26.6,-20.3 26.4,-20.4 26.3,-20.4 C25.7,-20.4 25.2,-20.1 25,-19.6 C24.6,-19 21.5,-13.1 17,-9.8 C15.7,-8.8 14.1,-8.1 12.5,-7.8 C13.6,-9.1 14.3,-10.7 14.3,-12.6 C14.3,-16.5 11.1,-19.7 7.2,-19.7 C3.2,-19.7 0,-16.5 0,-12.6 C0,-9.5 1.9,-7 4.5,-5.9 C6,-5.2 8,-4.7 10,-4.7 C12.9,-4.7 16,-5.6 18.7,-7.6 C19.9,-8.5 21.1,-9.7 22.2,-10.9 L10.8,24.7 L13.5,25.5 L27.5,-18.6 C27.6,-18.7 27.6,-18.9 27.6,-19.1 C27.6,-19.6 27.3,-20 26.7,-20.3"/>
<path class="Rest" transform="matrix(1.07717,0,0,1.07717,1146.05,737.716)" d="M26.7,-20.3 C26.6,-20.3 26.4,-20.4 26.3,-20.4 C25.7,-20.4 25.2,-20.1 25,-19.6 C24.6,-19 21.5,-13.1 17,-9.8 C15.7,-8.8 14.1,-8.1 12.5,-7.8 C13.6,-9.1 14.3,-10.7 14.3,-12.6 C14.3,-16.5 11.1,-19.7 7.2,-19.7 C3.2,-19.7 0,-16.5 0,-12.6 C0,-9.5 1.9,-7 4.5,-5.9 C6,-5.2 8,-4.7 10,-4.7 C12.9,-4.7 16,-5.6 18.7,-7.6 C19.9,-8.5 21.1,-9.7 22.2,-10.9 L10.8,24.7 L13.5,25.5 L27.5,-18.6 C27.6,-18.7 27.6,-18.9 27.6,-19.1 C27.6,-19.6 27.3,-20 26.7,-20.3"/>
<path class="Rest" transform="matrix(1.07717,0,0,1.07717,1365.84,737.716)" d="M26.7,-20.3 C26.6,-20.3 26.4,-20.4 26.3,-20.4 C25.7,-20.4 25.2,-20.1 25,-19.6 C24.6,-19 21.5,-13.1 17,-9.8 C15.7,-8.8 14.1,-8.1 12.5,-7.8 C13.6,-9.1 14.3,-10.7 14.3,-12.6 C14.3,-16.5 11.1,-19.7 7.2,-19.7 C3.2,-19.7 0,-16.5 0,-12.6 C0,-9.5 1.9,-7 4.5,-5.9 C6,-5.2 8,-4.7 10,-4.7 C12.9,-4.7 16,-5.6 18.7,-7.6 C19.9,-8.5 21.1,-9.7 22.2,-10.9 L10.8,24.7 L13.5,25.5 L27.5,-18.6 C27.6,-18.7 27.6,-18.9 27.6,-19.1 C27.6,-19.6 27.3,-20 26.7,-20.3"/>
<path class="Rest" transform="matrix(1.07717,0,0,1.07717,1415.73,1639.84)" d="M26.7,-20.3 C26.6,-20.3 26.4,-20.4 26.3,-20.4 C25.7,-20.4 25.2,-20.1 25,-19.6 C24.6,-19 21.5,-13.1 17,-9.8 C15.7,-8.8 14.1,-8.1 12.5,-7.8 C13.6,-9.1 14.3,-10.7 14.3,-12.6 C14.3,-16.5 11.1,-19.7 7.2,-19.7 C3.2,-19.7 0,-16.5 0,-12.6 C0,-9.5 1.9,-7 4.5,-5.9 C6,-5.2 8,-4.7 10,-4.7 C12.9,-4.7 16,-5.6 18.7,-7.6 C19.9,-8.5 21.1,-9.7 22.2,-10.9 L10.8,24.7 L13.5,25.5 L27.5,-18.6 C27.6,-18.7 27.6,-18.9 27.6,-19.1 C27.6,-19.6 27.3,-20 26.7,-20.3"/>
<path class="Rest" transform="matrix(1.07717,0,0,1.07717,1585.62,737.716)" d="M26.7,-20.3 C26.6,-20.3 26.4,-20.4 26.3,-20.4 C25.7,-20.4 25.2,-20.1 25,-19.6 C24.6,-19 21.5,-13.1 17,-9.8 C15.7,-8.8 14.1,-8.1 12.5,-7.8 C13.6,-9.1 14.3,-10.7 14.3,-12.6 C14.3,-16.5 11.1,-19.7 7.2,-19.7 C3.2,-19.7 0,-16.5 0,-12.6 C0,-9.5 1.9,-7 4.5,-5.9 C6,-5.2 8,-4.7 10,-4.7 C12.9,-4.7 16,-5.6 18.7,-7.6 C19.9,-8.5 21.1,-9.7 22.2,-10.9 L10.8,24.7 L13.5,25.5 L27.5,-18.6 C27.6,-18.7 27.6,-18.9 27.6,-19.1 C27.6,-19.6 27.3,-20 26.7,-20.3"/>
<path class="Rest" transform="matrix(1.07717,0,0,1.07717,2282.58,737.716)" d="M26.7,-20.3 C26.6,-20.3 26.4,-20.4 26.3,-20.4 C25.7,-20.4 25.2,-20.1 25,-19.6 C24.6,-19 21.5,-13.1 17,-9.8 C15.7,-8.8 14.1,-8.1 12.5,-7.8 C13.6,-9.1 14.3,-10.7 14.3,-12.6 C14.3,-16.5 11.1,-19.7 7.2,-19.7 C3.2,-19.7 0,-16.5 0,-12.6 C0,-9.5 1.9,-7 4.5,-5.9 C6,-5.2 8,-4.7 10,-4.7 C12.9,-4.7 16,-5.6 18.7,-7.6 C19.9,-8.5 21.1,-9.7 22.2,-10.9 L10.8,24.7 L13.5,25.5 L27.5,-18.6 C27.6,-18.7 27.6,-18.9 27.6,-19.1 C27.6,-19.6 27.3,-20 26.7,-20.3"/>
<path class="Rest" transform="matrix(1.07717,0,0,1.07717,1891.63,1922.6)" d="M26.7,-20.3 C26.6,-20.3 26.4,-20.4 26.3,-20.4 C25.7,-20.4 25.2,-20.1 25,-19.6 C24.6,-19 21.5,-13.1 17,-9.8 C15.7,-8.8 14.1,-8.1 12.5,-7.8 C13.6,-9.1 14.3,-10.7 14.3,-12.6 C14.3,-16.5 11.1,-19.7 7.2,-19.7 C3.2,-19.7 0,-16.5 0,-12.6 C0,-9.5 1.9,-7 4.5,-5.9 C6,-5.2 8,-4.7 10,-4.7 C12.9,-4.7 16,-5.6 18.7,-7.6 C19.9,-8.5 21.1,-9.7 22.2,-10.9 L10.8,24.7 L13.5,25.5 L27.5,-18.6 C27.6,-18.7 27.6,-18.9 27.6,-19.1 C27.6,-19.6 27.3,-20 26.7,-20.3"/>
<path class="Rest" transform="matrix(1.07717,0,0,1.07717,2282.58,1020.47)" d="M26.7,-20.3 C26.6,-20.3 26.4,-20.4 26.3,-20.4 C25.7,-20.4 25.2,-20.1 25,-19.6 C24.6,-19 21.5,-13.1 17,-9.8 C15.7,-8.8 14.1,-8.1 12.5,-7.8 C13.6,-9.1 14.3,-10.7 14.3,-12.6 C14.3,-16.5 11.1,-19.7 7.2,-19.7 C3.2,-19.7 0,-16.5 0,-12.6 C0,-9.5 1.9,-7 4.5,-5.9 C6,-5.2 8,-4.7 10,-4.7 C12.9,-4.7 16,-5.6 18.7,-7.6 C19.9,-8.5 21.1,-9.7 22.2,-10.9 L10.8,24.7 L13.5,25.5 L27.5,-18.6 C27.6,-18.7 27.6,-18.9 27.6,-19.1 C27.6,-19.6 27.3,-20 26.7,-20.3"/>
<path class="Beam" fill-rule="evenodd" d="M1537.85,1397.48 L1662.7,1397.48 L1662.7,1410.94 L1537.85,1410.94 L1537.85,1397.48 "/>
<path class="Beam" fill-rule="evenodd" d="M1912.39,468.399 L2065.49,481.864 L2065.49,495.38 L1912.39,481.916 L1912.39,468.399 "/>
<path class="Beam" fill-rule="evenodd" d="M1912.39,805.013 L2065.49,818.478 L2065.49,831.994 L1912.39,818.53 L1912.39,805.013 "/>
<path class="Lyrics" d="M2562.23,2032.08 L2562.23,2021.39 L2560.02,2021.39 C2559.48,2028.41 2557.1,2031.97 2552.73,2032.3 L2552.73,2034.4 L2557.15,2034.4 L2557.15,2048.17 C2557.15,2051.95 2557.26,2053.3 2557.8,2054.54 C2558.67,2056.81 2560.83,2058.05 2563.96,2058.05 C2568.82,2058.05 2571.95,2054.38 2571.95,2048.66 C2571.95,2048.33 2571.95,2047.96 2571.9,2047.42 L2569.63,2047.42 C2569.47,2052.28 2568.06,2054.76 2565.42,2054.76 C2564.17,2054.76 2563.09,2054.11 2562.72,2053.19 C2562.39,2052.44 2562.23,2051.09 2562.23,2049.14 L2562.23,2034.4 L2570.17,2034.4 L2570.17,2032.08 L2562.23,2032.08 M2598.24,2045.09 C2598.29,2036.99 2593.7,2031.27 2587.11,2031.27 C2580.2,2031.27 2575.02,2037.26 2575.02,2045.36 C2575.02,2052.98 2579.93,2058.05 2587.22,2058.05 C2592.41,2058.05 2596.02,2055.52 2598.24,2050.39 L2596.35,2049.36 C2594.13,2053.52 2591.87,2055.14 2588.25,2055.14 C2585.49,2055.14 2583.5,2054 2582.09,2051.57 C2581.12,2049.95 2580.69,2048.06 2580.74,2045.09 L2598.24,2045.09 M2580.8,2042.77 C2580.8,2038.99 2582.52,2033.59 2587.06,2033.59 C2590.3,2033.59 2592.46,2036.45 2592.46,2040.83 C2592.46,2042.34 2591.97,2042.77 2590.25,2042.77 L2580.8,2042.77 M2609.46,2046.93 C2609.4,2041.64 2610,2040.18 2613.45,2037.21 C2618.74,2032.57 2619.93,2030.68 2619.93,2026.9 C2619.93,2021.28 2615.77,2017.5 2609.62,2017.5 C2603.46,2017.5 2599.09,2020.85 2599.09,2025.49 C2599.09,2027.87 2600.6,2029.65 2602.65,2029.65 C2604.33,2029.65 2605.68,2028.35 2605.68,2026.68 C2605.68,2025.6 2605.14,2024.68 2604.11,2023.82 C2603.3,2023.17 2603.25,2023.06 2603.25,2022.63 C2603.25,2021.23 2605.57,2019.93 2608.21,2019.93 C2612.05,2019.93 2614.26,2022.36 2614.26,2026.57 C2614.26,2028.79 2613.67,2030.84 2612.53,2032.35 C2608.54,2037.86 2608.54,2037.86 2607.84,2039.75 C2607.3,2041.26 2607.08,2042.61 2607.08,2045.2 L2607.08,2046.93 L2609.46,2046.93 M2608.16,2051.3 C2606.27,2051.3 2604.76,2052.82 2604.76,2054.65 C2604.76,2056.54 2606.27,2058.05 2608.11,2058.05 C2610,2058.05 2611.51,2056.54 2611.51,2054.65 C2611.51,2052.82 2610,2051.3 2608.16,2051.3"/>
<polyline class="TextLineSegment" fill="none" stroke="#000000" stroke-width="3.79" stroke-linejoin="miter" stroke-miterlimit="2" points="333.493,353.842 459.764,353.842 459.764,380.771" />
<polyline class="TextLineSegment" fill="none" stroke="#000000" stroke-width="3.79" stroke-linejoin="miter" stroke-miterlimit="2" points="2389.56,380.771 2389.56,353.842 2657.62,353.842" />
<polyline class="TextLineSegment" fill="none" stroke="#000000" stroke-width="3.79" stroke-linejoin="miter" stroke-miterlimit="2" points="1322.42,1282.9 1322.42,1255.97 1572,1255.97 1572,1282.9" />
<polyline class="TextLineSegment" fill="none" stroke="#000000" stroke-width="3.79" stroke-linejoin="miter" stroke-miterlimit="2" points="1692.6,379.836 1692.6,352.907 2255.65,352.907 2255.65,379.836" />
<polyline class="TextLineSegment" fill="none" stroke="#000000" stroke-width="3.79" stroke-linejoin="miter" stroke-miterlimit="2" points="2336.75,1282.9 2336.75,1255.97 2493.05,1255.97 2493.05,1282.9" />
<polyline class="TextLineSegment" fill="none" stroke="#000000" stroke-width="3.79" stroke-linejoin="miter" stroke-miterlimit="2" points="2551.75,1270.39 2551.75,1243.46 2708.05,1243.46 2708.05,1270.39" />
<polyline class="TextLineSegment" fill="none" stroke="#000000" stroke-width="3.79" stroke-linejoin="miter" stroke-miterlimit="2" points="1598.93,1270.39 1598.93,1243.46 1864.7,1243.46 1864.7,1270.39" />
<polyline class="TextLineSegment" fill="none" stroke="#000000" stroke-width="3.79" stroke-linejoin="miter" stroke-miterlimit="2" points="1997.56,1282.9 1997.56,1255.97 2309.82,1255.97 2309.82,1282.9" />
<polyline class="TextLineSegment" fill="none" stroke="#000000" stroke-width="3.79" stroke-linejoin="miter" stroke-miterlimit="2" points="1805.41,663.527 1805.41,636.598 2111.07,636.598 2111.07,663.527" />
<polyline class="TextLineSegment" fill="none" stroke="#000000" stroke-width="3.79" stroke-linejoin="miter" stroke-miterlimit="2" points="1537.85,1565.65 1537.85,1538.72 1864.7,1538.72 1864.7,1565.65" />
<polyline class="TextLineSegment" fill="none" stroke="#000000" stroke-width="3.79" stroke-linejoin="miter" stroke-miterlimit="2" points="1200.3,1565.65 1200.3,1538.72 1388.8,1538.72 1388.8,1565.65" />
<polyline class="TextLineSegment" fill="none" stroke="#000000" stroke-width="3.79" stroke-linejoin="miter" stroke-miterlimit="2" points="2336.75,1565.65 2336.75,1538.72 2493.05,1538.72 2493.05,1565.65" />
<polyline class="TextLineSegment" fill="none" stroke="#000000" stroke-width="3.79" stroke-linejoin="miter" stroke-miterlimit="2" points="2502.37,663.527 2502.37,636.598 2670.35,636.598" />
<polyline class="TextLineSegment" fill="none" stroke="#000000" stroke-width="3.79" stroke-linejoin="miter" stroke-miterlimit="2" points="486.693,663.527 486.693,636.598 754.753,636.598 754.753,663.527" />
<polyline class="TextLineSegment" fill="none" stroke="#000000" stroke-width="3.79" stroke-linejoin="miter" stroke-miterlimit="2" points="1997.56,1565.65 1997.56,1538.72 2309.82,1538.72 2309.82,1565.65" />
<polyline class="TextLineSegment" fill="none" stroke="#000000" stroke-width="3.79" stroke-linejoin="miter" stroke-miterlimit="2" points="333.493,636.598 459.764,636.598 459.764,663.527" />
<polyline class="TextLineSegment" fill="none" stroke="#000000" stroke-width="3.79" stroke-linejoin="miter" stroke-miterlimit="2" points="2551.75,1565.65 2551.75,1538.72 2708.05,1538.72 2708.05,1565.65" />
<polyline class="TextLineSegment" fill="none" stroke="#000000" stroke-width="3.79" stroke-linejoin="miter" stroke-miterlimit="2" points="1585.62,946.283 1585.62,919.353 1778.48,919.353 1778.48,946.283" />
<polyline class="TextLineSegment" fill="none" stroke="#000000" stroke-width="3.79" stroke-linejoin="miter" stroke-miterlimit="2" points="2551.75,1848.41 2551.75,1821.48 2708.05,1821.48 2708.05,1848.41" />
<polyline class="TextLineSegment" fill="none" stroke="#000000" stroke-width="3.79" stroke-linejoin="miter" stroke-miterlimit="2" points="333.493,919.353 459.764,919.353 459.764,946.283" />
<polyline class="TextLineSegment" fill="none" stroke="#000000" stroke-width="3.79" stroke-linejoin="miter" stroke-miterlimit="2" points="486.693,933.777 486.693,906.848 679.549,906.848 679.549,933.777" />
<polyline class="TextLineSegment" fill="none" stroke="#000000" stroke-width="3.79" stroke-linejoin="miter" stroke-miterlimit="2" points="706.479,946.283 706.479,919.353 899.335,919.353 899.335,946.283" />
<polyline class="TextLineSegment" fill="none" stroke="#000000" stroke-width="3.79" stroke-linejoin="miter" stroke-miterlimit="2" points="926.264,946.283 926.264,919.353 1119.12,919.353 1119.12,946.283" />
<polyline class="TextLineSegment" fill="none" stroke="#000000" stroke-width="3.79" stroke-linejoin="miter" stroke-miterlimit="2" points="1146.05,946.283 1146.05,919.353 1338.91,919.353 1338.91,946.283" />
<polyline class="TextLineSegment" fill="none" stroke="#000000" stroke-width="3.79" stroke-linejoin="miter" stroke-miterlimit="2" points="1365.84,946.283 1365.84,919.353 1558.69,919.353 1558.69,946.283" />
<polyline class="TextLineSegment" fill="none" stroke="#000000" stroke-width="3.79" stroke-linejoin="miter" stroke-miterlimit="2" points="1200.3,1848.41 1200.3,1821.48 1388.8,1821.48 1388.8,1848.41" />
<polyline class="TextLineSegment" fill="none" stroke="#000000" stroke-width="3.79" stroke-linejoin="miter" stroke-miterlimit="2" points="1805.41,946.283 1805.41,919.353 2111.07,919.353 2111.07,946.283" />
<polyline class="TextLineSegment" fill="none" stroke="#000000" stroke-width="3.79" stroke-linejoin="miter" stroke-miterlimit="2" points="1415.73,1848.41 1415.73,1821.48 1633.08,1821.48 1633.08,1848.41" />
<polyline class="TextLineSegment" fill="none" stroke="#000000" stroke-width="3.79" stroke-linejoin="miter" stroke-miterlimit="2" points="2389.56,945.348 2389.56,918.419 2670.35,918.419 2670.35,945.348" />
<polyline class="TextLineSegment" fill="none" stroke="#000000" stroke-width="3.79" stroke-linejoin="miter" stroke-miterlimit="2" points="1660,1848.41 1660,1821.48 1864.7,1821.48 1864.7,1848.41" />
<polyline class="TextLineSegment" fill="none" stroke="#000000" stroke-width="3.79" stroke-linejoin="miter" stroke-miterlimit="2" points="1997.56,1848.41 1997.56,1821.48 2493.05,1821.48 2493.05,1848.41" />
<polyline class="LyricsLineSegment" fill="none" stroke="#000000" stroke-width="2.69" stroke-linejoin="bevel" points="527.042,1142.77 543.2,1142.77" />
<polyline class="LyricsLineSegment" fill="none" stroke="#000000" stroke-width="2.69" stroke-linejoin="bevel" points="930.297,1142.77 946.454,1142.77" />
<polyline class="LyricsLineSegment" fill="none" stroke="#000000" stroke-width="2.69" stroke-linejoin="bevel" points="1333.55,1142.77 1349.71,1142.77" />
<polyline class="LyricsLineSegment" fill="none" stroke="#000000" stroke-width="2.69" stroke-linejoin="bevel" points="1736.81,1142.77 1752.96,1142.77" />
<polyline class="LyricsLineSegment" fill="none" stroke="#000000" stroke-width="2.69" stroke-linejoin="bevel" points="2140.06,1142.77 2156.22,1142.77" />
<polyline class="LyricsLineSegment" fill="none" stroke="#000000" stroke-width="2.69" stroke-linejoin="bevel" points="2543.32,1142.77 2559.47,1142.77" />
<polyline class="LyricsLineSegment" fill="none" stroke="#000000" stroke-width="2.69" stroke-linejoin="bevel" points="1325.76,2044.89 1341.92,2044.89" />
<polyline class="LyricsLineSegment" fill="none" stroke="#000000" stroke-width="2.69" stroke-linejoin="bevel" points="1673.63,2044.89 1689.78,2044.89" />
<polyline class="LyricsLineSegment" fill="none" stroke="#000000" stroke-width="2.69" stroke-linejoin="bevel" points="2021.49,2044.89 2037.65,2044.89" />
<polyline class="LyricsLineSegment" fill="none" stroke="#000000" stroke-width="2.69" stroke-linejoin="bevel" points="2369.36,2044.89 2385.52,2044.89" />
<polyline class="LyricsLineSegment" fill="none" stroke="#000000" stroke-width="2.69" stroke-linejoin="bevel" points="2627.33,2055.9 2678.36,2055.9" />
<path class="NoteDot" transform="matrix(1.07717,0,0,1.07717,642.129,697.323)" d="M0,0 C0,2.8 2.2,5 5,5 C7.8,5 10,2.8 10,0 C10,-2.8 7.8,-5 5,-5 C2.2,-5 0,-2.8 0,0"/>
<path class="NoteDot" transform="matrix(1.07717,0,0,1.07717,1960.84,980.079)" d="M0,0 C0,2.8 2.2,5 5,5 C7.8,5 10,2.8 10,0 C10,-2.8 7.8,-5 5,-5 C2.2,-5 0,-2.8 0,0"/>
<polyline class="Bracket" fill="none" stroke="#000000" stroke-width="2.96" stroke-linejoin="bevel" points="999.826,1303.23 999.826,1976.46" />
<polyline class="Bracket" fill="none" stroke="#000000" stroke-width="2.96" stroke-linejoin="bevel" points="998.345,1303.23 1014.77,1303.23" />
<polyline class="Bracket" fill="none" stroke="#000000" stroke-width="2.96" stroke-linejoin="bevel" points="998.345,1976.46 1014.77,1976.46" />
<polyline class="Bracket" fill="none" stroke="#000000" stroke-width="12.12" stroke-linejoin="bevel" points="1020.83,1283.7 1020.83,1995.98" />
<path class="Bracket" transform="matrix(1.07717,0,0,1.07717,1014.77,1289.76)" d="M48.4,-27.7 C48.2,-27.8 47.9,-27.9 47.7,-27.9 C47.3,-27.9 46.8,-27.8 46.6,-27.4 C46.4,-27.1 36.4,-11.7 17.3,-11.7 L1.4,-11.7 C0.6,-11.7 0,-11.2 0,-10.4 L0,-1.4 L0,0 L12.2,0 C43,0 48.9,-25.7 49,-26 C49,-26.1 49.1,-26.3 49.1,-26.5 C49.1,-27 48.8,-27.4 48.4,-27.7"/>
<path class="Bracket" transform="matrix(1.07717,0,0,1.07717,1014.77,1989.92)" d="M48.4,27.7 C48.8,27.4 49.1,27 49.1,26.5 C49.1,26.3 49,26.1 49,26 C48.9,25.7 43,0 12.2,0 L0,0 L0,1.4 L0,10.4 C0,11.2 0.6,11.7 1.4,11.7 L17.3,11.7 C36.4,11.7 46.4,27.1 46.6,27.4 C46.8,27.8 47.3,27.9 47.7,27.9 C47.9,27.9 48.2,27.8 48.4,27.7"/>
<polyline class="Bracket" fill="none" stroke="#000000" stroke-width="12.12" stroke-linejoin="bevel" points="194.421,381.579 194.421,1093.85" />
<path class="Bracket" transform="matrix(1.07717,0,0,1.07717,188.362,387.638)" d="M48.4,-27.7 C48.2,-27.8 47.9,-27.9 47.7,-27.9 C47.3,-27.9 46.8,-27.8 46.6,-27.4 C46.4,-27.1 36.4,-11.7 17.3,-11.7 L1.4,-11.7 C0.6,-11.7 0,-11.2 0,-10.4 L0,-1.4 L0,0 L12.2,0 C43,0 48.9,-25.7 49,-26 C49,-26.1 49.1,-26.3 49.1,-26.5 C49.1,-27 48.8,-27.4 48.4,-27.7"/>
<path class="Bracket" transform="matrix(1.07717,0,0,1.07717,188.362,1087.8)" d="M48.4,27.7 C48.8,27.4 49.1,27 49.1,26.5 C49.1,26.3 49,26.1 49,26 C48.9,25.7 43,0 12.2,0 L0,0 L0,1.4 L0,10.4 C0,11.2 0.6,11.7 1.4,11.7 L17.3,11.7 C36.4,11.7 46.4,27.1 46.6,27.4 C46.8,27.8 47.3,27.9 47.7,27.9 C47.9,27.9 48.2,27.8 48.4,27.7"/>
<polyline class="Bracket" fill="none" stroke="#000000" stroke-width="2.96" stroke-linejoin="bevel" points="173.416,401.102 173.416,1074.33" />
<polyline class="Bracket" fill="none" stroke="#000000" stroke-width="2.96" stroke-linejoin="bevel" points="171.935,401.102 188.362,401.102" />
<polyline class="Bracket" fill="none" stroke="#000000" stroke-width="2.96" stroke-linejoin="bevel" points="171.935,1074.33 188.362,1074.33" />
</svg>
