<svg id="Layer_1" data-name="Layer 1" xmlns="http://www.w3.org/2000/svg" viewBox="0 0 122.88 121.83"><defs><style>.cls-1,.cls-2{fill-rule:evenodd;}.cls-2{fill:red;}.cls-3{fill:#fff;}</style></defs><title>eps</title><path class="cls-1" d="M102.42,37H81.92a8.52,8.52,0,0,1-8.85-8.7V7.53H21a.58.58,0,0,0-.41.18.45.45,0,0,0-.18.42V113.71a.7.7,0,0,0,.18.41.51.51,0,0,0,.41.18h80.84c.18,0,.17-.09.26-.18s.34-.28.34-.41V37Zm7.47,79.08a5.77,5.77,0,0,1-5.76,5.76H18.66a5.77,5.77,0,0,1-5.76-5.76V5.76a5.7,5.7,0,0,1,1.69-4.07A5.77,5.77,0,0,1,18.66,0H76.9a4.22,4.22,0,0,1,2.46.82l29.75,30.12a2.57,2.57,0,0,1,.78,2.6v82.53ZM80,27.69,79.57,9.63,100.66,31l-18.14-.81A2.4,2.4,0,0,1,80,27.69Z"/><path class="cls-2" d="M6.71,46.28H116.17A6.73,6.73,0,0,1,122.88,53v45.1a6.73,6.73,0,0,1-6.71,6.71H6.71A6.73,6.73,0,0,1,0,98.09V53a6.73,6.73,0,0,1,6.71-6.71Z"/><path class="cls-3" d="M16.19,59.78H42.26v6.73H26v5h15.1V78H26v6.21H42.74V91.3H16.19V59.78Zm31.75,0H64.15c3.53,0,6.17.83,7.93,2.51s2.63,4.08,2.63,7.18a9.74,9.74,0,0,1-2.87,7.47c-1.92,1.8-4.85,2.69-8.78,2.69H57.72V91.3H47.94V59.78Zm9.78,13.47h2.4a6.21,6.21,0,0,0,4-1,3.15,3.15,0,0,0,1.15-2.51,3.48,3.48,0,0,0-1-2.52c-.66-.69-1.91-1-3.74-1H57.72v7Zm20.39,7.63,9.25-.58a7,7,0,0,0,1.22,3.41,5.18,5.18,0,0,0,4.3,1.91,4.75,4.75,0,0,0,3.21-1,2.92,2.92,0,0,0,1.13-2.27,2.88,2.88,0,0,0-1.06-2.19c-.71-.65-2.37-1.25-5-1.83q-6.41-1.44-9.13-3.83a7.67,7.67,0,0,1-2.75-6.07,8.22,8.22,0,0,1,1.41-4.58,9.27,9.27,0,0,1,4.23-3.4,19.89,19.89,0,0,1,7.75-1.23q6,0,9.21,2.25c2.12,1.5,3.37,3.88,3.78,7.16l-9.16.54A5,5,0,0,0,95,66.08a4.9,4.9,0,0,0-3.23-1,4,4,0,0,0-2.56.72,2.2,2.2,0,0,0-.86,1.76A1.78,1.78,0,0,0,89,68.93a7.84,7.84,0,0,0,3.26,1.16,40.07,40.07,0,0,1,9.13,2.79,9.51,9.51,0,0,1,4,3.49A8.84,8.84,0,0,1,106.69,81,10,10,0,0,1,105,86.63a10.49,10.49,0,0,1-4.68,3.88,19,19,0,0,1-7.59,1.32c-5.35,0-9.07-1-11.13-3.1a12.18,12.18,0,0,1-3.5-7.85Z"/></svg>