<?xml version="1.0" encoding="UTF-8"?>
<svg xmlns="http://www.w3.org/2000/svg" xmlns:xlink="http://www.w3.org/1999/xlink" width="33" height="21" viewBox="0 0 33 21">
<path fill="none" stroke-width="32.5295" stroke-linecap="round" stroke-linejoin="round" stroke="rgb(0%, 0%, 0%)" stroke-opacity="1" stroke-miterlimit="10" d="M 114.088903 163.833809 C 100.817795 204.054275 81.714908 167.618077 81.168135 100.987519 C 80.836126 60.104185 88.631699 27.02292 98.524804 13.530747 C 107.786827 0.946142 117.972266 5.614639 126.257539 26.276016 C 138.780739 121.539219 156.396863 204.63462 177.867433 269.603864 C 188.713016 302.320062 200.461697 330.087068 212.892885 352.44173 " transform="matrix(0.113137, -0.0468644, -0.0117155, -0.0282833, 0, 21)"/>
<path fill="none" stroke-width="32.5295" stroke-linecap="round" stroke-linejoin="round" stroke="rgb(0%, 0%, 0%)" stroke-opacity="1" stroke-miterlimit="10" d="M 68.999499 238.545312 C 55.716184 278.647894 36.625504 242.32958 36.078731 175.699023 C 35.717252 134.864519 43.530088 101.616539 53.4354 88.242251 C 62.697423 75.657645 72.853392 80.374973 81.168135 100.987519 " transform="matrix(0.113137, -0.0468644, -0.0117155, -0.0282833, 0, 21)"/>
<path fill="none" stroke-width="38.0441" stroke-linecap="round" stroke-linejoin="round" stroke="rgb(0%, 0%, 0%)" stroke-opacity="1" stroke-miterlimit="10" d="M 243.355607 47.426049 C 247.157235 47.455878 251.516576 43.962844 253.997299 49.909258 " transform="matrix(0.097754, -0.0355797, -0.0177892, -0.048877, 0, 21)"/>
<path fill="none" stroke-width="38.0441" stroke-linecap="round" stroke-linejoin="round" stroke="rgb(0%, 0%, 0%)" stroke-opacity="1" stroke-miterlimit="10" d="M 260.524624 -26.210829 C 264.326252 -26.181 268.685593 -29.674034 271.166316 -23.727621 " transform="matrix(0.097754, -0.0355797, -0.0177892, -0.048877, 0, 21)"/>
<path fill="none" stroke-width="32.5295" stroke-linecap="round" stroke-linejoin="round" stroke="rgb(0%, 0%, 0%)" stroke-opacity="1" stroke-miterlimit="10" d="M 233.822486 -210.652593 C 239.70655 -229.517635 241.764816 -261.655307 238.883932 -289.476109 C 236.003048 -317.296911 228.866612 -334.199296 221.371206 -330.895042 " transform="matrix(0.113137, -0.0468644, -0.0117155, -0.0282833, 0, 21)"/>
</svg>
