<?xml version="1.0" encoding="UTF-8"?>
<svg xmlns="http://www.w3.org/2000/svg" xmlns:xlink="http://www.w3.org/1999/xlink" width="30" height="27" viewBox="0 0 30 27">
<path fill="none" stroke-width="32.5295" stroke-linecap="round" stroke-linejoin="round" stroke="rgb(0%, 0%, 0%)" stroke-opacity="1" stroke-miterlimit="10" d="M 200.129926 481.592711 L 95.141981 232.932619 L 109.50021 244.221886 " transform="matrix(0.113137, -0.0468644, -0.0117155, -0.0282833, 0, 27)"/>
<path fill="none" stroke-width="32.5295" stroke-linecap="round" stroke-linejoin="round" stroke="rgb(0%, 0%, 0%)" stroke-opacity="1" stroke-miterlimit="10" d="M 200.129926 481.592711 C 222.704511 504.542185 246.45066 501.795236 268.674014 473.672972 C 275.448334 465.07229 282.049658 454.134135 288.389577 441.005001 L 183.401633 192.344909 L 197.772069 203.752061 " transform="matrix(0.113137, -0.0468644, -0.0117155, -0.0282833, 0, 27)"/>
<path fill="none" stroke-width="38.0441" stroke-linecap="round" stroke-linejoin="round" stroke="rgb(0%, 0%, 0%)" stroke-opacity="1" stroke-miterlimit="10" d="M 67.129261 85.399289 C 70.966175 85.403432 75.29023 81.936084 77.793397 87.786239 " transform="matrix(0.097754, -0.0355797, -0.0177892, -0.048877, 0, 27)"/>
<path fill="none" stroke-width="38.0441" stroke-linecap="round" stroke-linejoin="round" stroke="rgb(0%, 0%, 0%)" stroke-opacity="1" stroke-miterlimit="10" d="M 25.392493 24.033138 C 29.229408 24.037281 33.553462 20.569933 36.034186 26.516346 " transform="matrix(0.097754, -0.0355797, -0.0177892, -0.048877, 0, 27)"/>
</svg>
