<?xml version="1.0" encoding="UTF-8"?>
<svg xmlns="http://www.w3.org/2000/svg" xmlns:xlink="http://www.w3.org/1999/xlink" width="39" height="21" viewBox="0 0 39 21">
<path fill="none" stroke-width="32.5295" stroke-linecap="round" stroke-linejoin="round" stroke="rgb(0%, 0%, 0%)" stroke-opacity="1" stroke-miterlimit="10" d="M 159.355128 88.829319 C 146.071813 128.931901 126.981133 92.613587 126.43436 25.98303 C 126.102351 -14.900305 133.897924 -47.981569 143.791029 -61.473742 C 153.053052 -74.058348 163.238491 -69.38985 171.523764 -48.728473 C 184.046964 46.534729 201.663088 129.630131 223.133658 194.599374 C 233.979241 227.315572 245.727922 255.082579 258.15911 277.43724 " transform="matrix(0.113137, -0.0468644, -0.0117155, -0.0282833, 0, 21)"/>
<path fill="none" stroke-width="32.5295" stroke-linecap="round" stroke-linejoin="round" stroke="rgb(0%, 0%, 0%)" stroke-opacity="1" stroke-miterlimit="10" d="M 114.265724 163.540822 C 100.982409 203.643404 81.891729 167.325091 81.344956 100.694533 C 80.983477 59.86003 88.80852 26.729934 98.701625 13.237761 C 107.963648 0.653156 118.119617 5.370484 126.43436 25.98303 " transform="matrix(0.113137, -0.0468644, -0.0117155, -0.0282833, 0, 21)"/>
<path fill="none" stroke-width="38.0441" stroke-linecap="round" stroke-linejoin="round" stroke="rgb(0%, 0%, 0%)" stroke-opacity="1" stroke-miterlimit="10" d="M 34.928131 76.871894 C 38.729759 76.901723 43.053814 73.434375 45.556981 79.284531 " transform="matrix(0.097754, -0.0355797, -0.0177892, -0.048877, 0, 21)"/>
<path fill="none" stroke-width="38.0441" stroke-linecap="round" stroke-linejoin="round" stroke="rgb(0%, 0%, 0%)" stroke-opacity="1" stroke-miterlimit="10" d="M 297.554418 7.972371 C 301.356047 8.0022 305.715387 4.509166 308.196111 10.455579 " transform="matrix(0.097754, -0.0355797, -0.0177892, -0.048877, 0, 21)"/>
<path fill="none" stroke-width="38.0441" stroke-linecap="round" stroke-linejoin="round" stroke="rgb(0%, 0%, 0%)" stroke-opacity="1" stroke-miterlimit="10" d="M 314.723435 -65.664508 C 318.525064 -65.634679 322.884404 -69.127713 325.365128 -63.1813 " transform="matrix(0.097754, -0.0355797, -0.0177892, -0.048877, 0, 21)"/>
<path fill="none" stroke-width="32.5295" stroke-linecap="round" stroke-linejoin="round" stroke="rgb(0%, 0%, 0%)" stroke-opacity="1" stroke-miterlimit="10" d="M 279.088711 -285.657083 C 284.972775 -304.522124 287.031041 -336.659797 284.150157 -364.480599 C 281.269273 -392.3014 274.132837 -409.203786 266.637431 -405.899532 " transform="matrix(0.113137, -0.0468644, -0.0117155, -0.0282833, 0, 21)"/>
</svg>
