<?xml version="1.0" encoding="UTF-8"?>
<svg xmlns="http://www.w3.org/2000/svg" xmlns:xlink="http://www.w3.org/1999/xlink" width="37" height="18" viewBox="0 0 37 18">
<path fill="none" stroke-width="32.5295" stroke-linecap="round" stroke-linejoin="round" stroke="rgb(0%, 0%, 0%)" stroke-opacity="1" stroke-miterlimit="10" d="M 66.991968 135.802059 C 53.708653 175.904641 34.617973 139.586327 34.0712 72.95577 C 33.739191 32.072435 41.522557 -1.126714 51.427868 -14.501002 C 60.689892 -27.085608 70.875331 -22.417111 79.160604 -1.755734 C 91.683804 93.507469 109.299928 176.60287 130.758291 241.454229 C 141.61608 274.288312 153.364762 302.055319 165.79595 324.40998 " transform="matrix(0.113137, -0.0468644, -0.0117155, -0.0282833, 0, 18)"/>
<path fill="none" stroke-width="38.0441" stroke-linecap="round" stroke-linejoin="round" stroke="rgb(0%, 0%, 0%)" stroke-opacity="1" stroke-miterlimit="10" d="M 188.326871 26.105304 C 192.1285 26.135133 196.452554 22.667784 198.968564 28.588512 " transform="matrix(0.097754, -0.0355797, -0.0177892, -0.048877, 0, 18)"/>
<path fill="none" stroke-width="38.0441" stroke-linecap="round" stroke-linejoin="round" stroke="rgb(0%, 0%, 0%)" stroke-opacity="1" stroke-miterlimit="10" d="M 208.770732 -29.535876 C 212.57236 -29.506047 216.931701 -32.999081 219.412425 -27.052668 " transform="matrix(0.097754, -0.0355797, -0.0177892, -0.048877, 0, 18)"/>
<path fill="none" stroke-width="38.0441" stroke-linecap="round" stroke-linejoin="round" stroke="rgb(0%, 0%, 0%)" stroke-opacity="1" stroke-miterlimit="10" d="M 229.214593 -85.177056 C 233.016221 -85.147227 237.375562 -88.640261 239.856286 -82.693848 " transform="matrix(0.097754, -0.0355797, -0.0177892, -0.048877, 0, 18)"/>
<path fill="none" stroke-width="38.0441" stroke-linecap="round" stroke-linejoin="round" stroke="rgb(0%, 0%, 0%)" stroke-opacity="1" stroke-miterlimit="10" d="M 249.658454 -140.818235 C 253.460082 -140.788406 257.819423 -144.28144 260.287304 -138.405599 " transform="matrix(0.097754, -0.0355797, -0.0177892, -0.048877, 0, 18)"/>
<path fill="none" stroke-width="32.5295" stroke-linecap="round" stroke-linejoin="round" stroke="rgb(0%, 0%, 0%)" stroke-opacity="1" stroke-miterlimit="10" d="M 273.036575 -170.387924 C 282.348385 -160.819066 289.987773 -134.39169 293.662121 -98.908379 C 297.336469 -63.425068 296.618528 -23.011789 291.725702 10.093634 " transform="matrix(0.113137, -0.0468644, -0.0117155, -0.0282833, 0, 18)"/>
</svg>
