<?xml version="1.0" encoding="UTF-8"?>
<svg xmlns="http://www.w3.org/2000/svg" xmlns:xlink="http://www.w3.org/1999/xlink" width="31" height="27" viewBox="0 0 31 27">
<path fill="none" stroke-width="32.5295" stroke-linecap="round" stroke-linejoin="round" stroke="rgb(0%, 0%, 0%)" stroke-opacity="1" stroke-miterlimit="10" d="M 200.738403 232.398056 C 187.455087 272.500638 168.364408 236.182325 167.817635 169.551767 C 167.485626 128.668433 175.268991 95.469283 185.174303 82.094995 C 194.436327 69.51039 204.621766 74.178887 212.907038 94.840264 C 225.430239 190.103466 243.046363 273.198868 264.504726 338.050227 C 275.362515 370.88431 287.111197 398.651316 299.542385 421.005978 " transform="matrix(0.113137, -0.0468644, -0.0117155, -0.0282833, 0, 27)"/>
<path fill="none" stroke-width="32.5295" stroke-linecap="round" stroke-linejoin="round" stroke="rgb(0%, 0%, 0%)" stroke-opacity="1" stroke-miterlimit="10" d="M 155.648999 307.109559 C 142.365684 347.212141 123.275004 310.893828 122.728231 244.26327 C 122.366752 203.428767 130.179588 170.180786 140.0849 156.806498 C 149.346923 144.221893 159.502892 148.939221 167.817635 169.551767 " transform="matrix(0.113137, -0.0468644, -0.0117155, -0.0282833, 0, 27)"/>
<path fill="none" stroke-width="32.5295" stroke-linecap="round" stroke-linejoin="round" stroke="rgb(0%, 0%, 0%)" stroke-opacity="1" stroke-miterlimit="10" d="M 110.559595 381.821063 C 97.24681 421.972476 78.1856 385.605331 77.638827 318.974773 C 77.277348 278.14027 85.090184 244.89229 94.995496 231.518001 C 104.228049 218.982227 114.413488 223.650724 122.728231 244.26327 " transform="matrix(0.113137, -0.0468644, -0.0117155, -0.0282833, 0, 27)"/>
<path fill="none" stroke-width="38.0441" stroke-linecap="round" stroke-linejoin="round" stroke="rgb(0%, 0%, 0%)" stroke-opacity="1" stroke-miterlimit="10" d="M 66.975151 84.552432 C 75.703307 76.520506 84.736442 69.944893 94.003985 64.876965 C 103.377385 59.731979 112.962749 56.190934 122.641377 54.260319 " transform="matrix(0.097754, -0.0355797, -0.0177892, -0.048877, 0, 27)"/>
<path fill="none" stroke-width="38.0441" stroke-linecap="round" stroke-linejoin="round" stroke="rgb(0%, 0%, 0%)" stroke-opacity="1" stroke-miterlimit="10" d="M 25.251226 23.256853 C 29.075297 23.190425 33.399352 19.723077 35.880076 25.66949 " transform="matrix(0.097754, -0.0355797, -0.0177892, -0.048877, 0, 27)"/>
</svg>
