<?xml version="1.0" encoding="UTF-8"?>
<svg xmlns="http://www.w3.org/2000/svg" xmlns:xlink="http://www.w3.org/1999/xlink" width="25" height="21" viewBox="0 0 25 21">
<path fill="none" stroke-width="32.5295" stroke-linecap="round" stroke-linejoin="round" stroke="rgb(0%, 0%, 0%)" stroke-opacity="1" stroke-miterlimit="10" d="M 76.367049 226.33755 C 63.083734 266.440132 43.993054 230.121818 43.446281 163.491261 C 43.114272 122.607926 50.897638 89.408777 60.80295 76.034489 C 70.064973 63.449883 80.250412 68.11838 88.535685 88.779757 C 101.058885 184.04296 118.675009 267.138361 140.145579 332.107605 C 150.991161 364.823803 162.739843 392.59081 175.171031 414.945471 " transform="matrix(0.113137, -0.0468644, -0.0117155, -0.0282833, 0, 21)"/>
<path fill="none" stroke-width="38.0441" stroke-linecap="round" stroke-linejoin="round" stroke="rgb(0%, 0%, 0%)" stroke-opacity="1" stroke-miterlimit="10" d="M 193.284086 53.345852 C 197.072872 53.30511 201.432212 49.812076 203.912936 55.758489 " transform="matrix(0.097754, -0.0355797, -0.0177892, -0.048877, 0, 21)"/>
<path fill="none" stroke-width="32.5295" stroke-linecap="round" stroke-linejoin="round" stroke="rgb(0%, 0%, 0%)" stroke-opacity="1" stroke-miterlimit="10" d="M 173.555929 -110.7931 C 179.439993 -129.658142 181.46879 -161.746983 178.587905 -189.567785 C 175.707021 -217.388587 168.570586 -234.290972 161.10465 -231.035549 " transform="matrix(0.113137, -0.0468644, -0.0117155, -0.0282833, 0, 21)"/>
</svg>
