<?xml version="1.0" encoding="UTF-8"?>
<svg xmlns="http://www.w3.org/2000/svg" xmlns:xlink="http://www.w3.org/1999/xlink" width="45" height="21" viewBox="0 0 45 21">
<path fill="none" stroke-width="32.5295" stroke-linecap="round" stroke-linejoin="round" stroke="rgb(0%, 0%, 0%)" stroke-opacity="1" stroke-miterlimit="10" d="M 204.621353 13.82483 C 191.350245 54.045296 172.247358 17.609098 171.700585 -49.02146 C 171.368576 -89.904794 179.151942 -123.103944 189.057254 -136.478232 C 198.319277 -149.062837 208.504716 -144.39434 216.789989 -123.732963 C 229.313189 -28.46976 246.929313 54.625641 268.387676 119.477 C 279.245466 152.311083 290.994147 180.078089 303.425335 202.432751 " transform="matrix(0.113137, -0.0468644, -0.0117155, -0.0282833, 0, 21)"/>
<path fill="none" stroke-width="32.5295" stroke-linecap="round" stroke-linejoin="round" stroke="rgb(0%, 0%, 0%)" stroke-opacity="1" stroke-miterlimit="10" d="M 159.531949 88.536333 C 146.248634 128.638915 127.157955 92.320601 126.611181 25.690044 C 126.249702 -15.14446 134.074745 -48.274556 143.96785 -61.766728 C 153.229873 -74.351334 163.385842 -69.634006 171.700585 -49.02146 " transform="matrix(0.113137, -0.0468644, -0.0117155, -0.0282833, 0, 21)"/>
<path fill="none" stroke-width="32.5295" stroke-linecap="round" stroke-linejoin="round" stroke="rgb(0%, 0%, 0%)" stroke-opacity="1" stroke-miterlimit="10" d="M 114.442546 163.247836 C 101.12976 203.399249 82.068551 167.032104 81.521777 100.401547 C 81.160299 59.567043 88.985341 26.436948 98.878446 12.944775 C 108.110999 0.409 118.296439 5.077497 126.611181 25.690044 " transform="matrix(0.113137, -0.0468644, -0.0117155, -0.0282833, 0, 21)"/>
<path fill="none" stroke-width="38.0441" stroke-linecap="round" stroke-linejoin="round" stroke="rgb(0%, 0%, 0%)" stroke-opacity="1" stroke-miterlimit="10" d="M 35.104559 76.743464 C 38.941473 76.747607 43.265528 73.280259 45.746252 79.226673 " transform="matrix(0.097754, -0.0355797, -0.0177892, -0.048877, 0, 21)"/>
<path fill="none" stroke-width="38.0441" stroke-linecap="round" stroke-linejoin="round" stroke="rgb(0%, 0%, 0%)" stroke-opacity="1" stroke-miterlimit="10" d="M 351.75323 -31.481308 C 355.554858 -31.451479 359.878913 -34.918827 362.394922 -28.9981 " transform="matrix(0.097754, -0.0355797, -0.0177892, -0.048877, 0, 21)"/>
<path fill="none" stroke-width="38.0441" stroke-linecap="round" stroke-linejoin="round" stroke="rgb(0%, 0%, 0%)" stroke-opacity="1" stroke-miterlimit="10" d="M 368.922247 -105.118187 C 372.723875 -105.088358 377.083216 -108.581392 379.563939 -102.634979 " transform="matrix(0.097754, -0.0355797, -0.0177892, -0.048877, 0, 21)"/>
<path fill="none" stroke-width="32.5295" stroke-linecap="round" stroke-linejoin="round" stroke="rgb(0%, 0%, 0%)" stroke-opacity="1" stroke-miterlimit="10" d="M 324.354936 -360.661572 C 330.239 -379.526614 332.297266 -411.664286 329.416382 -439.485088 C 326.535498 -467.30589 319.399062 -484.208275 311.903656 -480.904021 " transform="matrix(0.113137, -0.0468644, -0.0117155, -0.0282833, 0, 21)"/>
</svg>
