<?xml version="1.0" encoding="UTF-8"?>
<svg xmlns="http://www.w3.org/2000/svg" xmlns:xlink="http://www.w3.org/1999/xlink" width="26" height="17" viewBox="0 0 26 17">
<path fill="none" stroke-width="32.5295" stroke-linecap="round" stroke-linejoin="round" stroke="rgb(0%, 0%, 0%)" stroke-opacity="1" stroke-miterlimit="10" d="M 36.108742 47.619902 L 21.750513 36.330635 L 126.738457 284.990727 C 135.0532 305.603273 145.209169 310.320602 154.471193 297.735996 C 164.376504 284.361708 172.18934 251.113727 171.827861 210.279224 C 171.281088 143.648667 152.190409 107.330353 138.907093 147.432935 " transform="matrix(0.113137, -0.0468644, -0.0117155, -0.0282833, 0, 17)"/>
<path fill="none" stroke-width="38.0441" stroke-linecap="round" stroke-linejoin="round" stroke="rgb(0%, 0%, 0%)" stroke-opacity="1" stroke-miterlimit="10" d="M 201.804993 -13.356331 C 205.641907 -13.352188 209.965962 -16.819536 212.446686 -10.873122 " transform="matrix(0.097754, -0.0355797, -0.0177892, -0.048877, 0, 17)"/>
<path fill="none" stroke-width="38.0441" stroke-linecap="round" stroke-linejoin="round" stroke="rgb(0%, 0%, 0%)" stroke-opacity="1" stroke-miterlimit="10" d="M 214.068166 -113.951472 C 217.892237 -114.017901 222.216292 -117.485249 224.732302 -111.564522 " transform="matrix(0.097754, -0.0355797, -0.0177892, -0.048877, 0, 17)"/>
</svg>
