<?xml version="1.0" encoding="UTF-8"?>
<svg xmlns="http://www.w3.org/2000/svg" xmlns:xlink="http://www.w3.org/1999/xlink" width="34" height="18" viewBox="0 0 34 18">
<path fill="none" stroke-width="32.5295" stroke-linecap="round" stroke-linejoin="round" stroke="rgb(0%, 0%, 0%)" stroke-opacity="1" stroke-miterlimit="10" d="M 66.991968 135.802059 C 53.708653 175.904641 34.617973 139.586327 34.0712 72.95577 C 33.739191 32.072435 41.522557 -1.126714 51.427868 -14.501002 C 60.689892 -27.085608 70.875331 -22.417111 79.160604 -1.755734 C 91.683804 93.507469 109.299928 176.60287 130.758291 241.454229 C 141.61608 274.288312 153.364762 302.055319 165.79595 324.40998 " transform="matrix(0.113137, -0.0468644, -0.0117155, -0.0282833, 0, 18)"/>
<path fill="none" stroke-width="38.0441" stroke-linecap="round" stroke-linejoin="round" stroke="rgb(0%, 0%, 0%)" stroke-opacity="1" stroke-miterlimit="10" d="M 188.326871 26.105304 C 192.1285 26.135133 196.452554 22.667784 198.968564 28.588512 " transform="matrix(0.097754, -0.0355797, -0.0177892, -0.048877, 0, 18)"/>
<path fill="none" stroke-width="38.0441" stroke-linecap="round" stroke-linejoin="round" stroke="rgb(0%, 0%, 0%)" stroke-opacity="1" stroke-miterlimit="10" d="M 205.495888 -47.531575 C 209.297517 -47.501746 213.656857 -50.99478 216.137581 -45.048367 " transform="matrix(0.097754, -0.0355797, -0.0177892, -0.048877, 0, 18)"/>
<path fill="none" stroke-width="38.0441" stroke-linecap="round" stroke-linejoin="round" stroke="rgb(0%, 0%, 0%)" stroke-opacity="1" stroke-miterlimit="10" d="M 222.664905 -121.168454 C 226.466534 -121.138625 230.825874 -124.631659 233.306598 -118.685246 " transform="matrix(0.097754, -0.0355797, -0.0177892, -0.048877, 0, 18)"/>
<path fill="none" stroke-width="32.5295" stroke-linecap="round" stroke-linejoin="round" stroke="rgb(0%, 0%, 0%)" stroke-opacity="1" stroke-miterlimit="10" d="M 250.491873 -133.032173 C 259.803683 -123.463315 267.443071 -97.035938 271.117419 -61.552627 C 274.791767 -26.069316 274.073826 14.343962 269.168793 47.331501 " transform="matrix(0.113137, -0.0468644, -0.0117155, -0.0282833, 0, 18)"/>
</svg>
