<?xml version="1.0" encoding="UTF-8"?>
<svg xmlns="http://www.w3.org/2000/svg" xmlns:xlink="http://www.w3.org/1999/xlink" width="37" height="15" viewBox="0 0 37 15">
<path fill="none" stroke-width="32.5295" stroke-linecap="round" stroke-linejoin="round" stroke="rgb(0%, 0%, 0%)" stroke-opacity="1" stroke-miterlimit="10" d="M 126.738457 284.990727 L 21.750513 36.330635 L 36.108742 47.619902 " transform="matrix(0.113137, -0.0468644, -0.0117155, -0.0282833, 0, 15)"/>
<path fill="none" stroke-width="38.0441" stroke-linecap="round" stroke-linejoin="round" stroke="rgb(0%, 0%, 0%)" stroke-opacity="1" stroke-miterlimit="10" d="M 152.736583 52.972067 C 156.525369 52.931324 160.897552 49.508861 163.365433 55.384703 " transform="matrix(0.097754, -0.0355797, -0.0177892, -0.048877, 0, 15)"/>
<path fill="none" stroke-width="38.0441" stroke-linecap="round" stroke-linejoin="round" stroke="rgb(0%, 0%, 0%)" stroke-opacity="1" stroke-miterlimit="10" d="M 182.178293 -9.21904 C 186.002365 -9.285469 190.32642 -12.752817 192.807144 -6.806403 " transform="matrix(0.097754, -0.0355797, -0.0177892, -0.048877, 0, 15)"/>
<path fill="none" stroke-width="38.0441" stroke-linecap="round" stroke-linejoin="round" stroke="rgb(0%, 0%, 0%)" stroke-opacity="1" stroke-miterlimit="10" d="M 211.620004 -71.410147 C 215.444075 -71.476575 219.76813 -74.943923 222.28414 -69.023196 " transform="matrix(0.097754, -0.0355797, -0.0177892, -0.048877, 0, 15)"/>
<path fill="none" stroke-width="35.1671" stroke-linecap="round" stroke-linejoin="round" stroke="rgb(0%, 0%, 0%)" stroke-opacity="1" stroke-miterlimit="10" d="M 224.728636 -572.587223 C 216.30589 -542.9959 203.317771 -548.660246 196.726057 -584.990187 C 189.597239 -624.249962 193.039579 -678.842536 202.951565 -709.508132 C 218.576369 -758.143376 239.645442 -730.309953 258.981138 -709.605793 " transform="matrix(0.080001, -0.080001, -0.019999, -0.019999, 0, 15)"/>
</svg>
