<?xml version="1.0" encoding="UTF-8"?>
<svg xmlns="http://www.w3.org/2000/svg" xmlns:xlink="http://www.w3.org/1999/xlink" width="30" height="14" viewBox="0 0 30 14">
<path fill="none" stroke-width="32.5295" stroke-linecap="round" stroke-linejoin="round" stroke="rgb(0%, 0%, 0%)" stroke-opacity="1" stroke-miterlimit="10" d="M 123.61343 254.81223 L 18.613279 6.034253 L 32.995922 17.55929 " transform="matrix(0.113137, -0.0468644, -0.0117155, -0.0282833, 0, 14)"/>
<path fill="none" stroke-width="32.5295" stroke-linecap="round" stroke-linejoin="round" stroke="rgb(0%, 0%, 0%)" stroke-opacity="1" stroke-miterlimit="10" d="M 123.61343 254.81223 C 126.6812 225.421418 125.26385 186.060232 132.417592 169.787171 C 140.6769 150.85356 148.81801 184.46007 157.445218 198.754187 L 173.764281 101.277211 " transform="matrix(0.113137, -0.0468644, -0.0117155, -0.0282833, 0, 14)"/>
<path fill="none" stroke-width="38.0441" stroke-linecap="round" stroke-linejoin="round" stroke="rgb(0%, 0%, 0%)" stroke-opacity="1" stroke-miterlimit="10" d="M 139.624365 -19.081301 C 143.413151 -19.122044 147.772491 -22.615078 150.253215 -16.668665 " transform="matrix(0.097754, -0.0355797, -0.0177892, -0.048877, 0, 14)"/>
<path fill="none" stroke-width="32.5295" stroke-linecap="round" stroke-linejoin="round" stroke="rgb(0%, 0%, 0%)" stroke-opacity="1" stroke-miterlimit="10" d="M 217.689491 -112.379032 C 226.989094 -102.928059 234.611218 -76.333967 238.285567 -40.850656 C 241.959915 -5.367345 241.259236 34.879218 236.36641 67.984641 " transform="matrix(0.113137, -0.0468644, -0.0117155, -0.0282833, 0, 14)"/>
</svg>
