<?xml version="1.0" encoding="UTF-8"?>
<svg xmlns="http://www.w3.org/2000/svg" xmlns:xlink="http://www.w3.org/1999/xlink" width="32" height="20" viewBox="0 0 32 20">
<path fill="none" stroke-width="32.5295" stroke-linecap="round" stroke-linejoin="round" stroke="rgb(0%, 0%, 0%)" stroke-opacity="1" stroke-miterlimit="10" d="M 104.713822 73.298318 C 91.430507 113.4009 72.339827 77.082586 71.793054 10.452028 C 71.461045 -30.431306 79.256618 -63.512571 89.149723 -77.004744 C 98.411746 -89.589349 108.597185 -84.920852 116.882458 -64.259475 C 129.405658 31.003728 147.021782 114.099129 168.480145 178.950488 C 179.337934 211.784571 191.086616 239.551577 203.517804 261.906239 " transform="matrix(0.113137, -0.0468644, -0.0117155, -0.0282833, 0, 20)"/>
<path fill="none" stroke-width="32.5295" stroke-linecap="round" stroke-linejoin="round" stroke="rgb(0%, 0%, 0%)" stroke-opacity="1" stroke-miterlimit="10" d="M 59.624418 148.009821 C 46.341103 188.112403 27.250423 151.794089 26.70365 85.163532 C 26.342171 44.329028 34.155007 11.081048 44.060319 -2.29324 C 53.322342 -14.877846 63.478311 -10.160518 71.793054 10.452028 " transform="matrix(0.113137, -0.0468644, -0.0117155, -0.0282833, 0, 20)"/>
<path fill="none" stroke-width="32.5295" stroke-linecap="round" stroke-linejoin="round" stroke="rgb(0%, 0%, 0%)" stroke-opacity="1" stroke-miterlimit="10" d="M 203.517804 261.906239 C 225.523437 298.366596 250.749927 256.567219 259.864824 168.541275 C 268.996983 80.348616 258.547674 -20.560733 236.512571 -56.972259 " transform="matrix(0.113137, -0.0468644, -0.0117155, -0.0282833, 0, 20)"/>
<path fill="none" stroke-width="38.0441" stroke-linecap="round" stroke-linejoin="round" stroke="rgb(0%, 0%, 0%)" stroke-opacity="1" stroke-miterlimit="10" d="M 250.661564 -80.409641 C 254.463193 -80.379812 258.822533 -83.872846 261.303257 -77.926433 " transform="matrix(0.097754, -0.0355797, -0.0177892, -0.048877, 0, 20)"/>
<path fill="none" stroke-width="38.0441" stroke-linecap="round" stroke-linejoin="round" stroke="rgb(0%, 0%, 0%)" stroke-opacity="1" stroke-miterlimit="10" d="M 267.830581 -154.04652 C 271.63221 -154.016691 275.99155 -157.509725 278.459432 -151.633883 " transform="matrix(0.097754, -0.0355797, -0.0177892, -0.048877, 0, 20)"/>
</svg>
